<?xml version="1.0" encoding="UTF-8" standalone="no"?>
<!-- Created with Inkscape (http://www.inkscape.org/) -->

<svg
   xmlns:dc="http://purl.org/dc/elements/1.1/"
   xmlns:cc="http://creativecommons.org/ns#"
   xmlns:rdf="http://www.w3.org/1999/02/22-rdf-syntax-ns#"
   xmlns:svg="http://www.w3.org/2000/svg"
   xmlns="http://www.w3.org/2000/svg"
   xmlns:sodipodi="http://sodipodi.sourceforge.net/DTD/sodipodi-0.dtd"
   xmlns:inkscape="http://www.inkscape.org/namespaces/inkscape"
   width="91"
   height="91"
   id="svg6058"
   version="1.1"
   inkscape:version="0.48.4 r9939"
   sodipodi:docname="ams.svg">
  <defs
     id="defs6060">
    <clipPath
       clipPathUnits="userSpaceOnUse"
       id="clipPath5199">
      <path
         inkscape:connector-curvature="0"
         d="m 354.553,125.072 70.866,0 0,70.867 -70.866,0 0,-70.867 z"
         id="path5201" />
    </clipPath>
    <clipPath
       clipPathUnits="userSpaceOnUse"
       id="clipPath5622">
      <path
         inkscape:connector-curvature="0"
         d="m 331.876,361.672 70.866,0 0,70.867 -70.866,0 0,-70.867 z"
         id="path5624" />
    </clipPath>
    <clipPath
       clipPathUnits="userSpaceOnUse"
       id="clipPath5590">
      <path
         inkscape:connector-curvature="0"
         d="m 331.876,440.539 70.866,0 0,70.866 -70.866,0 0,-70.866 z"
         id="path5592" />
    </clipPath>
    <clipPath
       clipPathUnits="userSpaceOnUse"
       id="clipPath5223">
      <path
         inkscape:connector-curvature="0"
         d="m 354.553,46.205 70.866,0 0,70.867 -70.866,0 0,-70.867 z"
         id="path5225" />
    </clipPath>
    <clipPath
       clipPathUnits="userSpaceOnUse"
       id="clipPath4536">
      <path
         inkscape:connector-curvature="0"
         d="m 335.419,202.684 63.779,0 0,63.78 -63.779,0 0,-63.78 z"
         id="path4538" />
    </clipPath>
    <clipPath
       clipPathUnits="userSpaceOnUse"
       id="clipPath4582">
      <path
         inkscape:connector-curvature="0"
         d="m 331.876,80.086 70.866,0 0,70.866 -70.866,0 0,-70.866 z"
         id="path4584" />
    </clipPath>
    <clipPath
       clipPathUnits="userSpaceOnUse"
       id="clipPath4594">
      <path
         inkscape:connector-curvature="0"
         d="m 331.876,87.172 63.779,0 0,63.779 -63.779,0 0,-63.779 z"
         id="path4596" />
    </clipPath>
    <clipPath
       clipPathUnits="userSpaceOnUse"
       id="clipPath4606">
      <path
         inkscape:connector-curvature="0"
         d="m 331.876,80.086 70.866,0 0,70.866 -70.866,0 0,-70.866 z"
         id="path4608" />
    </clipPath>
    <clipPath
       clipPathUnits="userSpaceOnUse"
       id="clipPath5664">
      <path
         inkscape:connector-curvature="0"
         d="m 331.876,254.208 70.866,0 0,70.866 -70.866,0 0,-70.866 z"
         id="path5666" />
    </clipPath>
    <clipPath
       clipPathUnits="userSpaceOnUse"
       id="clipPath3431">
      <path
         inkscape:connector-curvature="0"
         d="m 358.096,346.049 63.779,0 0,63.78 -63.779,0 0,-63.78 z"
         id="path3433" />
    </clipPath>
    <clipPath
       clipPathUnits="userSpaceOnUse"
       id="clipPath5029">
      <path
         inkscape:connector-curvature="0"
         d="m 331.876,57.192 70.866,0 0,70.866 -70.866,0 0,-70.866 z"
         id="path5031" />
    </clipPath>
  </defs>
  <sodipodi:namedview
     id="base"
     pagecolor="#ffffff"
     bordercolor="#666666"
     borderopacity="1.0"
     inkscape:pageopacity="0.0"
     inkscape:pageshadow="2"
     inkscape:zoom="1.4"
     inkscape:cx="-38.177334"
     inkscape:cy="62.165378"
     inkscape:document-units="px"
     inkscape:current-layer="layer1"
     showgrid="false"
     inkscape:window-width="745"
     inkscape:window-height="597"
     inkscape:window-x="110"
     inkscape:window-y="110"
     inkscape:window-maximized="0" />
  <metadata
     id="metadata6063">
    <rdf:RDF>
      <cc:Work
         rdf:about="">
        <dc:format>image/svg+xml</dc:format>
        <dc:type
           rdf:resource="http://purl.org/dc/dcmitype/StillImage" />
        <dc:title />
      </cc:Work>
    </rdf:RDF>
  </metadata>
  <g
     inkscape:label="Capa 1"
     inkscape:groupmode="layer"
     id="layer1"
     transform="translate(0,-961.36218)">
    <g
       id="g5025"
       transform="matrix(1.2700043,0,0,-1.2700043,-420.98407,1124.4963)">
      <g
         id="g5027"
         clip-path="url(#clipPath5029)">
        <g
           id="g5033"
           transform="translate(402.7421,92.625)">
          <path
             d="m 0,0 c 0,-19.569 -15.863,-35.433 -35.434,-35.433 -19.568,0 -35.432,15.864 -35.432,35.433 0,19.569 15.864,35.434 35.432,35.434 C -15.863,35.434 0,19.569 0,0"
             style="fill:#e82426;fill-opacity:1;fill-rule:nonzero;stroke:none"
             id="path5035"
             inkscape:connector-curvature="0" />
        </g>
        <g
           id="g5037"
           transform="translate(399.1951,92.625)">
          <path
             d="m 0,0 c 0,-17.61 -14.275,-31.886 -31.887,-31.886 -17.609,0 -31.885,14.276 -31.885,31.886 0,17.61 14.276,31.887 31.885,31.887 C -14.275,31.887 0,17.61 0,0 z"
             style="fill:none;stroke:#ffffff;stroke-width:0.949;stroke-linecap:butt;stroke-linejoin:miter;stroke-miterlimit:10;stroke-opacity:1;stroke-dasharray:none"
             id="path5039"
             inkscape:connector-curvature="0" />
        </g>
        <g
           id="g5041"
           transform="translate(351.6097,85.4771)">
          <path
             d="m 0,0 -0.002,0 c 0,-0.203 0,-0.178 0.002,0"
             style="fill:#ffffff;fill-opacity:1;fill-rule:nonzero;stroke:none"
             id="path5043"
             inkscape:connector-curvature="0" />
        </g>
        <g
           id="g5045"
           transform="translate(373.1834,89.3364)">
          <path
             d="m 0,0 -9.121,0 c 3.282,6.655 6.9,13.327 10.435,20.324 0.44,0.869 0.151,1.992 -0.75,2.486 -0.843,0.465 -2.072,0.351 -2.585,-0.579 -4.393,-7.937 -8.176,-15.232 -11.878,-22.247 -2.191,0 -5.442,-0.013 -7.663,0 0,-1.49 -0.008,-3.324 -0.012,-3.843 0.027,0.013 5.541,0 5.668,0 -1.894,-3.533 -3.918,-7.358 -5.84,-10.883 1.825,0 3.493,-0.041 4.85,-0.028 1.922,3.731 3.662,7.237 5.684,10.924 3.845,-0.013 7.391,-0.013 11.239,-0.013 0.737,0 1.881,0.707 1.881,1.908 C 1.908,-0.877 1.074,0 0,0"
             style="fill:#ffffff;fill-opacity:1;fill-rule:nonzero;stroke:none"
             id="path5047"
             inkscape:connector-curvature="0" />
        </g>
        <g
           id="g5049"
           transform="translate(376.7148,96.9292)">
          <path
             d="M 0,0 C -0.606,3.133 1.486,7.542 4.428,12.518 4.342,12.552 0.148,12.485 0.158,12.505 -2.514,7.473 -6.029,1.711 -3.231,-3.634 c 2.225,-4.25 5.2,-7.562 5.623,-10.816 0.34,-2.6 -0.964,-4.486 -2.121,-6.684 -0.359,-0.685 -0.58,-1.767 0.381,-2.531 1.328,-1.051 2.608,0.154 2.758,0.299 1.828,2.232 3.027,5.445 3.055,8.351 C 6.52,-9.021 0.955,-4.954 0,0"
             style="fill:#ffffff;fill-opacity:1;fill-rule:nonzero;stroke:none"
             id="path5051"
             inkscape:connector-curvature="0" />
        </g>
        <g
           id="g5053"
           transform="translate(380.0819,73.5064)">
          <path
             d="M 0,0 C 0.064,0.076 0.072,0.084 0.043,0.057 0.029,0.037 0.016,0.017 0,0"
             style="fill:#ffffff;fill-opacity:1;fill-rule:nonzero;stroke:none"
             id="path5055"
             inkscape:connector-curvature="0" />
        </g>
      </g>
    </g>
  </g>
</svg>
