<?xml version="1.0" encoding="UTF-8" standalone="no"?>
<!-- Created with Inkscape (http://www.inkscape.org/) -->

<svg
   xmlns:dc="http://purl.org/dc/elements/1.1/"
   xmlns:cc="http://creativecommons.org/ns#"
   xmlns:rdf="http://www.w3.org/1999/02/22-rdf-syntax-ns#"
   xmlns:svg="http://www.w3.org/2000/svg"
   xmlns="http://www.w3.org/2000/svg"
   xmlns:sodipodi="http://sodipodi.sourceforge.net/DTD/sodipodi-0.dtd"
   xmlns:inkscape="http://www.inkscape.org/namespaces/inkscape"
   width="91"
   height="91"
   id="svg6058"
   version="1.1"
   inkscape:version="0.48.4 r9939"
   sodipodi:docname="dd.svg">
  <defs
     id="defs6060">
    <clipPath
       clipPathUnits="userSpaceOnUse"
       id="clipPath5199">
      <path
         inkscape:connector-curvature="0"
         d="m 354.553,125.072 70.866,0 0,70.867 -70.866,0 0,-70.867 z"
         id="path5201" />
    </clipPath>
    <clipPath
       clipPathUnits="userSpaceOnUse"
       id="clipPath5622">
      <path
         inkscape:connector-curvature="0"
         d="m 331.876,361.672 70.866,0 0,70.867 -70.866,0 0,-70.867 z"
         id="path5624" />
    </clipPath>
    <clipPath
       clipPathUnits="userSpaceOnUse"
       id="clipPath5590">
      <path
         inkscape:connector-curvature="0"
         d="m 331.876,440.539 70.866,0 0,70.866 -70.866,0 0,-70.866 z"
         id="path5592" />
    </clipPath>
    <clipPath
       clipPathUnits="userSpaceOnUse"
       id="clipPath5223">
      <path
         inkscape:connector-curvature="0"
         d="m 354.553,46.205 70.866,0 0,70.867 -70.866,0 0,-70.867 z"
         id="path5225" />
    </clipPath>
    <clipPath
       clipPathUnits="userSpaceOnUse"
       id="clipPath4536">
      <path
         inkscape:connector-curvature="0"
         d="m 335.419,202.684 63.779,0 0,63.78 -63.779,0 0,-63.78 z"
         id="path4538" />
    </clipPath>
  </defs>
  <sodipodi:namedview
     id="base"
     pagecolor="#ffffff"
     bordercolor="#666666"
     borderopacity="1.0"
     inkscape:pageopacity="0.0"
     inkscape:pageshadow="2"
     inkscape:zoom="1.4"
     inkscape:cx="-38.177334"
     inkscape:cy="62.165378"
     inkscape:document-units="px"
     inkscape:current-layer="layer1"
     showgrid="false"
     inkscape:window-width="745"
     inkscape:window-height="597"
     inkscape:window-x="110"
     inkscape:window-y="110"
     inkscape:window-maximized="0" />
  <metadata
     id="metadata6063">
    <rdf:RDF>
      <cc:Work
         rdf:about="">
        <dc:format>image/svg+xml</dc:format>
        <dc:type
           rdf:resource="http://purl.org/dc/dcmitype/StillImage" />
        <dc:title></dc:title>
      </cc:Work>
    </rdf:RDF>
  </metadata>
  <g
     inkscape:label="Capa 1"
     inkscape:groupmode="layer"
     id="layer1"
     transform="translate(0,-961.36218)">
    <g
       transform="matrix(1.4111383,0,0,-1.4111383,-472.82359,1337.8782)"
       id="g4532">
      <g
         id="g4534"
         clip-path="url(#clipPath4536)">
        <g
           id="g4540"
           transform="translate(399.1987,234.5735)">
          <path
             inkscape:connector-curvature="0"
             d="m 0,0 c 0,-17.612 -14.277,-31.89 -31.89,-31.89 -17.612,0 -31.889,14.278 -31.889,31.89 0,17.612 14.277,31.89 31.889,31.89 C -14.277,31.89 0,17.612 0,0"
             style="fill:#196739;fill-opacity:1;fill-rule:nonzero;stroke:none"
             id="path4542" />
        </g>
        <g
           id="g4544"
           transform="translate(396.0065,234.5735)">
          <path
             inkscape:connector-curvature="0"
             d="m 0,0 c 0,-15.849 -12.848,-28.698 -28.698,-28.698 -15.848,0 -28.697,12.849 -28.697,28.698 0,15.849 12.849,28.698 28.697,28.698 C -12.848,28.698 0,15.849 0,0 z"
             style="fill:none;stroke:#ffffff;stroke-width:0.85399997;stroke-linecap:butt;stroke-linejoin:miter;stroke-miterlimit:10;stroke-opacity:1;stroke-dasharray:none"
             id="path4546" />
        </g>
        <g
           id="g4548"
           transform="translate(382.0979,237.3328)">
          <path
             inkscape:connector-curvature="0"
             d="M 0,0 -1.777,9.952 -9.506,3.437 -6.217,2.248 -8.314,-3.495 c -4.121,1.191 -7.909,0.938 -11.282,-0.752 -6.893,-3.456 -9.436,-11.667 -9.541,-12.015 l -0.441,-1.464 2.926,-0.884 0.446,1.463 c 0.022,0.072 2.288,7.321 7.997,10.171 2.981,1.489 6.448,1.533 10.302,0.129 L -6.47,-7.369 -3.338,1.208 0,0 z"
             style="fill:#ffffff;fill-opacity:1;fill-rule:nonzero;stroke:none"
             id="path4550" />
        </g>
        <g
           id="g4552"
           transform="translate(363.9362,246.3178)">
          <path
             inkscape:connector-curvature="0"
             d="m 0,0 0,-1.659 c -1.063,0.172 -1.57,0.547 -1.57,0.824 0,0.397 0.602,0.697 1.57,0.835 m 4.119,-5.224 c 0,-0.278 -0.505,-0.653 -1.568,-0.826 l 0,1.66 C 3.519,-4.528 4.119,-4.829 4.119,-5.224 M 0,-4.234 l 0,-0.071 0,-1.839 -2.187,0 c -0.705,0 -1.274,-0.572 -1.274,-1.276 0,-0.705 0.569,-1.276 1.274,-1.276 l 2.187,0 0,-1.645 2.551,0 0,1.716 c 3.006,0.345 4.118,1.917 4.118,3.401 0,0.943 -0.441,3.01 -4.118,3.4 l 0,0.071 0,1.838 1.905,0 c 0.705,0 1.274,0.572 1.274,1.276 0,0.704 -0.569,1.276 -1.274,1.276 l -1.905,0 0,1.47 L 0,4.107 0,2.566 C -3.679,2.177 -4.12,0.109 -4.12,-0.835 -4.12,-2.318 -3.008,-3.89 0,-4.234"
             style="fill:#ffffff;fill-opacity:1;fill-rule:nonzero;stroke:none"
             id="path4554" />
        </g>
      </g>
    </g>
  </g>
</svg>
