<?xml version="1.0" encoding="UTF-8" standalone="no"?>
<!-- Created with Inkscape (http://www.inkscape.org/) -->

<svg
   xmlns:dc="http://purl.org/dc/elements/1.1/"
   xmlns:cc="http://creativecommons.org/ns#"
   xmlns:rdf="http://www.w3.org/1999/02/22-rdf-syntax-ns#"
   xmlns:svg="http://www.w3.org/2000/svg"
   xmlns="http://www.w3.org/2000/svg"
   xmlns:sodipodi="http://sodipodi.sourceforge.net/DTD/sodipodi-0.dtd"
   xmlns:inkscape="http://www.inkscape.org/namespaces/inkscape"
   width="91"
   height="91"
   id="svg6058"
   version="1.1"
   inkscape:version="0.91 r13725"
   sodipodi:docname="Budistas.svg">
  <defs
     id="defs6060">
    <clipPath
       clipPathUnits="userSpaceOnUse"
       id="clipPath5199">
      <path
         inkscape:connector-curvature="0"
         d="m 354.553,125.072 70.866,0 0,70.867 -70.866,0 0,-70.867 z"
         id="path5201" />
    </clipPath>
    <clipPath
       clipPathUnits="userSpaceOnUse"
       id="clipPath5622">
      <path
         inkscape:connector-curvature="0"
         d="m 331.876,361.672 70.866,0 0,70.867 -70.866,0 0,-70.867 z"
         id="path5624" />
    </clipPath>
    <clipPath
       clipPathUnits="userSpaceOnUse"
       id="clipPath5590">
      <path
         inkscape:connector-curvature="0"
         d="m 331.876,440.539 70.866,0 0,70.866 -70.866,0 0,-70.866 z"
         id="path5592" />
    </clipPath>
    <clipPath
       clipPathUnits="userSpaceOnUse"
       id="clipPath5223">
      <path
         inkscape:connector-curvature="0"
         d="m 354.553,46.205 70.866,0 0,70.867 -70.866,0 0,-70.867 z"
         id="path5225" />
    </clipPath>
    <clipPath
       clipPathUnits="userSpaceOnUse"
       id="clipPath4536">
      <path
         inkscape:connector-curvature="0"
         d="m 335.419,202.684 63.779,0 0,63.78 -63.779,0 0,-63.78 z"
         id="path4538" />
    </clipPath>
    <clipPath
       clipPathUnits="userSpaceOnUse"
       id="clipPath4582">
      <path
         inkscape:connector-curvature="0"
         d="m 331.876,80.086 70.866,0 0,70.866 -70.866,0 0,-70.866 z"
         id="path4584" />
    </clipPath>
    <clipPath
       clipPathUnits="userSpaceOnUse"
       id="clipPath4594">
      <path
         inkscape:connector-curvature="0"
         d="m 331.876,87.172 63.779,0 0,63.779 -63.779,0 0,-63.779 z"
         id="path4596" />
    </clipPath>
    <clipPath
       clipPathUnits="userSpaceOnUse"
       id="clipPath4606">
      <path
         inkscape:connector-curvature="0"
         d="m 331.876,80.086 70.866,0 0,70.866 -70.866,0 0,-70.866 z"
         id="path4608" />
    </clipPath>
    <clipPath
       clipPathUnits="userSpaceOnUse"
       id="clipPath5664">
      <path
         inkscape:connector-curvature="0"
         d="m 331.876,254.208 70.866,0 0,70.866 -70.866,0 0,-70.866 z"
         id="path5666" />
    </clipPath>
    <clipPath
       clipPathUnits="userSpaceOnUse"
       id="clipPath3431">
      <path
         inkscape:connector-curvature="0"
         d="m 358.096,346.049 63.779,0 0,63.78 -63.779,0 0,-63.78 z"
         id="path3433" />
    </clipPath>
    <clipPath
       clipPathUnits="userSpaceOnUse"
       id="clipPath4934">
      <path
         d="m 355.953,179.918 68.258,0 0,68.259 -68.258,0 0,-68.259 z"
         id="path4936"
         inkscape:connector-curvature="0" />
    </clipPath>
    <clipPath
       clipPathUnits="userSpaceOnUse"
       id="clipPath4636">
      <path
         d="m 358.096,257.732 63.779,0 0,63.779 -63.779,0 0,-63.779 z"
         id="path4638"
         inkscape:connector-curvature="0" />
    </clipPath>
  </defs>
  <sodipodi:namedview
     id="base"
     pagecolor="#ffffff"
     bordercolor="#666666"
     borderopacity="1.0"
     inkscape:pageopacity="0.0"
     inkscape:pageshadow="2"
     inkscape:zoom="1.4"
     inkscape:cx="-253.89162"
     inkscape:cy="67.220965"
     inkscape:document-units="px"
     inkscape:current-layer="layer1"
     showgrid="false"
     inkscape:window-width="1920"
     inkscape:window-height="996"
     inkscape:window-x="-8"
     inkscape:window-y="-8"
     inkscape:window-maximized="1" />
  <metadata
     id="metadata6063">
    <rdf:RDF>
      <cc:Work
         rdf:about="">
        <dc:format>image/svg+xml</dc:format>
        <dc:type
           rdf:resource="http://purl.org/dc/dcmitype/StillImage" />
        <dc:title />
      </cc:Work>
    </rdf:RDF>
  </metadata>
  <g
     inkscape:label="Capa 1"
     inkscape:groupmode="layer"
     id="layer1"
     transform="translate(0,-961.36218)">
    <g
       transform="matrix(1.25,0,0,-1.25,-441.98231,1368.8894)"
       id="g4632">
      <g
         id="g4634"
         clip-path="url(#clipPath4636)">
        <g
           id="g4640"
           transform="translate(421.4322,289.6221)">
          <path
             d="m 0,0 c 0,17.367 -14.078,31.446 -31.446,31.446 -17.367,0 -31.446,-14.079 -31.446,-31.446 0,-17.367 14.079,-31.446 31.446,-31.446 C -14.078,-31.446 0,-17.367 0,0 Z m -3.148,0 c 0,15.628 -12.669,28.298 -28.298,28.298 -15.628,0 -28.298,-12.67 -28.298,-28.298 0,-15.629 12.67,-28.299 28.298,-28.299 15.629,0 28.298,12.67 28.298,28.299 z"
             style="fill:none;stroke:#704021;stroke-width:0.88700002;stroke-linecap:butt;stroke-linejoin:miter;stroke-miterlimit:10;stroke-dasharray:none;stroke-opacity:1"
             id="path4642"
             inkscape:connector-curvature="0" />
        </g>
        <g
           id="g4644"
           transform="translate(387.6245,274.2234)">
          <path
             d="M 0,0 4.758,-0.012 C 4.391,-0.358 4.024,-0.704 3.657,-1.05 3.67,-1.186 3.654,-1.331 3.666,-1.467 4.26,-1.911 4.074,-2.396 3.052,-2.941 2.618,-3.224 2.51,-3.467 2.372,-3.546 2.204,-3.531 2.055,-3.191 1.706,-2.928 0.54,-2.495 0.432,-1.998 1.112,-1.433 l 0,0.371 L 0,0 Z"
             style="fill:#f38323;fill-opacity:1;fill-rule:evenodd;stroke:none"
             id="path4646"
             inkscape:connector-curvature="0" />
        </g>
        <path
           d="m 388.775,273.123 2.47,0 0,-0.357 -2.47,0 0,0.357 z m 2.52,0.051 -2.572,0 0,-0.459 2.572,0 0,0.459 z"
           style="fill:#131718;fill-opacity:1;fill-rule:nonzero;stroke:none"
           id="path4648"
           inkscape:connector-curvature="0" />
        <g
           id="g4650"
           transform="translate(388.7737,272.172)">
          <path
             d="m 0,0 c 0.044,-0.203 0.285,-0.296 0.482,-0.296 -0.289,0.139 -0.266,0.538 0,0.655 C 0.288,0.331 0.062,0.259 0,0"
             style="fill:#131718;fill-opacity:1;fill-rule:evenodd;stroke:none"
             id="path4652"
             inkscape:connector-curvature="0" />
        </g>
        <g
           id="g4654"
           transform="translate(391.1033,272.1985)">
          <path
             d="m 0,0 c -0.045,0.203 -0.285,0.296 -0.482,0.297 0.289,-0.139 0.267,-0.538 0,-0.655 C -0.288,-0.332 -0.062,-0.259 0,0"
             style="fill:#131718;fill-opacity:1;fill-rule:evenodd;stroke:none"
             id="path4656"
             inkscape:connector-curvature="0" />
        </g>
        <g
           id="g4658"
           transform="translate(387.6696,305.0207)">
          <path
             d="M 0,0 4.757,0.012 C 4.391,0.358 4.024,0.704 3.657,1.05 3.67,1.186 3.654,1.331 3.666,1.467 4.259,1.913 4.073,2.398 3.052,2.941 2.617,3.222 2.509,3.467 2.372,3.546 2.203,3.532 2.055,3.19 1.705,2.928 0.54,2.495 0.431,1.999 1.112,1.433 l 0,-0.371 L 0,0 Z"
             style="fill:#f38323;fill-opacity:1;fill-rule:evenodd;stroke:none"
             id="path4660"
             inkscape:connector-curvature="0" />
        </g>
        <path
           d="m 388.819,306.478 2.47,0 0,-0.357 -2.47,0 0,0.357 z m 2.52,0.051 -2.571,0 0,-0.458 2.571,0 0,0.458 z"
           style="fill:#131718;fill-opacity:1;fill-rule:nonzero;stroke:none"
           id="path4662"
           inkscape:connector-curvature="0" />
        <g
           id="g4664"
           transform="translate(388.8179,307.0713)">
          <path
             d="M 0,0 C 0.045,0.204 0.286,0.296 0.483,0.298 0.193,0.159 0.216,-0.241 0.483,-0.358 0.288,-0.331 0.062,-0.259 0,0"
             style="fill:#131718;fill-opacity:1;fill-rule:evenodd;stroke:none"
             id="path4666"
             inkscape:connector-curvature="0" />
        </g>
        <g
           id="g4668"
           transform="translate(391.1475,307.0461)">
          <path
             d="m 0,0 c -0.043,-0.204 -0.285,-0.296 -0.481,-0.296 0.289,0.138 0.266,0.537 0,0.655 C -0.287,0.331 -0.062,0.259 0,0"
             style="fill:#131718;fill-opacity:1;fill-rule:evenodd;stroke:none"
             id="path4670"
             inkscape:connector-curvature="0" />
        </g>
        <g
           id="g4672"
           transform="translate(374.588,292.0059)">
          <path
             d="m 0,0 -0.013,-4.759 c -0.345,0.367 -0.691,0.734 -1.037,1.1 -0.136,-0.012 -0.281,0.004 -0.418,-0.009 -0.444,-0.593 -0.93,-0.407 -1.473,0.614 -0.282,0.436 -0.526,0.544 -0.606,0.681 0.015,0.168 0.356,0.316 0.619,0.667 0.433,1.165 0.929,1.274 1.495,0.593 l 0.371,0 L 0,0 Z"
             style="fill:#f38323;fill-opacity:1;fill-rule:evenodd;stroke:none"
             id="path4674"
             inkscape:connector-curvature="0" />
        </g>
        <path
           d="m 373.131,290.854 0.357,0 0,-2.47 -0.357,0 0,2.47 z m 0.407,0.051 -0.458,0 0,-2.571 0.458,0 0,2.571 z"
           style="fill:#131718;fill-opacity:1;fill-rule:nonzero;stroke:none"
           id="path4676"
           inkscape:connector-curvature="0" />
        <g
           id="g4678"
           transform="translate(372.5365,290.8557)">
          <path
             d="m 0,0 c -0.203,-0.045 -0.296,-0.285 -0.296,-0.482 0.138,0.29 0.537,0.267 0.655,0 C 0.331,-0.288 0.259,-0.061 0,0"
             style="fill:#131718;fill-opacity:1;fill-rule:evenodd;stroke:none"
             id="path4680"
             inkscape:connector-curvature="0" />
        </g>
        <g
           id="g4682"
           transform="translate(372.563,288.5261)">
          <path
             d="M 0,0 C 0.202,0.044 0.295,0.285 0.296,0.482 0.158,0.193 -0.242,0.215 -0.359,0.482 -0.332,0.288 -0.259,0.062 0,0"
             style="fill:#131718;fill-opacity:1;fill-rule:evenodd;stroke:none"
             id="path4684"
             inkscape:connector-curvature="0" />
        </g>
        <g
           id="g4686"
           transform="translate(405.3839,291.9599)">
          <path
             d="m 0,0 0.012,-4.758 c 0.347,0.367 0.693,0.734 1.039,1.101 0.136,-0.013 0.28,0.003 0.416,-0.01 0.446,-0.593 0.931,-0.406 1.475,0.615 0.281,0.435 0.525,0.543 0.605,0.68 -0.014,0.168 -0.356,0.317 -0.619,0.667 -0.432,1.165 -0.929,1.275 -1.495,0.594 l -0.37,0 L 0,0 Z"
             style="fill:#f38323;fill-opacity:1;fill-rule:evenodd;stroke:none"
             id="path4688"
             inkscape:connector-curvature="0" />
        </g>
        <path
           d="m 406.485,290.81 0.357,0 0,-2.47 -0.357,0 0,2.47 z m 0.408,0.051 -0.458,0 0,-2.571 0.458,0 0,2.571 z"
           style="fill:#131718;fill-opacity:1;fill-rule:nonzero;stroke:none"
           id="path4690"
           inkscape:connector-curvature="0" />
        <g
           id="g4692"
           transform="translate(407.4353,290.8099)">
          <path
             d="m 0,0 c 0.204,-0.043 0.296,-0.283 0.296,-0.481 -0.137,0.289 -0.537,0.267 -0.655,0 0.028,0.194 0.1,0.419 0.359,0.481"
             style="fill:#131718;fill-opacity:1;fill-rule:evenodd;stroke:none"
             id="path4694"
             inkscape:connector-curvature="0" />
        </g>
        <g
           id="g4696"
           transform="translate(407.4102,288.4807)">
          <path
             d="M 0,0 C -0.204,0.044 -0.296,0.285 -0.296,0.482 -0.159,0.194 0.24,0.215 0.357,0.482 0.33,0.288 0.258,0.063 0,0"
             style="fill:#131718;fill-opacity:1;fill-rule:evenodd;stroke:none"
             id="path4698"
             inkscape:connector-curvature="0" />
        </g>
        <g
           id="g4700"
           transform="translate(377.594,280.4383)">
          <path
             d="M 0,0 3.355,-3.372 C 2.851,-3.358 2.348,-3.344 1.844,-3.329 1.757,-3.434 1.643,-3.526 1.556,-3.631 1.66,-4.365 1.186,-4.575 0.079,-4.238 c -0.507,0.109 -0.757,0.012 -0.909,0.052 -0.109,0.13 0.027,0.477 -0.035,0.909 -0.518,1.131 -0.243,1.559 0.638,1.477 0.087,0.087 0.175,0.175 0.262,0.262 L 0,0 Z"
             style="fill:#f38323;fill-opacity:1;fill-rule:evenodd;stroke:none"
             id="path4702"
             inkscape:connector-curvature="0" />
        </g>
        <g
           id="g4704"
           transform="translate(377.377,278.5949)">
          <path
             d="M 0,0 0.252,0.252 1.999,-1.494 1.746,-1.746 0,0 Z M 0.252,0.324 -0.072,0 l 0.018,-0.019 1.8,-1.8 0.324,0.325 -0.017,0.018 -1.801,1.8 z"
             style="fill:#131718;fill-opacity:1;fill-rule:nonzero;stroke:none"
             id="path4706"
             inkscape:connector-curvature="0" />
        </g>
        <g
           id="g4708"
           transform="translate(376.9562,278.1751)">
          <path
             d="M 0,0 C -0.112,-0.175 -0.008,-0.41 0.131,-0.55 0.024,-0.248 0.323,0.018 0.594,-0.087 0.437,0.031 0.227,0.139 0,0"
             style="fill:#131718;fill-opacity:1;fill-rule:evenodd;stroke:none"
             id="path4710"
             inkscape:connector-curvature="0" />
        </g>
        <g
           id="g4712"
           transform="translate(378.6214,276.5457)">
          <path
             d="M 0,0 C 0.112,0.176 0.008,0.411 -0.13,0.55 -0.024,0.249 -0.322,-0.018 -0.594,0.088 -0.436,-0.031 -0.227,-0.138 0,0"
             style="fill:#131718;fill-opacity:1;fill-rule:evenodd;stroke:none"
             id="path4714"
             inkscape:connector-curvature="0" />
        </g>
        <g
           id="g4716"
           transform="translate(399.4022,302.1832)">
          <path
             d="m 0,0 3.373,-3.355 c -0.015,0.504 -0.029,1.008 -0.044,1.511 0.105,0.088 0.197,0.201 0.301,0.288 0.734,-0.105 0.946,0.37 0.607,1.478 C 4.13,0.429 4.226,0.678 4.186,0.831 4.055,0.939 3.71,0.803 3.276,0.865 2.147,1.382 1.718,1.108 1.8,0.228 1.713,0.14 1.625,0.053 1.537,-0.035 L 0,0 Z"
             style="fill:#f38323;fill-opacity:1;fill-rule:evenodd;stroke:none"
             id="path4718"
             inkscape:connector-curvature="0" />
        </g>
        <g
           id="g4720"
           transform="translate(400.9926,302.1494)">
          <path
             d="M 0,0 0.254,0.252 1.999,-1.495 1.748,-1.747 0,0 Z M 0.254,0.324 -0.071,0 -0.053,-0.018 1.748,-1.82 2.072,-1.495 2.053,-1.477 0.254,0.324 Z"
             style="fill:#131718;fill-opacity:1;fill-rule:nonzero;stroke:none"
             id="path4722"
             inkscape:connector-curvature="0" />
        </g>
        <g
           id="g4724"
           transform="translate(401.6651,302.8211)">
          <path
             d="M 0,0 C 0.175,0.113 0.411,0.007 0.55,-0.131 0.249,-0.023 -0.017,-0.322 0.087,-0.594 -0.031,-0.438 -0.139,-0.227 0,0"
             style="fill:#131718;fill-opacity:1;fill-rule:evenodd;stroke:none"
             id="path4726"
             inkscape:connector-curvature="0" />
        </g>
        <g
           id="g4728"
           transform="translate(403.2944,301.1554)">
          <path
             d="M 0,0 C -0.175,-0.111 -0.412,-0.008 -0.551,0.131 -0.249,0.025 0.018,0.322 -0.087,0.594 0.03,0.438 0.139,0.227 0,0"
             style="fill:#131718;fill-opacity:1;fill-rule:evenodd;stroke:none"
             id="path4730"
             inkscape:connector-curvature="0" />
        </g>
        <g
           id="g4732"
           transform="translate(380.9489,302.23)">
          <path
             d="m 0,0 -3.373,-3.356 c 0.015,0.505 0.029,1.008 0.044,1.513 -0.105,0.087 -0.197,0.201 -0.301,0.288 -0.734,-0.106 -0.946,0.369 -0.608,1.476 0.109,0.507 0.013,0.756 0.053,0.908 0.129,0.11 0.476,-0.026 0.909,0.036 1.129,0.517 1.558,0.244 1.476,-0.638 0.088,-0.088 0.175,-0.174 0.262,-0.262 L 0,0 Z"
             style="fill:#f38323;fill-opacity:1;fill-rule:evenodd;stroke:none"
             id="path4734"
             inkscape:connector-curvature="0" />
        </g>
        <g
           id="g4736"
           transform="translate(377.3587,300.7003)">
          <path
             d="M 0,0 1.746,1.747 1.999,1.495 0.253,-0.252 0,0 Z M 1.746,1.819 1.728,1.801 -0.072,0 0.253,-0.324 0.27,-0.306 2.071,1.495 1.746,1.819 Z"
             style="fill:#131718;fill-opacity:1;fill-rule:nonzero;stroke:none"
             id="path4738"
             inkscape:connector-curvature="0" />
        </g>
        <g
           id="g4740"
           transform="translate(378.6856,302.867)">
          <path
             d="m 0,0 c -0.175,0.113 -0.411,0.01 -0.55,-0.131 0.302,0.107 0.569,-0.191 0.463,-0.462 C 0.031,-0.436 0.139,-0.226 0,0"
             style="fill:#131718;fill-opacity:1;fill-rule:evenodd;stroke:none"
             id="path4742"
             inkscape:connector-curvature="0" />
        </g>
        <g
           id="g4744"
           transform="translate(377.0567,301.2013)">
          <path
             d="M 0,0 C 0.176,-0.112 0.411,-0.007 0.55,0.133 0.248,0.025 -0.018,0.323 0.087,0.595 -0.031,0.438 -0.139,0.229 0,0"
             style="fill:#131718;fill-opacity:1;fill-rule:evenodd;stroke:none"
             id="path4746"
             inkscape:connector-curvature="0" />
        </g>
        <g
           id="g4748"
           transform="translate(402.6938,280.4219)">
          <path
             d="m 0,0 -3.355,-3.373 c 0.504,0.015 1.007,0.029 1.512,0.044 0.087,-0.105 0.2,-0.197 0.288,-0.301 -0.106,-0.735 0.369,-0.945 1.475,-0.608 0.509,0.109 0.758,0.012 0.91,0.052 0.109,0.13 -0.028,0.477 0.036,0.91 0.516,1.13 0.242,1.557 -0.638,1.476 -0.089,0.087 -0.176,0.175 -0.264,0.262 L 0,0 Z"
             style="fill:#f38323;fill-opacity:1;fill-rule:evenodd;stroke:none"
             id="path4750"
             inkscape:connector-curvature="0" />
        </g>
        <g
           id="g4752"
           transform="translate(400.9119,277.0839)">
          <path
             d="M 0,0 1.747,1.747 1.999,1.494 0.252,-0.253 0,0 Z M 1.747,1.818 1.728,1.8 -0.072,0 l 0.324,-0.325 0.019,0.019 1.8,1.8 -0.324,0.324 z"
             style="fill:#131718;fill-opacity:1;fill-rule:nonzero;stroke:none"
             id="path4754"
             inkscape:connector-curvature="0" />
        </g>
        <g
           id="g4756"
           transform="translate(403.3317,278.1586)">
          <path
             d="m 0,0 c 0.112,-0.175 0.007,-0.411 -0.131,-0.55 0.107,0.302 -0.191,0.569 -0.464,0.463 C -0.438,0.03 -0.227,0.139 0,0"
             style="fill:#131718;fill-opacity:1;fill-rule:evenodd;stroke:none"
             id="path4758"
             inkscape:connector-curvature="0" />
        </g>
        <g
           id="g4760"
           transform="translate(401.666,276.5293)">
          <path
             d="M 0,0 C -0.113,0.175 -0.008,0.411 0.131,0.551 0.024,0.249 0.322,-0.018 0.595,0.087 0.437,-0.03 0.227,-0.139 0,0"
             style="fill:#131718;fill-opacity:1;fill-rule:evenodd;stroke:none"
             id="path4762"
             inkscape:connector-curvature="0" />
        </g>
        <g
           id="g4764"
           transform="translate(390.0577,305.077)">
          <path
             d="M 0,0 C 8.529,0 15.486,-6.955 15.486,-15.485 15.486,-24.014 8.529,-30.97 0,-30.97 c -8.529,0 -15.485,6.956 -15.485,15.485 C -15.485,-6.955 -8.529,0 0,0"
             style="fill:#704021;fill-opacity:1;fill-rule:evenodd;stroke:none"
             id="path4766"
             inkscape:connector-curvature="0" />
        </g>
        <g
           id="g4768"
           transform="translate(390.0577,274.252)">
          <path
             d="m 0,0 c -8.458,0 -15.34,6.882 -15.34,15.34 0,8.459 6.882,15.34 15.34,15.34 8.459,0 15.339,-6.881 15.339,-15.34 C 15.339,6.882 8.459,0 0,0 m 0,30.972 c -8.618,0 -15.63,-7.014 -15.63,-15.632 0,-8.618 7.012,-15.631 15.63,-15.631 8.619,0 15.63,7.013 15.63,15.631 0,8.618 -7.011,15.632 -15.63,15.632"
             style="fill:#131718;fill-opacity:1;fill-rule:nonzero;stroke:none"
             id="path4770"
             inkscape:connector-curvature="0" />
        </g>
        <g
           id="g4772"
           transform="translate(389.912,277.2177)">
          <path
             d="m 0,0 c -6.823,0 -12.374,5.552 -12.374,12.374 0,6.824 5.551,12.375 12.374,12.375 6.823,0 12.374,-5.551 12.374,-12.375 C 12.374,5.552 6.823,0 0,0 m 0,25.04 c -6.983,0 -12.665,-5.682 -12.665,-12.666 0,-6.983 5.682,-12.665 12.665,-12.665 6.984,0 12.665,5.682 12.665,12.665 C 12.665,19.358 6.984,25.04 0,25.04"
             style="fill:#e5e5e5;fill-opacity:1;fill-rule:nonzero;stroke:none"
             id="path4774"
             inkscape:connector-curvature="0" />
        </g>
        <g
           id="g4776"
           transform="translate(390.0577,301.3625)">
          <path
             d="m 0,0 c 6.482,0 11.769,-5.288 11.769,-11.77 0,-6.483 -5.287,-11.769 -11.769,-11.769 -6.482,0 -11.769,5.286 -11.769,11.769 C -11.769,-5.288 -6.482,0 0,0"
             style="fill:#f38323;fill-opacity:1;fill-rule:evenodd;stroke:none"
             id="path4778"
             inkscape:connector-curvature="0" />
        </g>
        <g
           id="g4780"
           transform="translate(390.0577,277.9687)">
          <path
             d="m 0,0 c -6.41,0 -11.624,5.214 -11.624,11.623 0,6.41 5.214,11.623 11.624,11.623 6.409,0 11.624,-5.213 11.624,-11.623 C 11.624,5.214 6.409,0 0,0 m 0,23.538 c -6.569,0 -11.915,-5.345 -11.915,-11.915 0,-6.569 5.346,-11.915 11.915,-11.915 6.569,0 11.914,5.346 11.914,11.915 0,6.57 -5.345,11.915 -11.914,11.915"
             style="fill:#131718;fill-opacity:1;fill-rule:nonzero;stroke:none"
             id="path4782"
             inkscape:connector-curvature="0" />
        </g>
        <g
           id="g4784"
           transform="translate(390.0577,275.0048)">
          <path
             d="m 0,0 c -8.044,0 -14.587,6.544 -14.587,14.587 0,8.044 6.543,14.588 14.587,14.588 8.044,0 14.587,-6.544 14.587,-14.588 C 14.587,6.544 8.044,0 0,0 m 0,29.466 c -8.204,0 -14.878,-6.675 -14.878,-14.879 0,-8.204 6.674,-14.877 14.878,-14.877 8.203,0 14.878,6.673 14.878,14.877 0,8.204 -6.675,14.879 -14.878,14.879"
             style="fill:#e5e5e5;fill-opacity:1;fill-rule:nonzero;stroke:none"
             id="path4786"
             inkscape:connector-curvature="0" />
        </g>
        <g
           id="g4788"
           transform="translate(392.2001,278.0424)">
          <path
             d="m 0,0 -0.759,0.94 -0.038,5.951 c 0.287,0.053 0.57,0.18 0.912,0.345 L 4.451,2.965 4.607,1.889 C 3.228,0.979 1.73,0.33 0,0"
             style="fill:#ffffff;fill-opacity:1;fill-rule:evenodd;stroke:none"
             id="path4790"
             inkscape:connector-curvature="0" />
        </g>
        <g
           id="g4792"
           transform="translate(387.9426,278.0957)">
          <path
             d="M 0,0 0.76,0.939 0.796,6.89 C 0.51,6.944 0.227,7.072 -0.114,7.235 L -4.45,2.964 -4.607,1.889 C -3.228,0.979 -1.73,0.329 0,0"
             style="fill:#ffffff;fill-opacity:1;fill-rule:evenodd;stroke:none"
             id="path4794"
             inkscape:connector-curvature="0" />
        </g>
        <g
           id="g4796"
           transform="translate(392.2226,301.1874)">
          <path
             d="m 0,0 -0.759,-0.94 -0.037,-5.949 c 0.286,-0.054 0.57,-0.182 0.912,-0.345 l 4.335,4.271 0.156,1.075 C 3.228,-0.978 1.731,-0.329 0,0"
             style="fill:#ffffff;fill-opacity:1;fill-rule:evenodd;stroke:none"
             id="path4798"
             inkscape:connector-curvature="0" />
        </g>
        <g
           id="g4800"
           transform="translate(387.9656,301.1346)">
          <path
             d="m 0,0 0.76,-0.939 0.037,-5.95 C 0.51,-6.944 0.227,-7.071 -0.115,-7.234 l -4.335,4.27 -0.157,1.076 C -3.228,-0.979 -1.73,-0.329 0,0"
             style="fill:#ffffff;fill-opacity:1;fill-rule:evenodd;stroke:none"
             id="path4802"
             inkscape:connector-curvature="0" />
        </g>
        <g
           id="g4804"
           transform="translate(378.4966,287.4605)">
          <path
             d="M 0,0 0.94,0.76 6.89,0.797 C 6.943,0.51 7.071,0.228 7.235,-0.114 L 2.964,-4.45 1.889,-4.607 C 0.979,-3.227 0.329,-1.729 0,0"
             style="fill:#ffffff;fill-opacity:1;fill-rule:evenodd;stroke:none"
             id="path4806"
             inkscape:connector-curvature="0" />
        </g>
        <g
           id="g4808"
           transform="translate(378.5496,291.7181)">
          <path
             d="m 0,0 0.94,-0.759 5.949,-0.038 c 0.055,0.287 0.182,0.57 0.345,0.912 L 2.964,4.451 1.889,4.607 C 0.978,3.227 0.329,1.731 0,0"
             style="fill:#ffffff;fill-opacity:1;fill-rule:evenodd;stroke:none"
             id="path4810"
             inkscape:connector-curvature="0" />
        </g>
        <g
           id="g4812"
           transform="translate(401.6417,287.4372)">
          <path
             d="M 0,0 -0.94,0.76 -6.89,0.798 C -6.945,0.51 -7.072,0.228 -7.234,-0.114 l 4.269,-4.336 1.076,-0.157 C -0.978,-3.227 -0.33,-1.73 0,0"
             style="fill:#ffffff;fill-opacity:1;fill-rule:evenodd;stroke:none"
             id="path4814"
             inkscape:connector-curvature="0" />
        </g>
        <g
           id="g4816"
           transform="translate(401.5887,291.6965)">
          <path
             d="m 0,0 -0.94,-0.76 -5.95,-0.038 c -0.055,0.287 -0.181,0.569 -0.345,0.911 l 4.27,4.336 1.076,0.156 C -0.979,3.226 -0.33,1.73 0,0"
             style="fill:#ffffff;fill-opacity:1;fill-rule:evenodd;stroke:none"
             id="path4818"
             inkscape:connector-curvature="0" />
        </g>
        <g
           id="g4820"
           transform="translate(389.9792,277.3465)">
          <path
             d="m 0,0 c 0.744,0 1.352,-0.607 1.352,-1.352 0,-0.745 -0.608,-1.352 -1.352,-1.352 -0.745,0 -1.353,0.607 -1.353,1.352 C -1.353,-0.607 -0.745,0 0,0"
             style="fill:#f38323;fill-opacity:1;fill-rule:evenodd;stroke:none"
             id="path4822"
             inkscape:connector-curvature="0" />
        </g>
        <g
           id="g4824"
           transform="translate(389.9792,274.7148)">
          <path
             d="m 0,0 c -0.706,0 -1.28,0.574 -1.28,1.28 0,0.706 0.574,1.279 1.28,1.279 0.705,0 1.279,-0.573 1.279,-1.279 C 1.279,0.574 0.705,0 0,0 m 0,2.705 c -0.786,0 -1.425,-0.639 -1.425,-1.425 0,-0.785 0.639,-1.425 1.425,-1.425 0.785,0 1.424,0.64 1.424,1.425 0,0.786 -0.639,1.425 -1.424,1.425"
             style="fill:#131718;fill-opacity:1;fill-rule:nonzero;stroke:none"
             id="path4826"
             inkscape:connector-curvature="0" />
        </g>
        <g
           id="g4828"
           transform="translate(388.8665,275.1005)">
          <path
             d="m 0,0 -0.227,-0.182 c 0.328,-0.408 0.816,-0.642 1.341,-0.642 0.521,0 1.009,0.233 1.337,0.639 L 2.224,-0.003 C 1.952,-0.34 1.547,-0.534 1.114,-0.534 0.678,-0.534 0.273,-0.339 0,0 m 1.114,2.613 c -0.49,0 -0.958,-0.21 -1.284,-0.576 L 0.046,1.843 c 0.272,0.305 0.661,0.48 1.068,0.48 0.421,0 0.819,-0.186 1.091,-0.509 L 2.428,2.002 C 2.1,2.391 1.621,2.613 1.114,2.613"
             style="fill:#ffffff;fill-opacity:1;fill-rule:nonzero;stroke:none"
             id="path4830"
             inkscape:connector-curvature="0" />
        </g>
        <g
           id="g4832"
           transform="translate(389.9961,304.512)">
          <path
             d="m 0,0 c 0.745,0 1.353,-0.607 1.353,-1.353 0,-0.744 -0.608,-1.352 -1.353,-1.352 -0.744,0 -1.352,0.608 -1.352,1.352 C -1.352,-0.607 -0.744,0 0,0"
             style="fill:#f38323;fill-opacity:1;fill-rule:evenodd;stroke:none"
             id="path4834"
             inkscape:connector-curvature="0" />
        </g>
        <g
           id="g4836"
           transform="translate(389.9961,301.8799)">
          <path
             d="m 0,0 c -0.705,0 -1.279,0.573 -1.279,1.279 0,0.706 0.574,1.28 1.279,1.28 0.706,0 1.28,-0.574 1.28,-1.28 C 1.28,0.573 0.706,0 0,0 m 0,2.704 c -0.786,0 -1.425,-0.639 -1.425,-1.425 0,-0.786 0.639,-1.425 1.425,-1.425 0.786,0 1.425,0.639 1.425,1.425 0,0.786 -0.639,1.425 -1.425,1.425"
             style="fill:#131718;fill-opacity:1;fill-rule:nonzero;stroke:none"
             id="path4838"
             inkscape:connector-curvature="0" />
        </g>
        <g
           id="g4840"
           transform="translate(388.8842,302.2647)">
          <path
             d="m 0,0 -0.227,-0.181 c 0.328,-0.409 0.816,-0.643 1.34,-0.643 0.522,0 1.009,0.233 1.338,0.639 L 2.224,-0.002 C 1.952,-0.339 1.547,-0.534 1.113,-0.534 0.678,-0.534 0.273,-0.339 0,0 m 1.113,2.612 c -0.49,0 -0.957,-0.209 -1.284,-0.574 L 0.046,1.843 c 0.272,0.305 0.661,0.479 1.067,0.479 0.421,0 0.82,-0.186 1.092,-0.507 L 2.427,2.003 C 2.099,2.39 1.62,2.612 1.113,2.612"
             style="fill:#ffffff;fill-opacity:1;fill-rule:nonzero;stroke:none"
             id="path4842"
             inkscape:connector-curvature="0" />
        </g>
        <g
           id="g4844"
           transform="translate(375.0278,289.6467)">
          <path
             d="m 0,0 c 0,-0.747 0.605,-1.353 1.352,-1.353 0.747,0 1.352,0.606 1.352,1.353 0,0.747 -0.605,1.353 -1.352,1.353 C 0.605,1.353 0,0.747 0,0"
             style="fill:#f38323;fill-opacity:1;fill-rule:evenodd;stroke:none"
             id="path4846"
             inkscape:connector-curvature="0" />
        </g>
        <g
           id="g4848"
           transform="translate(376.3803,288.3666)">
          <path
             d="m 0,0 c -0.706,0 -1.279,0.574 -1.279,1.28 0,0.706 0.573,1.279 1.279,1.279 0.705,0 1.279,-0.573 1.279,-1.279 C 1.279,0.574 0.705,0 0,0 m 0,2.706 c -0.786,0 -1.425,-0.64 -1.425,-1.426 0,-0.786 0.639,-1.425 1.425,-1.425 0.786,0 1.425,0.639 1.425,1.425 0,0.786 -0.639,1.426 -1.425,1.426"
             style="fill:#131718;fill-opacity:1;fill-rule:nonzero;stroke:none"
             id="path4850"
             inkscape:connector-curvature="0" />
        </g>
        <g
           id="g4852"
           transform="translate(377.5233,290.9286)">
          <path
             d="m 0,0 -0.194,-0.217 c 0.304,-0.269 0.478,-0.659 0.478,-1.066 0,-0.422 -0.185,-0.82 -0.507,-1.092 l 0.187,-0.223 c 0.389,0.327 0.612,0.807 0.612,1.315 C 0.576,-0.793 0.365,-0.326 0,0 m -2.219,0.057 c -0.409,-0.327 -0.643,-0.816 -0.643,-1.34 0,-0.522 0.233,-1.01 0.64,-1.338 l 0.182,0.226 c -0.337,0.273 -0.531,0.678 -0.531,1.112 0,0.435 0.195,0.841 0.533,1.113 l -0.181,0.227 z"
             style="fill:#ffffff;fill-opacity:1;fill-rule:nonzero;stroke:none"
             id="path4854"
             inkscape:connector-curvature="0" />
        </g>
        <g
           id="g4856"
           transform="translate(402.192,289.6295)">
          <path
             d="m 0,0 c 0,-0.746 0.605,-1.353 1.352,-1.353 0.746,0 1.352,0.607 1.352,1.353 0,0.747 -0.606,1.352 -1.352,1.352 C 0.605,1.352 0,0.747 0,0"
             style="fill:#f38323;fill-opacity:1;fill-rule:evenodd;stroke:none"
             id="path4858"
             inkscape:connector-curvature="0" />
        </g>
        <g
           id="g4860"
           transform="translate(403.544,288.3493)">
          <path
             d="m 0,0 c -0.706,0 -1.279,0.574 -1.279,1.28 0,0.706 0.573,1.278 1.279,1.278 0.705,0 1.279,-0.572 1.279,-1.278 C 1.279,0.574 0.705,0 0,0 m 0,2.706 c -0.786,0 -1.425,-0.641 -1.425,-1.426 0,-0.786 0.639,-1.426 1.425,-1.426 0.786,0 1.425,0.64 1.425,1.426 0,0.785 -0.639,1.426 -1.425,1.426"
             style="fill:#131718;fill-opacity:1;fill-rule:nonzero;stroke:none"
             id="path4862"
             inkscape:connector-curvature="0" />
        </g>
        <g
           id="g4864"
           transform="translate(404.6871,290.913)">
          <path
             d="m 0,0 -0.193,-0.218 c 0.304,-0.271 0.478,-0.66 0.478,-1.067 0,-0.422 -0.185,-0.82 -0.508,-1.092 L -0.036,-2.6 c 0.389,0.328 0.612,0.808 0.612,1.315 C 0.576,-0.795 0.367,-0.328 0,0 m -2.22,0.055 c -0.407,-0.328 -0.642,-0.816 -0.642,-1.34 0,-0.522 0.233,-1.01 0.64,-1.338 l 0.183,0.227 c -0.338,0.272 -0.531,0.677 -0.531,1.111 0,0.435 0.194,0.84 0.533,1.113 L -2.22,0.055 Z"
             style="fill:#ffffff;fill-opacity:1;fill-rule:nonzero;stroke:none"
             id="path4866"
             inkscape:connector-curvature="0" />
        </g>
        <g
           id="g4868"
           transform="translate(379.3746,278.9798)">
          <path
             d="m 0,0 c 0.528,-0.528 1.384,-0.528 1.912,0 0.529,0.529 0.529,1.384 0,1.913 C 1.384,2.441 0.528,2.441 0,1.913 -0.528,1.384 -0.528,0.529 0,0"
             style="fill:#f38323;fill-opacity:1;fill-rule:evenodd;stroke:none"
             id="path4870"
             inkscape:connector-curvature="0" />
        </g>
        <g
           id="g4872"
           transform="translate(380.331,278.6564)">
          <path
             d="M 0,0 C -0.343,0 -0.664,0.133 -0.905,0.375 -1.147,0.617 -1.28,0.938 -1.28,1.28 c 0,0.342 0.133,0.663 0.375,0.905 C -0.664,2.427 -0.343,2.56 0,2.56 0.342,2.56 0.663,2.427 0.904,2.185 1.146,1.943 1.279,1.622 1.279,1.28 1.279,0.938 1.146,0.617 0.904,0.375 0.663,0.133 0.342,0 0,0 M 0,2.704 C -0.381,2.704 -0.739,2.556 -1.008,2.288 -1.277,2.019 -1.426,1.66 -1.426,1.28 c 0,-0.381 0.149,-0.738 0.418,-1.008 0.269,-0.269 0.627,-0.418 1.008,-0.418 0.38,0 0.738,0.149 1.007,0.418 0.27,0.27 0.417,0.627 0.417,1.008 0,0.38 -0.147,0.739 -0.417,1.008 C 0.738,2.556 0.38,2.704 0,2.704"
             style="fill:#131718;fill-opacity:1;fill-rule:nonzero;stroke:none"
             id="path4874"
             inkscape:connector-curvature="0" />
        </g>
        <g
           id="g4876"
           transform="translate(378.6228,280.1212)">
          <path
             d="m 0,0 c -0.057,-0.52 0.123,-1.031 0.493,-1.401 0.369,-0.369 0.88,-0.55 1.399,-0.494 L 1.861,-1.606 C 1.429,-1.651 1.005,-1.502 0.699,-1.195 0.391,-0.888 0.242,-0.463 0.289,-0.031 L 0,0 Z M 1.707,1.533 C 1.674,1.533 1.642,1.532 1.609,1.531 L 1.625,1.239 C 2.032,1.262 2.431,1.112 2.718,0.823 3.016,0.525 3.166,0.113 3.131,-0.307 L 3.42,-0.333 C 3.464,0.174 3.283,0.67 2.924,1.03 2.601,1.352 2.162,1.533 1.707,1.533"
             style="fill:#ffffff;fill-opacity:1;fill-rule:nonzero;stroke:none"
             id="path4878"
             inkscape:connector-curvature="0" />
        </g>
        <g
           id="g4880"
           transform="translate(398.5944,298.1757)">
          <path
             d="m 0,0 c 0.529,-0.529 1.384,-0.529 1.913,0 0.528,0.528 0.528,1.384 0,1.913 C 1.384,2.441 0.529,2.441 0,1.913 -0.528,1.384 -0.528,0.528 0,0"
             style="fill:#f38323;fill-opacity:1;fill-rule:evenodd;stroke:none"
             id="path4882"
             inkscape:connector-curvature="0" />
        </g>
        <g
           id="g4884"
           transform="translate(399.5504,297.8524)">
          <path
             d="m 0,0 c -0.342,0 -0.663,0.133 -0.905,0.374 -0.498,0.5 -0.498,1.312 0,1.81 C -0.663,2.426 -0.342,2.559 0,2.559 0.342,2.559 0.663,2.426 0.905,2.184 1.147,1.943 1.28,1.622 1.28,1.28 1.28,0.938 1.147,0.617 0.905,0.374 0.663,0.133 0.342,0 0,0 m 0,2.704 c -0.38,0 -0.738,-0.147 -1.008,-0.417 -0.555,-0.555 -0.555,-1.459 0,-2.015 0.27,-0.269 0.628,-0.418 1.008,-0.418 0.38,0 0.738,0.149 1.008,0.418 C 1.277,0.542 1.426,0.9 1.426,1.28 1.426,1.661 1.277,2.018 1.008,2.287 0.738,2.557 0.38,2.704 0,2.704"
             style="fill:#131718;fill-opacity:1;fill-rule:nonzero;stroke:none"
             id="path4886"
             inkscape:connector-curvature="0" />
        </g>
        <g
           id="g4888"
           transform="translate(397.843,299.318)">
          <path
             d="m 0,0 c -0.056,-0.521 0.123,-1.032 0.494,-1.401 0.368,-0.37 0.879,-0.55 1.397,-0.494 l -0.03,0.29 C 1.429,-1.653 1.005,-1.504 0.699,-1.196 0.391,-0.888 0.242,-0.464 0.289,-0.032 L 0,0 Z m 1.707,1.531 c -0.033,0 -0.065,0 -0.098,-0.002 L 1.625,1.238 C 2.033,1.262 2.43,1.11 2.718,0.822 3.016,0.524 3.167,0.113 3.13,-0.309 L 3.421,-0.333 C 3.463,0.172 3.282,0.669 2.923,1.028 2.601,1.351 2.162,1.531 1.707,1.531"
             style="fill:#ffffff;fill-opacity:1;fill-rule:nonzero;stroke:none"
             id="path4890"
             inkscape:connector-curvature="0" />
        </g>
        <g
           id="g4892"
           transform="translate(379.4119,300.1613)">
          <path
             d="m 0,0 c -0.528,-0.528 -0.528,-1.384 0,-1.913 0.528,-0.527 1.384,-0.527 1.912,0 C 2.44,-1.384 2.44,-0.528 1.912,0 1.384,0.529 0.528,0.529 0,0"
             style="fill:#f38323;fill-opacity:1;fill-rule:evenodd;stroke:none"
             id="path4894"
             inkscape:connector-curvature="0" />
        </g>
        <g
           id="g4896"
           transform="translate(380.3678,297.9261)">
          <path
             d="m 0,0 c -0.341,0 -0.663,0.133 -0.904,0.374 -0.5,0.501 -0.5,1.311 0,1.809 C -0.663,2.425 -0.341,2.558 0,2.558 0.342,2.558 0.664,2.425 0.905,2.183 1.147,1.942 1.28,1.622 1.28,1.28 1.28,0.939 1.147,0.615 0.905,0.374 0.664,0.133 0.342,0 0,0 m 0,2.704 c -0.381,0 -0.737,-0.149 -1.007,-0.417 -0.556,-0.554 -0.556,-1.459 0,-2.016 0.27,-0.268 0.626,-0.417 1.007,-0.417 0.381,0 0.739,0.149 1.008,0.417 0.269,0.27 0.418,0.628 0.418,1.009 0,0.381 -0.149,0.738 -0.418,1.007 C 0.739,2.555 0.381,2.704 0,2.704"
             style="fill:#131718;fill-opacity:1;fill-rule:nonzero;stroke:none"
             id="path4898"
             inkscape:connector-curvature="0" />
        </g>
        <g
           id="g4900"
           transform="translate(382.0834,299.3042)">
          <path
             d="m 0,0 -0.291,-0.017 c 0.024,-0.405 -0.128,-0.805 -0.416,-1.092 -0.298,-0.299 -0.71,-0.448 -1.131,-0.414 L -1.862,-1.811 C -1.355,-1.856 -0.86,-1.674 -0.5,-1.316 -0.155,-0.969 0.028,-0.49 0,0 m -1.719,1.62 c -0.453,0 -0.887,-0.179 -1.212,-0.504 -0.37,-0.369 -0.55,-0.879 -0.494,-1.399 l 0.289,0.032 c -0.046,0.431 0.103,0.855 0.41,1.161 0.308,0.308 0.732,0.456 1.165,0.409 l 0.031,0.29 C -1.593,1.616 -1.655,1.62 -1.719,1.62"
             style="fill:#ffffff;fill-opacity:1;fill-rule:nonzero;stroke:none"
             id="path4902"
             inkscape:connector-curvature="0" />
        </g>
        <g
           id="g4904"
           transform="translate(398.6075,280.941)">
          <path
             d="m 0,0 c -0.528,-0.528 -0.528,-1.385 0,-1.912 0.528,-0.529 1.385,-0.529 1.912,0 0.529,0.527 0.529,1.384 0,1.912 C 1.385,0.528 0.528,0.528 0,0"
             style="fill:#f38323;fill-opacity:1;fill-rule:evenodd;stroke:none"
             id="path4906"
             inkscape:connector-curvature="0" />
        </g>
        <g
           id="g4908"
           transform="translate(399.5634,278.7059)">
          <path
             d="m 0,0 c -0.341,0 -0.663,0.133 -0.905,0.374 -0.498,0.499 -0.498,1.311 0,1.81 0.242,0.241 0.564,0.374 0.905,0.374 0.342,0 0.664,-0.133 0.905,-0.374 0.499,-0.499 0.499,-1.311 0,-1.81 C 0.664,0.133 0.342,0 0,0 m 0,2.704 c -0.38,0 -0.738,-0.148 -1.007,-0.417 -0.556,-0.556 -0.556,-1.46 0,-2.016 0.269,-0.269 0.627,-0.417 1.007,-0.417 0.38,0 0.738,0.148 1.007,0.417 0.556,0.556 0.556,1.46 0,2.016 C 0.738,2.556 0.38,2.704 0,2.704"
             style="fill:#131718;fill-opacity:1;fill-rule:nonzero;stroke:none"
             id="path4910"
             inkscape:connector-curvature="0" />
        </g>
        <g
           id="g4912"
           transform="translate(401.2794,280.0838)">
          <path
             d="m 0,0 -0.29,-0.017 c 0.022,-0.406 -0.129,-0.805 -0.417,-1.092 -0.299,-0.298 -0.711,-0.451 -1.131,-0.414 l -0.024,-0.289 c 0.506,-0.044 1.001,0.139 1.36,0.497 C -0.155,-0.969 0.027,-0.489 0,0 m -1.719,1.619 c -0.454,0 -0.887,-0.178 -1.213,-0.504 -0.369,-0.369 -0.549,-0.878 -0.493,-1.398 l 0.289,0.031 c -0.046,0.433 0.104,0.856 0.409,1.162 0.309,0.307 0.734,0.458 1.166,0.41 l 0.03,0.289 c -0.062,0.006 -0.125,0.01 -0.188,0.01"
             style="fill:#ffffff;fill-opacity:1;fill-rule:nonzero;stroke:none"
             id="path4914"
             inkscape:connector-curvature="0" />
        </g>
        <g
           id="g4916"
           transform="translate(390.0564,291.3731)">
          <path
             d="m 0,0 c 0.982,0 1.781,-0.8 1.781,-1.781 0,-0.982 -0.799,-1.782 -1.781,-1.782 -0.98,0 -1.78,0.8 -1.78,1.782 C -1.78,-0.8 -0.98,0 0,0"
             style="fill:#ffffff;fill-opacity:1;fill-rule:evenodd;stroke:none"
             id="path4918"
             inkscape:connector-curvature="0" />
        </g>
      </g>
    </g>
  </g>
</svg>
