<?xml version="1.0" encoding="UTF-8" standalone="no"?>
<!-- Created with Inkscape (http://www.inkscape.org/) -->

<svg
   xmlns:dc="http://purl.org/dc/elements/1.1/"
   xmlns:cc="http://creativecommons.org/ns#"
   xmlns:rdf="http://www.w3.org/1999/02/22-rdf-syntax-ns#"
   xmlns:svg="http://www.w3.org/2000/svg"
   xmlns="http://www.w3.org/2000/svg"
   xmlns:sodipodi="http://sodipodi.sourceforge.net/DTD/sodipodi-0.dtd"
   xmlns:inkscape="http://www.inkscape.org/namespaces/inkscape"
   width="91"
   height="91"
   id="svg6058"
   version="1.1"
   inkscape:version="0.91 r13725"
   sodipodi:docname="catolicos.svg">
  <defs
     id="defs6060">
    <clipPath
       clipPathUnits="userSpaceOnUse"
       id="clipPath5199">
      <path
         inkscape:connector-curvature="0"
         d="m 354.553,125.072 70.866,0 0,70.867 -70.866,0 0,-70.867 z"
         id="path5201" />
    </clipPath>
    <clipPath
       clipPathUnits="userSpaceOnUse"
       id="clipPath5622">
      <path
         inkscape:connector-curvature="0"
         d="m 331.876,361.672 70.866,0 0,70.867 -70.866,0 0,-70.867 z"
         id="path5624" />
    </clipPath>
    <clipPath
       clipPathUnits="userSpaceOnUse"
       id="clipPath5590">
      <path
         inkscape:connector-curvature="0"
         d="m 331.876,440.539 70.866,0 0,70.866 -70.866,0 0,-70.866 z"
         id="path5592" />
    </clipPath>
    <clipPath
       clipPathUnits="userSpaceOnUse"
       id="clipPath5223">
      <path
         inkscape:connector-curvature="0"
         d="m 354.553,46.205 70.866,0 0,70.867 -70.866,0 0,-70.867 z"
         id="path5225" />
    </clipPath>
    <clipPath
       clipPathUnits="userSpaceOnUse"
       id="clipPath4536">
      <path
         inkscape:connector-curvature="0"
         d="m 335.419,202.684 63.779,0 0,63.78 -63.779,0 0,-63.78 z"
         id="path4538" />
    </clipPath>
    <clipPath
       clipPathUnits="userSpaceOnUse"
       id="clipPath4582">
      <path
         inkscape:connector-curvature="0"
         d="m 331.876,80.086 70.866,0 0,70.866 -70.866,0 0,-70.866 z"
         id="path4584" />
    </clipPath>
    <clipPath
       clipPathUnits="userSpaceOnUse"
       id="clipPath4594">
      <path
         inkscape:connector-curvature="0"
         d="m 331.876,87.172 63.779,0 0,63.779 -63.779,0 0,-63.779 z"
         id="path4596" />
    </clipPath>
    <clipPath
       clipPathUnits="userSpaceOnUse"
       id="clipPath4606">
      <path
         inkscape:connector-curvature="0"
         d="m 331.876,80.086 70.866,0 0,70.866 -70.866,0 0,-70.866 z"
         id="path4608" />
    </clipPath>
    <clipPath
       clipPathUnits="userSpaceOnUse"
       id="clipPath5664">
      <path
         inkscape:connector-curvature="0"
         d="m 331.876,254.208 70.866,0 0,70.866 -70.866,0 0,-70.866 z"
         id="path5666" />
    </clipPath>
    <clipPath
       clipPathUnits="userSpaceOnUse"
       id="clipPath3431">
      <path
         inkscape:connector-curvature="0"
         d="m 358.096,346.049 63.779,0 0,63.78 -63.779,0 0,-63.78 z"
         id="path3433" />
    </clipPath>
    <clipPath
       clipPathUnits="userSpaceOnUse"
       id="clipPath4934">
      <path
         d="m 355.953,179.918 68.258,0 0,68.259 -68.258,0 0,-68.259 z"
         id="path4936"
         inkscape:connector-curvature="0" />
    </clipPath>
  </defs>
  <sodipodi:namedview
     id="base"
     pagecolor="#ffffff"
     bordercolor="#666666"
     borderopacity="1.0"
     inkscape:pageopacity="0.0"
     inkscape:pageshadow="2"
     inkscape:zoom="1.4"
     inkscape:cx="-146.03448"
     inkscape:cy="67.220965"
     inkscape:document-units="px"
     inkscape:current-layer="layer1"
     showgrid="false"
     inkscape:window-width="1920"
     inkscape:window-height="996"
     inkscape:window-x="-8"
     inkscape:window-y="-8"
     inkscape:window-maximized="1" />
  <metadata
     id="metadata6063">
    <rdf:RDF>
      <cc:Work
         rdf:about="">
        <dc:format>image/svg+xml</dc:format>
        <dc:type
           rdf:resource="http://purl.org/dc/dcmitype/StillImage" />
        <dc:title />
      </cc:Work>
    </rdf:RDF>
  </metadata>
  <g
     inkscape:label="Capa 1"
     inkscape:groupmode="layer"
     id="layer1"
     transform="translate(0,-961.36218)">
    <g
       id="g4221"
       transform="translate(232.64286,133.07138)">
      <g
         id="g4930"
         transform="matrix(1.25,0,0,-1.25,-674.74523,1141.3503)">
        <g
           clip-path="url(#clipPath4934)"
           id="g4932">
          <g
             transform="translate(423.7358,214.0472)"
             id="g4938">
            <path
               inkscape:connector-curvature="0"
               id="path4940"
               style="fill:none;stroke:#c12126;stroke-width:0.94999999;stroke-linecap:butt;stroke-linejoin:miter;stroke-miterlimit:10;stroke-dasharray:none;stroke-opacity:1"
               d="m 0,0 c 0,-18.586 -15.067,-33.654 -33.655,-33.654 -18.586,0 -33.654,15.068 -33.654,33.654 0,18.587 15.068,33.655 33.654,33.655 C -15.067,33.655 0,18.587 0,0 Z m -3.369,0 c 0,-16.726 -13.559,-30.285 -30.286,-30.285 -16.725,0 -30.285,13.559 -30.285,30.285 0,16.726 13.56,30.286 30.285,30.286 16.727,0 30.286,-13.56 30.286,-30.286 z" />
          </g>
        </g>
      </g>
      <g
         transform="matrix(1.25,0,0,-1.25,-186.04998,851.9309)"
         id="g4942">
        <path
           inkscape:connector-curvature="0"
           id="path4944"
           style="fill:#c12126;fill-opacity:1;fill-rule:evenodd;stroke:none"
           d="m 0,0 10.214,0 0,-4.042 -6.173,0 0,-8.529 8.531,0 0,7.07 4.041,0 0,-11.112 L 0,-16.613 0,0 Z" />
      </g>
      <g
         transform="matrix(1.25,0,0,-1.25,-188.23673,851.9309)"
         id="g4946">
        <path
           inkscape:connector-curvature="0"
           id="path4948"
           style="fill:#c12126;fill-opacity:1;fill-rule:evenodd;stroke:none"
           d="m 0,0 -10.214,0 0,-4.042 6.174,0 0,-8.529 -8.531,0 0,7.07 -4.042,0 0,-11.112 16.613,0 L 0,0 Z" />
      </g>
      <g
         transform="matrix(1.25,0,0,-1.25,-186.04998,895.65045)"
         id="g4950">
        <path
           inkscape:connector-curvature="0"
           id="path4952"
           style="fill:#c12126;fill-opacity:1;fill-rule:evenodd;stroke:none"
           d="m 0,0 10.214,0 0,4.04 -6.173,0 0,8.533 8.531,0 0,-7.073 4.041,0 0,11.113 L 0,16.613 0,0 Z" />
      </g>
      <g
         transform="matrix(1.25,0,0,-1.25,-188.23673,895.65045)"
         id="g4954">
        <path
           inkscape:connector-curvature="0"
           id="path4956"
           style="fill:#c12126;fill-opacity:1;fill-rule:evenodd;stroke:none"
           d="m 0,0 -10.214,0 0,4.04 6.174,0 0,8.533 -8.531,0 0,-7.073 -4.042,0 0,11.113 L 0,16.613 0,0 Z" />
      </g>
      <g
         transform="matrix(1.25,0,0,-1.25,-674.74523,1141.3503)"
         id="g4197">
        <g
           id="g4199"
           clip-path="url(#clipPath4934)">
          <g
             id="g4201"
             transform="translate(423.7358,214.0472)">
            <path
               d="m 0,0 c 0,-18.586 -15.067,-33.654 -33.655,-33.654 -18.586,0 -33.654,15.068 -33.654,33.654 0,18.587 15.068,33.655 33.654,33.655 C -15.067,33.655 0,18.587 0,0 Z m -3.369,0 c 0,-16.726 -13.559,-30.285 -30.286,-30.285 -16.725,0 -30.285,13.559 -30.285,30.285 0,16.726 13.56,30.286 30.285,30.286 16.727,0 30.286,-13.56 30.286,-30.286 z"
               style="fill:none;stroke:#c12126;stroke-width:0.94999999;stroke-linecap:butt;stroke-linejoin:miter;stroke-miterlimit:10;stroke-dasharray:none;stroke-opacity:1"
               id="path4203"
               inkscape:connector-curvature="0" />
          </g>
        </g>
      </g>
      <g
         id="g4205"
         transform="matrix(1.25,0,0,-1.25,-186.04998,851.9309)">
        <path
           d="m 0,0 10.214,0 0,-4.042 -6.173,0 0,-8.529 8.531,0 0,7.07 4.041,0 0,-11.112 L 0,-16.613 0,0 Z"
           style="fill:#c12126;fill-opacity:1;fill-rule:evenodd;stroke:none"
           id="path4207"
           inkscape:connector-curvature="0" />
      </g>
      <g
         id="g4209"
         transform="matrix(1.25,0,0,-1.25,-188.23673,851.9309)">
        <path
           d="m 0,0 -10.214,0 0,-4.042 6.174,0 0,-8.529 -8.531,0 0,7.07 -4.042,0 0,-11.112 16.613,0 L 0,0 Z"
           style="fill:#c12126;fill-opacity:1;fill-rule:evenodd;stroke:none"
           id="path4211"
           inkscape:connector-curvature="0" />
      </g>
      <g
         id="g4213"
         transform="matrix(1.25,0,0,-1.25,-186.04998,895.65045)">
        <path
           d="m 0,0 10.214,0 0,4.04 -6.173,0 0,8.533 8.531,0 0,-7.073 4.041,0 0,11.113 L 0,16.613 0,0 Z"
           style="fill:#c12126;fill-opacity:1;fill-rule:evenodd;stroke:none"
           id="path4215"
           inkscape:connector-curvature="0" />
      </g>
      <g
         id="g4217"
         transform="matrix(1.25,0,0,-1.25,-188.23673,895.65045)">
        <path
           d="m 0,0 -10.214,0 0,4.04 6.174,0 0,8.533 -8.531,0 0,-7.073 -4.042,0 0,11.113 L 0,16.613 0,0 Z"
           style="fill:#c12126;fill-opacity:1;fill-rule:evenodd;stroke:none"
           id="path4219"
           inkscape:connector-curvature="0" />
      </g>
    </g>
  </g>
</svg>
