<?xml version="1.0" encoding="UTF-8" standalone="no"?>
<!-- Created with Inkscape (http://www.inkscape.org/) -->

<svg
   xmlns:dc="http://purl.org/dc/elements/1.1/"
   xmlns:cc="http://creativecommons.org/ns#"
   xmlns:rdf="http://www.w3.org/1999/02/22-rdf-syntax-ns#"
   xmlns:svg="http://www.w3.org/2000/svg"
   xmlns="http://www.w3.org/2000/svg"
   xmlns:sodipodi="http://sodipodi.sourceforge.net/DTD/sodipodi-0.dtd"
   xmlns:inkscape="http://www.inkscape.org/namespaces/inkscape"
   width="91"
   height="91"
   id="svg6058"
   version="1.1"
   inkscape:version="0.48.4 r9939"
   sodipodi:docname="AyF.svg">
  <defs
     id="defs6060">
    <clipPath
       clipPathUnits="userSpaceOnUse"
       id="clipPath5199">
      <path
         inkscape:connector-curvature="0"
         d="m 354.553,125.072 70.866,0 0,70.867 -70.866,0 0,-70.867 z"
         id="path5201" />
    </clipPath>
    <clipPath
       clipPathUnits="userSpaceOnUse"
       id="clipPath5622">
      <path
         inkscape:connector-curvature="0"
         d="m 331.876,361.672 70.866,0 0,70.867 -70.866,0 0,-70.867 z"
         id="path5624" />
    </clipPath>
    <clipPath
       clipPathUnits="userSpaceOnUse"
       id="clipPath5590">
      <path
         inkscape:connector-curvature="0"
         d="m 331.876,440.539 70.866,0 0,70.866 -70.866,0 0,-70.866 z"
         id="path5592" />
    </clipPath>
    <clipPath
       clipPathUnits="userSpaceOnUse"
       id="clipPath5223">
      <path
         inkscape:connector-curvature="0"
         d="m 354.553,46.205 70.866,0 0,70.867 -70.866,0 0,-70.867 z"
         id="path5225" />
    </clipPath>
    <clipPath
       clipPathUnits="userSpaceOnUse"
       id="clipPath4536">
      <path
         inkscape:connector-curvature="0"
         d="m 335.419,202.684 63.779,0 0,63.78 -63.779,0 0,-63.78 z"
         id="path4538" />
    </clipPath>
    <clipPath
       clipPathUnits="userSpaceOnUse"
       id="clipPath4582">
      <path
         inkscape:connector-curvature="0"
         d="m 331.876,80.086 70.866,0 0,70.866 -70.866,0 0,-70.866 z"
         id="path4584" />
    </clipPath>
    <clipPath
       clipPathUnits="userSpaceOnUse"
       id="clipPath4594">
      <path
         inkscape:connector-curvature="0"
         d="m 331.876,87.172 63.779,0 0,63.779 -63.779,0 0,-63.779 z"
         id="path4596" />
    </clipPath>
    <clipPath
       clipPathUnits="userSpaceOnUse"
       id="clipPath4606">
      <path
         inkscape:connector-curvature="0"
         d="m 331.876,80.086 70.866,0 0,70.866 -70.866,0 0,-70.866 z"
         id="path4608" />
    </clipPath>
  </defs>
  <sodipodi:namedview
     id="base"
     pagecolor="#ffffff"
     bordercolor="#666666"
     borderopacity="1.0"
     inkscape:pageopacity="0.0"
     inkscape:pageshadow="2"
     inkscape:zoom="1.4"
     inkscape:cx="-38.177334"
     inkscape:cy="62.165378"
     inkscape:document-units="px"
     inkscape:current-layer="layer1"
     showgrid="false"
     inkscape:window-width="745"
     inkscape:window-height="597"
     inkscape:window-x="110"
     inkscape:window-y="110"
     inkscape:window-maximized="0" />
  <metadata
     id="metadata6063">
    <rdf:RDF>
      <cc:Work
         rdf:about="">
        <dc:format>image/svg+xml</dc:format>
        <dc:type
           rdf:resource="http://purl.org/dc/dcmitype/StillImage" />
        <dc:title></dc:title>
      </cc:Work>
    </rdf:RDF>
  </metadata>
  <g
     inkscape:label="Capa 1"
     inkscape:groupmode="layer"
     id="layer1"
     transform="translate(0,-961.36218)">
    <g
       id="g5963"
       transform="matrix(1.1288982,0,0,1.1288982,-500.55657,183.70556)">
      <g
         id="g4578"
         transform="matrix(1.25,0,0,-1.25,29.000288,877.99541)">
        <g
           clip-path="url(#clipPath4582)"
           id="g4580">
          <g
             transform="translate(395.6553,119.0618)"
             id="g4586">
            <path
               id="path4588"
               style="fill:#2253a1;fill-opacity:1;fill-rule:nonzero;stroke:none"
               d="m 0,0 c 0,-17.612 -14.277,-31.89 -31.89,-31.89 -17.612,0 -31.889,14.278 -31.889,31.89 0,17.612 14.277,31.89 31.889,31.89 C -14.277,31.89 0,17.612 0,0"
               inkscape:connector-curvature="0" />
          </g>
        </g>
      </g>
      <g
         id="g4590"
         transform="matrix(1.25,0,0,-1.25,29.000288,877.99541)">
        <g
           clip-path="url(#clipPath4594)"
           id="g4592">
          <g
             transform="translate(392.4631,119.0618)"
             id="g4598">
            <path
               id="path4600"
               style="fill:none;stroke:#ffffff;stroke-width:0.85399997;stroke-linecap:butt;stroke-linejoin:miter;stroke-miterlimit:10;stroke-opacity:1;stroke-dasharray:none"
               d="m 0,0 c 0,-15.849 -12.848,-28.698 -28.698,-28.698 -15.848,0 -28.697,12.849 -28.697,28.698 0,15.849 12.849,28.698 28.697,28.698 C -12.848,28.698 0,15.849 0,0 z"
               inkscape:connector-curvature="0" />
          </g>
        </g>
      </g>
      <g
         id="g4602"
         transform="matrix(1.25,0,0,-1.25,29.000288,877.99541)">
        <g
           clip-path="url(#clipPath4606)"
           id="g4604">
          <g
             transform="translate(360.0756,109.6078)"
             id="g4610">
            <path
               id="path4612"
               style="fill:#ffffff;fill-opacity:1;fill-rule:nonzero;stroke:none"
               d="m 0,0 c -1.051,-0.45 -2.145,-0.663 -3.219,-0.663 -3.172,0 -6.191,1.857 -7.519,4.957 -1.781,4.152 0.142,8.96 4.294,10.739 1.051,0.45 2.144,0.662 3.22,0.662 1.378,0 2.727,-0.349 3.92,-1 L -3.424,7.012 4.264,4.224 C 3.458,2.392 1.983,0.851 0,0 m 0.714,8.594 2.536,4.73 1.362,2.538 -2.529,1.379 c -1.626,0.886 -3.461,1.354 -5.307,1.354 -1.503,0 -2.971,-0.302 -4.361,-0.897 -2.721,-1.166 -4.823,-3.321 -5.922,-6.068 -1.1,-2.748 -1.062,-5.759 0.104,-8.478 1.749,-4.078 5.746,-6.713 10.184,-6.713 1.503,0 2.971,0.302 4.36,0.896 2.591,1.111 4.642,3.143 5.776,5.72 L 8.167,5.892 5.252,6.949 0.714,8.594 z"
               inkscape:connector-curvature="0" />
          </g>
          <g
             transform="translate(354.2484,122.823)"
             id="g4614">
            <path
               id="path4616"
               style="fill:#ffffff;fill-opacity:1;fill-rule:nonzero;stroke:none"
               d="m 0,0 c -0.861,-0.367 -1.259,-1.361 -0.889,-2.218 0.367,-0.858 1.36,-1.257 2.218,-0.89 0.859,0.369 1.257,1.364 0.888,2.222 C 1.851,-0.028 0.856,0.369 0,0"
               inkscape:connector-curvature="0" />
          </g>
          <g
             transform="translate(370.9572,123.4418)"
             id="g4618">
            <path
               id="path4620"
               style="fill:#ffffff;fill-opacity:1;fill-rule:nonzero;stroke:none"
               d="M 0,0 0.001,0 C -0.477,1.517 -1.586,2.756 -3.044,3.398 L -4.213,0.745 c 0.693,-0.306 1.22,-0.894 1.449,-1.617 l 10e-4,0 c 0.232,-0.746 0.123,-1.551 -0.296,-2.209 -0.433,-0.674 -0.236,-1.57 0.437,-2.003 0.243,-0.154 0.514,-0.228 0.781,-0.228 0.478,0 0.945,0.235 1.221,0.668 0.886,1.382 1.113,3.074 0.621,4.642 C 0.001,-0.001 0,-0.001 0,0"
               inkscape:connector-curvature="0" />
          </g>
          <g
             transform="translate(376.1129,125.1064)"
             id="g4622">
            <path
               id="path4624"
               style="fill:#ffffff;fill-opacity:1;fill-rule:nonzero;stroke:none"
               d="M 0,0 0.001,0 C -0.894,2.843 -2.971,5.163 -5.696,6.367 L -6.869,3.716 c 1.964,-0.868 3.46,-2.54 4.105,-4.588 0.666,-2.115 0.36,-4.401 -0.837,-6.27 -0.432,-0.673 -0.235,-1.57 0.44,-2.002 0.24,-0.155 0.511,-0.229 0.78,-0.229 0.476,0 0.944,0.236 1.222,0.668 1.661,2.593 2.085,5.766 1.16,8.703 C 0.001,-0.001 0,-0.001 0,0"
               inkscape:connector-curvature="0" />
          </g>
          <g
             transform="translate(381.4083,126.8168)"
             id="g4626">
            <path
               id="path4628"
               style="fill:#ffffff;fill-opacity:1;fill-rule:nonzero;stroke:none"
               d="m 0,0 c -1.352,4.294 -4.489,7.802 -8.611,9.624 l -1.173,-2.65 c 3.359,-1.486 5.917,-4.346 7.019,-7.844 1.137,-3.618 0.617,-7.525 -1.431,-10.719 -0.43,-0.673 -0.235,-1.57 0.44,-2.002 0.24,-0.155 0.513,-0.231 0.78,-0.231 0.476,0 0.944,0.238 1.222,0.668 C 0.758,-9.234 1.398,-4.44 0,0"
               inkscape:connector-curvature="0" />
          </g>
        </g>
      </g>
    </g>
  </g>
</svg>
