<?xml version="1.0" encoding="UTF-8" standalone="no"?>
<!-- Created with Inkscape (http://www.inkscape.org/) -->

<svg
   xmlns:dc="http://purl.org/dc/elements/1.1/"
   xmlns:cc="http://creativecommons.org/ns#"
   xmlns:rdf="http://www.w3.org/1999/02/22-rdf-syntax-ns#"
   xmlns:svg="http://www.w3.org/2000/svg"
   xmlns="http://www.w3.org/2000/svg"
   xmlns:sodipodi="http://sodipodi.sourceforge.net/DTD/sodipodi-0.dtd"
   xmlns:inkscape="http://www.inkscape.org/namespaces/inkscape"
   width="91"
   height="91"
   id="svg6058"
   version="1.1"
   inkscape:version="0.48.4 r9939"
   sodipodi:docname="jg.svg">
  <defs
     id="defs6060">
    <clipPath
       clipPathUnits="userSpaceOnUse"
       id="clipPath5199">
      <path
         inkscape:connector-curvature="0"
         d="m 354.553,125.072 70.866,0 0,70.867 -70.866,0 0,-70.867 z"
         id="path5201" />
    </clipPath>
    <clipPath
       clipPathUnits="userSpaceOnUse"
       id="clipPath5622">
      <path
         inkscape:connector-curvature="0"
         d="m 331.876,361.672 70.866,0 0,70.867 -70.866,0 0,-70.867 z"
         id="path5624" />
    </clipPath>
    <clipPath
       clipPathUnits="userSpaceOnUse"
       id="clipPath5590">
      <path
         inkscape:connector-curvature="0"
         d="m 331.876,440.539 70.866,0 0,70.866 -70.866,0 0,-70.866 z"
         id="path5592" />
    </clipPath>
    <clipPath
       clipPathUnits="userSpaceOnUse"
       id="clipPath5223">
      <path
         inkscape:connector-curvature="0"
         d="m 354.553,46.205 70.866,0 0,70.867 -70.866,0 0,-70.867 z"
         id="path5225" />
    </clipPath>
  </defs>
  <sodipodi:namedview
     id="base"
     pagecolor="#ffffff"
     bordercolor="#666666"
     borderopacity="1.0"
     inkscape:pageopacity="0.0"
     inkscape:pageshadow="2"
     inkscape:zoom="1.4"
     inkscape:cx="-38.177334"
     inkscape:cy="62.165378"
     inkscape:document-units="px"
     inkscape:current-layer="layer1"
     showgrid="false"
     inkscape:window-width="745"
     inkscape:window-height="597"
     inkscape:window-x="110"
     inkscape:window-y="110"
     inkscape:window-maximized="0" />
  <metadata
     id="metadata6063">
    <rdf:RDF>
      <cc:Work
         rdf:about="">
        <dc:format>image/svg+xml</dc:format>
        <dc:type
           rdf:resource="http://purl.org/dc/dcmitype/StillImage" />
        <dc:title></dc:title>
      </cc:Work>
    </rdf:RDF>
  </metadata>
  <g
     inkscape:label="Capa 1"
     inkscape:groupmode="layer"
     id="layer1"
     transform="translate(0,-961.36218)">
    <g
       transform="matrix(1.2700079,0,0,-1.2700079,-449.78549,1110.544)"
       id="g5219">
      <g
         id="g5221"
         clip-path="url(#clipPath5223)">
        <g
           id="g5227"
           transform="translate(425.4193,81.6384)">
          <path
             inkscape:connector-curvature="0"
             d="m 0,0 c 0,-19.569 -15.863,-35.433 -35.434,-35.433 -19.568,0 -35.432,15.864 -35.432,35.433 0,19.569 15.864,35.434 35.432,35.434 C -15.863,35.434 0,19.569 0,0"
             style="fill:#2991cf;fill-opacity:1;fill-rule:nonzero;stroke:none"
             id="path5229" />
        </g>
        <g
           id="g5231"
           transform="translate(421.8723,81.6384)">
          <path
             inkscape:connector-curvature="0"
             d="m 0,0 c 0,-17.61 -14.275,-31.886 -31.887,-31.886 -17.609,0 -31.885,14.276 -31.885,31.886 0,17.61 14.276,31.887 31.885,31.887 C -14.275,31.887 0,17.61 0,0 z"
             style="fill:none;stroke:#ffffff;stroke-width:0.949;stroke-linecap:butt;stroke-linejoin:miter;stroke-miterlimit:10;stroke-opacity:1;stroke-dasharray:none"
             id="path5233" />
        </g>
        <g
           id="g5235"
           transform="translate(383.0745,98.7878)">
          <path
             inkscape:connector-curvature="0"
             d="m 0,0 0,2.596 -7.016,-4.049 3.646,-2.105 0,-0.16 0.276,0 3.094,-1.786 0,1.74 c 11.797,-0.474 20.523,-6.478 20.523,-14.358 0,-8.974 -7.312,-14.295 -20.147,-14.761 l 0,22.086 c 8.032,-0.401 12.942,-3.419 12.942,-8.081 0,-3.25 -2.625,-5.56 -5.137,-6.371 l 0,8.326 c 0,1.035 -0.839,1.874 -1.874,1.874 -1.035,0 -1.873,-0.839 -1.873,-1.874 l 0,-8.651 0,-0.652 0,-3.095 1.873,0 c 4.397,0 10.758,3.718 10.758,10.443 0,5.469 -4.443,11.283 -16.689,11.825 l 0,0.053 -1.873,0 -1.873,0 0,-3.747 0,-24.043 c 0,-1.035 0.838,-1.874 1.873,-1.874 23.91,0 25.768,14.191 25.768,18.542 C 24.271,-8.129 13.939,-0.511 0,0"
             style="fill:#ffffff;fill-opacity:1;fill-rule:nonzero;stroke:none"
             id="path5237" />
        </g>
      </g>
    </g>
  </g>
</svg>
