<?xml version="1.0" encoding="UTF-8" standalone="no"?>
<!-- Created with Inkscape (http://www.inkscape.org/) -->

<svg
   xmlns:dc="http://purl.org/dc/elements/1.1/"
   xmlns:cc="http://creativecommons.org/ns#"
   xmlns:rdf="http://www.w3.org/1999/02/22-rdf-syntax-ns#"
   xmlns:svg="http://www.w3.org/2000/svg"
   xmlns="http://www.w3.org/2000/svg"
   xmlns:sodipodi="http://sodipodi.sourceforge.net/DTD/sodipodi-0.dtd"
   xmlns:inkscape="http://www.inkscape.org/namespaces/inkscape"
   width="91"
   height="91"
   id="svg6058"
   version="1.1"
   inkscape:version="0.48.4 r9939"
   sodipodi:docname="desarrollo.svg">
  <defs
     id="defs6060">
    <clipPath
       clipPathUnits="userSpaceOnUse"
       id="clipPath5199">
      <path
         inkscape:connector-curvature="0"
         d="m 354.553,125.072 70.866,0 0,70.867 -70.866,0 0,-70.867 z"
         id="path5201" />
    </clipPath>
    <clipPath
       clipPathUnits="userSpaceOnUse"
       id="clipPath5622">
      <path
         inkscape:connector-curvature="0"
         d="m 331.876,361.672 70.866,0 0,70.867 -70.866,0 0,-70.867 z"
         id="path5624" />
    </clipPath>
    <clipPath
       clipPathUnits="userSpaceOnUse"
       id="clipPath5590">
      <path
         inkscape:connector-curvature="0"
         d="m 331.876,440.539 70.866,0 0,70.866 -70.866,0 0,-70.866 z"
         id="path5592" />
    </clipPath>
    <clipPath
       clipPathUnits="userSpaceOnUse"
       id="clipPath5223">
      <path
         inkscape:connector-curvature="0"
         d="m 354.553,46.205 70.866,0 0,70.867 -70.866,0 0,-70.867 z"
         id="path5225" />
    </clipPath>
    <clipPath
       clipPathUnits="userSpaceOnUse"
       id="clipPath4536">
      <path
         inkscape:connector-curvature="0"
         d="m 335.419,202.684 63.779,0 0,63.78 -63.779,0 0,-63.78 z"
         id="path4538" />
    </clipPath>
    <clipPath
       clipPathUnits="userSpaceOnUse"
       id="clipPath4582">
      <path
         inkscape:connector-curvature="0"
         d="m 331.876,80.086 70.866,0 0,70.866 -70.866,0 0,-70.866 z"
         id="path4584" />
    </clipPath>
    <clipPath
       clipPathUnits="userSpaceOnUse"
       id="clipPath4594">
      <path
         inkscape:connector-curvature="0"
         d="m 331.876,87.172 63.779,0 0,63.779 -63.779,0 0,-63.779 z"
         id="path4596" />
    </clipPath>
    <clipPath
       clipPathUnits="userSpaceOnUse"
       id="clipPath4606">
      <path
         inkscape:connector-curvature="0"
         d="m 331.876,80.086 70.866,0 0,70.866 -70.866,0 0,-70.866 z"
         id="path4608" />
    </clipPath>
    <clipPath
       clipPathUnits="userSpaceOnUse"
       id="clipPath5664">
      <path
         inkscape:connector-curvature="0"
         d="m 331.876,254.208 70.866,0 0,70.866 -70.866,0 0,-70.866 z"
         id="path5666" />
    </clipPath>
  </defs>
  <sodipodi:namedview
     id="base"
     pagecolor="#ffffff"
     bordercolor="#666666"
     borderopacity="1.0"
     inkscape:pageopacity="0.0"
     inkscape:pageshadow="2"
     inkscape:zoom="5.6"
     inkscape:cx="27.530913"
     inkscape:cy="37.026912"
     inkscape:document-units="px"
     inkscape:current-layer="layer1"
     showgrid="false"
     inkscape:window-width="1366"
     inkscape:window-height="718"
     inkscape:window-x="0"
     inkscape:window-y="0"
     inkscape:window-maximized="1" />
  <metadata
     id="metadata6063">
    <rdf:RDF>
      <cc:Work
         rdf:about="">
        <dc:format>image/svg+xml</dc:format>
        <dc:type
           rdf:resource="http://purl.org/dc/dcmitype/StillImage" />
        <dc:title />
      </cc:Work>
    </rdf:RDF>
  </metadata>
  <g
     inkscape:label="Capa 1"
     inkscape:groupmode="layer"
     id="layer1"
     transform="translate(0,-961.36218)">
    <g
       transform="matrix(1.2700043,0,0,-1.2700043,-420.98407,1374.7075)"
       id="g5660">
      <g
         id="g5662"
         clip-path="url(#clipPath5664)">
        <g
           id="g5668"
           transform="translate(402.7421,289.6404)">
          <path
             inkscape:connector-curvature="0"
             d="m 0,0 c 0,-19.569 -15.863,-35.433 -35.434,-35.433 -19.568,0 -35.432,15.864 -35.432,35.433 0,19.569 15.864,35.434 35.432,35.434 C -15.863,35.434 0,19.569 0,0"
             style="fill:#f37e35;fill-opacity:1;fill-rule:nonzero;stroke:none"
             id="path5670" />
        </g>
        <g
           id="g5672"
           transform="translate(399.1952,289.6404)">
          <path
             inkscape:connector-curvature="0"
             d="m 0,0 c 0,-17.61 -14.275,-31.886 -31.887,-31.886 -17.609,0 -31.885,14.276 -31.885,31.886 0,17.61 14.276,31.887 31.885,31.887 C -14.275,31.887 0,17.61 0,0 z"
             style="fill:none;stroke:#ffffff;stroke-width:0.949;stroke-linecap:butt;stroke-linejoin:miter;stroke-miterlimit:10;stroke-opacity:1;stroke-dasharray:none"
             id="path5674" />
        </g>
      </g>
    </g>
    <path
       sodipodi:type="arc"
       style="fill:none;stroke:#ffffff;stroke-width:3.57544754;stroke-miterlimit:4;stroke-opacity:1;stroke-dasharray:none"
       id="path3902"
       sodipodi:cx="45.892857"
       sodipodi:cy="42.785713"
       sodipodi:rx="7.3214288"
       sodipodi:ry="7.3214288"
       d="m 53.214285,42.785713 a 7.3214288,7.3214288 0 1 1 -14.642857,0 7.3214288,7.3214288 0 1 1 14.642857,0 z"
       transform="matrix(0.8390558,0,0,0.8390558,6.9933325,967.44472)" />
    <rect
       style="fill:none;stroke:#ffffff;stroke-width:2.6458919;stroke-miterlimit:4;stroke-opacity:1;stroke-dasharray:none"
       id="rect4672"
       width="1.5862509"
       height="12.03268"
       x="44.830299"
       y="982.1098"
       ry="0.63329893" />
    <rect
       style="fill:none;stroke:#ffffff;stroke-width:2.6458919;stroke-miterlimit:4;stroke-opacity:1;stroke-dasharray:none"
       id="rect4672-0"
       width="1.5862509"
       height="12.03268"
       x="740.88287"
       y="655.16821"
       ry="0.63329893"
       inkscape:transform-center-x="2.525385"
       inkscape:transform-center-y="-6.8184924"
       transform="matrix(0.70710678,0.70710678,-0.70710678,0.70710678,0,0)" />
    <rect
       style="fill:none;stroke:#ffffff;stroke-width:2.6458919;stroke-miterlimit:4;stroke-opacity:1;stroke-dasharray:none"
       id="rect4672-0-1"
       width="1.5862509"
       height="12.03268"
       x="740.79779"
       y="687.49841"
       ry="0.63329893"
       inkscape:transform-center-x="2.525385"
       inkscape:transform-center-y="-6.8184924"
       transform="matrix(0.70710678,0.70710678,-0.70710678,0.70710678,0,0)" />
    <rect
       style="fill:none;stroke:#ffffff;stroke-width:2.6458919;stroke-miterlimit:4;stroke-opacity:1;stroke-dasharray:none"
       id="rect4672-0-3"
       width="1.5862509"
       height="12.03268"
       x="-678.86694"
       y="719.14764"
       ry="0.63329893"
       inkscape:transform-center-x="6.8184815"
       inkscape:transform-center-y="2.5254131"
       transform="matrix(0.70710678,-0.70710678,0.70710678,0.70710678,0,0)" />
    <rect
       style="fill:none;stroke:#ffffff;stroke-width:2.6458919;stroke-miterlimit:4;stroke-opacity:1;stroke-dasharray:none"
       id="rect4672-0-1-9"
       width="1.5862509"
       height="12.03268"
       x="-678.95203"
       y="751.47784"
       ry="0.63329893"
       inkscape:transform-center-x="6.8184815"
       inkscape:transform-center-y="2.5254131"
       transform="matrix(0.70710678,-0.70710678,0.70710678,0.70710678,0,0)" />
    <rect
       style="fill:none;stroke:#ffffff;stroke-width:2.6458919;stroke-miterlimit:4;stroke-opacity:1;stroke-dasharray:none"
       id="rect4672-0-3-1"
       width="1.5862509"
       height="12.03268"
       x="-1004.5053"
       y="23.331486"
       ry="0.63329893"
       inkscape:transform-center-x="3.0356582"
       inkscape:transform-center-y="6.6071382"
       transform="matrix(0,-1,1,0,0,0)" />
    <rect
       style="fill:none;stroke:#ffffff;stroke-width:2.6458919;stroke-miterlimit:4;stroke-opacity:1;stroke-dasharray:none"
       id="rect4672-0-1-9-8"
       width="1.5862509"
       height="12.03268"
       x="-1004.5904"
       y="55.661705"
       ry="0.63329893"
       inkscape:transform-center-x="3.0356562"
       inkscape:transform-center-y="6.6071382"
       transform="matrix(0,-1,1,0,0,0)" />
    <rect
       style="fill:none;stroke:#ffffff;stroke-width:2.79062533;stroke-miterlimit:4;stroke-opacity:1;stroke-dasharray:none"
       id="rect4672-8"
       width="1.4415174"
       height="14.729"
       x="44.77924"
       y="1010.3468"
       ry="0.77521056" />
    <path
       style="font-size:medium;font-style:normal;font-variant:normal;font-weight:normal;font-stretch:normal;text-indent:0;text-align:start;text-decoration:none;line-height:normal;letter-spacing:normal;word-spacing:normal;text-transform:none;direction:ltr;block-progression:tb;writing-mode:lr-tb;text-anchor:start;baseline-shift:baseline;color:#000000;fill:#ffffff;fill-opacity:1;stroke:none;stroke-width:2;marker:none;visibility:visible;display:inline;overflow:visible;enable-background:accumulate;font-family:Sans;-inkscape-font-specification:Sans"
       d="m 34.546875,1028.1434 c -0.678121,0.2824 -1.34375,0.6405 -1.34375,1.375 0,0.7346 1.911761,4.0991 2.504464,3.6652 6.923061,-5.0683 12.223551,-7.9827 20.089286,-0.089 0.518499,0.5204 2,-2.8413 2,-3.5759 0,-0.7345 -0.79674,-0.922 -1.375,-1.375 -10.718904,-8.3967 -15.642572,-2.5951 -21.875,0 z"
       id="rect4814"
       inkscape:connector-curvature="0"
       sodipodi:nodetypes="sssssss" />
  </g>
</svg>
