<?xml version="1.0" encoding="UTF-8" standalone="no"?>
<!-- Created with Inkscape (http://www.inkscape.org/) -->

<svg
   xmlns:dc="http://purl.org/dc/elements/1.1/"
   xmlns:cc="http://creativecommons.org/ns#"
   xmlns:rdf="http://www.w3.org/1999/02/22-rdf-syntax-ns#"
   xmlns:svg="http://www.w3.org/2000/svg"
   xmlns="http://www.w3.org/2000/svg"
   xmlns:sodipodi="http://sodipodi.sourceforge.net/DTD/sodipodi-0.dtd"
   xmlns:inkscape="http://www.inkscape.org/namespaces/inkscape"
   width="91"
   height="91"
   id="svg6058"
   version="1.1"
   inkscape:version="0.48.4 r9939"
   sodipodi:docname="dz.svg">
  <defs
     id="defs6060">
    <clipPath
       clipPathUnits="userSpaceOnUse"
       id="clipPath5199">
      <path
         inkscape:connector-curvature="0"
         d="m 354.553,125.072 70.866,0 0,70.867 -70.866,0 0,-70.867 z"
         id="path5201" />
    </clipPath>
    <clipPath
       clipPathUnits="userSpaceOnUse"
       id="clipPath5622">
      <path
         inkscape:connector-curvature="0"
         d="m 331.876,361.672 70.866,0 0,70.867 -70.866,0 0,-70.867 z"
         id="path5624" />
    </clipPath>
  </defs>
  <sodipodi:namedview
     id="base"
     pagecolor="#ffffff"
     bordercolor="#666666"
     borderopacity="1.0"
     inkscape:pageopacity="0.0"
     inkscape:pageshadow="2"
     inkscape:zoom="1.4"
     inkscape:cx="-38.177334"
     inkscape:cy="62.165378"
     inkscape:document-units="px"
     inkscape:current-layer="layer1"
     showgrid="false"
     inkscape:window-width="745"
     inkscape:window-height="597"
     inkscape:window-x="110"
     inkscape:window-y="110"
     inkscape:window-maximized="0" />
  <metadata
     id="metadata6063">
    <rdf:RDF>
      <cc:Work
         rdf:about="">
        <dc:format>image/svg+xml</dc:format>
        <dc:type
           rdf:resource="http://purl.org/dc/dcmitype/StillImage" />
        <dc:title></dc:title>
      </cc:Work>
    </rdf:RDF>
  </metadata>
  <g
     inkscape:label="Capa 1"
     inkscape:groupmode="layer"
     id="layer1"
     transform="translate(0,-961.36218)">
    <g
       transform="matrix(1.2700043,0,0,-1.2700043,-420.98407,1511.188)"
       id="g5618">
      <g
         id="g5620"
         clip-path="url(#clipPath5622)">
        <g
           id="g5626"
           transform="translate(402.7421,397.1052)">
          <path
             inkscape:connector-curvature="0"
             d="m 0,0 c 0,-19.569 -15.863,-35.433 -35.434,-35.433 -19.568,0 -35.432,15.864 -35.432,35.433 0,19.569 15.864,35.434 35.432,35.434 C -15.863,35.434 0,19.569 0,0"
             style="fill:#2991cf;fill-opacity:1;fill-rule:nonzero;stroke:none"
             id="path5628" />
        </g>
        <g
           id="g5630"
           transform="translate(399.1952,397.1052)">
          <path
             inkscape:connector-curvature="0"
             d="m 0,0 c 0,-17.61 -14.275,-31.886 -31.887,-31.886 -17.609,0 -31.885,14.276 -31.885,31.886 0,17.61 14.276,31.887 31.885,31.887 C -14.275,31.887 0,17.61 0,0 z"
             style="fill:none;stroke:#ffffff;stroke-width:0.949;stroke-linecap:butt;stroke-linejoin:miter;stroke-miterlimit:10;stroke-opacity:1;stroke-dasharray:none"
             id="path5632" />
        </g>
        <g
           id="g5634"
           transform="translate(372.5546,409.3576)">
          <path
             inkscape:connector-curvature="0"
             d="M 0,0 C 1.762,-0.131 3.294,1.191 3.427,2.951 3.558,4.711 2.236,6.244 0.476,6.375 -1.284,6.506 -2.818,5.186 -2.949,3.427 -3.08,1.667 -1.76,0.133 0,0"
             style="fill:#ffffff;fill-opacity:1;fill-rule:nonzero;stroke:none"
             id="path5636" />
        </g>
        <g
           id="g5638"
           transform="translate(388.0986,407.4397)">
          <path
             inkscape:connector-curvature="0"
             d="m 0,0 -13.25,0.52 -0.002,-0.079 c -0.144,-0.007 -0.28,-0.022 -0.42,-0.033 -0.199,0.017 -0.4,0.002 -0.603,-0.049 -6.632,-0.802 -9.368,-5.637 -9.496,-5.871 -0.495,-0.894 -0.173,-2.014 0.717,-2.516 0.288,-0.162 0.6,-0.239 0.908,-0.239 0.649,0 1.281,0.339 1.625,0.939 0.082,0.144 1.681,2.813 5.467,3.75 1.072,-3.548 3.107,-13.238 -2.927,-22.515 -0.562,-0.861 -0.317,-2.015 0.546,-2.576 0.314,-0.203 0.664,-0.301 1.012,-0.301 0.608,0 1.207,0.298 1.563,0.847 6.494,9.982 4.887,20.192 3.607,24.838 L -0.147,-3.721 0,0 z"
             style="fill:#ffffff;fill-opacity:1;fill-rule:nonzero;stroke:none"
             id="path5640" />
        </g>
        <g
           id="g5642"
           transform="translate(353.8691,397.7825)">
          <path
             inkscape:connector-curvature="0"
             d="M 0,0 C 1.76,0.131 3.081,1.667 2.95,3.425 2.819,5.185 1.285,6.507 -0.476,6.376 -2.236,6.245 -3.557,4.709 -3.426,2.951 -3.294,1.191 -1.762,-0.131 0,0"
             style="fill:#ffffff;fill-opacity:1;fill-rule:nonzero;stroke:none"
             id="path5644" />
        </g>
        <g
           id="g5646"
           transform="translate(360.3046,399.2156)">
          <path
             inkscape:connector-curvature="0"
             d="m 0,0 c -0.037,-0.032 -3.718,-3.285 -7.941,-4.183 -0.002,0 -0.003,-0.001 -0.005,-0.001 l -5.839,-1.237 0.771,-3.642 5.845,1.237 0.003,0 c 0.003,10e-4 0.007,0.002 0.01,0.002 l 0.501,0.107 c 0.457,-2.629 0.734,-6.883 -0.845,-9.834 -0.485,-0.906 -0.143,-2.034 0.764,-2.52 0.279,-0.149 0.58,-0.22 0.876,-0.22 0.665,0 1.308,0.357 1.644,0.984 2.379,4.447 1.632,10.236 1.1,12.891 3.209,1.525 5.473,3.527 5.602,3.644 0.765,0.686 0.827,1.861 0.142,2.626 C 1.941,0.619 0.766,0.684 0,0"
             style="fill:#ffffff;fill-opacity:1;fill-rule:nonzero;stroke:none"
             id="path5648" />
        </g>
      </g>
    </g>
  </g>
</svg>
