<?xml version="1.0" encoding="UTF-8" standalone="no"?>
<!-- Created with Inkscape (http://www.inkscape.org/) -->

<svg
   xmlns:dc="http://purl.org/dc/elements/1.1/"
   xmlns:cc="http://creativecommons.org/ns#"
   xmlns:rdf="http://www.w3.org/1999/02/22-rdf-syntax-ns#"
   xmlns:svg="http://www.w3.org/2000/svg"
   xmlns="http://www.w3.org/2000/svg"
   xmlns:sodipodi="http://sodipodi.sourceforge.net/DTD/sodipodi-0.dtd"
   xmlns:inkscape="http://www.inkscape.org/namespaces/inkscape"
   width="91"
   height="91"
   id="svg6058"
   version="1.1"
   inkscape:version="0.48.4 r9939"
   sodipodi:docname="Documento nuevo 14">
  <defs
     id="defs6060">
    <clipPath
       clipPathUnits="userSpaceOnUse"
       id="clipPath5199">
      <path
         inkscape:connector-curvature="0"
         d="m 354.553,125.072 70.866,0 0,70.867 -70.866,0 0,-70.867 z"
         id="path5201" />
    </clipPath>
  </defs>
  <sodipodi:namedview
     id="base"
     pagecolor="#ffffff"
     bordercolor="#666666"
     borderopacity="1.0"
     inkscape:pageopacity="0.0"
     inkscape:pageshadow="2"
     inkscape:zoom="1.4"
     inkscape:cx="-38.177334"
     inkscape:cy="62.165378"
     inkscape:document-units="px"
     inkscape:current-layer="layer1"
     showgrid="false"
     inkscape:window-width="745"
     inkscape:window-height="597"
     inkscape:window-x="110"
     inkscape:window-y="110"
     inkscape:window-maximized="0" />
  <metadata
     id="metadata6063">
    <rdf:RDF>
      <cc:Work
         rdf:about="">
        <dc:format>image/svg+xml</dc:format>
        <dc:type
           rdf:resource="http://purl.org/dc/dcmitype/StillImage" />
        <dc:title></dc:title>
      </cc:Work>
    </rdf:RDF>
  </metadata>
  <g
     inkscape:label="Capa 1"
     inkscape:groupmode="layer"
     id="layer1"
     transform="translate(0,-961.36218)">
    <g
       transform="matrix(1.2700079,0,0,-1.2700079,-449.78549,1210.7055)"
       id="g5195">
      <g
         id="g5197"
         clip-path="url(#clipPath5199)">
        <g
           id="g5203"
           transform="translate(425.4193,160.5051)">
          <path
             inkscape:connector-curvature="0"
             d="m 0,0 c 0,-19.569 -15.863,-35.433 -35.434,-35.433 -19.568,0 -35.432,15.864 -35.432,35.433 0,19.569 15.864,35.434 35.432,35.434 C -15.863,35.434 0,19.569 0,0"
             style="fill:#2991cf;fill-opacity:1;fill-rule:nonzero;stroke:none"
             id="path5205" />
        </g>
        <g
           id="g5207"
           transform="translate(421.8723,160.5051)">
          <path
             inkscape:connector-curvature="0"
             d="m 0,0 c 0,-17.61 -14.275,-31.886 -31.887,-31.886 -17.609,0 -31.885,14.276 -31.885,31.886 0,17.61 14.276,31.887 31.885,31.887 C -14.275,31.887 0,17.61 0,0 z"
             style="fill:none;stroke:#ffffff;stroke-width:0.949;stroke-linecap:butt;stroke-linejoin:miter;stroke-miterlimit:10;stroke-opacity:1;stroke-dasharray:none"
             id="path5209" />
        </g>
        <g
           id="g5211"
           transform="translate(375.5706,149.5574)">
          <path
             inkscape:connector-curvature="0"
             d="m 0,0 0,8.619 11.168,0 C 9.984,4.109 5.531,0.615 0,0 m 36.907,10.367 -7.209,4.164 0,-2.412 -4.293,0 5.836,10.911 c 0.289,0.542 0.274,1.197 -0.043,1.724 -0.316,0.528 -0.884,0.851 -1.5,0.851 l -13.588,0 c -0.967,0 -1.75,-0.783 -1.75,-1.75 0,-0.967 0.783,-1.75 1.75,-1.75 l 10.666,0 -5.34,-9.986 -6.512,0 C 14.267,19.65 7.048,25.605 -1.75,25.605 l -1.75,0 0,-1.75 0,-1.561 0,-0.189 0,-1.561 0,-5.466 3.5,0 0,5.466 0,1.452 c 6.04,-0.673 10.809,-4.764 11.421,-9.877 l -11.421,0 -3.5,0 0,-3.5 0,-10.465 c 0,-0.967 0.783,-1.75 1.75,-1.75 8.297,0 15.184,5.297 16.495,12.215 l 4.82,0 -5.215,-9.754 c -0.291,-0.541 -0.275,-1.197 0.042,-1.724 0.316,-0.528 0.885,-0.85 1.501,-0.85 l 13.805,0 c 0.967,0 1.75,0.783 1.75,1.75 0,0.967 -0.783,1.75 -1.75,1.75 l -10.885,0 4.721,8.828 6.164,0 0,-2.412 7.209,4.16 z"
             style="fill:#ffffff;fill-opacity:1;fill-rule:nonzero;stroke:none"
             id="path5213" />
        </g>
      </g>
    </g>
  </g>
</svg>
