<?xml version="1.0" encoding="UTF-8" standalone="no"?>
<!-- Created with Inkscape (http://www.inkscape.org/) -->

<svg
   xmlns:dc="http://purl.org/dc/elements/1.1/"
   xmlns:cc="http://creativecommons.org/ns#"
   xmlns:rdf="http://www.w3.org/1999/02/22-rdf-syntax-ns#"
   xmlns:svg="http://www.w3.org/2000/svg"
   xmlns="http://www.w3.org/2000/svg"
   xmlns:sodipodi="http://sodipodi.sourceforge.net/DTD/sodipodi-0.dtd"
   xmlns:inkscape="http://www.inkscape.org/namespaces/inkscape"
   width="91"
   height="91"
   id="svg6058"
   version="1.1"
   inkscape:version="0.48.4 r9939"
   sodipodi:docname="infraestructura.svg">
  <defs
     id="defs6060">
    <clipPath
       clipPathUnits="userSpaceOnUse"
       id="clipPath5199">
      <path
         inkscape:connector-curvature="0"
         d="m 354.553,125.072 70.866,0 0,70.867 -70.866,0 0,-70.867 z"
         id="path5201" />
    </clipPath>
    <clipPath
       clipPathUnits="userSpaceOnUse"
       id="clipPath5622">
      <path
         inkscape:connector-curvature="0"
         d="m 331.876,361.672 70.866,0 0,70.867 -70.866,0 0,-70.867 z"
         id="path5624" />
    </clipPath>
    <clipPath
       clipPathUnits="userSpaceOnUse"
       id="clipPath5590">
      <path
         inkscape:connector-curvature="0"
         d="m 331.876,440.539 70.866,0 0,70.866 -70.866,0 0,-70.866 z"
         id="path5592" />
    </clipPath>
    <clipPath
       clipPathUnits="userSpaceOnUse"
       id="clipPath5223">
      <path
         inkscape:connector-curvature="0"
         d="m 354.553,46.205 70.866,0 0,70.867 -70.866,0 0,-70.867 z"
         id="path5225" />
    </clipPath>
    <clipPath
       clipPathUnits="userSpaceOnUse"
       id="clipPath4536">
      <path
         inkscape:connector-curvature="0"
         d="m 335.419,202.684 63.779,0 0,63.78 -63.779,0 0,-63.78 z"
         id="path4538" />
    </clipPath>
    <clipPath
       clipPathUnits="userSpaceOnUse"
       id="clipPath4582">
      <path
         inkscape:connector-curvature="0"
         d="m 331.876,80.086 70.866,0 0,70.866 -70.866,0 0,-70.866 z"
         id="path4584" />
    </clipPath>
    <clipPath
       clipPathUnits="userSpaceOnUse"
       id="clipPath4594">
      <path
         inkscape:connector-curvature="0"
         d="m 331.876,87.172 63.779,0 0,63.779 -63.779,0 0,-63.779 z"
         id="path4596" />
    </clipPath>
    <clipPath
       clipPathUnits="userSpaceOnUse"
       id="clipPath4606">
      <path
         inkscape:connector-curvature="0"
         d="m 331.876,80.086 70.866,0 0,70.866 -70.866,0 0,-70.866 z"
         id="path4608" />
    </clipPath>
    <clipPath
       clipPathUnits="userSpaceOnUse"
       id="clipPath5664">
      <path
         inkscape:connector-curvature="0"
         d="m 331.876,254.208 70.866,0 0,70.866 -70.866,0 0,-70.866 z"
         id="path5666" />
    </clipPath>
  </defs>
  <sodipodi:namedview
     id="base"
     pagecolor="#ffffff"
     bordercolor="#666666"
     borderopacity="1.0"
     inkscape:pageopacity="0.0"
     inkscape:pageshadow="2"
     inkscape:zoom="3.959798"
     inkscape:cx="-71.245539"
     inkscape:cy="46.284184"
     inkscape:document-units="px"
     inkscape:current-layer="layer1"
     showgrid="false"
     inkscape:window-width="1366"
     inkscape:window-height="718"
     inkscape:window-x="0"
     inkscape:window-y="0"
     inkscape:window-maximized="1" />
  <metadata
     id="metadata6063">
    <rdf:RDF>
      <cc:Work
         rdf:about="">
        <dc:format>image/svg+xml</dc:format>
        <dc:type
           rdf:resource="http://purl.org/dc/dcmitype/StillImage" />
        <dc:title />
      </cc:Work>
    </rdf:RDF>
  </metadata>
  <g
     inkscape:label="Capa 1"
     inkscape:groupmode="layer"
     id="layer1"
     transform="translate(0,-961.36218)">
    <g
       transform="matrix(1.2700043,0,0,-1.2700043,-420.98407,1374.7075)"
       id="g5660">
      <g
         id="g5662"
         clip-path="url(#clipPath5664)">
        <g
           id="g5668"
           transform="translate(402.7421,289.6404)">
          <path
             inkscape:connector-curvature="0"
             d="m 0,0 c 0,-19.569 -15.863,-35.433 -35.434,-35.433 -19.568,0 -35.432,15.864 -35.432,35.433 0,19.569 15.864,35.434 35.432,35.434 C -15.863,35.434 0,19.569 0,0"
             style="fill:#803300;fill-opacity:1;fill-rule:nonzero;stroke:none"
             id="path5670" />
        </g>
        <g
           id="g5672"
           transform="translate(399.1952,289.6404)">
          <path
             inkscape:connector-curvature="0"
             d="m 0,0 c 0,-17.61 -14.275,-31.886 -31.887,-31.886 -17.609,0 -31.885,14.276 -31.885,31.886 0,17.61 14.276,31.887 31.885,31.887 C -14.275,31.887 0,17.61 0,0 z"
             style="fill:none;stroke:#ffffff;stroke-width:0.949;stroke-linecap:butt;stroke-linejoin:miter;stroke-miterlimit:10;stroke-opacity:1;stroke-dasharray:none"
             id="path5674" />
        </g>
      </g>
    </g>
    <g
       id="g3337"
       transform="translate(1.0272532,1.1399319)">
      <rect
         transform="matrix(0,-1,1,0,0,0)"
         inkscape:transform-center-y="3.6616265"
         inkscape:transform-center-x="11.021097"
         ry="2.2992227"
         y="22.627728"
         x="-983.04785"
         height="43.68523"
         width="0.87908548"
         id="rect4672-0-1-9-8"
         style="fill:#000000;stroke:#ffffff;stroke-width:3.75307989;stroke-miterlimit:4;stroke-opacity:1;stroke-dasharray:none" />
      <rect
         transform="matrix(0,-1,1,0,0,0)"
         inkscape:transform-center-y="3.6616299"
         inkscape:transform-center-x="11.021099"
         ry="2.2992227"
         y="22.632536"
         x="-1021.5535"
         height="43.68523"
         width="0.87908548"
         id="rect4672-0-1-9-8-4"
         style="fill:#000000;stroke:#ffffff;stroke-width:3.75307989;stroke-miterlimit:4;stroke-opacity:1;stroke-dasharray:none" />
      <rect
         inkscape:transform-center-y="2.1644984"
         ry="3.1993458"
         y="975.6991"
         x="31.310961"
         height="60.220558"
         width="0.96817279"
         id="rect4672-0-1-9-8-4-7"
         style="fill:#000000;stroke:#ffffff;stroke-width:3.94040084;stroke-miterlimit:4;stroke-opacity:1;stroke-dasharray:none" />
      <rect
         inkscape:transform-center-y="2.1645352"
         ry="3.1993458"
         y="975.52484"
         x="58.502491"
         height="60.220558"
         width="0.96817279"
         id="rect4672-0-1-9-8-4-7-5"
         style="fill:#000000;stroke:#ffffff;stroke-width:3.94040084;stroke-miterlimit:4;stroke-opacity:1;stroke-dasharray:none" />
      <rect
         inkscape:transform-center-x="1.3020167"
         transform="matrix(0.79883679,0.60154782,-0.60154782,0.79883679,0,0)"
         inkscape:transform-center-y="1.7291068"
         ry="3.1993458"
         y="743.78564"
         x="638.92261"
         height="60.220558"
         width="0.96817279"
         id="rect4672-0-1-9-8-4-7-5-8"
         style="fill:#000000;stroke:#ffffff;stroke-width:3.94040084;stroke-miterlimit:4;stroke-opacity:1;stroke-dasharray:none" />
      <rect
         inkscape:transform-center-x="1.287584"
         transform="matrix(-0.80383051,0.5948584,-0.5948584,-0.80383051,0,0)"
         inkscape:transform-center-y="-1.7398709"
         ry="3.1993458"
         y="-864.69446"
         x="559.31427"
         height="60.220558"
         width="0.96817279"
         id="rect4672-0-1-9-8-4-7-5-8-9"
         style="fill:#000000;stroke:#ffffff;stroke-width:3.94040084;stroke-miterlimit:4;stroke-opacity:1;stroke-dasharray:none" />
    </g>
  </g>
</svg>
