<?xml version="1.0" encoding="UTF-8" standalone="no"?>
<!-- Created with Inkscape (http://www.inkscape.org/) -->

<svg
   xmlns:dc="http://purl.org/dc/elements/1.1/"
   xmlns:cc="http://creativecommons.org/ns#"
   xmlns:rdf="http://www.w3.org/1999/02/22-rdf-syntax-ns#"
   xmlns:svg="http://www.w3.org/2000/svg"
   xmlns="http://www.w3.org/2000/svg"
   xmlns:sodipodi="http://sodipodi.sourceforge.net/DTD/sodipodi-0.dtd"
   xmlns:inkscape="http://www.inkscape.org/namespaces/inkscape"
   width="91"
   height="91"
   id="svg6058"
   version="1.1"
   inkscape:version="0.48.4 r9939"
   sodipodi:docname="dirigente.svg">
  <defs
     id="defs6060">
    <clipPath
       clipPathUnits="userSpaceOnUse"
       id="clipPath5199">
      <path
         inkscape:connector-curvature="0"
         d="m 354.553,125.072 70.866,0 0,70.867 -70.866,0 0,-70.867 z"
         id="path5201" />
    </clipPath>
    <clipPath
       clipPathUnits="userSpaceOnUse"
       id="clipPath5622">
      <path
         inkscape:connector-curvature="0"
         d="m 331.876,361.672 70.866,0 0,70.867 -70.866,0 0,-70.867 z"
         id="path5624" />
    </clipPath>
    <clipPath
       clipPathUnits="userSpaceOnUse"
       id="clipPath5590">
      <path
         inkscape:connector-curvature="0"
         d="m 331.876,440.539 70.866,0 0,70.866 -70.866,0 0,-70.866 z"
         id="path5592" />
    </clipPath>
  </defs>
  <sodipodi:namedview
     id="base"
     pagecolor="#ffffff"
     bordercolor="#666666"
     borderopacity="1.0"
     inkscape:pageopacity="0.0"
     inkscape:pageshadow="2"
     inkscape:zoom="1.4"
     inkscape:cx="-38.177334"
     inkscape:cy="62.165378"
     inkscape:document-units="px"
     inkscape:current-layer="layer1"
     showgrid="false"
     inkscape:window-width="745"
     inkscape:window-height="597"
     inkscape:window-x="110"
     inkscape:window-y="110"
     inkscape:window-maximized="0" />
  <metadata
     id="metadata6063">
    <rdf:RDF>
      <cc:Work
         rdf:about="">
        <dc:format>image/svg+xml</dc:format>
        <dc:type
           rdf:resource="http://purl.org/dc/dcmitype/StillImage" />
        <dc:title></dc:title>
      </cc:Work>
    </rdf:RDF>
  </metadata>
  <g
     inkscape:label="Capa 1"
     inkscape:groupmode="layer"
     id="layer1"
     transform="translate(0,-961.36218)">
    <g
       transform="matrix(1.2700043,0,0,-1.2700043,-420.98407,1611.3487)"
       id="g5586">
      <g
         id="g5588"
         clip-path="url(#clipPath5590)">
        <g
           id="g5594"
           transform="translate(402.7421,475.9719)">
          <path
             inkscape:connector-curvature="0"
             d="m 0,0 c 0,-19.569 -15.863,-35.433 -35.434,-35.433 -19.568,0 -35.432,15.864 -35.432,35.433 0,19.569 15.864,35.434 35.432,35.434 C -15.863,35.434 0,19.569 0,0"
             style="fill:#2991cf;fill-opacity:1;fill-rule:nonzero;stroke:none"
             id="path5596" />
        </g>
        <g
           id="g5598"
           transform="translate(399.1952,475.9719)">
          <path
             inkscape:connector-curvature="0"
             d="m 0,0 c 0,-17.61 -14.275,-31.886 -31.887,-31.886 -17.609,0 -31.885,14.276 -31.885,31.886 0,17.61 14.276,31.887 31.885,31.887 C -14.275,31.887 0,17.61 0,0 z"
             style="fill:none;stroke:#ffffff;stroke-width:0.949;stroke-linecap:butt;stroke-linejoin:miter;stroke-miterlimit:10;stroke-opacity:1;stroke-dasharray:none"
             id="path5600" />
        </g>
        <g
           id="g5602"
           transform="translate(368.2997,488.469)">
          <path
             inkscape:connector-curvature="0"
             d="m 0,0 -6.583,0 -1.865,0 -5.99,0 0,-3.731 5.99,0 1.865,0 0.256,0 c -1.32,-3.127 -2.974,-8.533 -2.15,-14.717 0.397,-2.981 -0.482,-5.277 -2.412,-6.302 -1.565,-0.83 -3.504,-0.653 -4.719,0.428 -1.431,1.276 -1.608,3.654 -0.486,6.527 0.375,0.959 -0.099,2.041 -1.059,2.416 -0.953,0.374 -2.039,-0.097 -2.415,-1.059 -2.448,-6.26 0.219,-9.547 1.479,-10.669 1.407,-1.255 3.231,-1.9 5.098,-1.9 1.305,0 2.632,0.316 3.851,0.962 3.336,1.77 4.967,5.542 4.36,10.09 -1.092,8.194 3,15.05 3.04,15.115 L 0,0 z"
             style="fill:#ffffff;fill-opacity:1;fill-rule:nonzero;stroke:none"
             id="path5604" />
        </g>
        <g
           id="g5606"
           transform="translate(374.6591,472.6443)">
          <path
             inkscape:connector-curvature="0"
             d="M 0,0 C -0.047,-1.029 0.75,-1.9 1.779,-1.947 L 6.028,-2.141 6.024,-8.242 c -2.073,-1.257 -4.226,-1.281 -6.143,-0.042 -2.782,1.795 -5.128,6.578 -3.704,12.835 1.475,6.482 5.086,7.094 9.302,7.617 l 0.219,-2.091 6.528,4.738 -7.372,3.283 0.234,-2.219 C 0.587,15.321 -5.407,14.408 -7.459,5.378 c -1.588,-6.97 0.549,-13.72 5.317,-16.797 1.557,-1.005 3.26,-1.504 4.984,-1.504 2.101,0 4.234,0.741 6.174,2.211 L 9.753,-10.153 9.761,1.426 1.947,1.778 C 0.873,1.821 0.046,1.028 0,0"
             style="fill:#ffffff;fill-opacity:1;fill-rule:nonzero;stroke:none"
             id="path5608" />
        </g>
        <g
           id="g5610"
           transform="translate(368.1752,490.592)">
          <path
             inkscape:connector-curvature="0"
             d="M 0,0 C 1.626,0 2.944,1.32 2.944,2.946 2.944,4.572 1.626,5.891 0,5.891 -1.628,5.891 -2.946,4.572 -2.946,2.946 -2.946,1.32 -1.628,0 0,0"
             style="fill:#ffffff;fill-opacity:1;fill-rule:nonzero;stroke:none"
             id="path5612" />
        </g>
      </g>
    </g>
  </g>
</svg>
