<?xml version="1.0" encoding="UTF-8" standalone="no"?>
<!-- Created with Inkscape (http://www.inkscape.org/) -->

<svg
   xmlns:dc="http://purl.org/dc/elements/1.1/"
   xmlns:cc="http://creativecommons.org/ns#"
   xmlns:rdf="http://www.w3.org/1999/02/22-rdf-syntax-ns#"
   xmlns:svg="http://www.w3.org/2000/svg"
   xmlns="http://www.w3.org/2000/svg"
   xmlns:sodipodi="http://sodipodi.sourceforge.net/DTD/sodipodi-0.dtd"
   xmlns:inkscape="http://www.inkscape.org/namespaces/inkscape"
   width="91"
   height="91"
   id="svg6058"
   version="1.1"
   inkscape:version="0.48.4 r9939"
   sodipodi:docname="ap.svg">
  <defs
     id="defs6060">
    <clipPath
       clipPathUnits="userSpaceOnUse"
       id="clipPath5199">
      <path
         inkscape:connector-curvature="0"
         d="m 354.553,125.072 70.866,0 0,70.867 -70.866,0 0,-70.867 z"
         id="path5201" />
    </clipPath>
    <clipPath
       clipPathUnits="userSpaceOnUse"
       id="clipPath5622">
      <path
         inkscape:connector-curvature="0"
         d="m 331.876,361.672 70.866,0 0,70.867 -70.866,0 0,-70.867 z"
         id="path5624" />
    </clipPath>
    <clipPath
       clipPathUnits="userSpaceOnUse"
       id="clipPath5590">
      <path
         inkscape:connector-curvature="0"
         d="m 331.876,440.539 70.866,0 0,70.866 -70.866,0 0,-70.866 z"
         id="path5592" />
    </clipPath>
    <clipPath
       clipPathUnits="userSpaceOnUse"
       id="clipPath5223">
      <path
         inkscape:connector-curvature="0"
         d="m 354.553,46.205 70.866,0 0,70.867 -70.866,0 0,-70.867 z"
         id="path5225" />
    </clipPath>
    <clipPath
       clipPathUnits="userSpaceOnUse"
       id="clipPath4536">
      <path
         inkscape:connector-curvature="0"
         d="m 335.419,202.684 63.779,0 0,63.78 -63.779,0 0,-63.78 z"
         id="path4538" />
    </clipPath>
    <clipPath
       clipPathUnits="userSpaceOnUse"
       id="clipPath4582">
      <path
         inkscape:connector-curvature="0"
         d="m 331.876,80.086 70.866,0 0,70.866 -70.866,0 0,-70.866 z"
         id="path4584" />
    </clipPath>
    <clipPath
       clipPathUnits="userSpaceOnUse"
       id="clipPath4594">
      <path
         inkscape:connector-curvature="0"
         d="m 331.876,87.172 63.779,0 0,63.779 -63.779,0 0,-63.779 z"
         id="path4596" />
    </clipPath>
    <clipPath
       clipPathUnits="userSpaceOnUse"
       id="clipPath4606">
      <path
         inkscape:connector-curvature="0"
         d="m 331.876,80.086 70.866,0 0,70.866 -70.866,0 0,-70.866 z"
         id="path4608" />
    </clipPath>
    <clipPath
       clipPathUnits="userSpaceOnUse"
       id="clipPath5664">
      <path
         inkscape:connector-curvature="0"
         d="m 331.876,254.208 70.866,0 0,70.866 -70.866,0 0,-70.866 z"
         id="path5666" />
    </clipPath>
    <clipPath
       clipPathUnits="userSpaceOnUse"
       id="clipPath3431">
      <path
         inkscape:connector-curvature="0"
         d="m 358.096,346.049 63.779,0 0,63.78 -63.779,0 0,-63.78 z"
         id="path3433" />
    </clipPath>
    <clipPath
       clipPathUnits="userSpaceOnUse"
       id="clipPath3365">
      <path
         inkscape:connector-curvature="0"
         d="m 358.096,440.995 63.779,0 0,63.78 -63.779,0 0,-63.78 z"
         id="path3367" />
    </clipPath>
  </defs>
  <sodipodi:namedview
     id="base"
     pagecolor="#ffffff"
     bordercolor="#666666"
     borderopacity="1.0"
     inkscape:pageopacity="0.0"
     inkscape:pageshadow="2"
     inkscape:zoom="1.4"
     inkscape:cx="-38.177334"
     inkscape:cy="62.165378"
     inkscape:document-units="px"
     inkscape:current-layer="layer1"
     showgrid="false"
     inkscape:window-width="745"
     inkscape:window-height="597"
     inkscape:window-x="110"
     inkscape:window-y="110"
     inkscape:window-maximized="0" />
  <metadata
     id="metadata6063">
    <rdf:RDF>
      <cc:Work
         rdf:about="">
        <dc:format>image/svg+xml</dc:format>
        <dc:type
           rdf:resource="http://purl.org/dc/dcmitype/StillImage" />
        <dc:title></dc:title>
      </cc:Work>
    </rdf:RDF>
  </metadata>
  <g
     inkscape:label="Capa 1"
     inkscape:groupmode="layer"
     id="layer1"
     transform="translate(0,-961.36218)">
    <g
       id="g3361"
       transform="matrix(1.4111228,0,0,-1.4111228,-504.81743,1674.1614)">
      <g
         id="g3363"
         clip-path="url(#clipPath3365)">
        <g
           id="g3369"
           transform="translate(421.8759,472.8856)">
          <path
             d="m 0,0 c 0,-17.612 -14.277,-31.89 -31.89,-31.89 -17.612,0 -31.89,14.278 -31.89,31.89 0,17.612 14.278,31.89 31.89,31.89 C -14.277,31.89 0,17.612 0,0"
             style="fill:#00a79d;fill-opacity:1;fill-rule:nonzero;stroke:none"
             id="path3371"
             inkscape:connector-curvature="0" />
        </g>
        <g
           id="g3373"
           transform="translate(418.6837,472.8856)">
          <path
             d="m 0,0 c 0,-15.849 -12.848,-28.698 -28.698,-28.698 -15.849,0 -28.697,12.849 -28.697,28.698 0,15.849 12.848,28.698 28.697,28.698 C -12.848,28.698 0,15.849 0,0 z"
             style="fill:none;stroke:#ffffff;stroke-width:0.85399997;stroke-linecap:butt;stroke-linejoin:miter;stroke-miterlimit:10;stroke-opacity:1;stroke-dasharray:none"
             id="path3375"
             inkscape:connector-curvature="0" />
        </g>
        <g
           id="g3377"
           transform="translate(390.9499,475.819)">
          <path
             d="m 0,0 c -9.062,0 -15.198,3.691 -15.567,3.918 -0.721,0.444 -0.944,1.387 -0.501,2.107 0.445,0.718 1.385,0.942 2.104,0.502 0.121,-0.076 12.09,-7.2 26.866,-0.661 0.774,0.342 1.677,-0.007 2.02,-0.781 C 15.263,4.312 14.913,3.408 14.142,3.066 8.993,0.788 4.184,0 0,0"
             style="fill:#ffffff;fill-opacity:1;fill-rule:nonzero;stroke:none"
             id="path3379"
             inkscape:connector-curvature="0" />
        </g>
        <g
           id="g3381"
           transform="translate(395.7522,455.3123)">
          <path
             d="m 0,0 c -1.065,0 -2.231,0.157 -3.493,0.469 -0.821,0.202 -1.322,1.032 -1.118,1.853 0.202,0.821 1.025,1.326 1.855,1.118 2.854,-0.707 4.895,-0.413 6.064,0.872 3.24,3.563 0.579,13.932 -0.72,17.626 -0.282,0.798 0.138,1.671 0.935,1.952 0.794,0.281 1.67,-0.138 1.953,-0.935 C 6.015,21.421 10.612,7.799 5.576,2.254 4.212,0.754 2.345,0 0,0"
             style="fill:#ffffff;fill-opacity:1;fill-rule:nonzero;stroke:none"
             id="path3383"
             inkscape:connector-curvature="0" />
        </g>
        <g
           id="g3385"
           transform="translate(396.8561,462.1115)">
          <path
             d="m 0,0 -3.05,0.274 c 0.296,2.658 0.833,7.485 0.401,12.092 l 3.048,0.285 C 0.861,7.733 0.301,2.702 0,0"
             style="fill:#ffffff;fill-opacity:1;fill-rule:nonzero;stroke:none"
             id="path3387"
             inkscape:connector-curvature="0" />
        </g>
        <g
           id="g3389"
           transform="translate(386.2583,462.4508)">
          <path
             d="m 0,0 c -0.246,0 -0.497,0.06 -0.729,0.186 -0.744,0.405 -1.018,1.333 -0.614,2.076 0.673,1.24 1.079,2.612 1.174,3.971 0.06,0.842 0.8,1.473 1.635,1.419 C 2.31,7.592 2.944,6.861 2.885,6.017 2.76,4.226 2.227,2.422 1.346,0.802 1.069,0.29 0.543,0 0,0"
             style="fill:#ffffff;fill-opacity:1;fill-rule:nonzero;stroke:none"
             id="path3391"
             inkscape:connector-curvature="0" />
        </g>
        <g
           id="g3393"
           transform="translate(389.1429,468.4554)">
          <path
             d="m 0,0 -3.052,0.241 c 0.155,1.976 0.169,3.867 0.178,5.118 0.003,0.482 0.007,0.857 0.016,1.09 L 0.2,6.325 C 0.192,6.113 0.19,5.774 0.188,5.338 0.178,4.122 0.163,2.087 0,0"
             style="fill:#ffffff;fill-opacity:1;fill-rule:nonzero;stroke:none"
             id="path3395"
             inkscape:connector-curvature="0" />
        </g>
        <g
           id="g3397"
           transform="translate(380.5805,456.2387)">
          <path
             d="m 0,0 -3.062,0 c 0,8.234 1.898,13.941 3.153,17.717 0.275,0.826 0.515,1.547 0.689,2.168 L 3.728,19.063 C 3.544,18.4 3.289,17.63 2.997,16.75 1.803,13.163 0,7.738 0,0"
             style="fill:#ffffff;fill-opacity:1;fill-rule:nonzero;stroke:none"
             id="path3399"
             inkscape:connector-curvature="0" />
        </g>
        <g
           id="g3401"
           transform="translate(386.0878,488.803)">
          <path
             d="m 0,0 c -2.166,0 -3.92,-1.406 -3.92,-3.141 0,-1.164 0.796,-2.168 1.969,-2.709 0.334,-0.914 -0.06,-1.74 -0.06,-1.74 0,0 1.637,0.012 1.993,1.308 l 0.018,0 c 2.164,0 3.92,1.406 3.92,3.141 C 3.92,-1.406 2.164,0 0,0"
             style="fill:#ffffff;fill-opacity:1;fill-rule:nonzero;stroke:none"
             id="path3403"
             inkscape:connector-curvature="0" />
        </g>
        <g
           id="g3405"
           transform="translate(395.3901,488.8909)">
          <path
             d="m 0,0 c 2.231,0 4.039,-1.45 4.039,-3.236 0,-1.201 -0.822,-2.234 -2.03,-2.793 -0.534,-0.786 -0.104,-1.792 -0.104,-1.792 0,0 -1.518,0.011 -1.886,1.349 -0.007,0 -0.014,-0.004 -0.019,-0.004 -2.231,0 -4.039,1.45 -4.039,3.24 C -4.039,-1.45 -2.231,0 0,0"
             style="fill:#ffffff;fill-opacity:1;fill-rule:nonzero;stroke:none"
             id="path3407"
             inkscape:connector-curvature="0" />
        </g>
      </g>
    </g>
  </g>
</svg>
