<?xml version="1.0" encoding="UTF-8" standalone="no"?>
<!-- Created with Inkscape (http://www.inkscape.org/) -->

<svg
   xmlns:dc="http://purl.org/dc/elements/1.1/"
   xmlns:cc="http://creativecommons.org/ns#"
   xmlns:rdf="http://www.w3.org/1999/02/22-rdf-syntax-ns#"
   xmlns:svg="http://www.w3.org/2000/svg"
   xmlns="http://www.w3.org/2000/svg"
   xmlns:sodipodi="http://sodipodi.sourceforge.net/DTD/sodipodi-0.dtd"
   xmlns:inkscape="http://www.inkscape.org/namespaces/inkscape"
   width="91"
   height="91"
   id="svg6058"
   version="1.1"
   inkscape:version="0.91 r13725"
   sodipodi:docname="Musulmanes.svg">
  <defs
     id="defs6060">
    <clipPath
       clipPathUnits="userSpaceOnUse"
       id="clipPath5199">
      <path
         inkscape:connector-curvature="0"
         d="m 354.553,125.072 70.866,0 0,70.867 -70.866,0 0,-70.867 z"
         id="path5201" />
    </clipPath>
    <clipPath
       clipPathUnits="userSpaceOnUse"
       id="clipPath5622">
      <path
         inkscape:connector-curvature="0"
         d="m 331.876,361.672 70.866,0 0,70.867 -70.866,0 0,-70.867 z"
         id="path5624" />
    </clipPath>
    <clipPath
       clipPathUnits="userSpaceOnUse"
       id="clipPath5590">
      <path
         inkscape:connector-curvature="0"
         d="m 331.876,440.539 70.866,0 0,70.866 -70.866,0 0,-70.866 z"
         id="path5592" />
    </clipPath>
    <clipPath
       clipPathUnits="userSpaceOnUse"
       id="clipPath5223">
      <path
         inkscape:connector-curvature="0"
         d="m 354.553,46.205 70.866,0 0,70.867 -70.866,0 0,-70.867 z"
         id="path5225" />
    </clipPath>
    <clipPath
       clipPathUnits="userSpaceOnUse"
       id="clipPath4536">
      <path
         inkscape:connector-curvature="0"
         d="m 335.419,202.684 63.779,0 0,63.78 -63.779,0 0,-63.78 z"
         id="path4538" />
    </clipPath>
    <clipPath
       clipPathUnits="userSpaceOnUse"
       id="clipPath4582">
      <path
         inkscape:connector-curvature="0"
         d="m 331.876,80.086 70.866,0 0,70.866 -70.866,0 0,-70.866 z"
         id="path4584" />
    </clipPath>
    <clipPath
       clipPathUnits="userSpaceOnUse"
       id="clipPath4594">
      <path
         inkscape:connector-curvature="0"
         d="m 331.876,87.172 63.779,0 0,63.779 -63.779,0 0,-63.779 z"
         id="path4596" />
    </clipPath>
    <clipPath
       clipPathUnits="userSpaceOnUse"
       id="clipPath4606">
      <path
         inkscape:connector-curvature="0"
         d="m 331.876,80.086 70.866,0 0,70.866 -70.866,0 0,-70.866 z"
         id="path4608" />
    </clipPath>
    <clipPath
       clipPathUnits="userSpaceOnUse"
       id="clipPath5664">
      <path
         inkscape:connector-curvature="0"
         d="m 331.876,254.208 70.866,0 0,70.866 -70.866,0 0,-70.866 z"
         id="path5666" />
    </clipPath>
    <clipPath
       clipPathUnits="userSpaceOnUse"
       id="clipPath3431">
      <path
         inkscape:connector-curvature="0"
         d="m 358.096,346.049 63.779,0 0,63.78 -63.779,0 0,-63.78 z"
         id="path3433" />
    </clipPath>
    <clipPath
       clipPathUnits="userSpaceOnUse"
       id="clipPath4934">
      <path
         d="m 355.953,179.918 68.258,0 0,68.259 -68.258,0 0,-68.259 z"
         id="path4936"
         inkscape:connector-curvature="0" />
    </clipPath>
    <clipPath
       clipPathUnits="userSpaceOnUse"
       id="clipPath4636">
      <path
         d="m 358.096,257.732 63.779,0 0,63.779 -63.779,0 0,-63.779 z"
         id="path4638"
         inkscape:connector-curvature="0" />
    </clipPath>
    <clipPath
       clipPathUnits="userSpaceOnUse"
       id="clipPath6598">
      <path
         d="m 335.419,450.165 63.779,0 0,61.241 -63.779,0 0,-61.241 z"
         id="path6600"
         inkscape:connector-curvature="0" />
    </clipPath>
    <clipPath
       clipPathUnits="userSpaceOnUse"
       id="clipPath6582">
      <path
         d="m 337.959,450.165 61.24,0 0,61.241 -61.24,0 0,-61.241 z"
         id="path6584"
         inkscape:connector-curvature="0" />
    </clipPath>
  </defs>
  <sodipodi:namedview
     id="base"
     pagecolor="#ffffff"
     bordercolor="#666666"
     borderopacity="1.0"
     inkscape:pageopacity="0.0"
     inkscape:pageshadow="2"
     inkscape:zoom="1.4"
     inkscape:cx="-361.74876"
     inkscape:cy="67.220965"
     inkscape:document-units="px"
     inkscape:current-layer="layer1"
     showgrid="false"
     inkscape:window-width="1920"
     inkscape:window-height="996"
     inkscape:window-x="-8"
     inkscape:window-y="-8"
     inkscape:window-maximized="1" />
  <metadata
     id="metadata6063">
    <rdf:RDF>
      <cc:Work
         rdf:about="">
        <dc:format>image/svg+xml</dc:format>
        <dc:type
           rdf:resource="http://purl.org/dc/dcmitype/StillImage" />
        <dc:title />
      </cc:Work>
    </rdf:RDF>
  </metadata>
  <g
     inkscape:label="Capa 1"
     inkscape:groupmode="layer"
     id="layer1"
     transform="translate(0,-961.36218)">
    <g
       transform="matrix(1.25,0,0,-1.25,-415.2235,1607.8434)"
       id="g6578">
      <g
         id="g6580"
         clip-path="url(#clipPath6582)">
        <g
           id="g6586"
           transform="translate(398.7726,480.785)">
          <path
             d="m 0,0 c 0,-16.675 -13.518,-30.194 -30.194,-30.194 -16.675,0 -30.194,13.519 -30.194,30.194 0,16.676 13.519,30.194 30.194,30.194 C -13.518,30.194 0,16.676 0,0 Z"
             style="fill:none;stroke:#000000;stroke-width:0.852;stroke-linecap:butt;stroke-linejoin:miter;stroke-miterlimit:10;stroke-dasharray:none;stroke-opacity:1"
             id="path6588"
             inkscape:connector-curvature="0" />
        </g>
        <g
           id="g6590"
           transform="translate(395.7502,480.785)">
          <path
             d="m 0,0 c 0,-15.006 -12.165,-27.172 -27.172,-27.172 -15.006,0 -27.171,12.166 -27.171,27.172 0,15.007 12.165,27.172 27.171,27.172 C -12.165,27.172 0,15.007 0,0 Z"
             style="fill:none;stroke:#000000;stroke-width:0.852;stroke-linecap:butt;stroke-linejoin:miter;stroke-miterlimit:10;stroke-dasharray:none;stroke-opacity:1"
             id="path6592"
             inkscape:connector-curvature="0" />
        </g>
      </g>
    </g>
    <g
       transform="matrix(1.25,0,0,-1.25,-415.22312,1607.8435)"
       id="g6594">
      <g
         id="g6596"
         clip-path="url(#clipPath6598)">
        <g
           id="g6602"
           transform="translate(373.1269,500.2345)">
          <path
             d="m 0,0 c 0.606,0 1.189,-0.096 1.736,-0.272 -5.042,0.443 -6.709,-4.718 -4.031,-7.557 1.61,-1.927 7.958,-2.464 7.546,4.265 0.257,-0.645 0.398,-1.349 0.398,-2.085 0,-3.118 -2.53,-5.648 -5.649,-5.648 -3.119,0 -5.648,2.53 -5.648,5.648 C -5.648,-2.529 -3.119,0 0,0"
             style="fill:#000000;fill-opacity:1;fill-rule:evenodd;stroke:none"
             id="path6604"
             inkscape:connector-curvature="0" />
        </g>
        <g
           id="g6606"
           transform="translate(359.5492,500.9401)">
          <path
             d="m 0,0 c 0.181,0 0.356,-0.028 0.52,-0.081 -1.51,0.133 -2.009,-1.412 -1.208,-2.263 0.483,-0.576 2.384,-0.738 2.26,1.277 0.077,-0.193 0.119,-0.404 0.119,-0.625 0,-0.933 -0.757,-1.69 -1.691,-1.69 -0.934,0 -1.691,0.757 -1.691,1.69 C -1.691,-0.757 -0.934,0 0,0"
             style="fill:#000000;fill-opacity:1;fill-rule:evenodd;stroke:none"
             id="path6608"
             inkscape:connector-curvature="0" />
        </g>
        <g
           id="g6610"
           transform="translate(359.501,495.8257)">
          <path
             d="M 0,0 C 0.494,0 0.897,0.403 0.897,0.898 0.897,1.392 0.494,1.795 0,1.795 -0.495,1.795 -0.898,1.392 -0.898,0.898 -0.898,0.403 -0.495,0 0,0"
             style="fill:#000000;fill-opacity:1;fill-rule:evenodd;stroke:none"
             id="path6612"
             inkscape:connector-curvature="0" />
        </g>
        <g
           id="g6614"
           transform="translate(359.5517,493.4211)">
          <path
             d="M 0,0 C 0.69,0 1.253,0.563 1.253,1.253 1.253,1.943 0.69,2.506 0,2.506 -0.69,2.506 -1.254,1.943 -1.254,1.253 -1.254,0.563 -0.69,0 0,0"
             style="fill:#000000;fill-opacity:1;fill-rule:evenodd;stroke:none"
             id="path6616"
             inkscape:connector-curvature="0" />
        </g>
        <g
           id="g6618"
           transform="translate(372.9113,483.4792)">
          <path
             d="m 0,0 c 0.181,0 0.356,-0.028 0.519,-0.081 -1.509,0.133 -2.008,-1.412 -1.207,-2.263 0.483,-0.576 2.384,-0.737 2.261,1.277 0.076,-0.193 0.118,-0.403 0.118,-0.624 0,-0.934 -0.756,-1.69 -1.691,-1.69 -0.935,0 -1.692,0.756 -1.692,1.69 C -1.692,-0.757 -0.935,0 0,0"
             style="fill:#000000;fill-opacity:1;fill-rule:evenodd;stroke:none"
             id="path6620"
             inkscape:connector-curvature="0" />
        </g>
        <g
           id="g6622"
           transform="translate(372.8623,478.3655)">
          <path
             d="M 0,0 C 0.495,0 0.898,0.404 0.898,0.897 0.898,1.391 0.495,1.795 0,1.795 -0.493,1.795 -0.897,1.391 -0.897,0.897 -0.897,0.404 -0.493,0 0,0"
             style="fill:#000000;fill-opacity:1;fill-rule:evenodd;stroke:none"
             id="path6624"
             inkscape:connector-curvature="0" />
        </g>
        <g
           id="g6626"
           transform="translate(372.9138,475.9597)">
          <path
             d="M 0,0 C 0.69,0 1.252,0.563 1.252,1.253 1.252,1.944 0.69,2.507 0,2.507 -0.691,2.507 -1.253,1.944 -1.253,1.253 -1.253,0.563 -0.691,0 0,0"
             style="fill:#000000;fill-opacity:1;fill-rule:evenodd;stroke:none"
             id="path6628"
             inkscape:connector-curvature="0" />
        </g>
        <path
           d="m 371.916,471.25 0.33,0 0,-1.406 -0.33,0 0,1.406 z m 0.008,-2.948 0.33,0 0,-4.064 -0.33,0 0,4.064 z m -0.025,1.474 0,-1.397 -2.184,-1.067 0.026,0.814 2.158,1.65 z m 0.406,-1.372 -0.025,1.398 4.701,-1.525 -0.002,-0.939 -4.674,1.066 z m -0.278,-4.317 -2.582,0.428 0.133,4.35 2.418,2.544 5.055,-2.196 0.165,-4.698 -5.189,-0.428 z m -6.271,-2.14 0,6.086 c 1.066,2.324 3.436,4.391 7.181,6.147 2.852,-1.468 5.78,-2.951 7.152,-6.147 l 0,-5.891 -14.333,0 0,-0.195 z m -5.155,23.65 -1.083,-1.103 -1.051,1.103 0,4.471 1.051,1.016 1.083,-1.016 0,-4.471 z m 0.644,-4.961 0,-3.27 -1.727,-1.91 -1.762,1.91 0,3.27 1.762,1.75 1.727,-1.75 z m 20.323,-20.006 0,1.514 0,5.889 c -0.358,2.788 -3.19,5.419 -8.661,7.882 -4.148,-1.748 -7.57,-4.022 -8.795,-7.882 l 0,-5.889 -1.817,0 0,10.837 -1.694,1.439 2.473,2.37 0,4.37 -2.473,2.269 1.694,1.558 0,3.673 c 0.283,0.513 0.711,0.846 1.239,1.054 l -4.051,3.944 -3.894,-3.895 c 0.59,-0.332 1.061,-0.714 1.286,-1.199 l 0,-3.577 1.592,-1.558 -2.404,-2.269 0,-4.37 2.404,-2.381 -1.592,-1.403 0,-12.376 1.592,0 0,11.646 1.051,0.974 1.083,-1.128 0,-11.492 20.967,0 z"
           style="fill:#000000;fill-opacity:1;fill-rule:evenodd;stroke:none"
           id="path6630"
           inkscape:connector-curvature="0" />
      </g>
    </g>
  </g>
</svg>
