<?xml version="1.0" encoding="UTF-8" standalone="no"?>
<!-- Created with Inkscape (http://www.inkscape.org/) -->

<svg
   xmlns:dc="http://purl.org/dc/elements/1.1/"
   xmlns:cc="http://creativecommons.org/ns#"
   xmlns:rdf="http://www.w3.org/1999/02/22-rdf-syntax-ns#"
   xmlns:svg="http://www.w3.org/2000/svg"
   xmlns="http://www.w3.org/2000/svg"
   xmlns:sodipodi="http://sodipodi.sourceforge.net/DTD/sodipodi-0.dtd"
   xmlns:inkscape="http://www.inkscape.org/namespaces/inkscape"
   width="91"
   height="91"
   id="svg6058"
   version="1.1"
   inkscape:version="0.48.4 r9939"
   sodipodi:docname="EyS.svg">
  <defs
     id="defs6060">
    <clipPath
       clipPathUnits="userSpaceOnUse"
       id="clipPath5199">
      <path
         inkscape:connector-curvature="0"
         d="m 354.553,125.072 70.866,0 0,70.867 -70.866,0 0,-70.867 z"
         id="path5201" />
    </clipPath>
    <clipPath
       clipPathUnits="userSpaceOnUse"
       id="clipPath5622">
      <path
         inkscape:connector-curvature="0"
         d="m 331.876,361.672 70.866,0 0,70.867 -70.866,0 0,-70.867 z"
         id="path5624" />
    </clipPath>
    <clipPath
       clipPathUnits="userSpaceOnUse"
       id="clipPath5590">
      <path
         inkscape:connector-curvature="0"
         d="m 331.876,440.539 70.866,0 0,70.866 -70.866,0 0,-70.866 z"
         id="path5592" />
    </clipPath>
    <clipPath
       clipPathUnits="userSpaceOnUse"
       id="clipPath5223">
      <path
         inkscape:connector-curvature="0"
         d="m 354.553,46.205 70.866,0 0,70.867 -70.866,0 0,-70.867 z"
         id="path5225" />
    </clipPath>
    <clipPath
       clipPathUnits="userSpaceOnUse"
       id="clipPath4536">
      <path
         inkscape:connector-curvature="0"
         d="m 335.419,202.684 63.779,0 0,63.78 -63.779,0 0,-63.78 z"
         id="path4538" />
    </clipPath>
    <clipPath
       clipPathUnits="userSpaceOnUse"
       id="clipPath4582">
      <path
         inkscape:connector-curvature="0"
         d="m 331.876,80.086 70.866,0 0,70.866 -70.866,0 0,-70.866 z"
         id="path4584" />
    </clipPath>
    <clipPath
       clipPathUnits="userSpaceOnUse"
       id="clipPath4594">
      <path
         inkscape:connector-curvature="0"
         d="m 331.876,87.172 63.779,0 0,63.779 -63.779,0 0,-63.779 z"
         id="path4596" />
    </clipPath>
    <clipPath
       clipPathUnits="userSpaceOnUse"
       id="clipPath4606">
      <path
         inkscape:connector-curvature="0"
         d="m 331.876,80.086 70.866,0 0,70.866 -70.866,0 0,-70.866 z"
         id="path4608" />
    </clipPath>
    <clipPath
       clipPathUnits="userSpaceOnUse"
       id="clipPath5664">
      <path
         inkscape:connector-curvature="0"
         d="m 331.876,254.208 70.866,0 0,70.866 -70.866,0 0,-70.866 z"
         id="path5666" />
    </clipPath>
    <clipPath
       clipPathUnits="userSpaceOnUse"
       id="clipPath3431">
      <path
         inkscape:connector-curvature="0"
         d="m 358.096,346.049 63.779,0 0,63.78 -63.779,0 0,-63.78 z"
         id="path3433" />
    </clipPath>
  </defs>
  <sodipodi:namedview
     id="base"
     pagecolor="#ffffff"
     bordercolor="#666666"
     borderopacity="1.0"
     inkscape:pageopacity="0.0"
     inkscape:pageshadow="2"
     inkscape:zoom="1.4"
     inkscape:cx="-38.177334"
     inkscape:cy="62.165378"
     inkscape:document-units="px"
     inkscape:current-layer="layer1"
     showgrid="false"
     inkscape:window-width="745"
     inkscape:window-height="597"
     inkscape:window-x="110"
     inkscape:window-y="110"
     inkscape:window-maximized="0" />
  <metadata
     id="metadata6063">
    <rdf:RDF>
      <cc:Work
         rdf:about="">
        <dc:format>image/svg+xml</dc:format>
        <dc:type
           rdf:resource="http://purl.org/dc/dcmitype/StillImage" />
        <dc:title></dc:title>
      </cc:Work>
    </rdf:RDF>
  </metadata>
  <g
     inkscape:label="Capa 1"
     inkscape:groupmode="layer"
     id="layer1"
     transform="translate(0,-961.36218)">
    <g
       id="g3427"
       transform="matrix(1.4111228,0,0,-1.4111228,-504.81743,1540.1804)">
      <g
         id="g3429"
         clip-path="url(#clipPath3431)">
        <g
           id="g3435"
           transform="translate(421.8759,377.9388)">
          <path
             d="m 0,0 c 0,-17.612 -14.277,-31.89 -31.89,-31.89 -17.612,0 -31.89,14.278 -31.89,31.89 0,17.612 14.278,31.89 31.89,31.89 C -14.277,31.89 0,17.612 0,0"
             style="fill:#adab48;fill-opacity:1;fill-rule:nonzero;stroke:none"
             id="path3437"
             inkscape:connector-curvature="0" />
        </g>
        <g
           id="g3439"
           transform="translate(418.6837,377.9388)">
          <path
             d="m 0,0 c 0,-15.849 -12.848,-28.698 -28.698,-28.698 -15.849,0 -28.697,12.849 -28.697,28.698 0,15.849 12.848,28.698 28.697,28.698 C -12.848,28.698 0,15.849 0,0 z"
             style="fill:none;stroke:#ffffff;stroke-width:0.85399997;stroke-linecap:butt;stroke-linejoin:miter;stroke-miterlimit:10;stroke-opacity:1;stroke-dasharray:none"
             id="path3441"
             inkscape:connector-curvature="0" />
        </g>
        <g
           id="g3443"
           transform="translate(395.7302,387.4476)">
          <path
             d="M 0,0 C 1.362,0 2.468,1.104 2.468,2.466 2.468,3.83 1.362,4.934 0,4.934 -1.364,4.934 -2.468,3.83 -2.468,2.466 -2.468,1.104 -1.364,0 0,0"
             style="fill:#ffffff;fill-opacity:1;fill-rule:nonzero;stroke:none"
             id="path3445"
             inkscape:connector-curvature="0" />
        </g>
        <g
           id="g3447"
           transform="translate(381.165,387.5461)">
          <path
             d="M 0,0 C 1.363,0 2.469,1.106 2.469,2.468 2.469,3.832 1.363,4.936 0,4.936 -1.363,4.936 -2.469,3.832 -2.469,2.468 -2.469,1.106 -1.363,0 0,0"
             style="fill:#ffffff;fill-opacity:1;fill-rule:nonzero;stroke:none"
             id="path3449"
             inkscape:connector-curvature="0" />
        </g>
        <g
           id="g3451"
           transform="translate(401.6892,391.1356)">
          <path
             d="m 0,0 c -1.944,-3.141 -3.366,-5.859 -5.31,-9.199 -3.498,2.189 -5.667,6.177 -5.724,10.271 l -3.742,0 c -0.352,-5.915 3.19,-10.397 7.469,-13.663 -1.479,-2.45 -3.029,-5.115 -4.613,-7.504 -1.559,6.818 -6.12,13.572 -12.744,16.88 -2.132,-3.553 -4.314,-7.007 -6.235,-10.647 -0.225,-0.429 -0.099,-1.496 0.425,-1.895 0.8,-0.61 1.785,-0.486 2.155,0.043 1.71,2.449 3.082,4.868 4.653,7.312 1.686,-0.974 2.93,-2.387 3.99,-3.989 -2.461,-4.6 -5.222,-9.348 -7.868,-13.843 1.556,-0.028 3.127,-0.019 4.152,0 1.908,3.354 3.928,6.912 5.923,10.365 1.529,-3.082 2.472,-6.906 2.506,-10.365 1.272,-0.012 2.744,0.051 3.717,0 -0.088,0.005 5.665,10.323 7.106,12.147 1.904,-1.06 3.055,-3.218 3.354,-5.294 0.378,-2.617 -1.283,-4.782 -2.605,-6.853 0.369,0 4.185,0.028 4.164,0 2.894,3.865 3.641,11.449 -2.967,15.415 1.79,3.129 3.319,5.723 5.137,9.1 C 4.25,0.708 1.334,2.155 0,0"
             style="fill:#ffffff;fill-opacity:1;fill-rule:nonzero;stroke:none"
             id="path3453"
             inkscape:connector-curvature="0" />
        </g>
      </g>
    </g>
  </g>
</svg>
