<?xml version="1.0" encoding="UTF-8" standalone="no"?>
<!-- Created with Inkscape (http://www.inkscape.org/) -->

<svg
   xmlns:dc="http://purl.org/dc/elements/1.1/"
   xmlns:cc="http://creativecommons.org/ns#"
   xmlns:rdf="http://www.w3.org/1999/02/22-rdf-syntax-ns#"
   xmlns:svg="http://www.w3.org/2000/svg"
   xmlns="http://www.w3.org/2000/svg"
   xmlns:sodipodi="http://sodipodi.sourceforge.net/DTD/sodipodi-0.dtd"
   xmlns:inkscape="http://www.inkscape.org/namespaces/inkscape"
   version="1.1"
   width="595.276pt"
   height="841.89001pt"
   viewBox="0 0 595.276 841.89"
   id="svg2"
   style="fill-rule:evenodd"
   inkscape:version="0.48.3.1 r9886"
   sodipodi:docname="Zona_9_logo.svg">
  <sodipodi:namedview
     pagecolor="#ffffff"
     bordercolor="#666666"
     borderopacity="1"
     objecttolerance="10"
     gridtolerance="10"
     guidetolerance="10"
     inkscape:pageopacity="0"
     inkscape:pageshadow="2"
     inkscape:window-width="640"
     inkscape:window-height="480"
     id="namedview22"
     showgrid="false"
     inkscape:zoom="0.22425732"
     inkscape:cx="372.04749"
     inkscape:cy="526.18127"
     inkscape:window-x="0"
     inkscape:window-y="0"
     inkscape:window-maximized="0"
     inkscape:current-layer="svg2" />
  <metadata
     id="metadata42">
    <rdf:RDF>
      <cc:Work
         rdf:about="">
        <dc:format>image/svg+xml</dc:format>
        <dc:type
           rdf:resource="http://purl.org/dc/dcmitype/StillImage" />
        <dc:title></dc:title>
      </cc:Work>
    </rdf:RDF>
  </metadata>
  <defs
     id="defs40" />
  <g
     id="g4"
     transform="translate(-652.82154,0)"
     inkscape:export-xdpi="21.843922"
     inkscape:export-ydpi="21.843922">
    <g
       id="g6">
      <g
         id="g8">
        <path
           d="m 830.928,408.351 18.534,0 c 1.13,0 2.165,0.411 2.965,1.09 -0.773,-3.123 -1.159,-6.42 -1.159,-9.892 0,-5.695 1.039,-10.92 3.117,-15.672 2.089,-4.779 5.194,-9.001 9.314,-12.663 4.067,-3.615 8.734,-6.335 13.998,-8.156 5.179,-1.792 10.855,-2.689 17.023,-2.689 6.135,0 11.78,0.897 16.933,2.689 5.222,1.816 9.871,4.535 13.944,8.156 4.12,3.662 7.226,7.884 9.315,12.663 0.862,1.973 1.546,4.028 2.05,6.164 l 0,-22.671 c 0,-2.529 2.052,-4.581 4.582,-4.581 l 22.78,0 c 1.886,0 3.505,1.14 4.208,2.768 1.653,-1.069 3.362,-1.908 5.128,-2.517 1.625,-0.56 3.443,-0.982 5.451,-1.265 1.938,-0.273 3.987,-0.41 6.144,-0.41 4.5,0 8.526,0.648 12.075,1.942 3.7,1.35 6.84,3.399 9.41,6.147 2.53,2.702 4.41,5.88 5.64,9.53 1.1,3.252 1.7,6.854 1.79,10.807 0.41,-1.8 0.94,-3.545 1.58,-5.237 1.77,-4.626 4.42,-8.812 7.95,-12.555 3.54,-3.763 7.54,-6.595 11.98,-8.496 4.44,-1.899 9.27,-2.849 14.48,-2.849 2.3,0 4.53,0.196 6.7,0.587 2.2,0.397 4.23,0.986 6.09,1.764 1.19,0.497 2.36,1.088 3.51,1.775 0.82,-1.202 2.21,-1.991 3.78,-1.991 l 22.78,0 c 2.53,0 4.58,2.052 4.58,4.581 l 0,64.499 c 0,2.53 -2.05,4.582 -4.58,4.582 l -22.78,0 c -1.65,0 -3.09,-0.866 -3.9,-2.166 -0.84,0.529 -1.71,1.007 -2.6,1.431 l 0,0.003 c -0.14,0.066 -0.28,0.124 -0.42,0.175 -1.82,0.831 -3.7,1.456 -5.64,1.873 -2.1,0.451 -4.28,0.677 -6.52,0.677 -5.39,0 -10.35,-0.926 -14.89,-2.778 -4.59,-1.87 -8.69,-4.655 -12.31,-8.353 -4.96,-5.075 -8.22,-11.028 -9.78,-17.858 l 0,22.414 c 0,2.53 -2.05,4.582 -4.58,4.582 l -22.779,0 c -2.53,0 -4.581,-2.052 -4.581,-4.582 l 0,-32.605 c 0,-2.515 -0.167,-4.608 -0.498,-6.278 -0.271,-1.359 -0.614,-2.341 -1.028,-2.945 -0.274,-0.398 -0.681,-0.71 -1.218,-0.934 -0.792,-0.33 -1.864,-0.496 -3.212,-0.496 -2.44,0 -4.249,0.656 -5.427,1.967 -0.614,0.684 -1.082,1.524 -1.401,2.518 -0.367,1.142 -0.55,2.535 -0.55,4.175 l 0,34.598 c 0,2.53 -2.052,4.582 -4.582,4.582 l -22.78,0 c -2.53,0 -4.582,-2.052 -4.582,-4.582 l 0,-22.805 c -0.501,2.126 -1.178,4.172 -2.032,6.139 -2.073,4.771 -5.16,8.993 -9.261,12.663 -4.06,3.633 -8.709,6.358 -13.945,8.174 -5.166,1.792 -10.836,2.689 -17.004,2.689 -6.168,0 -11.844,-0.897 -17.023,-2.689 -5.264,-1.821 -9.931,-4.541 -13.998,-8.156 -4.12,-3.662 -7.225,-7.884 -9.314,-12.663 -0.118,-0.269 -0.231,-0.538 -0.342,-0.81 l 0,17.458 c 0,2.53 -2.052,4.582 -4.581,4.582 l -65.353,0 c -2.53,0 -4.581,-2.052 -4.581,-4.582 0,-1.075 0.37,-2.064 0.991,-2.845 l 25.502,-38.136 -17.783,0 c -2.53,0 -4.581,-2.051 -4.581,-4.581 l 0,-18.937 c 0,-2.529 2.051,-4.581 4.581,-4.581 l 64.356,0 c 2.53,0 4.582,2.052 4.582,4.581 0,1.044 -0.35,2.005 -0.937,2.776 l -25.311,38.205 z m 53.565,-8.944 c 0,1.446 0.243,2.754 0.728,3.924 0.487,1.173 1.245,2.274 2.272,3.302 2.001,2 4.409,3 7.227,3 1.442,0 2.745,-0.243 3.906,-0.728 1.166,-0.488 2.244,-1.233 3.231,-2.237 0.992,-1.008 1.733,-2.11 2.219,-3.302 0.485,-1.188 0.728,-2.508 0.728,-3.959 0,-2.912 -0.977,-5.345 -2.929,-7.298 -1.009,-1.008 -2.087,-1.748 -3.232,-2.219 -1.151,-0.473 -2.46,-0.71 -3.923,-0.71 -2.844,0 -5.265,0.983 -7.262,2.947 -1.006,0.99 -1.752,2.073 -2.237,3.249 -0.485,1.177 -0.728,2.521 -0.728,4.031 z m 161.567,0.284 c 0,1.464 0.23,2.773 0.71,3.924 0.47,1.162 1.21,2.242 2.21,3.24 l 0.01,-0.009 0,10e-4 0,-10e-4 0.02,0.025 c 1.95,1.936 4.33,2.904 7.13,2.904 2.82,0 5.2,-0.976 7.16,-2.929 1,-1.008 1.74,-2.086 2.22,-3.231 0.47,-1.151 0.71,-2.46 0.71,-3.924 0,-2.912 -0.98,-5.345 -2.93,-7.297 -1.01,-1.008 -2.09,-1.749 -3.24,-2.219 -1.15,-0.474 -2.46,-0.71 -3.92,-0.71 -2.81,0 -5.19,0.988 -7.14,2.965 -0.99,1.009 -1.73,2.11 -2.22,3.302 -0.48,1.189 -0.72,2.509 -0.72,3.959 z"
           inkscape:connector-curvature="0"
           id="path10"
           style="fill:#273785;stroke:none" />
        <path
           d="m 821.03,411.084 27.053,0 0,18.937 -65.353,0 30.469,-45.563 -26.34,0 0,-18.937 64.356,0 -30.185,45.563 z M 854.47,397.7 c 0,-10.157 3.631,-18.462 10.893,-24.917 7.261,-6.454 16.587,-9.682 27.978,-9.682 11.295,0 20.574,3.228 27.835,9.682 7.262,6.455 10.892,14.76 10.892,24.917 0,10.156 -3.606,18.462 -10.821,24.917 -7.213,6.454 -16.516,9.682 -27.906,9.682 -11.391,0 -20.717,-3.228 -27.978,-9.682 -7.262,-6.455 -10.893,-14.761 -10.893,-24.917 z m 24.063,-0.142 c 0,4.081 1.448,7.57 4.342,10.465 2.896,2.895 6.384,4.342 10.466,4.342 4.081,0 7.546,-1.447 10.394,-4.342 2.847,-2.895 4.271,-6.384 4.271,-10.465 0,-4.177 -1.424,-7.689 -4.271,-10.537 -2.848,-2.847 -6.313,-4.271 -10.394,-4.271 -4.082,0 -7.57,1.424 -10.466,4.271 -2.894,2.848 -4.342,6.36 -4.342,10.537 z m 61.632,-32.037 22.78,0 0,8.117 c 0.475,-0.57 0.974,-1.116 1.496,-1.638 0.522,-0.522 1.02,-1.02 1.495,-1.495 2.468,-2.373 5.078,-4.034 7.831,-4.984 2.753,-0.949 6.122,-1.423 10.109,-1.423 7.973,0 14.024,2.207 18.154,6.62 4.13,4.414 6.19,10.513 6.19,18.297 l 0,41.006 -22.778,0 0,-32.606 c 0,-5.6 -0.783,-9.54 -2.349,-11.817 -1.567,-2.279 -4.296,-3.417 -8.187,-3.417 -3.797,0 -6.74,1.162 -8.828,3.488 -2.088,2.325 -3.133,5.576 -3.133,9.753 l 0,34.599 -22.78,0 0,-64.5 z m 128.695,0 22.78,0 0,64.5 -22.78,0 0,-7.12 c -2.47,3.038 -5.29,5.316 -8.47,6.835 -3.18,1.519 -6.72,2.278 -10.61,2.278 -9.59,0 -17.56,-3.251 -23.92,-9.753 -6.36,-6.502 -9.54,-14.689 -9.54,-24.561 0,-9.682 3.11,-17.822 9.33,-24.418 6.21,-6.597 13.92,-9.896 23.13,-9.896 4.18,0 7.86,0.664 11.04,1.993 3.18,1.329 6.19,3.465 9.04,6.407 l 0,-6.265 z m -28.76,32.321 c 0,4.082 1.42,7.546 4.27,10.394 2.85,2.848 6.31,4.272 10.39,4.272 4.08,0 7.55,-1.424 10.4,-4.272 2.84,-2.848 4.27,-6.312 4.27,-10.394 0,-4.176 -1.43,-7.688 -4.27,-10.536 -2.85,-2.848 -6.32,-4.272 -10.4,-4.272 -4.08,0 -7.54,1.448 -10.39,4.343 -2.85,2.895 -4.27,6.384 -4.27,10.465 z"
           inkscape:connector-curvature="0"
           id="path12"
           style="fill:#ffffff;stroke:#273785;stroke-width:0.916237;stroke-linecap:round;stroke-linejoin:round" />
        <path
           d="m 821.03,411.084 27.053,0 0,18.937 -65.353,0 30.469,-45.563 -26.34,0 0,-18.937 64.356,0 -30.185,45.563 z M 854.47,397.7 c 0,-10.157 3.631,-18.462 10.893,-24.917 7.261,-6.454 16.587,-9.682 27.978,-9.682 11.295,0 20.574,3.228 27.835,9.682 7.262,6.455 10.892,14.76 10.892,24.917 0,10.156 -3.606,18.462 -10.821,24.917 -7.213,6.454 -16.516,9.682 -27.906,9.682 -11.391,0 -20.717,-3.228 -27.978,-9.682 -7.262,-6.455 -10.893,-14.761 -10.893,-24.917 z m 24.063,-0.142 c 0,4.081 1.448,7.57 4.342,10.465 2.896,2.895 6.384,4.342 10.466,4.342 4.081,0 7.546,-1.447 10.394,-4.342 2.847,-2.895 4.271,-6.384 4.271,-10.465 0,-4.177 -1.424,-7.689 -4.271,-10.537 -2.848,-2.847 -6.313,-4.271 -10.394,-4.271 -4.082,0 -7.57,1.424 -10.466,4.271 -2.894,2.848 -4.342,6.36 -4.342,10.537 z m 61.632,-32.037 22.78,0 0,8.117 c 0.475,-0.57 0.974,-1.116 1.496,-1.638 0.522,-0.522 1.02,-1.02 1.495,-1.495 2.468,-2.373 5.078,-4.034 7.831,-4.984 2.753,-0.949 6.122,-1.423 10.109,-1.423 7.973,0 14.024,2.207 18.154,6.62 4.13,4.414 6.19,10.513 6.19,18.297 l 0,41.006 -22.778,0 0,-32.606 c 0,-5.6 -0.783,-9.54 -2.349,-11.817 -1.567,-2.279 -4.296,-3.417 -8.187,-3.417 -3.797,0 -6.74,1.162 -8.828,3.488 -2.088,2.325 -3.133,5.576 -3.133,9.753 l 0,34.599 -22.78,0 0,-64.5 z m 128.695,0 22.78,0 0,64.5 -22.78,0 0,-7.12 c -2.47,3.038 -5.29,5.316 -8.47,6.835 -3.18,1.519 -6.72,2.278 -10.61,2.278 -9.59,0 -17.56,-3.251 -23.92,-9.753 -6.36,-6.502 -9.54,-14.689 -9.54,-24.561 0,-9.682 3.11,-17.822 9.33,-24.418 6.21,-6.597 13.92,-9.896 23.13,-9.896 4.18,0 7.86,0.664 11.04,1.993 3.18,1.329 6.19,3.465 9.04,6.407 l 0,-6.265 z m -28.76,32.321 c 0,4.082 1.42,7.546 4.27,10.394 2.85,2.848 6.31,4.272 10.39,4.272 4.08,0 7.55,-1.424 10.4,-4.272 2.84,-2.848 4.27,-6.312 4.27,-10.394 0,-4.176 -1.43,-7.688 -4.27,-10.536 -2.85,-2.848 -6.32,-4.272 -10.4,-4.272 -4.08,0 -7.54,1.448 -10.39,4.343 -2.85,2.895 -4.27,6.384 -4.27,10.465 z"
           inkscape:connector-curvature="0"
           id="path14"
           style="fill:#ffffff;stroke:#273785;stroke-width:0;stroke-linecap:round;stroke-linejoin:round" />
        <path
           d="m 1128.45,341.52 c 0.72,-0.136 1.46,-0.23 2.19,-0.293 3.07,-0.267 6.9,0.04 7.94,3.685 0.12,0.389 0.18,0.765 0.2,1.131 2.03,-2.155 4.82,-3.402 7.85,-3.805 4.79,-0.634 9.87,0.793 14.21,2.71 39.77,17.536 54.64,65.996 35.76,104.189 -19.06,38.562 -65.85,53.978 -104.31,34.966 -0.86,-0.424 -1.7,-0.904 -2.52,-1.411 -1.02,-0.637 -2.05,-1.353 -2.95,-2.155 -1.82,-1.63 -3.02,-3.903 -2.07,-6.402 1.96,-5.11 8.63,-2.974 12.38,-1.872 23.11,6.782 49.17,1.088 64.01,-18.726 4.6,-6.136 7.73,-13.131 9.28,-20.635 2.4,-11.585 0.9,-23.686 -3.51,-34.61 -4.86,-12.039 -13.1,-22.45 -23.4,-30.299 -3.1,-2.359 -5.71,-5.497 -7,-9.206 -0.9,-2.599 -1.1,-5.429 -0.37,-8.053 -0.16,0.113 -0.33,0.22 -0.51,0.322 -1.27,0.749 -2.77,1.34 -4.15,1.859 -15.75,5.916 -27.91,19.946 -27.88,37.253 0.01,5.329 1.19,10.52 3.47,15.338 7.57,16.057 25.13,24.849 42.4,24.954 5.92,0.037 12.49,3.184 13.45,9.615 0.49,3.313 -0.86,6.47 -3.2,8.777 -2.66,2.612 -6.39,4.092 -9.97,4.927 -12.05,2.817 -24.51,1.329 -35.63,-4.064 -16.43,-7.966 -28.22,-23.498 -31.59,-41.433 -5.85,-31.128 14.87,-60.929 45.92,-66.762 z"
           inkscape:connector-curvature="0"
           id="path16"
           style="fill:#273785;stroke:none" />
        <path
           d="m 1127.15,343.908 c 2.88,-0.542 8.97,-0.649 0.55,2.515 -18.17,6.826 -30.92,22.888 -30.89,41.594 0.05,24.856 22.64,44.742 50.47,44.912 10.26,0.062 13.78,10.792 -0.74,14.184 -28.41,6.638 -56.26,-13.345 -61.62,-41.845 -5.36,-28.499 13.55,-55.971 42.23,-61.36 z"
           inkscape:connector-curvature="0"
           id="path18"
           style="fill:#ffec00;stroke:#273785;stroke-width:0.56692898" />
        <path
           d="m 1092.18,477.795 c -3.65,-1.805 -10.51,-6.773 1.49,-3.251 25.87,7.594 53.43,0.404 69.01,-20.393 20.71,-27.633 12.22,-68.578 -18.53,-91.999 -11.34,-8.638 -6.29,-23.487 12.67,-15.13 37.08,16.353 51.32,61.794 33.47,97.905 -17.85,36.112 -61.77,50.828 -98.11,32.868 z"
           inkscape:connector-curvature="0"
           id="path20"
           style="fill:#e21c2a;stroke:#273785;stroke-width:0.56692898" />
        <path
           d="m 1127.15,343.908 c 2.88,-0.541 8.97,-0.649 0.55,2.515 -18.17,6.826 -30.92,22.888 -30.89,41.594 0.01,1.823 0.13,3.619 0.37,5.383 -3.43,8.811 -4.53,18.645 -2.66,28.606 0.51,2.706 1.22,5.335 2.12,7.873 -5.8,-6.868 -9.97,-15.284 -11.72,-24.611 -5.36,-28.499 13.55,-55.971 42.23,-61.36 z"
           inkscape:connector-curvature="0"
           id="path22"
           style="fill:#009240;stroke:#273785;stroke-width:0.56692898" />
        <path
           d="m 1172.42,433.284 c 5.86,-24.722 -4.62,-53.112 -28.28,-71.131 -11.34,-8.638 -6.29,-23.488 12.67,-15.13 19.28,8.503 32.38,24.869 38.01,43.698 -0.6,11.183 -4.26,22.036 -11.25,31.37 -3.24,4.323 -7,8.056 -11.15,11.193 z"
           inkscape:connector-curvature="0"
           id="path24"
           style="fill:#009fe0;stroke:#273785;stroke-width:0.56692898" />
        <g
           id="g26">
          <path
             d="m 794.973,450.284 -5.988,0 0,1.599 3.321,0 0,5.94 c -0.247,0.246 -0.565,0.448 -0.953,0.606 -0.393,0.158 -0.825,0.238 -1.301,0.242 -0.893,-0.008 -1.633,-0.202 -2.219,-0.593 -0.586,-0.388 -1.046,-0.926 -1.381,-1.617 -0.336,-0.695 -0.57,-1.499 -0.711,-2.412 -0.138,-0.917 -0.202,-1.903 -0.199,-2.966 -0.003,-0.448 0.008,-0.925 0.037,-1.426 0.024,-0.505 0.076,-1.006 0.158,-1.511 0.08,-0.505 0.202,-0.99 0.363,-1.446 0.161,-0.457 0.376,-0.861 0.647,-1.221 0.266,-0.355 0.606,-0.638 1.006,-0.844 0.404,-0.206 0.888,-0.311 1.45,-0.315 0.525,0.004 0.962,0.093 1.305,0.266 0.348,0.178 0.622,0.421 0.82,0.724 0.198,0.307 0.34,0.654 0.42,1.046 0.085,0.388 0.126,0.804 0.122,1.237 l 3.103,0 c -0.029,-0.445 -0.105,-0.893 -0.227,-1.338 -0.121,-0.448 -0.311,-0.876 -0.565,-1.281 -0.255,-0.404 -0.598,-0.763 -1.027,-1.083 -0.432,-0.315 -0.969,-0.565 -1.615,-0.747 -0.651,-0.182 -1.427,-0.275 -2.336,-0.279 -1.01,0.004 -1.883,0.146 -2.622,0.429 -0.735,0.282 -1.353,0.679 -1.855,1.188 -0.497,0.508 -0.897,1.107 -1.192,1.793 -0.295,0.687 -0.509,1.435 -0.638,2.251 -0.13,0.812 -0.194,1.665 -0.19,2.557 0,0.998 0.077,1.948 0.242,2.849 0.162,0.901 0.417,1.729 0.76,2.481 0.348,0.751 0.796,1.406 1.35,1.959 0.553,0.558 1.216,0.986 1.996,1.289 0.779,0.307 1.68,0.461 2.707,0.465 0.634,-0.004 1.212,-0.057 1.733,-0.154 0.517,-0.101 0.99,-0.23 1.41,-0.392 0.42,-0.161 0.8,-0.331 1.144,-0.517 0.339,-0.186 0.646,-0.363 0.925,-0.537 l 0,-8.242 z m 4.957,9.575 2.449,0 0,-5.285 c 0,-0.771 0.089,-1.41 0.258,-1.919 0.174,-0.509 0.425,-0.913 0.752,-1.204 0.327,-0.295 0.723,-0.509 1.188,-0.638 0.468,-0.129 0.994,-0.202 1.584,-0.214 l 0,-2.546 c -0.526,0.044 -0.978,0.162 -1.366,0.352 -0.384,0.189 -0.719,0.436 -1.002,0.731 -0.283,0.295 -0.533,0.622 -0.752,0.986 -0.218,0.364 -0.424,0.739 -0.614,1.131 l -0.048,0 0,-2.933 -2.449,0 0,11.539 z m 15.479,0 2.449,0 0,-7.442 c 0.004,-0.453 -0.016,-0.893 -0.065,-1.321 -0.044,-0.425 -0.141,-0.821 -0.286,-1.188 -0.146,-0.368 -0.368,-0.691 -0.663,-0.97 -0.299,-0.275 -0.695,-0.493 -1.192,-0.646 -0.497,-0.158 -1.119,-0.235 -1.867,-0.239 -0.901,0.004 -1.64,0.109 -2.21,0.312 -0.57,0.201 -1.014,0.472 -1.325,0.811 -0.315,0.34 -0.537,0.72 -0.667,1.136 -0.133,0.42 -0.21,0.844 -0.234,1.28 l 2.569,0 c 0.025,-0.46 0.089,-0.876 0.195,-1.256 0.1,-0.38 0.282,-0.683 0.541,-0.913 0.259,-0.23 0.638,-0.347 1.131,-0.352 0.323,0.005 0.586,0.081 0.792,0.227 0.206,0.149 0.368,0.343 0.481,0.586 0.117,0.246 0.198,0.517 0.246,0.811 0.053,0.295 0.081,0.59 0.093,0.89 0.012,0.298 0.016,0.577 0.012,0.832 l 0,1.018 c -0.258,0.008 -0.598,0.028 -1.006,0.06 -0.412,0.029 -0.86,0.085 -1.345,0.166 -0.485,0.081 -0.965,0.206 -1.446,0.368 -0.481,0.161 -0.918,0.384 -1.318,0.658 -0.4,0.275 -0.719,0.623 -0.961,1.039 -0.243,0.42 -0.364,0.925 -0.372,1.515 0.004,0.537 0.141,1.026 0.412,1.459 0.271,0.432 0.642,0.779 1.115,1.034 0.473,0.254 1.014,0.384 1.625,0.392 0.46,-0.004 0.868,-0.069 1.232,-0.198 0.36,-0.125 0.671,-0.287 0.937,-0.481 0.267,-0.194 0.489,-0.4 0.667,-0.61 0.178,-0.21 0.315,-0.404 0.412,-0.578 l 0.048,0 0,1.6 z m 0,-4.048 c -0.003,0.489 -0.089,0.913 -0.25,1.264 -0.162,0.352 -0.368,0.643 -0.618,0.865 -0.251,0.226 -0.509,0.392 -0.776,0.501 -0.271,0.105 -0.513,0.157 -0.731,0.157 -0.271,0 -0.509,-0.072 -0.719,-0.214 -0.211,-0.141 -0.38,-0.339 -0.501,-0.597 -0.122,-0.255 -0.182,-0.562 -0.186,-0.91 0.004,-0.424 0.105,-0.779 0.295,-1.062 0.19,-0.287 0.44,-0.517 0.743,-0.691 0.303,-0.174 0.626,-0.307 0.974,-0.4 0.343,-0.093 0.67,-0.158 0.985,-0.194 0.316,-0.04 0.574,-0.065 0.784,-0.077 l 0,1.358 z m 7.698,4.048 2.448,0 0,-4.776 c 0,-0.242 0.02,-0.537 0.061,-0.884 0.044,-0.344 0.109,-0.711 0.206,-1.103 0.092,-0.392 0.218,-0.776 0.376,-1.156 0.157,-0.38 0.351,-0.723 0.577,-1.034 0.231,-0.311 0.501,-0.562 0.812,-0.748 0.311,-0.185 0.667,-0.283 1.071,-0.287 0.307,0.004 0.558,0.077 0.747,0.227 0.195,0.149 0.344,0.351 0.445,0.61 0.101,0.258 0.174,0.549 0.21,0.88 0.037,0.332 0.057,0.679 0.053,1.047 l 0,7.224 2.448,0 0,-8.436 c 0,-0.424 -0.057,-0.832 -0.17,-1.232 -0.113,-0.4 -0.287,-0.76 -0.521,-1.079 -0.234,-0.323 -0.537,-0.578 -0.905,-0.768 -0.368,-0.19 -0.804,-0.287 -1.313,-0.291 -0.509,0.004 -0.962,0.081 -1.362,0.23 -0.4,0.15 -0.747,0.344 -1.05,0.582 -0.303,0.238 -0.562,0.497 -0.776,0.768 -0.218,0.275 -0.396,0.537 -0.533,0.788 -0.142,0.25 -0.251,0.465 -0.328,0.638 l -0.048,0 0,-2.739 -2.448,0 0,11.539 z m 21.563,0 3.806,0 c 0.384,0.004 0.816,-0.004 1.289,-0.02 0.473,-0.02 0.962,-0.069 1.466,-0.149 0.502,-0.081 0.986,-0.215 1.459,-0.404 0.469,-0.186 0.889,-0.449 1.265,-0.784 0.38,-0.336 0.675,-0.768 0.897,-1.294 0.222,-0.529 0.335,-1.171 0.339,-1.93 -0.004,-0.732 -0.117,-1.35 -0.339,-1.859 -0.219,-0.513 -0.509,-0.934 -0.873,-1.261 -0.364,-0.327 -0.763,-0.586 -1.2,-0.771 -0.44,-0.186 -0.876,-0.32 -1.321,-0.401 l 0,-0.048 c 0.331,-0.089 0.67,-0.226 1.01,-0.416 0.343,-0.186 0.659,-0.429 0.95,-0.731 0.286,-0.304 0.521,-0.675 0.699,-1.112 0.177,-0.44 0.27,-0.953 0.274,-1.547 -0.004,-0.711 -0.121,-1.305 -0.351,-1.786 -0.227,-0.481 -0.538,-0.869 -0.933,-1.164 -0.397,-0.294 -0.849,-0.517 -1.354,-0.67 -0.505,-0.15 -1.038,-0.255 -1.6,-0.307 -0.562,-0.053 -1.119,-0.077 -1.677,-0.073 l -3.806,0 0,16.727 z m 2.667,-15.127 1.139,0 c 0.493,-0.004 0.938,0.029 1.338,0.093 0.395,0.069 0.739,0.194 1.022,0.376 0.286,0.182 0.505,0.444 0.658,0.788 0.154,0.343 0.23,0.787 0.23,1.337 -0.003,0.751 -0.141,1.341 -0.412,1.766 -0.266,0.424 -0.646,0.723 -1.131,0.897 -0.485,0.169 -1.054,0.254 -1.705,0.246 l -1.139,0 0,-5.503 z m 0,7.103 1.139,0 c 0.545,-0.004 1.059,0.041 1.544,0.134 0.484,0.088 0.913,0.254 1.288,0.488 0.376,0.234 0.671,0.562 0.889,0.982 0.215,0.424 0.324,0.962 0.328,1.62 -0.004,0.618 -0.085,1.123 -0.247,1.523 -0.161,0.401 -0.38,0.715 -0.654,0.946 -0.275,0.226 -0.59,0.396 -0.938,0.497 -0.347,0.105 -0.711,0.174 -1.091,0.198 -0.379,0.028 -0.751,0.04 -1.119,0.036 l -1.139,0 0,-6.424 z m 19.43,8.024 2.473,0 0,-11.539 -2.449,0 0,4.776 c 0,0.242 -0.02,0.537 -0.06,0.88 -0.041,0.348 -0.11,0.716 -0.206,1.107 -0.093,0.392 -0.218,0.776 -0.376,1.156 -0.157,0.38 -0.348,0.723 -0.578,1.035 -0.23,0.311 -0.501,0.561 -0.812,0.747 -0.311,0.186 -0.667,0.282 -1.071,0.287 -0.307,-0.005 -0.557,-0.077 -0.747,-0.227 -0.194,-0.149 -0.34,-0.351 -0.444,-0.61 -0.102,-0.258 -0.17,-0.549 -0.211,-0.88 -0.036,-0.332 -0.056,-0.679 -0.052,-1.047 l 0,-7.224 -2.449,0 0,8.436 c 0,0.425 0.057,0.832 0.17,1.233 0.113,0.4 0.287,0.759 0.521,1.078 0.235,0.324 0.538,0.578 0.905,0.768 0.368,0.19 0.804,0.287 1.314,0.291 0.508,-0.004 0.961,-0.081 1.357,-0.231 0.4,-0.149 0.747,-0.343 1.047,-0.581 0.298,-0.243 0.557,-0.497 0.767,-0.768 0.214,-0.275 0.392,-0.537 0.53,-0.788 0.141,-0.25 0.246,-0.464 0.323,-0.638 l 0.048,0 0,2.739 z m 16.06,-1.503 c -0.363,0.17 -0.727,0.291 -1.095,0.372 -0.363,0.077 -0.735,0.113 -1.11,0.113 -0.578,-0.004 -1.087,-0.101 -1.536,-0.291 -0.448,-0.19 -0.836,-0.448 -1.167,-0.776 -0.332,-0.323 -0.611,-0.695 -0.841,-1.111 -0.226,-0.412 -0.412,-0.844 -0.549,-1.297 -0.138,-0.456 -0.238,-0.905 -0.299,-1.345 -0.065,-0.444 -0.093,-0.857 -0.093,-1.241 l 6.909,0 c 0.004,-0.448 -0.033,-0.901 -0.101,-1.349 -0.073,-0.448 -0.202,-0.873 -0.384,-1.277 -0.186,-0.404 -0.445,-0.763 -0.776,-1.078 -0.335,-0.316 -0.759,-0.562 -1.281,-0.744 -0.521,-0.182 -1.151,-0.275 -1.895,-0.279 -0.905,0.004 -1.672,0.142 -2.302,0.412 -0.631,0.275 -1.136,0.659 -1.52,1.152 -0.388,0.493 -0.667,1.078 -0.84,1.749 -0.174,0.671 -0.263,1.41 -0.259,2.214 0.005,1.16 0.158,2.158 0.453,2.986 0.295,0.829 0.707,1.507 1.232,2.032 0.525,0.526 1.14,0.914 1.835,1.16 0.695,0.247 1.446,0.372 2.25,0.368 0.481,0 0.913,-0.029 1.293,-0.077 0.384,-0.052 0.739,-0.129 1.075,-0.226 0.331,-0.097 0.666,-0.214 1.001,-0.352 l 0,-1.115 z m -6.618,-6.691 c 0.009,-0.133 0.033,-0.307 0.077,-0.521 0.045,-0.214 0.114,-0.436 0.21,-0.675 0.097,-0.238 0.231,-0.46 0.404,-0.674 0.17,-0.211 0.388,-0.384 0.651,-0.517 0.266,-0.134 0.586,-0.202 0.961,-0.207 0.453,0.005 0.821,0.101 1.099,0.279 0.284,0.178 0.502,0.408 0.651,0.683 0.149,0.275 0.251,0.558 0.307,0.848 0.053,0.291 0.081,0.554 0.077,0.784 l -4.437,0 z m 11.261,8.194 2.449,0 0,-4.776 c 0,-0.242 0.02,-0.537 0.061,-0.884 0.044,-0.344 0.109,-0.711 0.206,-1.103 0.092,-0.392 0.218,-0.776 0.375,-1.156 0.158,-0.38 0.352,-0.723 0.578,-1.034 0.231,-0.311 0.501,-0.562 0.812,-0.748 0.311,-0.185 0.667,-0.283 1.071,-0.287 0.307,0.004 0.557,0.077 0.747,0.227 0.194,0.149 0.344,0.351 0.445,0.61 0.101,0.258 0.174,0.549 0.21,0.88 0.036,0.332 0.057,0.679 0.053,1.047 l 0,7.224 2.448,0 0,-8.436 c 0,-0.424 -0.057,-0.832 -0.17,-1.232 -0.113,-0.4 -0.287,-0.76 -0.521,-1.079 -0.234,-0.323 -0.538,-0.578 -0.905,-0.768 -0.368,-0.19 -0.804,-0.287 -1.313,-0.291 -0.509,0.004 -0.962,0.081 -1.362,0.23 -0.4,0.15 -0.747,0.344 -1.05,0.582 -0.303,0.238 -0.562,0.497 -0.776,0.768 -0.218,0.275 -0.396,0.537 -0.533,0.788 -0.142,0.25 -0.251,0.465 -0.328,0.638 l -0.048,0 0,-2.739 -2.449,0 0,11.539 z m 19.018,0.267 c 1.132,-0.004 2.077,-0.234 2.837,-0.699 0.755,-0.461 1.325,-1.14 1.705,-2.037 0.384,-0.897 0.574,-1.996 0.574,-3.3 0,-1.306 -0.19,-2.405 -0.574,-3.302 -0.38,-0.897 -0.95,-1.575 -1.705,-2.036 -0.76,-0.464 -1.705,-0.695 -2.837,-0.699 -1.131,0.004 -2.072,0.235 -2.828,0.699 -0.756,0.461 -1.321,1.139 -1.697,2.036 -0.376,0.897 -0.565,1.996 -0.565,3.302 0,1.304 0.189,2.403 0.565,3.3 0.376,0.897 0.941,1.576 1.697,2.037 0.756,0.465 1.697,0.695 2.828,0.699 z m -2.424,-6.036 c -0.004,-0.429 0.012,-0.873 0.045,-1.334 0.032,-0.46 0.092,-0.909 0.185,-1.345 0.093,-0.437 0.231,-0.829 0.409,-1.18 0.177,-0.351 0.416,-0.635 0.706,-0.84 0.291,-0.211 0.651,-0.315 1.079,-0.32 0.437,0.005 0.801,0.109 1.092,0.32 0.294,0.205 0.533,0.489 0.715,0.84 0.177,0.351 0.314,0.743 0.407,1.18 0.093,0.436 0.158,0.885 0.191,1.345 0.032,0.461 0.048,0.905 0.044,1.334 0.004,0.428 -0.012,0.868 -0.044,1.333 -0.033,0.461 -0.098,0.909 -0.191,1.345 -0.093,0.437 -0.23,0.829 -0.407,1.18 -0.182,0.352 -0.421,0.634 -0.715,0.841 -0.291,0.206 -0.655,0.315 -1.092,0.319 -0.428,-0.004 -0.788,-0.113 -1.079,-0.319 -0.29,-0.207 -0.529,-0.489 -0.706,-0.841 -0.178,-0.351 -0.316,-0.743 -0.409,-1.18 -0.093,-0.436 -0.153,-0.884 -0.185,-1.345 -0.033,-0.465 -0.049,-0.905 -0.045,-1.333 z m 18.267,-5.576 c -0.142,-0.045 -0.344,-0.101 -0.61,-0.174 -0.271,-0.073 -0.582,-0.137 -0.942,-0.194 -0.359,-0.06 -0.747,-0.089 -1.163,-0.093 -0.72,0.004 -1.338,0.093 -1.851,0.275 -0.513,0.178 -0.929,0.42 -1.256,0.731 -0.324,0.312 -0.562,0.663 -0.716,1.059 -0.153,0.396 -0.226,0.816 -0.226,1.256 0.004,0.469 0.101,0.885 0.291,1.249 0.186,0.363 0.432,0.691 0.743,0.978 0.308,0.282 0.647,0.545 1.019,0.78 0.367,0.23 0.739,0.452 1.107,0.662 0.372,0.206 0.711,0.416 1.018,0.622 0.311,0.21 0.557,0.433 0.748,0.667 0.185,0.238 0.282,0.501 0.286,0.788 0,0.246 -0.064,0.481 -0.202,0.699 -0.137,0.222 -0.352,0.4 -0.646,0.541 -0.291,0.138 -0.671,0.21 -1.139,0.214 -0.453,-0.004 -0.881,-0.072 -1.277,-0.206 -0.397,-0.133 -0.76,-0.29 -1.083,-0.476 -0.324,-0.186 -0.606,-0.36 -0.84,-0.53 l 0,2.255 c 0.193,0.069 0.436,0.141 0.727,0.218 0.291,0.077 0.634,0.146 1.026,0.202 0.392,0.057 0.832,0.085 1.325,0.089 0.615,0 1.188,-0.065 1.717,-0.198 0.533,-0.133 0.994,-0.34 1.394,-0.622 0.4,-0.279 0.711,-0.639 0.938,-1.083 0.222,-0.44 0.335,-0.97 0.339,-1.588 -0.004,-0.525 -0.101,-0.986 -0.291,-1.382 -0.19,-0.396 -0.444,-0.747 -0.755,-1.046 -0.316,-0.303 -0.659,-0.574 -1.035,-0.808 -0.375,-0.239 -0.747,-0.461 -1.123,-0.667 -0.376,-0.202 -0.719,-0.408 -1.034,-0.61 -0.312,-0.206 -0.566,-0.424 -0.756,-0.659 -0.19,-0.234 -0.287,-0.497 -0.291,-0.792 0.004,-0.291 0.089,-0.525 0.255,-0.703 0.165,-0.177 0.371,-0.307 0.622,-0.388 0.251,-0.084 0.509,-0.121 0.771,-0.121 0.389,0.004 0.752,0.061 1.088,0.17 0.339,0.113 0.658,0.255 0.961,0.424 0.299,0.174 0.586,0.356 0.861,0.546 l 0,-2.085 z m 10.436,11.345 2.351,0 1.528,-4.969 5.769,0 1.528,4.969 2.764,0 -5.6,-16.727 -2.764,0 -5.576,16.727 z m 6.764,-14.327 0.048,0 2.352,7.757 -4.776,0 2.376,-7.757 z m 11.018,14.327 2.448,0 0,-11.539 -2.448,0 0,11.539 z m -0.097,-14.303 2.643,0 0,-2.424 -2.643,0 0,2.424 z m 7.988,14.303 2.448,0 0,-5.285 c 0,-0.771 0.089,-1.41 0.259,-1.919 0.174,-0.509 0.424,-0.913 0.751,-1.204 0.328,-0.295 0.724,-0.509 1.188,-0.638 0.469,-0.129 0.994,-0.202 1.584,-0.214 l 0,-2.546 c -0.525,0.044 -0.978,0.162 -1.365,0.352 -0.384,0.189 -0.72,0.436 -1.003,0.731 -0.282,0.295 -0.533,0.622 -0.751,0.986 -0.218,0.364 -0.424,0.739 -0.614,1.131 l -0.049,0 0,-2.933 -2.448,0 0,11.539 z m 18.073,-1.503 c -0.364,0.17 -0.727,0.291 -1.095,0.372 -0.364,0.077 -0.736,0.113 -1.111,0.113 -0.578,-0.004 -1.087,-0.101 -1.535,-0.291 -0.449,-0.19 -0.837,-0.448 -1.168,-0.776 -0.331,-0.323 -0.61,-0.695 -0.841,-1.111 -0.226,-0.412 -0.412,-0.844 -0.549,-1.297 -0.137,-0.456 -0.238,-0.905 -0.299,-1.345 -0.065,-0.444 -0.093,-0.857 -0.093,-1.241 l 6.909,0 c 0.004,-0.448 -0.032,-0.901 -0.101,-1.349 -0.073,-0.448 -0.202,-0.873 -0.384,-1.277 -0.186,-0.404 -0.444,-0.763 -0.776,-1.078 -0.335,-0.316 -0.759,-0.562 -1.28,-0.744 -0.521,-0.182 -1.152,-0.275 -1.895,-0.279 -0.905,0.004 -1.673,0.142 -2.303,0.412 -0.631,0.275 -1.135,0.659 -1.519,1.152 -0.388,0.493 -0.667,1.078 -0.841,1.749 -0.174,0.671 -0.262,1.41 -0.258,2.214 0.004,1.16 0.157,2.158 0.452,2.986 0.295,0.829 0.707,1.507 1.232,2.032 0.526,0.526 1.14,0.914 1.835,1.16 0.695,0.247 1.446,0.372 2.25,0.368 0.481,0 0.913,-0.029 1.293,-0.077 0.384,-0.052 0.739,-0.129 1.075,-0.226 0.331,-0.097 0.666,-0.214 1.002,-0.352 l 0,-1.115 z m -6.618,-6.691 c 0.008,-0.133 0.032,-0.307 0.077,-0.521 0.044,-0.214 0.113,-0.436 0.21,-0.675 0.097,-0.238 0.23,-0.46 0.404,-0.674 0.169,-0.211 0.388,-0.384 0.65,-0.517 0.267,-0.134 0.586,-0.202 0.962,-0.207 0.452,0.005 0.82,0.101 1.099,0.279 0.283,0.178 0.501,0.408 0.65,0.683 0.15,0.275 0.251,0.558 0.307,0.848 0.053,0.291 0.081,0.554 0.077,0.784 l -4.436,0 z m 17.515,-3.151 c -0.141,-0.045 -0.343,-0.101 -0.61,-0.174 -0.271,-0.073 -0.582,-0.137 -0.941,-0.194 -0.36,-0.06 -0.748,-0.089 -1.164,-0.093 -0.719,0.004 -1.338,0.093 -1.851,0.275 -0.513,0.178 -0.929,0.42 -1.256,0.731 -0.323,0.312 -0.562,0.663 -0.715,1.059 -0.154,0.396 -0.226,0.816 -0.226,1.256 0.003,0.469 0.1,0.885 0.291,1.249 0.185,0.363 0.432,0.691 0.743,0.978 0.307,0.282 0.647,0.545 1.018,0.78 0.368,0.23 0.739,0.452 1.107,0.662 0.372,0.206 0.711,0.416 1.018,0.622 0.311,0.21 0.558,0.433 0.748,0.667 0.186,0.238 0.283,0.501 0.287,0.788 0,0.246 -0.065,0.481 -0.202,0.699 -0.138,0.222 -0.352,0.4 -0.647,0.541 -0.291,0.138 -0.67,0.21 -1.139,0.214 -0.453,-0.004 -0.881,-0.072 -1.277,-0.206 -0.396,-0.133 -0.759,-0.29 -1.083,-0.476 -0.323,-0.186 -0.606,-0.36 -0.84,-0.53 l 0,2.255 c 0.194,0.069 0.436,0.141 0.727,0.218 0.291,0.077 0.635,0.146 1.026,0.202 0.392,0.057 0.833,0.085 1.326,0.089 0.614,0 1.187,-0.065 1.717,-0.198 0.533,-0.133 0.994,-0.34 1.394,-0.622 0.4,-0.279 0.711,-0.639 0.937,-1.083 0.222,-0.44 0.335,-0.97 0.339,-1.588 -0.004,-0.525 -0.101,-0.986 -0.291,-1.382 -0.19,-0.396 -0.444,-0.747 -0.755,-1.046 -0.315,-0.303 -0.659,-0.574 -1.034,-0.808 -0.376,-0.239 -0.748,-0.461 -1.124,-0.667 -0.375,-0.202 -0.719,-0.408 -1.034,-0.61 -0.311,-0.206 -0.565,-0.424 -0.756,-0.659 -0.189,-0.234 -0.286,-0.497 -0.29,-0.792 0.004,-0.291 0.088,-0.525 0.254,-0.703 0.166,-0.177 0.372,-0.307 0.622,-0.388 0.251,-0.084 0.509,-0.121 0.772,-0.121 0.388,0.004 0.752,0.061 1.087,0.17 0.339,0.113 0.658,0.255 0.962,0.424 0.299,0.174 0.585,0.356 0.86,0.546 l 0,-2.085 z m 12.158,11.345 2.202,0 0,-13.624 0.05,0 6.84,13.624 2.76,0 0,-16.727 -2.2,0 0,13.236 -0.05,0 -6.64,-13.236 -2.962,0 0,16.727 z m 21.562,0.267 c 1.13,-0.004 2.08,-0.234 2.84,-0.699 0.75,-0.461 1.32,-1.14 1.7,-2.037 0.39,-0.897 0.58,-1.996 0.58,-3.3 0,-1.306 -0.19,-2.405 -0.58,-3.302 -0.38,-0.897 -0.95,-1.575 -1.7,-2.036 -0.76,-0.464 -1.71,-0.695 -2.84,-0.699 -1.13,0.004 -2.07,0.235 -2.83,0.699 -0.75,0.461 -1.32,1.139 -1.69,2.036 -0.38,0.897 -0.57,1.996 -0.57,3.302 0,1.304 0.19,2.403 0.57,3.3 0.37,0.897 0.94,1.576 1.69,2.037 0.76,0.465 1.7,0.695 2.83,0.699 z m -2.42,-6.036 c -0.01,-0.429 0.01,-0.873 0.04,-1.334 0.03,-0.46 0.09,-0.909 0.19,-1.345 0.09,-0.437 0.23,-0.829 0.41,-1.18 0.17,-0.351 0.41,-0.635 0.7,-0.84 0.29,-0.211 0.65,-0.315 1.08,-0.32 0.44,0.005 0.8,0.109 1.09,0.32 0.3,0.205 0.54,0.489 0.72,0.84 0.18,0.351 0.31,0.743 0.41,1.18 0.09,0.436 0.15,0.885 0.19,1.345 0.03,0.461 0.04,0.905 0.04,1.334 0,0.428 -0.01,0.868 -0.04,1.333 -0.04,0.461 -0.1,0.909 -0.19,1.345 -0.1,0.437 -0.23,0.829 -0.41,1.18 -0.18,0.352 -0.42,0.634 -0.72,0.841 -0.29,0.206 -0.65,0.315 -1.09,0.319 -0.43,-0.004 -0.79,-0.113 -1.08,-0.319 -0.29,-0.207 -0.53,-0.489 -0.7,-0.841 -0.18,-0.351 -0.32,-0.743 -0.41,-1.18 -0.1,-0.436 -0.16,-0.884 -0.19,-1.345 -0.03,-0.465 -0.05,-0.905 -0.04,-1.333 z m 12.01,5.769 2.45,0 0,-5.285 c 0,-0.771 0.09,-1.41 0.26,-1.919 0.17,-0.509 0.42,-0.913 0.75,-1.204 0.33,-0.295 0.72,-0.509 1.19,-0.638 0.46,-0.129 0.99,-0.202 1.58,-0.214 l 0,-2.546 c -0.53,0.044 -0.98,0.162 -1.37,0.352 -0.38,0.189 -0.72,0.436 -1,0.731 -0.28,0.295 -0.53,0.622 -0.75,0.986 -0.22,0.364 -0.42,0.739 -0.61,1.131 l -0.05,0 0,-2.933 -2.45,0 0,11.539 z m 14.05,0.267 c 1.13,-0.004 2.07,-0.234 2.83,-0.699 0.76,-0.461 1.33,-1.14 1.71,-2.037 0.38,-0.897 0.57,-1.996 0.57,-3.3 0,-1.306 -0.19,-2.405 -0.57,-3.302 -0.38,-0.897 -0.95,-1.575 -1.71,-2.036 -0.76,-0.464 -1.7,-0.695 -2.83,-0.699 -1.13,0.004 -2.07,0.235 -2.83,0.699 -0.76,0.461 -1.32,1.139 -1.7,2.036 -0.37,0.897 -0.56,1.996 -0.56,3.302 0,1.304 0.19,2.403 0.56,3.3 0.38,0.897 0.94,1.576 1.7,2.037 0.76,0.465 1.7,0.695 2.83,0.699 z m -2.43,-6.036 c 0,-0.429 0.02,-0.873 0.05,-1.334 0.03,-0.46 0.09,-0.909 0.18,-1.345 0.1,-0.437 0.23,-0.829 0.41,-1.18 0.18,-0.351 0.42,-0.635 0.71,-0.84 0.29,-0.211 0.65,-0.315 1.08,-0.32 0.43,0.005 0.8,0.109 1.09,0.32 0.29,0.205 0.53,0.489 0.71,0.84 0.18,0.351 0.32,0.743 0.41,1.18 0.09,0.436 0.16,0.885 0.19,1.345 0.03,0.461 0.05,0.905 0.05,1.334 0,0.428 -0.02,0.868 -0.05,1.333 -0.03,0.461 -0.1,0.909 -0.19,1.345 -0.09,0.437 -0.23,0.829 -0.41,1.18 -0.18,0.352 -0.42,0.634 -0.71,0.841 -0.29,0.206 -0.66,0.315 -1.09,0.319 -0.43,-0.004 -0.79,-0.113 -1.08,-0.319 -0.29,-0.207 -0.53,-0.489 -0.71,-0.841 -0.18,-0.351 -0.31,-0.743 -0.41,-1.18 -0.09,-0.436 -0.15,-0.884 -0.18,-1.345 -0.03,-0.465 -0.05,-0.905 -0.05,-1.333 z m 20.31,4.266 c -0.37,0.17 -0.73,0.291 -1.1,0.372 -0.36,0.077 -0.73,0.113 -1.11,0.113 -0.58,-0.004 -1.09,-0.101 -1.53,-0.291 -0.45,-0.19 -0.84,-0.448 -1.17,-0.776 -0.33,-0.323 -0.61,-0.695 -0.84,-1.111 -0.23,-0.412 -0.41,-0.844 -0.55,-1.297 -0.14,-0.456 -0.24,-0.905 -0.3,-1.345 -0.07,-0.444 -0.09,-0.857 -0.09,-1.241 l 6.9,0 c 0.01,-0.448 -0.03,-0.901 -0.1,-1.349 -0.07,-0.448 -0.2,-0.873 -0.38,-1.277 -0.19,-0.404 -0.44,-0.763 -0.78,-1.078 -0.33,-0.316 -0.76,-0.562 -1.28,-0.744 -0.52,-0.182 -1.15,-0.275 -1.89,-0.279 -0.91,0.004 -1.67,0.142 -2.3,0.412 -0.64,0.275 -1.14,0.659 -1.52,1.152 -0.39,0.493 -0.67,1.078 -0.84,1.749 -0.18,0.671 -0.27,1.41 -0.26,2.214 0,1.16 0.15,2.158 0.45,2.986 0.29,0.829 0.71,1.507 1.23,2.032 0.53,0.526 1.14,0.914 1.84,1.16 0.69,0.247 1.44,0.372 2.25,0.368 0.48,0 0.91,-0.029 1.29,-0.077 0.38,-0.052 0.74,-0.129 1.07,-0.226 0.34,-0.097 0.67,-0.214 1.01,-0.352 l 0,-1.115 z m -6.62,-6.691 c 0.01,-0.133 0.03,-0.307 0.08,-0.521 0.04,-0.214 0.11,-0.436 0.21,-0.675 0.09,-0.238 0.23,-0.46 0.4,-0.674 0.17,-0.211 0.39,-0.384 0.65,-0.517 0.27,-0.134 0.59,-0.202 0.96,-0.207 0.45,0.005 0.82,0.101 1.1,0.279 0.28,0.178 0.5,0.408 0.65,0.683 0.15,0.275 0.25,0.558 0.31,0.848 0.05,0.291 0.08,0.554 0.07,0.784 l -4.43,0 z"
             inkscape:connector-curvature="0"
             id="path28"
             style="fill:#2c2c2b;stroke:none" />
          <path
             d="m 1073.54,448.514 c -0.14,-0.045 -0.34,-0.101 -0.61,-0.174 -0.27,-0.073 -0.58,-0.137 -0.94,-0.194 -0.36,-0.06 -0.75,-0.089 -1.16,-0.093 -0.72,0.004 -1.34,0.093 -1.85,0.275 -0.52,0.178 -0.93,0.42 -1.26,0.731 -0.32,0.312 -0.56,0.663 -0.71,1.059 -0.16,0.396 -0.23,0.816 -0.23,1.256 0,0.469 0.1,0.885 0.29,1.249 0.19,0.363 0.43,0.691 0.74,0.978 0.31,0.282 0.65,0.545 1.02,0.78 0.37,0.23 0.74,0.452 1.11,0.662 0.37,0.206 0.71,0.416 1.02,0.622 0.31,0.21 0.56,0.433 0.75,0.667 0.18,0.238 0.28,0.501 0.28,0.788 0,0.246 -0.06,0.481 -0.2,0.699 -0.14,0.222 -0.35,0.4 -0.65,0.541 -0.29,0.138 -0.67,0.21 -1.14,0.214 -0.45,-0.004 -0.88,-0.072 -1.27,-0.206 -0.4,-0.133 -0.76,-0.29 -1.09,-0.476 -0.32,-0.186 -0.6,-0.36 -0.84,-0.53 l 0,2.255 c 0.2,0.069 0.44,0.141 0.73,0.218 0.29,0.077 0.64,0.146 1.03,0.202 0.39,0.057 0.83,0.085 1.32,0.089 0.62,0 1.19,-0.065 1.72,-0.198 0.53,-0.133 0.99,-0.34 1.39,-0.622 0.4,-0.279 0.72,-0.639 0.94,-1.083 0.22,-0.44 0.34,-0.97 0.34,-1.588 0,-0.525 -0.1,-0.986 -0.29,-1.382 -0.19,-0.396 -0.44,-0.747 -0.76,-1.046 -0.31,-0.303 -0.65,-0.574 -1.03,-0.808 -0.38,-0.239 -0.75,-0.461 -1.12,-0.667 -0.38,-0.202 -0.72,-0.408 -1.04,-0.61 -0.31,-0.206 -0.56,-0.424 -0.75,-0.659 -0.19,-0.234 -0.29,-0.497 -0.29,-0.792 0,-0.291 0.09,-0.525 0.25,-0.703 0.17,-0.177 0.37,-0.307 0.62,-0.388 0.25,-0.084 0.51,-0.121 0.77,-0.121 0.39,0.004 0.76,0.061 1.09,0.17 0.34,0.113 0.66,0.255 0.96,0.424 0.3,0.174 0.59,0.356 0.86,0.546 l 0,-2.085 z m 11.34,10.036 c -0.18,0.073 -0.36,0.121 -0.56,0.154 -0.19,0.028 -0.39,0.04 -0.58,0.04 -0.39,0 -0.71,-0.053 -0.94,-0.153 -0.23,-0.106 -0.41,-0.263 -0.53,-0.469 -0.11,-0.21 -0.19,-0.473 -0.23,-0.788 -0.04,-0.315 -0.05,-0.687 -0.05,-1.111 l 0,-6.643 3.15,0 0,-1.26 -3.15,0 0,-4.194 -2.45,1.479 0,2.715 -1.84,0 0,1.26 1.84,0 0,7.613 c 0.01,0.739 0.15,1.321 0.44,1.753 0.28,0.429 0.69,0.731 1.23,0.913 0.54,0.182 1.2,0.271 1.97,0.267 0.28,0 0.58,-0.012 0.88,-0.04 0.3,-0.025 0.57,-0.069 0.82,-0.13 l 0,-1.406 z m 12.45,-0.194 c -0.37,0.17 -0.73,0.291 -1.1,0.372 -0.36,0.077 -0.73,0.113 -1.11,0.113 -0.58,-0.004 -1.09,-0.101 -1.54,-0.291 -0.44,-0.19 -0.83,-0.448 -1.16,-0.776 -0.33,-0.323 -0.61,-0.695 -0.84,-1.111 -0.23,-0.412 -0.42,-0.844 -0.55,-1.297 -0.14,-0.456 -0.24,-0.905 -0.3,-1.345 -0.07,-0.444 -0.1,-0.857 -0.1,-1.241 l 6.91,0 c 0.01,-0.448 -0.03,-0.901 -0.1,-1.349 -0.07,-0.448 -0.2,-0.873 -0.38,-1.277 -0.19,-0.404 -0.45,-0.763 -0.78,-1.078 -0.33,-0.316 -0.76,-0.562 -1.28,-0.744 -0.52,-0.182 -1.15,-0.275 -1.89,-0.279 -0.91,0.004 -1.68,0.142 -2.31,0.412 -0.63,0.275 -1.13,0.659 -1.51,1.152 -0.39,0.493 -0.67,1.078 -0.85,1.749 -0.17,0.671 -0.26,1.41 -0.25,2.214 0,1.16 0.15,2.158 0.45,2.986 0.29,0.829 0.71,1.507 1.23,2.032 0.53,0.526 1.14,0.914 1.84,1.16 0.69,0.247 1.44,0.372 2.25,0.368 0.48,0 0.91,-0.029 1.29,-0.077 0.38,-0.052 0.74,-0.129 1.07,-0.226 0.33,-0.097 0.67,-0.214 1.01,-0.352 l 0,-1.115 z m -6.62,-6.691 c 0.01,-0.133 0.03,-0.307 0.07,-0.521 0.05,-0.214 0.12,-0.436 0.21,-0.675 0.1,-0.238 0.23,-0.46 0.41,-0.674 0.17,-0.211 0.39,-0.384 0.65,-0.517 0.27,-0.134 0.58,-0.202 0.96,-0.207 0.45,0.005 0.82,0.101 1.1,0.279 0.28,0.178 0.5,0.408 0.65,0.683 0.15,0.275 0.25,0.558 0.31,0.848 0.05,0.291 0.08,0.554 0.07,0.784 l -4.43,0 z"
             inkscape:connector-curvature="0"
             id="path30"
             style="fill:#2c2c2b;stroke:none" />
        </g>
        <g
           id="g32">
          <path
             d="m 876.781,472.366 c -0.248,-0.134 -0.499,-0.275 -0.747,-0.42 -0.251,-0.143 -0.478,-0.304 -0.689,-0.479 -0.209,-0.172 -0.376,-0.367 -0.504,-0.589 -0.125,-0.219 -0.193,-0.469 -0.196,-0.752 0,-0.382 0.091,-0.724 0.278,-1.024 0.183,-0.298 0.469,-0.534 0.857,-0.709 0.388,-0.172 0.884,-0.26 1.491,-0.262 0.37,0.002 0.711,0.026 1.027,0.072 0.315,0.047 0.589,0.099 0.822,0.163 0.236,0.062 0.417,0.117 0.549,0.167 l 0,-1.103 c -0.143,-0.037 -0.345,-0.078 -0.599,-0.125 -0.253,-0.044 -0.539,-0.085 -0.851,-0.12 -0.312,-0.032 -0.627,-0.05 -0.948,-0.052 -0.575,0.002 -1.068,0.067 -1.476,0.192 -0.409,0.126 -0.747,0.289 -1.018,0.493 -0.269,0.204 -0.484,0.426 -0.642,0.665 -0.16,0.239 -0.28,0.473 -0.356,0.706 -0.079,0.231 -0.128,0.438 -0.152,0.619 -0.023,0.181 -0.035,0.318 -0.032,0.405 0.003,0.362 0.059,0.683 0.163,0.963 0.109,0.277 0.252,0.525 0.432,0.738 0.181,0.213 0.383,0.402 0.607,0.565 0.225,0.167 0.458,0.316 0.695,0.45 0.239,0.134 0.472,0.26 0.694,0.382 l 0.997,0.542 c 0.149,0.082 0.318,0.173 0.508,0.272 0.186,0.099 0.376,0.213 0.568,0.344 0.19,0.128 0.368,0.283 0.531,0.458 0.164,0.175 0.292,0.382 0.394,0.621 0.099,0.237 0.149,0.511 0.152,0.826 -0.003,0.356 -0.082,0.671 -0.239,0.945 -0.155,0.277 -0.365,0.508 -0.63,0.697 -0.269,0.189 -0.569,0.336 -0.902,0.432 -0.335,0.099 -0.685,0.149 -1.047,0.149 -0.534,-0.003 -0.986,-0.027 -1.354,-0.068 -0.367,-0.043 -0.664,-0.093 -0.898,-0.151 -0.233,-0.056 -0.417,-0.105 -0.548,-0.149 l 0,1.068 c 0.093,0.02 0.248,0.052 0.467,0.099 0.219,0.046 0.501,0.09 0.845,0.134 0.345,0.041 0.753,0.061 1.226,0.064 0.42,0 0.828,-0.035 1.227,-0.108 0.403,-0.073 0.776,-0.189 1.126,-0.35 0.35,-0.16 0.657,-0.373 0.922,-0.636 0.266,-0.259 0.476,-0.58 0.625,-0.956 0.151,-0.38 0.227,-0.82 0.23,-1.328 -0.003,-0.472 -0.079,-0.883 -0.224,-1.225 -0.147,-0.344 -0.342,-0.639 -0.59,-0.889 -0.245,-0.249 -0.522,-0.467 -0.826,-0.657 -0.303,-0.189 -0.615,-0.37 -0.933,-0.537 l -1.032,-0.542 z m 10.611,7.036 0.875,0 0,-5.688 c 0.002,-0.228 -0.006,-0.47 -0.024,-0.727 -0.02,-0.254 -0.07,-0.508 -0.155,-0.755 -0.081,-0.248 -0.215,-0.476 -0.399,-0.677 -0.186,-0.204 -0.444,-0.367 -0.77,-0.49 -0.33,-0.123 -0.75,-0.184 -1.26,-0.187 -0.549,0.006 -1.01,0.079 -1.38,0.219 -0.37,0.14 -0.665,0.324 -0.881,0.545 -0.219,0.225 -0.376,0.461 -0.473,0.712 -0.093,0.251 -0.139,0.487 -0.137,0.712 l 1.068,0 c 0.032,-0.169 0.082,-0.333 0.146,-0.49 0.064,-0.161 0.158,-0.304 0.28,-0.435 0.125,-0.128 0.292,-0.23 0.502,-0.306 0.21,-0.076 0.478,-0.117 0.805,-0.117 0.169,-0.003 0.341,0.015 0.522,0.047 0.178,0.035 0.35,0.096 0.516,0.183 0.164,0.085 0.307,0.211 0.429,0.368 0.123,0.158 0.21,0.362 0.266,0.61 0.017,0.078 0.032,0.189 0.04,0.341 0.009,0.149 0.018,0.312 0.021,0.49 0.005,0.178 0.005,0.35 0.009,0.516 0,0.167 0,0.307 0,0.421 -0.152,0 -0.348,0.006 -0.587,0.014 -0.242,0.006 -0.51,0.026 -0.805,0.056 -0.295,0.029 -0.598,0.078 -0.91,0.149 -0.309,0.066 -0.61,0.163 -0.898,0.285 -0.292,0.123 -0.552,0.28 -0.782,0.476 -0.233,0.192 -0.417,0.429 -0.551,0.705 -0.137,0.281 -0.208,0.61 -0.211,0.992 -0.002,0.237 0.032,0.482 0.1,0.738 0.07,0.257 0.183,0.496 0.344,0.721 0.157,0.224 0.376,0.408 0.65,0.548 0.275,0.14 0.616,0.211 1.024,0.216 0.379,-0.003 0.715,-0.052 1.003,-0.148 0.29,-0.097 0.537,-0.219 0.744,-0.365 0.211,-0.143 0.383,-0.295 0.519,-0.447 0.138,-0.151 0.246,-0.288 0.324,-0.405 l 0.036,0 0,1.173 z m 0,-3.868 c 0,0.318 -0.015,0.586 -0.041,0.802 -0.029,0.218 -0.07,0.411 -0.129,0.574 -0.055,0.167 -0.128,0.324 -0.216,0.479 -0.131,0.213 -0.3,0.406 -0.51,0.581 -0.213,0.171 -0.449,0.312 -0.715,0.414 -0.265,0.105 -0.545,0.157 -0.84,0.16 -0.218,0 -0.423,-0.047 -0.61,-0.134 -0.186,-0.09 -0.338,-0.219 -0.454,-0.391 -0.117,-0.169 -0.176,-0.373 -0.178,-0.612 0.002,-0.318 0.075,-0.596 0.224,-0.832 0.146,-0.236 0.348,-0.432 0.607,-0.583 0.259,-0.155 0.557,-0.269 0.895,-0.345 0.342,-0.075 0.704,-0.113 1.091,-0.113 l 0.876,0 z m 4.66,3.868 0.875,0 0,-3.186 c 0,-0.458 0.044,-0.904 0.132,-1.342 0.084,-0.437 0.207,-0.846 0.364,-1.224 0.157,-0.38 0.344,-0.715 0.563,-1.004 0.216,-0.289 0.458,-0.517 0.724,-0.68 0.262,-0.163 0.545,-0.245 0.843,-0.248 0.291,0.003 0.53,0.059 0.717,0.17 0.187,0.11 0.333,0.256 0.435,0.44 0.105,0.181 0.177,0.379 0.224,0.595 0.044,0.216 0.073,0.432 0.082,0.645 0.009,0.213 0.014,0.408 0.012,0.583 l 0,5.251 0.875,0 0,-6.161 c -0.003,-0.417 -0.064,-0.77 -0.181,-1.053 -0.12,-0.283 -0.269,-0.511 -0.452,-0.686 -0.184,-0.175 -0.377,-0.306 -0.578,-0.396 -0.201,-0.091 -0.388,-0.152 -0.56,-0.184 -0.172,-0.032 -0.303,-0.047 -0.399,-0.044 -0.4,0.003 -0.747,0.056 -1.036,0.155 -0.289,0.102 -0.534,0.236 -0.732,0.402 -0.199,0.167 -0.362,0.348 -0.491,0.546 -0.128,0.198 -0.233,0.396 -0.311,0.595 -0.079,0.198 -0.146,0.379 -0.196,0.543 l -0.035,0 0,-2.048 -0.875,0 0,8.331 z m 13.954,0 0.962,0 0,-11.114 0.036,0 3.57,11.114 1.103,0 3.552,-11.114 0.036,0 0,11.114 0.962,0 0,-12.077 -1.698,0 -3.378,10.571 -0.034,0 -3.378,-10.571 -1.733,0 0,12.077 z m 18.102,0 0.875,0 0,-5.688 c 0.003,-0.228 -0.006,-0.47 -0.023,-0.727 -0.021,-0.254 -0.07,-0.508 -0.155,-0.755 -0.082,-0.248 -0.216,-0.476 -0.4,-0.677 -0.186,-0.204 -0.443,-0.367 -0.77,-0.49 -0.329,-0.123 -0.749,-0.184 -1.26,-0.187 -0.548,0.006 -1.009,0.079 -1.379,0.219 -0.371,0.14 -0.666,0.324 -0.881,0.545 -0.219,0.225 -0.377,0.461 -0.473,0.712 -0.093,0.251 -0.14,0.487 -0.137,0.712 l 1.067,0 c 0.032,-0.169 0.082,-0.333 0.146,-0.49 0.065,-0.161 0.158,-0.304 0.28,-0.435 0.126,-0.128 0.292,-0.23 0.502,-0.306 0.21,-0.076 0.478,-0.117 0.805,-0.117 0.169,-0.003 0.342,0.015 0.522,0.047 0.178,0.035 0.35,0.096 0.516,0.183 0.164,0.085 0.307,0.211 0.429,0.368 0.123,0.158 0.211,0.362 0.266,0.61 0.017,0.078 0.032,0.189 0.041,0.341 0.008,0.149 0.017,0.312 0.02,0.49 0.006,0.178 0.006,0.35 0.009,0.516 0,0.167 0,0.307 0,0.421 -0.152,0 -0.347,0.006 -0.586,0.014 -0.243,0.006 -0.511,0.026 -0.806,0.056 -0.294,0.029 -0.598,0.078 -0.91,0.149 -0.309,0.066 -0.609,0.163 -0.898,0.285 -0.292,0.123 -0.551,0.28 -0.782,0.476 -0.233,0.192 -0.417,0.429 -0.551,0.705 -0.137,0.281 -0.207,0.61 -0.21,0.992 -0.003,0.237 0.032,0.482 0.099,0.738 0.07,0.257 0.184,0.496 0.344,0.721 0.158,0.224 0.377,0.408 0.651,0.548 0.274,0.14 0.615,0.211 1.024,0.216 0.379,-0.003 0.714,-0.052 1.003,-0.148 0.289,-0.097 0.537,-0.219 0.744,-0.365 0.21,-0.143 0.382,-0.295 0.519,-0.447 0.137,-0.151 0.245,-0.288 0.324,-0.405 l 0.035,0 0,1.173 z m 0,-3.868 c 0,0.318 -0.015,0.586 -0.041,0.802 -0.029,0.218 -0.07,0.411 -0.128,0.574 -0.056,0.167 -0.129,0.324 -0.216,0.479 -0.131,0.213 -0.301,0.406 -0.511,0.581 -0.213,0.171 -0.449,0.312 -0.714,0.414 -0.266,0.105 -0.546,0.157 -0.84,0.16 -0.219,0 -0.423,-0.047 -0.61,-0.134 -0.187,-0.09 -0.338,-0.219 -0.455,-0.391 -0.117,-0.169 -0.175,-0.373 -0.178,-0.612 0.003,-0.318 0.076,-0.596 0.225,-0.832 0.145,-0.236 0.347,-0.432 0.606,-0.583 0.26,-0.155 0.557,-0.269 0.896,-0.345 0.341,-0.075 0.703,-0.113 1.091,-0.113 l 0.875,0 z m 4.678,3.868 0.875,0 0,-3.361 c -0.003,-0.335 0.021,-0.691 0.064,-1.07 0.044,-0.38 0.123,-0.756 0.234,-1.126 0.111,-0.371 0.268,-0.706 0.469,-1.012 0.201,-0.304 0.458,-0.546 0.773,-0.73 0.313,-0.181 0.691,-0.277 1.138,-0.28 l 0,-0.945 c -0.511,0.003 -0.94,0.091 -1.29,0.26 -0.347,0.169 -0.63,0.396 -0.845,0.682 -0.219,0.283 -0.388,0.599 -0.508,0.949 l -0.035,0 0,-1.698 -0.875,0 0,8.331 z m 10.051,-0.805 c -0.073,0.023 -0.143,0.046 -0.21,0.073 -0.067,0.023 -0.152,0.043 -0.251,0.058 -0.099,0.017 -0.23,0.026 -0.397,0.026 -0.338,-0.003 -0.601,-0.058 -0.79,-0.166 -0.187,-0.108 -0.324,-0.245 -0.406,-0.411 -0.081,-0.167 -0.131,-0.339 -0.149,-0.517 -0.017,-0.178 -0.023,-0.338 -0.02,-0.481 l 0,-5.268 2.223,0 0,-0.84 -2.223,0 0,-2.503 -0.875,0.577 0,1.926 -1.33,0 0,0.84 1.33,0 0,5.635 c -0.003,0.129 0.006,0.281 0.02,0.456 0.018,0.175 0.062,0.352 0.132,0.536 0.069,0.187 0.184,0.359 0.341,0.516 0.154,0.161 0.373,0.289 0.65,0.388 0.277,0.1 0.631,0.149 1.062,0.152 0.149,0 0.298,-0.005 0.446,-0.015 0.149,-0.011 0.298,-0.028 0.447,-0.055 l 0,-0.927 z m 2.77,-8.979 0.945,0 1.068,-2.083 -1.296,0 -0.717,2.083 z m 0.035,9.784 0.875,0 0,-8.331 -0.875,0 0,8.331 z m 4.73,0 0.875,0 0,-3.186 c 0,-0.458 0.044,-0.904 0.132,-1.342 0.084,-0.437 0.207,-0.846 0.364,-1.224 0.157,-0.38 0.344,-0.715 0.563,-1.004 0.216,-0.289 0.458,-0.517 0.724,-0.68 0.262,-0.163 0.545,-0.245 0.843,-0.248 0.291,0.003 0.531,0.059 0.717,0.17 0.187,0.11 0.333,0.256 0.435,0.44 0.105,0.181 0.178,0.379 0.224,0.595 0.044,0.216 0.073,0.432 0.082,0.645 0.009,0.213 0.015,0.408 0.012,0.583 l 0,5.251 0.875,0 0,-6.161 c -0.003,-0.417 -0.064,-0.77 -0.181,-1.053 -0.12,-0.283 -0.269,-0.511 -0.452,-0.686 -0.184,-0.175 -0.377,-0.306 -0.578,-0.396 -0.201,-0.091 -0.388,-0.152 -0.56,-0.184 -0.172,-0.032 -0.303,-0.047 -0.399,-0.044 -0.4,0.003 -0.747,0.056 -1.036,0.155 -0.289,0.102 -0.534,0.236 -0.732,0.402 -0.199,0.167 -0.362,0.348 -0.49,0.546 -0.129,0.198 -0.234,0.396 -0.312,0.595 -0.079,0.198 -0.146,0.379 -0.196,0.543 l -0.035,0 0,-2.048 -0.875,0 0,8.331 z m 14.882,2.38 0.892,0 0,-15.699 -0.892,0 0,15.699 z m 11.345,-2.38 1.051,0 0,-11.114 2.87,0 0,-0.963 -6.791,0 0,0.963 2.87,0 0,11.114 z m 5.973,0 0.875,0 0,-3.361 c -0.002,-0.335 0.021,-0.691 0.065,-1.07 0.043,-0.38 0.122,-0.756 0.233,-1.126 0.111,-0.371 0.269,-0.706 0.47,-1.012 0.201,-0.304 0.458,-0.546 0.773,-0.73 0.312,-0.181 0.691,-0.277 1.138,-0.28 l 0,-0.945 c -0.511,0.003 -0.94,0.091 -1.29,0.26 -0.347,0.169 -0.63,0.396 -0.846,0.682 -0.219,0.283 -0.388,0.599 -0.507,0.949 l -0.036,0 0,-1.698 -0.875,0 0,8.331 z m 11.486,-0.875 c -0.143,0.046 -0.3,0.087 -0.475,0.122 -0.175,0.032 -0.353,0.059 -0.537,0.076 -0.181,0.02 -0.35,0.029 -0.51,0.029 -0.528,-0.003 -0.978,-0.078 -1.342,-0.221 -0.368,-0.143 -0.668,-0.333 -0.904,-0.569 -0.237,-0.234 -0.418,-0.491 -0.552,-0.768 -0.131,-0.277 -0.224,-0.551 -0.282,-0.819 -0.059,-0.272 -0.094,-0.514 -0.109,-0.726 -0.011,-0.213 -0.017,-0.377 -0.014,-0.485 0,-0.14 0,-0.28 0.003,-0.423 0,-0.14 0.006,-0.286 0.014,-0.434 l 4.883,0 0,-0.438 c 0.004,-0.356 -0.046,-0.709 -0.145,-1.059 -0.1,-0.35 -0.26,-0.671 -0.479,-0.962 -0.219,-0.292 -0.504,-0.525 -0.86,-0.7 -0.356,-0.175 -0.788,-0.266 -1.298,-0.272 -0.677,0 -1.252,0.155 -1.724,0.461 -0.47,0.306 -0.829,0.764 -1.074,1.377 -0.245,0.612 -0.367,1.376 -0.37,2.293 0.003,0.977 0.154,1.805 0.458,2.488 0.303,0.682 0.749,1.201 1.336,1.557 0.589,0.356 1.31,0.537 2.161,0.54 0.35,0 0.677,-0.02 0.983,-0.058 0.304,-0.038 0.584,-0.09 0.837,-0.152 l 0,-0.857 z m -4.602,-5.058 c 0.02,-0.111 0.052,-0.243 0.099,-0.391 0.044,-0.149 0.11,-0.304 0.198,-0.461 0.087,-0.158 0.204,-0.304 0.35,-0.438 0.143,-0.137 0.324,-0.248 0.543,-0.332 0.218,-0.082 0.481,-0.126 0.787,-0.129 0.28,0.003 0.519,0.047 0.72,0.134 0.202,0.085 0.368,0.199 0.503,0.336 0.131,0.137 0.239,0.286 0.314,0.446 0.079,0.158 0.135,0.31 0.167,0.458 0.032,0.146 0.046,0.272 0.046,0.377 l -3.727,0 z m 9.753,0.927 c -0.178,-0.082 -0.359,-0.166 -0.546,-0.254 -0.183,-0.084 -0.356,-0.183 -0.513,-0.294 -0.157,-0.108 -0.286,-0.24 -0.382,-0.391 -0.099,-0.155 -0.149,-0.336 -0.152,-0.549 0,-0.218 0.067,-0.417 0.202,-0.598 0.134,-0.177 0.332,-0.32 0.595,-0.428 0.262,-0.105 0.586,-0.161 0.971,-0.164 0.306,0.003 0.586,0.023 0.843,0.067 0.256,0.044 0.481,0.091 0.671,0.146 0.192,0.053 0.341,0.099 0.446,0.138 l 0,-0.911 c -0.123,-0.032 -0.28,-0.067 -0.475,-0.111 -0.196,-0.044 -0.423,-0.081 -0.683,-0.116 -0.26,-0.033 -0.551,-0.05 -0.872,-0.053 -0.651,0.003 -1.178,0.102 -1.584,0.292 -0.405,0.189 -0.7,0.452 -0.887,0.782 -0.186,0.329 -0.28,0.708 -0.277,1.131 0.006,0.33 0.076,0.613 0.21,0.844 0.135,0.233 0.31,0.428 0.522,0.589 0.213,0.16 0.441,0.3 0.677,0.417 0.239,0.114 0.464,0.221 0.674,0.321 l 0.7,0.332 c 0.134,0.061 0.286,0.131 0.455,0.213 0.166,0.085 0.329,0.187 0.487,0.306 0.155,0.123 0.286,0.272 0.388,0.447 0.102,0.175 0.155,0.382 0.158,0.627 0,0.306 -0.076,0.578 -0.228,0.814 -0.152,0.236 -0.385,0.42 -0.7,0.554 -0.315,0.137 -0.717,0.204 -1.208,0.207 -0.233,0 -0.466,-0.018 -0.697,-0.05 -0.23,-0.032 -0.446,-0.072 -0.644,-0.119 -0.202,-0.047 -0.377,-0.09 -0.525,-0.134 -0.146,-0.044 -0.254,-0.076 -0.321,-0.099 l 0,0.892 c 0.107,0.035 0.244,0.073 0.411,0.114 0.166,0.041 0.35,0.078 0.551,0.114 0.201,0.035 0.409,0.064 0.619,0.087 0.21,0.024 0.411,0.035 0.606,0.035 0.63,-0.003 1.156,-0.079 1.57,-0.222 0.414,-0.143 0.738,-0.338 0.974,-0.58 0.236,-0.239 0.403,-0.51 0.502,-0.808 0.096,-0.298 0.143,-0.601 0.14,-0.91 -0.003,-0.373 -0.064,-0.685 -0.184,-0.939 -0.12,-0.254 -0.274,-0.464 -0.467,-0.633 -0.195,-0.167 -0.405,-0.31 -0.633,-0.426 -0.23,-0.117 -0.455,-0.228 -0.677,-0.33 l -0.717,-0.35 z m 14.341,5.006 0.87,0 0,-12.077 -0.87,0 0,5.286 -0.04,0 c -0.05,-0.21 -0.14,-0.414 -0.26,-0.619 -0.12,-0.204 -0.27,-0.388 -0.46,-0.557 -0.19,-0.166 -0.42,-0.3 -0.67,-0.402 -0.26,-0.099 -0.55,-0.152 -0.88,-0.155 -0.44,0.003 -0.83,0.091 -1.16,0.26 -0.33,0.166 -0.61,0.4 -0.84,0.691 -0.23,0.292 -0.42,0.624 -0.57,1 -0.14,0.374 -0.24,0.768 -0.31,1.182 -0.07,0.414 -0.1,0.828 -0.1,1.243 0,0.886 0.09,1.651 0.28,2.298 0.19,0.648 0.5,1.15 0.92,1.506 0.42,0.352 0.98,0.531 1.67,0.536 0.4,-0.003 0.75,-0.064 1.03,-0.178 0.28,-0.113 0.51,-0.262 0.69,-0.44 0.19,-0.181 0.33,-0.371 0.44,-0.572 0.1,-0.199 0.18,-0.385 0.22,-0.56 l 0.04,0 0,1.558 z m -4.24,-4.113 c 0,-0.283 0.02,-0.587 0.06,-0.911 0.04,-0.32 0.11,-0.638 0.2,-0.95 0.09,-0.315 0.21,-0.599 0.36,-0.858 0.15,-0.257 0.34,-0.461 0.56,-0.616 0.22,-0.154 0.48,-0.233 0.78,-0.236 0.33,0.003 0.62,0.073 0.86,0.216 0.25,0.14 0.47,0.33 0.65,0.572 0.18,0.242 0.32,0.519 0.44,0.826 0.11,0.309 0.19,0.632 0.25,0.968 0.05,0.338 0.08,0.673 0.08,1.006 0,0.292 -0.03,0.595 -0.09,0.91 -0.06,0.316 -0.15,0.624 -0.27,0.925 -0.12,0.298 -0.27,0.569 -0.45,0.814 -0.18,0.242 -0.39,0.435 -0.64,0.578 -0.25,0.145 -0.53,0.218 -0.85,0.221 -0.34,-0.003 -0.63,-0.076 -0.86,-0.216 -0.23,-0.14 -0.42,-0.329 -0.57,-0.572 -0.14,-0.239 -0.25,-0.507 -0.32,-0.807 -0.08,-0.301 -0.13,-0.61 -0.15,-0.931 -0.03,-0.321 -0.04,-0.636 -0.04,-0.939 z m 14.01,3.238 c -0.14,0.046 -0.3,0.087 -0.48,0.122 -0.17,0.032 -0.35,0.059 -0.53,0.076 -0.18,0.02 -0.35,0.029 -0.51,0.029 -0.53,-0.003 -0.98,-0.078 -1.35,-0.221 -0.36,-0.143 -0.66,-0.333 -0.9,-0.569 -0.24,-0.234 -0.42,-0.491 -0.55,-0.768 -0.13,-0.277 -0.23,-0.551 -0.28,-0.819 -0.06,-0.272 -0.1,-0.514 -0.11,-0.726 -0.01,-0.213 -0.02,-0.377 -0.02,-0.485 0,-0.14 0,-0.28 0.01,-0.423 0,-0.14 0,-0.286 0.01,-0.434 l 4.88,0 0,-0.438 c 0.01,-0.356 -0.04,-0.709 -0.14,-1.059 -0.1,-0.35 -0.26,-0.671 -0.48,-0.962 -0.22,-0.292 -0.51,-0.525 -0.86,-0.7 -0.36,-0.175 -0.79,-0.266 -1.3,-0.272 -0.68,0 -1.25,0.155 -1.72,0.461 -0.47,0.306 -0.83,0.764 -1.08,1.377 -0.24,0.612 -0.36,1.376 -0.37,2.293 0.01,0.977 0.16,1.805 0.46,2.488 0.3,0.682 0.75,1.201 1.34,1.557 0.59,0.356 1.31,0.537 2.16,0.54 0.35,0 0.67,-0.02 0.98,-0.058 0.3,-0.038 0.58,-0.09 0.84,-0.152 l 0,-0.857 z m -4.6,-5.058 c 0.02,-0.111 0.05,-0.243 0.09,-0.391 0.05,-0.149 0.12,-0.304 0.2,-0.461 0.09,-0.158 0.21,-0.304 0.35,-0.438 0.15,-0.137 0.33,-0.248 0.55,-0.332 0.21,-0.082 0.48,-0.126 0.78,-0.129 0.28,0.003 0.52,0.047 0.72,0.134 0.21,0.085 0.37,0.199 0.51,0.336 0.13,0.137 0.23,0.286 0.31,0.446 0.08,0.158 0.13,0.31 0.17,0.458 0.03,0.146 0.04,0.272 0.04,0.377 l -3.72,0 z m 12.16,5.933 1.05,0 0,-5.846 4.27,0 0,-0.962 -4.27,0 0,-4.306 4.47,0 0,-0.963 -5.52,0 0,12.077 z m 13.03,-0.875 c -0.14,0.046 -0.3,0.087 -0.48,0.122 -0.17,0.032 -0.35,0.059 -0.53,0.076 -0.18,0.02 -0.35,0.029 -0.51,0.029 -0.53,-0.003 -0.98,-0.078 -1.34,-0.221 -0.37,-0.143 -0.67,-0.333 -0.91,-0.569 -0.23,-0.234 -0.42,-0.491 -0.55,-0.768 -0.13,-0.277 -0.22,-0.551 -0.28,-0.819 -0.06,-0.272 -0.1,-0.514 -0.11,-0.726 -0.01,-0.213 -0.02,-0.377 -0.02,-0.485 0,-0.14 0,-0.28 0.01,-0.423 0,-0.14 0,-0.286 0.01,-0.434 l 4.89,0 0,-0.438 c 0,-0.356 -0.05,-0.709 -0.15,-1.059 -0.1,-0.35 -0.26,-0.671 -0.48,-0.962 -0.22,-0.292 -0.5,-0.525 -0.86,-0.7 -0.35,-0.175 -0.79,-0.266 -1.3,-0.272 -0.67,0 -1.25,0.155 -1.72,0.461 -0.47,0.306 -0.83,0.764 -1.07,1.377 -0.25,0.612 -0.37,1.376 -0.38,2.293 0.01,0.977 0.16,1.805 0.46,2.488 0.31,0.682 0.75,1.201 1.34,1.557 0.59,0.356 1.31,0.537 2.16,0.54 0.35,0 0.68,-0.02 0.98,-0.058 0.31,-0.038 0.59,-0.09 0.84,-0.152 l 0,-0.857 z m -4.6,-5.058 c 0.02,-0.111 0.05,-0.243 0.1,-0.391 0.04,-0.149 0.11,-0.304 0.19,-0.461 0.09,-0.158 0.21,-0.304 0.35,-0.438 0.15,-0.137 0.33,-0.248 0.55,-0.332 0.22,-0.082 0.48,-0.126 0.79,-0.129 0.28,0.003 0.51,0.047 0.72,0.134 0.2,0.085 0.36,0.199 0.5,0.336 0.13,0.137 0.24,0.286 0.31,0.446 0.08,0.158 0.14,0.31 0.17,0.458 0.03,0.146 0.05,0.272 0.05,0.377 l -3.73,0 z m 8.47,-6.144 -0.87,0 0,8.664 c 0,0.501 0.05,0.971 0.17,1.406 0.11,0.434 0.28,0.816 0.52,1.143 0.24,0.33 0.54,0.586 0.9,0.773 0.37,0.187 0.81,0.28 1.31,0.283 0.56,-0.003 1.04,-0.114 1.45,-0.333 0.41,-0.218 0.74,-0.521 1,-0.909 0.27,-0.388 0.46,-0.841 0.59,-1.357 0.12,-0.516 0.18,-1.073 0.18,-1.672 0,-0.451 -0.03,-0.892 -0.1,-1.321 -0.07,-0.431 -0.17,-0.834 -0.32,-1.21 -0.14,-0.377 -0.33,-0.709 -0.56,-0.995 -0.22,-0.286 -0.5,-0.511 -0.81,-0.671 -0.32,-0.163 -0.68,-0.245 -1.09,-0.248 -0.39,0.003 -0.72,0.067 -0.99,0.184 -0.27,0.12 -0.5,0.271 -0.68,0.458 -0.18,0.184 -0.33,0.376 -0.43,0.577 -0.11,0.199 -0.19,0.382 -0.23,0.549 l -0.04,0 0,-5.321 z m 0.04,8.121 c 0,-0.344 0.03,-0.688 0.09,-1.038 0.05,-0.353 0.14,-0.689 0.26,-1.007 0.12,-0.32 0.27,-0.606 0.44,-0.86 0.18,-0.251 0.39,-0.452 0.63,-0.598 0.24,-0.146 0.5,-0.222 0.8,-0.225 0.3,0.003 0.56,0.082 0.77,0.236 0.22,0.152 0.41,0.356 0.56,0.613 0.15,0.257 0.27,0.543 0.36,0.855 0.09,0.315 0.15,0.636 0.2,0.96 0.04,0.326 0.05,0.633 0.05,0.924 0.01,0.429 -0.03,0.849 -0.11,1.254 -0.08,0.409 -0.2,0.776 -0.37,1.106 -0.18,0.33 -0.4,0.592 -0.67,0.788 -0.28,0.195 -0.62,0.294 -1.02,0.3 -0.32,-0.003 -0.6,-0.073 -0.84,-0.207 -0.23,-0.137 -0.42,-0.318 -0.57,-0.549 -0.15,-0.23 -0.27,-0.489 -0.35,-0.775 -0.09,-0.286 -0.15,-0.584 -0.18,-0.887 -0.04,-0.307 -0.05,-0.604 -0.05,-0.89 z m 8.37,3.956 0.87,0 0,-3.361 c 0,-0.335 0.02,-0.691 0.07,-1.07 0.04,-0.38 0.12,-0.756 0.23,-1.126 0.11,-0.371 0.27,-0.706 0.47,-1.012 0.2,-0.304 0.46,-0.546 0.77,-0.73 0.32,-0.181 0.7,-0.277 1.14,-0.28 l 0,-0.945 c -0.51,0.003 -0.94,0.091 -1.29,0.26 -0.34,0.169 -0.63,0.396 -0.84,0.682 -0.22,0.283 -0.39,0.599 -0.51,0.949 l -0.04,0 0,-1.698 -0.87,0 0,8.331 z m 11.48,-0.875 c -0.14,0.046 -0.3,0.087 -0.47,0.122 -0.18,0.032 -0.35,0.059 -0.54,0.076 -0.18,0.02 -0.35,0.029 -0.51,0.029 -0.53,-0.003 -0.98,-0.078 -1.34,-0.221 -0.37,-0.143 -0.67,-0.333 -0.9,-0.569 -0.24,-0.234 -0.42,-0.491 -0.56,-0.768 -0.13,-0.277 -0.22,-0.551 -0.28,-0.819 -0.06,-0.272 -0.09,-0.514 -0.11,-0.726 -0.01,-0.213 -0.01,-0.377 -0.01,-0.485 0,-0.14 0,-0.28 0,-0.423 0,-0.14 0.01,-0.286 0.02,-0.434 l 4.88,0 0,-0.438 c 0,-0.356 -0.05,-0.709 -0.15,-1.059 -0.1,-0.35 -0.26,-0.671 -0.47,-0.962 -0.22,-0.292 -0.51,-0.525 -0.87,-0.7 -0.35,-0.175 -0.78,-0.266 -1.29,-0.272 -0.68,0 -1.25,0.155 -1.73,0.461 -0.47,0.306 -0.83,0.764 -1.07,1.377 -0.25,0.612 -0.37,1.376 -0.37,2.293 0,0.977 0.15,1.805 0.46,2.488 0.3,0.682 0.75,1.201 1.33,1.557 0.59,0.356 1.31,0.537 2.16,0.54 0.35,0 0.68,-0.02 0.99,-0.058 0.3,-0.038 0.58,-0.09 0.83,-0.152 l 0,-0.857 z m -4.6,-5.058 c 0.02,-0.111 0.05,-0.243 0.1,-0.391 0.04,-0.149 0.11,-0.304 0.2,-0.461 0.09,-0.158 0.2,-0.304 0.35,-0.438 0.14,-0.137 0.32,-0.248 0.54,-0.332 0.22,-0.082 0.48,-0.126 0.79,-0.129 0.28,0.003 0.52,0.047 0.72,0.134 0.2,0.085 0.37,0.199 0.5,0.336 0.13,0.137 0.24,0.286 0.32,0.446 0.08,0.158 0.13,0.31 0.16,0.458 0.04,0.146 0.05,0.272 0.05,0.377 l -3.73,0 z m 7.88,5.933 0.88,0 0,-3.361 c -0.01,-0.335 0.02,-0.691 0.06,-1.07 0.05,-0.38 0.12,-0.756 0.24,-1.126 0.11,-0.371 0.26,-0.706 0.46,-1.012 0.21,-0.304 0.46,-0.546 0.78,-0.73 0.31,-0.181 0.69,-0.277 1.14,-0.28 l 0,-0.945 c -0.52,0.003 -0.94,0.091 -1.29,0.26 -0.35,0.169 -0.63,0.396 -0.85,0.682 -0.22,0.283 -0.39,0.599 -0.51,0.949 l -0.03,0 0,-1.698 -0.88,0 0,8.331 z"
             inkscape:connector-curvature="0"
             id="path34"
             style="fill:#717475;stroke:none" />
          <path
             d="m 1076.13,479.594 c 0.59,-0.003 1.1,-0.116 1.53,-0.338 0.42,-0.222 0.78,-0.531 1.05,-0.928 0.28,-0.394 0.48,-0.855 0.62,-1.377 0.13,-0.525 0.19,-1.091 0.19,-1.697 0,-0.613 -0.06,-1.182 -0.19,-1.71 -0.14,-0.528 -0.34,-0.991 -0.62,-1.391 -0.27,-0.397 -0.63,-0.709 -1.05,-0.933 -0.43,-0.225 -0.94,-0.339 -1.53,-0.342 -0.59,0.003 -1.1,0.117 -1.53,0.342 -0.43,0.224 -0.79,0.536 -1.07,0.933 -0.28,0.4 -0.49,0.863 -0.63,1.391 -0.13,0.528 -0.2,1.097 -0.2,1.71 0,0.606 0.07,1.172 0.2,1.697 0.14,0.522 0.35,0.983 0.63,1.377 0.28,0.397 0.64,0.706 1.07,0.928 0.43,0.222 0.94,0.335 1.53,0.338 z m -2.38,-4.235 c 0,-0.49 0.03,-0.954 0.11,-1.389 0.08,-0.437 0.21,-0.823 0.38,-1.161 0.18,-0.338 0.42,-0.604 0.72,-0.796 0.3,-0.193 0.67,-0.292 1.12,-0.295 0.44,0.003 0.82,0.102 1.12,0.295 0.31,0.192 0.56,0.458 0.75,0.796 0.18,0.338 0.32,0.724 0.4,1.161 0.09,0.435 0.13,0.899 0.12,1.389 0.01,0.487 -0.03,0.939 -0.12,1.35 -0.08,0.412 -0.22,0.77 -0.4,1.076 -0.19,0.307 -0.44,0.543 -0.75,0.712 -0.3,0.169 -0.68,0.254 -1.12,0.257 -0.45,-0.003 -0.82,-0.088 -1.12,-0.257 -0.3,-0.169 -0.54,-0.405 -0.72,-0.712 -0.17,-0.306 -0.3,-0.664 -0.38,-1.076 -0.08,-0.411 -0.11,-0.863 -0.11,-1.35 z"
             inkscape:connector-curvature="0"
             id="path36"
             style="fill:#717475;stroke:none" />
        </g>
      </g>
    </g>
  </g>
</svg>
