<?xml version="1.0" encoding="utf-8"?>
<!-- Generator: Adobe Illustrator 16.0.0, SVG Export Plug-In . SVG Version: 6.00 Build 0)  -->
<!DOCTYPE svg PUBLIC "-//W3C//DTD SVG 1.1//EN" "http://www.w3.org/Graphics/SVG/1.1/DTD/svg11.dtd">
<svg version="1.1" id="Layer_1" xmlns="http://www.w3.org/2000/svg" xmlns:xlink="http://www.w3.org/1999/xlink" x="0px" y="0px"
	 width="688.082px" height="737.535px" viewBox="0 0 688.082 737.535" enable-background="new 0 0 688.082 737.535"
	 xml:space="preserve">
<g id="Layer_4">
	<polygon fill="#FF0000" points="131.827,6.841 209.536,19.274 289.316,53.466 328.689,80.406 376.351,119.778 403.292,166.404 
		412.305,187.191 417.608,209.644 414.177,240.829 410.747,256.733 417.608,272.638 423.533,287.294 425.403,303.199 
		425.403,312.243 425.403,335.631 439.437,353.096 465.634,387.898 499.624,480.957 510.852,532.099 504.927,576.693 
		528.626,596.652 551.704,628.773 567.609,644.054 632.161,644.054 681.746,632.515 672.66,644.697 643.483,653.773 
		563.243,661.517 539.542,667.753 552.328,681.476 574.469,707.046 570.727,726.691 470.622,667.751 409.501,646.546 
		348.688,605.693 338.387,556.142 340.648,538.037 328.105,514.009 323.117,488.437 326.406,460.066 329.27,423.16 324.258,383.496 
		316.567,354.653 293.178,309.745 296.296,292.282 308.77,269.517 264.799,249.869 152.532,204.028 131.827,206.522 11.576,257.043 
		5.651,248.935 20.62,184.381 23.426,140.098 39.955,122.009 86.693,74.29 93.731,63.007 92.345,38.122 96.711,19.723 
		114.487,6.841 	"/>
</g>
<g id="Layer_1_1_">
	<polygon fill="#E2C374" points="291.629,296.638 341.075,306.287 380.389,296.638 399.444,277.824 413.434,265.524 
		422.971,285.905 427.182,315.934 425.403,335.631 404.51,357.179 369.295,364.897 326.603,355.008 303.689,335.23 291.629,305.804 
			"/>
	<path fill="#FFFFFF" d="M344.974,92.488c-3.677,3.92-5.853,8.206-10.677,11.268c-3.338,2.12-6.9,3.824-10.344,5.678
		c-3.456,1.859-7.277,2.989-10.837,4.669c-4.931,2.329-9.53,5.535-14.556,7.998c-4.173,2.043-7.663,4.781-11.729,6.912
		c-5.225,2.739-11.265,2.878-16.693,5.246c-1.819,0.792-3.39,2.309-5.121,3.057c-2.333,1.008-4.896,1.045-7.321,2.085
		c-5.859,2.509-10.143,6.762-16.035,9.288c-11.069,4.743-21.122,7.403-33.205,8.117c-13.072,0.771-28.889-2.766-40.328,4.564
		c-6.766,4.335-16.881,5.441-24.79,9.32c-9.291,4.558-19.188,9.341-28.971,13.512c-10.594,4.517-21.646,5.803-32.345,9.884
		c-8.112,3.095-15.563,7.659-23.75,10.666c-4.473,1.643-9.475,1.304-13.817,3.041c-2.654,1.063-5.204,3.21-7.541,4.999
		c-3.373,2.583-5.95,4.163-9.896,5.074c-4.101,0.947-8.168,1.876-11.983,3.745c-1.239,0.607-2.527,1.212-3.878,1.695l4.361-15.264
		l-0.483-2.287c3.815-1.869,7.884-2.798,11.983-3.746c3.944-0.911,6.521-2.491,9.896-5.074c2.337-1.789,4.887-3.936,7.541-4.998
		c4.344-1.737,9.346-1.398,13.817-3.041c8.187-3.008,15.638-7.571,23.75-10.667c10.696-4.081,21.751-5.366,32.345-9.884
		c9.782-4.17,19.68-8.954,28.971-13.511c7.909-3.879,18.024-4.984,24.79-9.32c11.439-7.33,27.256-3.793,40.328-4.564
		c12.083-0.712,22.136-3.373,33.205-8.117c5.894-2.526,10.176-6.778,16.035-9.288c2.426-1.04,4.988-1.077,7.321-2.085
		c1.731-0.748,3.302-2.264,5.121-3.057c5.43-2.366,11.47-2.506,16.693-5.245c4.066-2.131,7.558-4.869,11.729-6.913
		c5.024-2.462,9.625-5.668,14.556-7.997c3.56-1.68,7.381-2.81,10.837-4.669c3.442-1.854,7.006-3.559,10.344-5.678L344.974,92.488z"
		/>
	<path fill="#FFFFFF" d="M49.348,239.598c-1.639-1.896-1.246-6.827-0.979-9.378c0.441-4.209,1.104-8.592,0.732-12.856
		c-0.564-6.487-1.847-12.885-1.827-19.478c0.02-7.391,0.715-14.612,1.036-21.884c0.299-6.753-1.236-13.313-0.524-19.97
		c0.811-7.566,1.515-15.112,2.268-22.705c0.289-2.927,0.545-6.201,1.164-9.051c0.71-3.264,2.924-5.175,5.183-7.506
		c9.241-9.54,14.437-22.328,22.884-32.589c3.198-3.885,5.854-7.083,8.398-11.651l-4.921,8.029
		c-8.448,10.262-3.669,7.34-11.397,18.909c-1.804,2.698-4.897,7.325-5.607,10.59c-0.618,2.85-0.874,6.124-1.165,9.05
		c-0.751,7.592-1.455,15.139-2.266,22.704c-0.712,6.658,0.823,13.218,0.524,19.97c-0.321,7.272-1.018,14.493-1.036,21.883
		c-0.019,6.593,1.263,12.991,1.826,19.477c0.371,4.266-0.29,8.648-0.731,12.858c-0.268,2.551-0.66,7.482,0.979,9.377l2.772,8.52
		L49.348,239.598z"/>
	<path d="M22.708,249.464c0-9.791,1.322-19.153,1.313-28.96c-0.007-6.443,0.557-13.042,1.649-19.357
		c0.878-5.062,2.934-9.564,3.62-14.694c1.229-9.174,0.311-18.945,0.415-28.269c0.056-4.885,1.042-8.372,2.723-12.875
		c1.609-4.321,1.387-9.394,3.608-13.446c3.508-6.39,12.133-13.258,13.324-20.442c-4.109,2.699-7.745,6.909-11.323,10.265
		c-4.003,3.755-10.669,8.516-13.338,13.39c-3.921,7.164-4.585,19.512-5.499,27.845c-0.941,8.595,1.842,17.217,0.468,25.692
		c-1.592,9.818-5.012,19.572-6.896,29.684c-1.627,8.736-5.733,17.23-7.456,25.901c-1.182,5.937-2.691,10.048,4.646,10.078
		c5.205,0.022,7.68-3.052,12.309-4.81"/>
	<path d="M19.209,238.096c4.017-0.824,7.207-4.421,11.422-5.707c5.73-1.75,11.69-3.384,17.448-5.323
		c11.683-3.933,23.054-8.925,34.227-14.213c3.375-1.598,6.546-4.08,9.876-5.781c6.613-3.38,13.484-3.408,20.282-5.367
		c5.851-1.686,11.544-3.7,17.313-5.601c5.022-1.653,9.845-5.162,14.573-6.874c5.514-1.997,11.217-3.566,16.577-5.775
		c2.963-1.221,6.329-3.41,9.366-3.987c7.515-1.427,17.076,0.125,24.779,0.033c6.884-0.083,12.969-2.015,19.574-3.5
		c10.661-2.397,21.76-3.938,32.307-7.44c23.06-7.656,46.693-20.158,66.545-34.001c7.009-4.887,13.604-9.103,21.351-13.02
		c4.027-2.036,16.988-9.872,20.19-7.169c8.863,7.479-11.875,16.167-16.635,17.369c-16.591,4.192-29.289,12.551-42.736,22.398
		c-15.236,11.162-34.123,23.168-52.955,25.352c-8.52,0.988-16.659,3.983-25.252,4.82c-6.921,0.676-13.473,1.293-20.24,3.084
		c-13.208,3.495-27.46,4.932-40.163,9.465c-11.68,4.167-22.278,10.231-33.733,14.198c-9.402,3.255-17.782,6.517-27.155,9.632
		c-10.787,3.584-21.56,8.814-32.488,12.945c-10.089,3.814-20.46,9.313-30.991,11.576c-5.614,1.205-10.825,2.984-16.464,4.199
		c-0.852-2.815-2.105-6.54-0.876-9.5c3.452,0.75,3.469-1.911,5.607-3.563"/>
	<path d="M379.038,439.917c3.282,2.111,3.99,6.314,6.678,9.086c2.081,2.15,7.15,5.076,9.624,6.797
		c5.352,3.723,11.696,4.537,18.584,5.668c18.256,3.002,38.032,6.998,56.34,11.318c8.389,1.977,18.492,3.555,24.985,9.049
		c7.451,6.299,6.865,17.529,9.535,26.35c-8.951-5.379-16.012-8.697-27.171-8.697c-6.776,0-12.476,0.695-18.294-2.262
		c-4.252-2.156-7.562-5.559-12.359-7.189c-9.66-3.289-22.26-0.791-33.058-0.82c-13.339-0.033-23.282,1.717-32.69-7.609
		c-0.591-9.119-1.318-33.029-14.363-28.865c-6.854,2.188-12.329,10.064-18.66,13.865c-3.3,1.979-6.87,3.432-10.045,5.799
		c-1.591,1.188-6.625,7.736-8.591,7.826c-4.742,0.215-4.084-11.648-3.922-15.631c0.329-8.102,0.602-15.377,7.396-19.926
		c12.505-8.369,27.527-10.508,37.267-22.541c1.899-2.35,1.568-4.16,4.519-4.723c0.375,3.836,1.781,6.887,2.174,10.865
		c0.414,4.188-1.156,8.938,1.369,12.326"/>
	<path d="M417.382,643.277c11.403,8.414,33.715-2.324,46.559-3.576c13.912-1.354,30.13,4.525,43.692,9.016
		c9.958,3.295,25.646,1.123,35.152-2.701c6.352-2.557,7.99-6.859,14.357-4.502c4.088,1.516,13.373,6.807,12.924,12.033
		c-0.526,6.1-13.017,9.285-18.299,9.736c-10.877,0.926-22.238-0.754-33.016-2.236c-14.662-2.021-29.119,1.592-43.755,2.121
		c-21.123,0.764-42.33-8.553-59.672-19.207"/>
	<path d="M305.089,270.11c7.987,5.053,20.217,6.498,29.863,6.847c6.094,0.22,9.678-1.839,13.442,1.904
		c2.929,2.911,3.66,7.419,7.395,10.181c1.212-6.218,9.185-4.983,12.976-8.816c3.506-3.544,5.744-10.687,8.215-14.925
		c2.031-3.479,2.111-14.328,5.654-16.43c4-2.374,6.093,3.884,7.824,7.815c8.44-4.266,18.805-9.795,24.045-17.9
		c0.702,5.303-3.762,19.347-7.17,23.638c-2.877,3.623-7.177,2.022-9.535,4.313c-2.047,1.989-2.054,8.557-2.863,11.042
		c-1.734,5.306-4.691,17.368-10.384,19.92c-5.415,2.429-18.691-0.472-24.68-0.064c1.822,1.698,1.467,3.071,1.944,5.238
		c-6.886,0.728-12.252,3.631-18.917,3.375c-5.942-0.228-12.107-3.505-17.788-6.182c-6.354-2.996-13.183-2.892-15.232-8.866
		c-1.396-4.069-6.791-16.559-3.421-19.721"/>
	<path fill="#FFFFFF" d="M254.42,245.459c11.146,1.357,22.599-4.534,33.379-5.477c11.717-1.026,22.275-5.639,33.604-6.742
		c3.021,12.712,12.113,13.579,22.046,8.13c7.437-4.078,20.441-12.312,25.521-19.173c3.071-4.146,3.08-6.887,7.979-9.642
		c1.923-1.081,5.39-1.228,6.896-3.353c1.583-2.232,0.39-5.811,1.817-8.265c3.683-6.333,6.113-2.572,10.49,0.55
		c3.777,2.697,4.371,4.61,10.538,2.902c1.964-0.544,6.087-2.698,7.853-4.08c4.68,11.571,6.353,19.854,2.049,31.387
		c-6.573,0.52-11.704-0.922-18.38,0.068c-2.619,0.388-5.509,1.044-8.255,1.182c-2.442,0.123-5.064-0.779-8.113-0.39
		c-0.159,5.363,3.101,12.283-0.056,15.502c-1.327,1.356-8,2.657-10.318,4.23c-3.365,2.282-6.514,5.182-9.896,7.549
		c-3.453,2.417-12.237,10.882-16.377,10.819c-4.586-0.071-5.432-7.497-8.63-11.487c-4.104-5.12-5.971-5.167-13.523-4.81
		c-8.251,0.39-13.977,5.169-21.947,6.213c-7.084,0.928-17.796-0.92-24.23-3.3c-5.158-1.908-8.802-5.944-13.51-8.276
		c-2.095-1.038-4.749-1.324-6.882-2.169"/>
	<path fill="#FFFFFF" d="M489.276,442.656c-4.361-1.439-9.77-1.352-14.381-1.369c-9.326-0.039-16.016-1.855-25.402-3.322
		c-14.602-2.279-29.382-1.693-43.563-5.465c-8.703-2.313-17.67-6.248-24.655-11.869c-8.29-6.676-10.738-16.297-13.298-26.488
		c-6.981-0.707-15.107,7.775-21.807,9.786c-4.412,1.323-10.731,3.548-15.63,3.055c-1.528-6.971-5.239-13.428-7.393-20.368
		c15.779,1.246,26.812-17.837,41.439-19.187c1.223,6.588-2.343,7.282,1.475,12.75c2.109,3.022,5.232,6.342,7.994,8.573
		c7.912,6.398,18.698,11.315,27.606,15.574c8.84,4.226,16.663,4.008,26.023,4.779c5.538,0.457,10.051,2.061,15.747,2.055
		c8.251-0.012,20.519-0.049,25.233-8.098c0.038,0.357-1.354-0.732-1.25-0.634c7.692-3.735,17.953,30.987,19.118,36.804"/>
	<path fill="#FFFFFF" d="M505.708,564.535c-3.529,1.648-7.211-0.355-10.919-0.721c-5.967-0.586-12.009,0.465-17.82,0.736
		c-13.761,0.643-24.674-0.191-37.619-4.143c-6.484-1.98-18.887-5.156-22.152-12.119c-1.682-3.588-0.305-9.93-0.347-13.896
		c-0.048-4.33-1.61-7.404-1.778-11.404c-13.581,7.715-27.367,17.703-40.843,24.98c-10.268,5.547-23.719,15.773-36.169,13.725
		c-1.028-5.9,1.404-12.285,1.301-18.385c-0.045-2.576-1.363-5.414-0.735-8.217c1.213-5.416,1.111-3.717,5.489-5.477
		c11.794-4.744,26.252-5.576,38.215-10.805c7.608-3.324,14.531-8.605,21.358-13.184c4.732-3.174,13.107-12.68,16.464-6.807
		c2.724,4.758-2.05,13.504-0.717,18.469c1.518,5.65,11.094,11.686,17.042,13.611c14.722,4.768,32.183,6.246,47.559,6.928
		c8.508,0.377,16.56-4.688,24.359-3.332c0.261,10.137-0.966,20.242-1.315,30.037"/>
	<path fill="#FFFFFF" d="M473.527,636.431c10.124,3.178,20.873-5.643,30.107-9.279c7.521-2.961,25.155-6.855,25.95-16.637
		c-11.217-0.574-18.538-4.121-29.478-8.064c-4.837-1.746-10.904-3.873-16.005-3.678c-5.294,0.201-7.528,3.139-12.116,5.512
		c-7.226,3.736-15.953,4.73-22.922,8.338c-7.029,3.635-12.875,6.932-21.363,8.742c-11.846,2.525-24.593,4.533-36.758,5.479
		c-4.955,0.389-23.137,3.566-26.711-0.289c-1.24-1.338-0.611-9.309-0.295-11.352c1.174-7.582,5.207-16.135,13.041-17.65
		c6.924-1.34,14.183,1.602,21.072,1.9c20.28,0.887,39.979-1.123,60.232-1.299c0.543,4.439-1.927,9.867-2.54,14.352
		c-1.219,8.9-1.087,8.697,3.424,12.949c3.991,3.762,10.976,9.064,15.728,11.66"/>
	<path d="M416.695,573.435c4.477,2.807,7.556,6.154,11.075,9.436c7.952,7.41,16.453,6.504,27.229,7.002
		c9.279,0.428,18.261,1.885,27.698,1.23c9.487-0.656,23.948-6.213,31.058,0.102c5.998,5.328,7.226,9.652,1.71,15.234
		c-7.022,7.105-8.348,4.943-16.923,5.188c-4.405,0.125-7.86,2.65-12.107,3.498c-4.969,0.988-10.208,0.303-15.479,0.748
		c-10.96,0.92-25.08,5.146-35.598-0.084c-1.624-0.807-4.251-5.203-5.073-6.5c-4.795-0.16-7.889-4.563-12.727-5.188
		c-0.254-4.535-2.997-12.656-8.103-12.775c-5.139-0.115-15.938,9.936-20.166,13.074c-5.036,3.738-9.845,10.889-15.729,13.025
		c-6.176,2.242-11.455-1.729-16.432-5.131c-4.498-3.074-10.543-6.617-10.271-12.809c0.267-6.088,9.97-8.961,15.748-11.672
		c14.142-6.633,30.794-13.258,43.121-23.436c3.95-3.262,8.172-7.408,10.337-11.943c-0.159,6.555-0.09,12.561-1.558,18.844
		c0.146,0.797,0.647,1.059,1.506,0.787"/>
</g>
<g id="Layer_3">
	<path d="M674.804,625.246c-10.013,1.201-19.62,5.408-29.581,7.48c-25.591,5.326-51.423,9.867-77.406,3.303
		c-13.961-3.525-15.262-8.801-6.734-19.971c7.79-10.205,5.622-16.711-7.012-19.414c-5.669-1.215-12.34,0.434-17.294-1.902
		c-8.931-4.211-17.917-9.439-24.787-16.326c-2.716-2.727-0.063-11.053,0.537-16.787c1.555-14.77,9.188-28.404,0.772-44.629
		c-6.904-13.309-7.512-29.766-11.91-44.525c-4.435-14.881-10.122-29.383-15.221-44.063c-10.089-29.058-18.419-58.703-43.131-80.365
		c-8.168-7.156-18.309-16.964-14.055-30.212c6.985-21.757-2.888-40.27-8.892-59.746c-1.793-5.822-4.339-12.889-2.604-18.066
		c7.713-23.01,2.939-43.506-4.208-66.311c-10.102-32.249-27.828-57.875-53.218-77.522c-40.338-31.216-79.938-64.151-130.843-78.469
		c-34.32-9.66-68.375-19.759-104.532-17.387c-5.554,0.366-11.716,2.081-16.273,5.145C88.575,18.801,85.149,32.913,93.731,63.006
		c1.205-5.979,1.125-11.783,3.535-16.243c5.279-9.764-6.354-25.981,9.941-30.392c11.506-3.109,24.128-2.103,36.256-2.901
		c0.959-0.063,1.963,0.055,2.905,0.271c23.661,5.314,47.38,10.39,70.962,16.035c52.196,12.495,92.045,46.292,133.034,77.961
		c6.988,5.397,8.369,9.757-2.882,13.731c-9.396,3.315-17.26,10.973-25.804,16.71c28.252-10.235,53.911-4.546,68.598,15.245
		c1.447,1.953,4.106,4.232,3.852,6.026c-2.62,18.33,12.942,28.747,18.658,43.422c6.853,17.588-2.997,31.918-6.938,47.425
		c-0.865,3.409-3.479,6.372-6.229,11.191c-5.746-8.342-10.521-15.269-13.947-20.246c4.479-9.741,8.101-17.61,11.719-25.479
		c-19.771,4.502-26.276,26.28-16.85,42.756c3.109,5.434,7.387,10.512,9.077,16.346c1.16,4.006,0.233,10.523-2.463,13.176
		c-2.382,2.347-8.891,2.162-12.898,0.909c-19.501-6.085-28.233-23.503-36.016-39.632c-6.96-14.429-16.065-25.309-29.714-32.191
		c-15.964-8.048-32.649-14.653-48.908-22.13c-3.921-1.803-7.401-4.571-9.114-5.651c23.286-16.97,45.654-33.27,68.019-49.573
		c-3.501,1.595-7.43,2.616-10.441,4.869c-33.398,24.96-70.813,37.559-112.546,38.096c-8.152,0.104-16.771,1.568-24.317,4.56
		c-38.538,15.285-76.756,31.38-115.171,46.971C41.6,240.132,28.331,250.681,9.3,246.871c1.996-14.748,9.204-41.242,11.507-56.264
		c0.271,0.01,0.543,0.022,0.814,0.032c1.599-13.334,4.03-26.632,4.58-40.007c0.317-7.689,0.885-12.124,2.887-14.088
		c3.938-7.574,12.406-12.335,18.465-18.407c9.729-9.752,18.616-20.304,27.466-30.845c3.643-4.339,7.573-9.246,12.185-13.006
		c-0.17,0-0.338,0.002-0.509,0.002c-0.139,0.204-0.517,0.681-0.961,1.087c-18.799,17.275-37.972,34.166-56.211,52.016
		c-5.485,5.364-10.958,13.036-11.918,20.247c-1.871,14.051-0.547,28.525-0.547,42.821c0.148,0.007,0.297,0.012,0.445,0.018
		c-4.278,19.78-13.559,51.228-17.488,70.19c1.355,1.34,2.714,2.675,4.069,4.013c18.107-7.179,36.4-13.924,54.272-21.643
		c24.406-10.545,48.229-22.489,72.891-32.364c6.607-2.648,16.234-2.099,22.964,0.666c26.729,10.981,52.669,23.856,79.271,35.158
		c17.857,7.591,36.659,12.999,54.393,20.839c7.72,3.41,16.52,9.77,3.196,18.812c-2.598,1.761-4.938,6.847-4.363,9.813
		c2.281,11.781,5.936,23.28,8.769,34.958c4.595,18.925,28.074,28.628,25.092,51.31c-0.021,0.146,2.138,1.006,3.519,1.334
		c1.568,13.333,3.586,26.297,5.186,39.597c2.508-0.514,5.018-1.029,7.527-1.545c-4.181-12.707-8.359-25.412-12.54-38.119
		c-0.424-5.959-0.85-11.916-1.418-19.926c11.418,3.071,20.535,4.805,29.021,8.145c3.718,1.466,7.584,5.727,8.897,9.563
		c5.161,15.091,10.233,30.335,13.392,45.917c1.158,5.707-1.117,14.865-5.27,18.361c-11.379,9.578-24.587,16.984-37.947,25.832
		c-1.569-3.926-2.832-7.09-4.526-11.32c-13.281,29.955-14.979,56.734,13.669,80.711c1.066-5.521,2.465-9.832,2.635-14.199
		c0.417-10.711,0.144-21.445,0.38-32.166c0.476-21.768,9.242-31.311,32.686-34.908c0.331,6.834,1.946,13.818,0.715,20.262
		c-2.627,13.729,4,20.639,15.452,25.23c2.688,1.08,5.107,2.809,7.746,4.037c10.674,4.979,16.678,12.26,15.415,25.072
		c-1.336,13.557-0.518,27.34-2.108,40.85c-0.566,4.801-4.643,10.01-8.527,13.438c-8.754,7.73-18.051,14.992-27.845,21.344
		c-3.685,2.389-11,4.004-13.77,1.99c-5.951-4.324-11.869-10.525-14.453-17.242c-4.544-11.805-6.578-24.58-10.012-38.342
		c-0.954,4.629-2.233,8.564-2.519,12.574c-2.088,29.318,19.974,64.936,47.617,75.117c18.148,6.688,37.165,11,55.39,17.498
		c14.332,5.109,28.653,10.844,41.918,18.209c32.665,18.145,64.719,37.393,100.072,57.977c7.801-33.586-13.947-49.371-31.267-70.779
		c33.826-4.674,64.395-8.893,93.883-12.965c-2.128-0.832-5.759-2.25-10.274-4.016c7.729-3.139,13.799-7.166,20.202-7.787
		c6.756-0.65,14.323,4.012,20.607,2.5c5.373-1.297,9.434-8.043,14.076-12.377C683.645,629.648,678.901,624.755,674.804,625.246z
		 M338.923,519.101c-15.745-15.803-15.712-21.293,1.729-34.4C340.01,497.455,339.522,507.169,338.923,519.101z M513.573,599.433
		c0.435,0.43-4.34,9.016-7.488,9.623c-8.977,1.732-18.368,1.307-27.602,1.73c-6.813-0.016-13.621,0.014-20.433-0.021
		c-24.946-0.123-39.144-10.699-40.782-39.057c-1.361-23.51,2.738-47.424,5.697-70.996c0.407-3.24,9.262-8.777,12.416-7.75
		c17.739,5.773,36.009,11.443,51.816,20.943c6.893,4.143,10.737,17.045,11.798,26.438
		C501.303,560.757,496.484,582.523,513.573,599.433z M450.386,378.57c1.126,1.436-3.041,7.02-4.757,10.686
		c-7.903-7.226-16.273-14.01-23.554-21.814c-5.097-5.459-10.857-12.027-0.73-22.232C431.735,356.877,441.568,367.327,450.386,378.57
		z M272.534,246.871c-35.208-12.862-72.284-21.195-107.967-45.382c43.072-18.268,76.924,0.127,112.871,12.987
		c41.119,14.71,55.507,50.489,77.313,87.209c-13.276-2.307-23.971-4.167-34.669-6.024c0.133-1.884,0.262-3.766,0.395-5.651
		c5.195-0.496,10.391-0.987,17.309-1.65C319.656,267.083,296.821,255.739,272.534,246.871z M300.868,319.82
		c-2.031-5.991-2.966-12.354-4.039-16.961c17.824,3.85,33.867,9.206,50.178,10.203c12.089,0.736,25.71-1.884,36.418-7.364
		c8.158-4.178,12.788-15.216,19.044-23.157c2.754-3.501,5.646-6.893,8.477-10.332c2.215,3.413,5.328,6.554,6.45,10.298
		c2.219,7.4,3.669,15.083,4.847,22.738c4.336,28.26-2.317,40.606-28.468,51.005C368.516,366.294,312.609,354.448,300.868,319.82z
		 M397.686,477.855c-14.791,1.188-17.729-5.197-18.347-16.963c-0.735-14.057-0.706-28.271-3.003-42.09
		c-1.869-11.239-6.779-21.965-10.146-32.98c-1.175-3.847-1.768-7.871-2.258-10.105c13.412-5.118,24.8-10.299,36.715-13.523
		c3.712-1.001,10.8,2.071,12.947,5.44c4.595,7.212,5.476,17.041,10.699,23.531c4.875,6.061,12.956,10.879,20.513,12.844
		c3.45,0.9,9.029-6.355,15.816-11.59c17.457,32.691,28.853,69.301,40.923,108.611c-22.076-7.596-38.912-14.938-56.507-18.98
		C429.684,478.519,413.304,476.599,397.686,477.855z M398.173,621.693c-4.124-4.33-13.744-10.818-3.446-19.074
		c9.106-7.305,16.048-6.313,24.874,2.533c12.217,12.246,26.516,22.553,40.601,32.75c8.5,6.148,18.287,10.521,27.497,15.689
		C453.012,655.841,422.221,646.947,398.173,621.693z M565.79,711.935c-19.699-9.613-38.407-18.74-57.115-27.871
		c0.726-1.408,1.446-2.814,2.172-4.223C536.029,679.023,568.796,690.439,565.79,711.935z M465.42,623.515
		c43.513-22.877,72.865,3.252,100.847,30.689C547.294,662.617,482.825,643.343,465.42,623.515z"/>
</g>
</svg>
