<?xml version="1.0" encoding="utf-8"?>
<!-- Generator: Adobe Illustrator 16.0.0, SVG Export Plug-In . SVG Version: 6.00 Build 0)  -->
<!DOCTYPE svg PUBLIC "-//W3C//DTD SVG 1.1//EN" "http://www.w3.org/Graphics/SVG/1.1/DTD/svg11.dtd">
<svg version="1.1" id="Layer_1" xmlns="http://www.w3.org/2000/svg" xmlns:xlink="http://www.w3.org/1999/xlink" x="0px" y="0px"
	 width="688.082px" height="737.535px" viewBox="0 0 688.082 737.535" enable-background="new 0 0 688.082 737.535"
	 xml:space="preserve">
<g id="Layer_4">
	<polygon fill="#06269D" points="131.812,6.856 209.52,19.291 289.302,53.483 328.676,80.423 376.338,119.794 403.277,166.421 
		412.292,187.207 417.594,209.661 414.164,240.845 410.732,256.75 417.594,272.654 423.519,287.312 425.389,303.215 425.389,312.26 
		425.389,335.648 439.423,353.112 465.619,387.916 499.61,480.972 510.838,532.117 504.912,576.71 528.612,596.669 551.689,628.791 
		567.595,644.07 632.147,644.07 681.732,632.533 672.646,644.714 643.469,653.791 563.228,661.535 539.527,667.771 552.313,681.494 
		574.455,707.062 570.714,726.708 470.608,667.769 409.486,646.562 348.673,605.708 338.373,556.16 340.635,538.054 
		328.092,514.027 323.103,488.455 326.391,460.083 329.256,423.177 324.244,383.513 316.552,354.668 293.164,309.761 
		296.283,292.297 308.757,269.533 264.787,249.887 152.519,204.044 131.812,206.54 11.561,257.058 5.636,248.951 20.606,184.397 
		23.412,140.114 39.941,122.027 86.679,74.305 93.716,63.024 92.332,38.139 96.697,19.739 114.473,6.856 	"/>
</g>
<g id="Layer_1_1_">
	<polygon fill="#E2C374" points="291.615,296.655 341.061,306.302 380.376,296.655 399.43,277.841 413.421,265.542 422.958,285.922 
		427.169,315.951 425.389,335.648 404.496,357.195 369.281,364.915 326.59,355.024 303.675,335.246 291.615,305.821 	"/>
	<g>
		<g>
			<path fill="#019C27" d="M334.284,87.916c-3.339,2.12-6.899,3.824-10.344,5.678c-3.456,1.86-7.277,2.99-10.837,4.669
				c-4.93,2.329-9.531,5.534-14.555,7.998c-4.175,2.044-7.665,4.781-11.73,6.912c-5.223,2.739-11.264,2.88-16.693,5.246
				c-1.819,0.794-3.389,2.308-5.121,3.058c-2.334,1.007-4.896,1.043-7.321,2.084c-5.859,2.509-10.143,6.762-16.034,9.288
				c-11.069,4.744-21.122,7.404-33.206,8.118c-13.072,0.77-28.889-2.767-40.327,4.565c-6.767,4.335-16.882,5.44-24.79,9.318
				c-9.291,4.558-19.188,9.341-28.971,13.512c-10.594,4.518-21.647,5.804-32.346,9.883c-6.884,2.626-13.294,6.303-20.079,9.194
				c-0.077-1.247-0.133-2.497-0.13-3.755c0.021-7.39,0.716-14.611,1.036-21.883c0.3-6.752-1.235-13.313-0.523-19.97
				c0.811-7.566,1.515-15.112,2.267-22.705c0.291-2.927,0.546-6.201,1.165-9.051c0.71-3.265,3.804-7.891,5.606-10.59
				c7.729-11.569,2.949-8.647,11.397-18.908l2.724-4.444c-1.896,2.838-3.907,5.279-6.2,8.066
				c-8.447,10.26-13.645,23.048-22.885,32.588c-2.259,2.332-4.474,4.242-5.183,7.508c-0.619,2.848-0.874,6.123-1.165,9.049
				c-0.752,7.593-1.456,15.14-2.266,22.705c-0.713,6.658,0.822,13.216,0.522,19.97c-0.221,5.013-0.608,10.005-0.842,15.042
				c-0.105,2.27-0.188,4.546-0.192,6.841c-0.009,3.005,0.257,5.969,0.598,8.92c3.434-0.706,7.063-0.83,10.397-2.054
				c1.804-0.663,3.564-1.407,5.312-2.19c6.186-2.765,12.114-6.063,18.439-8.478c10.697-4.079,21.751-5.365,32.346-9.882
				c9.78-4.172,19.68-8.956,28.971-13.513c7.908-3.877,18.023-4.983,24.79-9.32c11.438-7.329,27.255-3.793,40.327-4.563
				c12.084-0.713,22.137-3.373,33.206-8.118c5.893-2.525,10.175-6.778,16.034-9.287c2.426-1.041,4.987-1.077,7.321-2.085
				c1.732-0.749,3.302-2.264,5.121-3.057c5.431-2.367,11.472-2.507,16.693-5.246c4.065-2.131,7.557-4.869,11.73-6.913
				c5.022-2.463,9.625-5.668,14.555-7.997c3.56-1.68,7.381-2.81,10.837-4.669c3.443-1.854,7.005-3.559,10.344-5.678
				c4.825-3.062,6.998-7.347,10.677-11.268L334.284,87.916z"/>
			<path fill="#019C27" d="M85.47,76.132c0.746-1.119,1.478-2.295,2.196-3.587L85.47,76.132z"/>
		</g>
	</g>
	<path fill="#DA01C1" d="M22.694,249.48c0-9.791,1.322-19.153,1.312-28.961c-0.008-6.443,0.558-13.041,1.65-19.355
		c0.877-5.063,2.933-9.564,3.619-14.694c1.229-9.175,0.31-18.946,0.415-28.27c0.056-4.886,1.042-8.37,2.722-12.876
		c1.611-4.32,1.387-9.392,3.609-13.445c3.508-6.391,12.133-13.257,13.324-20.442c-4.108,2.699-7.745,6.91-11.322,10.266
		c-4.004,3.754-10.67,8.516-13.338,13.389c-3.921,7.165-4.586,19.512-5.5,27.845c-0.941,8.594,1.842,17.216,0.469,25.693
		c-1.592,9.818-5.012,19.572-6.896,29.683c-1.627,8.736-5.732,17.231-7.455,25.902c-1.181,5.937-2.691,10.047,4.646,10.077
		c5.205,0.023,7.68-3.051,12.309-4.81"/>
	<path fill="#DA01C1" d="M19.196,238.111c4.016-0.824,7.206-4.419,11.423-5.706c5.729-1.75,11.689-3.384,17.447-5.324
		c11.682-3.933,23.054-8.924,34.225-14.213c3.375-1.598,6.547-4.079,9.877-5.781c6.614-3.38,13.485-3.408,20.283-5.367
		c5.85-1.684,11.543-3.699,17.313-5.601c5.022-1.653,9.846-5.161,14.572-6.873c5.516-1.997,11.218-3.566,16.577-5.776
		c2.962-1.22,6.332-3.409,9.367-3.986c7.514-1.428,17.076,0.125,24.779,0.032c6.885-0.082,12.969-2.016,19.573-3.5
		c10.662-2.397,21.762-3.939,32.309-7.44c23.058-7.656,46.691-20.157,66.545-34.001c7.008-4.887,13.604-9.102,21.351-13.02
		c4.026-2.036,16.986-9.872,20.19-7.169c8.863,7.48-11.875,16.167-16.635,17.37c-16.591,4.193-29.29,12.55-42.736,22.398
		c-15.237,11.162-34.124,23.168-52.956,25.352c-8.518,0.988-16.659,3.982-25.252,4.819c-6.92,0.675-13.472,1.292-20.24,3.084
		c-13.208,3.496-27.459,4.932-40.163,9.465c-11.681,4.166-22.277,10.231-33.732,14.197c-9.403,3.256-17.782,6.518-27.156,9.632
		c-10.787,3.585-21.559,8.815-32.488,12.947c-10.089,3.814-20.461,9.312-30.99,11.574c-5.614,1.206-10.826,2.985-16.465,4.2
		c-0.852-2.815-2.104-6.541-0.877-9.5c3.453,0.75,3.47-1.912,5.609-3.564"/>
	<path fill="#DA01C1" d="M379.024,439.935c3.282,2.109,3.99,6.313,6.677,9.086c2.08,2.15,7.15,5.076,9.623,6.795
		c5.353,3.723,11.697,4.537,18.584,5.67c18.256,3.002,38.034,7,56.341,11.316c8.389,1.979,18.491,3.555,24.987,9.049
		c7.449,6.301,6.864,17.529,9.533,26.352c-8.951-5.379-16.011-8.699-27.17-8.699c-6.777,0-12.477,0.695-18.295-2.262
		c-4.251-2.156-7.562-5.557-12.359-7.189c-9.66-3.289-22.26-0.791-33.057-0.816c-13.339-0.033-23.283,1.715-32.692-7.611
		c-0.59-9.121-1.316-33.029-14.362-28.865c-6.854,2.188-12.328,10.064-18.66,13.863c-3.301,1.982-6.87,3.432-10.044,5.801
		c-1.593,1.188-6.627,7.736-8.592,7.826c-4.742,0.215-4.085-11.648-3.922-15.631c0.33-8.104,0.602-15.377,7.396-19.926
		c12.504-8.369,27.526-10.51,37.266-22.541c1.899-2.351,1.568-4.16,4.52-4.723c0.373,3.835,1.779,6.887,2.173,10.865
		c0.414,4.188-1.156,8.939,1.369,12.326"/>
	<path fill="#DA01C1" d="M417.367,643.292c11.404,8.414,33.716-2.322,46.561-3.574c13.911-1.355,30.13,4.525,43.691,9.014
		c9.957,3.295,25.647,1.125,35.151-2.699c6.354-2.557,7.992-6.861,14.358-4.504c4.089,1.516,13.374,6.807,12.924,12.035
		c-0.527,6.098-13.017,9.285-18.298,9.734c-10.878,0.928-22.238-0.752-33.017-2.236c-14.663-2.02-29.119,1.594-43.753,2.121
		c-21.125,0.764-42.332-8.551-59.674-19.205"/>
	<path fill="#DA01C1" d="M305.074,270.125c7.988,5.054,20.218,6.5,29.865,6.848c6.093,0.219,9.676-1.839,13.441,1.904
		c2.93,2.91,3.659,7.419,7.396,10.181c1.21-6.219,9.185-4.983,12.975-8.817c3.506-3.543,5.744-10.686,8.217-14.925
		c2.028-3.478,2.108-14.328,5.651-16.43c4-2.374,6.095,3.883,7.824,7.814c8.442-4.265,18.806-9.794,24.045-17.9
		c0.704,5.303-3.761,19.348-7.168,23.639c-2.877,3.624-7.178,2.023-9.537,4.313c-2.047,1.989-2.052,8.558-2.862,11.041
		c-1.734,5.307-4.691,17.37-10.385,19.922c-5.415,2.43-18.689-0.472-24.679-0.064c1.822,1.699,1.467,3.071,1.945,5.238
		c-6.887,0.729-12.253,3.631-18.917,3.375c-5.942-0.227-12.107-3.503-17.788-6.181c-6.354-2.995-13.185-2.892-15.234-8.865
		c-1.395-4.07-6.791-16.559-3.42-19.722"/>
	<path fill="#019C27" d="M254.406,245.477c11.146,1.356,22.599-4.535,33.379-5.479c11.718-1.026,22.275-5.639,33.604-6.741
		c3.02,12.712,12.113,13.579,22.047,8.129c7.436-4.078,20.439-12.311,25.521-19.172c3.071-4.145,3.08-6.887,7.979-9.642
		c1.924-1.081,5.389-1.228,6.896-3.353c1.582-2.233,0.392-5.812,1.818-8.266c3.682-6.333,6.114-2.572,10.49,0.551
		c3.777,2.697,4.371,4.611,10.539,2.902c1.963-0.543,6.086-2.697,7.852-4.081c4.68,11.571,6.353,19.855,2.049,31.388
		c-6.572,0.519-11.705-0.922-18.381,0.068c-2.619,0.389-5.507,1.043-8.254,1.183c-2.443,0.123-5.063-0.78-8.113-0.392
		c-0.159,5.364,3.101,12.284-0.055,15.503c-1.328,1.356-8,2.656-10.319,4.23c-3.365,2.283-6.514,5.183-9.896,7.549
		c-3.453,2.416-12.238,10.883-16.377,10.819c-4.585-0.071-5.431-7.497-8.629-11.487c-4.105-5.12-5.972-5.167-13.524-4.81
		c-8.252,0.39-13.977,5.169-21.946,6.213c-7.085,0.928-17.797-0.92-24.231-3.302c-5.158-1.907-8.801-5.943-13.511-8.275
		c-2.094-1.038-4.747-1.324-6.881-2.169"/>
	<path fill="#019C27" d="M489.261,442.671c-4.361-1.439-9.77-1.348-14.38-1.367c-9.327-0.041-16.018-1.857-25.403-3.324
		c-14.603-2.277-29.381-1.693-43.563-5.465c-8.702-2.313-17.671-6.246-24.654-11.869c-8.291-6.674-10.738-16.294-13.298-26.486
		c-6.982-0.709-15.108,7.775-21.808,9.785c-4.413,1.324-10.731,3.547-15.63,3.055c-1.529-6.971-5.24-13.428-7.393-20.369
		c15.779,1.248,26.812-17.836,41.438-19.186c1.224,6.586-2.341,7.283,1.477,12.75c2.107,3.021,5.231,6.342,7.992,8.573
		c7.912,6.399,18.698,11.317,27.608,15.575c8.838,4.225,16.663,4.008,26.022,4.779c5.538,0.457,10.051,2.061,15.747,2.053
		c8.252-0.012,20.519-0.049,25.232-8.096c0.039,0.356-1.354-0.734-1.249-0.636c7.693-3.733,17.953,30.987,19.118,36.804"/>
	<path fill="#019C27" d="M505.694,564.55c-3.53,1.65-7.211-0.354-10.92-0.719c-5.966-0.588-12.009,0.465-17.82,0.734
		c-13.76,0.643-24.675-0.189-37.619-4.143c-6.484-1.979-18.888-5.156-22.152-12.117c-1.682-3.59-0.304-9.934-0.346-13.896
		c-0.05-4.332-1.611-7.404-1.779-11.406c-13.58,7.717-27.366,17.703-40.842,24.984c-10.269,5.545-23.72,15.77-36.17,13.723
		c-1.027-5.902,1.403-12.285,1.301-18.385c-0.045-2.576-1.363-5.414-0.735-8.217c1.212-5.416,1.111-3.719,5.49-5.479
		c11.794-4.744,26.251-5.576,38.214-10.805c7.609-3.324,14.532-8.605,21.359-13.184c4.731-3.172,13.106-12.678,16.464-6.807
		c2.722,4.76-2.05,13.506-0.717,18.469c1.517,5.652,11.093,11.688,17.042,13.613c14.721,4.766,32.182,6.248,47.559,6.926
		c8.506,0.377,16.559-4.688,24.359-3.33c0.26,10.135-0.968,20.24-1.316,30.035"/>
	<path fill="#019C27" d="M473.513,636.449c10.123,3.176,20.872-5.645,30.106-9.281c7.521-2.961,25.155-6.855,25.949-16.635
		c-11.215-0.576-18.537-4.123-29.476-8.066c-4.837-1.746-10.905-3.873-16.007-3.678c-5.293,0.203-7.527,3.139-12.115,5.514
		c-7.226,3.736-15.952,4.73-22.921,8.336c-7.03,3.635-12.876,6.932-21.364,8.742c-11.845,2.525-24.592,4.533-36.758,5.482
		c-4.955,0.385-23.138,3.563-26.71-0.293c-1.24-1.338-0.611-9.309-0.296-11.352c1.174-7.582,5.207-16.135,13.043-17.648
		c6.923-1.342,14.182,1.6,21.069,1.896c20.281,0.889,39.979-1.119,60.234-1.297c0.542,4.441-1.928,9.867-2.54,14.354
		c-1.219,8.896-1.087,8.695,3.423,12.945c3.992,3.766,10.977,9.064,15.729,11.66"/>
	<path fill="#DA01C1" d="M416.681,573.451c4.475,2.807,7.555,6.156,11.074,9.436c7.952,7.41,16.452,6.504,27.229,7.002
		c9.278,0.428,18.259,1.885,27.698,1.23c9.486-0.658,23.949-6.211,31.057,0.102c5.998,5.328,7.228,9.652,1.709,15.234
		c-7.021,7.105-8.346,4.945-16.923,5.188c-4.405,0.125-7.86,2.65-12.105,3.498c-4.971,0.988-10.209,0.305-15.48,0.748
		c-10.958,0.92-25.08,5.146-35.596-0.084c-1.625-0.807-4.251-5.203-5.073-6.502c-4.795-0.16-7.89-4.563-12.727-5.186
		c-0.255-4.535-2.997-12.658-8.104-12.775c-5.138-0.115-15.938,9.936-20.167,13.074c-5.035,3.736-9.843,10.887-15.729,13.025
		c-6.178,2.242-11.455-1.729-16.433-5.131c-4.498-3.074-10.544-6.617-10.271-12.809c0.266-6.088,9.971-8.963,15.749-11.672
		c14.142-6.631,30.794-13.256,43.12-23.436c3.949-3.262,8.172-7.406,10.337-11.943c-0.159,6.553-0.089,12.561-1.559,18.844
		c0.147,0.797,0.648,1.059,1.507,0.787"/>
</g>
<g id="Layer_3">
	<path d="M674.792,625.261c-10.015,1.201-19.62,5.408-29.581,7.482c-25.592,5.326-51.424,9.867-77.407,3.303
		c-13.961-3.525-15.261-8.801-6.734-19.973c7.79-10.203,5.623-16.709-7.012-19.412c-5.668-1.215-12.34,0.432-17.293-1.904
		c-8.932-4.209-17.918-9.439-24.787-16.326c-2.717-2.725-0.063-11.051,0.537-16.787c1.554-14.768,9.187-28.402,0.771-44.625
		c-6.903-13.311-7.512-29.768-11.91-44.527c-4.434-14.881-10.121-29.383-15.222-44.064c-10.088-29.055-18.417-58.701-43.129-80.365
		c-8.168-7.154-18.31-16.961-14.055-30.21c6.982-21.758-2.89-40.271-8.893-59.747c-1.794-5.822-4.339-12.888-2.604-18.066
		c7.714-23.009,2.939-43.507-4.207-66.311c-10.103-32.249-27.828-57.874-53.219-77.522c-40.337-31.217-79.937-64.151-130.842-78.469
		c-34.323-9.66-68.378-19.759-104.536-17.386c-5.553,0.366-11.715,2.08-16.272,5.145C88.561,18.817,85.135,32.928,93.716,63.022
		c1.205-5.978,1.125-11.782,3.535-16.242c5.279-9.763-6.354-25.981,9.943-30.392c11.506-3.109,24.127-2.102,36.256-2.9
		c0.959-0.063,1.961,0.054,2.904,0.27c23.661,5.313,47.38,10.39,70.963,16.036c52.195,12.493,92.044,46.291,133.033,77.959
		c6.988,5.398,8.369,9.758-2.881,13.732c-9.397,3.315-17.261,10.972-25.806,16.71c28.253-10.235,53.911-4.546,68.599,15.246
		c1.448,1.952,4.105,4.231,3.852,6.024c-2.62,18.33,12.943,28.748,18.66,43.423c6.85,17.589-3,31.917-6.938,47.425
		c-0.865,3.409-3.479,6.371-6.229,11.192c-5.746-8.341-10.521-15.271-13.948-20.246c4.479-9.741,8.102-17.611,11.718-25.479
		c-19.77,4.501-26.274,26.279-16.85,42.756c3.111,5.434,7.388,10.513,9.078,16.346c1.16,4.005,0.234,10.524-2.463,13.175
		c-2.382,2.348-8.891,2.162-12.898,0.91c-19.501-6.085-28.232-23.503-36.016-39.631c-6.959-14.431-16.065-25.309-29.713-32.193
		c-15.966-8.048-32.65-14.654-48.909-22.13c-3.92-1.803-7.401-4.572-9.113-5.651c23.286-16.97,45.653-33.27,68.019-49.573
		c-3.501,1.594-7.431,2.616-10.442,4.869c-33.398,24.959-70.814,37.559-112.545,38.097c-8.153,0.104-16.771,1.567-24.318,4.558
		c-38.539,15.284-76.755,31.38-115.17,46.971c-14.45,5.866-27.718,16.414-46.749,12.604c1.995-14.75,9.204-41.242,11.505-56.265
		c0.271,0.01,0.543,0.022,0.816,0.033c1.598-13.335,4.029-26.633,4.58-40.007c0.316-7.69,0.885-12.123,2.887-14.088
		c3.938-7.574,12.406-12.335,18.463-18.407c9.73-9.752,18.617-20.304,27.467-30.845c3.644-4.338,7.574-9.245,12.185-13.004
		c-0.17,0-0.338,0.001-0.508,0.001c-0.14,0.204-0.518,0.681-0.962,1.087c-18.799,17.275-37.972,34.165-56.211,52.015
		c-5.485,5.364-10.958,13.035-11.918,20.247c-1.871,14.051-0.547,28.525-0.547,42.82c0.148,0.008,0.297,0.012,0.445,0.018
		C13.209,210.273,3.929,241.722,0,260.683c1.355,1.34,2.714,2.675,4.07,4.014c18.107-7.179,36.4-13.924,54.271-21.643
		c24.405-10.545,48.229-22.489,72.891-32.364c6.607-2.648,16.234-2.1,22.964,0.666c26.728,10.981,52.669,23.854,79.272,35.157
		c17.857,7.59,36.657,12.999,54.393,20.839c7.719,3.411,16.519,9.77,3.195,18.812c-2.598,1.76-4.938,6.848-4.363,9.814
		c2.282,11.78,5.936,23.28,8.769,34.957c4.596,18.926,28.074,28.629,25.092,51.311c-0.021,0.146,2.139,1.008,3.518,1.334
		c1.57,13.334,3.586,26.297,5.187,39.596c2.509-0.514,5.018-1.029,7.526-1.543c-4.18-12.707-8.357-25.412-12.539-38.121
		c-0.425-5.958-0.849-11.916-1.418-19.924c11.418,3.071,20.535,4.803,29.021,8.145c3.719,1.465,7.584,5.727,8.896,9.563
		c5.161,15.092,10.235,30.336,13.394,45.918c1.158,5.705-1.117,14.865-5.271,18.361c-11.379,9.576-24.587,16.984-37.947,25.83
		c-1.568-3.928-2.832-7.088-4.526-11.32c-13.282,29.955-14.979,56.734,13.67,80.711c1.066-5.52,2.463-9.83,2.634-14.197
		c0.416-10.711,0.145-21.447,0.379-32.168c0.477-21.766,9.243-31.311,32.687-34.908c0.332,6.834,1.947,13.82,0.716,20.262
		c-2.628,13.729,3.999,20.637,15.451,25.23c2.688,1.08,5.107,2.809,7.747,4.039c10.673,4.977,16.678,12.26,15.414,25.07
		c-1.336,13.557-0.519,27.34-2.108,40.85c-0.567,4.801-4.642,10.008-8.526,13.438c-8.756,7.73-18.053,14.992-27.846,21.344
		c-3.685,2.389-11,4.002-13.77,1.99c-5.95-4.324-11.868-10.525-14.452-17.242c-4.545-11.807-6.578-24.582-10.013-38.342
		c-0.953,4.627-2.232,8.563-2.519,12.574c-2.088,29.316,19.974,64.936,47.617,75.117c18.147,6.688,37.165,11.002,55.39,17.498
		c14.331,5.111,28.653,10.844,41.918,18.209c32.665,18.146,64.72,37.391,100.072,57.977c7.8-33.586-13.948-49.371-31.268-70.779
		c33.826-4.674,64.396-8.893,93.885-12.967c-2.128-0.83-5.759-2.248-10.275-4.014c7.729-3.139,13.798-7.166,20.204-7.785
		c6.754-0.652,14.322,4.008,20.605,2.498c5.373-1.297,9.435-8.043,14.077-12.377C683.631,629.666,678.885,624.773,674.792,625.261z
		 M338.909,519.117c-15.745-15.801-15.712-21.291,1.729-34.4C339.996,497.472,339.509,507.185,338.909,519.117z M513.558,599.449
		c0.434,0.43-4.338,9.016-7.488,9.625c-8.977,1.73-18.369,1.305-27.602,1.729c-6.813-0.014-13.621,0.014-20.433-0.02
		c-24.945-0.123-39.143-10.699-40.781-39.061c-1.361-23.508,2.736-47.422,5.696-70.99c0.407-3.242,9.263-8.779,12.416-7.75
		c17.739,5.77,36.009,11.439,51.817,20.939c6.891,4.145,10.736,17.045,11.798,26.439C501.29,560.773,496.47,582.539,513.558,599.449
		z M450.372,378.587c1.125,1.435-3.042,7.02-4.757,10.686c-7.901-7.227-16.271-14.011-23.553-21.815
		c-5.096-5.458-10.857-12.027-0.729-22.232C431.721,356.894,441.554,367.343,450.372,378.587z M272.519,246.888
		c-35.207-12.863-72.283-21.197-107.966-45.382c43.071-18.269,76.923,0.126,112.87,12.986c41.119,14.711,55.507,50.49,77.313,87.21
		c-13.277-2.307-23.971-4.167-34.669-6.024c0.132-1.884,0.26-3.766,0.394-5.653c5.194-0.495,10.392-0.985,17.309-1.649
		C319.642,267.1,296.807,255.756,272.519,246.888z M300.853,319.835c-2.031-5.989-2.965-12.352-4.038-16.958
		c17.824,3.848,33.867,9.205,50.177,10.2c12.088,0.737,25.71-1.883,36.417-7.362c8.158-4.178,12.788-15.217,19.044-23.158
		c2.755-3.5,5.647-6.893,8.479-10.332c2.214,3.414,5.328,6.555,6.449,10.299c2.219,7.4,3.67,15.083,4.847,22.737
		c4.337,28.261-2.318,40.608-28.467,51.005C368.502,366.311,312.595,354.464,300.853,319.835z M397.673,477.871
		c-14.792,1.188-17.73-5.197-18.348-16.961c-0.735-14.059-0.706-28.273-3.004-42.091c-1.869-11.241-6.778-21.966-10.144-32.981
		c-1.176-3.846-1.77-7.871-2.258-10.104c13.411-5.117,24.8-10.301,36.714-13.524c3.713-1.001,10.801,2.071,12.947,5.44
		c4.596,7.211,5.477,17.042,10.698,23.53c4.876,6.06,12.957,10.879,20.515,12.844c3.449,0.899,9.028-6.354,15.815-11.591
		c17.457,32.689,28.854,69.301,40.922,108.611c-22.075-7.596-38.912-14.936-56.505-18.979
		C429.67,478.537,413.292,476.617,397.673,477.871z M398.159,621.71c-4.124-4.33-13.745-10.818-3.445-19.076
		c9.106-7.305,16.048-6.311,24.874,2.535c12.217,12.244,26.515,22.553,40.601,32.75c8.499,6.15,18.287,10.521,27.497,15.689
		C452.998,655.859,422.208,646.964,398.159,621.71z M565.775,711.953c-19.699-9.615-38.408-18.744-57.116-27.873
		c0.727-1.408,1.448-2.814,2.174-4.223C536.015,679.041,568.781,690.457,565.775,711.953z M465.405,623.533
		c43.514-22.877,72.867,3.252,100.849,30.688C547.279,662.632,482.811,643.361,465.405,623.533z"/>
</g>
</svg>
