<?xml version="1.0" encoding="utf-8"?>
<!-- Generator: Adobe Illustrator 16.0.0, SVG Export Plug-In . SVG Version: 6.00 Build 0)  -->
<!DOCTYPE svg PUBLIC "-//W3C//DTD SVG 1.1//EN" "http://www.w3.org/Graphics/SVG/1.1/DTD/svg11.dtd">
<svg version="1.1" id="Layer_1" xmlns="http://www.w3.org/2000/svg" xmlns:xlink="http://www.w3.org/1999/xlink" x="0px" y="0px"
	 width="688.082px" height="737.535px" viewBox="0 0 688.082 737.535" enable-background="new 0 0 688.082 737.535"
	 xml:space="preserve">
<g id="Layer_4">
	<polygon fill="#F30002" points="131.73,6.857 209.439,19.291 289.22,53.483 328.594,80.422 376.256,119.794 403.195,166.42 
		412.21,187.207 417.511,209.66 414.083,240.846 410.651,256.75 417.511,272.653 423.437,287.312 425.308,303.216 425.308,312.26 
		425.308,335.648 439.341,353.112 465.538,387.914 499.527,480.972 510.756,532.115 504.83,576.71 528.53,596.669 551.608,628.791 
		567.513,644.072 632.065,644.072 681.65,632.533 672.564,644.714 643.386,653.792 563.146,661.535 539.445,667.771 
		552.231,681.494 574.373,707.062 570.631,726.708 470.527,667.769 409.404,646.562 348.592,605.708 338.292,556.16 
		340.552,538.054 328.01,514.025 323.021,488.455 326.309,460.083 329.174,423.177 324.162,383.512 316.47,354.669 293.082,309.762 
		296.201,292.298 308.675,269.533 264.705,249.887 152.437,204.043 131.73,206.539 11.479,257.059 5.554,248.951 20.525,184.397 
		23.332,140.114 39.858,122.026 86.597,74.306 93.634,63.023 92.25,38.138 96.615,19.739 114.392,6.857 	"/>
</g>
<g id="Layer_1_1_">
	<polygon fill="#E2C374" points="291.535,296.654 340.98,306.303 380.292,296.654 399.349,277.841 413.338,265.54 422.876,285.922 
		427.088,315.952 425.308,335.647 404.414,357.195 369.199,364.913 326.508,355.024 303.593,335.246 291.535,305.82 	"/>
	<g>
		<g>
			<path fill="#0A8F00" d="M334.201,87.917c-3.338,2.119-6.897,3.824-10.343,5.678c-3.456,1.859-7.276,2.988-10.837,4.67
				c-4.931,2.327-9.53,5.534-14.555,7.996c-4.175,2.044-7.664,4.782-11.73,6.914c-5.223,2.738-11.265,2.878-16.693,5.246
				c-1.819,0.792-3.389,2.309-5.121,3.057c-2.333,1.007-4.896,1.044-7.321,2.085c-5.857,2.51-10.143,6.762-16.034,9.286
				c-11.069,4.744-21.122,7.404-33.206,8.118c-13.07,0.771-28.888-2.767-40.327,4.564c-6.767,4.335-16.882,5.44-24.791,9.32
				c-9.29,4.557-19.188,9.341-28.97,13.512c-10.594,4.517-21.647,5.803-32.344,9.883c-6.886,2.627-13.296,6.302-20.08,9.195
				c-0.078-1.247-0.134-2.497-0.129-3.756c0.02-7.39,0.714-14.61,1.034-21.882c0.3-6.752-1.235-13.313-0.522-19.971
				c0.81-7.565,1.514-15.112,2.266-22.705c0.291-2.926,0.547-6.2,1.166-9.049c0.708-3.266,3.804-7.893,5.607-10.59
				c7.729-11.569,2.949-8.648,11.396-18.91l2.725-4.443c-1.896,2.838-3.908,5.278-6.2,8.064
				c-8.448,10.262-13.646,23.05-22.885,32.59c-2.259,2.331-4.474,4.241-5.183,7.506c-0.619,2.85-0.875,6.125-1.166,9.05
				c-0.752,7.593-1.455,15.139-2.266,22.705c-0.713,6.658,0.822,13.217,0.523,19.97c-0.222,5.014-0.609,10.005-0.844,15.042
				c-0.104,2.269-0.187,4.545-0.191,6.841c-0.009,3.005,0.258,5.969,0.598,8.918c3.434-0.704,7.063-0.828,10.397-2.053
				c1.804-0.662,3.564-1.407,5.313-2.189c6.185-2.765,12.113-6.063,18.44-8.478c10.695-4.081,21.75-5.367,32.344-9.883
				c9.781-4.17,19.68-8.954,28.97-13.512c7.909-3.879,18.024-4.984,24.791-9.319c11.439-7.331,27.257-3.793,40.327-4.566
				c12.084-0.713,22.137-3.373,33.206-8.117c5.893-2.525,10.177-6.778,16.034-9.287c2.426-1.04,4.988-1.077,7.321-2.085
				c1.732-0.748,3.302-2.264,5.121-3.056c5.43-2.367,11.472-2.507,16.693-5.246c4.065-2.131,7.557-4.869,11.73-6.914
				c5.023-2.462,9.624-5.669,14.555-7.996c3.561-1.682,7.381-2.811,10.837-4.67c3.444-1.853,7.005-3.559,10.343-5.679
				c4.826-3.061,7-7.346,10.679-11.266L334.201,87.917z"/>
			<path fill="#0A8F00" d="M85.389,76.133c0.747-1.12,1.478-2.295,2.195-3.586L85.389,76.133z"/>
		</g>
	</g>
	<path fill="#0104DB" d="M22.611,249.481c0-9.792,1.323-19.154,1.313-28.961c-0.008-6.443,0.558-13.042,1.65-19.357
		c0.877-5.061,2.934-9.563,3.619-14.693c1.229-9.175,0.311-18.946,0.416-28.27c0.055-4.885,1.042-8.371,2.722-12.876
		c1.61-4.322,1.386-9.394,3.61-13.446c3.506-6.391,12.131-13.258,13.323-20.442c-4.109,2.699-7.745,6.909-11.324,10.265
		c-4.002,3.755-10.669,8.516-13.337,13.39c-3.92,7.163-4.586,19.512-5.498,27.844c-0.943,8.595,1.841,17.217,0.467,25.692
		c-1.593,9.82-5.013,19.573-6.895,29.684c-1.628,8.735-5.734,17.23-7.457,25.902c-1.181,5.936-2.691,10.047,4.646,10.077
		c5.205,0.022,7.68-3.052,12.308-4.809"/>
	<path fill="#0104DB" d="M19.115,238.112c4.016-0.824,7.205-4.421,11.421-5.707c5.73-1.749,11.69-3.384,17.448-5.322
		c11.682-3.933,23.055-8.925,34.225-14.214c3.376-1.597,6.547-4.079,9.877-5.78c6.614-3.381,13.485-3.409,20.283-5.368
		c5.851-1.686,11.543-3.7,17.313-5.601c5.022-1.653,9.845-5.162,14.571-6.874c5.516-1.996,11.219-3.566,16.577-5.774
		c2.963-1.222,6.332-3.41,9.367-3.988c7.515-1.428,17.076,0.126,24.779,0.032c6.884-0.083,12.969-2.014,19.574-3.499
		c10.661-2.396,21.761-3.938,32.307-7.439c23.06-7.657,46.693-20.157,66.547-34c7.008-4.888,13.603-9.103,21.35-13.02
		c4.026-2.037,16.986-9.873,20.191-7.169c8.862,7.479-11.875,16.167-16.635,17.369c-16.592,4.192-29.291,12.55-42.736,22.397
		c-15.239,11.163-34.125,23.168-52.955,25.352c-8.52,0.988-16.66,3.983-25.254,4.821c-6.92,0.674-13.472,1.292-20.24,3.083
		c-13.208,3.496-27.459,4.933-40.164,9.464c-11.679,4.167-22.276,10.232-33.731,14.199c-9.402,3.255-17.781,6.516-27.156,9.631
		c-10.786,3.584-21.559,8.814-32.489,12.945c-10.089,3.814-20.46,9.314-30.988,11.575c-5.615,1.206-10.826,2.985-16.466,4.201
		c-0.852-2.816-2.104-6.54-0.876-9.5c3.452,0.75,3.469-1.911,5.608-3.563"/>
	<path fill="#0104DB" d="M378.941,439.935c3.283,2.109,3.991,6.313,6.678,9.086c2.08,2.15,7.15,5.076,9.623,6.797
		c5.353,3.721,11.697,4.537,18.584,5.668c18.257,3.002,38.035,6.998,56.341,11.318c8.389,1.977,18.491,3.555,24.987,9.049
		c7.449,6.299,6.864,17.529,9.533,26.348c-8.951-5.377-16.01-8.695-27.17-8.695c-6.777,0-12.477,0.695-18.294-2.262
		c-4.253-2.158-7.563-5.559-12.36-7.191c-9.66-3.289-22.26-0.791-33.057-0.816c-13.338-0.035-23.282,1.715-32.691-7.611
		c-0.59-9.119-1.317-33.029-14.362-28.865c-6.854,2.188-12.329,10.064-18.66,13.865c-3.301,1.98-6.87,3.43-10.045,5.799
		c-1.593,1.188-6.626,7.736-8.591,7.826c-4.743,0.217-4.086-11.65-3.923-15.631c0.329-8.104,0.602-15.379,7.396-19.926
		c12.505-8.369,27.526-10.508,37.266-22.541c1.9-2.352,1.568-4.16,4.519-4.724c0.375,3.836,1.78,6.888,2.174,10.866
		c0.414,4.188-1.156,8.938,1.369,12.324"/>
	<path fill="#0104DB" d="M417.285,643.294c11.404,8.414,33.716-2.326,46.562-3.576c13.91-1.355,30.129,4.527,43.689,9.014
		c9.958,3.297,25.649,1.125,35.153-2.699c6.353-2.557,7.991-6.861,14.359-4.502c4.086,1.514,13.373,6.805,12.922,12.033
		c-0.527,6.098-13.018,9.285-18.297,9.736c-10.879,0.926-22.24-0.754-33.017-2.236c-14.664-2.021-29.121,1.59-43.754,2.121
		c-21.125,0.764-42.332-8.553-59.674-19.207"/>
	<path fill="#0104DB" d="M304.992,270.126c7.988,5.053,20.218,6.499,29.865,6.847c6.092,0.22,9.676-1.838,13.441,1.903
		c2.93,2.912,3.659,7.421,7.396,10.182c1.21-6.219,9.185-4.983,12.976-8.816c3.505-3.544,5.743-10.687,8.216-14.925
		c2.029-3.478,2.109-14.328,5.652-16.431c3.999-2.374,6.094,3.885,7.824,7.815c8.442-4.266,18.805-9.795,24.046-17.901
		c0.702,5.302-3.762,19.347-7.17,23.638c-2.877,3.623-7.178,2.021-9.537,4.313c-2.047,1.989-2.052,8.558-2.862,11.042
		c-1.734,5.307-4.691,17.367-10.385,19.922c-5.414,2.427-18.689-0.473-24.679-0.065c1.824,1.699,1.467,3.07,1.945,5.238
		c-6.887,0.727-12.253,3.63-18.918,3.375c-5.941-0.228-12.105-3.505-17.787-6.183c-6.354-2.995-13.185-2.892-15.234-8.865
		c-1.395-4.069-6.791-16.557-3.42-19.72"/>
	<path fill="#0A8F00" d="M254.324,245.477c11.146,1.357,22.599-4.534,33.379-5.478c11.718-1.026,22.275-5.639,33.604-6.742
		c3.02,12.713,12.114,13.578,22.047,8.131c7.436-4.079,20.441-12.313,25.521-19.173c3.069-4.145,3.079-6.887,7.977-9.642
		c1.924-1.082,5.389-1.229,6.896-3.354c1.583-2.233,0.392-5.811,1.818-8.266c3.682-6.333,6.114-2.571,10.49,0.551
		c3.778,2.696,4.372,4.609,10.539,2.901c1.963-0.543,6.087-2.697,7.852-4.08c4.681,11.572,6.353,19.855,2.049,31.386
		c-6.572,0.52-11.704-0.922-18.381,0.069c-2.619,0.389-5.506,1.043-8.254,1.183c-2.442,0.123-5.063-0.78-8.113-0.391
		c-0.159,5.362,3.101,12.283-0.055,15.502c-1.328,1.357-8,2.658-10.32,4.23c-3.363,2.283-6.512,5.182-9.894,7.549
		c-3.454,2.416-12.239,10.882-16.378,10.818c-4.585-0.07-5.43-7.497-8.629-11.487c-4.105-5.12-5.972-5.167-13.525-4.81
		c-8.25,0.39-13.975,5.168-21.947,6.214c-7.082,0.927-17.793-0.921-24.229-3.301c-5.158-1.907-8.802-5.943-13.511-8.276
		c-2.094-1.037-4.747-1.324-6.881-2.168"/>
	<path fill="#0A8F00" d="M489.179,442.673c-4.361-1.441-9.771-1.352-14.379-1.369c-9.328-0.039-16.019-1.857-25.403-3.324
		c-14.604-2.279-29.382-1.693-43.563-5.465c-8.703-2.313-17.672-6.248-24.655-11.869c-8.29-6.673-10.738-16.296-13.298-26.488
		c-6.981-0.707-15.108,7.776-21.807,9.786c-4.413,1.324-10.731,3.548-15.631,3.056c-1.529-6.972-5.239-13.428-7.391-20.369
		c15.778,1.246,26.81-17.836,41.438-19.187c1.225,6.589-2.342,7.283,1.478,12.75c2.106,3.022,5.23,6.343,7.991,8.574
		c7.912,6.397,18.698,11.315,27.608,15.573c8.839,4.228,16.663,4.011,26.022,4.781c5.539,0.457,10.051,2.062,15.748,2.054
		c8.25-0.013,20.518-0.048,25.231-8.097c0.039,0.357-1.353-0.733-1.249-0.633c7.694-3.738,17.953,30.986,19.118,36.801"/>
	<path fill="#0A8F00" d="M505.612,564.552c-3.529,1.648-7.21-0.355-10.919-0.721c-5.967-0.588-12.009,0.465-17.82,0.736
		c-13.761,0.643-24.675-0.191-37.62-4.145c-6.483-1.979-18.888-5.152-22.152-12.119c-1.682-3.586-0.304-9.93-0.347-13.895
		c-0.049-4.332-1.61-7.406-1.778-11.406c-13.582,7.715-27.367,17.701-40.842,24.98c-10.269,5.547-23.72,15.773-36.17,13.725
		c-1.027-5.9,1.404-12.285,1.301-18.385c-0.045-2.576-1.362-5.412-0.734-8.215c1.212-5.418,1.111-3.719,5.49-5.479
		c11.792-4.744,26.25-5.576,38.214-10.803c7.608-3.326,14.53-8.607,21.358-13.188c4.73-3.172,13.106-12.678,16.465-6.805
		c2.721,4.758-2.051,13.506-0.718,18.469c1.518,5.65,11.093,11.688,17.042,13.613c14.722,4.766,32.183,6.244,47.559,6.926
		c8.506,0.377,16.559-4.688,24.359-3.334c0.26,10.141-0.967,20.244-1.316,30.039"/>
	<path fill="#0A8F00" d="M473.431,636.449c10.123,3.176,20.873-5.646,30.106-9.279c7.521-2.961,25.156-6.855,25.949-16.637
		c-11.215-0.576-18.537-4.123-29.476-8.066c-4.837-1.746-10.905-3.873-16.005-3.678c-5.295,0.203-7.529,3.139-12.117,5.512
		c-7.226,3.736-15.951,4.732-22.922,8.338c-7.029,3.635-12.875,6.932-21.363,8.742c-11.846,2.527-24.592,4.533-36.758,5.48
		c-4.954,0.387-23.137,3.564-26.709-0.289c-1.242-1.34-0.613-9.311-0.297-11.354c1.174-7.582,5.207-16.135,13.043-17.648
		c6.922-1.34,14.182,1.6,21.069,1.898c20.281,0.889,39.979-1.123,60.234-1.299c0.543,4.441-1.927,9.869-2.54,14.355
		c-1.22,8.896-1.087,8.693,3.423,12.945c3.992,3.764,10.978,9.064,15.729,11.66"/>
	<path fill="#0104DB" d="M416.599,573.453c4.476,2.805,7.555,6.154,11.074,9.434c7.952,7.412,16.452,6.506,27.229,7.002
		c9.28,0.428,18.26,1.885,27.698,1.23c9.487-0.656,23.95-6.213,31.058,0.102c5.998,5.328,7.228,9.652,1.709,15.234
		c-7.021,7.107-8.346,4.947-16.923,5.189c-4.405,0.127-7.859,2.648-12.105,3.496c-4.971,0.99-10.209,0.305-15.479,0.748
		c-10.959,0.92-25.079,5.146-35.598-0.084c-1.623-0.807-4.25-5.201-5.072-6.5c-4.795-0.158-7.889-4.563-12.727-5.188
		c-0.253-4.535-2.997-12.656-8.104-12.775c-5.138-0.113-15.938,9.938-20.166,13.074c-5.036,3.738-9.844,10.889-15.729,13.025
		c-6.178,2.244-11.455-1.729-16.432-5.131c-4.5-3.074-10.544-6.617-10.272-12.807c0.268-6.09,9.971-8.963,15.75-11.674
		c14.141-6.631,30.793-13.258,43.119-23.436c3.949-3.262,8.174-7.406,10.337-11.943c-0.158,6.555-0.089,12.561-1.559,18.844
		c0.148,0.797,0.65,1.059,1.509,0.787"/>
</g>
<g id="Layer_3">
	<path d="M674.708,625.263c-10.014,1.201-19.62,5.408-29.58,7.48c-25.592,5.328-51.424,9.867-77.407,3.303
		c-13.961-3.525-15.263-8.801-6.734-19.971c7.791-10.203,5.623-16.711-7.011-19.414c-5.669-1.215-12.341,0.434-17.295-1.902
		c-8.932-4.211-17.916-9.441-24.786-16.326c-2.716-2.727-0.063-11.053,0.537-16.787c1.555-14.77,9.187-28.404,0.771-44.627
		c-6.904-13.311-7.511-29.768-11.911-44.527c-4.432-14.881-10.12-29.383-15.221-44.064c-10.088-29.055-18.416-58.702-43.129-80.364
		c-8.168-7.155-18.309-16.963-14.055-30.211c6.983-21.759-2.89-40.271-8.893-59.748c-1.794-5.822-4.339-12.887-2.604-18.066
		c7.715-23.009,2.941-43.505-4.207-66.309c-10.102-32.25-27.828-57.875-53.218-77.522c-40.339-31.218-79.938-64.152-130.843-78.47
		C194.802,8.077,160.748-2.021,124.589,0.35c-5.553,0.367-11.715,2.082-16.271,5.145C88.48,18.817,85.052,32.929,93.634,63.023
		c1.205-5.979,1.125-11.784,3.535-16.244c5.28-9.764-6.354-25.98,9.943-30.391c11.506-3.11,24.128-2.102,36.256-2.902
		c0.959-0.063,1.961,0.055,2.904,0.271c23.661,5.313,47.381,10.389,70.963,16.035c52.195,12.494,92.045,46.292,133.033,77.961
		c6.988,5.398,8.369,9.757-2.881,13.731c-9.396,3.314-17.26,10.972-25.806,16.709c28.253-10.235,53.911-4.546,68.6,15.246
		c1.448,1.953,4.104,4.232,3.851,6.026c-2.62,18.33,12.943,28.748,18.66,43.423c6.85,17.588-3,31.917-6.938,47.425
		c-0.865,3.409-3.479,6.371-6.229,11.191c-5.746-8.341-10.521-15.269-13.948-20.246c4.479-9.741,8.102-17.61,11.72-25.479
		c-19.771,4.502-26.276,26.281-16.852,42.756c3.111,5.435,7.387,10.513,9.079,16.346c1.159,4.006,0.233,10.523-2.464,13.176
		c-2.382,2.348-8.89,2.162-12.898,0.91c-19.5-6.086-28.233-23.503-36.014-39.632c-6.961-14.43-16.067-25.309-29.715-32.191
		c-15.964-8.048-32.648-14.654-48.908-22.131c-3.92-1.804-7.402-4.571-9.115-5.651c23.287-16.969,45.654-33.269,68.02-49.572
		c-3.501,1.595-7.431,2.616-10.442,4.869c-33.399,24.959-70.813,37.56-112.545,38.097c-8.154,0.104-16.771,1.567-24.318,4.56
		c-38.538,15.284-76.754,31.379-115.17,46.97c-14.45,5.865-27.719,16.414-46.748,12.604c1.994-14.749,9.203-41.242,11.504-56.264
		c0.271,0.009,0.545,0.021,0.816,0.031c1.598-13.333,4.029-26.632,4.58-40.007c0.316-7.688,0.884-12.124,2.887-14.087
		c3.938-7.573,12.406-12.335,18.464-18.407c9.729-9.752,18.618-20.303,27.466-30.845c3.644-4.339,7.574-9.246,12.185-13.006
		c-0.17,0-0.337,0.002-0.508,0.002c-0.141,0.204-0.517,0.681-0.961,1.088c-18.8,17.274-37.974,34.166-56.212,52.016
		c-5.485,5.363-10.956,13.035-11.918,20.246c-1.87,14.051-0.547,28.525-0.547,42.822c0.148,0.006,0.297,0.011,0.447,0.018
		c-4.281,19.778-13.561,51.228-17.49,70.19c1.355,1.339,2.713,2.675,4.07,4.012c18.107-7.179,36.401-13.924,54.272-21.643
		c24.404-10.545,48.229-22.489,72.89-32.364c6.608-2.647,16.236-2.098,22.965,0.666c26.727,10.981,52.668,23.855,79.271,35.158
		c17.857,7.592,36.657,13,54.393,20.84c7.719,3.41,16.52,9.77,3.195,18.813c-2.597,1.76-4.938,6.846-4.363,9.814
		c2.283,11.78,5.936,23.278,8.768,34.957c4.597,18.926,28.076,28.628,25.093,51.312c-0.021,0.145,2.139,1.004,3.518,1.332
		c1.57,13.334,3.588,26.297,5.187,39.598c2.51-0.516,5.018-1.031,7.526-1.545c-4.178-12.708-8.357-25.412-12.539-38.12
		c-0.424-5.958-0.848-11.916-1.418-19.925c11.417,3.07,20.535,4.804,29.021,8.143c3.718,1.467,7.584,5.729,8.896,9.564
		c5.161,15.091,10.235,30.336,13.394,45.916c1.159,5.707-1.118,14.867-5.27,18.363c-11.379,9.578-24.588,16.984-37.948,25.832
		c-1.569-3.926-2.832-7.09-4.526-11.322c-13.282,29.955-14.979,56.734,13.669,80.711c1.067-5.52,2.464-9.832,2.635-14.197
		c0.416-10.713,0.146-21.447,0.379-32.166c0.478-21.768,9.242-31.313,32.688-34.91c0.331,6.836,1.946,13.818,0.714,20.262
		c-2.627,13.729,4,20.639,15.453,25.23c2.688,1.082,5.107,2.811,7.746,4.039c10.673,4.979,16.678,12.258,15.414,25.072
		c-1.336,13.555-0.518,27.338-2.109,40.848c-0.566,4.803-4.642,10.01-8.525,13.438c-8.756,7.73-18.053,14.992-27.846,21.344
		c-3.684,2.391-11,4.004-13.77,1.99c-5.95-4.324-11.868-10.525-14.452-17.242c-4.545-11.807-6.577-24.582-10.012-38.342
		c-0.954,4.629-2.233,8.564-2.52,12.574c-2.086,29.318,19.974,64.936,47.617,75.117c18.149,6.688,37.166,11.002,55.391,17.498
		c14.33,5.111,28.652,10.844,41.917,18.211c32.665,18.145,64.721,37.391,100.072,57.975c7.8-33.586-13.948-49.371-31.268-70.779
		c33.826-4.672,64.396-8.893,93.884-12.965c-2.127-0.832-5.758-2.25-10.275-4.016c7.729-3.139,13.799-7.166,20.205-7.787
		c6.754-0.65,14.322,4.01,20.606,2.5c5.373-1.297,9.434-8.043,14.076-12.377C683.549,629.666,678.803,624.773,674.708,625.263z
		 M338.827,519.119c-15.745-15.803-15.712-21.293,1.729-34.402C339.914,497.472,339.427,507.185,338.827,519.119z M513.476,599.451
		c0.434,0.428-4.338,9.016-7.487,9.623c-8.978,1.73-18.37,1.305-27.602,1.729c-6.813-0.016-13.622,0.014-20.434-0.02
		c-24.946-0.123-39.143-10.699-40.781-39.059c-1.36-23.512,2.736-47.424,5.697-70.996c0.407-3.238,9.263-8.775,12.416-7.746
		c17.739,5.771,36.008,11.439,51.816,20.939c6.891,4.145,10.737,17.045,11.798,26.439
		C501.208,560.773,496.388,582.539,513.476,599.451z M450.29,378.587c1.127,1.434-3.041,7.019-4.757,10.685
		c-7.901-7.226-16.271-14.013-23.553-21.816c-5.096-5.458-10.856-12.027-0.729-22.23
		C431.639,356.894,441.471,367.343,450.29,378.587z M272.438,246.888c-35.208-12.863-72.284-21.196-107.968-45.382
		c43.071-18.268,76.924,0.127,112.872,12.986c41.118,14.71,55.507,50.489,77.313,87.21c-13.276-2.306-23.971-4.168-34.669-6.024
		c0.131-1.884,0.26-3.767,0.394-5.652c5.194-0.494,10.392-0.986,17.309-1.65C319.56,267.098,296.726,255.757,272.438,246.888z
		 M300.771,319.836c-2.031-5.99-2.965-12.353-4.037-16.961c17.822,3.85,33.867,9.206,50.176,10.203
		c12.089,0.736,25.711-1.884,36.417-7.364c8.159-4.179,12.788-15.216,19.044-23.156c2.757-3.503,5.646-6.894,8.479-10.333
		c2.214,3.413,5.328,6.554,6.448,10.298c2.219,7.4,3.671,15.083,4.847,22.738c4.337,28.261-2.316,40.606-28.467,51.004
		C368.421,366.311,312.513,354.465,300.771,319.836z M397.592,477.871c-14.792,1.188-17.731-5.197-18.349-16.961
		c-0.735-14.059-0.705-28.273-3.004-42.091c-1.869-11.241-6.778-21.965-10.144-32.981c-1.175-3.846-1.77-7.873-2.258-10.105
		c13.413-5.117,24.8-10.3,36.715-13.523c3.712-1.001,10.8,2.07,12.948,5.438c4.594,7.213,5.475,17.042,10.696,23.532
		c4.877,6.059,12.957,10.877,20.515,12.844c3.448,0.898,9.028-6.355,15.815-11.592c17.457,32.691,28.853,69.305,40.922,108.613
		c-22.073-7.596-38.912-14.938-56.505-18.98C429.588,478.535,413.208,476.617,397.592,477.871z M398.078,621.71
		c-4.125-4.33-13.746-10.818-3.446-19.074c9.106-7.305,16.047-6.313,24.873,2.533c12.217,12.246,26.516,22.553,40.602,32.75
		c8.499,6.15,18.287,10.521,27.497,15.689C452.917,655.859,422.126,646.962,398.078,621.71z M565.694,711.953
		c-19.701-9.615-38.409-18.742-57.116-27.873c0.727-1.408,1.447-2.814,2.173-4.223C535.933,679.041,568.699,690.455,565.694,711.953
		z M465.324,623.533c43.513-22.879,72.867,3.252,100.847,30.688C547.199,662.634,482.73,643.359,465.324,623.533z"/>
</g>
</svg>
