<?xml version="1.0" encoding="utf-8"?>
<!-- Generator: Adobe Illustrator 16.0.0, SVG Export Plug-In . SVG Version: 6.00 Build 0)  -->
<!DOCTYPE svg PUBLIC "-//W3C//DTD SVG 1.1//EN" "http://www.w3.org/Graphics/SVG/1.1/DTD/svg11.dtd">
<svg version="1.1" id="Layer_1" xmlns="http://www.w3.org/2000/svg" xmlns:xlink="http://www.w3.org/1999/xlink" x="0px" y="0px"
	 width="688.082px" height="737.535px" viewBox="0 0 688.082 737.535" enable-background="new 0 0 688.082 737.535"
	 xml:space="preserve">
<g id="Layer_4">
	<polygon fill="#FFAA00" points="131.825,6.882 209.533,19.316 289.315,53.508 328.689,80.448 376.349,119.82 403.289,166.446 
		412.304,187.232 417.607,209.685 414.177,240.871 410.746,256.775 417.607,272.679 423.533,287.336 425.402,303.241 
		425.402,312.285 425.402,335.673 439.435,353.138 465.633,387.939 499.623,481 510.851,532.142 504.926,576.736 528.626,596.695 
		551.703,628.816 567.609,644.097 632.16,644.097 681.746,632.558 672.66,644.74 643.482,653.816 563.242,661.56 539.539,667.796 
		552.326,681.519 574.467,707.087 570.726,726.734 470.621,667.794 409.498,646.587 348.685,605.734 338.386,556.185 
		340.646,538.08 328.105,514.05 323.115,488.478 326.404,460.109 329.269,423.203 324.258,383.537 316.566,354.694 293.178,309.787 
		296.294,292.323 308.769,269.558 264.799,249.911 152.532,204.069 131.825,206.564 11.574,257.084 5.649,248.976 20.619,184.422 
		23.426,140.139 39.953,122.051 86.692,74.332 93.729,63.048 92.345,38.164 96.711,19.764 114.486,6.882 	"/>
</g>
<g id="Layer_1_1_">
	<polygon fill="#E2C374" points="291.629,296.679 341.074,306.328 380.388,296.679 399.443,277.866 413.433,265.566 422.97,285.947 
		427.181,315.976 425.402,335.673 404.51,357.22 369.295,364.938 326.603,355.049 303.687,335.271 291.629,305.845 	"/>
	<g>
		<g>
			<path fill="#FFE402" d="M334.297,87.941c-3.339,2.12-6.898,3.825-10.345,5.678c-3.455,1.859-7.276,2.989-10.836,4.669
				c-4.93,2.329-9.53,5.535-14.557,7.997c-4.171,2.044-7.662,4.782-11.729,6.913c-5.224,2.739-11.265,2.879-16.694,5.245
				c-1.818,0.793-3.39,2.309-5.119,3.057c-2.335,1.008-4.896,1.045-7.323,2.085c-5.858,2.509-10.142,6.762-16.034,9.288
				c-11.069,4.744-21.123,7.404-33.206,8.117c-13.071,0.771-28.888-2.766-40.327,4.564c-6.766,4.336-16.882,5.441-24.79,9.32
				c-9.291,4.558-19.188,9.341-28.971,13.511c-10.594,4.518-21.646,5.803-32.345,9.884c-6.884,2.625-13.294,6.301-20.08,9.195
				c-0.077-1.247-0.131-2.497-0.129-3.756c0.02-7.391,0.715-14.611,1.037-21.883c0.299-6.752-1.236-13.313-0.525-19.97
				c0.811-7.565,1.516-15.112,2.267-22.704c0.29-2.926,0.547-6.2,1.165-9.05c0.71-3.265,3.806-7.892,5.607-10.59
				c7.729-11.569,2.949-8.646,11.396-18.909l2.726-4.444c-1.896,2.839-3.908,5.279-6.201,8.065
				c-8.447,10.262-13.643,23.049-22.885,32.589c-2.258,2.331-4.474,4.242-5.183,7.506c-0.618,2.85-0.875,6.124-1.163,9.051
				c-0.753,7.593-1.457,15.139-2.268,22.705c-0.712,6.657,0.823,13.217,0.523,19.97c-0.222,5.013-0.609,10.005-0.844,15.042
				c-0.104,2.27-0.186,4.545-0.191,6.842c-0.008,3.005,0.257,5.968,0.599,8.919c3.434-0.704,7.063-0.829,10.396-2.054
				c1.803-0.662,3.564-1.407,5.313-2.188c6.187-2.766,12.113-6.064,18.439-8.478c10.696-4.081,21.751-5.367,32.345-9.884
				c9.781-4.171,19.68-8.954,28.971-13.512c7.908-3.878,18.024-4.984,24.79-9.32c11.439-7.33,27.256-3.793,40.327-4.564
				c12.083-0.713,22.137-3.374,33.206-8.117c5.894-2.526,10.176-6.778,16.034-9.288c2.427-1.04,4.988-1.077,7.323-2.085
				c1.729-0.748,3.301-2.264,5.118-3.057c5.432-2.367,11.473-2.506,16.695-5.246c4.066-2.131,7.558-4.869,11.729-6.912
				c5.024-2.463,9.627-5.669,14.557-7.998c3.56-1.681,7.381-2.81,10.836-4.669c3.445-1.854,7.006-3.558,10.345-5.678
				c4.825-3.062,7-7.348,10.676-11.268L334.297,87.941z"/>
			<path fill="#FFE402" d="M85.484,76.157c0.746-1.12,1.477-2.294,2.196-3.585L85.484,76.157z"/>
		</g>
	</g>
	<path fill="#FFE402" d="M254.42,245.501c11.146,1.357,22.599-4.534,33.378-5.477c11.718-1.026,22.276-5.639,33.604-6.742
		c3.021,12.712,12.113,13.579,22.047,8.13c7.437-4.078,20.439-12.312,25.521-19.173c3.069-4.146,3.08-6.887,7.979-9.642
		c1.922-1.081,5.39-1.228,6.896-3.353c1.582-2.232,0.391-5.811,1.817-8.265c3.683-6.333,6.115-2.572,10.49,0.55
		c3.777,2.697,4.371,4.61,10.539,2.902c1.963-0.544,6.086-2.698,7.853-4.08c4.68,11.571,6.352,19.854,2.047,31.387
		c-6.572,0.52-11.703-0.922-18.379,0.068c-2.619,0.388-5.509,1.044-8.255,1.182c-2.442,0.123-5.063-0.779-8.112-0.39
		c-0.16,5.363,3.1,12.283-0.056,15.502c-1.327,1.356-8,2.657-10.319,4.23c-3.365,2.282-6.515,5.182-9.896,7.549
		c-3.453,2.417-12.237,10.882-16.377,10.819c-4.586-0.071-5.432-7.497-8.631-11.487c-4.104-5.12-5.969-5.167-13.523-4.81
		c-8.252,0.39-13.975,5.169-21.946,6.213c-7.083,0.928-17.795-0.92-24.23-3.3c-5.158-1.908-8.802-5.944-13.51-8.276
		c-2.097-1.038-4.749-1.324-6.882-2.169"/>
	<path fill="#FFE402" d="M489.275,442.697c-4.361-1.439-9.768-1.352-14.381-1.369c-9.326-0.037-16.016-1.855-25.402-3.322
		c-14.602-2.279-29.381-1.693-43.563-5.465c-8.703-2.313-17.67-6.248-24.654-11.869c-8.291-6.674-10.738-16.295-13.299-26.488
		c-6.98-0.707-15.107,7.775-21.807,9.786c-4.412,1.323-10.732,3.548-15.63,3.055c-1.528-6.971-5.239-13.428-7.393-20.368
		c15.779,1.246,26.813-17.837,41.439-19.187c1.223,6.588-2.343,7.282,1.475,12.75c2.109,3.022,5.232,6.342,7.994,8.573
		c7.912,6.398,18.697,11.315,27.606,15.574c8.839,4.226,16.662,4.008,26.023,4.779c5.539,0.457,10.051,2.061,15.748,2.055
		c8.25-0.012,20.518-0.049,25.231-8.098c0.039,0.357-1.354-0.732-1.25-0.634c7.693-3.735,17.953,30.987,19.119,36.804"/>
	<path fill="#FFE402" d="M505.708,564.578c-3.531,1.646-7.212-0.355-10.921-0.721c-5.965-0.586-12.008,0.465-17.819,0.734
		c-13.761,0.645-24.674-0.189-37.619-4.143c-6.484-1.979-18.887-5.156-22.152-12.119c-1.682-3.588-0.305-9.93-0.348-13.896
		c-0.047-4.328-1.609-7.402-1.777-11.404c-13.58,7.717-27.367,17.703-40.842,24.98c-10.268,5.547-23.719,15.773-36.17,13.727
		c-1.027-5.902,1.404-12.285,1.301-18.387c-0.045-2.574-1.363-5.414-0.736-8.217c1.214-5.416,1.111-3.717,5.492-5.477
		c11.791-4.744,26.25-5.576,38.213-10.805c7.609-3.324,14.531-8.605,21.359-13.184c4.73-3.172,13.105-12.678,16.463-6.807
		c2.723,4.76-2.049,13.506-0.717,18.471c1.518,5.65,11.094,11.686,17.043,13.611c14.721,4.766,32.182,6.246,47.557,6.928
		c8.508,0.377,16.562-4.689,24.361-3.334c0.26,10.139-0.967,20.242-1.316,30.039"/>
	<path fill="#FFE402" d="M473.527,636.472c10.123,3.178,20.871-5.643,30.107-9.279c7.52-2.961,25.153-6.855,25.948-16.635
		c-11.215-0.576-0.276,3.369-11.215-0.576c-4.838-1.744-35.977,4.08-41.076,4.275c-5.295,0.203-6.813,1.047-11.399,3.42
		c-7.228,3.736-9.859-8.619-16.828-5.014c-7.029,3.635-12.875,6.932-21.363,8.742c-11.846,2.525-24.592,4.533-36.758,5.479
		c-4.955,0.389-23.137,3.566-26.711-0.291c-1.24-1.338-0.316,2.043,0,0c1.174-7.582,4.135-7.877,11.969-9.393
		c6.925-1.34,14.961-18.008,21.851-17.707c20.281,0.885,4.813-1.123,25.065-1.299c0.543,4.439,27.427,22.219,26.813,26.703
		c-1.219,8.9,4.729-3.654,9.238,0.596c3.991,3.764,10.975,9.064,15.727,11.662"/>
</g>
<g id="Layer_3">
	<path d="M674.804,625.287c-10.017,1.203-19.621,5.41-29.582,7.48c-25.59,5.326-51.424,9.867-77.406,3.305
		c-13.961-3.525-15.262-8.803-6.733-19.973c7.791-10.205,5.622-16.711-7.013-19.414c-5.668-1.215-12.34,0.436-17.293-1.902
		c-8.932-4.209-17.918-9.439-24.789-16.326c-2.715-2.725-0.061-11.051,0.539-16.787c1.553-14.768,9.187-28.404,0.771-44.627
		c-6.904-13.309-7.513-29.766-11.91-44.525c-4.435-14.881-10.121-29.383-15.222-44.064c-10.088-29.057-18.416-58.703-43.129-80.365
		c-8.17-7.156-18.309-16.964-14.055-30.212c6.984-21.757-2.889-40.27-8.893-59.746c-1.793-5.822-4.338-12.889-2.605-18.066
		c7.715-23.01,2.941-43.506-4.205-66.311c-10.102-32.249-27.828-57.875-53.219-77.522C319.723,65.015,280.124,32.08,229.22,17.762
		c-34.324-9.66-68.379-19.759-104.534-17.386c-5.556,0.366-11.716,2.081-16.273,5.145C88.574,18.842,85.148,32.955,93.729,63.048
		c1.206-5.979,1.125-11.783,3.535-16.243c5.279-9.764-6.354-25.981,9.942-30.392c11.506-3.109,24.128-2.103,36.255-2.901
		c0.96-0.063,1.963,0.055,2.905,0.27c23.661,5.314,47.381,10.39,70.963,16.035c52.195,12.495,92.043,46.292,133.034,77.961
		c6.988,5.397,8.369,9.757-2.881,13.731c-9.397,3.315-17.26,10.973-25.805,16.71c28.252-10.235,53.91-4.546,68.598,15.245
		c1.447,1.953,4.105,4.232,3.853,6.026c-2.621,18.33,12.94,28.747,18.659,43.422c6.851,17.588-3,31.918-6.938,47.425
		c-0.865,3.409-3.479,6.372-6.229,11.191c-5.746-8.342-10.521-15.269-13.948-20.246c4.479-9.741,8.1-17.61,11.719-25.479
		c-19.771,4.502-26.277,26.28-16.851,42.756c3.111,5.434,7.39,10.512,9.078,16.346c1.16,4.006,0.234,10.523-2.463,13.176
		c-2.383,2.347-8.891,2.162-12.897,0.909c-19.502-6.085-28.234-23.503-36.017-39.632c-6.959-14.429-16.065-25.309-29.715-32.191
		c-15.962-8.048-32.648-14.653-48.908-22.13c-3.92-1.803-7.402-4.571-9.113-5.651c23.286-16.97,45.654-33.27,68.018-49.573
		c-3.5,1.595-7.43,2.616-10.443,4.869c-33.397,24.96-70.812,37.559-112.543,38.096c-8.153,0.104-16.771,1.568-24.319,4.56
		c-38.536,15.285-76.754,31.38-115.169,46.971c-14.449,5.864-27.718,16.413-46.749,12.603c1.996-14.748,9.203-41.242,11.506-56.264
		c0.271,0.01,0.544,0.022,0.815,0.032c1.598-13.334,4.03-26.632,4.58-40.007c0.317-7.689,0.885-12.124,2.887-14.088
		c3.938-7.574,12.406-12.335,18.464-18.407c9.73-9.752,18.617-20.304,27.467-30.845c3.643-4.339,7.573-9.246,12.184-13.006
		c-0.169,0-0.337,0.002-0.508,0.002c-0.14,0.204-0.518,0.681-0.961,1.087c-18.799,17.275-37.973,34.166-56.21,52.016
		c-5.486,5.364-10.959,13.036-11.919,20.247c-1.871,14.051-0.548,28.525-0.548,42.821c0.148,0.007,0.298,0.012,0.446,0.018
		c-4.279,19.78-13.559,51.228-17.488,70.19c1.355,1.34,2.714,2.675,4.069,4.013c18.107-7.179,36.401-13.924,54.272-21.643
		c24.404-10.545,48.229-22.489,72.891-32.364c6.607-2.648,16.234-2.099,22.963,0.666c26.729,10.981,52.67,23.856,79.271,35.158
		c17.858,7.591,36.659,12.999,54.394,20.839c7.719,3.41,16.519,9.77,3.195,18.812c-2.597,1.761-4.938,6.847-4.363,9.813
		c2.282,11.781,5.936,23.28,8.769,34.958c4.596,18.925,28.074,28.628,25.092,51.31c-0.02,0.146,2.137,1.006,3.519,1.334
		c1.569,13.333,3.586,26.297,5.186,39.596c2.508-0.516,5.018-1.029,7.527-1.543c-4.181-12.709-8.359-25.414-12.539-38.121
		c-0.424-5.959-0.851-11.916-1.418-19.926c11.416,3.071,20.532,4.805,29.02,8.145c3.717,1.466,7.584,5.727,8.896,9.563
		c5.162,15.091,10.235,30.335,13.393,45.917c1.158,5.707-1.117,14.865-5.268,18.361c-11.381,9.578-24.588,16.984-37.951,25.83
		c-1.566-3.924-2.83-7.088-4.525-11.318c-13.281,29.953-14.979,56.732,13.67,80.711c1.066-5.521,2.465-9.832,2.636-14.199
		c0.416-10.711,0.143-21.445,0.379-32.166c0.475-21.766,9.241-31.313,32.686-34.908c0.332,6.834,1.947,13.818,0.715,20.262
		c-2.627,13.729,4,20.639,15.451,25.23c2.688,1.08,5.109,2.809,7.748,4.037c10.672,4.979,16.678,12.26,15.414,25.072
		c-1.336,13.557-0.518,27.34-2.109,40.85c-0.565,4.801-4.641,10.01-8.526,13.438c-8.754,7.73-18.051,14.992-27.845,21.344
		c-3.686,2.389-11.002,4.004-13.77,1.99c-5.951-4.324-11.869-10.525-14.453-17.242c-4.545-11.805-6.578-24.582-10.012-38.342
		c-0.953,4.627-2.232,8.564-2.519,12.574c-2.088,29.318,19.974,64.936,47.617,75.117c18.148,6.688,37.164,11,55.392,17.498
		c14.329,5.109,28.651,10.844,41.916,18.209c32.666,18.145,64.719,37.393,100.071,57.977c7.802-33.586-13.946-49.371-31.266-70.779
		c33.826-4.674,64.395-8.893,93.883-12.965c-2.127-0.832-5.758-2.25-10.275-4.016c7.729-3.139,13.8-7.166,20.203-7.787
		c6.756-0.65,14.324,4.012,20.607,2.5c5.373-1.297,9.436-8.043,14.076-12.377C683.644,629.691,678.9,624.798,674.804,625.287z
		 M338.922,519.144c-15.746-15.803-15.711-21.293,1.729-34.402C340.01,497.498,339.521,507.21,338.922,519.144z M513.572,599.474
		c0.435,0.43-4.34,9.016-7.487,9.625c-8.978,1.732-18.369,1.305-27.603,1.729c-6.813-0.014-13.621,0.014-20.432-0.02
		c-24.947-0.123-39.146-10.699-40.783-39.057c-1.361-23.51,2.738-47.424,5.699-70.996c0.405-3.24,9.26-8.777,12.414-7.75
		c17.739,5.773,36.008,11.443,51.817,20.943c6.892,4.143,10.736,17.045,11.797,26.438
		C501.304,560.798,496.482,582.566,513.572,599.474z M450.385,378.612c1.127,1.437-3.041,7.021-4.756,10.687
		c-7.904-7.227-16.271-14.012-23.554-21.815c-5.096-5.459-10.856-12.027-0.731-22.232
		C431.734,356.918,441.566,367.368,450.385,378.612z M272.532,246.912c-35.207-12.862-72.283-21.195-107.966-45.382
		c43.072-18.269,76.923,0.127,112.871,12.987c41.119,14.71,55.505,50.489,77.312,87.209c-13.276-2.307-23.971-4.167-34.668-6.024
		c0.132-1.884,0.261-3.766,0.394-5.651c5.195-0.496,10.391-0.987,17.309-1.65C319.656,267.124,296.82,255.781,272.532,246.912z
		 M300.867,319.861c-2.03-5.991-2.965-12.354-4.039-16.961c17.824,3.85,33.867,9.206,50.179,10.203
		c12.088,0.736,25.709-1.884,36.416-7.364c8.157-4.178,12.789-15.216,19.045-23.157c2.754-3.501,5.646-6.893,8.477-10.332
		c2.215,3.413,5.328,6.554,6.449,10.298c2.219,7.4,3.67,15.083,4.848,22.738c4.336,28.26-2.317,40.606-28.469,51.005
		C368.515,366.336,312.609,354.49,300.867,319.861z M397.687,477.896c-14.793,1.188-17.732-5.197-18.348-16.961
		c-0.736-14.057-0.707-28.273-3.004-42.092c-1.869-11.238-6.779-21.963-10.146-32.979c-1.176-3.847-1.768-7.872-2.258-10.104
		c13.412-5.119,24.801-10.3,36.715-13.524c3.711-1.001,10.801,2.071,12.949,5.44c4.594,7.212,5.475,17.042,10.697,23.532
		c4.875,6.06,12.957,10.877,20.514,12.844c3.449,0.898,9.027-6.356,15.816-11.592c17.457,32.693,28.852,69.301,40.922,108.613
		c-22.076-7.598-38.912-14.938-56.504-18.98C429.681,478.56,413.304,476.642,397.687,477.896z M398.172,621.736
		c-4.123-4.33-13.744-10.82-3.445-19.076c9.106-7.303,16.047-6.313,24.873,2.535c12.217,12.244,26.516,22.553,40.602,32.75
		c8.5,6.146,18.287,10.52,27.496,15.688C453.011,655.884,422.22,646.988,398.172,621.736z M565.789,711.976
		c-19.7-9.613-38.407-18.74-57.116-27.871c0.727-1.408,1.446-2.814,2.172-4.223C536.029,679.064,568.795,690.48,565.789,711.976z
		 M465.417,623.558c43.515-22.877,72.867,3.252,100.849,30.688C547.292,662.658,482.824,643.386,465.417,623.558z"/>
</g>
</svg>
