<?xml version="1.0" encoding="utf-8"?>
<!-- Generator: Adobe Illustrator 16.0.0, SVG Export Plug-In . SVG Version: 6.00 Build 0)  -->
<!DOCTYPE svg PUBLIC "-//W3C//DTD SVG 1.1//EN" "http://www.w3.org/Graphics/SVG/1.1/DTD/svg11.dtd">
<svg version="1.1" id="Layer_1" xmlns="http://www.w3.org/2000/svg" xmlns:xlink="http://www.w3.org/1999/xlink" x="0px" y="0px"
	 width="688.082px" height="737.535px" viewBox="0 0 688.082 737.535" enable-background="new 0 0 688.082 737.535"
	 xml:space="preserve">
<g id="Layer_4">
	<polygon fill="#DE0301" points="131.814,6.864 209.523,19.297 289.304,53.49 328.677,80.429 376.34,119.801 403.279,166.428 
		412.292,187.214 417.595,209.667 414.167,240.852 410.734,256.757 417.595,272.662 423.521,287.318 425.392,303.223 
		425.392,312.266 425.392,335.655 439.424,353.119 465.621,387.921 499.611,480.98 510.84,532.123 504.914,576.716 528.613,596.677 
		551.691,628.796 567.597,644.078 632.148,644.078 681.734,632.541 672.648,644.72 643.47,653.798 563.23,661.542 539.529,667.779 
		552.314,681.5 574.457,707.07 570.715,726.716 470.611,667.775 409.488,646.57 348.676,605.716 338.376,556.166 340.636,538.06 
		328.094,514.033 323.105,488.46 326.392,460.089 329.258,423.183 324.246,383.519 316.554,354.676 293.166,309.769 
		296.285,292.305 308.758,269.54 264.789,249.893 152.521,204.051 131.814,206.545 11.563,257.066 5.638,248.958 20.609,184.404 
		23.416,140.121 39.942,122.033 86.681,74.313 93.718,63.03 92.333,38.145 96.699,19.746 114.476,6.864 	"/>
</g>
<g id="Layer_1_1_">
	<polygon fill="#E2C374" points="291.619,296.662 341.064,306.309 380.377,296.662 399.433,277.848 413.422,265.547 
		422.958,285.928 427.172,315.958 425.392,335.654 404.498,357.203 369.283,364.92 326.592,355.031 303.676,335.253 
		291.619,305.827 	"/>
	<path d="M22.695,249.487c0-9.791,1.323-19.153,1.313-28.96c-0.008-6.444,0.558-13.042,1.65-19.357
		c0.877-5.062,2.934-9.564,3.619-14.693c1.229-9.175,0.311-18.946,0.416-28.27c0.055-4.885,1.042-8.371,2.722-12.875
		c1.61-4.321,1.386-9.394,3.61-13.445c3.506-6.391,12.131-13.259,13.323-20.442c-4.109,2.699-7.745,6.909-11.324,10.266
		c-4.002,3.754-10.669,8.514-13.337,13.389c-3.92,7.163-4.586,19.512-5.498,27.845c-0.943,8.594,1.841,17.216,0.467,25.691
		c-1.593,9.819-5.013,19.573-6.895,29.684c-1.628,8.735-5.734,17.23-7.457,25.901c-1.181,5.937-2.691,10.048,4.646,10.078
		c5.205,0.021,7.68-3.053,12.308-4.811"/>
	<path d="M19.199,238.119c4.016-0.825,7.205-4.421,11.421-5.707c5.73-1.749,11.69-3.384,17.448-5.323
		c11.682-3.932,23.055-8.925,34.225-14.213c3.376-1.598,6.547-4.079,9.877-5.781c6.614-3.38,13.485-3.407,20.283-5.367
		c5.851-1.685,11.543-3.7,17.313-5.6c5.022-1.654,9.845-5.163,14.571-6.874c5.516-1.996,11.219-3.566,16.577-5.774
		c2.963-1.221,6.332-3.411,9.367-3.987c7.515-1.428,17.076,0.125,24.779,0.033c6.884-0.084,12.969-2.017,19.574-3.5
		c10.661-2.397,21.761-3.939,32.307-7.44c23.06-7.656,46.693-20.156,66.547-34.001c7.008-4.887,13.603-9.102,21.349-13.02
		c4.026-2.036,16.987-9.871,20.192-7.168c8.861,7.479-11.875,16.167-16.635,17.369c-16.592,4.193-29.291,12.55-42.736,22.398
		c-15.239,11.162-34.125,23.168-52.955,25.352c-8.52,0.987-16.66,3.982-25.254,4.82c-6.92,0.675-13.472,1.292-20.24,3.083
		c-13.208,3.496-27.459,4.933-40.164,9.465c-11.679,4.167-22.276,10.232-33.731,14.199c-9.402,3.255-17.781,6.517-27.156,9.632
		c-10.786,3.584-21.559,8.814-32.489,12.945c-10.089,3.814-20.46,9.313-30.988,11.576c-5.615,1.206-10.826,2.984-16.466,4.2
		c-0.852-2.816-2.104-6.541-0.876-9.5c3.452,0.75,3.469-1.912,5.608-3.564"/>
	<path d="M379.025,439.941c3.283,2.109,3.99,6.313,6.678,9.086c2.08,2.15,7.15,5.074,9.623,6.797
		c5.353,3.721,11.697,4.537,18.584,5.668c18.257,3.004,38.035,7,56.341,11.316c8.389,1.979,18.491,3.557,24.987,9.051
		c7.449,6.299,6.863,17.527,9.533,26.35c-8.951-5.379-16.01-8.697-27.17-8.697c-6.777,0-12.478,0.695-18.295-2.262
		c-4.252-2.158-7.562-5.559-12.359-7.191c-9.66-3.289-22.26-0.789-33.057-0.818c-13.338-0.033-23.283,1.717-32.691-7.611
		c-0.59-9.119-1.317-33.029-14.363-28.865c-6.854,2.189-12.329,10.064-18.659,13.865c-3.302,1.98-6.871,3.434-10.045,5.799
		c-1.593,1.189-6.628,7.738-8.591,7.828c-4.743,0.215-4.086-11.648-3.924-15.633c0.33-8.102,0.603-15.377,7.396-19.924
		c12.504-8.369,27.526-10.508,37.266-22.543c1.9-2.348,1.568-4.158,4.519-4.722c0.375,3.835,1.78,6.888,2.174,10.866
		c0.414,4.189-1.156,8.939,1.369,12.326"/>
	<path d="M417.369,643.3c11.404,8.414,33.716-2.324,46.562-3.576c13.91-1.354,30.129,4.527,43.688,9.016
		c9.959,3.295,25.65,1.125,35.154-2.701c6.353-2.557,7.99-6.861,14.359-4.502c4.086,1.514,13.373,6.805,12.922,12.033
		c-0.527,6.098-13.019,9.285-18.297,9.736c-10.879,0.926-22.24-0.754-33.017-2.236c-14.664-2.021-29.121,1.592-43.754,2.121
		c-21.125,0.764-42.332-8.553-59.674-19.207"/>
	<path d="M305.076,270.133c7.988,5.053,20.218,6.499,29.865,6.847c6.092,0.22,9.676-1.839,13.441,1.904
		c2.93,2.911,3.659,7.42,7.395,10.181c1.211-6.219,9.185-4.983,12.976-8.817c3.506-3.543,5.743-10.686,8.217-14.924
		c2.028-3.479,2.108-14.327,5.651-16.431c4-2.374,6.095,3.885,7.824,7.815c8.443-4.267,18.806-9.795,24.047-17.901
		c0.701,5.302-3.762,19.347-7.17,23.638c-2.877,3.623-7.178,2.022-9.537,4.313c-2.047,1.989-2.053,8.558-2.862,11.042
		c-1.734,5.307-4.691,17.368-10.386,19.921c-5.414,2.429-18.688-0.472-24.678-0.063c1.824,1.699,1.467,3.071,1.945,5.238
		c-6.888,0.728-12.254,3.631-18.918,3.375c-5.941-0.228-12.105-3.504-17.787-6.183c-6.354-2.995-13.185-2.892-15.234-8.865
		c-1.395-4.069-6.791-16.558-3.42-19.721"/>
	<path d="M416.683,573.458c4.475,2.807,7.555,6.154,11.074,9.434c7.953,7.412,16.453,6.506,27.229,7.002
		c9.279,0.428,18.26,1.885,27.697,1.232c9.488-0.658,23.951-6.213,31.059,0.1c5.998,5.328,7.228,9.654,1.709,15.236
		c-7.021,7.105-8.346,4.945-16.924,5.188c-4.404,0.125-7.858,2.65-12.104,3.498c-4.972,0.99-10.209,0.305-15.48,0.748
		c-10.959,0.922-25.078,5.146-35.598-0.084c-1.623-0.807-4.25-5.203-5.072-6.5c-4.795-0.16-7.889-4.564-12.727-5.188
		c-0.252-4.535-2.996-12.656-8.103-12.773c-5.139-0.117-15.938,9.934-20.166,13.072c-5.037,3.738-9.844,10.889-15.729,13.025
		c-6.177,2.244-11.455-1.73-16.431-5.129c-4.5-3.076-10.545-6.619-10.272-12.811c0.268-6.088,9.971-8.963,15.75-11.672
		c14.141-6.633,30.793-13.258,43.119-23.436c3.948-3.262,8.174-7.408,10.336-11.945c-0.158,6.555-0.088,12.561-1.558,18.846
		c0.148,0.795,0.65,1.061,1.508,0.785"/>
	<path d="M32.735,226.886c7.702-2.364,14.849-6.145,22.265-9.383c7.555-3.296,16.327-4.392,24.306-7.712
		c8.728-3.632,16.426-9.024,25.292-12.272c7.848-2.875,15.687-5.656,23.206-8.046c15.628-4.97,29.975-12.855,45.633-16.893
		c8.106-2.091,15.85-2.518,24.539-2.904c8.578-0.38,15.05-5.617,23.262-5.617c9.752,0,18.666,0.147,27.615-3.622
		c9.051-3.812,18.109-8.602,27.087-12.816c9.491-4.456,19.771-6.56,28.317-12.779c4.664-3.395,8.836-7.087,13.573-10.382
		c4.759-3.309,8.777-3.874,14.072-5.899c4.514-1.727,7.805-4.748,11.729-7.109c4.868-2.933,12.68-9.354,17.905-10.185
		c0.914,3.793,3.285,8.444,2.81,12.38c-5.469,0.277-9.847-0.05-14.576,2.133c-4.393,2.028-7.705,5.504-11.971,8.187
		c-7.552,4.749-16.355,8.757-24.488,13.318c-9.42,5.283-17.939,12.017-27.992,16.373c-9.162,3.971-16.365,10.511-26.104,13.635
		c-8.675,2.78-13.453,6.132-22.185,7.466c-8.471,1.294-22.979,6.019-31.572,6.875c-20.556,2.047-47.783,2.297-61.431,8.654
		c-12.899,6.007-24.56,10.372-38.231,13.346c-10.194,2.218-19.196,8-28.334,12.449c-10.562,5.142-21.135,10.771-32.475,12.966
		c-8.298,1.605-16.765,3.847-19.566-5.605"/>
	<path d="M31.135,229.788c-1.518-3.218,0.195-8.048,0.43-11.629c0.295-4.497,0.563-8.596,1.194-12.889
		c1.275-8.665,1.846-16.934,3.444-25.398c1.763-9.319,1.306-18.041,1.815-27.54c0.528-9.842,3.646-17.979,6.432-27.129
		c2.029-6.671,6.428-11.593,8.486-18.021c-8.051,2.701-16.271,13.118-17.834,21.097c-1.636,8.348-6.832,17.734-8.271,26.024
		c-3.219,18.546-1.596,36.18-4.4,54.902c-0.953,6.353-2.646,13.589-1.624,20.154c1.696,10.929,3.466,10.439,6.024,8.859
		l19.117-7.724L31.135,229.788z"/>
</g>
<g id="Layer_3">
	<path d="M674.792,625.267c-10.014,1.203-19.62,5.41-29.582,7.482c-25.59,5.328-51.422,9.867-77.405,3.303
		c-13.961-3.525-15.263-8.801-6.734-19.971c7.791-10.203,5.623-16.711-7.012-19.414c-5.668-1.215-12.34,0.436-17.295-1.902
		c-8.931-4.211-17.916-9.439-24.785-16.326c-2.717-2.727-0.063-11.051,0.537-16.787c1.555-14.768,9.186-28.404,0.771-44.627
		c-6.903-13.311-7.51-29.766-11.91-44.527c-4.432-14.879-10.12-29.383-15.221-44.064c-10.088-29.055-18.416-58.701-43.129-80.363
		c-8.168-7.154-18.309-16.962-14.055-30.212c6.983-21.757-2.89-40.27-8.894-59.746c-1.793-5.822-4.338-12.888-2.604-18.066
		c7.715-23.009,2.94-43.507-4.207-66.311c-10.103-32.249-27.828-57.875-53.219-77.521c-40.339-31.217-79.937-64.152-130.842-78.469
		c-34.323-9.66-68.378-19.759-104.536-17.387c-5.553,0.367-11.715,2.081-16.271,5.146C88.564,18.824,85.136,32.937,93.718,63.03
		c1.205-5.979,1.125-11.783,3.535-16.243c5.28-9.764-6.354-25.981,9.943-30.392c11.506-3.11,24.128-2.102,36.256-2.901
		c0.959-0.062,1.961,0.055,2.904,0.27c23.661,5.313,47.381,10.391,70.963,16.036c52.195,12.494,92.045,46.291,133.033,77.96
		c6.988,5.397,8.369,9.758-2.881,13.732c-9.396,3.315-17.26,10.972-25.805,16.709c28.252-10.235,53.909-4.546,68.598,15.246
		c1.449,1.953,4.104,4.231,3.852,6.025c-2.621,18.33,12.943,28.748,18.66,43.423c6.85,17.588-3,31.917-6.938,47.425
		c-0.865,3.408-3.479,6.37-6.229,11.19c-5.746-8.341-10.521-15.27-13.949-20.245c4.48-9.741,8.103-17.61,11.72-25.479
		c-19.771,4.503-26.275,26.281-16.851,42.757c3.111,5.435,7.387,10.513,9.078,16.346c1.16,4.006,0.234,10.523-2.463,13.175
		c-2.383,2.348-8.891,2.163-12.898,0.91c-19.5-6.084-28.233-23.502-36.014-39.631c-6.961-14.431-16.068-25.31-29.715-32.192
		c-15.965-8.049-32.648-14.654-48.908-22.13c-3.92-1.804-7.402-4.571-9.115-5.651c23.287-16.969,45.654-33.27,68.019-49.573
		c-3.5,1.595-7.431,2.616-10.441,4.87c-33.399,24.958-70.813,37.559-112.545,38.097c-8.154,0.104-16.771,1.567-24.318,4.558
		c-38.538,15.285-76.754,31.38-115.17,46.971c-14.45,5.865-27.719,16.414-46.748,12.604c1.994-14.75,9.203-41.243,11.504-56.265
		c0.271,0.01,0.545,0.021,0.816,0.031c1.598-13.333,4.029-26.632,4.58-40.007c0.316-7.689,0.884-12.124,2.887-14.088
		c3.938-7.572,12.406-12.334,18.464-18.407c9.729-9.752,18.618-20.304,27.466-30.845c3.644-4.339,7.574-9.245,12.185-13.005
		c-0.17,0-0.337,0.002-0.508,0.002c-0.141,0.203-0.517,0.681-0.962,1.087c-18.799,17.275-37.973,34.166-56.211,52.016
		c-5.485,5.364-10.957,13.036-11.918,20.247c-1.871,14.05-0.547,28.524-0.547,42.82c0.148,0.007,0.297,0.012,0.447,0.018
		c-4.281,19.78-13.561,51.229-17.49,70.19c1.355,1.34,2.713,2.675,4.07,4.013c18.106-7.178,36.401-13.924,54.271-21.643
		c24.405-10.545,48.229-22.489,72.891-32.364c6.608-2.647,16.235-2.099,22.965,0.666c26.727,10.98,52.668,23.855,79.271,35.157
		c17.858,7.592,36.658,13,54.394,20.84c7.719,3.41,16.519,9.771,3.195,18.812c-2.597,1.761-4.938,6.848-4.363,9.814
		c2.283,11.781,5.936,23.28,8.768,34.958c4.597,18.926,28.076,28.629,25.093,51.312c-0.021,0.145,2.139,1.006,3.518,1.332
		c1.57,13.334,3.588,26.297,5.187,39.594c2.51-0.512,5.018-1.025,7.526-1.542c-4.178-12.707-8.358-25.411-12.539-38.12
		c-0.424-5.958-0.848-11.915-1.418-19.924c11.416,3.07,20.535,4.804,29.021,8.145c3.719,1.465,7.584,5.727,8.896,9.563
		c5.162,15.092,10.236,30.335,13.394,45.916c1.16,5.705-1.117,14.865-5.269,18.361c-11.379,9.578-24.588,16.986-37.948,25.832
		c-1.57-3.926-2.832-7.088-4.527-11.322c-13.281,29.957-14.979,56.736,13.67,80.711c1.066-5.52,2.463-9.83,2.635-14.195
		c0.416-10.713,0.146-21.445,0.379-32.166c0.478-21.77,9.242-31.313,32.687-34.91c0.332,6.836,1.947,13.818,0.715,20.264
		c-2.627,13.727,4,20.637,15.453,25.23c2.688,1.078,5.106,2.809,7.746,4.035c10.672,4.98,16.678,12.26,15.414,25.072
		c-1.336,13.559-0.519,27.34-2.109,40.852c-0.566,4.801-4.643,10.008-8.525,13.436c-8.756,7.732-18.053,14.992-27.846,21.344
		c-3.684,2.389-11,4.004-13.77,1.992c-5.951-4.324-11.869-10.527-14.453-17.244c-4.545-11.805-6.576-24.58-10.012-38.342
		c-0.953,4.629-2.232,8.564-2.519,12.574c-2.086,29.316,19.973,64.938,47.617,75.119c18.147,6.686,37.166,11,55.391,17.494
		c14.33,5.111,28.652,10.848,41.916,18.213c32.666,18.145,64.722,37.391,100.072,57.975c7.801-33.586-13.947-49.371-31.268-70.779
		c33.827-4.674,64.396-8.893,93.885-12.965c-2.127-0.83-5.758-2.25-10.275-4.014c7.729-3.143,13.799-7.166,20.205-7.789
		c6.754-0.648,14.322,4.012,20.605,2.5c5.373-1.295,9.434-8.043,14.075-12.377C683.633,629.673,678.886,624.779,674.792,625.267z
		 M338.91,519.125c-15.743-15.801-15.711-21.293,1.73-34.4C339.998,497.48,339.511,507.193,338.91,519.125z M513.56,599.457
		c0.434,0.43-4.338,9.016-7.488,9.623c-8.977,1.73-18.369,1.307-27.602,1.729c-6.813-0.014-13.621,0.016-20.433-0.02
		c-24.946-0.123-39.143-10.701-40.782-39.059c-1.359-23.51,2.737-47.424,5.698-70.994c0.406-3.242,9.263-8.779,12.416-7.75
		c17.738,5.773,36.006,11.441,51.816,20.941c6.891,4.143,10.736,17.047,11.797,26.438
		C501.292,560.781,496.472,582.546,513.56,599.457z M450.373,378.593c1.128,1.436-3.04,7.021-4.756,10.686
		c-7.901-7.225-16.271-14.011-23.553-21.814c-5.096-5.459-10.857-12.028-0.729-22.232
		C431.722,356.901,441.554,367.35,450.373,378.593z M272.522,246.895c-35.208-12.863-72.284-21.197-107.968-45.382
		c43.071-18.27,76.924,0.126,112.873,12.985c41.117,14.711,55.506,50.489,77.311,87.21c-13.276-2.307-23.971-4.168-34.668-6.024
		c0.131-1.883,0.26-3.765,0.394-5.652c5.194-0.495,10.391-0.985,17.309-1.649C319.644,267.106,296.81,255.763,272.522,246.895z
		 M300.855,319.842c-2.031-5.99-2.965-12.353-4.037-16.96c17.822,3.85,33.867,9.205,50.176,10.202
		c12.089,0.737,25.711-1.884,36.416-7.363c8.16-4.179,12.789-15.217,19.046-23.156c2.756-3.502,5.646-6.895,8.479-10.332
		c2.213,3.413,5.328,6.553,6.447,10.297c2.219,7.4,3.672,15.083,4.848,22.738c4.336,28.259-2.316,40.606-28.467,51.005
		C368.504,366.317,312.597,354.471,300.855,319.842z M397.676,477.878c-14.793,1.188-17.732-5.199-18.349-16.961
		c-0.735-14.059-0.705-28.273-3.004-42.092c-1.869-11.24-6.778-21.965-10.145-32.98c-1.174-3.848-1.769-7.872-2.258-10.105
		c13.414-5.117,24.801-10.3,36.715-13.523c3.713-1.001,10.801,2.07,12.949,5.439c4.594,7.213,5.475,17.041,10.696,23.53
		c4.877,6.06,12.957,10.877,20.515,12.844c3.448,0.899,9.028-6.356,15.815-11.591c17.457,32.691,28.853,69.303,40.922,108.611
		c-22.073-7.594-38.912-14.936-56.506-18.98C429.672,478.542,413.292,476.625,397.676,477.878z M398.162,621.716
		c-4.125-4.328-13.746-10.818-3.446-19.074c9.106-7.305,16.047-6.313,24.873,2.535c12.217,12.244,26.516,22.553,40.602,32.748
		c8.498,6.15,18.287,10.521,27.496,15.691C453.001,655.865,422.21,646.97,398.162,621.716z M565.777,711.958
		c-19.701-9.615-38.408-18.742-57.115-27.871c0.726-1.408,1.447-2.816,2.173-4.223C536.017,679.046,568.783,690.462,565.777,711.958
		z M465.408,623.539c43.513-22.877,72.867,3.252,100.847,30.689C547.283,662.64,482.814,643.367,465.408,623.539z"/>
</g>
</svg>
