<?xml version="1.0" encoding="utf-8"?>
<!-- Generator: Adobe Illustrator 16.0.0, SVG Export Plug-In . SVG Version: 6.00 Build 0)  -->
<!DOCTYPE svg PUBLIC "-//W3C//DTD SVG 1.1//EN" "http://www.w3.org/Graphics/SVG/1.1/DTD/svg11.dtd">
<svg version="1.1" id="Layer_1" xmlns="http://www.w3.org/2000/svg" xmlns:xlink="http://www.w3.org/1999/xlink" x="0px" y="0px"
	 width="688.082px" height="737.535px" viewBox="0 0 688.082 737.535" enable-background="new 0 0 688.082 737.535"
	 xml:space="preserve">
<g id="Layer_4">
	<polygon fill="#FF0000" points="131.826,6.841 209.535,19.274 289.315,53.467 328.689,80.406 376.351,119.779 403.292,166.404 
		412.304,187.19 417.609,209.644 414.177,240.829 410.746,256.734 417.609,272.637 423.535,287.295 425.404,303.2 425.404,312.243 
		425.404,335.632 439.437,353.096 465.635,387.898 499.626,480.957 510.851,532.099 504.926,576.695 528.626,596.654 
		551.705,628.773 567.609,644.056 632.162,644.056 681.746,632.517 672.66,644.699 643.482,653.775 563.244,661.519 
		539.542,667.755 552.328,681.478 574.469,707.046 570.728,726.693 470.623,667.751 409.501,646.546 348.687,605.693 
		338.386,556.144 340.648,538.039 328.105,514.011 323.117,488.437 326.406,460.068 329.269,423.162 324.258,383.496 
		316.566,354.653 293.179,309.746 296.296,292.282 308.771,269.517 264.8,249.87 152.531,204.028 131.826,206.523 11.576,257.042 
		5.65,248.935 20.62,184.381 23.427,140.097 39.954,122.01 86.692,74.29 93.73,63.007 92.345,38.122 96.712,19.723 114.487,6.841 	
		"/>
</g>
<g id="Layer_1_1_">
	<polygon fill="#E2C374" points="291.63,296.638 341.076,306.287 380.39,296.638 399.445,277.825 413.435,265.524 422.972,285.906 
		427.183,315.935 425.404,335.631 404.51,357.179 369.295,364.897 326.605,355.008 303.689,335.23 291.63,305.804 	"/>
	<path fill="#FFFF03" d="M344.974,92.489c-3.678,3.919-5.853,8.205-10.676,11.267c-3.338,2.12-6.9,3.825-10.345,5.678
		c-3.457,1.859-7.276,2.989-10.838,4.67c-4.93,2.328-9.528,5.534-14.555,7.996c-4.172,2.044-7.663,4.782-11.729,6.914
		c-5.225,2.738-11.266,2.878-16.694,5.245c-1.819,0.793-3.389,2.309-5.12,3.056c-2.333,1.008-4.897,1.045-7.322,2.085
		c-5.858,2.51-10.142,6.762-16.034,9.287c-11.07,4.744-21.123,7.404-33.205,8.117c-13.072,0.771-28.889-2.766-40.329,4.565
		c-6.765,4.335-16.882,5.441-24.79,9.32c-9.289,4.557-19.188,9.341-28.971,13.512c-10.594,4.517-21.646,5.803-32.344,9.883
		c-8.112,3.096-15.563,7.658-23.751,10.667c-4.471,1.643-9.473,1.304-13.817,3.042c-2.654,1.062-5.204,3.209-7.54,4.998
		c-3.373,2.583-5.95,4.163-9.896,5.074c-4.1,0.948-8.167,1.877-11.982,3.746c-1.239,0.606-2.528,1.211-3.878,1.694l4.361-15.264
		l-0.483-2.286c3.815-1.87,7.884-2.799,11.982-3.746c3.945-0.912,6.522-2.492,9.896-5.075c2.336-1.788,4.886-3.936,7.54-4.998
		c4.346-1.738,9.349-1.398,13.817-3.041c8.188-3.009,15.639-7.571,23.751-10.667c10.695-4.081,21.75-5.366,32.344-9.883
		c9.782-4.171,19.682-8.955,28.971-13.512c7.908-3.879,18.025-4.985,24.79-9.32c11.44-7.331,27.258-3.793,40.329-4.564
		c12.082-0.713,22.135-3.374,33.205-8.117c5.894-2.526,10.176-6.778,16.034-9.288c2.425-1.04,4.989-1.077,7.322-2.085
		c1.731-0.748,3.301-2.264,5.12-3.057c5.43-2.367,11.471-2.507,16.694-5.245c4.066-2.131,7.558-4.869,11.729-6.914
		c5.025-2.462,9.625-5.668,14.555-7.997c3.562-1.681,7.381-2.81,10.838-4.67c3.443-1.854,7.007-3.559,10.345-5.678L344.974,92.489z"
		/>
	<path fill="#FFFF03" d="M49.348,239.597c-1.639-1.896-1.245-6.827-0.979-9.377c0.441-4.209,1.103-8.592,0.73-12.858
		c-0.563-6.486-1.844-12.884-1.825-19.478c0.019-7.391,0.714-14.61,1.035-21.883c0.298-6.752-1.236-13.313-0.523-19.97
		c0.811-7.565,1.514-15.112,2.267-22.704c0.289-2.926,0.546-6.201,1.164-9.05c0.71-3.265,2.925-5.175,5.183-7.506
		c9.24-9.54,14.438-22.328,22.885-32.589c3.197-3.884,5.854-7.083,8.397-11.651l-4.921,8.03C74.314,90.823,79.093,87.9,71.365,99.47
		c-1.803,2.699-4.898,7.325-5.607,10.59c-0.618,2.85-0.875,6.124-1.165,9.05c-0.752,7.593-1.455,15.139-2.267,22.705
		c-0.713,6.658,0.824,13.218,0.524,19.971c-0.321,7.271-1.018,14.492-1.036,21.882c-0.019,6.593,1.264,12.991,1.827,19.478
		c0.37,4.265-0.29,8.648-0.731,12.857c-0.269,2.551-0.66,7.482,0.979,9.378l2.773,8.519L49.348,239.597z"/>
	<path fill="#FFFF03" d="M254.419,245.46c11.148,1.356,22.601-4.534,33.38-5.479c11.717-1.025,22.275-5.638,33.605-6.74
		c3.019,12.712,12.111,13.578,22.045,8.13c7.437-4.078,20.441-12.313,25.521-19.174c3.069-4.146,3.078-6.887,7.979-9.641
		c1.922-1.083,5.388-1.228,6.896-3.353c1.582-2.232,0.389-5.811,1.815-8.266c3.683-6.333,6.115-2.572,10.49,0.551
		c3.779,2.696,4.373,4.61,10.539,2.901c1.963-0.543,6.088-2.697,7.852-4.08c4.681,11.571,6.353,19.855,2.05,31.387
		c-6.572,0.52-11.705-0.922-18.379,0.069c-2.621,0.389-5.509,1.044-8.257,1.182c-2.442,0.124-5.063-0.779-8.112-0.391
		c-0.16,5.363,3.102,12.283-0.056,15.503c-1.327,1.356-8,2.657-10.319,4.229c-3.363,2.283-6.513,5.182-9.896,7.55
		c-3.453,2.416-12.235,10.882-16.377,10.818c-4.584-0.07-5.43-7.497-8.629-11.486c-4.104-5.121-5.971-5.167-13.522-4.811
		c-8.253,0.391-13.978,5.169-21.947,6.214c-7.084,0.929-17.795-0.921-24.232-3.3c-5.157-1.908-8.802-5.945-13.509-8.277
		c-2.096-1.037-4.749-1.324-6.883-2.168"/>
	<path fill="#FFFF03" d="M489.277,442.656c-4.363-1.439-9.77-1.352-14.381-1.367c-9.328-0.039-16.018-1.857-25.402-3.324
		c-14.604-2.279-29.383-1.693-43.563-5.465c-8.703-2.314-17.67-6.246-24.656-11.869c-8.289-6.674-10.738-16.297-13.297-26.488
		c-6.982-0.708-15.109,7.775-21.807,9.786c-4.412,1.323-10.732,3.547-15.632,3.055c-1.528-6.971-5.239-13.428-7.391-20.37
		c15.779,1.247,26.812-17.836,41.438-19.185c1.225,6.587-2.341,7.282,1.477,12.75c2.109,3.022,5.232,6.342,7.992,8.573
		c7.912,6.398,18.699,11.316,27.608,15.576c8.839,4.225,16.662,4.008,26.021,4.778c5.539,0.458,10.051,2.062,15.748,2.054
		c8.252-0.011,20.518-0.047,25.231-8.097c0.039,0.358-1.354-0.731-1.247-0.633c7.692-3.737,17.952,30.987,19.116,36.804"/>
	<path fill="#FFFF03" d="M505.708,564.537c-3.53,1.646-7.211-0.355-10.92-0.721c-5.967-0.59-12.008,0.465-17.819,0.732
		c-13.761,0.645-24.675-0.188-37.619-4.141c-6.484-1.98-18.89-5.156-22.154-12.119c-1.682-3.586-0.303-9.932-0.346-13.896
		c-0.047-4.33-1.611-7.402-1.777-11.404c-13.58,7.717-27.367,17.703-40.844,24.98c-10.266,5.547-23.719,15.773-36.168,13.727
		c-1.029-5.902,1.402-12.285,1.299-18.387c-0.043-2.574-1.361-5.414-0.733-8.217c1.213-5.418,1.11-3.717,5.489-5.479
		c11.793-4.742,26.25-5.574,38.213-10.803c7.609-3.324,14.533-8.605,21.359-13.184c4.732-3.172,13.107-12.678,16.465-6.807
		c2.724,4.76-2.051,13.506-0.717,18.469c1.518,5.652,11.092,11.688,17.041,13.613c14.723,4.766,32.184,6.246,47.559,6.926
		c8.507,0.379,16.56-4.689,24.361-3.332c0.258,10.139-0.969,20.242-1.316,30.039"/>
	<path fill="#FFFF03" d="M473.527,636.431c10.123,3.178,20.873-5.643,30.107-9.279c7.521-2.961,25.155-6.855,25.948-16.637
		c-11.215-0.574-9.098,3.982-20.034,0.039c-4.839-1.744-19.701,2.453-24.802,2.648c-5.295,0.203-15.397-1.17-19.985,1.205
		c-7.226,3.736-8.728-5.393-15.697-1.785c-7.029,3.635-12.875,6.932-21.361,8.742c-11.846,2.523-24.594,4.533-36.758,5.479
		c-4.955,0.387-23.139,3.566-26.711-0.291c-1.24-1.338,3.176-0.715,3.492-2.756c1.174-7.584,6.611-12.209,14.447-13.725
		c6.924-1.34,8.987-10.92,15.877-10.619c20.28,0.885,3.356,1.404,23.61,1.229c0.543,4.439,23.599,11.559,34.084,11.824
		c8.98,0.23-1.088,8.697,3.425,12.947c3.989,3.764,10.975,9.064,15.727,11.662"/>
</g>
<g id="Layer_3">
	<path d="M674.806,625.246c-10.017,1.201-19.621,5.41-29.582,7.48c-25.592,5.326-51.424,9.867-77.408,3.305
		c-13.961-3.525-15.262-8.803-6.731-19.973c7.788-10.205,5.62-16.711-7.013-19.414c-5.67-1.215-12.342,0.436-17.295-1.902
		c-8.93-4.209-17.918-9.439-24.787-16.326c-2.715-2.725-0.063-11.051,0.537-16.787c1.555-14.768,9.187-28.404,0.773-44.627
		c-6.906-13.309-7.513-29.766-11.91-44.525c-4.435-14.881-10.123-29.383-15.222-44.064c-10.088-29.057-18.418-58.703-43.131-80.365
		c-8.168-7.156-18.309-16.963-14.055-30.212c6.984-21.757-2.889-40.27-8.893-59.746c-1.791-5.822-4.336-12.888-2.604-18.065
		c7.715-23.01,2.941-43.507-4.207-66.312c-10.102-32.249-27.828-57.874-53.217-77.521c-40.338-31.217-79.938-64.152-130.842-78.47
		C194.898,8.062,160.844-2.038,124.687,0.334c-5.554,0.367-11.716,2.081-16.273,5.145C88.575,18.8,85.149,32.913,93.73,63.007
		c1.206-5.979,1.125-11.783,3.536-16.244c5.278-9.763-6.355-25.98,9.941-30.392c11.505-3.109,24.128-2.102,36.255-2.9
		c0.96-0.063,1.964,0.054,2.905,0.27c23.661,5.313,47.38,10.39,70.962,16.036c52.196,12.494,92.046,46.292,133.034,77.96
		c6.99,5.398,8.369,9.758-2.881,13.732c-9.396,3.314-17.26,10.972-25.805,16.709c28.254-10.235,53.912-4.545,68.598,15.246
		c1.449,1.952,4.107,4.232,3.853,6.024c-2.619,18.33,12.942,28.749,18.659,43.423c6.851,17.588-3,31.917-6.938,47.425
		c-0.865,3.41-3.479,6.371-6.229,11.192c-5.745-8.342-10.522-15.271-13.948-20.246c4.479-9.742,8.1-17.61,11.719-25.479
		c-19.771,4.502-26.277,26.281-16.853,42.755c3.111,5.436,7.39,10.513,9.078,16.347c1.162,4.006,0.234,10.523-2.463,13.175
		c-2.381,2.348-8.891,2.162-12.897,0.91c-19.5-6.085-28.234-23.502-36.015-39.632c-6.961-14.43-16.065-25.309-29.715-32.191
		c-15.963-8.049-32.649-14.653-48.909-22.131c-3.92-1.802-7.401-4.57-9.114-5.65c23.286-16.969,45.656-33.27,68.02-49.573
		c-3.5,1.595-7.43,2.616-10.443,4.869c-33.398,24.959-70.813,37.56-112.545,38.097c-8.152,0.104-16.771,1.568-24.318,4.56
		c-38.536,15.285-76.754,31.38-115.17,46.971c-14.448,5.864-27.717,16.413-46.748,12.603c1.996-14.748,9.203-41.241,11.506-56.264
		c0.271,0.011,0.544,0.021,0.815,0.032c1.597-13.333,4.03-26.632,4.579-40.007c0.318-7.688,0.885-12.123,2.888-14.087
		c3.938-7.573,12.405-12.334,18.464-18.406c9.729-9.753,18.617-20.304,27.467-30.845c3.642-4.339,7.572-9.246,12.183-13.005
		c-0.169,0-0.336,0.002-0.508,0.002c-0.139,0.203-0.517,0.68-0.961,1.087c-18.799,17.275-37.973,34.166-56.211,52.016
		c-5.484,5.363-10.957,13.036-11.916,20.246c-1.873,14.051-0.549,28.524-0.549,42.821c0.148,0.007,0.297,0.012,0.446,0.018
		c-4.278,19.779-13.561,51.228-17.488,70.19c1.354,1.34,2.714,2.675,4.069,4.013c18.106-7.178,36.4-13.923,54.271-21.643
		c24.407-10.545,48.229-22.489,72.892-32.364c6.607-2.648,16.234-2.099,22.963,0.665c26.729,10.981,52.668,23.856,79.271,35.158
		c17.858,7.591,36.659,12.999,54.393,20.839c7.719,3.411,16.521,9.771,3.197,18.813c-2.598,1.76-4.939,6.847-4.364,9.814
		c2.282,11.78,5.936,23.279,8.77,34.958c4.596,18.926,28.074,28.629,25.09,51.311c-0.02,0.146,2.139,1.007,3.52,1.333
		c1.568,13.333,3.587,26.297,5.185,39.596c2.51-0.514,5.018-1.029,7.527-1.543c-4.179-12.707-8.357-25.412-12.539-38.121
		c-0.425-5.957-0.849-11.916-1.418-19.923c11.418,3.07,20.534,4.804,29.021,8.144c3.717,1.466,7.584,5.727,8.896,9.563
		c5.161,15.092,10.233,30.336,13.393,45.918c1.158,5.707-1.117,14.867-5.27,18.361c-11.38,9.578-24.589,16.984-37.949,25.83
		c-1.566-3.924-2.83-7.088-4.525-11.32c-13.283,29.957-14.979,56.734,13.67,80.713c1.066-5.521,2.463-9.832,2.633-14.197
		c0.418-10.713,0.146-21.447,0.382-32.168c0.475-21.766,9.241-31.311,32.684-34.908c0.332,6.834,1.947,13.818,0.715,20.262
		c-2.627,13.729,4.002,20.637,15.453,25.23c2.688,1.08,5.107,2.809,7.746,4.037c10.674,4.979,16.678,12.26,15.414,25.072
		c-1.336,13.557-0.517,27.34-2.107,40.85c-0.567,4.803-4.643,10.01-8.526,13.438c-8.756,7.73-18.054,14.992-27.847,21.344
		c-3.684,2.389-11,4.004-13.768,1.99c-5.951-4.324-11.869-10.525-14.453-17.242c-4.545-11.807-6.578-24.582-10.014-38.342
		c-0.953,4.627-2.232,8.563-2.517,12.574c-2.088,29.318,19.974,64.936,47.615,75.117c18.15,6.688,37.164,11,55.391,17.498
		c14.332,5.109,28.652,10.844,41.916,18.209c32.666,18.146,64.722,37.393,100.074,57.977c7.801-33.588-13.947-49.371-31.266-70.781
		c33.826-4.672,64.395-8.893,93.881-12.965c-2.127-0.83-5.758-2.248-10.273-4.014c7.728-3.139,13.797-7.166,20.203-7.787
		c6.754-0.65,14.322,4.01,20.607,2.498c5.371-1.295,9.434-8.041,14.076-12.375C683.644,629.65,678.902,624.757,674.806,625.246z
		 M338.922,519.101c-15.744-15.801-15.711-21.291,1.729-34.4C340.01,497.457,339.523,507.169,338.922,519.101z M513.572,599.433
		c0.435,0.43-4.338,9.016-7.487,9.625c-8.976,1.732-18.369,1.305-27.601,1.729c-6.813-0.014-13.621,0.014-20.434-0.02
		c-24.947-0.123-39.142-10.701-40.781-39.057c-1.361-23.51,2.738-47.424,5.697-70.996c0.407-3.242,9.262-8.777,12.416-7.75
		c17.739,5.773,36.01,11.443,51.815,20.943c6.892,4.143,10.738,17.045,11.799,26.438
		C501.304,560.757,496.484,582.523,513.572,599.433z M450.386,378.571c1.125,1.437-3.041,7.021-4.758,10.685
		c-7.902-7.225-16.271-14.01-23.552-21.814c-5.098-5.459-10.858-12.027-0.731-22.231
		C431.736,356.877,441.568,367.327,450.386,378.571z M272.534,246.871c-35.209-12.862-72.285-21.196-107.967-45.382
		c43.072-18.268,76.923,0.127,112.871,12.986c41.118,14.71,55.506,50.489,77.313,87.21c-13.276-2.307-23.971-4.167-34.67-6.024
		c0.132-1.883,0.261-3.766,0.394-5.651c5.195-0.495,10.393-0.986,17.309-1.65C319.656,267.083,296.822,255.74,272.534,246.871z
		 M300.867,319.82c-2.03-5.99-2.965-12.353-4.037-16.961c17.822,3.85,33.867,9.206,50.177,10.203
		c12.09,0.737,25.711-1.883,36.418-7.364c8.158-4.179,12.789-15.216,19.043-23.156c2.756-3.502,5.647-6.894,8.479-10.332
		c2.215,3.413,5.328,6.554,6.449,10.298c2.219,7.4,3.67,15.083,4.846,22.737c4.338,28.261-2.315,40.607-28.467,51.005
		C368.517,366.294,312.609,354.448,300.867,319.82z M397.687,477.855c-14.793,1.188-17.732-5.197-18.348-16.963
		c-0.734-14.057-0.705-28.271-3.004-42.09c-1.869-11.24-6.777-21.965-10.144-32.981c-1.176-3.847-1.77-7.872-2.258-10.104
		c13.412-5.118,24.799-10.3,36.713-13.523c3.713-1.001,10.803,2.071,12.949,5.439c4.594,7.213,5.477,17.042,10.699,23.532
		c4.875,6.059,12.957,10.877,20.512,12.844c3.449,0.898,9.029-6.356,15.818-11.592c17.457,32.693,28.852,69.301,40.92,108.613
		c-22.074-7.598-38.91-14.938-56.504-18.98C429.685,478.519,413.304,476.601,397.687,477.855z M398.174,621.695
		c-4.125-4.33-13.746-10.82-3.447-19.076c9.109-7.303,16.049-6.314,24.873,2.535c12.219,12.244,26.516,22.553,40.604,32.75
		c8.498,6.146,18.285,10.52,27.496,15.688C453.011,655.843,422.222,646.947,398.174,621.695z M565.792,711.937
		c-19.701-9.615-38.408-18.744-57.117-27.873c0.727-1.408,1.446-2.814,2.172-4.223C536.029,679.025,568.797,690.439,565.792,711.937
		z M465.42,623.517c43.512-22.879,72.866,3.25,100.848,30.688C547.295,662.617,482.826,643.343,465.42,623.517z"/>
</g>
</svg>
