<?xml version="1.0" encoding="utf-8"?>
<!-- Generator: Adobe Illustrator 16.0.0, SVG Export Plug-In . SVG Version: 6.00 Build 0)  -->
<!DOCTYPE svg PUBLIC "-//W3C//DTD SVG 1.1//EN" "http://www.w3.org/Graphics/SVG/1.1/DTD/svg11.dtd">
<svg version="1.1" id="Layer_1" xmlns="http://www.w3.org/2000/svg" xmlns:xlink="http://www.w3.org/1999/xlink" x="0px" y="0px"
	 width="688.082px" height="737.535px" viewBox="0 0 688.082 737.535" enable-background="new 0 0 688.082 737.535"
	 xml:space="preserve">
<g id="Layer_4">
	<polygon fill="#03B80B" points="131.729,6.857 209.438,19.292 289.221,53.483 328.594,80.423 376.256,119.795 403.195,166.421 
		412.21,187.207 417.511,209.66 414.083,240.847 410.65,256.75 417.511,272.654 423.437,287.312 425.308,303.217 425.308,312.26 
		425.308,335.648 439.342,353.112 465.537,387.916 499.527,480.972 510.756,532.115 504.83,576.71 528.529,596.669 551.607,628.791 
		567.513,644.072 632.064,644.072 681.65,632.533 672.564,644.712 643.386,653.791 563.146,661.535 539.445,667.771 
		552.232,681.494 574.373,707.064 570.631,726.708 470.527,667.769 409.404,646.564 348.592,605.708 338.291,556.16 
		340.552,538.054 328.01,514.025 323.021,488.453 326.31,460.083 329.174,423.177 324.162,383.512 316.47,354.669 293.082,309.762 
		296.201,292.298 308.674,269.534 264.704,249.887 152.437,204.044 131.729,206.539 11.479,257.06 5.555,248.952 20.523,184.397 
		23.33,140.114 39.857,122.026 86.598,74.306 93.635,63.024 92.25,38.138 96.615,19.739 114.392,6.857 	"/>
	<path fill="#1659B2" d="M53.888,108.753c-3.122,14.168-2.036,27.924-2.693,42.486c-0.415,9.207-2.308,18.487-3.911,27.642
		c-1.164,6.642-3.736,15.826-2.344,22.366c17.952,2.251,25.985-14.853,41.251-19.283c16.489-4.784,33.284-3.097,49.061-10.362
		c7.384-3.399,14.11-8.423,21.125-11.537c9.802-4.349,20.771-4.807,31.408-5.802c19.993-1.87,40.667-1.918,59.714-8.777
		c12.664-4.562,24.867-10.567,36.437-17.749c12.272-7.618,25.484-13.674,38.451-20.503c6.608-3.479,13.387-7.745,21.207-7.632
		c6.276,0.09,10.018,3.04,14.729,7.074c3.609,3.087,10.438,6.382,12.564,10.046c-7.369,2.321-14.498,1.88-21.24,5.513
		c-4.426,2.386-8.438,5.616-13.307,7.645c-5.957,2.481-11.502,3.581-17.104,7.099c-5.563,3.495-11.145,8.25-16.043,12.561
		c-4.967,4.373-10.727,7.085-16.629,9.371c-9.318,3.609-17.752,7.176-26.8,11.721c-14.768,7.418-29.673,18.695-46.538,19.393
		c-18.321,0.76-39.004-2.854-56.186,4.44c-14.043,5.962-26.368,14.993-40.574,20.724c-15.425,6.222-31.381,8.195-47.778,11.857
		c-13.126,2.931-21.418,14.065-34.282,17.175c-6.294,1.521-16.294,6.264-21.443,0.698c-6.04-6.53-1.354-12.498,1.558-18.445
		c4.734-9.675,3.88-22.916,5.449-33.206c3.304-21.663,1.76-47.551,12.958-67.292c1.529-2.697,4.643-7.586,7.492-9.427
		c3.474-2.245,8.307-2.496,11.854-4.567"/>
	<path fill="#1659B2" d="M299.502,263.881c2.157-0.896,4.293-1.45,6.688-1.743c3.879-0.473,6.65-1.495,9.961-2.479
		c4.693-1.396,10.633-1.58,14.842-3.785c2.843,3.485,4.599,7.553,7.933,10.955c2.188,2.231,6.237,6.359,9.946,4.576
		c2.572-1.237,5.103-6.444,6.767-8.818c2.772-3.953,6.104-7.961,8.768-11.889c4.229-6.241,13.746-10.368,20.4-14.388
		c4.981-3.009,10.502-5.112,16.219-6.27c2.574-0.522,10.482-2.147,12.879-0.686c0.047,0.029,0.914,0.101,0.994,0.109
		c0.25,4.814-1.529,8.179-2.641,12.688c-0.97,3.932-1.629,7.943-5.152,10.152c-6.742,4.225-14.008,8.319-19.795,14.348
		c-5.412,5.639-9.26,12.507-14.307,18.556c-3.029,3.631-8.162,12.227-13.837,11.088c-5.596-1.123-8.332-8.073-14.323-9.316
		c-6.543-1.359-13.054-2.233-19.599-3.567c-4.334-0.881-8.219-1.523-12.295-3.41c-3.188-1.475-7.26-2.188-9.115-5.397
		c-2.309-3.997-0.021-9.667-3.983-12.817"/>
	<path fill="#FE0000" d="M290.781,257.603c4.367-1.555,9.302-1.641,13.583-3.574c4.396-1.986,7.806-5.131,12.504-6.451
		c4.313-1.211,6.871-1.531,10.324,1.733c3.176,3.004,3.949,9.033,7.99,11.125c3.555,1.839,6.953-1.188,9.649-2.843
		c3.798-2.328,7.671-4.436,11.548-6.792c7.479-4.543,17.344-8.105,22.934-15.18c3.736-4.729,7.943-10.201,13.816-12.906
		c3.336-1.536,9.94-1.466,13.446-1.771c3.816-0.332,7.984-0.108,11.808,0.088c0.516,3.235-1.144,6.837-1.685,9.958
		c-0.973,5.591-2.735,5.287-7.412,6.653c-7.204,2.106-12.969,6.111-20.256,7.395c-4.397,0.774-1.688,8.787-4.576,11.777
		c-3.084,3.198-6.778,5.003-10.137,7.519c-6.217,4.657-13.748,5.467-18.315,11.328c-3.609,4.632-6.828,6.508-10.56,0.792
		c-1.244-1.905-1.393-4.275-2.93-6.024c-1.629-1.85-4.445-2.129-4.002-5.101c-1.857,0.293-3.81-0.274-4.551-2.094
		c-4.203-0.235-8.3-0.217-12.285,0.908c-4.261,1.2-7.654,4.164-11.705,5.509c-5.326,1.767-6.469-2.328-10.472-5.317
		c-3.53-2.636-6.494-5.731-10.812-7.082"/>
	<path fill="#1659B2" d="M330.59,416.524c-1.234,5.632-2.445,14.251-2.445,19.929c0,2.223-2.076,16.592-1.15,18.627
		c2.14,4.695,2.949-5.572,8.232-6.873c7.6-1.865,14.104-6.656,21.969-8.748c4.322-1.148,18.002-2.869,16.994-9.838
		c0,12.68,2.818,22.168,14.453,28.572c12.932,7.117,23.824,12.707,38.516,13.523c13.563,0.756,23.674,3.631,36.008,8.643
		c10.984,4.461,22.113,7.438,33.563,8.336c0.398-7.725,0.891-15.566-2.043-22.316c-4.611-10.604-12.17-8.754-23.602-10.834
		c-19.06-3.467-41.097-1.604-59.294-8.432c-7.116-2.67-15.594-6.896-22.536-10.857c-7.644-4.357-8.959-9.957-13.033-16.936
		c-3.479-5.956-10.24-13.637-17.847-13.588c-9.727,0.063-18.133,10.198-28.651,11.477"/>
	<path fill="#1659B2" d="M428.699,559.22c6.791,3.174,14.16,2.162,21.283,3.477c8.002,1.475,15.332,3.367,23.547,3.713
		c8.131,0.342,17.822-1.775,24.896,1.955c5.688,2.998,11.639,10.162,12.771,16.691c1.521,8.758-13.824,10.816-21.535,12.012
		c-10.428,1.617-22.489,0.877-33.01,0.883c-11.684,0.006-17.539-4.391-27.293-9.879c-7.213-4.059-14.719-6.77-22.648-8.053
		c-11.707-1.896-21.977,6.016-32.028,10.271c-6.379,2.701-13.568,3.844-19.717,7.139c-10.689,5.73-9.818,7.01-13.783-7.219
		c-1.521-5.455-3.955-11.314-2.854-17.205c1.502-8.021,9.308-10.27,16.125-13.693c13.498-6.775,26.412-11.189,40.568-15.885
		c5.67-1.883,12.934-4.779,18.639-5.006c14.021-0.549,15.039,10.479,15.039,21.516"/>
	<path fill="#1659B2" d="M497.554,631.662c5.043-6.654,21.334-12.553,29.979-14.902c12.726-3.455,10.209,7.414,18.738,13.52
		c5.803,4.15,21.373,8.988,6.147,15.707c-7.389,3.26-16.854,4.227-24.704,6.674c-7.494,2.338-15.531,4.975-23.687,3.385
		c-7.719-1.504-11.479-9.451-19.576-12.082c-15.766-5.123-33.666,2.104-49.281,5.248c-9.84,1.982-24.12-1.576-28.522-12.551
		c-4.404-10.977,21.383-11.158,29.186-12.707c4.619-0.918,11.025-3.889,15.447-2.4c6.269,2.111,7.953,7.883,15.361,8.674
		c6.453,0.689,12.717,0.52,18.756,1.438c4.33,0.656,10.586,2.135,14.307-0.719"/>
</g>
<g id="Layer_1_1_">
	<polygon fill="#E2C374" points="291.533,296.655 340.98,306.304 380.295,296.655 399.349,277.842 413.338,265.541 422.876,285.922 
		427.088,315.952 425.308,335.647 404.414,357.196 369.199,364.914 326.508,355.025 303.594,335.247 291.533,305.82 	"/>
	<g>
		<g>
			<path fill="#FE0000" d="M334.201,87.917c-3.338,2.119-6.897,3.824-10.342,5.678c-3.457,1.859-7.279,2.988-10.838,4.67
				c-4.93,2.327-9.531,5.534-14.555,7.996c-4.174,2.044-7.665,4.782-11.73,6.914c-5.223,2.738-11.265,2.878-16.694,5.246
				c-1.818,0.792-3.388,2.309-5.12,3.057c-2.334,1.007-4.896,1.044-7.321,2.085c-5.858,2.51-10.143,6.762-16.034,9.286
				c-11.071,4.744-21.123,7.404-33.206,8.118c-13.072,0.771-28.889-2.767-40.328,4.564c-6.766,4.335-16.881,5.44-24.79,9.32
				c-9.29,4.557-19.188,9.341-28.971,13.512c-10.595,4.517-21.647,5.803-32.346,9.883c-6.883,2.627-13.294,6.302-20.078,9.195
				c-0.078-1.247-0.133-2.497-0.13-3.756c0.021-7.39,0.716-14.61,1.036-21.882c0.299-6.752-1.235-13.313-0.523-19.971
				c0.81-7.565,1.515-15.112,2.267-22.705c0.29-2.926,0.546-6.2,1.165-9.049c0.709-3.266,3.804-7.893,5.606-10.59
				c7.729-11.569,2.949-8.648,11.396-18.91l2.725-4.443c-1.896,2.838-3.907,5.278-6.201,8.064
				c-8.447,10.262-13.644,23.05-22.884,32.59c-2.26,2.331-4.473,4.241-5.183,7.506c-0.619,2.85-0.875,6.125-1.165,9.05
				c-0.752,7.593-1.457,15.139-2.266,22.705c-0.713,6.658,0.822,13.217,0.522,19.97c-0.221,5.014-0.608,10.005-0.843,15.042
				c-0.104,2.269-0.187,4.545-0.191,6.841c-0.009,3.005,0.257,5.969,0.598,8.918c3.434-0.704,7.063-0.828,10.396-2.053
				c1.804-0.662,3.565-1.407,5.313-2.189c6.186-2.765,12.113-6.063,18.438-8.478c10.697-4.081,21.751-5.367,32.346-9.883
				c9.781-4.17,19.681-8.954,28.971-13.512c7.909-3.879,18.024-4.984,24.79-9.319c11.439-7.331,27.256-3.793,40.328-4.566
				c12.083-0.713,22.135-3.373,33.206-8.117c5.893-2.525,10.176-6.778,16.034-9.287c2.426-1.04,4.987-1.077,7.321-2.085
				c1.732-0.748,3.302-2.264,5.12-3.056c5.431-2.367,11.473-2.507,16.694-5.246c4.065-2.131,7.557-4.869,11.73-6.914
				c5.022-2.462,9.625-5.669,14.555-7.996c3.559-1.682,7.381-2.811,10.838-4.67c3.443-1.853,7.004-3.559,10.342-5.679
				c4.826-3.061,7-7.346,10.679-11.266L334.201,87.917z"/>
			<path fill="#FE0000" d="M85.389,76.133c0.747-1.12,1.478-2.295,2.196-3.586L85.389,76.133z"/>
		</g>
	</g>
	<path fill="#1659B2" d="M22.611,249.481c0-9.792,1.322-19.154,1.313-28.961c-0.007-6.443,0.558-13.042,1.65-19.357
		c0.876-5.061,2.933-9.563,3.619-14.693c1.229-9.175,0.31-18.946,0.415-28.27c0.055-4.885,1.042-8.371,2.722-12.876
		c1.611-4.322,1.387-9.394,3.609-13.446c3.508-6.391,12.133-13.258,13.324-20.442c-4.108,2.699-7.745,6.909-11.323,10.265
		c-4.003,3.755-10.669,8.516-13.338,13.39c-3.921,7.163-4.585,19.512-5.498,27.844c-0.942,8.595,1.841,17.217,0.468,25.692
		c-1.593,9.82-5.013,19.573-6.896,29.684c-1.627,8.735-5.733,17.23-7.455,25.902c-1.182,5.936-2.692,10.047,4.646,10.077
		c5.205,0.022,7.679-3.052,12.307-4.809"/>
	<path fill="#1659B2" d="M19.114,238.112c4.016-0.824,7.206-4.421,11.421-5.707c5.73-1.749,11.691-3.384,17.448-5.322
		c11.683-3.933,23.055-8.925,34.226-14.214c3.375-1.597,6.546-4.079,9.877-5.78c6.613-3.381,13.484-3.409,20.283-5.368
		c5.849-1.686,11.542-3.7,17.313-5.601c5.022-1.653,9.846-5.162,14.572-6.874c5.516-1.996,11.218-3.566,16.576-5.774
		c2.964-1.222,6.332-3.41,9.368-3.988c7.514-1.428,17.076,0.126,24.779,0.032c6.884-0.083,12.969-2.014,19.574-3.499
		c10.661-2.396,21.76-3.938,32.308-7.439c23.058-7.657,46.692-20.157,66.545-34c7.008-4.888,13.603-9.103,21.349-13.02
		c4.026-2.037,16.987-9.873,20.192-7.169c8.861,7.479-11.875,16.167-16.635,17.369c-16.592,4.192-29.291,12.55-42.736,22.397
		c-15.239,11.163-34.125,23.168-52.956,25.352c-8.521,0.988-16.661,3.983-25.253,4.821c-6.921,0.674-13.472,1.292-20.242,3.083
		c-13.207,3.496-27.459,4.933-40.162,9.464c-11.679,4.167-22.276,10.232-33.731,14.199c-9.402,3.255-17.783,6.516-27.156,9.631
		c-10.787,3.584-21.559,8.814-32.489,12.945c-10.089,3.814-20.46,9.314-30.989,11.575c-5.614,1.206-10.826,2.985-16.466,4.201
		c-0.851-2.816-2.105-6.54-0.875-9.5c3.452,0.75,3.468-1.911,5.607-3.563"/>
	<path fill="#1659B2" d="M378.941,439.935c3.283,2.109,3.99,6.313,6.678,9.088c2.08,2.148,7.15,5.072,9.623,6.795
		c5.353,3.721,11.697,4.537,18.584,5.67c18.257,3.002,38.035,6.998,56.343,11.316c8.387,1.977,18.489,3.557,24.985,9.047
		c7.449,6.301,6.863,17.531,9.533,26.352c-8.951-5.377-16.01-8.697-27.17-8.697c-6.777,0-12.478,0.695-18.295-2.262
		c-4.252-2.158-7.562-5.557-12.359-7.189c-9.66-3.289-22.26-0.791-33.057-0.818c-13.338-0.035-23.281,1.715-32.691-7.611
		c-0.59-9.119-1.317-33.029-14.363-28.865c-6.854,2.188-12.327,10.064-18.659,13.863c-3.302,1.982-6.871,3.432-10.045,5.799
		c-1.593,1.189-6.625,7.738-8.593,7.828c-4.741,0.215-4.084-11.648-3.922-15.631c0.33-8.102,0.603-15.379,7.396-19.926
		c12.504-8.369,27.526-10.508,37.266-22.541c1.9-2.351,1.568-4.16,4.519-4.723c0.375,3.835,1.78,6.887,2.174,10.867
		c0.414,4.188-1.156,8.938,1.369,12.324"/>
	<path fill="#1659B2" d="M417.285,643.292c11.404,8.414,33.716-2.324,46.562-3.574c13.91-1.354,30.129,4.525,43.69,9.016
		c9.957,3.295,25.646,1.125,35.152-2.701c6.353-2.557,7.99-6.861,14.357-4.502c4.088,1.516,13.375,6.805,12.924,12.035
		c-0.527,6.098-13.017,9.283-18.297,9.732c-10.879,0.928-22.238-0.752-33.017-2.234c-14.664-2.021-29.121,1.592-43.754,2.119
		c-21.125,0.766-42.332-8.551-59.674-19.205"/>
	<path fill="#1659B2" d="M304.992,270.127c7.988,5.053,20.218,6.499,29.865,6.847c6.094,0.22,9.676-1.838,13.441,1.903
		c2.93,2.912,3.659,7.421,7.396,10.182c1.209-6.219,9.183-4.983,12.973-8.816c3.507-3.544,5.746-10.687,8.218-14.925
		c2.028-3.478,4.475-4.394,8.018-6.497c4-2.374,3.729-6.049,5.459-2.118c8.441-4.266,18.806-9.795,24.045-17.901
		c0.703,5.302-3.76,19.347-7.168,23.638c-2.877,3.623-7.178,2.021-9.537,4.313c-2.047,1.989-2.051,8.558-2.862,11.042
		c-1.734,5.307-4.691,17.367-10.384,19.922c-5.415,2.427-18.69-0.473-24.68-0.065c1.824,1.699,1.467,3.07,1.945,5.238
		c-6.887,0.727-12.252,3.63-18.918,3.375c-5.941-0.228-12.105-3.505-17.787-6.183c-6.354-2.995-13.184-2.892-15.234-8.865
		c-1.395-4.069-6.791-16.557-3.42-19.72"/>
	<path fill="#FE0000" d="M254.324,245.477c11.146,1.357,22.599-4.534,33.378-5.478c11.718-1.026,22.276-5.639,33.604-6.742
		c3.02,12.713,12.113,13.578,22.047,8.131c7.436-4.079,20.441-12.313,25.521-19.173c3.07-4.145,3.08-6.887,7.978-9.642
		c1.924-1.082,5.389-1.229,6.896-3.354c1.582-2.233,0.392-5.811,1.818-8.266c3.682-6.333,6.115-2.571,10.49,0.551
		c3.776,2.696,4.371,4.609,10.539,2.901c1.963-0.543,6.086-2.697,7.852-4.08c4.68,11.572,6.353,19.855,2.049,31.386
		c-6.571,0.52-11.705-0.922-18.379,0.069c-2.621,0.389-5.508,1.043-8.256,1.183c-2.443,0.123-5.063-0.78-8.113-0.391
		c-0.159,5.362,3.101,12.283-0.055,15.502c-1.328,1.357-8,2.658-10.32,4.23c-3.362,2.283-6.512,5.182-9.895,7.549
		c-3.453,2.416-12.238,10.882-16.377,10.818c-4.584-0.07-5.433-7.497-8.629-11.487c-4.105-5.12-5.972-5.167-13.525-4.81
		c-8.25,0.39-13.975,5.168-21.947,6.214c-7.083,0.927-17.794-0.921-24.23-3.301c-5.157-1.907-8.801-5.943-13.51-8.276
		c-2.095-1.037-4.747-1.324-6.882-2.168"/>
	<path fill="#FE0000" d="M491.537,462.814c-4.36-1.439-9.77-1.352-14.381-1.369c-9.326-0.039-16.016-1.855-25.401-3.322
		c-14.603-2.279-29.382-1.695-43.563-5.465c-8.703-2.313-17.67-6.248-24.656-11.871c-8.289-6.672-10.737-16.293-13.297-26.486
		c-6.981-0.709-15.516,6.728-21.807,9.787c-8.705,4.232-15.229,8.811-20.127,8.316c0.811-7.67,2.151-19.072,0-26.013
		c15.778,1.247,23.916-17.456,38.545-18.804c1.223,6.588-2.342,7.281,1.475,12.75c2.109,3.021,5.232,6.342,7.994,8.574
		c7.912,6.397,18.697,11.313,27.607,15.574c8.838,4.225,16.661,4.008,26.022,4.777c5.539,0.457,10.051,2.063,15.748,2.055
		c8.25-0.012,20.519-0.049,25.232-8.098c0.037,0.357-1.354-0.73-1.25-0.633c7.692-3.736,17.953,30.986,19.117,36.803"/>
	<path fill="#FE0000" d="M505.611,580.332c-3.528,1.648-7.211-0.355-10.92-0.721c-5.965-0.588-12.008,0.465-17.82,0.736
		c-13.76,0.641-24.674-0.191-37.618-4.143c-6.484-1.98-18.888-5.154-22.152-12.119c-1.682-3.588-0.305-9.93-0.348-13.895
		c-0.048-4.332-1.609-7.406-1.777-11.406c-13.582,7.715-27.367,17.703-40.844,24.98c-10.269,5.547-23.718,15.771-36.168,13.725
		c-1.029-5.9,1.403-12.285,1.301-18.385c-0.045-2.576-1.363-5.412-0.736-8.215c1.213-5.418,1.111-3.719,5.49-5.479
		c11.793-4.744,26.252-5.576,38.215-10.805c7.607-3.324,14.531-8.605,21.359-13.184c4.729-3.174,13.104-12.68,16.463-6.807
		c2.723,4.758-2.051,13.504-0.717,18.469c1.518,5.65,11.094,11.688,17.043,13.613c14.721,4.766,32.182,6.244,47.557,6.926
		c8.508,0.377,16.561-4.688,24.361-3.332c0.26,10.137-0.968,20.242-1.316,30.037"/>
	<path fill="#FE0000" d="M480.603,647.923c10.123,3.178,20.873-5.643,30.106-9.279c7.521-2.961,25.156-6.854,25.951-16.637
		c-11.217-0.574-18.539-4.121-29.477-8.063c-4.838-1.746-10.906-3.873-16.006-3.68c-5.295,0.203-7.529,3.139-12.117,5.514
		c-7.225,3.734-15.951,4.729-22.92,8.336c-7.031,3.637-12.875,6.934-21.365,8.744c-11.844,2.523-24.592,4.531-36.758,5.479
		c-4.955,0.385-23.137,3.566-26.709-0.291c-1.24-1.338-0.611-9.307-0.297-11.35c1.174-7.582,5.207-16.137,13.043-17.652
		c6.924-1.338,14.182,1.602,21.07,1.902c20.28,0.885,39.979-1.123,60.233-1.301c0.543,4.441-1.926,9.869-2.539,14.352
		c-1.219,8.902-1.088,8.699,3.422,12.949c3.992,3.762,10.978,9.064,15.729,11.66"/>
	<path fill="#1659B2" d="M416.599,573.451c4.475,2.807,7.555,6.154,11.074,9.436c7.952,7.412,16.452,6.506,27.229,7.002
		c9.279,0.43,18.26,1.887,27.699,1.23c9.486-0.656,23.949-6.213,31.057,0.102c5.998,5.328,7.228,9.652,1.709,15.234
		c-7.021,7.105-8.346,4.945-16.922,5.188c-4.406,0.127-7.86,2.652-12.106,3.498c-4.97,0.99-10.209,0.307-15.48,0.75
		c-10.957,0.92-25.078,5.146-35.596-0.084c-1.625-0.807-4.252-5.203-5.072-6.5c-4.797-0.158-7.891-4.564-12.727-5.188
		c-0.254-4.537-2.998-12.658-8.104-12.775c-5.137-0.115-15.938,9.938-20.166,13.074c-5.035,3.738-9.844,10.889-15.729,13.025
		c-6.177,2.242-11.455-1.729-16.433-5.131c-4.498-3.074-10.543-6.617-10.271-12.809c0.268-6.088,9.971-8.963,15.748-11.672
		c14.143-6.631,30.793-13.258,43.121-23.438c3.948-3.26,8.174-7.406,10.338-11.943c-0.16,6.555-0.09,12.563-1.56,18.846
		c0.148,0.797,0.65,1.059,1.509,0.785"/>
	<path fill="#FE0000" d="M348.838,103.908c-4.74,1.67-9.226,5.749-13.769,8.492c-4.475,2.701-9.168,4.812-13.709,7.132
		c-9.088,4.642-19.899,8.747-28.499,14.604c-4.419,3.011-8.022,6.903-12.903,8.914c-5.391,2.221-10.748,3.004-15.608,5.516
		c-10.521,5.435-20.568,10.205-32.202,11.986c-11.171,1.71-22.915,4.762-34.012,5.252c-9.621,0.425-20.942-1.793-29.604,2.247
		c-11.49,5.357-23.789,7.377-34.648,12.672c-9.465,4.614-17.96,12.433-27.903,15.101c-12.801,3.435-24.996,7.654-37.439,10.47
		c-11.37,2.571-23.668,10.595-34.485,14.327c-0.527-10.397-1.051-21.824-0.08-32.209c1.105-11.856,6.938-22.751,7.953-34.789
		c0.912-10.818,0.272-22.517,3.364-33.029c2.734-9.3,12.142-19.511,20.654-24.43c4.931-2.848,5.901-6.116,9.9-10.302
		c1.458,5.026-4.576,9.886-6.992,13.605c-2.959,4.554-5.007,9.621-7.159,14.639c-4.956,11.552-5.653,23.72-5.653,36.629
		c0,6.646,0,13.293,0,19.938c0,6.663-1.932,16.135,1.734,21.985c6.896,10.997,19.033-6.162,27.34-8.687
		c5.642-1.715,12.162-2.615,17.781-4.145c4.901-1.333,8.976-4.232,13.965-6.635c12.164-5.859,25.432-10.071,37.783-15.34
		c11.473-4.893,22.643-8.61,35.946-9.26c8.962-0.437,19.34,0.414,28.128-1.032c6.037-0.993,10.178-6.031,15.479-8.547
		c8.78-4.17,18.621-3.764,28.002-6.597c13.278-4.009,22.466-10.784,33.923-17.86c9.607-5.934,21.115-9.23,31.767-13.19
		c4.424-1.645,8.707-4.483,13.402-5.004C348.232,95.595,347.963,98.013,348.838,103.908"/>
</g>
<g id="Layer_3">
	<path d="M674.708,625.261c-10.014,1.201-19.62,5.41-29.582,7.482c-25.59,5.326-51.422,9.867-77.405,3.303
		c-13.961-3.523-15.263-8.801-6.734-19.971c7.791-10.203,5.623-16.711-7.012-19.414c-5.668-1.215-12.34,0.434-17.293-1.904
		c-8.933-4.211-17.918-9.438-24.787-16.326c-2.717-2.725-0.063-11.051,0.537-16.783c1.555-14.771,9.188-28.406,0.771-44.629
		c-6.901-13.313-7.51-29.768-11.91-44.525c-4.434-14.881-10.121-29.383-15.221-44.066c-10.088-29.055-18.416-58.701-43.129-80.363
		c-8.168-7.155-18.309-16.963-14.055-30.211c6.983-21.759-2.89-40.271-8.894-59.748c-1.793-5.822-4.338-12.887-2.604-18.066
		c7.715-23.009,2.94-43.505-4.207-66.309c-10.103-32.25-27.828-57.875-53.217-77.522c-40.339-31.218-79.938-64.152-130.844-78.47
		C194.803,8.078,160.747-2.021,124.59,0.351c-5.554,0.367-11.715,2.082-16.271,5.145C88.479,18.817,85.053,32.93,93.635,63.024
		c1.205-5.979,1.125-11.784,3.534-16.244c5.28-9.764-6.354-25.98,9.942-30.391c11.507-3.11,24.128-2.102,36.256-2.902
		c0.96-0.063,1.962,0.055,2.905,0.271c23.661,5.313,47.38,10.389,70.963,16.035c52.195,12.494,92.044,46.292,133.033,77.961
		c6.988,5.398,8.371,9.757-2.881,13.731c-9.396,3.314-17.262,10.972-25.806,16.709c28.253-10.235,53.912-4.546,68.599,15.246
		c1.447,1.953,4.106,4.232,3.852,6.026c-2.619,18.33,12.943,28.748,18.66,43.423c6.851,17.588-3,31.917-6.938,47.425
		c-0.865,3.409-3.478,6.371-6.229,11.191c-5.746-8.341-10.521-15.269-13.947-20.246c4.479-9.741,8.101-17.61,11.718-25.479
		c-19.771,4.502-26.275,26.281-16.851,42.756c3.111,5.435,7.387,10.513,9.078,16.346c1.16,4.006,0.234,10.523-2.463,13.176
		c-2.381,2.348-8.889,2.162-12.898,0.91c-19.5-6.086-28.233-23.503-36.014-39.632c-6.961-14.43-16.066-25.309-29.715-32.191
		c-15.964-8.048-32.649-14.654-48.909-22.131c-3.921-1.804-7.402-4.571-9.114-5.651c23.286-16.969,45.654-33.27,68.018-49.572
		c-3.5,1.595-7.429,2.616-10.441,4.869c-33.4,24.959-70.813,37.56-112.544,38.097c-8.153,0.104-16.771,1.567-24.319,4.56
		c-38.537,15.284-76.754,31.379-115.169,46.97c-14.451,5.865-27.719,16.414-46.749,12.604c1.995-14.749,9.203-41.242,11.505-56.264
		c0.271,0.009,0.544,0.021,0.816,0.031c1.597-13.333,4.029-26.632,4.58-40.007c0.316-7.688,0.884-12.124,2.886-14.087
		c3.938-7.573,12.407-12.335,18.464-18.407c9.73-9.752,18.618-20.303,27.467-30.845c3.643-4.339,7.573-9.246,12.185-13.006
		c-0.17,0-0.338,0.002-0.508,0.002c-0.142,0.204-0.518,0.681-0.961,1.088c-18.8,17.274-37.973,34.166-56.212,52.016
		c-5.485,5.363-10.959,13.035-11.918,20.246c-1.87,14.051-0.548,28.525-0.548,42.822c0.149,0.006,0.298,0.011,0.447,0.018
		c-4.28,19.778-13.561,51.228-17.49,70.19c1.356,1.339,2.714,2.675,4.07,4.012c18.108-7.179,36.401-13.924,54.271-21.643
		c24.406-10.545,48.23-22.489,72.892-32.364c6.607-2.647,16.235-2.098,22.964,0.666c26.728,10.981,52.669,23.855,79.271,35.158
		c17.858,7.592,36.658,13,54.393,20.84c7.719,3.41,16.519,9.77,3.196,18.813c-2.598,1.76-4.938,6.846-4.363,9.814
		c2.282,11.78,5.935,23.278,8.769,34.957c4.595,18.926,28.074,28.628,25.091,51.311c-0.021,0.146,2.139,1.004,3.518,1.334
		c1.57,13.332,3.586,26.295,5.187,39.596c2.51-0.516,5.018-1.029,7.526-1.544c-4.178-12.709-8.358-25.413-12.539-38.121
		c-0.424-5.958-0.848-11.916-1.42-19.925c11.42,3.07,20.537,4.804,29.021,8.143c3.719,1.467,7.584,5.729,8.897,9.564
		c5.16,15.091,10.234,30.336,13.392,45.916c1.16,5.705-1.117,14.867-5.269,18.363c-11.381,9.576-24.588,16.984-37.948,25.83
		c-1.568-3.924-2.832-7.088-4.525-11.322c-13.283,29.955-14.98,56.736,13.668,80.711c1.068-5.52,2.465-9.83,2.635-14.197
		c0.416-10.711,0.146-21.445,0.379-32.166c0.476-21.766,9.242-31.311,32.687-34.908c0.332,6.834,1.947,13.818,0.715,20.262
		c-2.627,13.729,4,20.639,15.453,25.23c2.688,1.08,5.106,2.809,7.746,4.037c10.674,4.979,16.678,12.26,15.414,25.072
		c-1.336,13.557-0.517,27.34-2.109,40.85c-0.565,4.801-4.643,10.01-8.524,13.438c-8.757,7.73-18.054,14.992-27.847,21.344
		c-3.684,2.391-11,4.004-13.77,1.99c-5.949-4.324-11.867-10.525-14.453-17.242c-4.543-11.807-6.576-24.582-10.012-38.344
		c-0.953,4.631-2.232,8.564-2.519,12.576c-2.088,29.316,19.973,64.936,47.617,75.117c18.148,6.686,37.166,11.002,55.391,17.498
		c14.33,5.109,28.652,10.844,41.916,18.209c32.666,18.146,64.722,37.391,100.074,57.977c7.799-33.588-13.949-49.371-31.268-70.781
		c33.825-4.672,64.395-8.891,93.883-12.963c-2.127-0.832-5.758-2.25-10.275-4.016c7.729-3.139,13.799-7.166,20.205-7.787
		c6.754-0.65,14.322,4.01,20.605,2.498c5.373-1.295,9.434-8.041,14.075-12.375C683.549,629.666,678.804,624.773,674.708,625.261z
		 M338.828,519.117c-15.746-15.801-15.713-21.291,1.729-34.4C339.914,497.472,339.426,507.185,338.828,519.117z M513.476,599.451
		c0.434,0.428-4.34,9.014-7.488,9.623c-8.977,1.732-18.369,1.305-27.6,1.729c-6.814-0.014-13.623,0.016-20.435-0.02
		c-24.946-0.123-39.143-10.699-40.782-39.059c-1.359-23.51,2.737-47.424,5.698-70.994c0.406-3.242,9.263-8.777,12.416-7.75
		c17.738,5.773,36.009,11.443,51.816,20.941c6.891,4.145,10.736,17.047,11.799,26.439
		C501.208,560.773,496.388,582.539,513.476,599.451z M450.292,378.587c1.125,1.435-3.041,7.02-4.759,10.686
		c-7.901-7.227-16.271-14.012-23.553-21.816c-5.096-5.458-10.857-12.027-0.729-22.23
		C431.638,356.894,441.472,367.343,450.292,378.587z M272.438,246.888c-35.208-12.863-72.283-21.196-107.967-45.382
		c43.071-18.268,76.924,0.127,112.87,12.986c41.12,14.71,55.508,50.489,77.313,87.21c-13.276-2.306-23.971-4.168-34.668-6.024
		c0.131-1.884,0.26-3.767,0.394-5.652c5.194-0.494,10.393-0.986,17.309-1.65C319.56,267.099,296.726,255.757,272.438,246.888z
		 M300.771,319.836c-2.031-5.99-2.965-12.353-4.037-16.961c17.822,3.85,33.867,9.206,50.176,10.203
		c12.088,0.736,25.711-1.884,36.418-7.364c8.158-4.179,12.787-15.216,19.043-23.156c2.755-3.503,5.646-6.894,8.479-10.333
		c2.213,3.413,5.328,6.554,6.449,10.298c2.219,7.4,3.668,15.083,4.846,22.738c4.338,28.261-2.318,40.606-28.467,51.004
		C368.42,366.311,312.513,354.465,300.771,319.836z M397.592,477.871c-14.793,1.188-17.73-5.197-18.349-16.961
		c-0.735-14.057-0.705-28.273-3.004-42.09c-1.869-11.24-6.778-21.965-10.145-32.98c-1.174-3.848-1.769-7.873-2.258-10.106
		c13.414-5.118,24.801-10.3,36.715-13.523c3.713-1.001,10.801,2.07,12.949,5.438c4.594,7.213,5.475,17.042,10.696,23.532
		c4.877,6.06,12.957,10.877,20.515,12.844c3.448,0.899,9.026-6.356,15.815-11.592c17.457,32.692,28.853,69.304,40.922,108.612
		c-22.075-7.594-38.912-14.936-56.504-18.979C429.588,478.535,413.208,476.617,397.592,477.871z M398.078,621.708
		c-4.125-4.328-13.746-10.818-3.446-19.074c9.106-7.303,16.047-6.311,24.873,2.535c12.217,12.244,26.516,22.553,40.602,32.75
		c8.5,6.148,18.287,10.521,27.496,15.689C452.917,655.859,422.126,646.962,398.078,621.708z M565.693,711.951
		c-19.701-9.613-38.408-18.74-57.115-27.871c0.726-1.408,1.447-2.814,2.173-4.223C535.933,679.041,568.699,690.455,565.693,711.951z
		 M465.324,623.531c43.513-22.877,72.867,3.254,100.847,30.689C547.197,662.632,482.728,643.359,465.324,623.531z"/>
</g>
</svg>
