<?xml version="1.0" encoding="utf-8"?>
<!-- Generator: Adobe Illustrator 16.0.0, SVG Export Plug-In . SVG Version: 6.00 Build 0)  -->
<!DOCTYPE svg PUBLIC "-//W3C//DTD SVG 1.1//EN" "http://www.w3.org/Graphics/SVG/1.1/DTD/svg11.dtd">
<svg version="1.1" id="Layer_1" xmlns="http://www.w3.org/2000/svg" xmlns:xlink="http://www.w3.org/1999/xlink" x="0px" y="0px"
	 width="688.082px" height="737.535px" viewBox="0 0 688.082 737.535" enable-background="new 0 0 688.082 737.535"
	 xml:space="preserve">
<g id="Layer_4">
	<polygon fill="#1CC2E8" points="131.841,6.856 209.549,19.29 289.331,53.482 328.705,80.421 376.366,119.794 403.306,166.419 
		412.321,187.206 417.623,209.659 414.193,240.844 410.762,256.749 417.623,272.652 423.549,287.311 425.419,303.215 
		425.419,312.258 425.419,335.647 439.452,353.111 465.649,387.914 499.639,480.972 510.867,532.115 504.94,576.71 528.641,596.669 
		551.719,628.789 567.626,644.072 632.177,644.072 681.761,632.533 672.676,644.712 643.499,653.791 563.258,661.535 
		539.556,667.771 552.343,681.492 574.483,707.062 570.743,726.708 470.637,667.767 409.514,646.562 348.702,605.708 
		338.402,556.16 340.663,538.054 328.121,514.025 323.132,488.453 326.421,460.082 329.286,423.175 324.273,383.511 
		316.583,354.668 293.193,309.761 296.311,292.297 308.786,269.532 264.815,249.885 152.547,204.043 131.841,206.538 11.59,257.058 
		5.667,248.95 20.635,184.396 23.442,140.112 39.969,122.025 86.708,74.305 93.746,63.022 92.361,38.137 96.727,19.738 
		114.502,6.856 	"/>
</g>
<g id="Layer_1_1_">
	<polygon fill="#E2C374" points="291.645,296.653 341.091,306.302 380.405,296.653 399.46,277.84 413.45,265.54 422.986,285.921 
		427.198,315.95 425.419,335.646 404.525,357.194 369.31,364.912 326.619,355.023 303.704,335.245 291.645,305.819 	"/>
	<path fill="#FFFFFF" d="M22.723,249.479c0-9.791,1.321-19.154,1.311-28.961c-0.006-6.443,0.557-13.042,1.651-19.356
		c0.877-5.063,2.933-9.564,3.62-14.694c1.227-9.175,0.309-18.946,0.414-28.27c0.055-4.885,1.043-8.371,2.723-12.876
		c1.608-4.321,1.387-9.395,3.608-13.446c3.508-6.39,12.134-13.258,13.324-20.442c-4.108,2.699-7.746,6.909-11.324,10.266
		c-4.002,3.755-10.668,8.516-13.337,13.39c-3.921,7.163-4.586,19.512-5.499,27.845c-0.941,8.595,1.843,17.216,0.468,25.692
		c-1.593,9.818-5.013,19.571-6.896,29.683c-1.627,8.736-5.732,17.23-7.457,25.901c-1.18,5.937-2.689,10.048,4.646,10.078
		c5.207,0.022,7.68-3.052,12.309-4.81"/>
	<path fill="#FFFFFF" d="M19.225,238.111c4.016-0.825,7.207-4.421,11.422-5.707c5.729-1.749,11.689-3.385,17.447-5.322
		c11.682-3.934,23.055-8.926,34.227-14.215c3.375-1.597,6.545-4.079,9.875-5.78c6.615-3.38,13.486-3.408,20.285-5.367
		c5.849-1.686,11.542-3.7,17.313-5.601c5.022-1.654,9.846-5.162,14.572-6.874c5.514-1.996,11.217-3.565,16.577-5.774
		c2.962-1.221,6.331-3.411,9.367-3.988c7.515-1.427,17.076,0.126,24.779,0.032c6.884-0.083,12.97-2.015,19.572-3.499
		c10.662-2.397,21.762-3.938,32.31-7.44c23.059-7.655,46.691-20.157,66.545-34.001c7.008-4.886,13.603-9.102,21.35-13.019
		c4.027-2.036,16.987-9.872,20.191-7.169c8.863,7.479-11.875,16.167-16.635,17.369c-16.592,4.192-29.29,12.55-42.736,22.397
		c-15.238,11.162-34.124,23.168-52.955,25.352c-8.521,0.988-16.66,3.983-25.252,4.82c-6.921,0.675-13.474,1.292-20.242,3.083
		c-13.207,3.496-27.459,4.933-40.162,9.465c-11.68,4.167-22.278,10.233-33.733,14.199c-9.402,3.255-17.781,6.517-27.154,9.632
		c-10.788,3.584-21.562,8.814-32.49,12.945c-10.088,3.813-20.459,9.313-30.99,11.575c-5.615,1.206-10.826,2.984-16.464,4.2
		c-0.852-2.816-2.105-6.54-0.876-9.5c3.452,0.75,3.468-1.91,5.608-3.563"/>
	<path fill="#FFFFFF" d="M379.053,439.933c3.282,2.111,3.99,6.314,6.677,9.088c2.081,2.15,7.149,5.074,9.623,6.795
		c5.352,3.721,11.697,4.537,18.584,5.668c18.256,3.004,38.034,7,56.341,11.318c8.389,1.977,18.491,3.555,24.987,9.049
		c7.449,6.299,6.864,17.529,9.533,26.35c-8.952-5.377-16.012-8.697-27.17-8.697c-6.777,0-12.477,0.695-18.296-2.26
		c-4.251-2.16-7.561-5.561-12.358-7.191c-9.66-3.289-22.26-0.791-33.059-0.818c-13.338-0.033-23.28,1.717-32.69-7.609
		c-0.59-9.121-1.317-33.029-14.362-28.865c-6.854,2.188-12.329,10.064-18.661,13.863c-3.299,1.98-6.87,3.432-10.044,5.799
		c-1.592,1.188-6.626,7.738-8.591,7.828c-4.742,0.215-4.084-11.65-3.922-15.631c0.33-8.104,0.601-15.379,7.395-19.926
		c12.506-8.369,27.528-10.51,37.267-22.543c1.899-2.35,1.568-4.158,4.52-4.723c0.374,3.835,1.78,6.889,2.174,10.865
		c0.413,4.189-1.156,8.939,1.369,12.326"/>
	<path fill="#FFFFFF" d="M417.396,643.292c11.404,8.414,33.716-2.324,46.56-3.574c13.911-1.355,30.129,4.525,43.692,9.014
		c9.957,3.295,25.647,1.125,35.151-2.701c6.353-2.555,7.992-6.859,14.358-4.502c4.088,1.514,13.373,6.805,12.923,12.035
		c-0.525,6.096-13.017,9.283-18.298,9.734c-10.878,0.928-22.237-0.754-33.016-2.236c-14.663-2.02-29.119,1.592-43.753,2.121
		c-21.126,0.764-42.333-8.551-59.673-19.207"/>
	<path fill="#FFFFFF" d="M305.103,270.125c7.988,5.053,20.217,6.499,29.865,6.847c6.093,0.22,9.676-1.838,13.44,1.904
		c2.931,2.911,3.66,7.42,7.396,10.181c1.211-6.218,9.184-4.983,12.974-8.815c3.506-3.545,5.745-10.688,8.217-14.926
		c2.029-3.478,2.11-14.327,5.652-16.43c4-2.374,6.094,3.884,7.824,7.814c8.441-4.266,18.804-9.794,24.046-17.9
		c0.703,5.302-3.762,19.347-7.17,23.638c-2.877,3.624-7.177,2.022-9.536,4.313c-2.047,1.989-2.052,8.558-2.863,11.042
		c-1.732,5.307-4.69,17.368-10.384,19.921c-5.415,2.429-18.691-0.472-24.679-0.065c1.823,1.699,1.466,3.072,1.944,5.239
		c-6.887,0.729-12.253,3.63-18.917,3.375c-5.942-0.228-12.106-3.504-17.788-6.183c-6.354-2.995-13.184-2.891-15.232-8.865
		c-1.396-4.07-6.792-16.559-3.421-19.721"/>
	<path fill="#FFFFFF" d="M416.71,573.451c4.476,2.807,7.556,6.156,11.073,9.436c7.953,7.41,16.454,6.504,27.23,7.002
		c9.278,0.428,18.258,1.885,27.698,1.23c9.485-0.658,23.948-6.213,31.056,0.1c5.998,5.328,7.227,9.654,1.71,15.236
		c-7.022,7.105-8.346,4.945-16.923,5.188c-4.405,0.127-7.86,2.652-12.107,3.498c-4.969,0.99-10.209,0.305-15.479,0.748
		c-10.958,0.922-25.079,5.146-35.598-0.082c-1.624-0.809-4.25-5.203-5.071-6.502c-4.795-0.158-7.891-4.564-12.728-5.188
		c-0.254-4.535-2.997-12.656-8.103-12.773c-5.139-0.117-15.938,9.934-20.167,13.074c-5.035,3.736-9.843,10.887-15.729,13.023
		c-6.177,2.242-11.455-1.729-16.432-5.131c-4.498-3.072-10.544-6.615-10.272-12.809c0.268-6.088,9.971-8.963,15.749-11.672
		c14.143-6.631,30.793-13.258,43.121-23.436c3.949-3.262,8.172-7.408,10.336-11.945c-0.158,6.555-0.09,12.563-1.558,18.846
		c0.146,0.797,0.648,1.059,1.507,0.785"/>
	<path fill="#FFFFFF" d="M32.762,226.878c7.702-2.364,14.848-6.145,22.266-9.382c7.553-3.296,16.326-4.392,24.305-7.712
		c8.728-3.632,16.426-9.024,25.291-12.272c7.849-2.874,15.688-5.655,23.205-8.046c15.629-4.97,29.976-12.854,45.633-16.893
		c8.109-2.09,15.852-2.518,24.541-2.903c8.576-0.38,15.05-5.616,23.261-5.616c9.752,0,18.667,0.146,27.614-3.623
		c9.054-3.811,18.11-8.602,27.088-12.816c9.49-4.456,19.771-6.559,28.317-12.779c4.665-3.395,8.837-7.086,13.573-10.381
		c4.758-3.311,8.778-3.874,14.073-5.899c4.515-1.727,7.805-4.748,11.729-7.109c4.869-2.933,12.681-9.354,17.905-10.184
		c0.915,3.793,3.286,8.443,2.811,12.379c-5.47,0.277-9.846-0.05-14.575,2.133c-4.395,2.028-7.707,5.503-11.974,8.186
		c-7.551,4.75-16.354,8.756-24.485,13.318c-9.421,5.284-17.94,12.017-27.994,16.373c-9.162,3.971-16.364,10.512-26.104,13.635
		c-8.674,2.781-13.454,6.133-22.186,7.466c-8.472,1.294-22.979,6.018-31.572,6.875c-20.555,2.047-47.783,2.298-61.43,8.654
		c-12.9,6.008-24.56,10.371-38.231,13.346c-10.194,2.218-19.197,8-28.334,12.448c-10.563,5.142-21.134,10.771-32.476,12.966
		c-8.298,1.606-16.765,3.847-19.564-5.604"/>
	<path fill="#FFFFFF" d="M31.162,229.78c-1.517-3.218,0.196-8.049,0.43-11.628c0.295-4.499,0.563-8.597,1.195-12.89
		c1.276-8.665,1.845-16.933,3.444-25.397c1.762-9.32,1.306-18.042,1.814-27.541c0.529-9.842,3.647-17.979,6.432-27.128
		c2.029-6.671,6.428-11.593,8.485-18.021c-8.051,2.702-16.271,13.118-17.834,21.096c-1.633,8.349-6.83,17.735-8.27,26.024
		c-3.219,18.546-1.596,36.18-4.401,54.902c-0.953,6.352-2.646,13.588-1.624,20.153c1.697,10.929,3.466,10.439,6.025,8.859
		l19.117-7.724L31.162,229.78z"/>
</g>
<g id="Layer_3">
	<path d="M674.82,625.261c-10.014,1.201-19.62,5.408-29.581,7.482c-25.591,5.326-51.423,9.865-77.408,3.303
		c-13.96-3.527-15.26-8.803-6.732-19.973c7.79-10.203,5.622-16.711-7.012-19.414c-5.668-1.213-12.341,0.434-17.293-1.902
		c-8.934-4.211-17.918-9.439-24.788-16.326c-2.716-2.727-0.063-11.051,0.536-16.787c1.556-14.768,9.188-28.404,0.773-44.627
		c-6.904-13.311-7.512-29.768-11.91-44.525c-4.434-14.881-10.122-29.383-15.222-44.064c-10.088-29.057-18.417-58.703-43.13-80.365
		c-8.168-7.156-18.31-16.963-14.056-30.212c6.984-21.757-2.888-40.27-8.891-59.746c-1.793-5.822-4.339-12.888-2.604-18.065
		c7.715-23.01,2.94-43.507-4.207-66.312c-10.102-32.249-27.828-57.874-53.218-77.521c-40.338-31.217-79.938-64.152-130.842-78.47
		C194.913,8.077,160.858-2.023,124.702,0.349c-5.554,0.367-11.717,2.081-16.272,5.145C88.59,18.815,85.165,32.928,93.746,63.022
		c1.206-5.979,1.126-11.783,3.535-16.244c5.28-9.763-6.354-25.98,9.943-30.392c11.505-3.109,24.128-2.102,36.255-2.9
		c0.96-0.063,1.962,0.054,2.906,0.27c23.659,5.313,47.379,10.39,70.961,16.036c52.196,12.494,92.045,46.292,133.035,77.96
		c6.986,5.398,8.369,9.758-2.883,13.732c-9.396,3.314-17.261,10.972-25.805,16.709c28.252-10.235,53.911-4.545,68.598,15.246
		c1.448,1.952,4.106,4.232,3.853,6.024c-2.62,18.33,12.942,28.749,18.659,43.423c6.851,17.588-2.998,31.917-6.938,47.425
		c-0.864,3.41-3.478,6.371-6.229,11.192c-5.746-8.342-10.522-15.27-13.948-20.246c4.479-9.742,8.1-17.61,11.718-25.479
		c-19.77,4.502-26.275,26.281-16.85,42.755c3.11,5.436,7.388,10.513,9.078,16.347c1.16,4.006,0.233,10.523-2.463,13.175
		c-2.383,2.348-8.891,2.162-12.898,0.91c-19.501-6.085-28.233-23.502-36.015-39.632c-6.96-14.43-16.066-25.309-29.714-32.191
		c-15.966-8.049-32.649-14.653-48.909-22.131c-3.921-1.802-7.402-4.57-9.113-5.65c23.286-16.969,45.652-33.27,68.018-49.573
		c-3.502,1.595-7.43,2.616-10.442,4.869c-33.398,24.959-70.813,37.56-112.544,38.097c-8.153,0.105-16.772,1.568-24.319,4.56
		c-38.537,15.285-76.754,31.38-115.17,46.971c-14.449,5.864-27.717,16.413-46.748,12.603c1.996-14.748,9.203-41.241,11.506-56.264
		c0.271,0.011,0.543,0.021,0.815,0.032c1.597-13.333,4.028-26.632,4.579-40.007c0.317-7.688,0.885-12.123,2.888-14.087
		c3.937-7.573,12.406-12.334,18.464-18.406c9.729-9.753,18.617-20.304,27.466-30.845c3.644-4.339,7.573-9.246,12.183-13.005
		c-0.169,0-0.337,0.002-0.508,0.002c-0.139,0.203-0.516,0.68-0.96,1.087c-18.8,17.275-37.972,34.166-56.211,52.016
		c-5.485,5.363-10.958,13.036-11.918,20.246c-1.872,14.051-0.548,28.524-0.548,42.821c0.148,0.007,0.297,0.012,0.447,0.018
		c-4.279,19.779-13.561,51.228-17.489,70.19c1.355,1.34,2.714,2.675,4.07,4.013c18.106-7.178,36.399-13.923,54.271-21.643
		c24.405-10.545,48.229-22.489,72.892-32.364c6.606-2.648,16.233-2.099,22.963,0.665c26.728,10.981,52.67,23.856,79.271,35.158
		c17.859,7.591,36.659,12.999,54.394,20.839c7.719,3.411,16.52,9.771,3.195,18.813c-2.597,1.76-4.938,6.847-4.362,9.814
		c2.281,11.78,5.935,23.279,8.769,34.958c4.596,18.926,28.074,28.629,25.092,51.311c-0.021,0.146,2.139,1.006,3.519,1.334
		c1.569,13.332,3.586,26.297,5.186,39.596c2.509-0.516,5.018-1.029,7.526-1.545c-4.179-12.707-8.358-25.412-12.539-38.119
		c-0.425-5.958-0.849-11.916-1.418-19.924c11.417,3.07,20.534,4.804,29.021,8.144c3.718,1.466,7.583,5.728,8.896,9.563
		c5.161,15.091,10.235,30.334,13.394,45.916c1.157,5.705-1.117,14.867-5.271,18.363c-11.379,9.576-24.587,16.984-37.949,25.83
		c-1.566-3.926-2.831-7.088-4.524-11.322c-13.282,29.955-14.979,56.736,13.67,80.713c1.065-5.52,2.463-9.832,2.634-14.199
		c0.416-10.711,0.145-21.445,0.379-32.166c0.477-21.768,9.243-31.311,32.687-34.906c0.332,6.834,1.945,13.816,0.716,20.262
		c-2.628,13.729,3.999,20.637,15.451,25.229c2.688,1.08,5.108,2.811,7.746,4.037c10.674,4.98,16.679,12.262,15.416,25.072
		c-1.337,13.557-0.519,27.34-2.109,40.85c-0.566,4.803-4.644,10.01-8.527,13.438c-8.754,7.73-18.051,14.992-27.845,21.344
		c-3.685,2.391-11.001,4.006-13.771,1.992c-5.949-4.324-11.867-10.527-14.451-17.244c-4.545-11.805-6.578-24.58-10.014-38.342
		c-0.954,4.629-2.232,8.563-2.518,12.574c-2.087,29.316,19.974,64.938,47.617,75.115c18.147,6.689,37.165,11.002,55.39,17.5
		c14.331,5.109,28.654,10.846,41.918,18.209c32.665,18.146,64.719,37.395,100.072,57.979c7.799-33.588-13.947-49.373-31.269-70.781
		c33.827-4.672,64.396-8.893,93.886-12.965c-2.128-0.83-5.76-2.248-10.275-4.014c7.728-3.141,13.798-7.166,20.203-7.787
		c6.755-0.65,14.323,4.01,20.606,2.498c5.372-1.295,9.435-8.043,14.076-12.375C683.659,629.666,678.915,624.773,674.82,625.261z
		 M338.938,519.117c-15.746-15.801-15.712-21.293,1.729-34.4C340.025,497.472,339.538,507.185,338.938,519.117z M513.587,599.449
		c0.435,0.43-4.339,9.016-7.487,9.623c-8.978,1.73-18.369,1.307-27.602,1.729c-6.813-0.014-13.622,0.016-20.434-0.02
		c-24.945-0.123-39.142-10.701-40.781-39.059c-1.36-23.508,2.737-47.422,5.697-70.994c0.407-3.242,9.262-8.779,12.416-7.75
		c17.74,5.773,36.009,11.443,51.817,20.941c6.891,4.145,10.736,17.047,11.798,26.438
		C501.319,560.773,496.499,582.539,513.587,599.449z M450.401,378.585c1.125,1.437-3.042,7.021-4.757,10.686
		c-7.902-7.225-16.272-14.012-23.554-21.815c-5.097-5.459-10.856-12.027-0.729-22.231
		C431.751,356.893,441.583,367.342,450.401,378.585z M272.548,246.886c-35.207-12.862-72.283-21.196-107.966-45.382
		c43.072-18.268,76.924,0.127,112.871,12.986c41.118,14.71,55.507,50.489,77.313,87.21c-13.278-2.307-23.971-4.167-34.669-6.024
		c0.132-1.883,0.26-3.766,0.393-5.651c5.195-0.495,10.393-0.986,17.31-1.65C319.672,267.098,296.836,255.755,272.548,246.886z
		 M300.884,319.835c-2.033-5.99-2.967-12.353-4.039-16.961c17.824,3.85,33.867,9.206,50.177,10.203
		c12.088,0.737,25.71-1.883,36.417-7.364c8.158-4.179,12.788-15.216,19.045-23.156c2.754-3.502,5.646-6.894,8.477-10.332
		c2.215,3.413,5.328,6.554,6.449,10.298c2.22,7.4,3.67,15.083,4.848,22.737c4.337,28.261-2.317,40.607-28.469,51.005
		C368.532,366.31,312.626,354.463,300.884,319.835z M397.702,477.871c-14.792,1.188-17.729-5.199-18.347-16.963
		c-0.735-14.059-0.706-28.271-3.004-42.09c-1.869-11.24-6.779-21.965-10.145-32.98c-1.176-3.848-1.769-7.873-2.258-10.105
		c13.412-5.118,24.799-10.3,36.715-13.523c3.712-1.001,10.801,2.071,12.947,5.439c4.595,7.213,5.477,17.041,10.698,23.531
		c4.876,6.059,12.957,10.877,20.514,12.844c3.45,0.898,9.028-6.355,15.817-11.592c17.456,32.691,28.852,69.303,40.921,108.613
		c-22.075-7.596-38.912-14.938-56.505-18.98C429.699,478.535,413.32,476.617,397.702,477.871z M398.188,621.708
		c-4.125-4.328-13.745-10.818-3.446-19.074c9.107-7.305,16.048-6.313,24.874,2.535c12.217,12.244,26.516,22.553,40.602,32.748
		c8.499,6.15,18.287,10.521,27.497,15.691C453.027,655.859,422.237,646.962,398.188,621.708z M565.804,711.951
		c-19.7-9.613-38.408-18.742-57.116-27.871c0.727-1.41,1.447-2.816,2.172-4.223C536.045,679.039,568.81,690.455,565.804,711.951z
		 M465.434,623.531c43.513-22.877,72.867,3.252,100.848,30.688C547.309,662.632,482.841,643.359,465.434,623.531z"/>
</g>
</svg>
