<?xml version="1.0" encoding="utf-8"?>
<!-- Generator: Adobe Illustrator 16.0.0, SVG Export Plug-In . SVG Version: 6.00 Build 0)  -->
<!DOCTYPE svg PUBLIC "-//W3C//DTD SVG 1.1//EN" "http://www.w3.org/Graphics/SVG/1.1/DTD/svg11.dtd">
<svg version="1.1" id="Layer_1" xmlns="http://www.w3.org/2000/svg" xmlns:xlink="http://www.w3.org/1999/xlink" x="0px" y="0px"
	 width="688.082px" height="737.535px" viewBox="0 0 688.082 737.535" enable-background="new 0 0 688.082 737.535"
	 xml:space="preserve">
<g id="Layer_4">
	<polygon fill="#FFFF03" points="131.729,6.857 209.438,19.292 289.219,53.483 328.593,80.423 376.255,119.795 403.194,166.421 
		412.208,187.207 417.511,209.66 414.081,240.847 410.65,256.751 417.511,272.653 423.436,287.312 425.306,303.217 425.306,312.261 
		425.306,335.648 439.341,353.112 465.537,387.916 499.527,480.972 510.756,532.115 504.83,576.71 528.529,596.669 551.607,628.791 
		567.512,644.072 632.064,644.072 681.649,632.533 672.563,644.714 643.386,653.792 563.146,661.535 539.445,667.771 
		552.231,681.494 574.372,707.064 570.631,726.708 470.525,667.769 409.403,646.562 348.592,605.708 338.291,556.16 
		340.552,538.054 328.009,514.025 323.02,488.455 326.309,460.083 329.174,423.177 324.161,383.513 316.47,354.669 293.082,309.763 
		296.2,292.298 308.674,269.534 264.703,249.888 152.436,204.044 131.729,206.539 11.479,257.06 5.554,248.952 20.523,184.397 
		23.33,140.114 39.858,122.026 86.596,74.306 93.634,63.024 92.25,38.138 96.615,19.739 114.39,6.857 	"/>
</g>
<g id="Layer_1_1_">
	<polygon fill="#E2C374" points="291.533,296.655 340.978,306.304 380.292,296.655 399.347,277.842 413.338,265.54 422.876,285.923 
		427.085,315.952 425.306,335.647 404.413,357.196 369.198,364.913 326.507,355.024 303.593,335.247 291.533,305.82 	"/>
	<path d="M22.611,249.481c0-9.792,1.322-19.154,1.312-28.961c-0.007-6.443,0.558-13.042,1.65-19.357
		c0.878-5.061,2.933-9.564,3.62-14.693c1.228-9.175,0.31-18.946,0.415-28.27c0.055-4.885,1.042-8.371,2.722-12.876
		c1.61-4.322,1.387-9.394,3.609-13.446c3.508-6.391,12.133-13.258,13.324-20.442c-4.109,2.699-7.745,6.909-11.323,10.265
		c-4.003,3.755-10.669,8.516-13.338,13.39c-3.921,7.163-4.585,19.512-5.499,27.844c-0.941,8.595,1.842,17.217,0.468,25.692
		c-1.592,9.82-5.012,19.573-6.896,29.684c-1.627,8.734-5.732,17.23-7.455,25.902c-1.182,5.936-2.691,10.047,4.646,10.076
		c5.205,0.022,7.679-3.051,12.308-4.809"/>
	<path d="M19.113,238.112c4.016-0.824,7.207-4.421,11.422-5.707c5.73-1.748,11.69-3.385,17.448-5.322
		c11.682-3.934,23.054-8.925,34.226-14.214c3.375-1.597,6.546-4.079,9.876-5.78c6.614-3.381,13.485-3.408,20.283-5.367
		c5.85-1.687,11.544-3.7,17.313-5.601c5.022-1.653,9.845-5.162,14.572-6.874c5.515-1.996,11.218-3.566,16.577-5.774
		c2.963-1.222,6.33-3.41,9.367-3.988c7.514-1.428,17.076,0.126,24.779,0.032c6.884-0.083,12.969-2.014,19.573-3.499
		c10.661-2.396,21.761-3.938,32.308-7.439c23.059-7.657,46.692-20.157,66.545-34c7.008-4.888,13.604-9.103,21.351-13.02
		c4.026-2.037,16.987-9.873,20.19-7.169c8.863,7.479-11.875,16.167-16.635,17.369c-16.591,4.192-29.289,12.55-42.736,22.397
		c-15.237,11.163-34.123,23.168-52.955,25.352c-8.52,0.988-16.66,3.983-25.252,4.821c-6.921,0.674-13.473,1.292-20.241,3.083
		c-13.208,3.496-27.46,4.933-40.163,9.464c-11.679,4.167-22.277,10.232-33.732,14.199c-9.402,3.256-17.782,6.516-27.155,9.631
		c-10.787,3.585-21.56,8.814-32.489,12.945c-10.089,3.814-20.46,9.314-30.99,11.576c-5.614,1.205-10.825,2.984-16.465,4.2
		c-0.851-2.816-2.104-6.54-0.876-9.501c3.452,0.75,3.47-1.91,5.608-3.563"/>
	<path d="M378.941,439.935c3.282,2.109,3.99,6.313,6.677,9.088c2.081,2.148,7.151,5.074,9.624,6.795
		c5.353,3.721,11.697,4.537,18.584,5.668c18.257,3.002,38.033,7,56.341,11.318c8.389,1.977,18.491,3.555,24.985,9.049
		c7.451,6.299,6.865,17.529,9.535,26.35c-8.951-5.379-16.012-8.697-27.171-8.697c-6.777,0-12.477,0.695-18.294-2.262
		c-4.252-2.158-7.563-5.559-12.359-7.191c-9.661-3.289-22.26-0.789-33.058-0.816c-13.339-0.035-23.282,1.715-32.691-7.611
		c-0.59-9.119-1.317-33.029-14.363-28.865c-6.854,2.188-12.328,10.064-18.659,13.865c-3.301,1.98-6.87,3.43-10.045,5.799
		c-1.592,1.188-6.625,7.736-8.592,7.826c-4.741,0.217-4.084-11.65-3.922-15.631c0.33-8.104,0.603-15.379,7.396-19.926
		c12.505-8.369,27.526-10.508,37.267-22.541c1.899-2.352,1.568-4.16,4.519-4.724c0.375,3.836,1.78,6.888,2.174,10.866
		c0.414,4.189-1.156,8.939,1.369,12.326"/>
	<path d="M417.285,643.294c11.404,8.414,33.716-2.326,46.56-3.576c13.912-1.354,30.13,4.527,43.691,9.016
		c9.958,3.295,25.647,1.123,35.153-2.701c6.351-2.557,7.99-6.861,14.357-4.502c4.088,1.514,13.373,6.805,12.924,12.035
		c-0.527,6.096-13.018,9.283-18.299,9.734c-10.877,0.926-22.238-0.754-33.017-2.236c-14.662-2.021-29.119,1.592-43.754,2.121
		c-21.124,0.764-42.331-8.553-59.672-19.207"/>
	<path d="M304.992,270.127c7.988,5.054,20.218,6.499,29.864,6.847c6.093,0.221,9.677-1.838,13.442,1.903
		c2.929,2.911,3.659,7.421,7.395,10.182c1.211-6.219,9.185-4.983,12.976-8.815c3.506-3.545,5.743-10.688,8.215-14.926
		c2.03-3.479,2.11-14.328,5.653-16.431c4-2.374,6.094,3.885,7.824,7.815c8.441-4.266,18.806-9.795,24.045-17.9
		c0.703,5.302-3.761,19.347-7.169,23.638c-2.877,3.623-7.177,2.021-9.536,4.313c-2.047,1.988-2.053,8.557-2.862,11.041
		c-1.734,5.308-4.691,17.367-10.385,19.922c-5.415,2.428-18.69-0.473-24.679-0.064c1.822,1.698,1.466,3.07,1.944,5.237
		c-6.887,0.728-12.252,3.63-18.917,3.375c-5.942-0.228-12.107-3.505-17.788-6.183c-6.354-2.995-13.184-2.892-15.233-8.865
		c-1.395-4.069-6.791-16.557-3.42-19.72"/>
	<path d="M416.598,573.453c4.476,2.805,7.556,6.154,11.075,9.434c7.952,7.412,16.452,6.506,27.229,7.002
		c9.279,0.43,18.26,1.885,27.698,1.23c9.487-0.656,23.948-6.213,31.057,0.102c5.998,5.328,7.227,9.652,1.71,15.234
		c-7.021,7.107-8.347,4.947-16.923,5.189c-4.405,0.127-7.859,2.648-12.106,3.496c-4.97,0.99-10.208,0.305-15.479,0.748
		c-10.959,0.922-25.08,5.146-35.597-0.084c-1.624-0.807-4.251-5.201-5.073-6.5c-4.795-0.158-7.889-4.563-12.727-5.186
		c-0.254-4.537-2.997-12.658-8.104-12.777c-5.138-0.113-15.938,9.938-20.166,13.074c-5.036,3.738-9.844,10.889-15.729,13.025
		c-6.177,2.244-11.455-1.729-16.433-5.129c-4.498-3.076-10.543-6.617-10.271-12.809c0.266-6.09,9.97-8.963,15.748-11.674
		c14.142-6.631,30.794-13.258,43.121-23.436c3.949-3.262,8.172-7.406,10.337-11.943c-0.159,6.555-0.091,12.561-1.559,18.844
		c0.146,0.797,0.648,1.061,1.506,0.787"/>
	<path d="M32.65,226.88c7.703-2.363,14.849-6.146,22.266-9.383c7.554-3.297,16.327-4.393,24.306-7.713
		c8.727-3.631,16.426-9.023,25.292-12.271c7.847-2.875,15.686-5.655,23.206-8.046c15.627-4.97,29.974-12.855,45.631-16.893
		c8.108-2.09,15.851-2.518,24.541-2.903c8.577-0.381,15.05-5.617,23.261-5.617c9.752,0,18.666,0.147,27.615-3.623
		c9.052-3.811,18.109-8.601,27.087-12.817c9.491-4.455,19.77-6.558,28.318-12.778c4.664-3.395,8.836-7.085,13.571-10.382
		c4.759-3.309,8.779-3.873,14.073-5.898c4.515-1.727,7.805-4.749,11.729-7.11c4.867-2.932,12.68-9.353,17.904-10.184
		c0.914,3.793,3.286,8.443,2.811,12.379c-5.47,0.276-9.846-0.05-14.575,2.134c-4.396,2.027-7.708,5.502-11.974,8.187
		c-7.551,4.749-16.354,8.755-24.486,13.317c-9.42,5.284-17.94,12.017-27.993,16.373c-9.163,3.971-16.365,10.512-26.104,13.635
		c-8.674,2.781-13.453,6.133-22.185,7.467c-8.471,1.293-22.979,6.017-31.572,6.874c-20.556,2.047-47.783,2.297-61.43,8.655
		c-12.9,6.008-24.561,10.371-38.231,13.346c-10.194,2.217-19.196,7.999-28.335,12.447c-10.562,5.143-21.134,10.772-32.475,12.967
		c-8.298,1.604-16.766,3.848-19.565-5.605"/>
	<path d="M31.05,229.782c-1.518-3.219,0.195-8.049,0.431-11.629c0.294-4.499,0.563-8.597,1.194-12.889
		c1.276-8.666,1.845-16.935,3.443-25.398c1.763-9.321,1.306-18.043,1.816-27.542c0.527-9.842,3.646-17.978,6.431-27.127
		c2.03-6.671,6.428-11.594,8.485-18.021c-8.052,2.701-16.271,13.118-17.832,21.096c-1.636,8.35-6.832,17.735-8.271,26.025
		c-3.219,18.546-1.595,36.18-4.4,54.901c-0.953,6.353-2.645,13.589-1.624,20.154c1.697,10.928,3.466,10.439,6.024,8.859
		l19.118-7.724L31.05,229.782z"/>
</g>
<g id="Layer_3">
	<path d="M674.708,625.263c-10.013,1.201-19.619,5.408-29.58,7.48c-25.592,5.328-51.424,9.867-77.406,3.303
		c-13.961-3.525-15.262-8.801-6.734-19.971c7.79-10.203,5.622-16.711-7.012-19.414c-5.669-1.215-12.34,0.434-17.294-1.902
		c-8.931-4.211-17.917-9.439-24.787-16.326c-2.716-2.727-0.063-11.053,0.537-16.787c1.555-14.77,9.187-28.404,0.771-44.627
		c-6.903-13.311-7.511-29.768-11.909-44.525c-4.435-14.881-10.123-29.383-15.222-44.066c-10.088-29.055-18.418-58.701-43.13-80.363
		c-8.168-7.155-18.309-16.964-14.055-30.211c6.984-21.759-2.889-40.271-8.893-59.747c-1.793-5.822-4.339-12.887-2.604-18.066
		c7.713-23.01,2.938-43.506-4.208-66.31c-10.103-32.25-27.828-57.875-53.218-77.522c-40.339-31.218-79.938-64.152-130.843-78.47
		c-34.322-9.66-68.376-19.759-104.534-17.387c-5.553,0.367-11.716,2.082-16.272,5.145C88.478,18.817,85.052,32.93,93.634,63.024
		c1.205-5.979,1.125-11.784,3.535-16.244c5.28-9.764-6.354-25.98,9.942-30.391c11.506-3.11,24.128-2.102,36.256-2.902
		c0.959-0.063,1.962,0.055,2.905,0.271c23.661,5.313,47.38,10.389,70.962,16.035c52.196,12.494,92.044,46.292,133.034,77.961
		c6.988,5.398,8.369,9.757-2.882,13.731c-9.397,3.314-17.26,10.972-25.804,16.709c28.252-10.235,53.91-4.546,68.598,15.246
		c1.447,1.953,4.105,4.232,3.851,6.026c-2.62,18.33,12.943,28.748,18.659,43.422c6.852,17.588-2.998,31.917-6.938,47.426
		c-0.865,3.408-3.479,6.371-6.229,11.19c-5.746-8.341-10.521-15.269-13.948-20.245c4.48-9.741,8.102-17.61,11.72-25.479
		c-19.771,4.502-26.276,26.28-16.851,42.756c3.11,5.435,7.387,10.513,9.078,16.346c1.16,4.006,0.233,10.523-2.463,13.176
		c-2.382,2.348-8.891,2.162-12.899,0.91c-19.501-6.086-28.232-23.504-36.015-39.633c-6.96-14.43-16.066-25.309-29.714-32.191
		c-15.964-8.048-32.649-14.653-48.908-22.131c-3.921-1.804-7.402-4.571-9.114-5.651c23.286-16.969,45.654-33.269,68.019-49.572
		c-3.501,1.595-7.431,2.616-10.442,4.869c-33.398,24.959-70.813,37.56-112.545,38.097c-8.153,0.104-16.771,1.567-24.318,4.56
		c-38.538,15.284-76.755,31.38-115.17,46.97C41.503,240.151,28.234,250.7,9.203,246.89c1.996-14.748,9.204-41.241,11.506-56.263
		c0.271,0.009,0.543,0.021,0.815,0.031c1.598-13.333,4.03-26.632,4.58-40.007c0.316-7.688,0.885-12.124,2.887-14.087
		c3.938-7.573,12.406-12.335,18.464-18.407c9.73-9.752,18.617-20.303,27.466-30.845c3.644-4.339,7.574-9.246,12.186-13.006
		c-0.17,0-0.338,0.002-0.509,0.002c-0.14,0.204-0.518,0.681-0.961,1.088c-18.8,17.274-37.973,34.166-56.211,52.016
		c-5.485,5.363-10.958,13.035-11.919,20.246c-1.87,14.051-0.547,28.525-0.547,42.822c0.149,0.006,0.297,0.011,0.446,0.018
		c-4.279,19.778-13.559,51.228-17.489,70.19c1.356,1.339,2.714,2.674,4.07,4.012c18.107-7.179,36.4-13.924,54.272-21.643
		c24.405-10.545,48.229-22.488,72.891-32.364c6.606-2.647,16.234-2.098,22.964,0.665c26.729,10.981,52.669,23.855,79.271,35.158
		c17.857,7.592,36.658,13,54.393,20.84c7.719,3.41,16.52,9.77,3.196,18.813c-2.599,1.76-4.938,6.846-4.363,9.814
		c2.281,11.779,5.935,23.277,8.768,34.957c4.596,18.926,28.074,28.628,25.093,51.312c-0.021,0.145,2.138,1.004,3.518,1.334
		c1.569,13.332,3.586,26.295,5.187,39.596c2.508-0.516,5.017-1.029,7.526-1.544c-4.18-12.709-8.358-25.413-12.54-38.12
		c-0.424-5.958-0.849-11.916-1.418-19.926c11.418,3.07,20.535,4.805,29.021,8.144c3.718,1.466,7.584,5.728,8.896,9.563
		c5.161,15.092,10.234,30.337,13.393,45.918c1.158,5.705-1.117,14.865-5.271,18.361c-11.379,9.578-24.587,16.984-37.946,25.832
		c-1.569-3.926-2.832-7.09-4.526-11.322c-13.282,29.955-14.979,56.734,13.669,80.711c1.066-5.52,2.464-9.832,2.634-14.197
		c0.417-10.713,0.145-21.447,0.38-32.166c0.477-21.768,9.242-31.313,32.687-34.91c0.331,6.836,1.946,13.818,0.715,20.262
		c-2.627,13.729,4,20.639,15.452,25.23c2.688,1.082,5.106,2.811,7.746,4.039c10.674,4.979,16.678,12.26,15.415,25.072
		c-1.336,13.555-0.519,27.338-2.109,40.848c-0.565,4.803-4.642,10.01-8.527,13.438c-8.754,7.73-18.051,14.992-27.845,21.344
		c-3.684,2.391-11,4.004-13.769,1.992c-5.951-4.326-11.869-10.527-14.453-17.244c-4.544-11.805-6.578-24.58-10.012-38.342
		c-0.954,4.629-2.233,8.564-2.519,12.574c-2.088,29.318,19.974,64.936,47.617,75.117c18.148,6.688,37.165,11.002,55.389,17.498
		c14.332,5.111,28.654,10.846,41.918,18.211c32.665,18.145,64.72,37.391,100.073,57.977c7.8-33.588-13.948-49.373-31.267-70.781
		c33.825-4.672,64.395-8.893,93.883-12.965c-2.128-0.83-5.759-2.25-10.275-4.016c7.729-3.139,13.799-7.166,20.203-7.787
		c6.755-0.65,14.323,4.012,20.607,2.5c5.373-1.297,9.434-8.041,14.075-12.377C683.549,629.666,678.804,624.773,674.708,625.263z
		 M338.826,519.119c-15.745-15.803-15.712-21.293,1.73-34.402C339.914,497.472,339.426,507.185,338.826,519.119z M513.476,599.451
		c0.434,0.428-4.34,9.016-7.488,9.623c-8.977,1.732-18.369,1.305-27.602,1.729c-6.813-0.016-13.621,0.014-20.434-0.02
		c-24.945-0.123-39.143-10.699-40.781-39.059c-1.361-23.51,2.737-47.424,5.696-70.994c0.408-3.24,9.263-8.777,12.416-7.748
		c17.74,5.771,36.01,11.441,51.817,20.939c6.892,4.145,10.737,17.045,11.798,26.439
		C501.208,560.773,496.387,582.539,513.476,599.451z M450.29,378.587c1.127,1.436-3.041,7.02-4.757,10.686
		c-7.902-7.227-16.272-14.012-23.553-21.815c-5.097-5.458-10.858-12.026-0.731-22.23
		C431.638,356.894,441.471,367.343,450.29,378.587z M272.437,246.888c-35.208-12.862-72.284-21.195-107.967-45.382
		c43.071-18.268,76.924,0.128,112.87,12.986c41.12,14.71,55.508,50.489,77.313,87.21c-13.276-2.307-23.971-4.168-34.669-6.023
		c0.132-1.885,0.261-3.768,0.395-5.652c5.194-0.494,10.391-0.986,17.309-1.65C319.559,267.099,296.724,255.757,272.437,246.888z
		 M300.771,319.837c-2.032-5.99-2.966-12.354-4.039-16.961c17.824,3.85,33.867,9.205,50.177,10.202
		c12.089,0.735,25.71-1.884,36.418-7.364c8.158-4.178,12.788-15.215,19.044-23.155c2.755-3.503,5.646-6.894,8.478-10.333
		c2.215,3.414,5.328,6.555,6.45,10.299c2.219,7.4,3.669,15.083,4.847,22.737c4.336,28.261-2.318,40.606-28.468,51.005
		C368.42,366.312,312.512,354.466,300.771,319.837z M397.59,477.871c-14.791,1.188-17.729-5.197-18.348-16.961
		c-0.734-14.059-0.706-28.271-3.003-42.091c-1.869-11.239-6.778-21.965-10.145-32.979c-1.175-3.848-1.769-7.873-2.258-10.105
		c13.411-5.117,24.8-10.301,36.715-13.523c3.712-1.001,10.8,2.07,12.947,5.438c4.595,7.214,5.476,17.042,10.698,23.532
		c4.875,6.059,12.957,10.877,20.514,12.844c3.449,0.898,9.028-6.357,15.816-11.592c17.457,32.691,28.853,69.303,40.922,108.613
		c-22.075-7.596-38.912-14.938-56.506-18.98C429.588,478.535,413.208,476.617,397.59,477.871z M398.076,621.71
		c-4.124-4.33-13.744-10.818-3.445-19.074c9.106-7.305,16.048-6.313,24.874,2.533c12.217,12.246,26.516,22.553,40.601,32.75
		c8.5,6.15,18.287,10.521,27.497,15.689C452.917,655.859,422.126,646.962,398.076,621.71z M565.693,711.953
		c-19.7-9.615-38.408-18.742-57.116-27.873c0.727-1.408,1.447-2.814,2.172-4.223C535.932,679.041,568.699,690.455,565.693,711.953z
		 M465.323,623.533c43.514-22.879,72.866,3.252,100.848,30.688C547.197,662.634,482.728,643.359,465.323,623.533z"/>
</g>
</svg>
