<?xml version="1.0" encoding="utf-8"?>
<!-- Generator: Adobe Illustrator 16.0.0, SVG Export Plug-In . SVG Version: 6.00 Build 0)  -->
<!DOCTYPE svg PUBLIC "-//W3C//DTD SVG 1.1//EN" "http://www.w3.org/Graphics/SVG/1.1/DTD/svg11.dtd">
<svg version="1.1" id="Layer_1" xmlns="http://www.w3.org/2000/svg" xmlns:xlink="http://www.w3.org/1999/xlink" x="0px" y="0px"
	 width="688.082px" height="737.535px" viewBox="0 0 688.082 737.535" enable-background="new 0 0 688.082 737.535"
	 xml:space="preserve">
<g id="Layer_4">
	<polygon fill="#8E0001" points="131.729,6.856 209.437,19.291 289.219,53.482 328.593,80.421 376.255,119.794 403.194,166.42 
		412.21,187.206 417.51,209.66 414.081,240.844 410.649,256.75 417.51,272.653 423.436,287.311 425.307,303.215 425.307,312.259 
		425.307,335.648 439.34,353.112 465.536,387.914 499.527,480.972 510.755,532.117 504.829,576.71 528.529,596.669 551.606,628.789 
		567.512,644.072 632.063,644.072 681.649,632.531 672.563,644.712 643.385,653.791 563.145,661.535 539.444,667.771 
		552.23,681.494 574.372,707.062 570.631,726.708 470.524,667.767 409.403,646.562 348.591,605.708 338.291,556.16 340.551,538.054 
		328.009,514.025 323.019,488.453 326.308,460.083 329.173,423.175 324.161,383.511 316.469,354.668 293.081,309.761 296.2,292.297 
		308.674,269.533 264.704,249.885 152.436,204.043 131.729,206.538 11.478,257.059 5.553,248.95 20.522,184.397 23.329,140.114 
		39.857,122.025 86.596,74.306 93.633,63.022 92.249,38.137 96.615,19.739 114.39,6.856 	"/>
</g>
<g id="Layer_1_1_">
	<polygon fill="#E2C374" points="291.532,296.654 340.977,306.302 380.292,296.654 399.346,277.84 413.337,265.54 422.874,285.921 
		427.087,315.95 425.307,335.646 404.413,357.195 369.198,364.913 326.507,355.023 303.592,335.246 291.532,305.82 	"/>
	<path fill="#FFFF03" d="M22.611,249.48c0-9.791,1.321-19.153,1.312-28.961c-0.008-6.443,0.558-13.042,1.65-19.357
		c0.877-5.061,2.934-9.563,3.619-14.693c1.229-9.175,0.31-18.945,0.415-28.27c0.055-4.885,1.042-8.371,2.723-12.876
		c1.609-4.32,1.387-9.393,3.608-13.446c3.508-6.39,12.134-13.258,13.325-20.442c-4.109,2.699-7.746,6.909-11.324,10.265
		c-4.003,3.755-10.669,8.516-13.337,13.391c-3.921,7.163-4.586,19.512-5.5,27.844c-0.941,8.595,1.842,17.216,0.469,25.692
		c-1.593,9.818-5.014,19.572-6.896,29.685c-1.626,8.735-5.733,17.23-7.455,25.901c-1.182,5.936-2.691,10.047,4.646,10.077
		c5.205,0.021,7.68-3.052,12.307-4.81"/>
	<path fill="#FFFF03" d="M19.114,238.111c4.015-0.825,7.205-4.421,11.421-5.707c5.729-1.75,11.69-3.384,17.447-5.322
		c11.683-3.934,23.056-8.926,34.226-14.215c3.376-1.598,6.546-4.079,9.877-5.781c6.614-3.38,13.485-3.408,20.283-5.368
		c5.851-1.685,11.543-3.699,17.313-5.6c5.021-1.654,9.845-5.162,14.572-6.874c5.515-1.996,11.217-3.565,16.575-5.774
		c2.964-1.221,6.332-3.41,9.369-3.986c7.513-1.428,17.075,0.125,24.778,0.031c6.884-0.082,12.97-2.015,19.573-3.499
		c10.662-2.397,21.761-3.938,32.309-7.44c23.058-7.655,46.691-20.157,66.545-34.001c7.008-4.887,13.604-9.102,21.351-13.019
		c4.026-2.036,16.986-9.872,20.19-7.169c8.863,7.479-11.875,16.167-16.635,17.37c-16.591,4.192-29.29,12.55-42.736,22.398
		c-15.238,11.162-34.124,23.168-52.955,25.351c-8.521,0.988-16.661,3.983-25.253,4.82c-6.921,0.675-13.472,1.292-20.241,3.083
		c-13.207,3.496-27.459,4.932-40.162,9.464c-11.68,4.167-22.277,10.232-33.732,14.199c-9.402,3.255-17.783,6.516-27.156,9.632
		c-10.787,3.584-21.559,8.814-32.488,12.945c-10.089,3.813-20.46,9.313-30.99,11.575c-5.614,1.206-10.825,2.985-16.466,4.2
		c-0.851-2.815-2.104-6.54-0.875-9.5c3.452,0.75,3.468-1.911,5.608-3.563"/>
	<path fill="#FFFF03" d="M378.94,439.933c3.283,2.111,3.991,6.314,6.678,9.088c2.081,2.15,7.15,5.074,9.623,6.795
		c5.353,3.721,11.697,4.537,18.584,5.668c18.256,3.004,38.034,7,56.342,11.318c8.388,1.977,18.49,3.555,24.986,9.049
		c7.449,6.299,6.863,17.529,9.533,26.35c-8.951-5.377-16.011-8.697-27.17-8.697c-6.777,0-12.477,0.695-18.295-2.26
		c-4.252-2.16-7.562-5.561-12.359-7.191c-9.66-3.289-22.26-0.791-33.058-0.816c-13.337-0.035-23.281,1.715-32.691-7.611
		c-0.59-9.121-1.316-33.029-14.362-28.867c-6.854,2.189-12.327,10.066-18.659,13.865c-3.302,1.982-6.871,3.432-10.045,5.799
		c-1.593,1.188-6.625,7.738-8.592,7.828c-4.743,0.215-4.085-11.65-3.923-15.631c0.331-8.104,0.603-15.377,7.396-19.926
		c12.504-8.369,27.526-10.51,37.266-22.541c1.899-2.351,1.568-4.16,4.518-4.725c0.375,3.835,1.781,6.889,2.175,10.867
		c0.414,4.188-1.156,8.938,1.369,12.326"/>
	<path fill="#FFFF03" d="M417.284,643.292c11.404,8.414,33.715-2.324,46.562-3.574c13.91-1.355,30.129,4.525,43.69,9.014
		c9.957,3.295,25.647,1.125,35.152-2.699c6.352-2.557,7.991-6.863,14.357-4.504c4.088,1.516,13.374,6.805,12.924,12.035
		c-0.527,6.098-13.018,9.283-18.299,9.734c-10.877,0.928-22.237-0.752-33.015-2.236c-14.664-2.02-29.121,1.592-43.754,2.121
		c-21.125,0.764-42.333-8.551-59.674-19.207"/>
	<path fill="#FFFF03" d="M304.991,270.125c7.988,5.054,20.217,6.5,29.865,6.847c6.093,0.22,9.676-1.839,13.441,1.904
		c2.93,2.912,3.659,7.42,7.395,10.181c1.211-6.218,9.184-4.982,12.975-8.815c3.507-3.545,5.744-10.688,8.217-14.926
		c2.029-3.479,2.109-14.328,5.652-16.43c4-2.374,6.095,3.884,7.824,7.815c8.442-4.266,18.805-9.795,24.045-17.9
		c0.703,5.302-3.76,19.348-7.168,23.638c-2.877,3.625-7.178,2.022-9.537,4.313c-2.047,1.989-2.052,8.558-2.862,11.042
		c-1.734,5.306-4.691,17.368-10.385,19.921c-5.415,2.429-18.689-0.473-24.679-0.065c1.822,1.698,1.467,3.071,1.945,5.239
		c-6.887,0.727-12.253,3.629-18.917,3.374c-5.943-0.228-12.106-3.504-17.788-6.182c-6.354-2.995-13.184-2.891-15.234-8.865
		c-1.395-4.069-6.79-16.559-3.42-19.721"/>
	<path fill="#FFFF03" d="M416.598,573.451c4.475,2.807,7.555,6.154,11.074,9.436c7.953,7.41,16.453,6.504,27.229,7.002
		c9.28,0.428,18.26,1.885,27.699,1.23c9.486-0.658,23.949-6.211,31.056,0.1c5.999,5.328,7.229,9.654,1.71,15.236
		c-7.021,7.105-8.346,4.945-16.923,5.188c-4.405,0.125-7.86,2.65-12.105,3.496c-4.97,0.99-10.209,0.307-15.48,0.748
		c-10.958,0.922-25.08,5.148-35.596-0.082c-1.625-0.807-4.252-5.203-5.073-6.502c-4.796-0.16-7.89-4.563-12.727-5.186
		c-0.254-4.537-2.997-12.658-8.104-12.775c-5.138-0.117-15.938,9.936-20.166,13.074c-5.036,3.736-9.844,10.889-15.729,13.023
		c-6.178,2.244-11.456-1.727-16.434-5.129c-4.498-3.076-10.543-6.617-10.271-12.809c0.266-6.088,9.971-8.963,15.749-11.672
		c14.142-6.633,30.793-13.258,43.12-23.438c3.948-3.262,8.172-7.406,10.338-11.943c-0.16,6.557-0.091,12.563-1.56,18.846
		c0.147,0.797,0.648,1.059,1.508,0.787"/>
	<path fill="#FFFF03" d="M32.65,226.878c7.703-2.363,14.848-6.144,22.265-9.381c7.553-3.297,16.327-4.393,24.307-7.713
		c8.727-3.632,16.425-9.024,25.291-12.272c7.847-2.875,15.687-5.656,23.205-8.046c15.628-4.97,29.976-12.855,45.634-16.892
		c8.107-2.091,15.85-2.518,24.539-2.904c8.578-0.381,15.05-5.617,23.262-5.617c9.752,0,18.666,0.147,27.615-3.623
		c9.051-3.811,18.108-8.603,27.087-12.817c9.491-4.456,19.77-6.559,28.317-12.779c4.664-3.395,8.838-7.086,13.573-10.382
		c4.758-3.31,8.777-3.873,14.072-5.898c4.515-1.727,7.805-4.747,11.729-7.109c4.868-2.932,12.68-9.353,17.905-10.184
		c0.914,3.793,3.285,8.443,2.811,12.379c-5.471,0.276-9.846-0.05-14.576,2.134c-4.395,2.028-7.706,5.503-11.973,8.187
		c-7.551,4.749-16.355,8.756-24.487,13.316c-9.42,5.285-17.939,12.018-27.993,16.374c-9.162,3.971-16.364,10.512-26.104,13.634
		c-8.675,2.781-13.454,6.134-22.186,7.466c-8.47,1.294-22.979,6.019-31.571,6.875c-20.555,2.047-47.783,2.297-61.432,8.654
		c-12.898,6.008-24.559,10.372-38.23,13.346c-10.194,2.218-19.196,7.999-28.334,12.448c-10.562,5.142-21.134,10.771-32.476,12.965
		c-8.298,1.607-16.764,3.848-19.565-5.604"/>
	<path fill="#FFFF03" d="M31.049,229.781c-1.517-3.219,0.195-8.049,0.431-11.629c0.295-4.498,0.563-8.597,1.194-12.89
		c1.276-8.664,1.845-16.934,3.443-25.397c1.763-9.32,1.307-18.042,1.816-27.541c0.528-9.843,3.646-17.978,6.432-27.128
		c2.029-6.671,6.428-11.593,8.485-18.021c-8.052,2.7-16.271,13.117-17.833,21.096c-1.636,8.348-6.832,17.735-8.271,26.024
		c-3.219,18.546-1.594,36.18-4.399,54.902c-0.953,6.353-2.646,13.588-1.625,20.153c1.697,10.929,3.467,10.439,6.024,8.859
		l19.118-7.724L31.049,229.781z"/>
</g>
<g id="Layer_3">
	<path d="M674.708,625.261c-10.014,1.201-19.62,5.408-29.58,7.482c-25.592,5.326-51.425,9.867-77.407,3.303
		c-13.961-3.525-15.263-8.801-6.734-19.973c7.791-10.203,5.623-16.709-7.011-19.412c-5.669-1.215-12.341,0.432-17.294-1.904
		c-8.933-4.211-17.917-9.439-24.788-16.326c-2.716-2.727-0.063-11.051,0.538-16.787c1.555-14.768,9.188-28.404,0.771-44.627
		c-6.903-13.311-7.512-29.766-11.911-44.525c-4.434-14.881-10.12-29.383-15.221-44.066c-10.088-29.055-18.417-58.701-43.13-80.363
		c-8.167-7.155-18.308-16.963-14.055-30.211c6.984-21.758-2.889-40.271-8.893-59.747c-1.793-5.822-4.338-12.888-2.604-18.066
		c7.714-23.01,2.939-43.507-4.207-66.312c-10.103-32.249-27.828-57.874-53.218-77.521c-40.338-31.217-79.938-64.152-130.844-78.469
		C194.801,8.077,160.747-2.022,124.588,0.35c-5.553,0.366-11.715,2.081-16.271,5.145C88.478,18.817,85.052,32.929,93.633,63.022
		c1.205-5.979,1.125-11.784,3.535-16.244c5.28-9.763-6.354-25.98,9.943-30.391c11.506-3.109,24.128-2.104,36.255-2.902
		c0.96-0.063,1.962,0.055,2.905,0.269c23.662,5.314,47.38,10.391,70.963,16.036c52.195,12.494,92.044,46.292,133.033,77.961
		c6.988,5.398,8.369,9.757-2.881,13.731c-9.397,3.315-17.261,10.972-25.806,16.709c28.254-10.235,53.911-4.546,68.599,15.246
		c1.448,1.952,4.106,4.232,3.852,6.024c-2.62,18.329,12.943,28.748,18.659,43.423c6.852,17.588-2.999,31.917-6.938,47.425
		c-0.866,3.409-3.479,6.371-6.229,11.191c-5.746-8.341-10.521-15.27-13.948-20.246c4.479-9.741,8.101-17.61,11.719-25.478
		c-19.771,4.502-26.275,26.28-16.851,42.756c3.111,5.434,7.388,10.512,9.078,16.346c1.16,4.006,0.234,10.524-2.463,13.175
		c-2.382,2.348-8.889,2.163-12.898,0.911c-19.5-6.086-28.233-23.504-36.016-39.633c-6.959-14.429-16.065-25.308-29.713-32.191
		c-15.966-8.048-32.649-14.653-48.908-22.131c-3.921-1.803-7.402-4.57-9.114-5.651c23.285-16.968,45.653-33.269,68.018-49.572
		c-3.5,1.595-7.43,2.616-10.441,4.869c-33.399,24.96-70.813,37.56-112.545,38.097c-8.153,0.104-16.771,1.567-24.318,4.56
		c-38.539,15.284-76.755,31.38-115.17,46.971c-14.45,5.864-27.718,16.413-46.749,12.603c1.995-14.748,9.203-41.242,11.505-56.263
		c0.271,0.01,0.543,0.021,0.816,0.031c1.597-13.333,4.028-26.632,4.58-40.007c0.316-7.688,0.884-12.123,2.887-14.087
		c3.938-7.574,12.406-12.336,18.463-18.407c9.73-9.753,18.618-20.303,27.467-30.845c3.644-4.339,7.574-9.246,12.185-13.005
		c-0.17,0-0.338,0.002-0.508,0.002c-0.141,0.203-0.519,0.681-0.962,1.087c-18.799,17.275-37.973,34.166-56.211,52.016
		c-5.485,5.362-10.958,13.035-11.918,20.246c-1.871,14.051-0.547,28.524-0.547,42.821c0.148,0.006,0.297,0.012,0.446,0.018
		c-4.28,19.779-13.561,51.228-17.489,70.189c1.355,1.34,2.713,2.675,4.07,4.013c18.106-7.178,36.399-13.923,54.271-21.642
		c24.406-10.546,48.23-22.489,72.892-32.365c6.608-2.647,16.235-2.098,22.965,0.666c26.727,10.981,52.668,23.856,79.271,35.158
		c17.859,7.591,36.658,12.999,54.394,20.839c7.719,3.41,16.519,9.771,3.195,18.812c-2.597,1.76-4.938,6.847-4.363,9.814
		c2.283,11.78,5.936,23.279,8.77,34.958c4.595,18.925,28.074,28.629,25.091,51.313c-0.021,0.144,2.139,1.004,3.518,1.332
		c1.57,13.334,3.586,26.297,5.187,39.596c2.509-0.514,5.018-1.029,7.526-1.543c-4.18-12.709-8.357-25.416-12.539-38.122
		c-0.424-5.957-0.849-11.916-1.418-19.924c11.418,3.07,20.535,4.804,29.021,8.144c3.719,1.467,7.585,5.729,8.897,9.563
		c5.16,15.09,10.234,30.336,13.393,45.918c1.159,5.705-1.118,14.867-5.27,18.363c-11.381,9.578-24.588,16.982-37.948,25.832
		c-1.568-3.93-2.832-7.09-4.526-11.324c-13.282,29.957-14.979,56.736,13.67,80.711c1.067-5.52,2.464-9.83,2.634-14.197
		c0.416-10.711,0.146-21.445,0.379-32.166c0.477-21.766,9.242-31.311,32.687-34.908c0.332,6.834,1.945,13.818,0.716,20.262
		c-2.628,13.729,3.999,20.639,15.451,25.23c2.688,1.08,5.107,2.809,7.747,4.037c10.673,4.979,16.678,12.26,15.414,25.072
		c-1.336,13.557-0.518,27.34-2.108,40.85c-0.567,4.801-4.643,10.01-8.527,13.438c-8.755,7.73-18.052,14.99-27.846,21.342
		c-3.684,2.391-10.999,4.006-13.768,1.992c-5.951-4.324-11.869-10.525-14.454-17.244c-4.544-11.805-6.577-24.58-10.012-38.342
		c-0.953,4.629-2.232,8.564-2.519,12.576c-2.088,29.316,19.974,64.936,47.617,75.117c18.148,6.688,37.166,11,55.391,17.498
		c14.33,5.109,28.652,10.844,41.917,18.209c32.665,18.146,64.719,37.391,100.073,57.977c7.799-33.588-13.949-49.371-31.268-70.779
		c33.825-4.674,64.395-8.895,93.883-12.967c-2.127-0.83-5.758-2.25-10.275-4.014c7.729-3.139,13.799-7.166,20.204-7.787
		c6.755-0.65,14.323,4.01,20.606,2.498c5.372-1.295,9.435-8.041,14.075-12.377C683.548,629.666,678.803,624.771,674.708,625.261z
		 M338.827,519.117c-15.746-15.801-15.713-21.291,1.729-34.4C339.913,497.472,339.425,507.185,338.827,519.117z M513.475,599.449
		c0.434,0.43-4.34,9.016-7.488,9.623c-8.977,1.73-18.369,1.307-27.601,1.729c-6.813-0.014-13.621,0.016-20.434-0.02
		c-24.946-0.123-39.143-10.699-40.782-39.059c-1.36-23.51,2.737-47.424,5.698-70.994c0.406-3.24,9.261-8.779,12.415-7.75
		c17.739,5.773,36.01,11.443,51.817,20.941c6.891,4.145,10.735,17.047,11.798,26.439
		C501.208,560.773,496.387,582.539,513.475,599.449z M450.289,378.585c1.126,1.436-3.04,7.021-4.757,10.687
		c-7.902-7.226-16.271-14.013-23.553-21.815c-5.096-5.459-10.857-12.027-0.73-22.231
		C431.638,356.893,441.47,367.342,450.289,378.585z M272.436,246.886c-35.208-12.862-72.283-21.196-107.967-45.382
		c43.071-18.267,76.924,0.127,112.871,12.986c41.119,14.711,55.507,50.489,77.313,87.21c-13.278-2.307-23.972-4.167-34.669-6.024
		c0.131-1.884,0.26-3.765,0.394-5.651c5.194-0.495,10.393-0.986,17.309-1.65C319.559,267.098,296.725,255.755,272.436,246.886z
		 M300.77,319.835c-2.031-5.99-2.965-12.352-4.038-16.96c17.823,3.849,33.867,9.206,50.177,10.202
		c12.088,0.736,25.71-1.883,36.417-7.363c8.158-4.179,12.788-15.216,19.044-23.156c2.754-3.501,5.647-6.894,8.479-10.332
		c2.215,3.412,5.328,6.554,6.449,10.298c2.22,7.399,3.669,15.083,4.847,22.738c4.337,28.26-2.318,40.605-28.468,51.004
		C368.419,366.31,312.512,354.463,300.77,319.835z M397.59,477.871c-14.792,1.188-17.73-5.199-18.348-16.963
		c-0.735-14.057-0.706-28.271-3.004-42.09c-1.869-11.24-6.778-21.964-10.144-32.98c-1.176-3.848-1.77-7.871-2.259-10.104
		c13.412-5.118,24.801-10.3,36.715-13.523c3.712-1.001,10.801,2.071,12.947,5.439c4.596,7.212,5.477,17.041,10.698,23.53
		c4.876,6.059,12.957,10.877,20.514,12.845c3.449,0.899,9.028-6.356,15.816-11.592c17.457,32.69,28.854,69.302,40.922,108.612
		c-22.076-7.596-38.912-14.936-56.505-18.979C429.587,478.535,413.208,476.617,397.59,477.871z M398.077,621.708
		c-4.125-4.328-13.746-10.818-3.446-19.074c9.106-7.305,16.047-6.311,24.874,2.535c12.217,12.244,26.515,22.553,40.601,32.748
		c8.499,6.15,18.287,10.521,27.496,15.691C452.915,655.859,422.126,646.962,398.077,621.708z M565.692,711.951
		c-19.7-9.613-38.408-18.742-57.116-27.871c0.727-1.408,1.448-2.814,2.173-4.223C535.931,679.039,568.698,690.455,565.692,711.951z
		 M465.323,623.533c43.512-22.879,72.867,3.25,100.848,30.688C547.196,662.632,482.728,643.359,465.323,623.533z"/>
</g>
</svg>
