<?xml version="1.0" encoding="utf-8"?>
<!-- Generator: Adobe Illustrator 16.0.0, SVG Export Plug-In . SVG Version: 6.00 Build 0)  -->
<!DOCTYPE svg PUBLIC "-//W3C//DTD SVG 1.1//EN" "http://www.w3.org/Graphics/SVG/1.1/DTD/svg11.dtd">
<svg version="1.1" id="Layer_1" xmlns="http://www.w3.org/2000/svg" xmlns:xlink="http://www.w3.org/1999/xlink" x="0px" y="0px"
	 width="688.082px" height="737.535px" viewBox="0 0 688.082 737.535" enable-background="new 0 0 688.082 737.535"
	 xml:space="preserve">
<g id="Layer_4">
	<polygon fill="#023BE0" points="131.875,6.862 209.584,19.296 289.366,53.487 328.74,80.427 376.402,119.8 403.34,166.425 
		412.355,187.211 417.656,209.665 414.228,240.85 410.797,256.755 417.656,272.658 423.583,287.316 425.453,303.221 
		425.453,312.264 425.453,335.653 439.486,353.117 465.683,387.919 499.674,480.976 510.902,532.121 504.976,576.714 
		528.676,596.673 551.754,628.794 567.658,644.076 632.211,644.076 681.797,632.537 672.708,644.718 643.533,653.794 
		563.292,661.539 539.59,667.777 552.376,681.498 574.517,707.066 570.777,726.712 470.672,667.773 409.551,646.566 
		348.736,605.712 338.437,556.164 340.697,538.058 328.156,514.031 323.167,488.458 326.455,460.087 329.32,423.181 
		324.308,383.517 316.617,354.674 293.228,309.767 296.345,292.303 308.82,269.538 264.85,249.891 152.582,204.049 131.875,206.543 
		11.625,257.064 5.7,248.956 20.669,184.402 23.476,140.119 40.003,122.03 86.743,74.311 93.78,63.028 92.396,38.143 96.761,19.744 
		114.537,6.862 	"/>
	<path fill="#FF0000" d="M54.033,108.757c-3.122,14.169-2.036,27.924-2.693,42.486c-0.415,9.207-2.308,18.486-3.91,27.642
		c-1.164,6.642-3.736,15.826-2.345,22.366c17.952,2.251,25.986-14.854,41.251-19.282c16.489-4.785,33.284-3.098,49.062-10.363
		c7.383-3.399,14.109-8.424,21.125-11.536c9.801-4.349,20.771-4.808,31.408-5.802c19.992-1.87,40.667-1.917,59.714-8.777
		c12.664-4.56,24.867-10.566,36.436-17.749c12.272-7.618,25.485-13.674,38.452-20.502c6.607-3.48,13.388-7.746,21.207-7.633
		c6.277,0.091,10.017,3.041,14.729,7.073c3.61,3.088,10.438,6.382,12.565,10.047c-7.371,2.321-14.498,1.879-21.239,5.513
		c-4.427,2.387-8.438,5.617-13.308,7.646c-5.957,2.48-11.504,3.58-17.104,7.097c-5.564,3.495-11.146,8.251-16.043,12.562
		c-4.968,4.373-10.728,7.086-16.631,9.372c-9.317,3.607-17.752,7.175-26.8,11.72c-14.767,7.418-29.672,18.695-46.538,19.395
		c-18.32,0.76-39.004-2.855-56.185,4.438c-14.043,5.962-26.368,14.993-40.574,20.725c-15.425,6.222-31.381,8.194-47.779,11.856
		c-13.126,2.931-21.418,14.066-34.281,17.176c-6.295,1.521-16.295,6.263-21.443,0.696c-6.04-6.528-1.354-12.496,1.557-18.443
		c4.735-9.676,3.88-22.917,5.449-33.207c3.304-21.662,1.76-47.552,12.958-67.291c1.53-2.697,4.643-7.587,7.493-9.428
		c3.473-2.245,8.306-2.496,11.854-4.567"/>
	<path fill="#FF0000" d="M299.646,263.885c2.16-0.896,4.295-1.45,6.689-1.742c3.877-0.474,6.649-1.496,9.961-2.48
		c4.69-1.395,10.633-1.58,14.842-3.783c2.84,3.484,4.598,7.552,7.932,10.954c2.187,2.231,6.238,6.359,9.945,4.576
		c2.572-1.237,5.102-6.444,6.768-8.818c2.771-3.954,6.104-7.961,8.767-11.89c4.229-6.241,13.748-10.367,20.401-14.386
		c4.982-3.01,10.502-5.113,16.22-6.271c2.573-0.521,10.481-2.148,12.877-0.687c0.049,0.029,0.916,0.101,0.996,0.109
		c0.25,4.814-1.531,8.18-2.644,12.689c-0.967,3.931-1.627,7.943-5.151,10.152c-6.74,4.226-14.007,8.319-19.794,14.349
		c-5.411,5.637-9.26,12.506-14.307,18.555c-3.029,3.631-8.164,12.226-13.838,11.089c-5.594-1.123-8.33-8.074-14.322-9.317
		c-6.545-1.359-13.055-2.234-19.598-3.566c-4.336-0.883-8.219-1.525-12.295-3.411c-3.188-1.476-7.263-2.188-9.117-5.398
		c-2.307-3.995-0.021-9.666-3.982-12.816"/>
	<path fill="#F3D802" d="M290.927,257.606c4.367-1.555,9.303-1.641,13.583-3.574c4.397-1.986,7.805-5.131,12.504-6.45
		c4.313-1.211,6.873-1.531,10.324,1.734c3.176,3.004,3.948,9.032,7.989,11.124c3.556,1.839,6.955-1.189,9.652-2.841
		c3.797-2.329,7.67-4.438,11.547-6.792c7.48-4.542,17.342-8.106,22.933-15.179c3.737-4.73,7.942-10.202,13.817-12.907
		c3.336-1.536,9.939-1.466,13.447-1.771c3.815-0.331,7.983-0.108,11.807,0.089c0.515,3.234-1.143,6.837-1.686,9.958
		c-0.974,5.591-2.736,5.287-7.412,6.654c-7.203,2.105-12.969,6.111-20.254,7.395c-4.398,0.774-1.689,8.786-4.576,11.776
		c-3.086,3.198-6.781,5.004-10.139,7.52c-6.216,4.656-13.748,5.468-18.314,11.328c-3.608,4.632-6.828,6.507-10.559,0.792
		c-1.244-1.905-1.394-4.276-2.933-6.024c-1.629-1.85-4.444-2.128-4.002-5.102c-1.854,0.294-3.807-0.273-4.549-2.093
		c-4.205-0.235-8.299-0.216-12.287,0.909c-4.258,1.2-7.653,4.164-11.705,5.509c-5.323,1.769-6.467-2.327-10.471-5.317
		c-3.529-2.636-6.493-5.73-10.812-7.083"/>
	<path fill="#FF0000" d="M330.734,416.528c-1.233,5.632-2.445,14.251-2.445,19.927c0,2.225-2.073,16.594-1.147,18.629
		c2.137,4.695,2.947-5.572,8.229-6.871c7.601-1.867,14.105-6.658,21.972-8.748c4.321-1.15,18.002-2.871,16.994-9.84
		c0,12.68,2.817,22.168,14.452,28.572c12.933,7.119,23.824,12.707,38.517,13.523c13.563,0.754,23.674,3.629,36.008,8.643
		c10.984,4.463,22.113,7.438,33.563,8.336c0.398-7.725,0.892-15.566-2.045-22.316c-4.608-10.604-12.17-8.754-23.602-10.834
		c-19.057-3.465-41.094-1.604-59.291-8.43c-7.117-2.672-15.596-6.898-22.537-10.857c-7.645-4.359-8.961-9.959-13.035-16.938
		c-3.477-5.955-10.237-13.637-17.846-13.587c-9.727,0.062-18.131,10.196-28.652,11.478"/>
	<path fill="#FF0000" d="M428.845,559.224c6.791,3.174,14.16,2.162,21.283,3.475c8.002,1.475,15.329,3.367,23.545,3.713
		c8.133,0.344,17.823-1.773,24.897,1.957c5.688,2.996,11.64,10.162,12.771,16.691c1.52,8.756-13.826,10.816-21.537,12.012
		c-10.428,1.615-22.49,0.875-33.008,0.881c-11.687,0.008-17.541-4.391-27.293-9.877c-7.213-4.059-14.72-6.768-22.65-8.053
		c-11.705-1.896-21.975,6.014-32.029,10.271c-6.377,2.701-13.565,3.844-19.715,7.139c-10.688,5.73-9.817,7.008-13.783-7.217
		c-1.521-5.457-3.955-11.316-2.854-17.205c1.5-8.025,9.305-10.273,16.125-13.697c13.498-6.775,26.412-11.188,40.566-15.883
		c5.672-1.883,12.936-4.781,18.641-5.004c14.02-0.551,15.039,10.477,15.039,21.514"/>
	<path fill="#FF0000" d="M497.699,631.666c5.045-6.654,21.336-12.551,29.979-14.9c12.725-3.457,10.209,7.412,18.74,13.516
		c5.803,4.152,21.372,8.988,6.147,15.709c-7.391,3.26-16.854,4.225-24.705,6.674c-7.494,2.338-15.531,4.973-23.686,3.385
		c-7.722-1.506-11.479-9.453-19.578-12.084c-15.767-5.121-33.664,2.105-49.281,5.25c-9.838,1.98-24.119-1.576-28.522-12.553
		c-4.402-10.973,21.383-11.156,29.188-12.707c4.619-0.918,11.023-3.887,15.447-2.398c6.266,2.109,7.953,7.883,15.358,8.674
		c6.453,0.688,12.72,0.52,18.759,1.438c4.329,0.656,10.586,2.135,14.307-0.719"/>
</g>
<g id="Layer_1_1_">
	<polygon fill="#E2C374" points="291.679,296.659 341.126,306.308 380.439,296.659 399.494,277.846 413.484,265.545 
		423.021,285.926 427.232,315.955 425.453,335.651 404.558,357.2 369.345,364.918 326.654,355.029 303.738,335.251 291.679,305.825 
			"/>
	<g>
		<g>
			<path fill="#F3D802" d="M334.347,87.921c-3.338,2.119-6.898,3.824-10.344,5.678c-3.455,1.859-7.277,2.989-10.837,4.67
				c-4.932,2.328-9.53,5.534-14.557,7.997c-4.172,2.043-7.663,4.781-11.729,6.913c-5.223,2.739-11.265,2.878-16.693,5.246
				c-1.819,0.792-3.389,2.309-5.12,3.057c-2.334,1.008-4.896,1.046-7.322,2.085c-5.857,2.509-10.142,6.762-16.034,9.287
				c-11.07,4.744-21.123,7.403-33.206,8.117c-13.071,0.771-28.889-2.766-40.327,4.564c-6.767,4.335-16.882,5.44-24.79,9.32
				c-9.29,4.557-19.188,9.341-28.972,13.511c-10.594,4.518-21.646,5.803-32.345,9.884c-6.883,2.626-13.294,6.302-20.079,9.194
				c-0.078-1.246-0.132-2.497-0.129-3.755c0.02-7.391,0.715-14.611,1.036-21.883c0.299-6.752-1.236-13.312-0.524-19.97
				c0.811-7.565,1.516-15.112,2.268-22.705c0.29-2.926,0.546-6.201,1.165-9.05c0.709-3.266,3.804-7.892,5.605-10.59
				c7.729-11.569,2.95-8.648,11.397-18.909l2.724-4.444c-1.895,2.839-3.907,5.279-6.201,8.065
				c-8.446,10.261-13.643,23.05-22.884,32.589c-2.259,2.332-4.472,4.242-5.182,7.507c-0.619,2.85-0.875,6.124-1.165,9.05
				c-0.752,7.592-1.457,15.139-2.267,22.705c-0.713,6.657,0.822,13.217,0.523,19.97c-0.221,5.013-0.609,10.005-0.843,15.042
				c-0.105,2.27-0.188,4.546-0.192,6.841c-0.008,3.006,0.257,5.97,0.598,8.92c3.435-0.705,7.063-0.828,10.397-2.054
				c1.803-0.662,3.564-1.408,5.312-2.188c6.187-2.766,12.113-6.064,18.439-8.478c10.697-4.081,21.751-5.367,32.345-9.883
				c9.782-4.171,19.682-8.955,28.972-13.512c7.908-3.879,18.023-4.984,24.789-9.32c11.439-7.331,27.257-3.793,40.328-4.565
				c12.083-0.713,22.136-3.373,33.206-8.117c5.894-2.525,10.177-6.778,16.034-9.287c2.426-1.039,4.988-1.077,7.322-2.085
				c1.731-0.748,3.301-2.264,5.12-3.056c5.43-2.367,11.472-2.507,16.693-5.246c4.066-2.131,7.558-4.869,11.729-6.913
				c5.025-2.463,9.625-5.669,14.557-7.997c3.56-1.681,7.382-2.81,10.837-4.669c3.444-1.854,7.006-3.559,10.344-5.679
				c4.824-3.063,7-7.348,10.676-11.268L334.347,87.921z"/>
			<path fill="#F3D802" d="M85.534,76.137c0.747-1.119,1.479-2.294,2.197-3.586L85.534,76.137z"/>
		</g>
	</g>
	<path fill="#FF0000" d="M22.757,249.485c0-9.791,1.322-19.153,1.313-28.961c-0.007-6.443,0.557-13.042,1.65-19.357
		c0.876-5.061,2.933-9.563,3.618-14.693c1.229-9.175,0.311-18.945,0.415-28.27c0.056-4.885,1.042-8.371,2.723-12.876
		c1.61-4.32,1.387-9.393,3.608-13.446c3.508-6.39,12.133-13.258,13.324-20.442c-4.108,2.699-7.745,6.909-11.323,10.265
		c-4.003,3.755-10.669,8.516-13.338,13.391c-3.921,7.163-4.585,19.512-5.498,27.844c-0.941,8.595,1.841,17.216,0.468,25.692
		c-1.593,9.818-5.013,19.572-6.896,29.685c-1.627,8.735-5.734,17.23-7.456,25.901c-1.181,5.936-2.692,10.047,4.646,10.077
		c5.204,0.021,7.679-3.052,12.307-4.81"/>
	<path fill="#FF0000" d="M19.26,238.117c4.017-0.825,7.206-4.421,11.422-5.707c5.729-1.75,11.69-3.384,17.447-5.322
		c11.684-3.934,23.056-8.926,34.227-14.215c3.375-1.598,6.546-4.079,9.877-5.781c6.613-3.38,13.483-3.408,20.283-5.368
		c5.849-1.685,11.542-3.699,17.313-5.6c5.023-1.654,9.846-5.162,14.573-6.874c5.515-1.996,11.217-3.565,16.576-5.774
		c2.964-1.221,6.332-3.41,9.368-3.986c7.514-1.428,17.075,0.125,24.778,0.031c6.884-0.082,12.969-2.015,19.574-3.499
		c10.662-2.397,21.76-3.938,32.308-7.44c23.059-7.655,46.692-20.157,66.545-34.001c7.008-4.887,13.604-9.102,21.35-13.019
		c4.027-2.036,16.988-9.872,20.191-7.169c8.862,7.479-11.875,16.167-16.636,17.37c-16.592,4.192-29.289,12.55-42.735,22.398
		c-15.238,11.162-34.124,23.168-52.955,25.351c-8.521,0.988-16.661,3.983-25.253,4.82c-6.922,0.675-13.473,1.292-20.242,3.083
		c-13.207,3.496-27.459,4.932-40.162,9.464c-11.679,4.167-22.277,10.232-33.732,14.199c-9.401,3.255-17.783,6.516-27.155,9.632
		c-10.787,3.584-21.56,8.814-32.489,12.945c-10.089,3.813-20.46,9.313-30.99,11.575c-5.614,1.206-10.826,2.985-16.465,4.2
		c-0.852-2.815-2.106-6.54-0.875-9.5c3.452,0.75,3.467-1.911,5.606-3.563"/>
	<path fill="#FF0000" d="M379.088,439.939c3.282,2.109,3.989,6.313,6.676,9.086c2.082,2.148,7.151,5.074,9.625,6.797
		c5.35,3.721,11.694,4.537,18.584,5.668c18.256,3.002,38.033,6.998,56.34,11.316c8.389,1.979,18.492,3.557,24.988,9.051
		c7.448,6.297,6.862,17.527,9.532,26.348c-8.95-5.377-16.012-8.697-27.17-8.697c-6.776,0-12.477,0.695-18.295-2.26
		c-4.252-2.158-7.561-5.559-12.358-7.191c-9.662-3.289-22.261-0.791-33.06-0.818c-13.336-0.035-23.281,1.715-32.69-7.611
		c-0.591-9.119-1.316-33.029-14.363-28.865c-6.854,2.189-12.328,10.064-18.658,13.865c-3.301,1.98-6.871,3.432-10.045,5.799
		c-1.592,1.189-6.627,7.736-8.592,7.826c-4.742,0.215-4.084-11.65-3.922-15.631c0.33-8.102,0.6-15.377,7.395-19.926
		c12.506-8.369,27.529-10.506,37.269-22.541c1.897-2.35,1.567-4.158,4.518-4.723c0.375,3.836,1.781,6.887,2.174,10.867
		c0.414,4.186-1.156,8.936,1.369,12.324"/>
	<path fill="#FF0000" d="M417.431,643.296c11.403,8.414,33.715-2.324,46.559-3.574c13.912-1.355,30.131,4.525,43.691,9.016
		c9.959,3.295,25.647,1.123,35.151-2.701c6.353-2.557,7.992-6.861,14.359-4.502c4.088,1.514,13.373,6.805,12.922,12.033
		c-0.524,6.098-13.016,9.285-18.297,9.734c-10.877,0.928-22.238-0.752-33.016-2.234c-14.662-2.021-29.119,1.59-43.754,2.119
		c-21.125,0.766-42.332-8.551-59.672-19.205"/>
	<path fill="#FF0000" d="M305.138,270.13c7.988,5.054,20.217,6.5,29.863,6.847c6.094,0.22,9.678-1.839,13.442,1.904
		c2.93,2.912,3.66,7.42,7.396,10.181c1.211-6.218,9.184-4.982,12.975-8.815c3.506-3.545,5.744-10.687,8.215-14.926
		c2.031-3.479,4.478-4.395,8.019-6.497c4-2.373,3.729-6.049,5.461-2.118c8.44-4.266,18.803-9.795,24.045-17.9
		c0.703,5.302-3.762,19.348-7.17,23.638c-2.877,3.625-7.176,2.022-9.535,4.313c-2.047,1.989-2.053,8.558-2.863,11.042
		c-1.734,5.306-4.691,17.368-10.385,19.921c-5.414,2.429-18.689-0.473-24.678-0.065c1.821,1.698,1.467,3.071,1.944,5.239
		c-6.887,0.727-12.254,3.629-18.918,3.374c-5.942-0.228-12.106-3.504-17.787-6.182c-6.354-2.995-13.184-2.891-15.233-8.865
		c-1.396-4.069-6.791-16.559-3.42-19.721"/>
	<path fill="#F3D802" d="M254.47,245.48c11.146,1.357,22.599-4.534,33.378-5.478c11.718-1.025,22.277-5.639,33.604-6.741
		c3.021,12.713,12.113,13.579,22.048,8.131c7.434-4.078,20.438-12.312,25.52-19.173c3.07-4.146,3.08-6.887,7.977-9.642
		c1.925-1.082,5.392-1.228,6.898-3.353c1.582-2.232,0.391-5.811,1.818-8.266c3.682-6.333,6.112-2.572,10.489,0.551
		c3.777,2.696,4.371,4.61,10.537,2.901c1.965-0.543,6.088-2.697,7.854-4.08c4.678,11.572,6.352,19.855,2.049,31.387
		c-6.574,0.52-11.705-0.922-18.381,0.068c-2.619,0.389-5.508,1.044-8.254,1.183c-2.443,0.123-5.064-0.78-8.113-0.391
		c-0.16,5.364,3.1,12.284-0.055,15.503c-1.328,1.356-8,2.657-10.32,4.23c-3.365,2.282-6.514,5.183-9.896,7.55
		c-3.452,2.416-12.237,10.882-16.379,10.818c-4.584-0.07-5.43-7.496-8.629-11.487c-4.104-5.119-5.971-5.166-13.522-4.81
		c-8.252,0.39-13.978,5.17-21.947,6.214c-7.083,0.928-17.795-0.921-24.232-3.301c-5.157-1.908-8.8-5.944-13.509-8.276
		c-2.095-1.037-4.748-1.324-6.882-2.168"/>
	<path fill="#F3D802" d="M491.683,462.818c-4.363-1.439-9.771-1.352-14.381-1.369c-9.328-0.037-16.019-1.855-25.404-3.322
		c-14.602-2.279-29.381-1.695-43.561-5.465c-8.703-2.314-17.673-6.248-24.656-11.869c-8.289-6.674-10.738-16.295-13.297-26.487
		c-6.982-0.707-15.519,6.728-21.808,9.786c-8.705,4.23-15.229,8.809-20.127,8.316c0.812-7.67,2.152-19.07,0-26.013
		c15.779,1.246,23.916-17.455,38.543-18.806c1.226,6.589-2.34,7.283,1.478,12.75c2.108,3.021,5.231,6.342,7.992,8.574
		c7.911,6.398,18.698,11.314,27.606,15.574c8.84,4.225,16.664,4.008,26.023,4.779c5.539,0.457,10.051,2.061,15.748,2.053
		c8.252-0.01,20.518-0.047,25.231-8.096c0.039,0.357-1.354-0.732-1.248-0.635c7.693-3.735,17.953,30.988,19.117,36.803"/>
	<path fill="#F3D802" d="M505.758,580.335c-3.531,1.648-7.211-0.355-10.92-0.719c-5.968-0.588-12.009,0.463-17.82,0.73
		c-13.76,0.646-24.676-0.188-37.619-4.141c-6.486-1.979-18.887-5.154-22.154-12.117c-1.682-3.588-0.303-9.932-0.346-13.895
		c-0.049-4.332-1.611-7.406-1.777-11.406c-13.582,7.715-27.366,17.703-40.844,24.982c-10.268,5.547-23.719,15.77-36.168,13.723
		c-1.029-5.9,1.404-12.285,1.299-18.385c-0.045-2.574-1.36-5.412-0.733-8.217c1.213-5.418,1.11-3.719,5.489-5.479
		c11.793-4.742,26.25-5.576,38.214-10.803c7.608-3.326,14.532-8.605,21.358-13.184c4.732-3.174,13.107-12.678,16.465-6.807
		c2.722,4.758-2.051,13.506-0.717,18.469c1.519,5.65,11.092,11.688,17.041,13.613c14.721,4.766,32.185,6.246,47.56,6.926
		c8.508,0.377,16.559-4.688,24.358-3.334c0.26,10.139-0.967,20.244-1.315,30.039"/>
	<path fill="#F3D802" d="M480.751,647.927c10.122,3.178,20.87-5.641,30.106-9.277c7.521-2.961,25.154-6.855,25.949-16.639
		c-11.215-0.574-18.537-4.121-29.478-8.064c-4.836-1.746-10.903-3.873-16.006-3.678c-5.293,0.203-7.526,3.139-12.115,5.512
		c-7.225,3.736-15.95,4.732-22.922,8.338c-7.028,3.635-12.875,6.932-21.362,8.74c-11.847,2.529-24.593,4.535-36.759,5.482
		c-4.955,0.387-23.137,3.566-26.711-0.291c-1.239-1.338-0.61-9.307-0.295-11.35c1.174-7.582,5.207-16.135,13.043-17.65
		c6.922-1.34,14.183,1.6,21.07,1.9c20.281,0.885,39.979-1.123,60.232-1.299c0.545,4.438-1.927,9.867-2.539,14.352
		c-1.22,8.9-1.086,8.697,3.424,12.947c3.992,3.764,10.975,9.063,15.729,11.662"/>
	<path fill="#FF0000" d="M416.746,573.457c4.476,2.805,7.556,6.154,11.074,9.434c7.951,7.41,16.453,6.506,27.229,7.002
		c9.278,0.428,18.26,1.885,27.696,1.232c9.488-0.66,23.951-6.213,31.058,0.1c6,5.328,7.227,9.652,1.711,15.234
		c-7.023,7.107-8.348,4.945-16.924,5.189c-4.404,0.125-7.859,2.648-12.107,3.498c-4.969,0.986-10.209,0.303-15.479,0.746
		c-10.959,0.924-25.08,5.146-35.599-0.084c-1.623-0.807-4.25-5.201-5.071-6.5c-4.796-0.158-7.89-4.563-12.728-5.188
		c-0.254-4.535-2.998-12.656-8.102-12.775c-5.14-0.113-15.939,9.938-20.168,13.074c-5.035,3.736-9.843,10.889-15.729,13.025
		c-6.176,2.242-11.455-1.729-16.432-5.131c-4.498-3.074-10.543-6.617-10.271-12.809c0.267-6.088,9.969-8.961,15.748-11.672
		c14.144-6.631,30.793-13.258,43.121-23.434c3.949-3.264,8.172-7.408,10.336-11.945c-0.158,6.555-0.09,12.561-1.557,18.844
		c0.146,0.797,0.647,1.059,1.506,0.787"/>
	<path fill="#F3D802" d="M348.984,103.912c-4.742,1.671-9.227,5.75-13.768,8.492c-4.476,2.702-9.17,4.813-13.711,7.133
		c-9.089,4.642-19.9,8.747-28.499,14.604c-4.419,3.011-8.021,6.903-12.902,8.913c-5.392,2.221-10.748,3.004-15.609,5.517
		c-10.52,5.434-20.567,10.205-32.202,11.986c-11.171,1.71-22.915,4.762-34.012,5.252c-9.621,0.425-20.942-1.793-29.604,2.246
		c-11.49,5.357-23.789,7.378-34.648,12.673c-9.465,4.614-17.96,12.432-27.904,15.1c-12.801,3.435-24.996,7.655-37.438,10.469
		c-11.37,2.573-23.668,10.598-34.486,14.328c-0.527-10.396-1.05-21.824-0.08-32.209c1.106-11.856,6.938-22.751,7.953-34.788
		c0.913-10.819,0.273-22.518,3.365-33.03c2.733-9.299,12.141-19.511,20.653-24.429c4.932-2.848,5.901-6.116,9.9-10.303
		c1.458,5.026-4.576,9.886-6.992,13.605c-2.959,4.553-5.007,9.62-7.159,14.639c-4.955,11.551-5.652,23.72-5.652,36.628
		c0,6.646,0,13.293,0,19.938c0,6.663-1.933,16.135,1.733,21.984c6.896,10.997,19.033-6.161,27.341-8.687
		c5.642-1.715,12.161-2.615,17.78-4.145c4.902-1.333,8.977-4.232,13.965-6.636c12.164-5.858,25.433-10.07,37.783-15.339
		c11.474-4.894,22.644-8.61,35.947-9.26c8.961-0.437,19.339,0.413,28.127-1.033c6.038-0.993,10.178-6.03,15.479-8.548
		c8.779-4.168,18.62-3.762,28.002-6.595c13.277-4.011,22.466-10.785,33.922-17.861c9.607-5.935,21.117-9.23,31.768-13.19
		c4.425-1.645,8.705-4.483,13.402-5.004C348.379,95.598,348.109,98.018,348.984,103.912"/>
</g>
<g id="Layer_3">
	<path d="M674.853,625.265c-10.012,1.203-19.619,5.41-29.58,7.482c-25.59,5.326-51.424,9.867-77.406,3.303
		c-13.961-3.525-15.262-8.801-6.733-19.971c7.789-10.205,5.623-16.711-7.013-19.414c-5.668-1.215-12.342,0.434-17.295-1.904
		c-8.932-4.209-17.916-9.438-24.787-16.326c-2.715-2.725-0.061-11.051,0.537-16.785c1.556-14.77,9.188-28.404,0.773-44.627
		c-6.904-13.311-7.512-29.768-11.91-44.527c-4.434-14.881-10.121-29.383-15.221-44.064c-10.088-29.055-18.418-58.701-43.131-80.363
		c-8.169-7.155-18.31-16.963-14.056-30.211c6.984-21.758-2.887-40.271-8.891-59.747c-1.793-5.822-4.338-12.888-2.605-18.066
		c7.715-23.01,2.941-43.507-4.205-66.312c-10.104-32.249-27.827-57.874-53.219-77.521c-40.338-31.217-79.938-64.152-130.842-78.469
		c-34.322-9.66-68.377-19.759-104.535-17.387c-5.554,0.366-11.715,2.081-16.272,5.145C88.625,18.822,85.198,32.934,93.78,63.028
		c1.206-5.979,1.125-11.784,3.535-16.244c5.28-9.763-6.354-25.98,9.941-30.391c11.508-3.109,24.129-2.104,36.257-2.902
		c0.96-0.063,1.962,0.055,2.904,0.269c23.661,5.314,47.38,10.391,70.963,16.036c52.195,12.494,92.044,46.292,133.034,77.961
		c6.988,5.398,8.369,9.757-2.883,13.731c-9.396,3.315-17.26,10.972-25.803,16.709c28.252-10.235,53.91-4.546,68.598,15.246
		c1.447,1.952,4.105,4.232,3.853,6.024c-2.621,18.329,12.94,28.748,18.657,43.423c6.853,17.588-2.997,31.917-6.938,47.425
		c-0.865,3.409-3.479,6.371-6.229,11.191c-5.746-8.341-10.521-15.27-13.949-20.246c4.479-9.741,8.1-17.61,11.719-25.478
		c-19.77,4.502-26.277,26.28-16.85,42.756c3.108,5.434,7.387,10.512,9.078,16.346c1.159,4.006,0.233,10.524-2.464,13.175
		c-2.383,2.348-8.891,2.163-12.897,0.911c-19.502-6.086-28.234-23.504-36.017-39.633c-6.959-14.429-16.065-25.308-29.715-32.191
		c-15.963-8.048-32.648-14.653-48.908-22.131c-3.921-1.803-7.401-4.57-9.113-5.651c23.285-16.968,45.654-33.269,68.018-49.572
		c-3.5,1.595-7.43,2.616-10.442,4.869c-33.399,24.96-70.813,37.56-112.544,38.097c-8.152,0.104-16.771,1.567-24.318,4.56
		c-38.537,15.284-76.754,31.38-115.169,46.971c-14.451,5.864-27.72,16.413-46.749,12.603c1.994-14.748,9.202-41.242,11.505-56.263
		c0.271,0.01,0.544,0.021,0.815,0.031c1.598-13.333,4.029-26.632,4.58-40.007c0.317-7.688,0.884-12.123,2.886-14.087
		c3.938-7.574,12.407-12.336,18.465-18.407c9.729-9.753,18.617-20.303,27.467-30.845c3.642-4.339,7.573-9.246,12.184-13.005
		c-0.17,0-0.338,0.002-0.508,0.002c-0.141,0.203-0.517,0.681-0.961,1.087c-18.799,17.275-37.972,34.166-56.211,52.016
		c-5.486,5.362-10.959,13.035-11.918,20.246c-1.871,14.051-0.548,28.524-0.548,42.821c0.148,0.006,0.298,0.012,0.446,0.018
		c-4.279,19.779-13.561,51.228-17.489,70.189c1.355,1.34,2.714,2.675,4.069,4.013c18.108-7.178,36.401-13.923,54.272-21.642
		c24.406-10.546,48.229-22.489,72.891-32.365c6.608-2.647,16.235-2.098,22.964,0.666c26.729,10.981,52.669,23.856,79.271,35.158
		c17.859,7.591,36.659,12.999,54.393,20.839c7.721,3.41,16.52,9.771,3.196,18.812c-2.597,1.76-4.938,6.847-4.363,9.814
		c2.282,11.78,5.936,23.279,8.769,34.958c4.594,18.925,28.074,28.629,25.092,51.311c-0.021,0.145,2.138,1.006,3.519,1.334
		c1.569,13.332,3.586,26.295,5.186,39.596c2.508-0.514,5.017-1.031,7.527-1.545c-4.181-12.707-8.359-25.413-12.539-38.12
		c-0.424-5.958-0.851-11.916-1.42-19.924c11.418,3.07,20.537,4.804,29.021,8.144c3.717,1.467,7.584,5.729,8.896,9.563
		c5.162,15.092,10.235,30.337,13.393,45.916c1.158,5.707-1.117,14.867-5.27,18.365c-11.379,9.576-24.586,16.982-37.947,25.83
		c-1.568-3.926-2.834-7.09-4.527-11.324c-13.28,29.957-14.979,56.736,13.67,80.713c1.066-5.52,2.464-9.83,2.634-14.197
		c0.418-10.713,0.145-21.445,0.381-32.168c0.475-21.766,9.242-31.311,32.686-34.906c0.33,6.836,1.945,13.818,0.715,20.262
		c-2.627,13.729,4,20.639,15.451,25.229c2.689,1.08,5.109,2.811,7.748,4.039c10.672,4.98,16.679,12.26,15.414,25.072
		c-1.336,13.559-0.518,27.338-2.108,40.85c-0.566,4.803-4.644,10.01-8.527,13.438c-8.754,7.73-18.051,14.992-27.846,21.344
		c-3.685,2.389-11,4.004-13.769,1.992c-5.951-4.326-11.869-10.527-14.453-17.244c-4.545-11.805-6.578-24.582-10.012-38.342
		c-0.955,4.627-2.232,8.564-2.519,12.574c-2.088,29.316,19.974,64.936,47.617,75.117c18.148,6.688,37.164,11.002,55.392,17.498
		c14.33,5.107,28.651,10.844,41.916,18.209c32.666,18.145,64.719,37.393,100.071,57.977c7.802-33.586-13.946-49.371-31.266-70.779
		c33.826-4.672,64.396-8.893,93.883-12.965c-2.127-0.832-5.758-2.25-10.274-4.016c7.729-3.141,13.799-7.166,20.202-7.787
		c6.755-0.65,14.324,4.01,20.607,2.5c5.373-1.297,9.434-8.043,14.076-12.377C683.695,629.669,678.949,624.777,674.853,625.265z
		 M338.972,519.123c-15.746-15.803-15.711-21.293,1.729-34.402C340.06,497.476,339.572,507.189,338.972,519.123z M513.623,599.453
		c0.433,0.43-4.34,9.016-7.489,9.625c-8.976,1.73-18.367,1.305-27.601,1.729c-6.813-0.014-13.621,0.016-20.432-0.02
		c-24.947-0.121-39.144-10.699-40.783-39.057c-1.36-23.512,2.738-47.426,5.699-70.996c0.406-3.24,9.26-8.777,12.414-7.75
		c17.74,5.773,36.008,11.441,51.817,20.941c6.892,4.145,10.736,17.045,11.798,26.439
		C501.353,560.777,496.533,582.542,513.623,599.453z M450.435,378.591c1.127,1.435-3.041,7.02-4.756,10.686
		c-7.904-7.225-16.273-14.011-23.554-21.815c-5.096-5.459-10.856-12.027-0.731-22.231
		C431.785,356.898,441.617,367.347,450.435,378.591z M272.583,246.892c-35.208-12.862-72.283-21.196-107.967-45.382
		c43.072-18.267,76.924,0.127,112.871,12.986c41.12,14.711,55.506,50.489,77.313,87.21c-13.277-2.307-23.972-4.167-34.668-6.024
		c0.131-1.884,0.26-3.765,0.393-5.651c5.195-0.495,10.391-0.986,17.31-1.65C319.705,267.104,296.871,255.761,272.583,246.892z
		 M300.917,319.84c-2.03-5.99-2.965-12.352-4.039-16.96c17.824,3.849,33.867,9.206,50.179,10.202
		c12.088,0.736,25.709-1.883,36.416-7.363c8.158-4.179,12.789-15.216,19.045-23.156c2.754-3.501,5.646-6.894,8.477-10.332
		c2.216,3.412,5.328,6.554,6.449,10.298c2.219,7.399,3.67,15.083,4.849,22.738c4.336,28.26-2.318,40.605-28.47,51.004
		C368.566,366.315,312.66,354.469,300.917,319.84z M397.736,477.875c-14.791,1.188-17.729-5.197-18.346-16.961
		c-0.736-14.057-0.707-28.271-3.006-42.09c-1.867-11.24-6.777-21.965-10.144-32.982c-1.176-3.846-1.77-7.871-2.258-10.104
		c13.412-5.118,24.801-10.3,36.715-13.523c3.711-1.001,10.801,2.071,12.947,5.439c4.594,7.212,5.477,17.041,10.699,23.531
		c4.875,6.058,12.957,10.876,20.514,12.844c3.449,0.899,9.027-6.356,15.816-11.592c17.457,32.69,28.852,69.304,40.922,108.61
		c-22.076-7.596-38.912-14.936-56.506-18.979C429.732,478.539,413.353,476.621,397.736,477.875z M398.222,621.714
		c-4.125-4.33-13.744-10.82-3.445-19.074c9.107-7.305,16.047-6.313,24.873,2.533c12.217,12.246,26.516,22.553,40.603,32.75
		c8.497,6.15,18.284,10.521,27.495,15.689C453.062,655.863,422.271,646.966,398.222,621.714z M565.84,711.957
		c-19.701-9.615-38.408-18.744-57.117-27.873c0.727-1.408,1.449-2.814,2.174-4.221C536.078,679.044,568.845,690.458,565.84,711.957z
		 M465.47,623.537c43.512-22.879,72.865,3.252,100.846,30.688C547.344,662.636,482.876,643.365,465.47,623.537z"/>
</g>
</svg>
