<?xml version="1.0" encoding="utf-8"?>
<!-- Generator: Adobe Illustrator 16.0.0, SVG Export Plug-In . SVG Version: 6.00 Build 0)  -->
<!DOCTYPE svg PUBLIC "-//W3C//DTD SVG 1.1//EN" "http://www.w3.org/Graphics/SVG/1.1/DTD/svg11.dtd">
<svg version="1.1" id="Layer_1" xmlns="http://www.w3.org/2000/svg" xmlns:xlink="http://www.w3.org/1999/xlink" x="0px" y="0px"
	 width="688.082px" height="737.535px" viewBox="0 0 688.082 737.535" enable-background="new 0 0 688.082 737.535"
	 xml:space="preserve">
<g id="Layer_4">
	<polygon fill="#7F0D0C" points="131.813,6.856 209.521,19.291 289.302,53.483 328.677,80.423 376.339,119.794 403.276,166.421 
		412.292,187.207 417.594,209.661 414.164,240.845 410.733,256.75 417.594,272.655 423.52,287.311 425.389,303.215 425.389,312.26 
		425.389,335.649 439.425,353.112 465.62,387.916 499.612,480.974 510.838,532.117 504.913,576.71 528.612,596.669 551.69,628.791 
		567.594,644.07 632.147,644.07 681.733,632.533 672.646,644.714 643.469,653.791 563.229,661.535 539.528,667.771 552.314,681.494 
		574.455,707.062 570.715,726.708 470.608,667.769 409.487,646.564 348.674,605.71 338.374,556.16 340.634,538.054 328.092,514.027 
		323.102,488.455 326.393,460.083 329.256,423.177 324.244,383.513 316.553,354.668 293.165,309.76 296.283,292.297 
		308.757,269.533 264.786,249.887 152.52,204.044 131.813,206.54 11.561,257.058 5.637,248.951 20.606,184.397 23.413,140.114 
		39.94,122.027 86.679,74.305 93.717,63.024 92.332,38.139 96.698,19.739 114.474,6.856 	"/>
</g>
<g id="Layer_1_1_">
	<path fill="#04850E" d="M485.343,626.962c3.313,0.295,6.281-1.563,9.365-2.473c4.038-1.191,8.227-1.633,12.234-2.98
		c4.725-1.586,8.673-4.115,13.405-5.594c10.519-3.279,18.34,7.988,25.442,14.145c3.23,2.801,7.515,6.008,9.858,9.545
		c2.765,4.17-0.454,7.076-4.54,9.412c-9.162,5.236-20.174,6.705-30.529,6.705c-2.001,0-4.002,0-6.002,0
		c-4.687,0.002-6.607-0.93-10.131-4.25c-3.21-3.029-4.035-3.691-7.988-4.924c-2.239-0.699-4.455-1.604-6.684-2.414
		c-4.258-1.545-8.807-3.141-12.819-5.242c-2.499-1.305-8.311-3.965-9.677,0.344c-2.202,0.699-3.799,2.768-5.802,3.947
		c-3.032,1.791-6.591,2.979-10.017,3.539c-6.188,1.021-12.373,1.504-18.611,1.73c-3.063,0.111-7.529,0.924-10.372,0.021
		c-5.917-1.877-11.576-8.93-14.913-13.68c-2.717-3.863-6.335-5.84-10.014-8.541c-8.493-6.236,5.653-8.404,10.844-9.211
		c8.169-1.264,20.952-6.242,28.629-2.133c9.264,4.957,14.631,15.873,24.605,19.006c8.029,2.52,16.916-3.836,23.396-7.904"/>
	<path fill="#04850E" d="M343.821,556.25c-5.4,2.061-6.881,7.617-6.881,12.93c0,2.566-0.075,5.145,0,7.711
		c0.099,3.363,1.602,4.725,2.104,7.65c2.904,1.959,4.021,6.758,5.509,9.861c3.112,6.502,9.973,7.346,17.316,5.555
		c5.335-1.301,11.063-8.523,16.335-11.645c5.494-3.254,10.9-6.693,16.246-9.982c4.144-2.547,12.271-2.941,17.051-1.662
		c5.255,1.406,8.771,6.9,12.171,10.752c12.709,14.408,34.942,14.158,52.983,14.158c6.373,0,12.744-0.023,19.115,0
		c4.566,0.016,13.476-1.336,16.041-5.756c2.486-4.285-5.266-7.879-7.01-11.607c-1.939-4.145-1.521-9.645-1.521-14.719
		c-0.001-5.938,0.384-9.924-5.139-12.635c-8.332-4.088-19.275-3.041-28.42-3.041c-9.169,0-19.17,2.615-27.855-0.525
		c-5.291-1.912-8.623-4.938-12.647-8.779c-5.883-5.613-9.875-10.711-11.336-18.602c-1.681-9.053-8.105-16.869-17.824-10.439
		c-14.756,9.762-30.566,17.023-46.749,24.182c-3.573,1.58-7.66,3.139-8.688,6.99c-0.813,3.047,1.374,6.658,0.01,9.199"/>
	<polygon fill="#04850E" points="326.554,455.326 387.52,458.47 491.816,485.433 501.621,489 481.564,429.72 415.204,423.443 
		382.393,412.783 364.789,388.494 340.052,393.619 329.132,404.091 329.33,423.443 	"/>
	<path fill="#04850E" d="M310.698,252.425c-5.437-1.093-14.092-1.021-18.456,2.74c-5.026,4.331,1.604,9.733,5.628,12.036
		c4.67,2.671,9.922,2.925,14.57,5.28c2.413,1.223,5.016,2.554,7.271,4.146c1.443,1.021,2.471,2.387,3.759,3.601
		c1.429,1.343,3.026,1.952,4.649,2.934c3.23,1.951,5.672,3.647,9.65,3.748c3.484,0.089,4.074-2.258,6.777-3.555
		c2.887-1.385,7.606-0.605,11.067-0.605c3.406,0,4.347,0.615,7.158,2.586c2.494,1.748,6.281,2.264,9.087,0.828
		c4.866-2.488,6.063-8.609,7.662-13.284c1.405-4.104,3.12-8.217,3.122-12.566c0-2.059-0.676-3.704,1.305-4.33
		c1.14-0.358,3.098,0.009,4.304,0.009c3.586,0,6.801-0.547,10.436-0.412c5.23,0.196,9.148,1.453,12.315-3.761
		c1.718-2.83,0.988-7.387,1.375-10.592c0.494-4.116,1.188-8.562,1.382-12.548c0.295-6.138-14.726-4.593-18.674-4.598
		c-3.197-0.003-5.65-0.238-7.646,2.517c-1.348,1.858-2.294,2.911-4.416,4.237c-2.458,1.535-6.496,2.919-7.885,5.72
		c-0.629,1.267-0.221,2.971-0.58,4.326c-0.594,2.249-2.777,3.116-4.883,4.119c-6.446,3.07-14.066,2.422-20.793,4.456
		c-4.922,1.489-9.172,4.616-14.535,4.158c-4.65-0.398-7.868-5-12.048-7.036c-3.276-1.596-8.531-2.235-12.195-1.45
		c-4.793,1.026-6.126,9.791-8.128,13.441"/>
	<polygon fill="#04850E" points="42.452,119.401 82.747,80.577 68.603,99.988 58.345,119.401 53.805,174.801 52.896,197.514 
		109.658,178.434 171.417,152.55 203.658,147.554 231.811,145.739 276.768,127.12 336.736,92.609 362.593,108.049 362.593,117.13 
		343.683,121.671 284.487,155.275 239.474,177.336 171.205,187.313 111.391,211.582 35.64,236.105 14.823,241.554 22.471,172.53 
		26.831,132.057 	"/>
	<polygon fill="#E2C374" points="291.616,296.655 341.061,306.302 380.377,296.655 399.431,277.841 413.421,265.542 
		422.958,285.922 427.169,315.951 425.389,335.649 404.495,357.195 369.282,364.915 326.591,355.024 303.676,335.247 
		291.616,305.821 	"/>
	<g>
		<path fill="#FFFFFF" d="M334.286,87.916c-3.34,2.12-6.899,3.824-10.345,5.678c-3.456,1.86-7.278,2.99-10.838,4.669
			c-4.931,2.329-9.53,5.534-14.556,7.998c-4.173,2.044-7.662,4.781-11.729,6.912c-5.224,2.739-11.265,2.88-16.694,5.246
			c-1.818,0.794-3.388,2.308-5.12,3.058c-2.334,1.007-4.896,1.043-7.321,2.084c-5.859,2.509-10.144,6.762-16.035,9.288
			c-11.069,4.744-21.123,7.404-33.205,8.118c-13.072,0.77-28.889-2.767-40.329,4.565c-6.765,4.335-16.881,5.44-24.791,9.318
			c-9.289,4.558-19.188,9.341-28.97,13.512c-10.595,4.518-21.648,5.804-32.345,9.883c-6.883,2.626-13.296,6.303-20.08,9.194
			c-0.078-1.247-0.133-2.497-0.129-3.755c0.02-7.39,0.715-14.611,1.036-21.883c0.299-6.752-1.236-13.313-0.523-19.97
			c0.81-7.566,1.514-15.112,2.266-22.705c0.291-2.927,0.546-6.201,1.165-9.051c0.709-3.265,3.804-7.891,5.607-10.59
			c7.729-11.569,2.948-8.647,11.396-18.908l2.725-4.444c-1.896,2.838-3.908,5.279-6.2,8.066
			c-8.448,10.26-13.646,23.048-22.887,32.588c-2.257,2.332-4.472,4.242-5.181,7.508c-0.619,2.848-0.875,6.123-1.166,9.049
			c-0.752,7.593-1.456,15.14-2.266,22.705c-0.713,6.658,0.821,13.216,0.522,19.97c-0.221,5.013-0.609,10.005-0.843,15.042
			c-0.104,2.27-0.187,4.546-0.192,6.841c-0.008,3.005,0.259,5.969,0.599,8.92c3.434-0.706,7.063-0.83,10.397-2.054
			c1.803-0.663,3.565-1.407,5.312-2.19c6.185-2.765,12.114-6.063,18.44-8.478c10.696-4.079,21.75-5.365,32.345-9.882
			c9.781-4.172,19.681-8.956,28.97-13.513c7.909-3.877,18.025-4.983,24.791-9.32c11.44-7.329,27.256-3.793,40.329-4.563
			c12.082-0.713,22.136-3.373,33.205-8.118c5.893-2.525,10.176-6.778,16.035-9.287c2.425-1.041,4.987-1.077,7.321-2.085
			c1.732-0.749,3.302-2.264,5.12-3.057c5.43-2.367,11.471-2.507,16.694-5.246c4.065-2.131,7.557-4.869,11.729-6.913
			c5.024-2.463,9.625-5.668,14.556-7.997c3.56-1.68,7.382-2.81,10.838-4.669c3.444-1.854,7.005-3.559,10.345-5.678
			c4.823-3.062,6.998-7.347,10.674-11.268L334.286,87.916z"/>
		<path fill="#FFFFFF" d="M85.471,76.132c0.746-1.119,1.478-2.295,2.196-3.587L85.471,76.132z"/>
	</g>
	<path fill="#EEEE00" d="M22.695,249.48c0-9.791,1.322-19.153,1.311-28.961c-0.007-6.443,0.559-13.041,1.651-19.355
		c0.877-5.063,2.933-9.564,3.62-14.694c1.228-9.175,0.31-18.946,0.415-28.27c0.055-4.886,1.043-8.37,2.722-12.876
		c1.611-4.32,1.387-9.392,3.609-13.445c3.507-6.391,12.132-13.257,13.324-20.442c-4.108,2.699-7.744,6.91-11.323,10.266
		c-4.003,3.754-10.669,8.516-13.337,13.389c-3.92,7.165-4.585,19.512-5.499,27.845c-0.944,8.594,1.841,17.216,0.467,25.693
		c-1.591,9.818-5.012,19.572-6.895,29.683c-1.627,8.736-5.733,17.231-7.456,25.902c-1.181,5.937-2.691,10.047,4.646,10.077
		c5.206,0.023,7.68-3.051,12.308-4.81"/>
	<path fill="#EEEE00" d="M19.196,238.111c4.015-0.824,7.207-4.419,11.421-5.706c5.731-1.75,11.691-3.384,17.448-5.324
		c11.683-3.933,23.055-8.924,34.227-14.213c3.375-1.598,6.545-4.079,9.876-5.781c6.614-3.38,13.485-3.408,20.283-5.367
		c5.85-1.684,11.543-3.699,17.313-5.601c5.022-1.653,9.845-5.161,14.573-6.873c5.515-1.997,11.217-3.566,16.576-5.776
		c2.964-1.22,6.332-3.409,9.367-3.986c7.515-1.428,17.077,0.125,24.78,0.032c6.884-0.082,12.969-2.016,19.573-3.5
		c10.662-2.397,21.761-3.939,32.308-7.44c23.059-7.656,46.693-20.157,66.545-34.001c7.01-4.887,13.604-9.102,21.351-13.02
		c4.026-2.036,16.986-9.872,20.19-7.169c8.863,7.48-11.875,16.167-16.634,17.37c-16.591,4.193-29.29,12.55-42.737,22.398
		c-15.238,11.162-34.123,23.168-52.955,25.352c-8.52,0.988-16.66,3.982-25.252,4.819c-6.921,0.675-13.473,1.292-20.242,3.084
		c-13.207,3.496-27.458,4.932-40.161,9.465c-11.68,4.166-22.279,10.231-33.734,14.197c-9.403,3.256-17.781,6.518-27.155,9.632
		c-10.787,3.585-21.56,8.815-32.489,12.947c-10.089,3.814-20.46,9.312-30.989,11.574c-5.615,1.206-10.826,2.985-16.466,4.2
		c-0.851-2.815-2.105-6.541-0.876-9.5c3.452,0.75,3.469-1.912,5.608-3.564"/>
	<path fill="#EEEE00" d="M379.024,439.935c3.283,2.111,3.99,6.313,6.677,9.086c2.081,2.15,7.151,5.076,9.624,6.797
		c5.353,3.721,11.697,4.537,18.583,5.668c18.257,3.002,38.035,7,56.343,11.316c8.388,1.979,18.489,3.557,24.984,9.049
		c7.451,6.301,6.865,17.531,9.535,26.352c-8.951-5.379-16.012-8.697-27.17-8.697c-6.779,0-12.478,0.693-18.295-2.264
		c-4.252-2.156-7.563-5.557-12.359-7.189c-9.66-3.289-22.261-0.791-33.058-0.816c-13.338-0.033-23.282,1.717-32.692-7.611
		c-0.59-9.121-1.315-33.029-14.362-28.865c-6.854,2.188-12.328,10.064-18.66,13.863c-3.3,1.982-6.869,3.432-10.043,5.801
		c-1.593,1.188-6.628,7.738-8.591,7.826c-4.743,0.217-4.086-11.648-3.924-15.631c0.329-8.104,0.603-15.377,7.396-19.926
		c12.506-8.369,27.527-10.51,37.268-22.541c1.898-2.349,1.566-4.16,4.519-4.723c0.375,3.835,1.778,6.889,2.174,10.867
		c0.414,4.188-1.156,8.938,1.369,12.324"/>
	<path fill="#EEEE00" d="M417.368,643.294c11.404,8.412,33.715-2.324,46.561-3.576c13.911-1.355,30.128,4.527,43.691,9.016
		c9.957,3.295,25.646,1.123,35.151-2.701c6.351-2.555,7.991-6.861,14.358-4.504c4.088,1.516,13.374,6.807,12.923,12.037
		c-0.526,6.096-13.016,9.283-18.298,9.732c-10.877,0.928-22.238-0.752-33.017-2.234c-14.662-2.021-29.119,1.592-43.753,2.121
		c-21.126,0.764-42.333-8.553-59.673-19.207"/>
	<path fill="#EEEE00" d="M305.075,270.125c7.988,5.055,20.217,6.5,29.864,6.848c6.093,0.22,9.677-1.838,13.442,1.904
		c2.929,2.91,3.66,7.419,7.395,10.181c1.211-6.219,9.185-4.983,12.976-8.817c3.506-3.543,5.743-10.686,8.215-14.924
		c2.03-3.478,2.11-14.328,5.653-16.43c4-2.374,6.094,3.883,7.824,7.814c8.441-4.265,18.805-9.794,24.045-17.9
		c0.703,5.303-3.761,19.348-7.169,23.639c-2.877,3.624-7.177,2.023-9.537,4.313c-2.046,1.988-2.051,8.558-2.861,11.041
		c-1.734,5.307-4.691,17.369-10.384,19.922c-5.416,2.43-18.69-0.473-24.68-0.064c1.822,1.698,1.466,3.07,1.944,5.237
		c-6.886,0.729-12.253,3.631-18.917,3.374c-5.943-0.227-12.106-3.503-17.788-6.181c-6.354-2.995-13.184-2.892-15.233-8.865
		c-1.396-4.069-6.792-16.559-3.42-19.722"/>
	<path fill="#FFFFFF" d="M254.406,245.477c11.147,1.356,22.599-4.535,33.38-5.479c11.716-1.026,22.274-5.639,33.604-6.741
		c3.02,12.712,12.113,13.579,22.045,8.129c7.437-4.078,20.441-12.311,25.521-19.172c3.071-4.145,3.08-6.887,7.979-9.642
		c1.922-1.081,5.389-1.228,6.896-3.353c1.582-2.233,0.391-5.812,1.818-8.266c3.682-6.333,6.114-2.572,10.49,0.551
		c3.777,2.697,4.371,4.611,10.539,2.902c1.962-0.543,6.086-2.697,7.852-4.081c4.678,11.571,6.352,19.855,2.048,31.388
		c-6.572,0.519-11.704-0.922-18.38,0.068c-2.619,0.389-5.507,1.043-8.254,1.183c-2.442,0.123-5.063-0.78-8.114-0.392
		c-0.158,5.364,3.102,12.284-0.055,15.503c-1.328,1.356-8.001,2.656-10.319,4.23c-3.364,2.283-6.513,5.183-9.895,7.549
		c-3.453,2.416-12.238,10.883-16.378,10.819c-4.585-0.07-5.429-7.496-8.63-11.487c-4.105-5.12-5.972-5.167-13.523-4.81
		c-8.251,0.39-13.976,5.169-21.947,6.213c-7.084,0.928-17.795-0.92-24.229-3.302c-5.158-1.907-8.804-5.943-13.509-8.275
		c-2.098-1.038-4.749-1.324-6.884-2.169"/>
	<path fill="#FFFFFF" d="M489.262,442.671c-4.362-1.439-9.77-1.348-14.381-1.367c-9.326-0.039-16.017-1.857-25.402-3.322
		c-14.604-2.279-29.381-1.695-43.563-5.465c-8.703-2.313-17.671-6.248-24.656-11.871c-8.289-6.674-10.737-16.295-13.297-26.486
		c-6.98-0.707-15.107,7.775-21.808,9.786c-4.412,1.322-10.73,3.548-15.629,3.054c-1.53-6.97-5.24-13.429-7.393-20.369
		c15.779,1.248,26.811-17.836,41.438-19.186c1.224,6.588-2.341,7.282,1.476,12.75c2.108,3.021,5.231,6.342,7.992,8.573
		c7.913,6.397,18.699,11.315,27.608,15.575c8.838,4.225,16.662,4.009,26.023,4.779c5.537,0.457,10.051,2.061,15.747,2.053
		c8.252-0.012,20.519-0.049,25.23-8.098c0.041,0.357-1.352-0.731-1.248-0.633c7.693-3.736,17.954,30.986,19.119,36.803"/>
	<path fill="#FFFFFF" d="M505.694,564.552c-3.531,1.648-7.211-0.355-10.92-0.721c-5.965-0.588-12.008,0.465-17.82,0.736
		c-13.76,0.641-24.674-0.191-37.617-4.145c-6.485-1.979-18.889-5.152-22.153-12.117c-1.683-3.59-0.305-9.934-0.349-13.896
		c-0.047-4.33-1.609-7.404-1.776-11.404c-13.58,7.715-27.365,17.701-40.842,24.982c-10.269,5.545-23.721,15.77-36.17,13.723
		c-1.029-5.902,1.403-12.285,1.3-18.385c-0.044-2.576-1.362-5.412-0.735-8.215c1.213-5.418,1.112-3.721,5.491-5.48
		c11.793-4.744,26.25-5.576,38.214-10.805c7.608-3.324,14.531-8.605,21.358-13.182c4.73-3.174,13.105-12.68,16.465-6.807
		c2.722,4.758-2.051,13.504-0.718,18.469c1.518,5.65,11.094,11.686,17.043,13.611c14.721,4.766,32.182,6.248,47.558,6.926
		c8.507,0.379,16.558-4.686,24.36-3.33c0.259,10.137-0.968,20.242-1.316,30.037"/>
	<path fill="#FFFFFF" d="M473.512,636.449c10.124,3.178,20.875-5.645,30.106-9.281c7.522-2.961,25.156-6.854,25.951-16.635
		c-11.216-0.574-18.537-4.123-29.477-8.066c-4.836-1.744-10.905-3.873-16.006-3.678c-5.293,0.203-7.527,3.139-12.116,5.514
		c-7.227,3.736-15.952,4.73-22.921,8.336c-7.029,3.637-12.875,6.932-21.363,8.742c-11.846,2.527-24.593,4.533-36.758,5.482
		c-4.955,0.385-23.138,3.563-26.71-0.291c-1.241-1.34-0.612-9.311-0.296-11.354c1.174-7.582,5.207-16.135,13.041-17.648
		c6.924-1.342,14.183,1.6,21.071,1.898c20.28,0.889,39.979-1.121,60.232-1.299c0.545,4.441-1.926,9.867-2.539,14.355
		c-1.219,8.896-1.087,8.695,3.424,12.945c3.991,3.764,10.977,9.064,15.728,11.66"/>
	<path fill="#EEEE00" d="M416.682,573.451c4.475,2.807,7.554,6.156,11.074,9.436c7.953,7.41,16.451,6.506,27.229,7.002
		c9.279,0.428,18.259,1.885,27.698,1.232c9.487-0.66,23.949-6.213,31.056,0.1c5.998,5.328,7.228,9.652,1.71,15.234
		c-7.021,7.109-8.347,4.947-16.923,5.188c-4.404,0.125-7.859,2.65-12.105,3.498c-4.971,0.988-10.21,0.305-15.479,0.748
		c-10.957,0.922-25.08,5.146-35.596-0.084c-1.625-0.807-4.252-5.203-5.074-6.5c-4.795-0.158-7.889-4.564-12.727-5.188
		c-0.253-4.535-2.998-12.658-8.103-12.775c-5.139-0.115-15.938,9.938-20.168,13.076c-5.035,3.734-9.843,10.887-15.729,13.023
		c-6.177,2.244-11.455-1.729-16.433-5.131c-4.498-3.074-10.543-6.617-10.271-12.807c0.267-6.09,9.97-8.963,15.75-11.672
		c14.14-6.633,30.793-13.258,43.12-23.436c3.948-3.264,8.172-7.408,10.338-11.945c-0.16,6.555-0.092,12.561-1.56,18.844
		c0.146,0.797,0.648,1.059,1.507,0.787"/>
</g>
<g id="Layer_3">
	<path d="M674.792,625.261c-10.015,1.203-19.62,5.41-29.582,7.484c-25.59,5.326-51.423,9.865-77.405,3.303
		c-13.961-3.527-15.263-8.803-6.734-19.975c7.789-10.203,5.622-16.709-7.012-19.412c-5.668-1.215-12.341,0.432-17.293-1.902
		c-8.933-4.211-17.918-9.439-24.787-16.326c-2.717-2.727-0.063-11.053,0.536-16.787c1.554-14.77,9.187-28.404,0.771-44.627
		c-6.903-13.311-7.512-29.768-11.91-44.527c-4.434-14.879-10.121-29.383-15.221-44.064c-10.088-29.055-18.417-58.701-43.131-80.365
		c-8.168-7.154-18.307-16.961-14.055-30.211c6.984-21.758-2.888-40.271-8.892-59.746c-1.793-5.822-4.338-12.888-2.604-18.066
		c7.715-23.009,2.94-43.507-4.208-66.311c-10.101-32.249-27.826-57.874-53.217-77.522c-40.338-31.217-79.938-64.151-130.843-78.469
		c-34.321-9.66-68.378-19.759-104.535-17.386c-5.553,0.366-11.715,2.08-16.271,5.145C88.562,18.817,85.136,32.928,93.717,63.022
		c1.206-5.978,1.125-11.782,3.536-16.242c5.28-9.763-6.354-25.981,9.942-30.392c11.505-3.109,24.127-2.102,36.255-2.9
		c0.959-0.063,1.962,0.054,2.905,0.27c23.661,5.313,47.379,10.39,70.962,16.036c52.196,12.493,92.044,46.291,133.034,77.959
		c6.988,5.398,8.369,9.758-2.882,13.732c-9.396,3.315-17.261,10.972-25.805,16.71c28.253-10.235,53.912-4.546,68.599,15.246
		c1.447,1.952,4.106,4.231,3.852,6.024c-2.621,18.33,12.943,28.748,18.659,43.423c6.85,17.589-3,31.917-6.938,47.425
		c-0.865,3.409-3.478,6.371-6.229,11.192c-5.746-8.341-10.521-15.271-13.949-20.246c4.48-9.741,8.101-17.611,11.72-25.479
		c-19.771,4.501-26.276,26.279-16.851,42.756c3.111,5.434,7.388,10.513,9.078,16.345c1.16,4.006,0.233,10.524-2.463,13.176
		c-2.383,2.348-8.891,2.162-12.899,0.909c-19.501-6.085-28.232-23.503-36.014-39.631c-6.96-14.431-16.066-25.309-29.716-32.193
		c-15.964-8.048-32.648-14.654-48.907-22.13c-3.921-1.803-7.401-4.572-9.114-5.651c23.286-16.97,45.654-33.27,68.019-49.573
		c-3.5,1.594-7.431,2.616-10.443,4.869c-33.397,24.959-70.813,37.559-112.544,38.097c-8.152,0.104-16.771,1.567-24.318,4.558
		c-38.538,15.284-76.754,31.38-115.171,46.971c-14.449,5.866-27.716,16.414-46.747,12.604c1.996-14.75,9.203-41.242,11.504-56.265
		c0.273,0.01,0.543,0.022,0.816,0.033c1.596-13.335,4.03-26.633,4.579-40.007c0.317-7.69,0.886-12.123,2.888-14.088
		c3.938-7.574,12.405-12.335,18.463-18.407c9.73-9.752,18.618-20.304,27.466-30.845c3.643-4.338,7.574-9.245,12.184-13.004
		c-0.169,0-0.336,0.001-0.508,0.001c-0.14,0.204-0.517,0.681-0.961,1.087c-18.799,17.275-37.972,34.165-56.211,52.015
		c-5.484,5.364-10.958,13.035-11.917,20.247c-1.872,14.051-0.548,28.525-0.548,42.82c0.149,0.008,0.297,0.012,0.447,0.018
		c-4.28,19.78-13.56,51.229-17.489,70.19c1.355,1.34,2.714,2.675,4.07,4.014c18.106-7.179,36.4-13.924,54.271-21.644
		c24.407-10.545,48.229-22.489,72.892-32.364c6.607-2.648,16.234-2.1,22.963,0.666c26.728,10.981,52.668,23.854,79.271,35.157
		c17.859,7.59,36.66,12.999,54.395,20.839c7.72,3.411,16.52,9.77,3.196,18.813c-2.599,1.76-4.938,6.848-4.363,9.813
		c2.281,11.78,5.935,23.28,8.77,34.957c4.595,18.927,28.073,28.63,25.09,51.312c-0.021,0.146,2.138,1.006,3.519,1.334
		c1.57,13.332,3.586,26.295,5.186,39.596c2.511-0.514,5.019-1.029,7.525-1.545c-4.178-12.707-8.356-25.412-12.538-38.119
		c-0.425-5.959-0.848-11.917-1.418-19.926c11.419,3.071,20.535,4.804,29.021,8.146c3.718,1.466,7.584,5.726,8.896,9.562
		c5.162,15.093,10.236,30.336,13.394,45.918c1.158,5.705-1.117,14.865-5.27,18.361c-11.379,9.578-24.587,16.986-37.947,25.832
		c-1.568-3.926-2.832-7.09-4.525-11.322c-13.283,29.955-14.981,56.734,13.668,80.711c1.066-5.52,2.464-9.83,2.635-14.197
		c0.416-10.711,0.144-21.445,0.379-32.168c0.476-21.766,9.242-31.311,32.687-34.906c0.332,6.834,1.945,13.818,0.715,20.264
		c-2.627,13.727,4,20.637,15.452,25.229c2.688,1.08,5.107,2.809,7.745,4.039c10.676,4.979,16.679,12.26,15.416,25.072
		c-1.337,13.557-0.519,27.338-2.109,40.848c-0.566,4.801-4.642,10.01-8.527,13.438c-8.754,7.732-18.051,14.992-27.845,21.344
		c-3.684,2.393-10.999,4.004-13.768,1.99c-5.952-4.324-11.87-10.525-14.454-17.242c-4.543-11.805-6.577-24.582-10.012-38.342
		c-0.954,4.627-2.233,8.564-2.519,12.574c-2.088,29.318,19.973,64.936,47.616,75.117c18.148,6.688,37.165,11.002,55.392,17.498
		c14.33,5.111,28.652,10.844,41.916,18.209c32.666,18.146,64.72,37.391,100.074,57.977c7.799-33.586-13.949-49.371-31.268-70.779
		c33.825-4.674,64.395-8.893,93.883-12.965c-2.127-0.832-5.759-2.248-10.275-4.016c7.729-3.139,13.798-7.166,20.204-7.785
		c6.753-0.65,14.323,4.008,20.606,2.498c5.372-1.295,9.434-8.043,14.075-12.377C683.631,629.666,678.887,624.773,674.792,625.261z
		 M338.909,519.117c-15.745-15.801-15.712-21.291,1.729-34.4C339.996,497.472,339.509,507.185,338.909,519.117z M513.558,599.449
		c0.434,0.43-4.339,9.016-7.487,9.625c-8.977,1.73-18.37,1.305-27.602,1.729c-6.813-0.012-13.621,0.016-20.433-0.02
		c-24.946-0.121-39.143-10.699-40.782-39.061c-1.361-23.508,2.737-47.42,5.697-70.99c0.407-3.242,9.263-8.779,12.415-7.75
		c17.74,5.771,36.011,11.439,51.818,20.939c6.891,4.145,10.736,17.045,11.797,26.439C501.29,560.775,496.47,582.541,513.558,599.449
		z M450.372,378.585c1.127,1.437-3.039,7.021-4.756,10.687c-7.902-7.226-16.272-14.01-23.553-21.814
		c-5.098-5.457-10.858-12.027-0.73-22.232C431.721,356.893,441.554,367.342,450.372,378.585z M272.52,246.888
		c-35.209-12.863-72.285-21.197-107.967-45.382c43.072-18.269,76.924,0.126,112.87,12.986c41.12,14.711,55.507,50.49,77.313,87.21
		c-13.276-2.307-23.971-4.168-34.669-6.023c0.132-1.885,0.261-3.767,0.394-5.653c5.194-0.495,10.392-0.985,17.308-1.649
		C319.641,267.1,296.807,255.756,272.52,246.888z M300.853,319.834c-2.03-5.988-2.966-12.352-4.037-16.958
		c17.823,3.849,33.866,9.204,50.177,10.2c12.088,0.737,25.709-1.883,36.417-7.361c8.159-4.178,12.788-15.217,19.044-23.158
		c2.754-3.5,5.647-6.893,8.478-10.332c2.215,3.414,5.328,6.555,6.449,10.299c2.22,7.4,3.67,15.082,4.847,22.736
		c4.337,28.262-2.317,40.608-28.468,51.006C368.503,366.311,312.596,354.464,300.853,319.834z M397.674,477.871
		c-14.793,1.188-17.731-5.197-18.348-16.961c-0.735-14.059-0.707-28.271-3.004-42.091c-1.869-11.241-6.778-21.965-10.145-32.981
		c-1.176-3.848-1.769-7.873-2.258-10.104c13.412-5.116,24.8-10.301,36.715-13.523c3.711-1.002,10.801,2.071,12.946,5.439
		c4.596,7.212,5.478,17.041,10.699,23.53c4.875,6.06,12.957,10.878,20.514,12.845c3.448,0.899,9.029-6.356,15.816-11.592
		c17.457,32.692,28.854,69.304,40.922,108.612c-22.076-7.594-38.912-14.936-56.504-18.98
		C429.671,478.537,413.29,476.617,397.674,477.871z M398.16,621.71c-4.125-4.328-13.746-10.818-3.446-19.076
		c9.107-7.303,16.048-6.311,24.874,2.537c12.217,12.244,26.516,22.551,40.602,32.748c8.498,6.15,18.286,10.521,27.496,15.689
		C452.999,655.859,422.208,646.964,398.16,621.71z M565.776,711.953c-19.7-9.615-38.408-18.744-57.116-27.871
		c0.727-1.41,1.448-2.816,2.171-4.225C536.014,679.041,568.782,690.457,565.776,711.953z M465.405,623.533
		c43.512-22.877,72.867,3.252,100.85,30.688C547.28,662.634,482.811,643.361,465.405,623.533z"/>
</g>
</svg>
