<?xml version="1.0" encoding="utf-8"?>
<!-- Generator: Adobe Illustrator 16.0.0, SVG Export Plug-In . SVG Version: 6.00 Build 0)  -->
<!DOCTYPE svg PUBLIC "-//W3C//DTD SVG 1.1//EN" "http://www.w3.org/Graphics/SVG/1.1/DTD/svg11.dtd">
<svg version="1.1" id="Layer_1" xmlns="http://www.w3.org/2000/svg" xmlns:xlink="http://www.w3.org/1999/xlink" x="0px" y="0px"
	 width="688.082px" height="737.535px" viewBox="0 0 688.082 737.535" enable-background="new 0 0 688.082 737.535"
	 xml:space="preserve">
<g id="Layer_4">
	<polygon fill="#1859B3" points="131.885,6.897 209.594,19.331 289.375,53.523 328.749,80.463 376.41,119.835 403.35,166.462 
		412.365,187.248 417.667,209.701 414.237,240.886 410.806,256.791 417.667,272.695 423.593,287.352 425.463,303.257 425.463,312.3 
		425.463,335.688 439.496,353.152 465.693,387.955 499.683,481.013 510.911,532.156 504.984,576.75 528.685,596.71 551.762,628.832 
		567.669,644.111 632.22,644.111 681.805,632.574 672.719,644.753 643.542,653.832 563.302,661.576 539.6,667.812 552.386,681.533 
		574.527,707.103 570.787,726.75 470.681,667.808 409.558,646.603 348.746,605.75 338.446,556.201 340.707,538.095 328.165,514.066 
		323.176,488.494 326.465,460.125 329.33,423.218 324.317,383.553 316.627,354.709 293.237,309.803 296.355,292.339 308.83,269.573 
		264.859,249.927 152.591,204.084 131.885,206.579 11.634,257.1 5.71,248.991 20.679,184.438 23.486,140.154 40.013,122.067 
		86.751,74.347 93.79,63.064 92.405,38.179 96.771,19.779 114.546,6.897 	"/>
</g>
<g id="Layer_1_1_">
	<polygon fill="#E2C374" points="291.689,296.695 341.135,306.343 380.449,296.695 399.504,277.882 413.494,265.581 423.03,285.962 
		427.242,315.991 425.463,335.688 404.569,357.236 369.354,364.954 326.663,355.064 303.748,335.287 291.689,305.861 	"/>
	<path fill="#FFFF03" d="M22.767,249.521c0-9.791,1.321-19.153,1.311-28.96c-0.006-6.444,0.557-13.042,1.651-19.357
		c0.877-5.062,2.933-9.564,3.62-14.693c1.227-9.175,0.309-18.946,0.414-28.27c0.055-4.885,1.043-8.371,2.723-12.875
		c1.609-4.321,1.387-9.394,3.609-13.445c3.507-6.391,12.133-13.259,13.323-20.442c-4.108,2.699-7.746,6.909-11.323,10.266
		c-4.003,3.754-10.668,8.514-13.338,13.389c-3.921,7.163-4.586,19.512-5.499,27.845c-0.941,8.594,1.843,17.216,0.468,25.691
		c-1.593,9.819-5.013,19.573-6.896,29.684c-1.627,8.735-5.732,17.23-7.457,25.901c-1.18,5.937-2.689,10.048,4.646,10.078
		c5.207,0.021,7.68-3.053,12.309-4.811"/>
	<path fill="#FFFF03" d="M19.269,238.152c4.016-0.825,7.207-4.421,11.422-5.707c5.729-1.749,11.689-3.384,17.447-5.323
		c11.682-3.932,23.055-8.925,34.227-14.213c3.375-1.598,6.545-4.079,9.875-5.781c6.615-3.38,13.486-3.407,20.285-5.367
		c5.849-1.685,11.542-3.7,17.313-5.6c5.022-1.654,9.846-5.163,14.572-6.874c5.514-1.996,11.217-3.566,16.577-5.774
		c2.962-1.221,6.331-3.411,9.367-3.987c7.515-1.428,17.076,0.125,24.78,0.033c6.883-0.084,12.969-2.017,19.571-3.5
		c10.662-2.397,21.763-3.939,32.31-7.44c23.059-7.656,46.691-20.156,66.545-34.001c7.008-4.887,13.603-9.102,21.35-13.02
		c4.027-2.036,16.987-9.871,20.191-7.168c8.863,7.479-11.875,16.167-16.635,17.369c-16.591,4.193-29.29,12.55-42.736,22.398
		c-15.238,11.162-34.124,23.168-52.955,25.352c-8.521,0.987-16.66,3.982-25.252,4.82c-6.921,0.675-13.474,1.292-20.242,3.083
		c-13.207,3.496-27.459,4.933-40.162,9.465c-11.68,4.167-22.278,10.232-33.732,14.199c-9.403,3.255-17.782,6.517-27.155,9.632
		c-10.788,3.584-21.562,8.814-32.49,12.945c-10.088,3.814-20.459,9.313-30.99,11.576c-5.614,1.206-10.826,2.984-16.464,4.2
		c-0.852-2.816-2.105-6.541-0.876-9.5c3.452,0.75,3.468-1.912,5.608-3.563"/>
	<path fill="#FFFF03" d="M379.097,439.976c3.282,2.109,3.99,6.313,6.677,9.084c2.081,2.152,7.149,5.076,9.623,6.799
		c5.352,3.721,11.697,4.535,18.584,5.668c18.256,3.002,38.034,6.998,56.341,11.316c8.388,1.979,18.491,3.557,24.987,9.049
		c7.449,6.299,6.864,17.529,9.533,26.35c-8.952-5.377-16.012-8.697-27.17-8.697c-6.777,0-12.477,0.695-18.295-2.26
		c-4.252-2.16-7.562-5.561-12.359-7.191c-9.66-3.289-22.26-0.791-33.059-0.818c-13.338-0.033-23.28,1.717-32.69-7.609
		c-0.59-9.121-1.317-33.029-14.362-28.865c-6.854,2.188-12.329,10.064-18.661,13.863c-3.299,1.98-6.87,3.432-10.044,5.799
		c-1.592,1.189-6.626,7.738-8.591,7.828c-4.742,0.215-4.084-11.65-3.922-15.631c0.33-8.104,0.601-15.379,7.395-19.926
		c12.505-8.369,27.528-10.51,37.267-22.541c1.899-2.352,1.568-4.16,4.52-4.725c0.374,3.835,1.78,6.889,2.174,10.865
		c0.413,4.189-1.156,8.939,1.369,12.326"/>
	<path fill="#FFFF03" d="M417.44,643.333c11.404,8.414,33.716-2.324,46.561-3.576c13.91-1.354,30.129,4.527,43.691,9.018
		c9.957,3.295,25.647,1.123,35.151-2.701c6.353-2.557,7.992-6.861,14.358-4.504c4.088,1.516,13.373,6.807,12.924,12.035
		c-0.526,6.098-13.018,9.283-18.299,9.734c-10.878,0.928-22.237-0.754-33.016-2.234c-14.663-2.021-29.119,1.59-43.753,2.119
		c-21.126,0.766-42.333-8.551-59.673-19.207"/>
	<path fill="#FFFF03" d="M305.147,270.167c7.988,5.053,20.217,6.499,29.865,6.847c6.093,0.22,9.676-1.839,13.44,1.904
		c2.931,2.911,3.66,7.42,7.396,10.181c1.211-6.219,9.184-4.983,12.974-8.817c3.506-3.543,5.745-10.687,8.217-14.924
		c2.029-3.479,2.11-14.327,5.652-16.431c4-2.374,6.094,3.885,7.824,7.815c8.441-4.267,18.804-9.795,24.046-17.901
		c0.703,5.302-3.762,19.347-7.17,23.638c-2.877,3.623-7.177,2.022-9.536,4.313c-2.047,1.989-2.052,8.558-2.863,11.042
		c-1.732,5.307-4.69,17.368-10.384,19.921c-5.415,2.429-18.69-0.472-24.679-0.064c1.823,1.699,1.466,3.071,1.945,5.238
		c-6.888,0.729-12.254,3.631-18.918,3.375c-5.942-0.228-12.106-3.504-17.788-6.183c-6.354-2.995-13.184-2.892-15.232-8.865
		c-1.396-4.069-6.792-16.558-3.421-19.721"/>
	<path fill="#FFFF03" d="M416.755,573.492c4.475,2.807,7.555,6.156,11.072,9.436c7.953,7.41,16.454,6.504,27.23,7
		c9.279,0.43,18.258,1.887,27.698,1.232c9.485-0.658,23.948-6.213,31.056,0.1c5.998,5.328,7.227,9.654,1.71,15.236
		c-7.022,7.105-8.346,4.945-16.923,5.188c-4.405,0.125-7.86,2.65-12.107,3.498c-4.969,0.988-10.209,0.305-15.479,0.746
		c-10.958,0.922-25.079,5.148-35.598-0.082c-1.623-0.807-4.25-5.203-5.071-6.502c-4.795-0.158-7.891-4.563-12.728-5.186
		c-0.254-4.535-2.997-12.658-8.103-12.775c-5.138-0.115-15.938,9.936-20.167,13.074c-5.035,3.736-9.843,10.889-15.729,13.025
		c-6.177,2.242-11.455-1.729-16.432-5.131c-4.498-3.076-10.544-6.617-10.272-12.809c0.268-6.088,9.971-8.963,15.749-11.672
		c14.143-6.633,30.794-13.258,43.121-23.436c3.949-3.262,8.173-7.408,10.336-11.945c-0.158,6.555-0.09,12.561-1.558,18.846
		c0.146,0.797,0.649,1.061,1.507,0.785"/>
	<path fill="#FFFF03" d="M32.806,226.92c7.702-2.364,14.848-6.145,22.266-9.383c7.553-3.296,16.326-4.392,24.305-7.712
		c8.728-3.632,16.427-9.024,25.291-12.272c7.849-2.875,15.688-5.656,23.205-8.046c15.629-4.97,29.976-12.855,45.633-16.893
		c8.109-2.091,15.852-2.519,24.541-2.904c8.576-0.38,15.05-5.617,23.261-5.617c9.752,0,18.667,0.147,27.614-3.622
		c9.054-3.812,18.11-8.602,27.089-12.816c9.489-4.456,19.77-6.56,28.316-12.779c4.665-3.395,8.837-7.087,13.573-10.382
		c4.758-3.309,8.778-3.874,14.073-5.899c4.515-1.727,7.805-4.748,11.729-7.109c4.869-2.933,12.681-9.354,17.905-10.185
		c0.915,3.793,3.286,8.444,2.812,12.38c-5.471,0.277-9.847-0.05-14.576,2.133c-4.395,2.028-7.707,5.504-11.974,8.187
		c-7.551,4.749-16.354,8.757-24.485,13.318c-9.421,5.283-17.94,12.017-27.994,16.373c-9.162,3.971-16.364,10.511-26.104,13.635
		c-8.674,2.78-13.454,6.132-22.186,7.466c-8.472,1.294-22.979,6.019-31.572,6.875c-20.555,2.047-47.783,2.297-61.43,8.654
		c-12.9,6.007-24.56,10.372-38.231,13.346c-10.194,2.218-19.197,8-28.334,12.449c-10.562,5.142-21.134,10.771-32.476,12.966
		c-8.298,1.605-16.765,3.847-19.564-5.605"/>
	<path fill="#FFFF03" d="M31.206,229.822c-1.517-3.218,0.196-8.048,0.431-11.629c0.294-4.497,0.563-8.596,1.194-12.889
		c1.276-8.665,1.845-16.934,3.444-25.398c1.762-9.319,1.306-18.041,1.814-27.54c0.529-9.842,3.647-17.979,6.432-27.129
		c2.029-6.671,6.428-11.593,8.485-18.021c-8.051,2.701-16.271,13.118-17.834,21.097c-1.633,8.348-6.83,17.734-8.27,26.024
		c-3.219,18.546-1.596,36.18-4.401,54.902c-0.953,6.353-2.646,13.589-1.624,20.154c1.697,10.929,3.467,10.439,6.025,8.859
		l19.117-7.724L31.206,229.822z"/>
</g>
<g id="Layer_3">
	<path d="M674.864,625.302c-10.014,1.201-19.62,5.408-29.581,7.482c-25.591,5.326-51.423,9.865-77.407,3.303
		c-13.961-3.527-15.261-8.803-6.733-19.973c7.79-10.203,5.622-16.709-7.012-19.414c-5.668-1.213-12.341,0.436-17.293-1.902
		c-8.934-4.211-17.918-9.438-24.788-16.326c-2.715-2.727-0.063-11.051,0.537-16.787c1.555-14.768,9.188-28.402,0.772-44.627
		c-6.904-13.311-7.512-29.766-11.91-44.525c-4.434-14.881-10.122-29.383-15.222-44.064c-10.088-29.057-18.417-58.702-43.13-80.365
		c-8.168-7.154-18.31-16.962-14.056-30.212c6.984-21.757-2.888-40.27-8.891-59.746c-1.793-5.822-4.339-12.888-2.604-18.066
		c7.714-23.009,2.939-43.507-4.207-66.311c-10.103-32.249-27.829-57.875-53.219-77.521C319.784,65.03,280.184,32.095,229.28,17.778
		c-34.324-9.66-68.379-19.759-104.535-17.387c-5.554,0.367-11.717,2.081-16.272,5.146C88.634,18.857,85.208,32.97,93.79,63.063
		c1.206-5.978,1.126-11.783,3.535-16.243c5.28-9.764-6.354-25.981,9.943-30.392c11.505-3.11,24.128-2.102,36.255-2.901
		c0.96-0.062,1.962,0.055,2.906,0.27c23.659,5.313,47.379,10.391,70.961,16.036c52.196,12.494,92.045,46.291,133.035,77.96
		c6.986,5.397,8.369,9.758-2.882,13.732c-9.397,3.315-17.262,10.972-25.806,16.709c28.252-10.235,53.911-4.546,68.599,15.246
		c1.447,1.953,4.105,4.232,3.852,6.025c-2.62,18.33,12.942,28.748,18.659,43.423c6.851,17.588-2.998,31.917-6.938,47.425
		c-0.864,3.408-3.478,6.37-6.229,11.19c-5.746-8.341-10.522-15.27-13.948-20.245c4.479-9.741,8.101-17.61,11.718-25.479
		c-19.77,4.503-26.275,26.281-16.85,42.757c3.111,5.435,7.388,10.513,9.078,16.346c1.16,4.006,0.233,10.523-2.463,13.175
		c-2.383,2.348-8.891,2.163-12.898,0.91c-19.501-6.084-28.232-23.502-36.015-39.631c-6.96-14.431-16.066-25.31-29.714-32.192
		c-15.966-8.049-32.649-14.654-48.909-22.13c-3.92-1.804-7.402-4.571-9.113-5.651c23.286-16.969,45.653-33.27,68.019-49.573
		c-3.503,1.595-7.431,2.616-10.443,4.87c-33.398,24.958-70.813,37.559-112.544,38.097c-8.153,0.104-16.772,1.567-24.319,4.558
		c-38.537,15.285-76.754,31.38-115.17,46.971C41.659,240.191,28.391,250.74,9.36,246.93c1.996-14.75,9.203-41.243,11.506-56.265
		c0.271,0.01,0.543,0.021,0.815,0.031c1.597-13.333,4.028-26.632,4.58-40.007c0.316-7.689,0.884-12.124,2.887-14.088
		c3.937-7.572,12.406-12.334,18.464-18.407c9.729-9.752,18.617-20.304,27.466-30.845c3.644-4.339,7.573-9.245,12.184-13.005
		c-0.17,0-0.338,0.002-0.509,0.002c-0.139,0.203-0.516,0.681-0.96,1.087c-18.8,17.275-37.972,34.166-56.211,52.016
		c-5.485,5.364-10.958,13.036-11.918,20.247c-1.872,14.05-0.548,28.524-0.548,42.82c0.148,0.007,0.297,0.012,0.447,0.018
		c-4.279,19.78-13.561,51.229-17.489,70.19c1.355,1.34,2.714,2.675,4.07,4.013c18.106-7.178,36.399-13.924,54.271-21.643
		c24.405-10.545,48.229-22.489,72.892-32.364c6.606-2.647,16.233-2.099,22.963,0.666c26.728,10.98,52.67,23.855,79.271,35.157
		c17.859,7.592,36.659,13,54.394,20.84c7.719,3.41,16.52,9.771,3.195,18.812c-2.597,1.761-4.938,6.848-4.362,9.814
		c2.281,11.781,5.935,23.28,8.769,34.958c4.596,18.926,28.074,28.629,25.092,51.312c-0.021,0.145,2.139,1.006,3.519,1.332
		c1.569,13.334,3.586,26.297,5.187,39.596c2.508-0.514,5.017-1.027,7.525-1.543c-4.179-12.709-8.357-25.412-12.539-38.12
		c-0.425-5.958-0.849-11.915-1.418-19.924c11.417,3.07,20.534,4.804,29.021,8.144c3.718,1.467,7.583,5.727,8.896,9.563
		c5.161,15.093,10.235,30.336,13.394,45.918c1.157,5.705-1.117,14.865-5.271,18.363c-11.379,9.576-24.587,16.982-37.949,25.83
		c-1.566-3.926-2.831-7.088-4.524-11.322c-13.282,29.957-14.979,56.736,13.67,80.713c1.065-5.521,2.463-9.832,2.634-14.199
		c0.416-10.711,0.145-21.445,0.379-32.166c0.477-21.766,9.243-31.311,32.687-34.908c0.332,6.834,1.945,13.818,0.716,20.262
		c-2.628,13.729,3.999,20.637,15.451,25.23c2.688,1.08,5.108,2.809,7.747,4.037c10.673,4.979,16.678,12.26,15.415,25.072
		c-1.337,13.557-0.519,27.34-2.109,40.85c-0.566,4.803-4.644,10.01-8.527,13.438c-8.754,7.73-18.051,14.992-27.845,21.344
		c-3.685,2.389-11.001,4.004-13.77,1.99c-5.95-4.324-11.868-10.525-14.452-17.242c-4.545-11.805-6.578-24.582-10.014-38.342
		c-0.954,4.627-2.232,8.563-2.518,12.574c-2.087,29.316,19.974,64.938,47.617,75.117c18.147,6.688,37.165,11,55.39,17.498
		c14.331,5.109,28.654,10.844,41.918,18.209c32.665,18.146,64.719,37.391,100.072,57.977c7.799-33.588-13.947-49.371-31.269-70.779
		c33.827-4.674,64.396-8.893,93.886-12.965c-2.128-0.832-5.76-2.25-10.275-4.016c7.729-3.141,13.798-7.166,20.203-7.787
		c6.755-0.65,14.323,4.01,20.607,2.5c5.371-1.297,9.434-8.043,14.075-12.377C683.703,629.707,678.958,624.814,674.864,625.302z
		 M338.982,519.158c-15.746-15.801-15.712-21.291,1.729-34.4C340.069,497.513,339.582,507.226,338.982,519.158z M513.631,599.49
		c0.435,0.43-4.339,9.016-7.487,9.623c-8.977,1.732-18.369,1.307-27.602,1.729c-6.813-0.014-13.621,0.016-20.434-0.02
		c-24.945-0.123-39.142-10.699-40.781-39.059c-1.36-23.51,2.737-47.422,5.697-70.994c0.407-3.24,9.262-8.777,12.416-7.75
		c17.74,5.773,36.009,11.443,51.817,20.941c6.891,4.145,10.736,17.047,11.798,26.439C501.363,560.814,496.542,582.58,513.631,599.49
		z M450.445,378.626c1.125,1.436-3.042,7.021-4.757,10.686c-7.902-7.225-16.271-14.012-23.554-21.814
		c-5.097-5.459-10.856-12.028-0.729-22.232C431.795,356.935,441.626,367.384,450.445,378.626z M272.592,246.929
		c-35.206-12.863-72.283-21.197-107.966-45.382c43.072-18.27,76.924,0.126,112.871,12.985c41.118,14.711,55.507,50.489,77.313,87.21
		c-13.278-2.307-23.971-4.168-34.669-6.024c0.132-1.883,0.26-3.765,0.393-5.652c5.195-0.495,10.393-0.985,17.31-1.649
		C319.716,267.14,296.88,255.797,272.592,246.929z M300.927,319.876c-2.033-5.99-2.966-12.353-4.039-16.96
		c17.824,3.85,33.867,9.205,50.177,10.202c12.088,0.737,25.71-1.884,36.417-7.363c8.158-4.179,12.788-15.217,19.045-23.156
		c2.754-3.502,5.646-6.895,8.478-10.332c2.214,3.413,5.328,6.553,6.448,10.297c2.22,7.4,3.671,15.083,4.848,22.738
		c4.337,28.259-2.317,40.606-28.468,51.005C368.576,366.351,312.669,354.505,300.927,319.876z M397.746,477.912
		c-14.792,1.188-17.729-5.199-18.347-16.961c-0.735-14.059-0.706-28.273-3.004-42.092c-1.869-11.24-6.779-21.964-10.145-32.98
		c-1.176-3.846-1.769-7.871-2.258-10.104c13.412-5.118,24.799-10.3,36.715-13.523c3.711-1.001,10.801,2.07,12.947,5.439
		c4.596,7.212,5.477,17.041,10.698,23.53c4.876,6.059,12.957,10.877,20.514,12.844c3.45,0.9,9.028-6.355,15.817-11.591
		c17.456,32.692,28.852,69.304,40.921,108.612c-22.075-7.594-38.912-14.936-56.505-18.979
		C429.743,478.576,413.364,476.658,397.746,477.912z M398.232,621.75c-4.125-4.328-13.745-10.818-3.446-19.074
		c9.107-7.305,16.049-6.313,24.874,2.535c12.218,12.244,26.516,22.553,40.602,32.748c8.499,6.15,18.287,10.521,27.497,15.691
		C453.071,655.898,422.281,647.003,398.232,621.75z M565.848,711.992c-19.7-9.613-38.408-18.742-57.116-27.871
		c0.726-1.408,1.447-2.816,2.172-4.223C536.089,679.08,568.854,690.496,565.848,711.992z M465.478,623.572
		c43.513-22.877,72.867,3.252,100.848,30.688C547.353,662.673,482.885,643.4,465.478,623.572z"/>
</g>
</svg>
