<?xml version="1.0" encoding="utf-8"?>
<!-- Generator: Adobe Illustrator 16.0.0, SVG Export Plug-In . SVG Version: 6.00 Build 0)  -->
<!DOCTYPE svg PUBLIC "-//W3C//DTD SVG 1.1//EN" "http://www.w3.org/Graphics/SVG/1.1/DTD/svg11.dtd">
<svg version="1.1" id="Layer_1" xmlns="http://www.w3.org/2000/svg" xmlns:xlink="http://www.w3.org/1999/xlink" x="0px" y="0px"
	 width="688.082px" height="737.535px" viewBox="0 0 688.082 737.535" enable-background="new 0 0 688.082 737.535"
	 xml:space="preserve">
<g id="Layer_4">
	<polygon fill="#865800" points="11.478,257.1 5.552,248.992 20.522,184.438 23.328,140.155 39.856,122.067 86.595,74.347 
		93.633,63.064 92.248,38.179 96.614,19.78 114.389,6.898 131.728,6.898 209.437,19.332 	"/>
	<path fill="#17B018" d="M11.478,257.1l120.25-50.521l20.707-2.495l112.268,45.842l43.971,19.646l-12.475,22.766l-3.118,17.464
		l23.39,44.907l7.689,28.843l5.013,39.664l-2.863,36.906l-3.289,28.371l4.988,25.57l12.543,24.029l-2.262,18.107l10.301,49.549
		l60.813,40.854l61.123,21.207l100.104,58.939l3.74-19.646l-22.141-25.568l-12.787-13.723l23.701-6.236l80.24-7.744l29.178-9.076
		l9.086-12.182l-49.586,11.539h-64.551l-15.906-15.281l-23.077-32.121l-23.7-19.959l5.927-44.594l-11.229-51.145l-33.99-93.059
		l-26.194-34.803l-14.033-17.464V312.3v-9.043l-1.871-15.905l-5.926-14.656l-6.861-15.905l3.432-15.905l3.431-31.185l-5.302-22.454
		l-9.016-20.786l-26.938-46.627l-47.662-39.372L289.22,53.523l-79.781-34.192l-7.238,4.365c-0.403,0.402-0.861,0.73-1.371,0.984
		c0.2,4.408-21.032,21.787-24.156,26.948c-6.299,10.407-12.635,21.121-20.585,30.854c-8.991,11.006-20.259,20.305-30.874,29.607
		c-9.775,8.57-17.513,19.123-25.861,29.44c-14.9,18.411-28.097,37.66-43.2,56.168c-6.614,8.104-13.976,16.561-21.062,24.461
		c-6.201,6.914-22.579,15.816-23.344,25.249L11.478,257.1z"/>
	<polygon fill="#865800" points="175.189,190.526 227.164,190.526 266.144,202.22 319.416,230.806 351.9,282.778 359.308,301.845 
		359.308,364.955 371.39,411.414 377.113,450.47 380.314,481.841 402.083,504.89 418.088,517.054 414.246,579.796 436.013,613.089 
		476.988,639.978 517.322,661.746 552.23,681.535 573.292,712.771 562.496,721.96 491.251,680.011 427.085,648.3 356.627,615.65 
		338.059,582.998 338.29,556.201 340.551,538.095 323.333,504.25 323.974,479.921 326.308,460.125 331.015,413.337 314.371,349.314 
		301.522,330.24 291.532,296.696 304.767,279.53 299.737,265.582 245.049,241.902 155.98,205.533 163.918,195.019 	"/>
</g>
<g id="Layer_1_1_">
	<polygon fill="#E2C374" points="291.532,296.696 340.978,306.343 380.292,296.696 399.347,277.882 413.335,265.582 
		422.873,285.962 427.085,315.992 425.306,335.688 404.412,357.237 369.197,364.955 326.506,355.065 303.592,335.288 
		291.532,305.861 	"/>
</g>
<g id="Layer_3">
	<path d="M674.707,625.302c-10.014,1.201-19.62,5.41-29.581,7.482c-25.591,5.326-51.423,9.867-77.406,3.303
		c-13.961-3.525-15.263-8.801-6.734-19.971c7.791-10.205,5.623-16.711-7.011-19.416c-5.669-1.213-12.341,0.436-17.294-1.9
		c-8.933-4.211-17.917-9.439-24.787-16.328c-2.717-2.725-0.063-11.051,0.537-16.785c1.555-14.77,9.188-28.404,0.771-44.629
		c-6.901-13.309-7.51-29.766-11.909-44.525c-4.434-14.881-10.121-29.383-15.222-44.064c-10.088-29.055-18.416-58.702-43.129-80.364
		c-8.168-7.154-18.309-16.962-14.055-30.212c6.983-21.757-2.89-40.27-8.893-59.746c-1.794-5.822-4.339-12.888-2.604-18.066
		c7.715-23.009,2.94-43.507-4.207-66.311c-10.103-32.249-27.828-57.875-53.217-77.521c-40.338-31.217-79.938-64.152-130.845-78.469
		C194.8,8.118,160.746-1.981,124.587,0.391c-5.553,0.367-11.715,2.081-16.271,5.146C88.478,18.858,85.051,32.971,93.633,63.064
		c1.205-5.978,1.124-11.783,3.534-16.243c5.28-9.764-6.354-25.981,9.943-30.392c11.506-3.11,24.128-2.102,36.256-2.901
		c0.959-0.062,1.961,0.055,2.904,0.27c23.662,5.313,47.381,10.391,70.963,16.036c52.195,12.494,92.044,46.291,133.033,77.96
		c6.988,5.397,8.371,9.758-2.881,13.732c-9.396,3.315-17.262,10.972-25.806,16.709c28.253-10.235,53.912-4.546,68.599,15.246
		c1.447,1.953,4.106,4.232,3.852,6.025c-2.619,18.33,12.943,28.748,18.66,43.423c6.85,17.588-3,31.917-6.938,47.425
		c-0.866,3.408-3.479,6.37-6.229,11.19c-5.746-8.341-10.521-15.27-13.947-20.245c4.479-9.741,8.101-17.61,11.718-25.479
		c-19.771,4.503-26.275,26.281-16.851,42.757c3.111,5.435,7.388,10.513,9.079,16.346c1.159,4.006,0.233,10.523-2.464,13.175
		c-2.381,2.348-8.889,2.163-12.898,0.91c-19.5-6.084-28.233-23.502-36.014-39.631c-6.961-14.431-16.066-25.31-29.715-32.192
		c-15.965-8.049-32.649-14.654-48.908-22.13c-3.921-1.804-7.402-4.571-9.115-5.651c23.287-16.969,45.654-33.27,68.02-49.573
		c-3.501,1.595-7.431,2.616-10.442,4.87c-33.399,24.958-70.813,37.559-112.545,38.097c-8.153,0.104-16.771,1.567-24.318,4.558
		c-38.538,15.285-76.755,31.38-115.17,46.971c-14.45,5.865-27.718,16.414-46.748,12.604c1.994-14.75,9.202-41.243,11.504-56.265
		c0.272,0.01,0.544,0.021,0.816,0.031c1.598-13.333,4.029-26.632,4.58-40.007c0.316-7.689,0.885-12.124,2.887-14.088
		c3.938-7.572,12.406-12.334,18.464-18.407c9.73-9.752,18.617-20.304,27.466-30.845c3.643-4.339,7.574-9.245,12.185-13.005
		c-0.17,0-0.337,0.002-0.508,0.002c-0.141,0.203-0.518,0.681-0.961,1.087c-18.8,17.275-37.972,34.166-56.212,52.016
		c-5.485,5.364-10.958,13.036-11.918,20.247c-1.87,14.05-0.547,28.524-0.547,42.82c0.148,0.007,0.297,0.012,0.446,0.018
		c-4.28,19.78-13.56,51.229-17.489,70.19c1.355,1.34,2.713,2.675,4.07,4.013c18.107-7.178,36.4-13.924,54.271-21.644
		c24.405-10.545,48.229-22.489,72.892-32.364c6.607-2.647,16.235-2.099,22.964,0.666c26.727,10.98,52.668,23.855,79.271,35.157
		c17.858,7.592,36.657,13,54.393,20.84c7.719,3.41,16.52,9.771,3.195,18.812c-2.597,1.761-4.938,6.848-4.363,9.814
		c2.282,11.781,5.936,23.28,8.77,34.958c4.595,18.926,28.074,28.629,25.091,51.311c-0.021,0.146,2.139,1.006,3.518,1.334
		c1.57,13.334,3.587,26.297,5.187,39.594c2.51-0.514,5.018-1.027,7.526-1.543c-4.178-12.707-8.358-25.411-12.539-38.12
		c-0.424-5.958-0.848-11.915-1.419-19.924c11.419,3.07,20.536,4.804,29.021,8.144c3.718,1.467,7.583,5.727,8.896,9.563
		c5.16,15.093,10.234,30.336,13.393,45.918c1.159,5.705-1.118,14.865-5.27,18.361c-11.38,9.578-24.588,16.984-37.948,25.83
		c-1.568-3.924-2.832-7.088-4.525-11.32c-13.283,29.955-14.98,56.734,13.668,80.711c1.068-5.52,2.465-9.832,2.635-14.197
		c0.416-10.713,0.146-21.445,0.379-32.168c0.477-21.766,9.242-31.311,32.687-34.906c0.332,6.834,1.947,13.818,0.716,20.262
		c-2.628,13.729,3.999,20.637,15.452,25.229c2.688,1.08,5.106,2.811,7.746,4.039c10.674,4.979,16.678,12.258,15.414,25.072
		c-1.336,13.555-0.517,27.338-2.108,40.848c-0.567,4.805-4.643,10.012-8.526,13.439c-8.756,7.729-18.053,14.992-27.846,21.344
		c-3.684,2.389-11,4.004-13.77,1.99c-5.949-4.324-11.867-10.525-14.453-17.242c-4.543-11.805-6.576-24.582-10.011-38.342
		c-0.954,4.627-2.233,8.563-2.52,12.574c-2.087,29.316,19.974,64.938,47.617,75.115c18.148,6.689,37.166,11.002,55.391,17.498
		c14.33,5.109,28.652,10.846,41.917,18.209c32.665,18.146,64.721,37.393,100.073,57.979c7.799-33.588-13.949-49.371-31.268-70.779
		c33.825-4.674,64.395-8.893,93.883-12.965c-2.127-0.832-5.758-2.25-10.275-4.016c7.729-3.141,13.799-7.166,20.205-7.787
		c6.754-0.65,14.322,4.01,20.605,2.5c5.372-1.297,9.435-8.043,14.076-12.377C683.547,629.707,678.802,624.814,674.707,625.302z
		 M338.826,519.158c-15.746-15.801-15.713-21.291,1.729-34.4C339.912,497.513,339.424,507.226,338.826,519.158z M513.474,599.492
		c0.434,0.428-4.339,9.014-7.488,9.623c-8.977,1.73-18.369,1.305-27.6,1.729c-6.814-0.014-13.623,0.016-20.435-0.02
		c-24.946-0.123-39.143-10.699-40.782-39.059c-1.359-23.51,2.737-47.424,5.698-70.994c0.406-3.24,9.263-8.777,12.416-7.75
		c17.738,5.773,36.008,11.441,51.816,20.941c6.891,4.145,10.737,17.045,11.799,26.439
		C501.208,560.814,496.386,582.58,513.474,599.492z M450.289,378.628c1.125,1.435-3.04,7.02-4.758,10.685
		c-7.901-7.226-16.271-14.011-23.553-21.814c-5.096-5.459-10.857-12.028-0.73-22.232
		C431.636,356.935,441.47,367.384,450.289,378.628z M272.435,246.929c-35.207-12.863-72.283-21.197-107.968-45.382
		c43.073-18.27,76.925,0.126,112.872,12.985c41.118,14.711,55.508,50.489,77.313,87.21c-13.277-2.307-23.972-4.168-34.669-6.024
		c0.131-1.883,0.26-3.765,0.395-5.652c5.193-0.495,10.392-0.985,17.308-1.649C319.558,267.14,296.724,255.797,272.435,246.929z
		 M300.769,319.876c-2.031-5.99-2.965-12.353-4.038-16.96c17.824,3.85,33.868,9.205,50.177,10.202
		c12.089,0.737,25.711-1.884,36.418-7.363c8.158-4.179,12.787-15.217,19.043-23.156c2.755-3.502,5.647-6.895,8.479-10.332
		c2.213,3.413,5.328,6.553,6.449,10.297c2.219,7.4,3.669,15.083,4.846,22.738c4.338,28.259-2.318,40.606-28.467,51.005
		C368.417,366.352,312.511,354.505,300.769,319.876z M397.59,477.912c-14.793,1.188-17.73-5.197-18.349-16.961
		c-0.735-14.059-0.705-28.273-3.004-42.092c-1.869-11.24-6.779-21.964-10.145-32.98c-1.174-3.846-1.769-7.871-2.258-10.104
		c13.413-5.118,24.801-10.3,36.715-13.523c3.713-1.001,10.801,2.07,12.949,5.439c4.594,7.212,5.475,17.041,10.696,23.53
		c4.877,6.059,12.957,10.877,20.515,12.844c3.448,0.9,9.026-6.355,15.815-11.591c17.457,32.692,28.853,69.304,40.922,108.612
		c-22.076-7.594-38.912-14.936-56.504-18.98C429.585,478.576,413.208,476.658,397.59,477.912z M398.076,621.751
		c-4.125-4.33-13.746-10.82-3.446-19.076c9.106-7.303,16.047-6.311,24.873,2.535c12.218,12.244,26.516,22.553,40.602,32.75
		c8.5,6.15,18.287,10.52,27.497,15.689C452.914,655.9,422.126,647.003,398.076,621.751z M565.692,711.992
		c-19.701-9.613-38.409-18.742-57.116-27.871c0.727-1.408,1.447-2.814,2.173-4.223C535.931,679.082,568.697,690.496,565.692,711.992
		z M465.322,623.574c43.513-22.879,72.867,3.252,100.848,30.688C547.196,662.673,482.726,643.4,465.322,623.574z"/>
</g>
</svg>
