<?xml version="1.0" encoding="utf-8"?>
<!-- Generator: Adobe Illustrator 16.0.0, SVG Export Plug-In . SVG Version: 6.00 Build 0)  -->
<!DOCTYPE svg PUBLIC "-//W3C//DTD SVG 1.1//EN" "http://www.w3.org/Graphics/SVG/1.1/DTD/svg11.dtd">
<svg version="1.1" id="Layer_1" xmlns="http://www.w3.org/2000/svg" xmlns:xlink="http://www.w3.org/1999/xlink" x="0px" y="0px"
	 width="688.082px" height="737.535px" viewBox="0 0 688.082 737.535" enable-background="new 0 0 688.082 737.535"
	 xml:space="preserve">
<g id="Layer_4">
	<polygon fill="#14B217" points="11.567,257.082 131.817,206.561 152.524,204.066 264.791,249.909 308.761,269.555 296.289,292.321 
		293.17,309.785 316.558,354.691 324.251,383.535 329.261,423.199 326.398,460.105 323.109,488.476 328.097,514.046 340.64,538.076 
		338.379,556.181 348.679,605.732 409.492,646.583 470.613,667.791 570.719,726.73 574.461,707.085 552.32,681.515 539.533,667.792 
		563.234,661.556 643.474,653.814 672.652,644.736 681.738,632.554 632.152,644.093 567.601,644.093 551.695,628.814 
		528.617,596.691 504.917,576.732 510.844,532.138 499.615,480.996 465.626,387.937 439.429,353.134 425.394,335.67 
		425.394,312.282 425.394,303.239 423.525,287.333 417.599,272.677 410.738,256.772 414.17,240.868 417.599,209.683 
		412.297,187.229 403.283,166.444 376.344,119.817 328.681,80.445 289.308,53.505 209.526,19.313 	"/>
	<polygon fill="#FE0000" points="11.567,257.082 5.643,248.973 20.611,184.419 23.418,140.136 39.946,122.049 86.685,74.329 
		93.723,63.046 92.338,38.161 96.703,19.761 114.479,6.879 131.817,6.879 209.526,19.313 	"/>
	<polygon fill="#FE0000" points="175.279,190.507 227.253,190.507 266.233,202.202 319.506,230.787 351.99,282.759 359.398,301.827 
		359.398,364.936 371.478,411.395 377.203,450.453 380.404,481.822 402.172,504.871 418.177,517.035 414.335,579.777 
		436.103,613.07 477.078,639.958 517.412,661.726 552.32,681.515 573.381,712.751 562.583,721.941 491.34,679.994 427.174,648.281 
		356.715,615.63 338.15,582.98 338.379,556.181 340.64,538.076 323.424,504.232 324.064,479.902 326.398,460.105 331.105,413.319 
		314.461,349.295 301.611,330.222 291.621,296.677 304.857,279.511 299.826,265.563 245.139,241.884 156.07,205.514 164.008,195 	
		"/>
</g>
<g id="Layer_1_1_">
	<polygon fill="#E2C374" points="291.621,296.677 341.066,306.325 380.381,296.677 399.435,277.864 413.426,265.563 
		422.963,285.944 427.174,315.973 425.394,335.67 404.501,357.218 369.287,364.936 326.595,355.046 303.681,335.269 
		291.621,305.843 	"/>
	<path fill="#FFFFFF" d="M26.651,250.696c0.763-9.433,17.141-18.335,23.343-25.249c7.086-7.9,14.446-16.356,21.062-24.46
		c15.104-18.509,28.3-37.758,43.2-56.169c8.35-10.316,16.085-20.87,25.862-29.44c10.614-9.303,21.881-18.601,30.872-29.607
		c7.951-9.733,14.287-20.447,20.586-30.854c3.124-5.161,24.356-22.54,24.156-26.948c0.511-0.254,0.968-0.583,1.372-0.984
		c-8.724-0.371-21.686-9.932-29.035-9.038c-5.276,0.642-16.524,16.349-21.899,21.13c-14.926,13.271-24.632,29.117-35.819,44.601
		c-11.356,15.716-30.069,27.454-42.69,42.538c-13.782,16.471-27.567,36.485-40.197,54.141
		c-13.76,19.236-41.239,47.356-37.729,72.196c5.411,0.24,10.723,0.26,15.914-0.852"/>
</g>
<g id="Layer_3">
	<path d="M674.797,625.283c-10.015,1.203-19.621,5.41-29.582,7.482c-25.591,5.326-51.423,9.867-77.406,3.303
		c-13.961-3.525-15.262-8.801-6.734-19.971c7.791-10.205,5.623-16.711-7.012-19.416c-5.668-1.213-12.34,0.436-17.293-1.9
		c-8.933-4.211-17.918-9.439-24.787-16.328c-2.717-2.725-0.063-11.051,0.537-16.785c1.555-14.77,9.186-28.404,0.771-44.627
		c-6.903-13.311-7.51-29.768-11.91-44.527c-4.434-14.881-10.12-29.383-15.221-44.063c-10.088-29.057-18.418-58.703-43.129-80.366
		c-8.168-7.154-18.309-16.962-14.055-30.212c6.983-21.757-2.889-40.27-8.894-59.746c-1.793-5.822-4.338-12.888-2.604-18.066
		c7.713-23.009,2.938-43.507-4.207-66.311c-10.103-32.249-27.828-57.875-53.219-77.521c-40.338-31.217-79.937-64.152-130.842-78.469
		C194.89,8.099,160.835-2,124.678,0.373c-5.554,0.367-11.717,2.081-16.273,5.146c-19.839,13.32-23.264,27.433-14.682,57.526
		c1.205-5.978,1.125-11.783,3.534-16.243c5.28-9.764-6.354-25.981,9.942-30.392c11.506-3.11,24.128-2.102,36.256-2.901
		c0.959-0.062,1.962,0.055,2.905,0.27c23.661,5.313,47.38,10.391,70.962,16.036c52.196,12.494,92.043,46.291,133.034,77.96
		c6.988,5.397,8.369,9.758-2.881,13.732c-9.398,3.315-17.26,10.972-25.805,16.709c28.252-10.235,53.911-4.546,68.598,15.246
		c1.447,1.953,4.106,4.232,3.852,6.025c-2.62,18.33,12.943,28.748,18.658,43.423c6.853,17.588-2.998,31.917-6.938,47.425
		c-0.865,3.408-3.478,6.37-6.229,11.19c-5.746-8.341-10.521-15.27-13.949-20.245c4.48-9.741,8.103-17.61,11.72-25.479
		c-19.771,4.503-26.275,26.281-16.851,42.757c3.111,5.435,7.387,10.513,9.078,16.346c1.16,4.006,0.234,10.523-2.463,13.175
		c-2.381,2.348-8.891,2.163-12.898,0.91c-19.502-6.084-28.233-23.502-36.016-39.631c-6.959-14.431-16.066-25.31-29.713-32.192
		c-15.964-8.049-32.65-14.654-48.909-22.13c-3.921-1.804-7.402-4.571-9.114-5.651c23.286-16.969,45.654-33.27,68.018-49.573
		c-3.5,1.595-7.431,2.616-10.441,4.87c-33.399,24.958-70.814,37.559-112.545,38.097c-8.153,0.104-16.771,1.567-24.318,4.558
		c-38.538,15.285-76.755,31.38-115.17,46.971c-14.449,5.865-27.718,16.414-46.749,12.604c1.996-14.75,9.204-41.243,11.506-56.265
		c0.271,0.01,0.543,0.021,0.815,0.031c1.598-13.333,4.03-26.632,4.58-40.007c0.316-7.689,0.885-12.124,2.887-14.088
		c3.938-7.572,12.406-12.334,18.464-18.407c9.73-9.752,18.617-20.304,27.466-30.845c3.644-4.339,7.574-9.245,12.186-13.005
		c-0.17,0-0.338,0.002-0.509,0.002c-0.14,0.203-0.518,0.681-0.961,1.087c-18.8,17.275-37.973,34.166-56.211,52.015
		c-5.485,5.364-10.958,13.036-11.918,20.247c-1.871,14.05-0.548,28.524-0.548,42.82c0.149,0.007,0.298,0.012,0.446,0.018
		c-4.279,19.78-13.559,51.229-17.489,70.19c1.356,1.34,2.715,2.675,4.07,4.013c18.107-7.178,36.4-13.924,54.272-21.643
		c24.405-10.545,48.229-22.489,72.891-32.364c6.607-2.647,16.234-2.099,22.964,0.666c26.729,10.98,52.669,23.855,79.271,35.157
		c17.857,7.592,36.658,13,54.393,20.84c7.719,3.41,16.519,9.771,3.196,18.812c-2.599,1.761-4.938,6.848-4.363,9.814
		c2.281,11.781,5.936,23.28,8.767,34.958c4.597,18.926,28.074,28.629,25.093,51.311c-0.021,0.145,2.139,1.006,3.518,1.333
		c1.57,13.334,3.586,26.297,5.187,39.595c2.508-0.514,5.018-1.029,7.527-1.543c-4.181-12.707-8.359-25.412-12.539-38.121
		c-0.425-5.957-0.851-11.914-1.418-19.924c11.418,3.07,20.534,4.804,29.02,8.145c3.719,1.466,7.584,5.727,8.898,9.563
		c5.159,15.092,10.233,30.335,13.391,45.918c1.158,5.705-1.117,14.865-5.271,18.361c-11.379,9.578-24.586,16.984-37.946,25.83
		c-1.568-3.924-2.832-7.088-4.525-11.32c-13.283,29.955-14.979,56.734,13.668,80.711c1.066-5.521,2.465-9.832,2.635-14.197
		c0.416-10.713,0.144-21.447,0.38-32.168c0.477-21.766,9.241-31.311,32.686-34.908c0.332,6.834,1.947,13.82,0.715,20.262
		c-2.627,13.73,4,20.639,15.453,25.23c2.688,1.08,5.107,2.809,7.746,4.039c10.674,4.977,16.678,12.258,15.414,25.072
		c-1.336,13.555-0.519,27.338-2.109,40.848c-0.565,4.803-4.641,10.01-8.526,13.438c-8.754,7.73-18.052,14.992-27.845,21.346
		c-3.684,2.389-11,4.004-13.77,1.988c-5.951-4.322-11.869-10.523-14.453-17.24c-4.543-11.807-6.578-24.582-10.012-38.344
		c-0.953,4.629-2.232,8.564-2.519,12.574c-2.088,29.318,19.974,64.939,47.617,75.117c18.148,6.688,37.166,11.002,55.389,17.498
		c14.332,5.109,28.654,10.844,41.918,18.209c32.666,18.146,64.72,37.393,100.074,57.977c7.799-33.586-13.949-49.371-31.268-70.777
		c33.826-4.676,64.395-8.895,93.883-12.967c-2.127-0.83-5.758-2.25-10.275-4.016c7.729-3.139,13.8-7.166,20.203-7.787
		c6.756-0.648,14.324,4.01,20.607,2.5c5.373-1.297,9.434-8.043,14.076-12.377C683.636,629.689,678.892,624.794,674.797,625.283z
		 M338.914,519.138c-15.743-15.801-15.711-21.291,1.73-34.398C340.002,497.494,339.513,507.208,338.914,519.138z M513.564,599.472
		c0.435,0.43-4.34,9.016-7.488,9.623c-8.977,1.732-18.368,1.307-27.602,1.73c-6.813-0.014-13.621,0.014-20.433-0.021
		c-24.946-0.123-39.143-10.697-40.782-39.057c-1.361-23.51,2.737-47.424,5.696-70.996c0.408-3.24,9.263-8.777,12.416-7.748
		c17.74,5.773,36.011,11.441,51.818,20.941c6.891,4.143,10.736,17.045,11.797,26.438
		C501.295,560.794,496.476,582.56,513.564,599.472z M450.379,378.609c1.125,1.436-3.041,7.02-4.759,10.686
		c-7.901-7.226-16.272-14.012-23.553-21.814c-5.096-5.459-10.857-12.028-0.729-22.232
		C431.726,356.917,441.56,367.366,450.379,378.609z M272.525,246.911c-35.208-12.863-72.284-21.197-107.967-45.382
		c43.071-18.27,76.924,0.126,112.871,12.985c41.119,14.711,55.507,50.489,77.312,87.21c-13.276-2.307-23.971-4.168-34.668-6.024
		c0.131-1.883,0.26-3.765,0.394-5.652c5.194-0.495,10.391-0.985,17.309-1.649C319.648,267.122,296.812,255.779,272.525,246.911z
		 M300.859,319.858c-2.031-5.99-2.965-12.353-4.039-16.96c17.824,3.85,33.867,9.205,50.178,10.202
		c12.089,0.737,25.71-1.884,36.419-7.363c8.157-4.179,12.786-15.217,19.043-23.156c2.754-3.502,5.646-6.895,8.477-10.332
		c2.215,3.413,5.328,6.553,6.451,10.297c2.219,7.4,3.668,15.083,4.846,22.738c4.336,28.259-2.318,40.606-28.467,51.005
		C368.508,366.333,312.601,354.487,300.859,319.858z M397.677,477.892c-14.791,1.189-17.729-5.195-18.347-16.961
		c-0.735-14.057-0.707-28.271-3.004-42.09c-1.869-11.24-6.778-21.965-10.145-32.98c-1.174-3.847-1.769-7.872-2.258-10.105
		c13.412-5.117,24.801-10.299,36.715-13.522c3.713-1.001,10.801,2.07,12.947,5.439c4.596,7.212,5.477,17.041,10.698,23.531
		c4.875,6.059,12.957,10.877,20.515,12.844c3.449,0.899,9.028-6.356,15.815-11.592c17.457,32.693,28.853,69.305,40.922,108.613
		c-22.075-7.596-38.911-14.938-56.506-18.98C429.676,478.556,413.297,476.638,397.677,477.892z M398.164,621.732
		c-4.122-4.33-13.743-10.818-3.444-19.076c9.106-7.303,16.047-6.311,24.873,2.535c12.217,12.244,26.516,22.553,40.602,32.75
		c8.5,6.15,18.287,10.52,27.496,15.689C453.004,655.88,422.213,646.984,398.164,621.732z M565.781,711.974
		c-19.698-9.613-38.408-18.742-57.114-27.873c0.725-1.406,1.446-2.813,2.172-4.223C536.021,679.064,568.787,690.476,565.781,711.974
		z M465.412,623.554c43.513-22.879,72.865,3.252,100.847,30.689C547.285,662.654,482.816,643.38,465.412,623.554z"/>
</g>
</svg>
