<?xml version="1.0" encoding="utf-8"?>
<!-- Generator: Adobe Illustrator 16.0.0, SVG Export Plug-In . SVG Version: 6.00 Build 0)  -->
<!DOCTYPE svg PUBLIC "-//W3C//DTD SVG 1.1//EN" "http://www.w3.org/Graphics/SVG/1.1/DTD/svg11.dtd">
<svg version="1.1" id="Layer_1" xmlns="http://www.w3.org/2000/svg" xmlns:xlink="http://www.w3.org/1999/xlink" x="0px" y="0px"
	 width="688.082px" height="737.535px" viewBox="0 0 688.082 737.535" enable-background="new 0 0 688.082 737.535"
	 xml:space="preserve">
<g id="Layer_4">
	<polygon fill="#FFFFFF" points="131.722,7.568 209.431,20.003 289.214,54.194 328.588,81.134 376.248,120.506 403.189,167.132 
		412.203,187.918 417.506,210.372 414.076,241.557 410.644,257.461 417.506,273.365 423.431,288.022 425.301,303.927 
		425.301,312.971 425.301,336.359 439.333,353.823 465.531,388.626 499.521,481.685 510.751,532.828 504.824,577.421 
		528.523,597.38 551.601,629.501 567.508,644.783 632.058,644.783 681.644,633.244 672.558,645.425 643.381,654.503 563.14,662.246 
		539.439,668.484 552.224,682.205 574.367,707.773 570.626,727.419 470.519,668.48 409.398,647.275 348.586,606.421 
		338.285,556.871 340.547,538.765 328.004,514.738 323.015,489.166 326.302,460.794 329.167,423.888 324.156,384.223 
		316.465,355.381 293.075,310.473 296.193,293.009 308.667,270.244 264.697,250.597 152.429,204.756 131.722,207.25 11.472,257.771 
		5.547,249.662 20.516,185.108 23.323,140.825 39.85,122.737 86.59,75.018 93.627,63.735 92.243,38.85 96.608,20.45 114.383,7.568 	
		"/>
</g>
<g id="Layer_1_1_">
	<polygon fill="#E2C374" points="291.526,297.365 340.972,307.014 380.287,297.365 399.342,278.552 413.333,266.252 
		422.869,286.633 427.08,316.662 425.301,336.359 404.408,357.907 369.193,365.624 326.502,355.736 303.586,335.958 
		291.526,306.531 	"/>
	<g>
		<g>
			<g>
				<path fill="#2F85F4" d="M61.839,188.149c-0.076-1.245-0.132-2.496-0.129-3.755c0.021-7.391,0.715-14.611,1.036-21.883
					c0.299-6.752-1.236-13.313-0.522-19.97c0.809-7.566,1.514-15.112,2.266-22.704c0.291-2.927,0.545-6.201,1.165-9.051
					c0.709-3.265,3.804-7.892,5.606-10.59c7.729-11.57,2.949-8.648,11.396-18.91l2.724-4.443c-1.895,2.838-3.906,5.278-6.2,8.064
					c-8.447,10.261-13.644,23.05-22.885,32.59c-2.258,2.332-4.472,4.241-5.182,7.506c-0.619,2.85-0.875,6.124-1.165,9.051
					c-0.752,7.592-1.456,15.139-2.267,22.705c-0.712,6.657,0.822,13.217,0.523,19.97c-0.222,5.013-0.608,10.005-0.843,15.042
					c-0.106,2.27-0.188,4.545-0.192,6.841c-0.008,3.006,0.258,5.969,0.599,8.92l10.908-9.308L61.839,188.149z"/>
			</g>
			<path fill="#FFFFFF" d="M85.381,76.844c0.747-1.12,1.478-2.295,2.197-3.585L85.381,76.844z"/>
			<path fill="#FF0000" d="M47.77,207.532c3.433-0.705,7.063-0.829,10.396-2.054c1.804-0.662,3.565-1.408,5.313-2.189
				c6.186-2.766,12.113-6.064,18.439-8.478c10.696-4.081,21.751-5.366,32.346-9.884c9.78-4.17,19.68-8.954,28.97-13.511
				c7.909-3.879,18.023-4.984,24.79-9.32c11.438-7.33,27.256-3.793,40.328-4.564c12.083-0.713,22.137-3.374,33.206-8.117
				c5.893-2.525,10.175-6.778,16.033-9.287c2.427-1.04,4.988-1.077,7.322-2.085c1.732-0.748,3.301-2.264,5.121-3.057
				c5.43-2.367,11.471-2.507,16.694-5.245c4.065-2.131,7.557-4.869,11.729-6.913c5.025-2.462,9.625-5.668,14.558-7.997
				c3.559-1.681,7.381-2.811,10.836-4.67c3.443-1.854,7.006-3.558,10.344-5.678c4.824-3.062,6.998-7.348,10.676-11.267
				l-10.676-4.589c-3.338,2.12-6.899,3.825-10.344,5.678c-3.455,1.859-7.277,2.989-10.836,4.67
				c-4.933,2.329-9.531,5.535-14.558,7.997c-4.172,2.043-7.663,4.781-11.729,6.913c-5.224,2.738-11.265,2.878-16.694,5.245
				c-1.82,0.793-3.389,2.309-5.121,3.057c-2.334,1.008-4.896,1.045-7.322,2.085c-5.858,2.509-10.142,6.762-16.033,9.287
				c-11.069,4.744-21.123,7.403-33.206,8.117c-13.072,0.771-28.89-2.766-40.328,4.564c-6.767,4.337-16.881,5.441-24.79,9.32
				c-9.29,4.557-19.188,9.341-28.97,13.512c-10.595,4.517-21.648,5.803-32.346,9.883c-6.884,2.626-13.295,6.301-20.08,9.194
				L47.77,207.532z"/>
		</g>
	</g>
	<path fill="#2F85F4" d="M23.29,235.321c0.359-5.256,0.633-8.711,0.626-14.091c-0.007-6.442,0.559-13.042,1.651-19.356
		c0.877-5.062,2.933-9.564,3.619-14.694c1.228-9.174,0.31-18.946,0.415-28.27c0.055-4.885,1.042-8.371,2.723-12.876
		c1.61-4.321,1.386-9.393,3.608-13.446c3.508-6.39,12.133-13.258,13.323-20.442c-4.107,2.699-7.744,6.909-11.323,10.266
		c-4.002,3.755-10.668,8.516-13.336,13.39c-3.922,7.163-4.586,19.512-5.5,27.844c-0.941,8.595,1.842,17.216,0.468,25.693
		c-1.592,9.818-5.014,19.571-6.896,29.684c-1.627,8.735-5.732,17.23-7.456,25.901c-0.813,4.081-2.837,4.782-0.979,6.405
		l18.934-14.215L23.29,235.321z"/>
	<path fill="#FFD101" d="M22.604,250.191c0-4.42,0.27-8.751,0.563-13.078"/>
	<path fill="#1FD300" d="M19.107,238.823c4.016-0.825,7.206-4.421,11.421-5.707c5.729-1.749,11.691-3.384,17.448-5.322
		c11.683-3.934,23.055-8.925,34.226-14.213c3.375-1.599,6.547-4.08,9.877-5.782c6.613-3.38,13.484-3.408,20.283-5.366
		c5.849-1.686,11.543-3.701,17.313-5.601c5.023-1.654,9.846-5.162,14.573-6.874c5.516-1.997,11.217-3.565,16.576-5.775
		c2.964-1.221,6.332-3.411,9.368-3.987c7.514-1.428,17.076,0.125,24.779,0.032c6.884-0.083,12.969-2.015,19.573-3.5
		c10.661-2.397,21.761-3.938,32.308-7.44c23.059-7.656,46.693-20.157,66.546-34c7.008-4.887,13.604-9.103,21.35-13.019
		c4.027-2.037,16.988-9.872,20.191-7.169c8.863,7.479-11.875,16.167-16.635,17.369c-16.592,4.193-29.289,12.55-42.736,22.398
		c-15.238,11.162-34.125,23.168-52.956,25.352c-8.519,0.988-16.66,3.982-25.252,4.82c-6.92,0.675-13.472,1.292-20.242,3.083
		c-13.207,3.495-27.458,4.932-40.162,9.465c-11.679,4.167-22.276,10.232-33.731,14.198c-9.402,3.255-17.783,6.516-27.156,9.631
		C85.281,225,74.508,230.23,63.58,234.362c-10.09,3.813-20.461,9.313-30.991,11.575c-5.613,1.205-10.824,2.984-16.465,4.199
		c-0.386-1.277-7.955-0.779-8.236-2.275c-0.342-1.801,6.689-5.609,7.36-7.225c3.453,0.75,3.47-1.911,5.609-3.563"/>
	<path fill="#1FD300" d="M378.935,440.646c3.283,2.109,3.99,6.313,6.678,9.086c2.08,2.15,7.15,5.076,9.623,6.797
		c5.353,3.719,11.697,4.535,18.584,5.668c18.256,3.002,38.033,6.998,56.34,11.316c8.39,1.979,18.492,3.557,24.988,9.051
		c7.449,6.299,6.863,17.529,9.533,26.348c-8.951-5.377-16.012-8.695-27.17-8.695c-6.777,0-12.478,0.693-18.295-2.262
		c-4.252-2.158-7.562-5.559-12.359-7.191c-9.66-3.287-22.26-0.791-33.057-0.816c-13.339-0.035-23.283,1.715-32.693-7.611
		c-0.59-9.119-1.316-33.029-14.361-28.865c-6.854,2.188-12.33,10.064-18.661,13.865c-3.3,1.98-6.869,3.43-10.044,5.797
		c-1.594,1.188-6.627,7.738-8.592,7.828c-4.742,0.217-4.084-11.65-3.922-15.631c0.33-8.104,0.603-15.377,7.396-19.926
		c12.504-8.369,27.526-10.51,37.266-22.541c1.898-2.351,1.568-4.158,4.518-4.724c0.375,3.833,1.781,6.888,2.175,10.866
		c0.414,4.188-1.156,8.939,1.368,12.324"/>
	<path fill="#1FD300" d="M417.279,644.005c11.404,8.414,33.715-2.324,46.56-3.576c13.912-1.355,30.129,4.525,43.692,9.016
		c9.957,3.295,25.646,1.123,35.15-2.701c6.352-2.557,7.992-6.861,14.358-4.502c4.089,1.514,13.373,6.805,12.925,12.033
		c-0.527,6.1-13.019,9.285-18.3,9.736c-10.877,0.928-22.237-0.754-33.016-2.236c-14.662-2.021-29.119,1.592-43.752,2.121
		c-21.127,0.764-42.334-8.551-59.674-19.207"/>
	<path fill="#2F85F4" d="M334.851,277.685c-9.648-0.349-21.877-1.794-29.865-6.848l1.369,1.369
		c-3.371,3.163,2.025,15.652,3.42,19.721c2.051,5.974,8.881,5.87,15.234,8.865c5.68,2.678,11.846,5.955,17.787,6.182
		c6.307,0.242,11.467-2.323,17.838-3.218l-15.631-26.145C342.242,276.856,339.179,277.841,334.851,277.685z"/>
	<path fill="#1FD300" d="M384.447,298.426c5.693-2.553,8.65-14.615,10.386-19.921c0.811-2.485,0.815-9.053,2.862-11.042
		c2.359-2.291,6.658-0.69,9.535-4.313c3.408-4.291,7.873-18.335,7.17-23.638c-5.24,8.106-15.604,13.634-24.045,17.9
		c-1.729-3.93-3.824-10.188-7.824-7.814c-3.543,2.102-3.623,12.951-5.651,16.43c-2.474,4.238-4.711,11.381-8.218,14.925
		c-3.584,3.624-10.895,2.726-12.709,7.868l5.689,9.513C368.183,298.456,379.537,300.628,384.447,298.426z"/>
	<path fill="#2F85F4" d="M287.696,240.709c-10.781,0.944-22.233,6.834-33.379,5.478l2.055,1.37c2.133,0.845,4.787,1.131,6.881,2.169
		c4.709,2.331,8.353,6.368,13.511,8.276c6.437,2.379,17.146,4.229,24.23,3.3c7.974-1.044,13.695-5.823,21.947-6.213
		c4.451-0.211,6.924-0.271,9.047,0.754l-12.899-21.578C308.59,235.697,298.644,239.752,287.696,240.709z"/>
	<path fill="#FF0000" d="M389.855,233.675c2.746-0.139,5.635-0.793,8.254-1.182c6.676-0.991,11.808,0.451,18.381-0.068
		c4.304-11.533,2.631-19.816-2.049-31.387c-1.766,1.382-5.889,3.537-7.852,4.079c-6.168,1.709-6.763-0.205-10.539-2.9
		c-4.377-3.123-6.81-6.884-10.492-0.551c-1.426,2.454-0.234,6.033-1.816,8.265c-1.508,2.125-4.975,2.271-6.896,3.353
		c-4.898,2.755-4.908,5.497-7.979,9.642c-5.08,6.862-18.084,15.096-25.521,19.173c-5.004,2.747-9.795,3.881-13.705,2.711
		l15.863,26.534c4.28-0.436,12.623-8.435,15.969-10.777c3.381-2.368,6.529-5.267,9.895-7.549c2.32-1.574,8.992-2.875,10.32-4.231
		c3.154-3.219-0.105-10.139,0.055-15.503C384.791,232.896,387.412,233.798,389.855,233.675z"/>
	<path fill="#FF0000" d="M489.174,443.382c-4.361-1.439-9.771-1.35-14.382-1.367c-9.325-0.039-16.016-1.857-25.401-3.322
		c-14.603-2.281-29.381-1.695-43.563-5.465c-8.703-2.314-17.67-6.248-24.653-11.871c-8.291-6.674-10.738-16.295-13.3-26.486
		c-6.981-0.709-15.106,7.775-21.807,9.785c-4.412,1.324-10.729,3.547-15.629,3.055c-1.529-6.971-5.24-13.428-7.393-20.369
		c15.778,1.246,26.811-17.836,41.438-19.185c1.223,6.587-2.342,7.283,1.476,12.75c2.108,3.021,5.231,6.342,7.993,8.573
		c7.912,6.397,18.697,11.315,27.607,15.574c8.838,4.226,16.664,4.009,26.022,4.78c5.537,0.457,10.052,2.061,15.746,2.053
		c8.252-0.012,20.521-0.049,25.234-8.098c0.039,0.357-1.354-0.731-1.25-0.633c7.693-3.736,17.953,30.986,19.119,36.803"/>
	<path fill="#FF0000" d="M505.605,565.263c-3.529,1.648-7.211-0.355-10.92-0.721c-5.965-0.586-12.008,0.465-17.82,0.736
		c-13.76,0.643-24.674-0.191-37.619-4.145c-6.483-1.979-18.887-5.152-22.151-12.117c-1.683-3.588-0.306-9.932-0.349-13.896
		c-0.047-4.33-1.608-7.404-1.776-11.404c-13.582,7.717-27.367,17.703-40.842,24.982c-10.269,5.545-23.72,15.77-36.171,13.723
		c-1.026-5.9,1.404-12.285,1.302-18.385c-0.045-2.576-1.363-5.412-0.736-8.215c1.213-5.418,1.111-3.721,5.492-5.48
		c11.791-4.742,26.25-5.576,38.213-10.803c7.609-3.324,14.531-8.607,21.359-13.184c4.729-3.172,13.104-12.68,16.463-6.807
		c2.723,4.758-2.049,13.504-0.717,18.469c1.518,5.65,11.094,11.686,17.043,13.613c14.721,4.766,32.182,6.246,47.557,6.926
		c8.508,0.377,16.559-4.688,24.361-3.332c0.26,10.137-0.968,20.242-1.316,30.037"/>
	<path fill="#FF0000" d="M473.426,637.16c10.123,3.178,20.871-5.645,30.106-9.279c7.521-2.961,25.154-6.855,25.949-16.637
		c-11.215-0.574-18.537-4.121-29.477-8.066c-4.836-1.744-10.904-3.873-16.007-3.678c-5.293,0.203-7.526,3.139-12.114,5.514
		c-7.226,3.736-15.953,4.73-22.922,8.336c-7.029,3.635-12.875,6.932-21.363,8.742c-11.846,2.527-24.592,4.535-36.758,5.482
		c-4.955,0.385-23.138,3.563-26.711-0.293c-1.24-1.338-0.611-9.309-0.296-11.352c1.175-7.582,5.207-16.133,13.044-17.646
		c6.922-1.34,14.182,1.598,21.069,1.896c20.281,0.889,39.979-1.121,60.232-1.299c0.543,4.441-1.927,9.869-2.539,14.355
		c-1.219,8.896-1.086,8.693,3.424,12.945c3.992,3.764,10.975,9.064,15.727,11.66"/>
	<path fill="#1FD300" d="M416.594,574.164c4.475,2.807,7.555,6.154,11.073,9.436c7.953,7.41,16.453,6.504,27.229,7
		c9.279,0.428,18.258,1.885,27.699,1.232c9.485-0.66,23.949-6.213,31.057,0.1c5.998,5.328,7.226,9.652,1.709,15.234
		c-7.022,7.107-8.348,4.947-16.924,5.189c-4.404,0.125-7.859,2.648-12.107,3.496c-4.969,0.99-10.207,0.305-15.479,0.748
		c-10.959,0.924-25.08,5.146-35.599-0.084c-1.622-0.807-4.25-5.201-5.071-6.5c-4.795-0.158-7.89-4.563-12.728-5.188
		c-0.254-4.535-2.996-12.656-8.102-12.773c-5.139-0.115-15.939,9.936-20.168,13.072c-5.035,3.738-9.844,10.889-15.729,13.025
		c-6.176,2.244-11.454-1.729-16.432-5.129c-4.498-3.076-10.543-6.619-10.271-12.809c0.266-6.09,9.969-8.963,15.747-11.674
		c14.144-6.631,30.794-13.256,43.121-23.434c3.949-3.264,8.173-7.408,10.336-11.945c-0.157,6.555-0.088,12.561-1.557,18.844
		c0.146,0.799,0.648,1.061,1.506,0.787"/>
	<path fill="#2F85F4" d="M374.814,426.935l-2.244-7.752c-0.858,0.877-1.162,2.166-2.395,3.689
		c-9.738,12.035-24.763,14.172-37.267,22.543c-6.795,4.547-7.065,11.824-7.395,19.924c-0.164,3.982-0.822,15.848,3.922,15.633
		c1.965-0.09,6.998-6.641,8.59-7.828c3.174-2.367,6.744-3.818,10.045-5.799c6.33-3.801,11.808-11.678,18.66-13.865
		c4.959-1.582,8.135,0.896,10.203,5.072l-0.254-4.051L374.814,426.935z"/>
	<path fill="#2F85F4" d="M475.427,640.759c-3.97-0.512-7.869-0.682-11.604-0.318c-12.844,1.252-35.153,11.99-46.559,3.576
		l-2.055,0.686c17.34,10.654,38.549,19.969,59.674,19.205c14.633-0.529,29.09-4.141,43.752-2.121
		c10.778,1.484,22.139,3.164,33.016,2.236l-52.102-11.756L475.427,640.759z"/>
	<path fill="#2F85F4" d="M359.783,369.211c-12.412,4.255-22.698,19.251-36.75,18.143c2.152,6.94,5.863,13.399,7.394,20.369
		c4.897,0.493,11.217-1.729,15.629-3.056c5.977-1.793,13.088-8.721,19.51-9.695l-6.635-22.928L359.783,369.211z"/>
	<path fill="#2F85F4" d="M403.808,506.205c-0.078,0.055-0.16,0.113-0.236,0.164c-6.828,4.578-13.75,9.857-21.358,13.184
		c-11.963,5.229-26.42,6.061-38.213,10.803c-4.38,1.762-4.279,0.061-5.492,5.479c-0.627,2.803,0.69,5.641,0.735,8.217
		c0.104,6.102-2.328,12.482-1.301,18.385c12.451,2.049,25.902-8.178,36.17-13.725c13.478-7.279,27.263-17.266,40.842-24.98
		c0.07,1.66,0.382,3.166,0.726,4.662c-0.543-6.295-1.683-11.092-3.728-12.922L403.808,506.205z"/>
	<path fill="#2F85F4" d="M430.17,610.029c-4.798-0.158-7.892-4.564-12.728-5.188c-0.074-1.307-0.359-2.91-0.844-4.535
		c-6.189,0.143-12.398,0.16-18.664-0.113c-0.787-0.033-1.58-0.105-2.375-0.197c-2.586,2.074-4.898,4.041-6.387,5.145
		c-5.037,3.738-9.845,10.891-15.729,13.025c-3.514,1.277-6.733,0.541-9.776-0.957c-0.308,3.002-0.607,8.945,0.448,10.086
		c3.574,3.857,21.756,0.676,26.711,0.291c12.166-0.947,24.912-2.955,36.759-5.48c4.526-0.967,8.297-2.363,11.899-4
		c-1.465-0.387-2.885-0.9-4.244-1.576C433.617,615.722,430.99,611.328,430.17,610.029z"/>
	<path fill="#2F85F4" d="M376.865,598.294c6.131-1.186,12.525,0.98,18.695,1.701c4.754-3.814,10.451-8.004,13.779-7.928
		c3.637,0.084,6.065,4.225,7.26,8.238c1.406-0.029,2.813-0.055,4.219-0.1l-8.164-13.023c0,0,2.092-16.322,3.01-33.48
		c-2.231,4.33-6.26,8.285-10.055,11.418c-12.326,10.178-28.979,16.803-43.121,23.436c-5.776,2.709-15.481,5.584-15.748,11.672
		c-0.271,6.191,5.773,9.732,10.271,12.809c2.146,1.467,4.35,3.037,6.656,4.172c0.055-0.52,0.106-0.963,0.153-1.264
		C364.996,608.361,369.029,599.81,376.865,598.294z"/>
	<path fill="#2F85F4" d="M373.445,618.166c5.885-2.135,10.691-9.287,15.729-13.025c1.487-1.104,3.801-3.07,6.387-5.145
		c-6.17-0.721-12.564-2.887-18.695-1.701c-7.836,1.516-11.869,10.066-13.043,17.65c-0.047,0.301-0.1,0.744-0.153,1.264
		C366.711,618.707,369.931,619.443,373.445,618.166z"/>
</g>
<g id="Layer_3">
	<path d="M674.703,625.974c-10.014,1.201-19.62,5.408-29.582,7.482c-25.59,5.326-51.422,9.865-77.405,3.301
		c-13.961-3.525-15.263-8.801-6.734-19.971c7.789-10.203,5.621-16.711-7.012-19.414c-5.668-1.215-12.34,0.434-17.295-1.902
		c-8.931-4.211-17.916-9.439-24.785-16.328c-2.717-2.725-0.063-11.051,0.535-16.785c1.555-14.77,9.188-28.404,0.772-44.627
		c-6.903-13.311-7.512-29.768-11.91-44.527c-4.434-14.881-10.121-29.383-15.221-44.064c-10.088-29.055-18.416-58.701-43.129-80.364
		c-8.17-7.155-18.312-16.962-14.057-30.211c6.985-21.758-2.888-40.271-8.892-59.746c-1.793-5.822-4.338-12.889-2.604-18.066
		c7.713-23.01,2.938-43.506-4.207-66.312c-10.104-32.249-27.828-57.875-53.22-77.521C319.623,65.7,280.024,32.765,229.118,18.447
		C194.795,8.789,160.74-1.311,124.583,1.062c-5.553,0.366-11.715,2.082-16.272,5.146C88.471,19.528,85.045,33.64,93.627,63.734
		c1.205-5.979,1.125-11.782,3.535-16.243c5.28-9.764-6.354-25.981,9.943-30.392c11.505-3.109,24.127-2.103,36.255-2.901
		c0.96-0.063,1.962,0.054,2.905,0.269c23.66,5.313,47.381,10.39,70.963,16.036c52.194,12.494,92.044,46.292,133.034,77.96
		c6.988,5.398,8.369,9.758-2.881,13.731c-9.398,3.315-17.263,10.973-25.808,16.71c28.254-10.234,53.912-4.546,68.601,15.246
		c1.446,1.953,4.104,4.232,3.852,6.025c-2.621,18.33,12.943,28.748,18.66,43.423c6.85,17.588-3,31.918-6.939,47.425
		c-0.864,3.409-3.479,6.371-6.229,11.191c-5.748-8.341-10.521-15.27-13.949-20.246c4.48-9.741,8.1-17.61,11.719-25.478
		c-19.77,4.502-26.276,26.28-16.85,42.756c3.111,5.435,7.387,10.512,9.078,16.346c1.16,4.007,0.234,10.524-2.463,13.176
		c-2.383,2.347-8.892,2.162-12.898,0.909c-19.502-6.085-28.233-23.503-36.016-39.632c-6.959-14.43-16.066-25.309-29.713-32.192
		c-15.966-8.048-32.65-14.653-48.909-22.13c-3.921-1.803-7.403-4.571-9.115-5.65c23.287-16.97,45.655-33.271,68.02-49.573
		c-3.503,1.594-7.431,2.616-10.443,4.869c-33.399,24.959-70.813,37.559-112.544,38.096c-8.154,0.104-16.772,1.568-24.319,4.559
		c-38.537,15.285-76.754,31.38-115.169,46.971c-14.451,5.864-27.719,16.413-46.749,12.603c1.995-14.749,9.202-41.242,11.505-56.264
		c0.271,0.01,0.544,0.022,0.816,0.032c1.597-13.333,4.028-26.632,4.58-40.007c0.315-7.689,0.884-12.124,2.886-14.088
		c3.938-7.574,12.407-12.334,18.465-18.407c9.729-9.753,18.617-20.303,27.465-30.845c3.645-4.339,7.574-9.246,12.186-13.005
		c-0.171,0-0.339,0.002-0.509,0.002c-0.14,0.203-0.517,0.681-0.961,1.087c-18.8,17.274-37.973,34.166-56.211,52.016
		c-5.485,5.363-10.958,13.036-11.918,20.247c-1.872,14.051-0.548,28.523-0.548,42.82c0.148,0.007,0.298,0.012,0.446,0.019
		c-4.279,19.779-13.56,51.227-17.488,70.189c1.355,1.34,2.713,2.675,4.069,4.013c18.107-7.179,36.4-13.924,54.272-21.643
		c24.405-10.545,48.229-22.488,72.891-32.364c6.606-2.648,16.235-2.098,22.964,0.666c26.728,10.981,52.669,23.855,79.271,35.158
		c17.859,7.591,36.658,12.999,54.393,20.839c7.719,3.411,16.52,9.771,3.196,18.812c-2.598,1.761-4.938,6.848-4.362,9.814
		c2.281,11.78,5.936,23.28,8.768,34.958c4.595,18.925,28.074,28.628,25.093,51.312c-0.021,0.145,2.137,1.006,3.518,1.332
		c1.57,13.334,3.586,26.297,5.187,39.598c2.508-0.516,5.018-1.031,7.526-1.545c-4.18-12.707-8.358-25.412-12.539-38.12
		c-0.426-5.958-0.848-11.917-1.418-19.925c11.418,3.071,20.535,4.804,29.021,8.144c3.719,1.466,7.584,5.728,8.896,9.563
		c5.162,15.091,10.236,30.334,13.394,45.916c1.157,5.707-1.117,14.867-5.271,18.363c-11.379,9.578-24.586,16.984-37.947,25.832
		c-1.569-3.926-2.831-7.09-4.526-11.322c-13.281,29.957-14.979,56.736,13.67,80.711c1.066-5.52,2.463-9.83,2.635-14.197
		c0.416-10.713,0.144-21.447,0.379-32.166c0.476-21.768,9.242-31.313,32.687-34.91c0.332,6.834,1.944,13.82,0.715,20.264
		c-2.627,13.73,4,20.637,15.451,25.23c2.688,1.08,5.108,2.809,7.748,4.037c10.672,4.98,16.678,12.262,15.414,25.072
		c-1.337,13.559-0.519,27.338-2.109,40.852c-0.566,4.801-4.644,10.008-8.527,13.436c-8.754,7.732-18.051,14.992-27.844,21.344
		c-3.686,2.389-11,4.004-13.77,1.992c-5.951-4.324-11.869-10.527-14.453-17.244c-4.545-11.805-6.578-24.582-10.013-38.342
		c-0.955,4.629-2.231,8.564-2.518,12.574c-2.088,29.316,19.973,64.938,47.617,75.117c18.147,6.688,37.164,11.002,55.389,17.5
		c14.332,5.107,28.654,10.842,41.918,18.209c32.666,18.145,64.719,37.391,100.072,57.977c7.801-33.588-13.947-49.373-31.269-70.781
		c33.828-4.672,64.396-8.893,93.886-12.965c-2.127-0.832-5.758-2.25-10.275-4.016c7.729-3.141,13.799-7.166,20.205-7.785
		c6.754-0.652,14.32,4.01,20.605,2.498c5.372-1.297,9.434-8.043,14.075-12.377C683.542,630.376,678.799,625.484,674.703,625.974z
		 M338.82,519.83c-15.746-15.801-15.711-21.293,1.73-34.4C339.908,498.183,339.42,507.898,338.82,519.83z M513.47,600.162
		c0.434,0.43-4.34,9.016-7.488,9.623c-8.977,1.73-18.369,1.307-27.602,1.729c-6.813-0.014-13.621,0.016-20.433-0.02
		c-24.947-0.121-39.143-10.699-40.783-39.059c-1.36-23.51,2.738-47.424,5.699-70.994c0.406-3.24,9.26-8.777,12.414-7.748
		c17.74,5.771,36.008,11.439,51.818,20.939c6.891,4.146,10.735,17.045,11.797,26.439
		C501.201,561.486,496.381,583.251,513.47,600.162z M450.283,379.298c1.125,1.436-3.041,7.02-4.756,10.686
		c-7.904-7.227-16.272-14.011-23.553-21.815c-5.097-5.459-10.857-12.027-0.73-22.231
		C431.633,357.604,441.465,368.054,450.283,379.298z M272.43,247.599c-35.207-12.862-72.284-21.196-107.968-45.382
		c43.072-18.269,76.924,0.128,112.871,12.986c41.12,14.71,55.508,50.489,77.313,87.209c-13.277-2.307-23.971-4.167-34.668-6.024
		c0.131-1.884,0.26-3.766,0.393-5.652c5.195-0.496,10.392-0.987,17.31-1.65C319.554,267.81,296.718,256.468,272.43,247.599z
		 M300.765,320.547c-2.031-5.99-2.965-12.353-4.039-16.961c17.824,3.85,33.867,9.206,50.178,10.203
		c12.088,0.736,25.709-1.884,36.416-7.364c8.158-4.178,12.789-15.216,19.045-23.157c2.754-3.501,5.646-6.893,8.478-10.332
		c2.215,3.413,5.328,6.554,6.449,10.298c2.219,7.4,3.67,15.083,4.848,22.738c4.336,28.26-2.318,40.606-28.469,51.005
		C368.414,367.022,312.506,355.176,300.765,320.547z M397.585,478.583c-14.793,1.188-17.731-5.199-18.348-16.963
		c-0.735-14.057-0.707-28.273-3.004-42.091c-1.869-11.239-6.779-21.965-10.145-32.981c-1.177-3.846-1.769-7.871-2.259-10.104
		c13.414-5.119,24.802-10.301,36.716-13.524c3.711-1.001,10.801,2.071,12.946,5.44c4.597,7.213,5.478,17.041,10.699,23.53
		c4.875,6.06,12.957,10.878,20.514,12.845c3.449,0.898,9.027-6.355,15.816-11.591c17.457,32.69,28.853,69.304,40.922,108.612
		c-22.076-7.596-38.912-14.938-56.506-18.98C429.583,479.246,413.203,477.33,397.585,478.583z M398.07,622.421
		c-4.125-4.33-13.744-10.818-3.444-19.074c9.106-7.305,16.047-6.313,24.872,2.533c12.218,12.246,26.517,22.553,40.603,32.75
		c8.498,6.15,18.287,10.521,27.496,15.689C452.91,656.57,422.119,647.675,398.07,622.421z M565.687,712.664
		c-19.701-9.613-38.408-18.742-57.117-27.871c0.728-1.41,1.449-2.816,2.174-4.223C535.927,679.751,568.693,691.167,565.687,712.664z
		 M465.316,624.244c43.514-22.877,72.867,3.252,100.848,30.688C547.191,663.345,482.722,644.072,465.316,624.244z"/>
</g>
</svg>
