<?xml version="1.0" encoding="utf-8"?>
<!-- Generator: Adobe Illustrator 16.0.0, SVG Export Plug-In . SVG Version: 6.00 Build 0)  -->
<!DOCTYPE svg PUBLIC "-//W3C//DTD SVG 1.1//EN" "http://www.w3.org/Graphics/SVG/1.1/DTD/svg11.dtd">
<svg version="1.1" id="Layer_1" xmlns="http://www.w3.org/2000/svg" xmlns:xlink="http://www.w3.org/1999/xlink" x="0px" y="0px"
	 width="688.082px" height="737.535px" viewBox="0 0 688.082 737.535" enable-background="new 0 0 688.082 737.535"
	 xml:space="preserve">
<g id="Layer_4">
	<polygon fill="#8E0001" points="131.826,6.856 209.535,19.29 289.316,53.481 328.69,80.421 376.351,119.793 403.29,166.419 
		412.305,187.206 417.608,209.659 414.177,240.844 410.747,256.749 417.608,272.653 423.533,287.31 425.404,303.214 
		425.404,312.258 425.404,335.646 439.436,353.111 465.634,387.914 499.624,480.972 510.851,532.115 504.927,576.708 
		528.626,596.667 551.704,628.789 567.608,644.07 632.161,644.07 681.747,632.531 672.659,644.712 643.483,653.789 563.243,661.533 
		539.54,667.771 552.327,681.492 574.469,707.06 570.727,726.707 470.622,667.767 409.501,646.56 348.687,605.707 338.387,556.158 
		340.647,538.052 328.106,514.023 323.118,488.451 326.405,460.082 329.269,423.175 324.259,383.511 316.567,354.668 
		293.178,309.76 296.296,292.297 308.77,269.532 264.799,249.884 152.533,204.043 131.826,206.538 11.575,257.058 5.65,248.95 
		20.62,184.396 23.426,140.113 39.954,122.024 86.692,74.305 93.73,63.022 92.346,38.137 96.711,19.738 114.487,6.856 	"/>
</g>
<g id="Layer_1_1_">
	<polygon fill="#E2C374" points="291.629,296.653 341.076,306.302 380.389,296.653 399.445,277.839 413.434,265.54 422.969,285.92 
		427.182,315.949 425.404,335.646 404.509,357.194 369.296,364.912 326.604,355.023 303.688,335.245 291.629,305.819 	"/>
	<path fill="#FFFF03" d="M22.708,249.479c0-9.791,1.322-19.153,1.313-28.96c-0.008-6.443,0.558-13.042,1.649-19.357
		c0.878-5.062,2.934-9.564,3.619-14.694c1.229-9.174,0.313-18.945,0.416-28.269c0.055-4.885,1.042-8.372,2.723-12.875
		c1.61-4.321,1.387-9.394,3.608-13.446c3.507-6.39,12.132-13.258,13.324-20.442c-4.109,2.699-7.746,6.909-11.324,10.265
		c-4.002,3.755-10.668,8.516-13.337,13.39c-3.92,7.164-4.586,19.512-5.499,27.845c-0.943,8.595,1.842,17.217,0.467,25.692
		c-1.592,9.818-5.012,19.572-6.895,29.684c-1.626,8.736-5.733,17.23-7.456,25.901c-1.18,5.937-2.692,10.048,4.646,10.078
		c5.205,0.022,7.679-3.052,12.308-4.81"/>
	<path fill="#FFFF03" d="M19.209,238.111c4.017-0.824,7.207-4.421,11.422-5.707c5.73-1.75,11.691-3.384,17.448-5.323
		c11.684-3.933,23.054-8.925,34.226-14.213c3.376-1.598,6.546-4.08,9.878-5.781c6.612-3.38,13.483-3.408,20.282-5.367
		c5.85-1.686,11.542-3.7,17.313-5.601c5.022-1.653,9.844-5.162,14.572-6.874c5.516-1.997,11.217-3.566,16.576-5.775
		c2.963-1.221,6.332-3.41,9.368-3.987c7.515-1.427,17.075,0.125,24.779,0.033c6.883-0.083,12.968-2.015,19.574-3.5
		c10.661-2.397,21.76-3.938,32.307-7.44c23.06-7.656,46.693-20.158,66.546-34.001c7.009-4.887,13.603-9.103,21.35-13.02
		c4.027-2.036,16.987-9.872,20.191-7.169c8.862,7.479-11.875,16.167-16.636,17.369c-16.592,4.192-29.29,12.551-42.736,22.398
		c-15.237,11.162-34.124,23.168-52.955,25.352c-8.52,0.988-16.659,3.983-25.253,4.82c-6.92,0.676-13.472,1.293-20.24,3.084
		c-13.207,3.495-27.459,4.932-40.162,9.465c-11.681,4.167-22.278,10.231-33.732,14.198c-9.403,3.255-17.783,6.517-27.156,9.632
		c-10.787,3.584-21.56,8.814-32.489,12.945c-10.088,3.814-20.459,9.313-30.99,11.576c-5.614,1.205-10.825,2.984-16.464,4.199
		c-0.852-2.815-2.106-6.54-0.876-9.5c3.452,0.75,3.468-1.911,5.607-3.563"/>
	<path fill="#FFFF03" d="M379.038,439.933c3.283,2.109,3.99,6.314,6.679,9.086c2.08,2.15,7.148,5.076,9.622,6.797
		c5.353,3.721,11.695,4.535,18.584,5.67c18.257,3.002,38.033,6.998,56.34,11.314c8.39,1.98,18.492,3.557,24.986,9.049
		c7.451,6.301,6.865,17.531,9.534,26.352c-8.95-5.377-16.011-8.697-27.171-8.697c-6.777,0-12.475,0.695-18.293-2.26
		c-4.252-2.16-7.562-5.561-12.359-7.191c-9.661-3.289-22.261-0.791-33.058-0.82c-13.338-0.033-23.282,1.717-32.691-7.609
		c-0.591-9.121-1.317-33.029-14.363-28.865c-6.854,2.189-12.328,10.064-18.66,13.865c-3.299,1.979-6.869,3.43-10.043,5.797
		c-1.593,1.189-6.627,7.738-8.592,7.828c-4.743,0.215-4.085-11.65-3.922-15.631c0.33-8.102,0.602-15.377,7.395-19.926
		c12.506-8.369,27.528-10.508,37.266-22.541c1.901-2.35,1.569-4.16,4.52-4.723c0.376,3.835,1.781,6.887,2.175,10.865
		c0.412,4.189-1.157,8.939,1.367,12.326"/>
	<path fill="#FFFF03" d="M417.381,643.291c11.404,8.416,33.715-2.322,46.56-3.574c13.912-1.354,30.129,4.525,43.691,9.016
		c9.958,3.295,25.647,1.125,35.152-2.699c6.352-2.559,7.991-6.861,14.358-4.504c4.087,1.516,13.373,6.807,12.924,12.035
		c-0.527,6.098-13.018,9.283-18.299,9.732c-10.877,0.928-22.238-0.752-33.017-2.236c-14.663-2.02-29.118,1.594-43.754,2.123
		c-21.125,0.764-42.332-8.553-59.673-19.207"/>
	<path fill="#FFFF03" d="M305.089,270.125c7.987,5.053,20.216,6.498,29.863,6.847c6.094,0.22,9.676-1.839,13.442,1.904
		c2.929,2.911,3.66,7.419,7.395,10.181c1.212-6.218,9.185-4.983,12.976-8.816c3.506-3.544,5.744-10.688,8.216-14.925
		c2.03-3.479,2.11-14.328,5.653-16.43c3.998-2.374,6.092,3.884,7.824,7.815c8.44-4.266,18.803-9.795,24.045-17.9
		c0.702,5.303-3.763,19.347-7.17,23.638c-2.877,3.623-7.177,2.022-9.536,4.313c-2.046,1.989-2.053,8.557-2.863,11.042
		c-1.733,5.306-4.691,17.368-10.384,19.92c-5.414,2.429-18.689-0.472-24.68-0.064c1.823,1.698,1.469,3.071,1.945,5.238
		c-6.886,0.728-12.253,3.631-18.917,3.375c-5.943-0.228-12.106-3.505-17.788-6.182c-6.354-2.996-13.183-2.892-15.232-8.866
		c-1.396-4.069-6.791-16.559-3.422-19.721"/>
	<path fill="#FFFF03" d="M416.695,573.451c4.477,2.805,7.556,6.154,11.073,9.434c7.955,7.41,16.454,6.504,27.23,7.002
		c9.278,0.43,18.259,1.887,27.696,1.23c9.488-0.656,23.95-6.211,31.058,0.102c5.999,5.328,7.227,9.652,1.71,15.234
		c-7.021,7.107-8.347,4.945-16.923,5.189c-4.406,0.125-7.859,2.65-12.107,3.496c-4.969,0.99-10.209,0.305-15.479,0.748
		c-10.959,0.922-25.079,5.148-35.598-0.082c-1.623-0.807-4.25-5.203-5.072-6.502c-4.795-0.158-7.889-4.563-12.727-5.188
		c-0.254-4.533-2.998-12.656-8.104-12.773c-5.138-0.115-15.938,9.936-20.167,13.074c-5.034,3.738-9.843,10.887-15.729,13.023
		c-6.176,2.242-11.455-1.729-16.432-5.131c-4.498-3.074-10.543-6.615-10.272-12.809c0.267-6.088,9.97-8.961,15.749-11.672
		c14.141-6.631,30.794-13.258,43.12-23.436c3.95-3.262,8.173-7.408,10.337-11.943c-0.158,6.555-0.089,12.561-1.557,18.844
		c0.146,0.797,0.647,1.059,1.506,0.787"/>
	<path fill="#FFFF03" d="M32.747,226.878c7.703-2.365,14.849-6.145,22.267-9.383c7.553-3.296,16.325-4.393,24.305-7.713
		c8.727-3.631,16.426-9.024,25.291-12.271c7.848-2.875,15.688-5.656,23.206-8.047c15.628-4.969,29.974-12.855,45.632-16.892
		c8.109-2.09,15.852-2.518,24.541-2.904c8.576-0.381,15.049-5.616,23.261-5.616c9.751,0,18.666,0.146,27.615-3.622
		c9.052-3.812,18.11-8.602,27.087-12.817c9.492-4.456,19.771-6.559,28.318-12.779c4.664-3.394,8.836-7.086,13.572-10.381
		c4.758-3.31,8.778-3.873,14.072-5.899c4.516-1.727,7.807-4.747,11.729-7.109c4.871-2.932,12.682-9.353,17.906-10.184
		c0.916,3.792,3.286,8.443,2.811,12.379c-5.469,0.276-9.846-0.05-14.576,2.133c-4.395,2.028-7.707,5.503-11.973,8.187
		c-7.549,4.749-16.354,8.757-24.486,13.317c-9.42,5.284-17.939,12.018-27.993,16.374c-9.163,3.971-16.366,10.512-26.104,13.635
		c-8.674,2.781-13.453,6.134-22.187,7.467c-8.469,1.293-22.978,6.018-31.571,6.874c-20.556,2.047-47.783,2.298-61.431,8.654
		c-12.899,6.008-24.559,10.372-38.229,13.346c-10.197,2.218-19.198,8-28.335,12.448c-10.563,5.143-21.135,10.771-32.477,12.966
		c-8.297,1.606-16.764,3.847-19.563-5.604"/>
	<path fill="#FFFF03" d="M31.147,229.78c-1.519-3.218,0.194-8.049,0.429-11.628c0.295-4.499,0.564-8.598,1.195-12.889
		c1.275-8.666,1.845-16.933,3.443-25.399c1.763-9.319,1.308-18.041,1.816-27.54c0.529-9.843,3.646-17.978,6.43-27.128
		c2.029-6.671,6.431-11.593,8.486-18.021c-8.051,2.7-16.271,13.118-17.832,21.096c-1.635,8.348-6.832,17.735-8.271,26.024
		c-3.22,18.546-1.597,36.181-4.402,54.902c-0.953,6.353-2.646,13.588-1.623,20.153c1.697,10.929,3.466,10.439,6.025,8.86
		l19.116-7.725L31.147,229.78z"/>
</g>
<g id="Layer_3">
	<path d="M674.805,625.259c-10.014,1.203-19.621,5.41-29.582,7.482c-25.59,5.326-51.424,9.867-77.406,3.303
		c-13.962-3.525-15.262-8.801-6.734-19.971c7.789-10.205,5.622-16.711-7.012-19.414c-5.668-1.215-12.341,0.434-17.295-1.904
		c-8.932-4.209-17.916-9.438-24.785-16.326c-2.717-2.725-0.063-11.051,0.535-16.787c1.557-14.768,9.188-28.402,0.773-44.627
		c-6.904-13.309-7.512-29.766-11.91-44.523c-4.434-14.881-10.122-29.383-15.221-44.066c-10.091-29.055-18.417-58.701-43.131-80.363
		c-8.169-7.156-18.309-16.964-14.056-30.212c6.985-21.757-2.889-40.27-8.891-59.746c-1.793-5.822-4.338-12.889-2.604-18.066
		c7.715-23.01,2.94-43.506-4.208-66.311c-10.102-32.249-27.828-57.875-53.217-77.522c-40.339-31.216-79.938-64.151-130.842-78.469
		C194.897,8.076,160.842-2.023,124.686,0.35c-5.556,0.366-11.717,2.081-16.273,5.145C88.575,18.816,85.149,32.928,93.73,63.021
		c1.206-5.979,1.125-11.783,3.535-16.243c5.279-9.764-6.354-25.981,9.941-30.392c11.506-3.109,24.129-2.103,36.257-2.901
		c0.96-0.063,1.963,0.055,2.905,0.27c23.66,5.314,47.379,10.39,70.963,16.035c52.194,12.495,92.044,46.292,133.033,77.961
		c6.988,5.397,8.369,9.757-2.882,13.731c-9.396,3.315-17.261,10.973-25.806,16.71c28.254-10.235,53.912-4.546,68.6,15.245
		c1.447,1.953,4.105,4.232,3.853,6.026c-2.621,18.33,12.942,28.747,18.659,43.422c6.851,17.588-3,31.918-6.938,47.425
		c-0.867,3.409-3.479,6.372-6.229,11.191c-5.747-8.342-10.521-15.269-13.948-20.246c4.479-9.741,8.1-17.61,11.719-25.478
		c-19.771,4.502-26.276,26.28-16.851,42.756c3.111,5.434,7.388,10.512,9.078,16.346c1.16,4.006,0.232,10.523-2.463,13.176
		c-2.383,2.347-8.891,2.162-12.898,0.909c-19.501-6.085-28.233-23.503-36.016-39.632c-6.961-14.429-16.065-25.309-29.714-32.191
		c-15.964-8.048-32.649-14.653-48.908-22.13c-3.921-1.803-7.402-4.571-9.114-5.651c23.286-16.97,45.654-33.27,68.019-49.573
		c-3.502,1.595-7.43,2.616-10.443,4.869c-33.397,24.96-70.813,37.559-112.544,38.096c-8.152,0.104-16.771,1.568-24.318,4.56
		c-38.537,15.285-76.754,31.38-115.171,46.971c-14.448,5.864-27.717,16.413-46.746,12.603c1.993-14.748,9.201-41.242,11.504-56.264
		c0.271,0.01,0.544,0.022,0.816,0.032c1.597-13.334,4.028-26.632,4.579-40.007c0.317-7.689,0.884-12.124,2.886-14.088
		c3.938-7.574,12.406-12.335,18.466-18.407c9.729-9.752,18.616-20.304,27.467-30.845c3.642-4.339,7.572-9.246,12.183-13.006
		c-0.169,0-0.337,0.002-0.509,0.002c-0.139,0.204-0.516,0.681-0.96,1.087c-18.799,17.275-37.972,34.166-56.21,52.016
		c-5.486,5.364-10.959,13.036-11.918,20.247c-1.871,14.051-0.548,28.525-0.548,42.821c0.147,0.007,0.298,0.012,0.445,0.018
		c-4.278,19.78-13.561,51.228-17.487,70.19c1.354,1.34,2.713,2.675,4.068,4.013c18.107-7.179,36.401-13.924,54.272-21.643
		c24.404-10.545,48.229-22.489,72.891-32.364c6.607-2.648,16.235-2.099,22.963,0.666c26.729,10.981,52.67,23.856,79.271,35.158
		c17.858,7.591,36.66,12.999,54.394,20.839c7.721,3.41,16.52,9.77,3.194,18.812c-2.596,1.761-4.937,6.847-4.361,9.813
		c2.281,11.781,5.935,23.28,8.769,34.958c4.594,18.925,28.075,28.628,25.091,51.31c-0.021,0.146,2.139,1.006,3.52,1.334
		c1.569,13.334,3.586,26.297,5.185,39.596c2.51-0.514,5.019-1.029,7.527-1.543c-4.18-12.709-8.358-25.414-12.538-38.121
		c-0.426-5.959-0.85-11.916-1.418-19.925c11.416,3.071,20.535,4.805,29.02,8.145c3.717,1.465,7.584,5.726,8.896,9.563
		c5.16,15.09,10.234,30.334,13.393,45.916c1.158,5.707-1.118,14.867-5.27,18.363c-11.379,9.576-24.586,16.982-37.949,25.83
		c-1.568-3.926-2.83-7.088-4.525-11.322c-13.28,29.957-14.979,56.736,13.67,80.711c1.066-5.52,2.464-9.83,2.635-14.197
		c0.417-10.711,0.145-21.445,0.378-32.166c0.477-21.766,9.244-31.311,32.688-34.908c0.332,6.834,1.945,13.818,0.715,20.262
		c-2.628,13.729,4,20.639,15.451,25.23c2.688,1.08,5.109,2.809,7.747,4.037c10.673,4.979,16.679,12.26,15.415,25.072
		c-1.336,13.557-0.518,27.34-2.108,40.85c-0.566,4.801-4.644,10.01-8.527,13.438c-8.754,7.73-18.051,14.992-27.845,21.344
		c-3.685,2.389-11.001,4.004-13.77,1.99c-5.951-4.324-11.869-10.525-14.453-17.242c-4.545-11.805-6.577-24.582-10.012-38.342
		c-0.954,4.627-2.233,8.564-2.519,12.574c-2.088,29.316,19.974,64.936,47.616,75.117c18.149,6.688,37.165,11,55.392,17.498
		c14.328,5.109,28.652,10.844,41.917,18.209c32.666,18.146,64.719,37.393,100.071,57.977c7.8-33.586-13.947-49.371-31.268-70.779
		c33.827-4.674,64.396-8.893,93.885-12.965c-2.127-0.832-5.758-2.25-10.274-4.016c7.729-3.139,13.798-7.166,20.203-7.787
		c6.755-0.65,14.322,4.012,20.606,2.5c5.373-1.297,9.434-8.043,14.076-12.377C683.644,629.664,678.899,624.771,674.805,625.259z
		 M338.923,519.117c-15.746-15.803-15.712-21.293,1.729-34.402C340.01,497.47,339.522,507.183,338.923,519.117z M513.572,599.447
		c0.435,0.43-4.339,9.016-7.486,9.625c-8.979,1.732-18.37,1.305-27.603,1.729c-6.813-0.014-13.621,0.014-20.432-0.02
		c-24.947-0.123-39.144-10.699-40.783-39.059c-1.361-23.51,2.737-47.424,5.697-70.996c0.408-3.238,9.263-8.775,12.416-7.75
		c17.739,5.773,36.008,11.443,51.817,20.943c6.891,4.145,10.736,17.045,11.797,26.439
		C501.303,560.771,496.484,582.539,513.572,599.447z M450.385,378.585c1.125,1.436-3.041,7.02-4.756,10.686
		c-7.904-7.227-16.273-14.012-23.555-21.815c-5.097-5.459-10.856-12.027-0.73-22.232
		C431.735,356.892,441.567,367.342,450.385,378.585z M272.534,246.886c-35.208-12.862-72.284-21.195-107.967-45.382
		c43.072-18.268,76.923,0.127,112.871,12.987c41.118,14.71,55.506,50.489,77.313,87.209c-13.276-2.307-23.971-4.167-34.67-6.024
		c0.134-1.884,0.262-3.766,0.395-5.651c5.195-0.496,10.392-0.987,17.309-1.65C319.655,267.098,296.821,255.754,272.534,246.886z
		 M300.867,319.835c-2.029-5.991-2.965-12.354-4.038-16.961c17.824,3.85,33.867,9.206,50.178,10.203
		c12.089,0.736,25.71-1.884,36.417-7.364c8.159-4.178,12.789-15.216,19.044-23.157c2.755-3.501,5.646-6.893,8.478-10.332
		c2.215,3.413,5.328,6.554,6.449,10.298c2.219,7.4,3.67,15.083,4.847,22.738c4.337,28.26-2.316,40.606-28.468,51.005
		C368.516,366.31,312.609,354.463,300.867,319.835z M397.687,477.869c-14.792,1.188-17.731-5.197-18.347-16.961
		c-0.736-14.057-0.707-28.273-3.005-42.091c-1.869-11.239-6.779-21.964-10.145-32.979c-1.175-3.848-1.769-7.873-2.258-10.105
		c13.412-5.119,24.8-10.3,36.715-13.524c3.711-1.001,10.801,2.071,12.947,5.44c4.595,7.212,5.477,17.041,10.696,23.531
		c4.878,6.059,12.959,10.877,20.515,12.844c3.451,0.898,9.03-6.355,15.817-11.591c17.456,32.692,28.853,69.302,40.923,108.612
		c-22.076-7.596-38.912-14.936-56.507-18.98C429.682,478.533,413.303,476.615,397.687,477.869z M398.173,621.708
		c-4.124-4.33-13.744-10.82-3.446-19.076c9.108-7.303,16.048-6.311,24.873,2.535c12.218,12.244,26.517,22.553,40.603,32.75
		c8.498,6.148,18.286,10.521,27.496,15.689C453.012,655.857,422.222,646.96,398.173,621.708z M565.79,711.949
		c-19.7-9.613-38.407-18.74-57.116-27.871c0.727-1.408,1.448-2.814,2.172-4.223C536.029,679.037,568.796,690.453,565.79,711.949z
		 M465.419,623.531c43.513-22.877,72.867,3.252,100.848,30.688C547.294,662.63,482.826,643.359,465.419,623.531z"/>
</g>
</svg>
