<?xml version="1.0" encoding="utf-8"?>
<!-- Generator: Adobe Illustrator 16.0.0, SVG Export Plug-In . SVG Version: 6.00 Build 0)  -->
<!DOCTYPE svg PUBLIC "-//W3C//DTD SVG 1.1//EN" "http://www.w3.org/Graphics/SVG/1.1/DTD/svg11.dtd">
<svg version="1.1" id="Layer_1" xmlns="http://www.w3.org/2000/svg" xmlns:xlink="http://www.w3.org/1999/xlink" x="0px" y="0px"
	 width="688.082px" height="737.535px" viewBox="0 0 688.082 737.535" enable-background="new 0 0 688.082 737.535"
	 xml:space="preserve">
<g id="Layer_4">
	<polygon fill="#8E0001" points="131.885,6.841 209.595,19.274 289.375,53.467 328.751,80.406 376.411,119.779 403.349,166.404 
		412.365,187.19 417.667,209.644 414.237,240.829 410.806,256.734 417.667,272.637 423.593,287.295 425.464,303.2 425.464,312.243 
		425.464,335.632 439.496,353.096 465.693,387.898 499.683,480.957 510.911,532.099 504.986,576.695 528.685,596.654 
		551.763,628.773 567.667,644.056 632.22,644.056 681.806,632.517 672.719,644.697 643.542,653.775 563.302,661.519 
		539.599,667.755 552.386,681.476 574.529,707.046 570.787,726.693 470.681,667.751 409.56,646.546 348.747,605.693 
		338.447,556.144 340.707,538.039 328.166,514.009 323.177,488.437 326.465,460.066 329.329,423.16 324.318,383.496 
		316.627,354.653 293.238,309.746 296.356,292.282 308.83,269.517 264.859,249.87 152.591,204.028 131.885,206.523 11.636,257.042 
		5.709,248.935 20.679,184.381 23.486,140.097 40.013,122.01 86.751,74.29 93.79,63.007 92.404,38.122 96.771,19.723 114.546,6.841 
			"/>
</g>
<g id="Layer_1_1_">
	<polygon fill="#E2C374" points="291.689,296.638 341.135,306.287 380.449,296.638 399.505,277.825 413.494,265.524 
		423.029,285.906 427.242,315.935 425.464,335.631 404.568,357.179 369.355,364.897 326.664,355.008 303.748,335.23 
		291.689,305.804 	"/>
	<g>
		<g>
			<path fill="#019704" d="M334.357,87.899c-3.338,2.12-6.899,3.825-10.344,5.678c-3.455,1.86-7.277,2.989-10.837,4.67
				c-4.932,2.328-9.53,5.534-14.556,7.997c-4.174,2.044-7.663,4.782-11.729,6.914c-5.225,2.738-11.267,2.878-16.694,5.245
				c-1.819,0.793-3.388,2.309-5.121,3.057c-2.333,1.008-4.896,1.045-7.323,2.085c-5.856,2.509-10.141,6.762-16.032,9.288
				c-11.07,4.743-21.122,7.403-33.205,8.117c-13.072,0.771-28.89-2.766-40.328,4.564c-6.767,4.335-16.882,5.441-24.791,9.32
				c-9.289,4.557-19.188,9.341-28.971,13.512c-10.594,4.517-21.646,5.802-32.345,9.883c-6.884,2.626-13.295,6.302-20.08,9.195
				c-0.076-1.247-0.131-2.497-0.128-3.756c0.02-7.39,0.714-14.611,1.036-21.882c0.298-6.753-1.237-13.313-0.523-19.971
				c0.81-7.565,1.515-15.112,2.266-22.705c0.29-2.926,0.546-6.201,1.165-9.05c0.709-3.265,3.805-7.891,5.606-10.59
				c7.729-11.57,2.949-8.646,11.396-18.909l2.725-4.444c-1.896,2.838-3.907,5.278-6.2,8.065
				c-8.448,10.26-13.645,23.048-22.886,32.589c-2.259,2.332-4.472,4.242-5.183,7.506c-0.618,2.85-0.874,6.124-1.164,9.05
				c-0.752,7.592-1.456,15.139-2.266,22.704c-0.714,6.658,0.821,13.218,0.522,19.97c-0.222,5.014-0.61,10.005-0.844,15.042
				c-0.105,2.27-0.188,4.546-0.192,6.841c-0.007,3.006,0.257,5.97,0.6,8.92c3.433-0.705,7.063-0.828,10.396-2.054
				c1.802-0.662,3.565-1.408,5.313-2.188c6.186-2.766,12.112-6.064,18.438-8.478c10.697-4.081,21.751-5.367,32.345-9.883
				c9.781-4.17,19.682-8.955,28.971-13.512c7.909-3.879,18.024-4.984,24.791-9.32c11.438-7.331,27.256-3.793,40.328-4.565
				c12.083-0.713,22.135-3.373,33.205-8.117c5.893-2.525,10.176-6.777,16.032-9.287c2.429-1.04,4.99-1.077,7.323-2.085
				c1.733-0.747,3.302-2.263,5.121-3.056c5.429-2.367,11.471-2.507,16.694-5.245c4.065-2.131,7.556-4.87,11.729-6.914
				c5.024-2.462,9.624-5.668,14.556-7.996c3.56-1.682,7.382-2.811,10.837-4.67c3.443-1.853,7.006-3.558,10.344-5.678
				c4.825-3.062,6.999-7.347,10.676-11.267L334.357,87.899z"/>
			<path fill="#019704" d="M85.544,76.116c0.746-1.119,1.478-2.295,2.196-3.586L85.544,76.116z"/>
		</g>
	</g>
	<path fill="#019704" d="M22.767,249.464c0-9.791,1.321-19.154,1.312-28.961c-0.008-6.443,0.559-13.042,1.65-19.356
		c0.878-5.063,2.933-9.564,3.619-14.694c1.228-9.175,0.312-18.946,0.416-28.27c0.055-4.885,1.042-8.371,2.722-12.876
		c1.611-4.321,1.387-9.394,3.609-13.446c3.507-6.39,12.132-13.258,13.323-20.442c-4.108,2.699-7.746,6.909-11.323,10.266
		c-4.003,3.755-10.668,8.516-13.338,13.39c-3.92,7.163-4.586,19.512-5.499,27.845c-0.942,8.595,1.843,17.216,0.468,25.692
		c-1.593,9.818-5.013,19.571-6.896,29.683c-1.626,8.736-5.732,17.23-7.456,25.901c-1.18,5.937-2.691,10.048,4.647,10.078
		c5.205,0.022,7.678-3.052,12.307-4.81"/>
	<path fill="#019704" d="M19.269,238.096c4.016-0.825,7.207-4.421,11.422-5.707c5.729-1.749,11.69-3.385,17.448-5.322
		c11.683-3.934,23.054-8.926,34.225-14.215c3.376-1.597,6.546-4.079,9.878-5.78c6.613-3.38,13.484-3.408,20.283-5.367
		c5.849-1.686,11.542-3.7,17.313-5.601c5.023-1.654,9.845-5.162,14.572-6.874c5.517-1.996,11.217-3.565,16.576-5.774
		c2.963-1.221,6.333-3.411,9.369-3.988c7.514-1.427,17.075,0.126,24.778,0.032c6.884-0.083,12.969-2.015,19.574-3.499
		c10.661-2.397,21.761-3.938,32.308-7.44c23.059-7.655,46.692-20.157,66.545-34.001c7.009-4.886,13.603-9.102,21.35-13.019
		c4.027-2.036,16.987-9.872,20.191-7.169c8.863,7.479-11.875,16.167-16.635,17.369c-16.593,4.192-29.29,12.55-42.736,22.397
		c-15.238,11.162-34.124,23.168-52.955,25.352c-8.521,0.988-16.66,3.983-25.253,4.82c-6.92,0.675-13.473,1.292-20.241,3.083
		c-13.207,3.496-27.459,4.933-40.162,9.465c-11.68,4.167-22.278,10.233-33.731,14.199c-9.403,3.255-17.783,6.517-27.156,9.632
		c-10.787,3.584-21.561,8.814-32.49,12.945c-10.088,3.813-20.459,9.313-30.99,11.575c-5.613,1.206-10.825,2.984-16.464,4.2
		c-0.851-2.816-2.105-6.54-0.876-9.5c3.452,0.75,3.468-1.91,5.608-3.563"/>
	<path fill="#019704" d="M379.097,439.917c3.283,2.111,3.99,6.314,6.678,9.088c2.08,2.15,7.149,5.074,9.622,6.795
		c5.354,3.721,11.696,4.537,18.584,5.668c18.257,3.004,38.034,7,56.34,11.318c8.391,1.977,18.492,3.555,24.987,9.049
		c7.451,6.299,6.865,17.529,9.534,26.35c-8.951-5.377-16.012-8.697-27.171-8.697c-6.777,0-12.476,0.695-18.293-2.26
		c-4.253-2.158-7.563-5.561-12.36-7.191c-9.661-3.289-22.26-0.791-33.057-0.82c-13.338-0.033-23.282,1.717-32.692-7.607
		c-0.59-9.121-1.317-33.029-14.363-28.865c-6.854,2.188-12.328,10.063-18.66,13.863c-3.299,1.979-6.868,3.432-10.043,5.799
		c-1.593,1.188-6.627,7.736-8.592,7.828c-4.743,0.215-4.085-11.65-3.922-15.633c0.33-8.102,0.603-15.377,7.396-19.926
		c12.506-8.369,27.527-10.508,37.266-22.541c1.901-2.35,1.569-4.159,4.519-4.723c0.376,3.836,1.781,6.887,2.176,10.867
		c0.411,4.188-1.157,8.938,1.366,12.326"/>
	<path fill="#019704" d="M417.44,643.277c11.405,8.414,33.715-2.324,46.561-3.574c13.911-1.355,30.129,4.525,43.69,9.014
		c9.958,3.295,25.648,1.125,35.153-2.701c6.351-2.555,7.991-6.859,14.357-4.502c4.087,1.516,13.373,6.807,12.924,12.035
		c-0.526,6.096-13.018,9.283-18.299,9.734c-10.877,0.928-22.237-0.754-33.016-2.236c-14.664-2.02-29.119,1.592-43.754,2.121
		c-21.125,0.764-42.332-8.551-59.673-19.207"/>
	<path fill="#019704" d="M305.148,270.11c7.988,5.053,20.216,6.499,29.864,6.847c6.093,0.22,9.675-1.838,13.441,1.904
		c2.93,2.911,3.66,7.42,7.396,10.181c1.211-6.218,9.184-4.983,12.975-8.815c3.506-3.545,5.744-10.687,8.216-14.926
		c2.03-3.478,2.11-14.327,5.653-16.43c3.998-2.374,6.092,3.884,7.824,7.814c8.44-4.266,18.803-9.794,24.045-17.9
		c0.703,5.302-3.762,19.347-7.169,23.638c-2.877,3.624-7.177,2.022-9.537,4.313c-2.046,1.989-2.052,8.558-2.863,11.042
		c-1.732,5.307-4.69,17.368-10.384,19.921c-5.414,2.429-18.688-0.472-24.679-0.065c1.823,1.699,1.468,3.072,1.945,5.239
		c-6.887,0.728-12.254,3.63-18.918,3.375c-5.942-0.228-12.106-3.504-17.787-6.183c-6.354-2.995-13.184-2.891-15.233-8.865
		c-1.396-4.07-6.791-16.559-3.421-19.721"/>
	<path fill="#019704" d="M254.48,245.46c11.146,1.356,22.598-4.534,33.378-5.479c11.717-1.025,22.276-5.638,33.604-6.74
		c3.021,12.712,12.113,13.578,22.047,8.13c7.435-4.078,20.439-12.313,25.521-19.174c3.07-4.146,3.08-6.887,7.979-9.641
		c1.924-1.083,5.388-1.228,6.896-3.353c1.583-2.232,0.393-5.811,1.817-8.266c3.683-6.333,6.115-2.572,10.491,0.551
		c3.777,2.696,4.372,4.61,10.538,2.901c1.964-0.543,6.088-2.697,7.854-4.08c4.678,11.571,6.352,19.855,2.047,31.387
		c-6.572,0.52-11.703-0.922-18.379,0.069c-2.62,0.389-5.508,1.044-8.254,1.182c-2.443,0.124-5.064-0.779-8.113-0.391
		c-0.16,5.363,3.1,12.283-0.055,15.503c-1.329,1.356-8.002,2.657-10.32,4.229c-3.365,2.283-6.513,5.182-9.895,7.55
		c-3.453,2.416-12.238,10.882-16.378,10.818c-4.585-0.07-5.431-7.497-8.63-11.486c-4.104-5.121-5.972-5.167-13.523-4.811
		c-8.252,0.391-13.977,5.169-21.947,6.214c-7.084,0.929-17.795-0.921-24.23-3.3c-5.157-1.908-8.803-5.945-13.51-8.277
		c-2.096-1.037-4.748-1.324-6.881-2.168"/>
	<path fill="#019704" d="M489.335,442.656c-4.361-1.439-9.77-1.352-14.381-1.369c-9.328-0.039-16.017-1.855-25.401-3.322
		c-14.604-2.279-29.381-1.693-43.563-5.465c-8.703-2.314-17.67-6.248-24.654-11.869c-8.29-6.674-10.738-16.297-13.299-26.488
		c-6.98-0.708-15.107,7.775-21.807,9.786c-4.412,1.323-10.731,3.547-15.629,3.055c-1.53-6.971-5.24-13.428-7.394-20.37
		c15.78,1.247,26.812-17.836,41.438-19.185c1.224,6.587-2.342,7.282,1.476,12.75c2.109,3.022,5.232,6.342,7.993,8.573
		c7.913,6.398,18.698,11.316,27.608,15.576c8.838,4.225,16.662,4.008,26.022,4.778c5.537,0.458,10.052,2.062,15.746,2.054
		c8.252-0.011,20.52-0.047,25.233-8.097c0.04,0.358-1.354-0.731-1.249-0.633c7.693-3.737,17.953,30.985,19.119,36.804"/>
	<path fill="#019704" d="M505.767,564.535c-3.53,1.648-7.211-0.354-10.92-0.719c-5.966-0.59-12.008,0.463-17.82,0.732
		c-13.76,0.645-24.674-0.188-37.62-4.141c-6.482-1.98-18.886-5.156-22.15-12.119c-1.683-3.586-0.306-9.932-0.349-13.896
		c-0.049-4.33-1.609-7.402-1.776-11.404c-13.582,7.715-27.367,17.703-40.843,24.98c-10.268,5.547-23.72,15.773-36.17,13.725
		c-1.027-5.9,1.404-12.285,1.302-18.385c-0.046-2.576-1.363-5.412-0.735-8.217c1.212-5.418,1.11-3.717,5.489-5.479
		c11.793-4.742,26.251-5.574,38.215-10.803c7.607-3.324,14.531-8.605,21.357-13.184c4.731-3.172,13.106-12.678,16.466-6.807
		c2.722,4.758-2.051,13.506-0.719,18.469c1.519,5.65,11.095,11.688,17.043,13.613c14.722,4.766,32.183,6.246,47.558,6.926
		c8.508,0.379,16.56-4.689,24.358-3.332c0.262,10.139-0.965,20.242-1.314,30.037"/>
	<path fill="#019704" d="M473.587,636.431c10.123,3.178,20.871-5.643,30.106-9.279c7.521-2.961,25.155-6.855,25.95-16.637
		c-11.215-0.574-18.539-4.121-29.477-8.064c-4.837-1.746-10.905-3.873-16.007-3.678c-5.294,0.201-7.526,3.139-12.115,5.512
		c-7.227,3.736-15.952,4.732-22.921,8.338c-7.029,3.635-12.875,6.932-21.364,8.742c-11.846,2.525-24.591,4.533-36.757,5.48
		c-4.955,0.385-23.138,3.566-26.71-0.291c-1.241-1.338-0.612-9.309-0.297-11.35c1.173-7.584,5.207-16.135,13.042-17.65
		c6.924-1.34,14.183,1.6,21.07,1.9c20.281,0.885,39.979-1.123,60.233-1.301c0.543,4.439-1.927,9.869-2.539,14.354
		c-1.22,8.9-1.088,8.697,3.424,12.947c3.992,3.764,10.975,9.064,15.727,11.662"/>
	<path fill="#019704" d="M416.755,573.435c4.476,2.807,7.555,6.156,11.072,9.436c7.955,7.41,16.454,6.504,27.23,7.002
		c9.279,0.428,18.259,1.885,27.697,1.23c9.487-0.658,23.949-6.213,31.057,0.1c5.999,5.33,7.227,9.654,1.71,15.236
		c-7.021,7.107-8.346,4.945-16.923,5.188c-4.406,0.127-7.859,2.652-12.107,3.5c-4.969,0.988-10.209,0.303-15.479,0.746
		c-10.959,0.922-25.08,5.146-35.599-0.082c-1.622-0.807-4.25-5.203-5.071-6.5c-4.795-0.16-7.89-4.566-12.728-5.188
		c-0.254-4.535-2.998-12.658-8.103-12.775c-5.139-0.115-15.938,9.936-20.167,13.074c-5.035,3.736-9.843,10.889-15.729,13.023
		c-6.176,2.244-11.455-1.727-16.432-5.129c-4.498-3.074-10.543-6.617-10.272-12.809c0.268-6.088,9.971-8.963,15.749-11.672
		c14.142-6.633,30.794-13.26,43.12-23.438c3.95-3.26,8.173-7.408,10.337-11.943c-0.157,6.555-0.089,12.563-1.557,18.846
		c0.146,0.797,0.648,1.059,1.506,0.785"/>
</g>
<g id="Layer_3">
	<path d="M674.865,625.246c-10.014,1.201-19.621,5.408-29.582,7.48c-25.59,5.326-51.424,9.867-77.405,3.305
		c-13.963-3.527-15.263-8.803-6.735-19.973c7.79-10.203,5.623-16.711-7.011-19.414c-5.668-1.215-12.342,0.434-17.295-1.902
		c-8.933-4.211-17.916-9.439-24.785-16.326c-2.717-2.727-0.063-11.051,0.535-16.787c1.556-14.768,9.188-28.404,0.772-44.627
		c-6.904-13.311-7.512-29.768-11.91-44.525c-4.434-14.881-10.122-29.383-15.221-44.064c-10.09-29.057-18.417-58.703-43.13-80.365
		c-8.169-7.156-18.31-16.963-14.057-30.212c6.985-21.757-2.889-40.27-8.891-59.746c-1.793-5.822-4.338-12.888-2.604-18.065
		c7.715-23.01,2.939-43.507-4.208-66.312c-10.103-32.249-27.828-57.874-53.218-77.521c-40.339-31.217-79.937-64.152-130.842-78.47
		C194.957,8.062,160.902-2.038,124.746,0.334c-5.555,0.367-11.717,2.081-16.272,5.145C88.634,18.8,85.208,32.913,93.79,63.007
		c1.206-5.979,1.125-11.783,3.535-16.244c5.28-9.763-6.354-25.98,9.942-30.392c11.506-3.109,24.129-2.102,36.257-2.9
		c0.96-0.063,1.962,0.054,2.905,0.27c23.659,5.313,47.379,10.39,70.963,16.036c52.193,12.494,92.043,46.292,133.033,77.96
		c6.987,5.398,8.369,9.758-2.882,13.732c-9.397,3.314-17.262,10.972-25.807,16.709c28.254-10.235,53.912-4.545,68.601,15.246
		c1.446,1.952,4.104,4.232,3.852,6.024c-2.621,18.33,12.943,28.749,18.66,43.423c6.85,17.588-3,31.917-6.939,47.425
		c-0.866,3.41-3.479,6.371-6.229,11.192c-5.748-8.342-10.522-15.271-13.949-20.246c4.48-9.742,8.101-17.61,11.719-25.479
		c-19.771,4.502-26.275,26.281-16.85,42.755c3.111,5.436,7.387,10.513,9.078,16.347c1.16,4.006,0.231,10.523-2.463,13.175
		c-2.384,2.348-8.892,2.162-12.899,0.91c-19.501-6.085-28.232-23.502-36.015-39.632c-6.961-14.43-16.066-25.309-29.714-32.191
		c-15.965-8.049-32.649-14.653-48.908-22.131c-3.921-1.802-7.403-4.57-9.114-5.65c23.286-16.969,45.654-33.27,68.019-49.573
		c-3.503,1.595-7.431,2.616-10.443,4.869c-33.398,24.959-70.813,37.56-112.544,38.097c-8.153,0.104-16.772,1.568-24.319,4.56
		c-38.537,15.285-76.753,31.38-115.17,46.971c-14.449,5.864-27.717,16.413-46.747,12.603c1.994-14.748,9.202-41.241,11.504-56.264
		c0.271,0.011,0.544,0.021,0.817,0.032c1.596-13.333,4.027-26.632,4.579-40.007c0.316-7.688,0.884-12.123,2.886-14.087
		c3.938-7.573,12.406-12.334,18.465-18.406c9.729-9.753,18.617-20.304,27.467-30.845c3.643-4.339,7.573-9.246,12.184-13.005
		c-0.169,0-0.338,0.002-0.51,0.002c-0.139,0.203-0.516,0.68-0.96,1.087c-18.799,17.275-37.972,34.166-56.21,52.016
		c-5.485,5.363-10.959,13.036-11.918,20.246c-1.871,14.051-0.548,28.524-0.548,42.821c0.148,0.007,0.298,0.012,0.446,0.018
		c-4.279,19.779-13.562,51.228-17.488,70.19c1.355,1.34,2.713,2.675,4.069,4.013c18.106-7.178,36.4-13.923,54.271-21.643
		c24.404-10.545,48.229-22.489,72.892-32.364c6.606-2.648,16.234-2.099,22.963,0.665c26.729,10.981,52.67,23.856,79.271,35.158
		c17.859,7.591,36.66,12.999,54.395,20.839c7.72,3.411,16.519,9.771,3.193,18.813c-2.596,1.76-4.936,6.847-4.36,9.814
		c2.28,11.78,5.934,23.279,8.768,34.958c4.595,18.926,28.075,28.629,25.092,51.311c-0.021,0.146,2.139,1.007,3.519,1.333
		c1.57,13.333,3.586,26.297,5.185,39.596c2.511-0.514,5.019-1.029,7.527-1.543c-4.179-12.707-8.357-25.412-12.538-38.121
		c-0.426-5.957-0.849-11.916-1.418-19.923c11.416,3.07,20.535,4.804,29.021,8.144c3.717,1.466,7.584,5.727,8.896,9.563
		c5.16,15.092,10.235,30.336,13.394,45.918c1.157,5.705-1.118,14.867-5.271,18.361c-11.379,9.578-24.586,16.984-37.949,25.83
		c-1.567-3.924-2.83-7.088-4.524-11.32c-13.281,29.955-14.979,56.734,13.67,80.713c1.065-5.521,2.463-9.832,2.634-14.199
		c0.417-10.711,0.146-21.447,0.378-32.166c0.478-21.768,9.244-31.311,32.688-34.908c0.332,6.834,1.944,13.818,0.715,20.262
		c-2.628,13.729,4,20.637,15.451,25.23c2.688,1.08,5.108,2.809,7.747,4.037c10.673,4.979,16.679,12.26,15.414,25.072
		c-1.336,13.557-0.518,27.34-2.108,40.85c-0.566,4.801-4.644,10.008-8.527,13.438c-8.754,7.73-18.051,14.99-27.845,21.344
		c-3.684,2.389-11.001,4.004-13.77,1.99c-5.95-4.324-11.868-10.525-14.452-17.242c-4.545-11.807-6.577-24.582-10.013-38.342
		c-0.954,4.627-2.232,8.563-2.518,12.572c-2.088,29.318,19.973,64.938,47.616,75.117c18.148,6.689,37.165,11.002,55.391,17.5
		c14.329,5.109,28.653,10.844,41.917,18.209c32.666,18.146,64.719,37.393,100.072,57.977c7.799-33.588-13.948-49.371-31.269-70.781
		c33.827-4.672,64.396-8.893,93.886-12.965c-2.127-0.83-5.759-2.248-10.275-4.014c7.729-3.139,13.798-7.166,20.204-7.787
		c6.754-0.65,14.322,4.01,20.605,2.498c5.373-1.295,9.435-8.043,14.076-12.375C683.704,629.65,678.958,624.757,674.865,625.246z
		 M338.982,519.101c-15.746-15.801-15.712-21.293,1.729-34.4C340.069,497.457,339.582,507.169,338.982,519.101z M513.632,599.433
		c0.434,0.43-4.34,9.016-7.487,9.623c-8.978,1.732-18.37,1.307-27.603,1.73c-6.813-0.014-13.62,0.014-20.432-0.021
		c-24.947-0.123-39.143-10.699-40.783-39.057c-1.36-23.51,2.737-47.424,5.697-70.996c0.408-3.242,9.263-8.777,12.416-7.75
		c17.74,5.773,36.008,11.443,51.818,20.943c6.89,4.143,10.735,17.045,11.797,26.438
		C501.363,560.757,496.544,582.523,513.632,599.433z M450.445,378.571c1.125,1.437-3.041,7.021-4.756,10.685
		c-7.904-7.225-16.272-14.01-23.554-21.814c-5.098-5.459-10.857-12.027-0.731-22.231
		C431.795,356.877,441.626,367.327,450.445,378.571z M272.593,246.871c-35.208-12.862-72.283-21.196-107.967-45.382
		c43.072-18.268,76.923,0.127,112.871,12.986c41.118,14.71,55.507,50.489,77.313,87.21c-13.277-2.307-23.971-4.167-34.67-6.024
		c0.133-1.883,0.261-3.766,0.394-5.651c5.195-0.495,10.393-0.986,17.31-1.65C319.715,267.083,296.88,255.74,272.593,246.871z
		 M300.927,319.82c-2.03-5.99-2.965-12.353-4.038-16.961c17.824,3.85,33.867,9.206,50.177,10.203
		c12.089,0.737,25.71-1.883,36.417-7.364c8.159-4.179,12.789-15.216,19.044-23.156c2.755-3.502,5.647-6.894,8.479-10.332
		c2.215,3.413,5.328,6.554,6.448,10.298c2.22,7.4,3.671,15.083,4.848,22.737c4.337,28.261-2.317,40.607-28.468,51.005
		C368.576,366.294,312.669,354.448,300.927,319.82z M397.747,477.855c-14.792,1.188-17.73-5.199-18.347-16.963
		c-0.736-14.057-0.707-28.271-3.005-42.09c-1.869-11.24-6.779-21.965-10.144-32.981c-1.176-3.847-1.77-7.872-2.259-10.104
		c13.412-5.118,24.801-10.3,36.715-13.523c3.712-1.001,10.802,2.071,12.947,5.439c4.596,7.213,5.478,17.042,10.697,23.532
		c4.877,6.059,12.959,10.877,20.514,12.844c3.451,0.898,9.03-6.356,15.818-11.592c17.456,32.691,28.852,69.301,40.922,108.613
		c-22.076-7.598-38.912-14.938-56.506-18.98C429.742,478.519,413.363,476.601,397.747,477.855z M398.232,621.693
		c-4.124-4.328-13.744-10.818-3.446-19.074c9.108-7.305,16.049-6.314,24.873,2.535c12.219,12.244,26.518,22.553,40.604,32.748
		c8.498,6.148,18.286,10.521,27.496,15.689C453.072,655.843,422.282,646.947,398.232,621.693z M565.849,711.935
		c-19.701-9.613-38.408-18.742-57.117-27.871c0.728-1.408,1.449-2.814,2.172-4.223C536.089,679.023,568.855,690.439,565.849,711.935
		z M465.478,623.515c43.513-22.877,72.868,3.252,100.848,30.689C547.353,662.617,482.885,643.343,465.478,623.515z"/>
</g>
</svg>
