<?xml version="1.0" encoding="utf-8"?>
<!-- Generator: Adobe Illustrator 16.0.0, SVG Export Plug-In . SVG Version: 6.00 Build 0)  -->
<!DOCTYPE svg PUBLIC "-//W3C//DTD SVG 1.1//EN" "http://www.w3.org/Graphics/SVG/1.1/DTD/svg11.dtd">
<svg version="1.1" id="Layer_1" xmlns="http://www.w3.org/2000/svg" xmlns:xlink="http://www.w3.org/1999/xlink" x="0px" y="0px"
	 width="688.082px" height="737.535px" viewBox="0 0 688.082 737.535" enable-background="new 0 0 688.082 737.535"
	 xml:space="preserve">
<g id="Layer_4">
	<polygon fill="#FFFFFF" points="131.73,6.857 209.438,19.291 289.219,53.483 328.594,80.423 376.255,119.794 403.195,166.42 
		412.21,187.207 417.511,209.659 414.083,240.845 410.651,256.75 417.511,272.654 423.437,287.312 425.307,303.215 425.307,312.259 
		425.307,335.648 439.341,353.111 465.538,387.914 499.528,480.974 510.756,532.115 504.829,576.71 528.53,596.669 551.607,628.791 
		567.513,644.07 632.065,644.07 681.65,632.533 672.564,644.712 643.387,653.792 563.146,661.535 539.445,667.771 552.231,681.492 
		574.372,707.062 570.632,726.708 470.526,667.769 409.403,646.562 348.591,605.708 338.291,556.16 340.552,538.054 328.01,514.027 
		323.02,488.455 326.309,460.083 329.175,423.177 324.162,383.512 316.471,354.668 293.082,309.762 296.2,292.298 308.675,269.533 
		264.704,249.885 152.436,204.044 131.73,206.538 11.479,257.059 5.555,248.951 20.524,184.397 23.331,140.114 39.858,122.025 
		86.596,74.306 93.634,63.023 92.25,38.138 96.616,19.739 114.391,6.857 	"/>
	<polygon fill="#FFFFFF" points="36.656,125.902 29.287,141.476 27.077,169.744 21.181,202.534 16.76,242.324 40.708,234.094 
		82.34,218.376 109.971,206.82 149.762,191.482 176.657,182.863 212.762,179.324 242.235,172.692 293.078,150.956 344.878,122.498 
		359.737,111.436 344.878,97.166 336.653,101.941 291.534,130.323 244.077,154.455 199.129,163.113 147.918,174.166 85.389,195.534 
		47.179,204.744 44.761,193.692 40.708,177.114 47.179,141.476 58.024,112.969 58.024,104.165 49.264,111.436 	"/>
</g>
<g id="Layer_1_1_">
	<path fill="#FFFFFF" d="M336.967,578.603c0.179,5.129,4.081,11.779,6.607,15.951c1.715,2.834,1.416,3.014,4.278,3.766
		c3.114,0.818,7.578,0.031,10.834,0c14.197-0.135,22.949-13.32,34.479-19.422c7.786-4.117,15.846-5.629,23.493-0.213
		c4.436,3.139,7.625,7.793,11.663,11.047c4.726,3.807,10.905,5.436,16.852,6.867c11.397,2.744,24.987,1.658,36.619-0.281
		c9.227-1.537,18.602-1.773,27.531-3.943c0.221-5.006-1.264-9.539-2.768-14.229c-1.173-3.662-1.67-10.078-3.897-12.867
		c-1.93-2.414-9.275-4.199-12.39-4.648c-3.818-0.551-7.896-0.447-11.75-0.785c-6.895-0.605-13.795-0.535-20.75-0.535
		c-6.936,0-13.504-0.338-20.298-1.145c-4.908-0.582-16.021-1.502-19.985-4.816c-6.313-5.275,0.263-17.555-0.536-24.18
		c-4.359-0.27-8.501-0.652-12.025,1.922c-3.499,2.555-5.93,6.285-9.731,8.818c-7.385,4.92-14.949,8.395-23.408,11.115
		c-8.452,2.717-15.845,7.271-23.142,12.459c-6.491,4.609-8.657,8.932-11.256,15.961"/>
	<path fill="#FFFFFF" d="M326.628,456.921c6.383-6.217,14.749-8.764,22.132-13.813c4.286-2.934,8.84-5.625,12.935-8.969
		c3.517-2.867,9.36-8.469,13.921-8.943c0.555,3.625,0.645,9.105-0.593,12.465c-1.543,4.195-2.474,6.629,1.347,10.029
		c2.457,2.186,5.938,3.104,7.962,5.699c2.728,3.498,3.104,8.521,7.453,11.004c8.888,5.082,20.883,3.496,30.495,5.508
		c3.249,0.68,6.404,2.02,9.652,2.939c3.543,1.004,7.418,0.85,11.024,1.477c5.602,0.973,11.016,2.154,16.379,3.689
		c6.842,1.957,13.153,5.623,20.063,7.572c6.126,1.73,13.743,1.129,20.054,0.82c1.021-4.869-1.735-10.15-3.118-14.787
		c-2.104-7.061-1.008-14.955-8.341-19.189c-6.416-3.703-12.498-5.256-20.102-6.418c-5.571-0.85-10.357-1.691-16.174-1.926
		c-6.239-0.25-12.245-1.283-18.245-2.656c-5.695-1.301-11.214-3.77-16.631-5.322c-6.688-1.914-13.645-3.309-20.385-5.229
		c-5.675-1.619-12.273-4.566-17.095-7.645c-4.096-2.617-5.654-4.999-7.133-9.268c-1.214-3.51-1.673-5.949-2.271-9.646
		c-0.644-3.979-4.124-3.248-8.032-2.939c-15.206,1.201-23.458,12.482-33.052,22.807L326.628,456.921z"/>
	<path fill="#FFFFFF" d="M300.29,265.194c1.665-0.563,2.832-2.114,4.438-2.893c2.688-1.303,5.999-1.476,8.797-2.313
		c3.863-1.157,7.59-1.543,11.479-2.616c3.075-0.847,5.79-1.806,8.303,0.253c3.814,3.127,5.083,7.662,7.013,11.957
		c0.578,1.289,1.277,3.8,2.865,3.894c1.514,0.089,3.521-3.132,4.377-4.245c1.928-2.506,4.051-4.858,6.819-6.511
		c4.333-2.583,8.937-4.814,13.434-6.952c3.259-1.547,5.876-3.873,9.343-5.075c4.083-1.415,5.908-0.207,6.107-5.776
		c0.058-1.623-0.444-3.636,0.615-4.821c1.248-1.397,4.208-1.309,5.865-1.547c5.736-0.822,11.895-0.28,17.709-0.28
		c0.833,0,3.95-0.452,4.557,0.158c0.671,0.675,0.319,5.166,0.107,6.23c-1.544,7.78-5.38,14.342-13.982,15.042
		c-3.728,0.302-5.681-0.064-8.749,2.475c-3.123,2.582-4.391,5.005-5.558,8.803c-2.187,7.11-11.941,22.791-21.478,19.809
		c-6.894-2.155-9.609-11.578-17.261-11.58c-7.5-0.002-14.89,0.518-22.327,0.55c-9.75,0.042-15.213-8.991-22.22-14.385
		c-0.635-0.487-1.274-1.005-1.903-1.551"/>
	<polygon fill="#E2C374" points="291.534,296.653 340.979,306.302 380.294,296.653 399.348,277.841 413.339,265.541 
		422.876,285.922 427.087,315.951 425.307,335.648 404.414,357.195 369.199,364.913 326.508,355.024 303.593,335.247 
		291.534,305.819 	"/>
	<g>
		<path fill="#FFFFFF" d="M334.202,87.917c-3.339,2.119-6.899,3.824-10.344,5.677c-3.456,1.859-7.277,2.989-10.838,4.67
			c-4.93,2.328-9.53,5.534-14.555,7.997c-4.173,2.043-7.662,4.78-11.729,6.912c-5.225,2.739-11.266,2.878-16.695,5.246
			c-1.817,0.792-3.389,2.308-5.12,3.056c-2.333,1.008-4.896,1.045-7.322,2.085c-5.857,2.509-10.142,6.763-16.033,9.288
			c-11.069,4.743-21.123,7.403-33.205,8.116c-13.072,0.771-28.889-2.766-40.328,4.565c-6.767,4.335-16.882,5.442-24.791,9.319
			c-9.29,4.558-19.188,9.341-28.971,13.513c-10.595,4.517-21.646,5.802-32.345,9.883c-6.884,2.625-13.295,6.301-20.079,9.195
			c-0.077-1.247-0.133-2.497-0.13-3.756c0.021-7.391,0.716-14.61,1.037-21.882c0.3-6.753-1.236-13.314-0.524-19.971
			c0.811-7.564,1.515-15.111,2.267-22.703c0.29-2.927,0.546-6.201,1.165-9.051c0.709-3.264,3.804-7.893,5.607-10.59
			c7.729-11.569,2.948-8.648,11.396-18.909l2.726-4.444c-1.896,2.838-3.908,5.278-6.201,8.064
			c-8.447,10.262-13.644,23.05-22.885,32.59c-2.259,2.331-4.474,4.242-5.183,7.506c-0.619,2.85-0.875,6.124-1.164,9.051
			c-0.753,7.593-1.457,15.138-2.268,22.705c-0.712,6.657,0.823,13.217,0.524,19.97c-0.222,5.012-0.61,10.006-0.844,15.042
			c-0.104,2.269-0.187,4.545-0.192,6.842c-0.009,3.005,0.258,5.969,0.6,8.919c3.432-0.704,7.063-0.828,10.396-2.055
			c1.804-0.661,3.565-1.407,5.313-2.188c6.185-2.765,12.113-6.063,18.438-8.478c10.697-4.082,21.75-5.366,32.345-9.883
			c9.781-4.171,19.681-8.955,28.971-13.513c7.909-3.879,18.024-4.984,24.791-9.319c11.439-7.33,27.256-3.793,40.328-4.563
			c12.082-0.714,22.136-3.374,33.205-8.116c5.893-2.526,10.176-6.779,16.033-9.288c2.428-1.041,4.989-1.077,7.322-2.085
			c1.731-0.748,3.303-2.264,5.12-3.056c5.43-2.368,11.471-2.507,16.695-5.246c4.065-2.132,7.557-4.868,11.729-6.914
			c5.023-2.461,9.625-5.667,14.555-7.996c3.561-1.682,7.382-2.811,10.838-4.67c3.443-1.854,7.005-3.558,10.344-5.677
			c4.824-3.063,6.998-7.349,10.677-11.268L334.202,87.917z"/>
		<path fill="#FFFFFF" d="M85.389,76.132c0.746-1.119,1.477-2.294,2.196-3.586L85.389,76.132z"/>
	</g>
	<path fill="#FF0000" d="M354.946,114.388c-3.204-2.703-16.164,5.133-20.19,7.169c-7.747,3.916-14.343,8.132-21.351,13.02
		c-19.853,13.843-43.486,26.344-66.545,34.001c-10.547,3.5-21.646,5.042-32.31,7.439c-6.604,1.484-12.688,3.416-19.571,3.5
		c-7.704,0.092-17.267-1.461-24.78-0.034c-3.036,0.578-6.405,2.767-9.367,3.987c-5.359,2.208-11.063,3.779-16.577,5.775
		c-4.728,1.712-9.55,5.22-14.571,6.874c-5.771,1.9-11.464,3.916-17.313,5.601c-6.799,1.959-13.67,1.987-20.285,5.367
		c-3.33,1.702-6.5,4.183-9.875,5.781c-11.172,5.29-22.545,10.281-34.227,14.213c-5.757,1.939-11.717,3.574-17.447,5.322
		c-2.711,0.829-5.002,2.606-7.356,3.993c0.356-5.254,0.751-10.5,0.743-15.877c-0.006-6.443,0.558-13.042,1.651-19.357
		c0.877-5.062,2.933-9.564,3.62-14.693c1.227-9.175,0.309-18.946,0.414-28.269c0.055-4.885,1.043-8.372,2.723-12.876
		c1.609-4.32,1.387-9.394,3.609-13.446c3.507-6.39,12.133-13.259,13.324-20.442c-4.109,2.699-7.746,6.909-11.324,10.265
		c-4.002,3.755-10.668,8.515-13.337,13.39c-3.921,7.163-4.586,19.512-5.499,27.845c-0.942,8.594,1.842,17.216,0.467,25.692
		c-1.592,9.82-5.012,19.573-6.896,29.685c-1.627,8.735-5.732,17.23-7.457,25.901c-1.18,5.936-2.689,10.047,4.646,10.077
		c5.207,0.021,7.68-3.053,12.309-4.809h0.438c0-0.566,0.018-1.126,0.026-1.689c3.292-0.898,6.552-1.834,9.955-2.565
		c10.531-2.261,20.902-7.761,30.99-11.576c10.931-4.131,21.702-9.361,32.49-12.945c9.373-3.116,17.752-6.376,27.155-9.631
		c11.455-3.966,22.054-10.032,33.732-14.198c12.703-4.532,26.955-5.969,40.162-9.465c6.771-1.791,13.321-2.409,20.242-3.083
		c8.592-0.838,16.732-3.833,25.252-4.82c18.831-2.184,37.717-14.191,52.955-25.353c13.446-9.849,26.146-18.207,42.736-22.397
		C343.071,130.555,363.809,121.867,354.946,114.388z"/>
	<path fill="#FF0000" d="M378.942,439.935c3.282,2.111,3.99,6.313,6.677,9.086c2.081,2.15,7.149,5.076,9.623,6.795
		c5.353,3.721,11.697,4.539,18.584,5.67c18.257,3.002,38.034,6.998,56.341,11.318c8.389,1.977,18.491,3.555,24.987,9.047
		c7.449,6.301,6.864,17.529,9.533,26.35c-8.952-5.377-16.011-8.695-27.17-8.695c-6.777,0-12.477,0.693-18.295-2.262
		c-4.251-2.16-7.562-5.559-12.359-7.191c-9.66-3.289-22.26-0.791-33.058-0.816c-13.338-0.035-23.281,1.715-32.691-7.611
		c-0.59-9.119-1.316-33.029-14.362-28.865c-6.854,2.188-12.328,10.064-18.66,13.865c-3.3,1.98-6.87,3.43-10.044,5.797
		c-1.593,1.188-6.627,7.738-8.592,7.828c-4.741,0.215-4.084-11.65-3.922-15.631c0.33-8.104,0.602-15.377,7.396-19.926
		c12.505-8.369,27.527-10.51,37.266-22.541c1.9-2.352,1.569-4.16,4.521-4.724c0.373,3.836,1.779,6.888,2.174,10.866
		c0.413,4.189-1.157,8.939,1.369,12.326"/>
	<path fill="#FF0000" d="M417.285,643.292c11.404,8.414,33.716-2.322,46.561-3.574c13.911-1.355,30.129,4.527,43.691,9.016
		c9.957,3.295,25.647,1.123,35.151-2.701c6.354-2.557,7.992-6.859,14.359-4.504c4.088,1.516,13.373,6.805,12.923,12.035
		c-0.526,6.098-13.018,9.285-18.298,9.734c-10.878,0.928-22.238-0.752-33.017-2.236c-14.663-2.02-29.119,1.594-43.753,2.123
		c-21.126,0.764-42.333-8.553-59.673-19.207"/>
	<path fill="#FF0000" d="M304.992,270.125c7.988,5.054,20.218,6.5,29.865,6.848c6.093,0.22,9.676-1.839,13.441,1.904
		c2.93,2.911,3.659,7.419,7.396,10.181c1.211-6.22,9.185-4.984,12.975-8.816c3.506-3.545,5.744-10.688,8.217-14.926
		c2.028-3.478,2.109-14.327,5.651-16.43c4-2.373,6.095,3.885,7.824,7.815c8.442-4.266,18.804-9.795,24.046-17.9
		c0.703,5.303-3.762,19.348-7.17,23.638c-2.877,3.624-7.177,2.022-9.536,4.313c-2.047,1.988-2.052,8.557-2.862,11.042
		c-1.733,5.306-4.691,17.367-10.385,19.922c-5.415,2.428-18.69-0.474-24.679-0.066c1.823,1.699,1.466,3.071,1.945,5.238
		c-6.888,0.729-12.253,3.629-18.917,3.375c-5.943-0.228-12.107-3.505-17.789-6.183c-6.354-2.995-13.184-2.892-15.232-8.865
		c-1.396-4.069-6.792-16.558-3.421-19.72"/>
	<path fill="#FFFFFF" d="M254.324,245.477c11.146,1.357,22.599-4.534,33.379-5.478c11.718-1.026,22.276-5.639,33.604-6.742
		c3.021,12.714,12.114,13.58,22.046,8.131c7.437-4.078,20.441-12.311,25.521-19.174c3.071-4.144,3.08-6.886,7.979-9.641
		c1.923-1.082,5.389-1.229,6.896-3.354c1.583-2.231,0.392-5.811,1.818-8.266c3.682-6.333,6.114-2.572,10.49,0.55
		c3.778,2.697,4.371,4.61,10.538,2.902c1.964-0.544,6.087-2.697,7.853-4.081c4.681,11.571,6.353,19.854,2.048,31.388
		c-6.571,0.52-11.703-0.923-18.379,0.068c-2.62,0.389-5.508,1.044-8.254,1.183c-2.443,0.122-5.064-0.781-8.115-0.392
		c-0.157,5.364,3.102,12.283-0.054,15.503c-1.328,1.356-8.001,2.656-10.319,4.23c-3.364,2.282-6.514,5.181-9.895,7.549
		c-3.453,2.417-12.239,10.882-16.378,10.819c-4.585-0.07-5.431-7.496-8.63-11.487c-4.104-5.12-5.971-5.167-13.523-4.81
		c-8.252,0.39-13.977,5.17-21.946,6.213c-7.085,0.928-17.796-0.92-24.231-3.3c-5.157-1.907-8.802-5.943-13.509-8.275
		c-2.097-1.038-4.75-1.324-6.884-2.168"/>
	<path fill="#FFFFFF" d="M489.179,442.671c-4.361-1.439-9.77-1.352-14.38-1.367c-9.327-0.039-16.018-1.857-25.403-3.322
		c-14.602-2.281-29.381-1.695-43.562-5.465c-8.703-2.314-17.671-6.25-24.655-11.871c-8.291-6.674-10.738-16.295-13.298-26.488
		c-6.982-0.707-15.108,7.776-21.808,9.786c-4.413,1.324-10.731,3.548-15.63,3.056c-1.529-6.972-5.239-13.429-7.392-20.369
		c15.778,1.246,26.811-17.837,41.438-19.187c1.224,6.587-2.341,7.283,1.477,12.75c2.108,3.022,5.231,6.341,7.991,8.574
		c7.913,6.397,18.699,11.315,27.609,15.573c8.838,4.228,16.662,4.01,26.023,4.781c5.538,0.455,10.05,2.062,15.746,2.053
		c8.252-0.012,20.519-0.049,25.232-8.098c0.038,0.358-1.354-0.731-1.249-0.633c7.693-3.736,17.953,30.986,19.117,36.803"/>
	<path fill="#FFFFFF" d="M505.612,564.55c-3.531,1.65-7.211-0.354-10.92-0.719c-5.966-0.588-12.008,0.465-17.82,0.736
		c-13.76,0.643-24.674-0.191-37.618-4.145c-6.484-1.979-18.889-5.152-22.153-12.119c-1.682-3.586-0.304-9.93-0.347-13.895
		c-0.049-4.33-1.61-7.404-1.777-11.404c-13.581,7.715-27.367,17.701-40.844,24.982c-10.268,5.545-23.719,15.77-36.169,13.723
		c-1.028-5.902,1.403-12.285,1.301-18.385c-0.045-2.576-1.362-5.412-0.735-8.217c1.212-5.416,1.111-3.719,5.49-5.479
		c11.794-4.744,26.251-5.576,38.214-10.805c7.608-3.324,14.532-8.605,21.358-13.182c4.731-3.174,13.107-12.68,16.465-6.809
		c2.723,4.76-2.05,13.506-0.717,18.471c1.518,5.65,11.093,11.686,17.042,13.611c14.721,4.768,32.182,6.246,47.559,6.928
		c8.506,0.377,16.558-4.688,24.358-3.332c0.261,10.135-0.966,20.24-1.315,30.035"/>
	<path fill="#FFFFFF" d="M473.431,636.449c10.123,3.178,20.872-5.645,30.106-9.279c7.521-2.961,25.155-6.855,25.949-16.639
		c-11.215-0.574-18.537-4.121-29.476-8.064c-4.837-1.746-10.905-3.873-16.006-3.68c-5.296,0.205-7.528,3.141-12.116,5.514
		c-7.226,3.738-15.952,4.732-22.921,8.338c-7.031,3.635-12.875,6.932-21.363,8.742c-11.846,2.527-24.593,4.533-36.759,5.48
		c-4.955,0.387-23.136,3.564-26.71-0.291c-1.24-1.338-0.611-9.309-0.296-11.352c1.174-7.582,5.208-16.135,13.043-17.648
		c6.923-1.342,14.181,1.6,21.069,1.898c20.281,0.889,39.979-1.121,60.233-1.299c0.543,4.439-1.927,9.867-2.539,14.355
		c-1.219,8.896-1.087,8.693,3.423,12.943c3.992,3.766,10.977,9.064,15.729,11.662"/>
	<path fill="#FF0000" d="M416.599,573.453c4.475,2.805,7.555,6.154,11.073,9.434c7.953,7.41,16.453,6.504,27.229,7.002
		c9.279,0.428,18.258,1.885,27.698,1.23c9.486-0.656,23.949-6.211,31.056,0.102c5.998,5.328,7.228,9.652,1.71,15.234
		c-7.021,7.107-8.346,4.945-16.923,5.188c-4.405,0.127-7.86,2.652-12.106,3.498c-4.97,0.99-10.209,0.305-15.479,0.75
		c-10.958,0.92-25.079,5.146-35.597-0.084c-1.624-0.807-4.25-5.203-5.072-6.5c-4.795-0.16-7.89-4.564-12.727-5.188
		c-0.254-4.535-2.997-12.658-8.104-12.775c-5.138-0.115-15.938,9.936-20.167,13.072c-5.035,3.74-9.843,10.891-15.729,13.027
		c-6.178,2.24-11.455-1.73-16.433-5.131c-4.498-3.074-10.544-6.617-10.271-12.809c0.267-6.09,9.97-8.965,15.749-11.674
		c14.142-6.631,30.793-13.258,43.121-23.434c3.948-3.262,8.172-7.41,10.336-11.945c-0.159,6.555-0.091,12.561-1.559,18.844
		c0.147,0.799,0.649,1.061,1.507,0.785"/>
	<path fill="#FF0000" d="M62.202,99.68c-3.895,1.558-5.367,5.875-6.559,9.497c-1.129,3.435-2.963,5.401-5.13,8.177
		c-2.146,2.75-3.661,5.075-4.893,8.115c-1.349,3.33-2.144,7.14-3.582,10.416c-6.069,13.813-3.734,30.434-4.513,45.942
		c-0.314,6.272,0.015,12.894-1.484,18.88c-1.641,6.559-2.676,12.949-2.134,20.145c5.465-3.432,12.059-6.422,18.347-8.068
		c3.358-0.879,6.75-1.139,10.01-2.238c3.342-1.128,6.622-2.555,10.235-3.554c7.59-2.095,15.232-4.7,22.205-8.278
		c7.027-3.606,14.324-5.521,21.729-8.126c8.402-2.956,17.191-4.646,25.446-8.4c7.41-3.371,15.189-7.219,23.201-9.723
		c14.676-4.589,31.429,1.106,46.343-2.425c7.727-1.83,14.104-5.716,21.071-7.285c7.666-1.727,15.739-3.037,22.679-6.532
		c6.561-3.303,12.309-7.054,19.896-8.729c6.57-1.451,12.348-4.203,18.581-7.206c5.013-2.417,9.14-6.024,13.828-8.639
		c4.737-2.64,9.959-4.933,14.541-7.553c4.753-2.717,8.693-5.918,13.48-8.655c4.899-2.804,12.102-7.261,15.626-12.094
		c-1.518-1.686-4.604-2.074-6.659-3.327c-1.8-1.1-3.27-3.207-5.569-2.844c-2.982,0.47-6.83,5.75-9.241,7.375
		c-5.494,3.701-12.555,6.715-18.577,9.585c-6.758,3.224-12.364,7.158-19.131,9.851c-7.515,2.993-14.443,7.139-21.365,10.214
		c-7.893,3.505-15.667,6.713-23.59,10.049c-4.2,1.768-8.274,3.242-12.002,5.453c-2.76,1.637-6.507,4.305-9.579,5.166
		c-6.113,1.711-14.193,1.935-20.632,2.285c-6.479,0.351-13.3-0.02-19.608,0.286c-7.662,0.37-13.498,0.813-19.802,4.502
		c-5.649,3.308-13.86,4.338-20.645,6.356c-8.356,2.485-14.92,7.495-23.126,10.12c-7.851,2.51-15.627,3.566-23.743,5.161
		c-8.119,1.595-15.609,5.403-23.041,9.127c-3.454,1.73-7.341,2.628-11.242,3.151c-3.654,0.49-8.309,2.875-11.999,2.053
		c-0.354-6.786-0.997-13.919-0.344-20.781c0.767-8.053,3.232-15.331,3.232-23.594c0-7.88-0.061-15.849,0.736-23.471
		c0.361-3.453,0.715-7.452,2.285-10.783c1.355-2.882,2.082-6.022,3.262-8.637c0.531-1.177,2.195-3.783,3.297-4.7L84.62,76.326
		L62.202,99.68z"/>
	<path fill="#FF0000" d="M287.967,259.242c0.865-2.168,7.066-2.487,9.252-2.966c3.146-0.691,6.068-1.747,9.298-2.589
		c2.658-0.693,5.117-1.665,7.875-2.131c3.06-0.52,7.54-1.751,10.626-1.379c3.364,0.404,8.554,8.419,10.214,11.526
		c1.545,2.887,2.437,4.276,5.771,2.758c2.729-1.244,5.404-3.021,8.242-4.378c3.356-1.606,5.438-4.07,8.296-6.273
		c2.932-2.258,6.758-3.868,10.118-5.631c2.863-1.5,5.792-3.099,8.779-4.531c2.528-1.21,7.372-3.054,9.088-5.149
		c1.292-1.576,0.599-2.445,0.804-4.541c0.201-2.063,0.634-2.399,1.854-3.985c2.332-3.031,2.904-3.427,6.938-3.427
		c6.068,0,12.14,0.029,18.209,0c4.157-0.02,3.971,1.568,2.604,5.274c-1.016,2.753-1.525,5.536-2.403,8.188
		c-0.938,2.836-3.581,1.924-6.581,1.924c-2.939,0-5.88,0-8.818,0c-2.715,0-5.444-0.176-7.905,0.604
		c-1.504,0.476-6.079,1.904-6.984,3.022c-1.993,2.464,2.607,6.528-1.254,8.206c-2.521,1.095-5.147-0.566-7.767,1.011
		c-4.563,2.745-8.03,9.268-11.641,13.266c-2.454,2.717-5.197,4.549-7.594,7.354c-1.86,2.179-3.58,4.732-5.701,6.635
		c-0.842-4.627-5.362-8.951-8.281-12.403c-1.887-2.231-4.021-2.862-5.845-4.822c-2.482-2.671-2.644-2.817-6.681-2.817
		c-6.194,0-12.931,1.846-18.566,4.195c-2.188,0.912-5.344,2.794-7.643,2.962c-3.723,0.273-6.494-4.164-8.867-6.544
		c-1.397-1.403-3.479-3.243-5.158-3.636"/>
	<path fill="#FF0000" d="M327.269,401.391c6.081-3.313,14.493-2.921,20.503-7.119c4.567-3.19,11.162-8.125,17.01-7.595
		c0.188,3.752,0.399,5.962,2.038,9.21c0.78,1.548,2.417,3.739,2.833,5.256c0.548,1.994-0.283,3.01,1.009,4.519
		c0.69,0.807,2.842,1.182,3.776,1.703c2.057,1.145,3.734,2.463,5.889,3.665c2.932,1.634,6.028,3.063,9.193,4.574
		c7.537,3.595,15.345,7.364,23.024,10.095c11.101,3.943,22.468,3.479,34.076,3.938c6.431,0.256,12.985,1.875,19.625,2.24
		c2.306,0.127,4.408,0.502,6.74,0.029c1.871-0.377,4.996-2.033,7.399-0.99c3.502,1.52,4.776,7.941,6.333,11.264
		c1.583,3.385,1.83,6.971,3.325,10.514c1.264,0.447,2.063,2.99-0.012,3.311c0.721,1.164,1.52,2.299,1.201,3.773
		c-2.316,0.527-6.463-3.021-8.867-3.916c-4.242-1.58-8.76-2.389-12.912-3.826c-7.366-2.561-14.694-2.414-22.168-4.189
		c-13.688-3.254-27.852-4.387-41.701-7.277c-5.615-1.172-11.426-3.607-16.869-6.098c-5.246-2.4-9.723-6.738-14.852-9.703
		c-0.278-4.25-1.282-6.941-2.687-10.866c-1.096-3.063-0.875-6.579-1.982-9.577c-15.899,0.715-26.423,17.93-40.612,22.73
		c-0.774-6.553,4.757-20.637-1.314-25.018"/>
	<path fill="#FF0000" d="M417.089,537.494c11.075,11.32,26.061,13.201,41.434,15.531c14.295,2.168,29.654-0.686,44.1,0.055
		c1.078,6.771,1.67,12.182,4.343,18.412c-5.163,1.611-9.507-1.133-14.46-2.127c-5.157-1.033-10.06-1.668-15.438-1.668
		c-4.926,0-8.436,0.787-12.9,1.652c-4.791,0.934-10.149,0.445-15.112,0.445c-10.541,0-19.657,0.482-27.904-6.324
		c-3.521-2.908-6.429-4.609-6.996-9.104c-0.471-3.719-0.199-8.104,0-11.84c0.154-2.898,1.739-5.352,1.638-7.906
		c-6.225,0.281-15.484,7.055-21.137,10.1c-7.248,3.898-12.704,8.967-19.421,13.568c-6.077,4.166-12.057,9.307-18.645,13.486
		c-6.365,4.037-11.507,4.908-19.045,4.699c-0.909-6.979-1.848-20.43,1.93-26.396c4.423-6.986,15.395-8.158,22.238-10.932
		c4.089-1.654,8.72-3.129,13.146-3.748c4.713-0.658,9.344-0.211,13.634-2.193c9.774-4.516,21.69-12.145,29.372-19.914
		c0.456,8.105,0.324,16.598,0.483,24.621"/>
</g>
<g id="Layer_3">
	<path d="M674.708,625.261c-10.014,1.201-19.619,5.41-29.58,7.484c-25.592,5.324-51.424,9.865-77.408,3.301
		c-13.96-3.525-15.26-8.801-6.733-19.971c7.79-10.205,5.622-16.711-7.012-19.414c-5.668-1.213-12.34,0.434-17.293-1.904
		c-8.933-4.209-17.918-9.439-24.788-16.326c-2.715-2.727-0.063-11.051,0.537-16.785c1.555-14.77,9.188-28.406,0.772-44.629
		c-6.903-13.309-7.512-29.766-11.909-44.525c-4.435-14.881-10.122-29.383-15.223-44.064c-10.088-29.057-18.417-58.702-43.13-80.365
		c-8.168-7.154-18.309-16.962-14.055-30.211c6.983-21.758-2.888-40.271-8.892-59.746c-1.793-5.822-4.339-12.887-2.604-18.066
		c7.714-23.009,2.939-43.506-4.207-66.311c-10.102-32.248-27.829-57.874-53.218-77.522c-40.338-31.217-79.938-64.151-130.843-78.468
		C194.801,8.076,160.747-2.022,124.59,0.351c-5.554,0.366-11.717,2.08-16.272,5.145c-19.838,13.32-23.264,27.432-14.684,57.526
		c1.206-5.978,1.127-11.782,3.535-16.243c5.28-9.764-6.354-25.981,9.943-30.392c11.505-3.109,24.128-2.101,36.255-2.9
		c0.96-0.064,1.962,0.053,2.906,0.269c23.66,5.313,47.379,10.39,70.961,16.034c52.197,12.495,92.045,46.292,133.035,77.962
		c6.987,5.397,8.369,9.756-2.882,13.73c-9.397,3.316-17.261,10.973-25.805,16.711c28.252-10.235,53.91-4.548,68.598,15.244
		c1.448,1.954,4.105,4.232,3.852,6.026c-2.62,18.33,12.942,28.747,18.659,43.422c6.851,17.587-2.998,31.918-6.938,47.425
		c-0.865,3.409-3.479,6.371-6.229,11.19c-5.746-8.341-10.521-15.269-13.948-20.246c4.479-9.74,8.101-17.609,11.719-25.478
		c-19.771,4.502-26.276,26.28-16.851,42.756c3.111,5.435,7.388,10.513,9.078,16.345c1.16,4.007,0.234,10.525-2.463,13.176
		c-2.382,2.347-8.89,2.162-12.898,0.911c-19.501-6.085-28.232-23.503-36.015-39.633c-6.96-14.429-16.066-25.308-29.714-32.191
		c-15.966-8.048-32.649-14.654-48.909-22.131c-3.92-1.803-7.402-4.571-9.113-5.65c23.286-16.97,45.653-33.271,68.019-49.574
		c-3.502,1.596-7.431,2.617-10.443,4.87c-33.398,24.96-70.813,37.559-112.544,38.096c-8.153,0.104-16.772,1.568-24.319,4.56
		c-38.537,15.284-76.754,31.379-115.17,46.971c-14.449,5.864-27.717,16.413-46.748,12.604c1.996-14.749,9.203-41.243,11.506-56.265
		c0.271,0.011,0.543,0.023,0.815,0.033c1.597-13.334,4.029-26.632,4.58-40.007c0.316-7.689,0.884-12.124,2.887-14.088
		c3.938-7.573,12.406-12.335,18.464-18.407c9.729-9.752,18.617-20.303,27.466-30.845c3.644-4.339,7.573-9.247,12.184-13.006
		c-0.169,0-0.337,0.002-0.508,0.002c-0.14,0.203-0.517,0.682-0.96,1.087c-18.801,17.275-37.973,34.166-56.212,52.016
		c-5.485,5.363-10.957,13.035-11.918,20.247c-1.871,14.05-0.548,28.523-0.548,42.821c0.148,0.006,0.297,0.011,0.447,0.018
		c-4.279,19.779-13.56,51.228-17.489,70.189c1.355,1.339,2.714,2.675,4.07,4.013c18.107-7.18,36.4-13.924,54.272-21.643
		c24.404-10.545,48.229-22.49,72.891-32.365c6.606-2.648,16.234-2.098,22.963,0.666c26.728,10.981,52.67,23.857,79.271,35.158
		c17.858,7.591,36.658,12.999,54.393,20.839c7.719,3.411,16.521,9.77,3.196,18.812c-2.598,1.761-4.938,6.847-4.363,9.813
		c2.282,11.781,5.935,23.281,8.769,34.958c4.596,18.926,28.074,28.629,25.092,51.312c-0.021,0.144,2.139,1.006,3.519,1.332
		c1.569,13.334,3.586,26.297,5.187,39.598c2.508-0.514,5.017-1.031,7.525-1.545c-4.179-12.709-8.357-25.414-12.539-38.121
		c-0.425-5.957-0.849-11.916-1.418-19.925c11.417,3.072,20.534,4.805,29.021,8.146c3.718,1.464,7.583,5.725,8.896,9.563
		c5.161,15.09,10.235,30.334,13.394,45.916c1.158,5.707-1.117,14.867-5.271,18.363c-11.379,9.578-24.587,16.982-37.948,25.83
		c-1.567-3.926-2.831-7.088-4.525-11.322c-13.282,29.957-14.979,56.736,13.67,80.713c1.066-5.521,2.463-9.83,2.634-14.197
		c0.416-10.713,0.145-21.447,0.379-32.166c0.477-21.768,9.243-31.313,32.687-34.91c0.332,6.836,1.946,13.82,0.716,20.264
		c-2.628,13.727,3.999,20.637,15.451,25.229c2.688,1.08,5.108,2.811,7.747,4.039c10.673,4.979,16.678,12.258,15.415,25.07
		c-1.336,13.557-0.519,27.34-2.109,40.85c-0.565,4.803-4.643,10.012-8.526,13.439c-8.755,7.73-18.052,14.992-27.846,21.344
		c-3.685,2.389-11.001,4.004-13.77,1.992c-5.95-4.326-11.868-10.527-14.452-17.244c-4.545-11.805-6.578-24.582-10.013-38.344
		c-0.954,4.631-2.233,8.564-2.519,12.576c-2.087,29.316,19.975,64.936,47.617,75.115c18.148,6.689,37.165,11,55.39,17.498
		c14.331,5.109,28.654,10.846,41.918,18.209c32.665,18.146,64.72,37.395,100.072,57.979c7.799-33.586-13.947-49.371-31.268-70.781
		c33.827-4.67,64.396-8.891,93.885-12.963c-2.128-0.832-5.759-2.25-10.275-4.018c7.729-3.139,13.798-7.166,20.203-7.785
		c6.755-0.65,14.323,4.01,20.607,2.5c5.372-1.299,9.434-8.043,14.076-12.377C683.548,629.666,678.803,624.773,674.708,625.261z
		 M338.827,519.117c-15.746-15.801-15.712-21.291,1.729-34.4C339.914,497.472,339.427,507.185,338.827,519.117z M513.475,599.449
		c0.435,0.43-4.338,9.016-7.487,9.625c-8.977,1.73-18.369,1.305-27.601,1.729c-6.813-0.014-13.622,0.014-20.435-0.02
		c-24.944-0.123-39.142-10.699-40.78-39.061c-1.361-23.508,2.736-47.424,5.696-70.994c0.407-3.238,9.263-8.775,12.416-7.75
		c17.74,5.775,36.009,11.443,51.817,20.941c6.891,4.146,10.737,17.047,11.798,26.439
		C501.208,560.775,496.387,582.541,513.475,599.449z M450.29,378.585c1.125,1.437-3.041,7.021-4.757,10.687
		c-7.901-7.226-16.271-14.011-23.554-21.815c-5.096-5.459-10.855-12.027-0.729-22.231
		C431.639,356.893,441.471,367.343,450.29,378.585z M272.437,246.888c-35.207-12.863-72.284-21.196-107.966-45.383
		c43.071-18.267,76.924,0.127,112.87,12.987c41.119,14.71,55.507,50.489,77.313,87.209c-13.277-2.307-23.971-4.167-34.669-6.024
		c0.132-1.884,0.26-3.767,0.394-5.652c5.194-0.495,10.392-0.986,17.309-1.649C319.56,267.097,296.725,255.756,272.437,246.888z
		 M300.772,319.835c-2.033-5.989-2.966-12.353-4.039-16.961c17.824,3.85,33.867,9.206,50.177,10.203
		c12.088,0.736,25.71-1.883,36.417-7.364c8.158-4.178,12.788-15.216,19.045-23.156c2.754-3.502,5.646-6.894,8.478-10.333
		c2.214,3.414,5.328,6.554,6.449,10.298c2.219,7.4,3.67,15.083,4.847,22.738c4.337,28.261-2.317,40.605-28.468,51.006
		C368.421,366.311,312.513,354.465,300.772,319.835z M397.591,477.871c-14.792,1.188-17.73-5.197-18.348-16.961
		c-0.734-14.059-0.706-28.271-3.004-42.091c-1.869-11.239-6.778-21.965-10.144-32.981c-1.176-3.846-1.77-7.871-2.258-10.104
		c13.411-5.119,24.799-10.301,36.715-13.525c3.711-1,10.8,2.071,12.946,5.441c4.596,7.211,5.477,17.04,10.698,23.53
		c4.876,6.06,12.957,10.877,20.515,12.845c3.449,0.898,9.027-6.357,15.816-11.592c17.456,32.691,28.853,69.301,40.921,108.611
		c-22.075-7.594-38.912-14.936-56.505-18.979C429.588,478.535,413.208,476.617,397.591,477.871z M398.077,621.71
		c-4.125-4.33-13.745-10.82-3.445-19.076c9.106-7.303,16.048-6.311,24.874,2.535c12.217,12.246,26.515,22.553,40.601,32.75
		c8.499,6.15,18.287,10.521,27.497,15.689C452.917,655.859,422.126,646.964,398.077,621.71z M565.693,711.951
		c-19.7-9.613-38.408-18.742-57.116-27.869c0.727-1.41,1.447-2.816,2.172-4.225C535.933,679.039,568.699,690.455,565.693,711.951z
		 M465.323,623.533c43.514-22.879,72.867,3.252,100.849,30.688C547.198,662.632,482.729,643.359,465.323,623.533z"/>
</g>
</svg>
