<?xml version="1.0" encoding="utf-8"?>
<!-- Generator: Adobe Illustrator 16.0.0, SVG Export Plug-In . SVG Version: 6.00 Build 0)  -->
<!DOCTYPE svg PUBLIC "-//W3C//DTD SVG 1.1//EN" "http://www.w3.org/Graphics/SVG/1.1/DTD/svg11.dtd">
<svg version="1.1" id="Layer_1" xmlns="http://www.w3.org/2000/svg" xmlns:xlink="http://www.w3.org/1999/xlink" x="0px" y="0px"
	 width="688.082px" height="737.535px" viewBox="0 0 688.082 737.535" enable-background="new 0 0 688.082 737.535"
	 xml:space="preserve">
<g id="Layer_4">
	<polygon fill="#393DFF" points="131.812,6.856 209.521,19.291 289.302,53.483 328.676,80.423 376.338,119.794 403.277,166.421 
		412.292,187.207 417.594,209.661 414.164,240.845 410.733,256.75 417.594,272.654 423.519,287.312 425.39,303.215 425.39,312.26 
		425.39,335.648 439.423,353.112 465.62,387.916 499.609,480.972 510.838,532.117 504.912,576.71 528.612,596.669 551.69,628.791 
		567.595,644.07 632.147,644.07 681.732,632.533 672.646,644.714 643.469,653.791 563.228,661.535 539.527,667.771 552.313,681.494 
		574.455,707.062 570.713,726.708 470.609,667.769 409.486,646.562 348.674,605.708 338.374,556.16 340.635,538.054 
		328.092,514.027 323.103,488.455 326.391,460.083 329.256,423.177 324.244,383.513 316.552,354.668 293.164,309.761 
		296.283,292.297 308.757,269.533 264.787,249.887 152.519,204.044 131.812,206.54 11.561,257.058 5.636,248.951 20.607,184.397 
		23.414,140.114 39.94,122.027 86.679,74.305 93.716,63.024 92.332,38.139 96.697,19.739 114.474,6.856 	"/>
	<polygon fill="#FFFFFF" points="36.738,125.902 29.369,141.477 27.159,169.744 21.265,202.535 16.843,242.324 40.791,234.094 
		82.422,218.376 110.054,206.821 149.844,191.483 176.739,182.863 212.845,179.324 242.318,172.692 293.16,150.955 344.961,122.497 
		359.819,111.436 344.961,97.166 336.734,101.941 291.617,130.324 244.16,154.457 199.212,163.114 148.001,174.166 85.471,195.535 
		47.261,204.745 44.843,193.692 40.791,177.113 47.261,141.477 58.107,112.969 58.107,104.167 49.346,111.436 	"/>
</g>
<g id="Layer_1_1_">
	<path fill="#FFFFFF" d="M337.049,578.603c0.18,5.129,4.082,11.779,6.608,15.953c1.714,2.83,1.416,3.014,4.277,3.764
		c3.115,0.818,7.578,0.031,10.834,0c14.197-0.135,22.949-13.32,34.479-19.422c7.787-4.117,15.845-5.629,23.494-0.215
		c4.435,3.143,7.625,7.795,11.661,11.049c4.728,3.807,10.907,5.436,16.854,6.867c11.396,2.742,24.986,1.658,36.62-0.281
		c9.226-1.537,18.6-1.773,27.53-3.945c0.22-5.004-1.265-9.539-2.769-14.229c-1.174-3.664-1.67-10.078-3.896-12.867
		c-1.93-2.414-9.276-4.201-12.391-4.65c-3.818-0.549-7.895-0.445-11.75-0.785c-6.895-0.604-13.795-0.533-20.75-0.533
		c-6.934,0-13.504-0.34-20.298-1.145c-4.908-0.58-16.021-1.5-19.985-4.814c-6.313-5.275,0.263-17.555-0.535-24.18
		c-4.36-0.27-8.502-0.652-12.026,1.92c-3.5,2.557-5.929,6.287-9.732,8.82c-7.383,4.92-14.948,8.395-23.406,11.115
		c-8.453,2.717-15.846,7.27-23.142,12.455c-6.493,4.615-8.657,8.936-11.257,15.965"/>
	<path fill="#FFFFFF" d="M326.71,456.919c6.383-6.215,14.75-8.762,22.132-13.811c4.287-2.934,8.84-5.627,12.936-8.971
		c3.516-2.867,9.359-8.467,13.92-8.941c0.555,3.625,0.646,9.105-0.592,12.467c-1.544,4.193-2.475,6.627,1.347,10.027
		c2.456,2.188,5.938,3.104,7.962,5.697c2.728,3.498,3.104,8.521,7.453,11.01c8.888,5.078,20.884,3.492,30.494,5.504
		c3.248,0.68,6.404,2.02,9.653,2.938c3.542,1.008,7.417,0.85,11.023,1.477c5.601,0.975,11.015,2.156,16.379,3.689
		c6.843,1.959,13.153,5.625,20.063,7.574c6.127,1.729,13.743,1.129,20.055,0.818c1.021-4.867-1.736-10.148-3.119-14.785
		c-2.104-7.061-1.007-14.955-8.34-19.188c-6.416-3.705-12.499-5.258-20.102-6.42c-5.572-0.85-10.359-1.693-16.176-1.926
		c-6.238-0.25-12.244-1.285-18.244-2.656c-5.695-1.301-11.213-3.77-16.632-5.322c-6.688-1.918-13.643-3.309-20.384-5.23
		c-5.675-1.617-12.273-4.563-17.095-7.645c-4.096-2.615-5.654-4.995-7.133-9.266c-1.213-3.512-1.672-5.949-2.271-9.646
		c-0.645-3.979-4.122-3.248-8.032-2.939c-15.206,1.201-23.459,12.481-33.052,22.805L326.71,456.919z"/>
	<path fill="#FFFFFF" d="M300.373,265.194c1.665-0.563,2.832-2.115,4.438-2.892c2.688-1.303,5.998-1.478,8.797-2.313
		c3.862-1.157,7.59-1.543,11.479-2.615c3.075-0.848,5.791-1.808,8.303,0.252c3.815,3.126,5.084,7.663,7.014,11.957
		c0.578,1.289,1.277,3.8,2.865,3.894c1.513,0.089,3.521-3.131,4.377-4.244c1.926-2.507,4.051-4.858,6.818-6.51
		c4.334-2.586,8.937-4.817,13.434-6.954c3.259-1.546,5.876-3.873,9.344-5.074c4.082-1.415,5.907-0.207,6.106-5.776
		c0.058-1.623-0.444-3.637,0.615-4.822c1.248-1.396,4.208-1.309,5.865-1.545c5.736-0.823,11.895-0.282,17.71-0.282
		c0.832,0,3.948-0.452,4.556,0.159c0.672,0.675,0.318,5.167,0.107,6.229c-1.544,7.781-5.38,14.343-13.982,15.042
		c-3.727,0.302-5.681-0.063-8.749,2.476c-3.123,2.581-4.391,5.005-5.558,8.802c-2.188,7.112-11.941,22.791-21.477,19.809
		c-6.894-2.155-9.609-11.578-17.261-11.58c-7.501-0.001-14.891,0.518-22.328,0.55c-9.749,0.041-15.214-8.992-22.22-14.384
		c-0.635-0.487-1.273-1.007-1.902-1.552"/>
	<polygon fill="#E2C374" points="291.617,296.655 341.062,306.302 380.376,296.655 399.431,277.841 413.42,265.542 422.958,285.922 
		427.17,315.951 425.39,335.648 404.496,357.195 369.281,364.915 326.59,355.024 303.675,335.246 291.617,305.821 	"/>
	<g>
		<path fill="#FFFFFF" d="M334.283,87.916c-3.338,2.12-6.897,3.824-10.343,5.678c-3.456,1.86-7.276,2.99-10.837,4.669
			c-4.931,2.329-9.53,5.534-14.555,7.998c-4.175,2.044-7.665,4.781-11.73,6.912c-5.223,2.739-11.265,2.88-16.693,5.246
			c-1.819,0.794-3.389,2.308-5.121,3.058c-2.333,1.007-4.896,1.043-7.321,2.084c-5.857,2.509-10.143,6.762-16.034,9.288
			c-11.069,4.744-21.122,7.404-33.206,8.118c-13.07,0.77-28.888-2.767-40.327,4.565c-6.767,4.335-16.882,5.44-24.791,9.318
			c-9.29,4.558-19.188,9.341-28.97,13.512c-10.594,4.518-21.647,5.804-32.344,9.883c-6.886,2.626-13.296,6.303-20.08,9.194
			c-0.078-1.247-0.134-2.497-0.13-3.755c0.021-7.39,0.715-14.611,1.035-21.883c0.3-6.752-1.235-13.313-0.522-19.97
			c0.81-7.566,1.514-15.112,2.266-22.705c0.291-2.927,0.547-6.201,1.166-9.051c0.708-3.265,3.804-7.891,5.607-10.59
			c7.729-11.569,2.949-8.647,11.396-18.908l2.725-4.444c-1.896,2.838-3.908,5.279-6.2,8.066
			c-8.448,10.26-13.646,23.048-22.885,32.588c-2.259,2.332-4.474,4.242-5.183,7.508c-0.619,2.848-0.875,6.123-1.166,9.049
			c-0.752,7.593-1.455,15.14-2.266,22.705c-0.713,6.658,0.822,13.216,0.523,19.97c-0.222,5.013-0.609,10.005-0.844,15.042
			c-0.104,2.27-0.187,4.546-0.191,6.841c-0.009,3.005,0.258,5.969,0.598,8.92c3.434-0.706,7.063-0.83,10.397-2.054
			c1.804-0.663,3.564-1.407,5.313-2.19c6.185-2.765,12.113-6.063,18.439-8.478c10.696-4.079,21.75-5.365,32.345-9.882
			c9.78-4.172,19.68-8.956,28.97-13.513c7.909-3.877,18.024-4.983,24.791-9.32c11.439-7.329,27.257-3.793,40.327-4.563
			c12.084-0.713,22.137-3.373,33.206-8.118c5.893-2.525,10.177-6.778,16.034-9.287c2.426-1.041,4.988-1.077,7.321-2.085
			c1.732-0.749,3.302-2.264,5.121-3.057c5.43-2.367,11.472-2.507,16.693-5.246c4.065-2.131,7.557-4.869,11.73-6.913
			c5.023-2.463,9.624-5.668,14.555-7.997c3.561-1.68,7.381-2.81,10.837-4.669c3.444-1.854,7.005-3.559,10.343-5.678
			c4.826-3.062,7-7.347,10.679-11.268L334.283,87.916z"/>
		<path fill="#FFFFFF" d="M85.471,76.132c0.746-1.119,1.478-2.295,2.195-3.587L85.471,76.132z"/>
	</g>
	<path fill="#FF0000" d="M355.029,114.388c-3.205-2.702-16.165,5.134-20.191,7.169c-7.747,3.918-14.342,8.132-21.35,13.02
		c-19.854,13.844-43.487,26.345-66.547,34.001c-10.546,3.501-21.646,5.043-32.308,7.44c-6.604,1.484-12.689,3.418-19.573,3.5
		c-7.703,0.093-17.266-1.459-24.779-0.032c-3.035,0.577-6.404,2.766-9.367,3.986c-5.358,2.21-11.063,3.779-16.577,5.776
		c-4.728,1.711-9.549,5.219-14.571,6.873c-5.771,1.902-11.465,3.917-17.313,5.601c-6.798,1.959-13.669,1.987-20.283,5.367
		c-3.33,1.702-6.501,4.183-9.877,5.781c-11.17,5.29-22.543,10.28-34.225,14.213c-5.758,1.939-11.718,3.574-17.448,5.324
		c-2.712,0.827-5.001,2.604-7.357,3.991c0.358-5.255,0.752-10.5,0.745-15.877c-0.008-6.443,0.558-13.041,1.65-19.355
		c0.877-5.063,2.934-9.564,3.619-14.694c1.229-9.175,0.311-18.946,0.416-28.27c0.055-4.886,1.042-8.37,2.722-12.876
		c1.61-4.32,1.386-9.392,3.61-13.445c3.506-6.391,12.131-13.257,13.323-20.442c-4.109,2.699-7.745,6.91-11.324,10.266
		c-4.002,3.754-10.669,8.516-13.337,13.389c-3.92,7.165-4.586,19.512-5.498,27.845c-0.943,8.594,1.841,17.216,0.467,25.693
		c-1.593,9.818-5.013,19.572-6.896,29.683c-1.627,8.736-5.733,17.231-7.456,25.902c-1.181,5.937-2.691,10.047,4.646,10.077
		c5.205,0.023,7.68-3.051,12.308-4.81h0.438c0-0.565,0.018-1.125,0.027-1.688c3.292-0.899,6.553-1.834,9.957-2.565
		c10.528-2.262,20.899-7.76,30.988-11.574c10.932-4.131,21.703-9.362,32.489-12.947c9.375-3.114,17.754-6.376,27.156-9.632
		c11.455-3.965,22.054-10.031,33.731-14.197c12.705-4.533,26.956-5.969,40.164-9.465c6.77-1.792,13.32-2.41,20.24-3.084
		c8.594-0.837,16.734-3.832,25.254-4.819c18.83-2.183,37.716-14.19,52.955-25.352c13.445-9.848,26.146-18.205,42.736-22.398
		C343.154,130.555,363.891,121.868,355.029,114.388z"/>
	<path fill="#FF0000" d="M379.023,439.935c3.283,2.109,3.991,6.313,6.678,9.086c2.08,2.15,7.15,5.076,9.623,6.795
		c5.353,3.723,11.697,4.537,18.584,5.67c18.257,3.002,38.035,7,56.341,11.316c8.389,1.979,18.491,3.555,24.987,9.049
		c7.449,6.301,6.864,17.529,9.533,26.352c-8.951-5.379-16.01-8.699-27.17-8.699c-6.777,0-12.477,0.695-18.294-2.262
		c-4.253-2.156-7.563-5.557-12.36-7.189c-9.66-3.289-22.26-0.791-33.057-0.816c-13.338-0.033-23.282,1.715-32.691-7.611
		c-0.59-9.121-1.317-33.029-14.362-28.865c-6.854,2.188-12.329,10.064-18.66,13.863c-3.301,1.982-6.87,3.432-10.045,5.801
		c-1.593,1.188-6.626,7.736-8.591,7.826c-4.743,0.215-4.086-11.648-3.923-15.631c0.329-8.104,0.602-15.377,7.396-19.926
		c12.505-8.369,27.526-10.51,37.266-22.541c1.9-2.35,1.568-4.16,4.519-4.723c0.375,3.835,1.78,6.887,2.174,10.865
		c0.414,4.189-1.156,8.939,1.369,12.326"/>
	<path fill="#FF0000" d="M417.367,643.292c11.404,8.414,33.716-2.322,46.562-3.574c13.91-1.355,30.129,4.525,43.689,9.014
		c9.958,3.295,25.649,1.125,35.153-2.699c6.352-2.557,7.991-6.861,14.359-4.504c4.086,1.516,13.373,6.807,12.922,12.035
		c-0.527,6.098-13.018,9.285-18.297,9.734c-10.88,0.928-22.24-0.752-33.017-2.236c-14.664-2.02-29.121,1.594-43.754,2.121
		c-21.125,0.764-42.332-8.551-59.674-19.205"/>
	<path fill="#FF0000" d="M305.074,270.125c7.988,5.054,20.218,6.5,29.865,6.848c6.092,0.219,9.676-1.839,13.441,1.904
		c2.93,2.91,3.659,7.419,7.396,10.181c1.21-6.219,9.185-4.983,12.976-8.817c3.505-3.543,5.743-10.686,8.216-14.925
		c2.029-3.478,2.109-14.328,5.652-16.43c3.999-2.374,6.094,3.883,7.824,7.814c8.442-4.265,18.804-9.794,24.046-17.9
		c0.702,5.303-3.762,19.348-7.17,23.639c-2.877,3.624-7.178,2.023-9.537,4.313c-2.047,1.989-2.052,8.558-2.862,11.041
		c-1.734,5.307-4.691,17.37-10.385,19.922c-5.414,2.43-18.689-0.472-24.679-0.064c1.824,1.699,1.467,3.071,1.945,5.238
		c-6.888,0.729-12.253,3.631-18.918,3.375c-5.941-0.227-12.105-3.503-17.787-6.181c-6.354-2.995-13.185-2.892-15.234-8.865
		c-1.395-4.07-6.791-16.559-3.42-19.722"/>
	<path fill="#FFFFFF" d="M254.406,245.477c11.146,1.356,22.599-4.535,33.379-5.479c11.718-1.026,22.275-5.639,33.604-6.741
		c3.02,12.712,12.114,13.579,22.047,8.129c7.436-4.078,20.441-12.311,25.521-19.172c3.07-4.145,3.08-6.887,7.978-9.642
		c1.924-1.081,5.389-1.228,6.896-3.353c1.583-2.233,0.392-5.812,1.818-8.266c3.682-6.333,6.114-2.572,10.49,0.551
		c3.778,2.697,4.372,4.611,10.539,2.902c1.963-0.543,6.087-2.697,7.852-4.081c4.681,11.571,6.353,19.855,2.049,31.388
		c-6.572,0.519-11.705-0.922-18.381,0.068c-2.619,0.389-5.506,1.043-8.254,1.183c-2.443,0.123-5.063-0.78-8.113-0.392
		c-0.159,5.364,3.101,12.284-0.055,15.503c-1.328,1.356-8,2.656-10.32,4.23c-3.363,2.283-6.512,5.183-9.894,7.549
		c-3.454,2.416-12.239,10.883-16.378,10.819c-4.585-0.071-5.43-7.497-8.629-11.487c-4.105-5.12-5.972-5.167-13.525-4.81
		c-8.25,0.39-13.975,5.169-21.947,6.213c-7.082,0.928-17.793-0.92-24.229-3.302c-5.158-1.907-8.802-5.943-13.511-8.275
		c-2.094-1.038-4.748-1.324-6.881-2.169"/>
	<path fill="#FFFFFF" d="M489.261,442.671c-4.361-1.439-9.771-1.348-14.379-1.367c-9.328-0.041-16.019-1.857-25.403-3.324
		c-14.604-2.277-29.382-1.693-43.563-5.465c-8.703-2.313-17.672-6.246-24.655-11.869c-8.29-6.674-10.738-16.295-13.298-26.486
		c-6.981-0.709-15.108,7.775-21.807,9.786c-4.413,1.323-10.731,3.548-15.631,3.054c-1.529-6.97-5.239-13.428-7.391-20.369
		c15.778,1.248,26.81-17.836,41.438-19.186c1.225,6.586-2.342,7.283,1.478,12.75c2.106,3.021,5.23,6.342,7.991,8.573
		c7.912,6.399,18.698,11.317,27.608,15.575c8.839,4.225,16.663,4.008,26.022,4.779c5.539,0.457,10.051,2.061,15.748,2.053
		c8.25-0.012,20.518-0.049,25.231-8.098c0.039,0.357-1.353-0.732-1.249-0.634c7.694-3.735,17.953,30.987,19.118,36.804"/>
	<path fill="#FFFFFF" d="M505.694,564.55c-3.53,1.65-7.21-0.354-10.919-0.719c-5.967-0.588-12.009,0.465-17.82,0.734
		c-13.761,0.643-24.675-0.189-37.62-4.143c-6.483-1.979-18.888-5.156-22.152-12.117c-1.682-3.59-0.304-9.934-0.348-13.896
		c-0.048-4.332-1.609-7.404-1.777-11.406c-13.582,7.717-27.367,17.703-40.842,24.984c-10.269,5.545-23.72,15.77-36.17,13.723
		c-1.027-5.902,1.404-12.285,1.301-18.385c-0.045-2.576-1.362-5.414-0.734-8.217c1.212-5.416,1.111-3.719,5.49-5.479
		c11.792-4.744,26.25-5.576,38.214-10.805c7.608-3.324,14.53-8.605,21.358-13.184c4.73-3.172,13.106-12.678,16.465-6.807
		c2.721,4.76-2.051,13.506-0.718,18.469c1.518,5.652,11.093,11.688,17.042,13.613c14.722,4.766,32.183,6.248,47.559,6.926
		c8.506,0.377,16.559-4.688,24.359-3.33c0.26,10.135-0.967,20.24-1.316,30.035"/>
	<path fill="#FFFFFF" d="M473.513,636.449c10.123,3.176,20.873-5.645,30.106-9.281c7.521-2.961,25.156-6.855,25.949-16.635
		c-11.215-0.576-18.537-4.123-29.476-8.066c-4.837-1.746-10.905-3.873-16.005-3.678c-5.295,0.203-7.529,3.139-12.117,5.514
		c-7.226,3.736-15.951,4.73-22.922,8.336c-7.029,3.635-12.875,6.932-21.363,8.742c-11.846,2.525-24.592,4.533-36.758,5.482
		c-4.954,0.385-23.138,3.563-26.709-0.293c-1.242-1.338-0.613-9.309-0.297-11.352c1.174-7.582,5.207-16.135,13.043-17.648
		c6.922-1.342,14.182,1.6,21.069,1.896c20.281,0.889,39.979-1.119,60.234-1.297c0.543,4.441-1.927,9.867-2.54,14.354
		c-1.22,8.896-1.087,8.695,3.423,12.945c3.992,3.766,10.978,9.064,15.729,11.66"/>
	<path fill="#FF0000" d="M416.681,573.451c4.476,2.807,7.555,6.156,11.074,9.436c7.952,7.41,16.452,6.504,27.229,7.002
		c9.28,0.428,18.26,1.885,27.698,1.23c9.487-0.658,23.95-6.211,31.058,0.102c5.998,5.328,7.228,9.652,1.709,15.234
		c-7.021,7.105-8.346,4.945-16.923,5.188c-4.405,0.125-7.859,2.65-12.105,3.498c-4.971,0.988-10.209,0.305-15.479,0.748
		c-10.959,0.92-25.079,5.146-35.598-0.084c-1.623-0.807-4.25-5.203-5.072-6.502c-4.795-0.16-7.889-4.563-12.727-5.186
		c-0.253-4.535-2.997-12.658-8.104-12.775c-5.138-0.115-15.938,9.936-20.166,13.074c-5.036,3.736-9.844,10.887-15.729,13.025
		c-6.178,2.242-11.455-1.729-16.432-5.131c-4.5-3.074-10.544-6.617-10.272-12.809c0.268-6.088,9.971-8.963,15.75-11.672
		c14.141-6.631,30.793-13.256,43.119-23.436c3.949-3.262,8.174-7.406,10.337-11.943c-0.158,6.553-0.089,12.561-1.559,18.844
		c0.148,0.797,0.65,1.059,1.508,0.787"/>
	<path fill="#FF0000" d="M62.285,99.68c-3.896,1.557-5.367,5.875-6.559,9.497c-1.13,3.434-2.965,5.402-5.131,8.176
		c-2.146,2.75-3.662,5.077-4.894,8.116c-1.347,3.33-2.143,7.141-3.582,10.417c-6.067,13.813-3.733,30.434-4.512,45.943
		c-0.314,6.274,0.016,12.893-1.484,18.88c-1.641,6.559-2.676,12.948-2.134,20.145c5.466-3.433,12.06-6.421,18.347-8.069
		c3.357-0.879,6.75-1.139,10.01-2.238c3.343-1.128,6.621-2.555,10.235-3.552c7.591-2.097,15.232-4.701,22.205-8.279
		c7.028-3.608,14.324-5.522,21.729-8.126c8.402-2.957,17.191-4.645,25.446-8.401c7.411-3.371,15.19-7.218,23.202-9.723
		c14.675-4.588,31.427,1.105,46.342-2.425c7.727-1.83,14.104-5.715,21.071-7.285c7.665-1.726,15.739-3.035,22.679-6.529
		c6.562-3.304,12.309-7.055,19.896-8.73c6.568-1.451,12.348-4.204,18.58-7.208c5.012-2.415,9.139-6.023,13.828-8.638
		c4.738-2.64,9.959-4.933,14.541-7.554c4.753-2.715,8.693-5.916,13.479-8.654c4.9-2.804,12.104-7.26,15.626-12.096
		c-1.517-1.685-4.604-2.071-6.658-3.326c-1.799-1.099-3.269-3.206-5.568-2.843c-2.983,0.469-6.831,5.75-9.242,7.375
		c-5.494,3.702-12.555,6.715-18.577,9.586c-6.757,3.223-12.364,7.159-19.13,9.852c-7.515,2.991-14.443,7.138-21.365,10.215
		c-7.894,3.505-15.668,6.713-23.59,10.048c-4.2,1.769-8.275,3.243-12.002,5.453c-2.76,1.638-6.507,4.305-9.58,5.166
		c-6.113,1.711-14.192,1.935-20.631,2.285c-6.479,0.35-13.301-0.019-19.609,0.286c-7.661,0.37-13.498,0.814-19.801,4.502
		c-5.649,3.309-13.863,4.338-20.645,6.355c-8.357,2.485-14.92,7.496-23.127,10.121c-7.851,2.51-15.627,3.567-23.744,5.161
		c-8.119,1.595-15.607,5.403-23.039,9.127c-3.455,1.73-7.342,2.627-11.243,3.152c-3.654,0.489-8.309,2.874-11.999,2.052
		c-0.354-6.784-0.996-13.919-0.344-20.779c0.766-8.054,3.233-15.331,3.233-23.593c0-7.884-0.061-15.851,0.736-23.474
		c0.36-3.452,0.714-7.451,2.283-10.783c1.356-2.882,2.084-6.022,3.262-8.636c0.533-1.178,2.196-3.783,3.298-4.701L84.701,76.33
		L62.285,99.68z"/>
	<path fill="#FF0000" d="M288.05,259.242c0.863-2.168,7.066-2.488,9.25-2.966c3.147-0.689,6.07-1.747,9.3-2.589
		c2.656-0.692,5.115-1.664,7.874-2.132c3.06-0.519,7.54-1.751,10.626-1.378c3.365,0.404,8.555,8.421,10.215,11.526
		c1.545,2.887,2.437,4.277,5.771,2.759c2.729-1.243,5.403-3.021,8.241-4.379c3.357-1.606,5.438-4.07,8.297-6.273
		c2.931-2.258,6.757-3.867,10.117-5.63c2.863-1.502,5.793-3.098,8.779-4.53c2.529-1.212,7.372-3.056,9.088-5.149
		c1.292-1.576,0.598-2.447,0.804-4.541c0.202-2.065,0.635-2.399,1.854-3.985c2.332-3.031,2.903-3.427,6.938-3.427
		c6.068,0,12.14,0.028,18.207,0c4.158-0.019,3.972,1.567,2.604,5.273c-1.017,2.753-1.524,5.536-2.403,8.19
		c-0.938,2.835-3.58,1.922-6.582,1.922c-2.938,0-5.879,0-8.817,0c-2.714,0-5.443-0.175-7.905,0.604
		c-1.503,0.477-6.079,1.904-6.983,3.023c-1.994,2.464,2.607,6.527-1.255,8.205c-2.521,1.096-5.147-0.564-7.767,1.011
		c-4.562,2.744-8.03,9.269-11.642,13.265c-2.454,2.718-5.196,4.55-7.594,7.357c-1.859,2.179-3.579,4.73-5.699,6.634
		c-0.842-4.626-5.362-8.951-8.282-12.403c-1.887-2.229-4.021-2.861-5.845-4.823c-2.482-2.67-2.644-2.816-6.68-2.816
		c-6.195,0-12.932,1.847-18.566,4.197c-2.189,0.913-5.346,2.793-7.643,2.96c-3.724,0.272-6.494-4.164-8.867-6.545
		c-1.398-1.403-3.479-3.243-5.16-3.636"/>
	<path fill="#FF0000" d="M327.352,401.394c6.081-3.314,14.493-2.923,20.503-7.122c4.565-3.19,11.16-8.125,17.01-7.595
		c0.188,3.753,0.398,5.961,2.037,9.211c0.78,1.547,2.416,3.738,2.833,5.255c0.548,1.994-0.283,3.009,1.01,4.519
		c0.689,0.807,2.841,1.18,3.774,1.703c2.058,1.146,3.736,2.463,5.89,3.665c2.932,1.634,6.028,3.063,9.194,4.575
		c7.535,3.592,15.345,7.363,23.022,10.094c11.102,3.947,22.469,3.479,34.078,3.939c6.43,0.256,12.984,1.875,19.625,2.238
		c2.304,0.129,4.408,0.504,6.74,0.033c1.871-0.379,4.996-2.035,7.398-0.994c3.502,1.521,4.776,7.943,6.333,11.266
		c1.583,3.383,1.831,6.967,3.327,10.512c1.262,0.449,2.061,2.994-0.013,3.313c0.72,1.16,1.519,2.297,1.199,3.771
		c-2.315,0.529-6.462-3.021-8.865-3.916c-4.243-1.58-8.762-2.387-12.913-3.828c-7.365-2.555-14.695-2.412-22.169-4.188
		c-13.687-3.254-27.852-4.387-41.7-7.277c-5.615-1.172-11.425-3.609-16.869-6.098c-5.246-2.398-9.723-6.738-14.852-9.701
		c-0.277-4.252-1.282-6.943-2.687-10.867c-1.097-3.063-0.875-6.58-1.982-9.58c-15.899,0.717-26.422,17.932-40.61,22.73
		c-0.775-6.553,4.754-20.635-1.315-25.018"/>
	<path fill="#FF0000" d="M417.171,537.496c11.075,11.318,26.062,13.199,41.435,15.529c14.295,2.168,29.654-0.686,44.1,0.053
		c1.077,6.773,1.669,12.184,4.343,18.416c-5.164,1.613-9.508-1.135-14.461-2.129c-5.157-1.033-10.06-1.666-15.438-1.666
		c-4.924,0-8.435,0.785-12.899,1.65c-4.791,0.934-10.148,0.443-15.111,0.443c-10.541,0-19.658,0.484-27.904-6.324
		c-3.521-2.906-6.43-4.609-6.998-9.102c-0.469-3.719-0.197-8.105,0-11.84c0.154-2.898,1.741-5.352,1.64-7.906
		c-6.226,0.281-15.484,7.055-21.138,10.098c-7.248,3.9-12.704,8.969-19.42,13.57c-6.078,4.166-12.057,9.307-18.646,13.484
		c-6.364,4.039-11.507,4.91-19.046,4.701c-0.908-6.98-1.847-20.432,1.932-26.396c4.421-6.986,15.395-8.16,22.238-10.93
		c4.088-1.658,8.719-3.131,13.146-3.75c4.714-0.66,9.343-0.211,13.634-2.193c9.774-4.516,21.689-12.146,29.373-19.912
		c0.456,8.105,0.324,16.596,0.482,24.619"/>
</g>
<g id="Layer_3">
	<path d="M674.792,625.261c-10.015,1.201-19.621,5.408-29.581,7.482c-25.592,5.326-51.424,9.867-77.407,3.303
		c-13.961-3.525-15.262-8.801-6.734-19.973c7.791-10.203,5.623-16.709-7.011-19.412c-5.669-1.215-12.341,0.432-17.295-1.904
		c-8.931-4.209-17.916-9.439-24.786-16.326c-2.716-2.725-0.063-11.051,0.537-16.787c1.555-14.768,9.187-28.402,0.771-44.625
		c-6.904-13.311-7.511-29.768-11.91-44.527c-4.433-14.881-10.121-29.383-15.222-44.064c-10.088-29.055-18.416-58.701-43.129-80.365
		c-8.168-7.154-18.309-16.961-14.055-30.21c6.983-21.758-2.89-40.271-8.893-59.747c-1.794-5.822-4.339-12.888-2.604-18.066
		c7.715-23.009,2.94-43.507-4.207-66.311c-10.103-32.249-27.828-57.874-53.218-77.522c-40.339-31.217-79.938-64.151-130.843-78.469
		C194.884,8.077,160.83-2.022,124.671,0.351c-5.553,0.366-11.715,2.08-16.271,5.145C88.562,18.817,85.134,32.928,93.716,63.022
		c1.205-5.978,1.125-11.782,3.535-16.242c5.28-9.763-6.354-25.981,9.943-30.392c11.506-3.109,24.128-2.102,36.256-2.9
		c0.959-0.063,1.961,0.054,2.904,0.27c23.661,5.313,47.381,10.39,70.963,16.036c52.195,12.493,92.045,46.291,133.033,77.959
		c6.988,5.398,8.369,9.758-2.881,13.732c-9.396,3.315-17.26,10.972-25.806,16.71c28.253-10.235,53.911-4.546,68.6,15.246
		c1.448,1.952,4.104,4.231,3.851,6.024c-2.62,18.33,12.943,28.748,18.66,43.423c6.85,17.589-3,31.917-6.938,47.425
		c-0.865,3.409-3.479,6.371-6.229,11.192c-5.746-8.341-10.521-15.271-13.948-20.246c4.479-9.741,8.102-17.611,11.72-25.479
		c-19.771,4.501-26.276,26.279-16.852,42.756c3.111,5.434,7.387,10.513,9.079,16.346c1.159,4.005,0.233,10.524-2.464,13.175
		c-2.382,2.348-8.89,2.162-12.898,0.91c-19.5-6.085-28.233-23.503-36.014-39.631c-6.961-14.431-16.067-25.309-29.715-32.193
		c-15.964-8.048-32.648-14.654-48.908-22.13c-3.92-1.803-7.402-4.572-9.115-5.651c23.287-16.97,45.654-33.27,68.02-49.573
		c-3.501,1.594-7.431,2.616-10.442,4.869c-33.399,24.959-70.813,37.559-112.545,38.097c-8.154,0.104-16.771,1.567-24.318,4.558
		c-38.538,15.284-76.754,31.38-115.17,46.971c-14.45,5.866-27.719,16.414-46.748,12.604c1.994-14.75,9.203-41.242,11.504-56.265
		c0.271,0.01,0.545,0.022,0.816,0.033c1.598-13.335,4.029-26.633,4.58-40.007c0.316-7.69,0.884-12.123,2.887-14.088
		c3.938-7.574,12.406-12.335,18.464-18.407c9.729-9.752,18.618-20.304,27.466-30.845c3.644-4.338,7.574-9.245,12.185-13.004
		c-0.17,0-0.337,0.001-0.508,0.001c-0.141,0.204-0.517,0.681-0.961,1.087c-18.8,17.275-37.974,34.165-56.212,52.015
		c-5.485,5.364-10.956,13.035-11.918,20.247c-1.87,14.051-0.547,28.525-0.547,42.82c0.148,0.008,0.297,0.012,0.447,0.018
		c-4.281,19.78-13.561,51.229-17.49,70.19c1.355,1.34,2.713,2.675,4.07,4.014c18.107-7.179,36.401-13.924,54.272-21.643
		c24.404-10.545,48.229-22.489,72.89-32.364c6.608-2.648,16.236-2.1,22.965,0.666c26.727,10.981,52.668,23.854,79.271,35.157
		c17.857,7.59,36.657,12.999,54.393,20.839c7.719,3.411,16.52,9.77,3.195,18.812c-2.597,1.76-4.938,6.848-4.363,9.814
		c2.283,11.78,5.936,23.28,8.768,34.957c4.597,18.926,28.076,28.629,25.093,51.311c-0.021,0.146,2.139,1.006,3.518,1.334
		c1.57,13.334,3.588,26.297,5.187,39.596c2.51-0.514,5.018-1.029,7.526-1.543c-4.178-12.707-8.357-25.412-12.539-38.12
		c-0.424-5.958-0.848-11.917-1.418-19.925c11.417,3.071,20.535,4.803,29.021,8.145c3.718,1.465,7.584,5.727,8.896,9.563
		c5.161,15.092,10.235,30.336,13.394,45.918c1.159,5.705-1.118,14.865-5.27,18.361c-11.379,9.576-24.588,16.984-37.948,25.83
		c-1.569-3.926-2.832-7.088-4.526-11.32c-13.282,29.955-14.979,56.734,13.669,80.711c1.067-5.52,2.464-9.83,2.635-14.197
		c0.416-10.711,0.146-21.447,0.379-32.168c0.478-21.766,9.242-31.311,32.688-34.908c0.331,6.834,1.946,13.82,0.714,20.262
		c-2.627,13.729,4,20.637,15.453,25.23c2.688,1.08,5.107,2.809,7.746,4.039c10.673,4.977,16.678,12.26,15.414,25.07
		c-1.336,13.557-0.518,27.34-2.109,40.85c-0.566,4.801-4.642,10.008-8.525,13.438c-8.756,7.73-18.053,14.992-27.846,21.344
		c-3.684,2.389-11,4.002-13.77,1.99c-5.95-4.324-11.868-10.525-14.452-17.242c-4.545-11.807-6.577-24.582-10.012-38.342
		c-0.954,4.627-2.233,8.563-2.52,12.574c-2.086,29.316,19.974,64.936,47.617,75.117c18.149,6.688,37.166,11.002,55.391,17.498
		c14.33,5.111,28.652,10.844,41.917,18.209c32.665,18.146,64.721,37.391,100.072,57.977c7.8-33.586-13.948-49.371-31.268-70.779
		c33.826-4.674,64.396-8.893,93.884-12.967c-2.127-0.83-5.758-2.248-10.275-4.014c7.729-3.139,13.799-7.166,20.205-7.785
		c6.754-0.652,14.322,4.008,20.606,2.498c5.373-1.297,9.434-8.043,14.076-12.377C683.631,629.666,678.885,624.773,674.792,625.261z
		 M338.909,519.117c-15.745-15.801-15.712-21.291,1.729-34.4C339.996,497.472,339.51,507.185,338.909,519.117z M513.558,599.449
		c0.434,0.43-4.338,9.016-7.487,9.625c-8.978,1.73-18.37,1.305-27.602,1.729c-6.813-0.014-13.622,0.014-20.434-0.02
		c-24.946-0.123-39.143-10.699-40.781-39.061c-1.36-23.508,2.736-47.422,5.697-70.99c0.407-3.242,9.263-8.779,12.416-7.75
		c17.739,5.77,36.008,11.439,51.816,20.939c6.891,4.145,10.737,17.045,11.798,26.439C501.29,560.773,496.47,582.539,513.558,599.449
		z M450.372,378.587c1.127,1.435-3.041,7.02-4.757,10.686c-7.901-7.225-16.271-14.01-23.553-21.815
		c-5.096-5.458-10.857-12.027-0.729-22.232C431.721,356.894,441.553,367.343,450.372,378.587z M272.52,246.888
		c-35.208-12.863-72.284-21.197-107.968-45.382c43.071-18.269,76.924,0.126,112.872,12.986c41.117,14.711,55.507,50.49,77.313,87.21
		c-13.276-2.307-23.971-4.167-34.669-6.024c0.131-1.884,0.26-3.766,0.394-5.653c5.194-0.495,10.392-0.985,17.309-1.649
		C319.642,267.1,296.808,255.756,272.52,246.888z M300.853,319.835c-2.031-5.989-2.965-12.352-4.037-16.958
		c17.822,3.848,33.867,9.205,50.176,10.2c12.089,0.737,25.711-1.883,36.417-7.362c8.159-4.178,12.788-15.217,19.044-23.158
		c2.757-3.5,5.646-6.893,8.479-10.332c2.214,3.414,5.328,6.555,6.448,10.299c2.219,7.4,3.671,15.083,4.847,22.737
		c4.337,28.261-2.316,40.608-28.467,51.005C368.503,366.311,312.595,354.464,300.853,319.835z M397.674,477.871
		c-14.792,1.188-17.731-5.197-18.349-16.961c-0.735-14.059-0.705-28.273-3.004-42.091c-1.869-11.241-6.778-21.965-10.144-32.981
		c-1.175-3.846-1.77-7.871-2.258-10.104c13.412-5.117,24.8-10.301,36.715-13.524c3.712-1.001,10.8,2.071,12.948,5.44
		c4.594,7.211,5.475,17.041,10.696,23.53c4.877,6.06,12.957,10.878,20.515,12.844c3.448,0.899,9.028-6.356,15.815-11.591
		c17.457,32.691,28.853,69.301,40.922,108.611c-22.073-7.596-38.912-14.936-56.505-18.979
		C429.67,478.537,413.292,476.617,397.674,477.871z M398.16,621.71c-4.125-4.33-13.746-10.818-3.446-19.076
		c9.106-7.305,16.047-6.311,24.873,2.535c12.217,12.244,26.516,22.553,40.602,32.75c8.499,6.15,18.287,10.521,27.497,15.689
		C452.999,655.859,422.208,646.964,398.16,621.71z M565.776,711.953c-19.701-9.615-38.409-18.744-57.116-27.873
		c0.727-1.408,1.447-2.814,2.173-4.223C536.015,679.041,568.781,690.457,565.776,711.953z M465.406,623.533
		c43.513-22.877,72.867,3.252,100.847,30.688C547.281,662.632,482.812,643.361,465.406,623.533z"/>
</g>
</svg>
