<?xml version="1.0" encoding="utf-8"?>
<!-- Generator: Adobe Illustrator 16.0.0, SVG Export Plug-In . SVG Version: 6.00 Build 0)  -->
<!DOCTYPE svg PUBLIC "-//W3C//DTD SVG 1.1//EN" "http://www.w3.org/Graphics/SVG/1.1/DTD/svg11.dtd">
<svg version="1.1" id="Layer_1" xmlns="http://www.w3.org/2000/svg" xmlns:xlink="http://www.w3.org/1999/xlink" x="0px" y="0px"
	 width="688.082px" height="737.535px" viewBox="0 0 688.082 737.535" enable-background="new 0 0 688.082 737.535"
	 xml:space="preserve">
<g id="Layer_4">
	<polygon fill="#00B30F" points="131.728,6.856 209.436,19.29 289.217,53.482 328.592,80.422 376.253,119.794 403.193,166.42 
		412.208,187.207 417.51,209.659 414.08,240.845 410.649,256.749 417.51,272.653 423.435,287.31 425.305,303.215 425.305,312.259 
		425.305,335.647 439.339,353.112 465.536,387.914 499.526,480.972 510.754,532.117 504.827,576.71 528.528,596.669 
		551.605,628.789 567.511,644.072 632.063,644.072 681.648,632.533 672.562,644.714 643.385,653.791 563.144,661.535 
		539.443,667.771 552.229,681.492 574.37,707.062 570.63,726.708 470.524,667.767 409.401,646.562 348.589,605.708 338.289,556.16 
		340.55,538.054 328.008,514.025 323.018,488.453 326.307,460.083 329.173,423.175 324.16,383.511 316.469,354.668 293.08,309.761 
		296.198,292.297 308.673,269.532 264.702,249.885 152.434,204.043 131.728,206.538 11.477,257.059 5.553,248.95 20.522,184.396 
		23.329,140.113 39.856,122.025 86.594,74.306 93.632,63.022 92.248,38.138 96.614,19.738 114.389,6.856 	"/>
</g>
<g id="Layer_1_1_">
	<polygon fill="#E2C374" points="291.532,296.653 340.977,306.302 380.292,296.653 399.346,277.84 413.337,265.54 422.873,285.921 
		427.085,315.95 425.305,335.647 404.412,357.194 369.197,364.913 326.506,355.023 303.591,335.246 291.532,305.819 	"/>
	<path fill="#015A0A" d="M22.61,249.479c0-9.791,1.322-19.153,1.311-28.96c-0.006-6.443,0.558-13.042,1.651-19.357
		c0.877-5.062,2.933-9.564,3.62-14.694c1.227-9.174,0.309-18.945,0.414-28.269c0.055-4.885,1.043-8.372,2.723-12.875
		c1.609-4.321,1.387-9.394,3.609-13.446c3.507-6.39,12.133-13.258,13.324-20.442c-4.109,2.699-7.746,6.909-11.324,10.265
		c-4.002,3.755-10.668,8.516-13.337,13.39c-3.921,7.164-4.586,19.512-5.499,27.845c-0.942,8.595,1.842,17.217,0.467,25.692
		c-1.592,9.818-5.012,19.572-6.896,29.684c-1.627,8.736-5.732,17.23-7.457,25.901c-1.18,5.937-2.689,10.048,4.646,10.078
		c5.207,0.022,7.68-3.052,12.309-4.81"/>
	<path fill="#015A0A" d="M19.112,238.111c4.016-0.824,7.207-4.421,11.422-5.707c5.73-1.75,11.69-3.384,17.447-5.323
		c11.682-3.933,23.055-8.925,34.227-14.213c3.375-1.598,6.545-4.08,9.875-5.781c6.615-3.38,13.486-3.408,20.285-5.367
		c5.849-1.686,11.542-3.7,17.313-5.601c5.021-1.653,9.845-5.162,14.571-6.874c5.515-1.997,11.218-3.566,16.577-5.775
		c2.962-1.221,6.331-3.41,9.367-3.987c7.515-1.427,17.076,0.125,24.78,0.033c6.883-0.083,12.969-2.015,19.571-3.5
		c10.662-2.397,21.763-3.938,32.31-7.44c23.059-7.656,46.692-20.158,66.545-34.001c7.008-4.887,13.604-9.103,21.351-13.02
		c4.026-2.036,16.986-9.872,20.19-7.169c8.863,7.479-11.875,16.167-16.635,17.369c-16.591,4.192-29.29,12.551-42.736,22.398
		c-15.238,11.162-34.124,23.168-52.955,25.352c-8.52,0.988-16.66,3.983-25.252,4.82c-6.921,0.676-13.473,1.293-20.242,3.084
		c-13.207,3.495-27.459,4.932-40.162,9.465c-11.68,4.167-22.277,10.231-33.732,14.198c-9.403,3.255-17.782,6.517-27.155,9.632
		c-10.788,3.584-21.561,8.814-32.49,12.945c-10.088,3.814-20.459,9.313-30.989,11.576c-5.615,1.205-10.826,2.984-16.465,4.199
		c-0.852-2.815-2.105-6.54-0.876-9.5c3.452,0.75,3.469-1.911,5.608-3.563"/>
	<path fill="#015A0A" d="M378.94,439.935c3.282,2.109,3.99,6.313,6.677,9.086c2.081,2.15,7.149,5.074,9.623,6.795
		c5.353,3.721,11.697,4.537,18.584,5.67c18.256,3.002,38.034,6.998,56.341,11.316c8.389,1.979,18.491,3.555,24.987,9.049
		c7.449,6.299,6.864,17.529,9.533,26.35c-8.952-5.377-16.011-8.697-27.17-8.697c-6.777,0-12.477,0.695-18.295-2.26
		c-4.251-2.16-7.562-5.561-12.359-7.191c-9.66-3.289-22.26-0.791-33.058-0.818c-13.338-0.033-23.281,1.717-32.691-7.609
		c-0.59-9.121-1.316-33.029-14.362-28.865c-6.854,2.188-12.329,10.064-18.66,13.863c-3.3,1.98-6.87,3.432-10.045,5.799
		c-1.592,1.188-6.626,7.738-8.591,7.828c-4.742,0.215-4.084-11.65-3.922-15.631c0.33-8.104,0.602-15.379,7.396-19.926
		c12.505-8.369,27.527-10.51,37.266-22.541c1.9-2.351,1.569-4.162,4.52-4.724c0.374,3.834,1.78,6.888,2.175,10.866
		c0.413,4.188-1.157,8.938,1.369,12.326"/>
	<path fill="#015A0A" d="M417.283,643.292c11.404,8.414,33.716-2.324,46.561-3.574c13.911-1.355,30.129,4.525,43.691,9.014
		c9.957,3.295,25.647,1.125,35.151-2.699c6.353-2.557,7.992-6.861,14.359-4.504c4.088,1.516,13.373,6.807,12.923,12.035
		c-0.526,6.098-13.018,9.283-18.298,9.734c-10.879,0.928-22.238-0.752-33.017-2.236c-14.663-2.02-29.119,1.592-43.753,2.123
		c-21.126,0.762-42.333-8.553-59.673-19.207"/>
	<path fill="#015A0A" d="M304.99,270.126c7.988,5.053,20.217,6.498,29.865,6.847c6.093,0.22,9.676-1.839,13.441,1.904
		c2.93,2.911,3.659,7.419,7.396,10.181c1.211-6.218,9.184-4.983,12.974-8.816c3.507-3.544,5.745-10.687,8.218-14.925
		c2.028-3.479,2.109-14.328,5.651-16.43c4-2.374,6.095,3.884,7.824,7.815c8.442-4.266,18.804-9.795,24.046-17.9
		c0.703,5.303-3.762,19.347-7.17,23.638c-2.877,3.623-7.177,2.022-9.536,4.313c-2.047,1.989-2.052,8.557-2.862,11.042
		c-1.733,5.306-4.691,17.368-10.385,19.92c-5.415,2.429-18.69-0.472-24.679-0.064c1.823,1.698,1.466,3.071,1.945,5.238
		c-6.888,0.728-12.253,3.631-18.917,3.375c-5.943-0.228-12.107-3.505-17.789-6.182c-6.354-2.996-13.184-2.892-15.232-8.866
		c-1.396-4.069-6.792-16.559-3.421-19.721"/>
	<path fill="#015A0A" d="M416.597,573.451c4.475,2.807,7.555,6.156,11.073,9.436c7.952,7.41,16.453,6.504,27.229,7.002
		c9.279,0.428,18.258,1.885,27.698,1.23c9.486-0.658,23.949-6.213,31.056,0.102c5.998,5.328,7.228,9.652,1.71,15.234
		c-7.021,7.105-8.346,4.945-16.923,5.188c-4.405,0.125-7.86,2.65-12.106,3.496c-4.97,0.99-10.209,0.307-15.479,0.748
		c-10.958,0.922-25.079,5.148-35.597-0.082c-1.624-0.807-4.25-5.203-5.072-6.502c-4.795-0.158-7.89-4.563-12.727-5.188
		c-0.255-4.533-2.997-12.656-8.104-12.773c-5.138-0.115-15.938,9.938-20.167,13.074c-5.035,3.738-9.843,10.887-15.729,13.023
		c-6.178,2.244-11.455-1.727-16.433-5.129c-4.498-3.076-10.544-6.617-10.271-12.809c0.267-6.088,9.97-8.963,15.749-11.672
		c14.142-6.633,30.793-13.258,43.12-23.438c3.949-3.262,8.173-7.406,10.337-11.941c-0.159,6.553-0.091,12.561-1.559,18.844
		c0.147,0.797,0.649,1.059,1.507,0.787"/>
	<path fill="#015A0A" d="M32.649,226.879c7.703-2.365,14.848-6.145,22.266-9.383c7.553-3.296,16.326-4.393,24.306-7.713
		c8.727-3.631,16.426-9.024,25.291-12.271c7.848-2.875,15.687-5.656,23.204-8.047c15.63-4.969,29.976-12.855,45.634-16.892
		c8.108-2.09,15.851-2.518,24.541-2.904c8.575-0.381,15.049-5.616,23.26-5.616c9.752,0,18.667,0.146,27.615-3.622
		c9.053-3.812,18.109-8.602,27.088-12.817c9.489-4.456,19.77-6.559,28.317-12.779c4.665-3.394,8.837-7.086,13.572-10.381
		c4.758-3.31,8.778-3.873,14.073-5.899c4.515-1.727,7.805-4.747,11.729-7.109c4.868-2.932,12.68-9.353,17.904-10.184
		c0.915,3.792,3.286,8.443,2.812,12.379c-5.471,0.276-9.847-0.05-14.576,2.133c-4.395,2.028-7.707,5.503-11.973,8.187
		c-7.552,4.749-16.355,8.757-24.486,13.317c-9.421,5.284-17.94,12.018-27.994,16.374c-9.162,3.971-16.364,10.512-26.104,13.635
		c-8.674,2.781-13.454,6.134-22.186,7.467c-8.471,1.293-22.979,6.018-31.572,6.874c-20.555,2.047-47.783,2.298-61.43,8.654
		c-12.9,6.008-24.56,10.372-38.231,13.346c-10.193,2.218-19.196,8-28.334,12.448c-10.562,5.143-21.134,10.771-32.476,12.966
		c-8.297,1.606-16.765,3.847-19.564-5.604"/>
	<path fill="#015A0A" d="M31.048,229.78c-1.517-3.218,0.196-8.049,0.431-11.628c0.294-4.499,0.563-8.598,1.194-12.889
		c1.276-8.666,1.846-16.933,3.444-25.399c1.762-9.319,1.306-18.041,1.815-27.54c0.528-9.843,3.646-17.978,6.431-27.128
		c2.03-6.671,6.428-11.593,8.486-18.021c-8.052,2.7-16.271,13.118-17.834,21.096c-1.634,8.348-6.83,17.735-8.271,26.024
		c-3.219,18.546-1.596,36.181-4.4,54.902c-0.953,6.353-2.646,13.588-1.624,20.153c1.696,10.929,3.466,10.439,6.024,8.86
		l19.117-7.725L31.048,229.78z"/>
</g>
<g id="Layer_3">
	<path d="M674.707,625.261c-10.014,1.201-19.619,5.408-29.581,7.482c-25.591,5.326-51.423,9.867-77.407,3.303
		c-13.96-3.525-15.261-8.801-6.733-19.971c7.79-10.205,5.622-16.711-7.012-19.414c-5.668-1.215-12.34,0.432-17.293-1.904
		c-8.934-4.209-17.918-9.439-24.788-16.326c-2.715-2.725-0.063-11.051,0.537-16.787c1.555-14.768,9.188-28.404,0.772-44.627
		c-6.903-13.309-7.512-29.766-11.91-44.525c-4.434-14.881-10.121-29.383-15.222-44.066c-10.088-29.055-18.417-58.701-43.13-80.362
		c-8.168-7.156-18.309-16.964-14.055-30.212c6.983-21.757-2.889-40.27-8.892-59.746c-1.793-5.822-4.339-12.889-2.604-18.066
		c7.714-23.01,2.939-43.506-4.207-66.311c-10.103-32.249-27.829-57.875-53.218-77.522c-40.338-31.216-79.938-64.151-130.843-78.469
		C194.799,8.076,160.745-2.022,124.588,0.35c-5.554,0.366-11.717,2.081-16.272,5.145C88.477,18.816,85.051,32.929,93.632,63.022
		c1.206-5.979,1.126-11.783,3.535-16.243c5.28-9.764-6.354-25.981,9.943-30.392c11.505-3.109,24.128-2.103,36.255-2.901
		c0.96-0.063,1.962,0.055,2.906,0.27c23.66,5.314,47.379,10.39,70.961,16.035c52.197,12.495,92.045,46.292,133.035,77.961
		c6.987,5.397,8.369,9.757-2.882,13.731c-9.397,3.315-17.261,10.973-25.806,16.71c28.253-10.235,53.911-4.546,68.599,15.245
		c1.448,1.953,4.105,4.232,3.852,6.026c-2.62,18.33,12.942,28.747,18.659,43.422c6.851,17.588-2.998,31.918-6.938,47.425
		c-0.865,3.409-3.479,6.372-6.229,11.191c-5.746-8.342-10.521-15.269-13.948-20.246c4.479-9.741,8.101-17.61,11.718-25.478
		c-19.77,4.502-26.275,26.28-16.85,42.756c3.111,5.434,7.388,10.512,9.078,16.346c1.16,4.006,0.234,10.523-2.463,13.176
		c-2.382,2.347-8.891,2.162-12.898,0.909c-19.501-6.085-28.232-23.503-36.015-39.632c-6.96-14.429-16.066-25.309-29.714-32.191
		c-15.966-8.048-32.649-14.653-48.909-22.13c-3.92-1.803-7.402-4.571-9.113-5.651c23.286-16.97,45.653-33.27,68.019-49.573
		c-3.502,1.595-7.431,2.616-10.443,4.869c-33.398,24.96-70.813,37.559-112.544,38.096c-8.153,0.104-16.772,1.568-24.319,4.56
		c-38.537,15.285-76.754,31.38-115.17,46.971c-14.449,5.864-27.717,16.413-46.748,12.603c1.996-14.748,9.203-41.242,11.506-56.264
		c0.271,0.01,0.543,0.022,0.815,0.032c1.597-13.334,4.029-26.632,4.58-40.007c0.316-7.689,0.884-12.124,2.887-14.088
		c3.938-7.574,12.406-12.335,18.464-18.407c9.729-9.752,18.617-20.304,27.466-30.845c3.644-4.339,7.573-9.246,12.184-13.006
		c-0.169,0-0.337,0.002-0.508,0.002c-0.14,0.204-0.517,0.681-0.961,1.087c-18.8,17.275-37.972,34.166-56.211,52.016
		c-5.485,5.364-10.958,13.036-11.918,20.247c-1.872,14.051-0.548,28.525-0.548,42.821c0.148,0.007,0.297,0.012,0.447,0.018
		c-4.279,19.78-13.56,51.228-17.489,70.19c1.355,1.34,2.714,2.675,4.07,4.013c18.106-7.179,36.4-13.924,54.271-21.643
		c24.405-10.545,48.229-22.489,72.892-32.364c6.606-2.648,16.233-2.099,22.963,0.666c26.728,10.981,52.67,23.856,79.271,35.158
		c17.859,7.591,36.659,12.999,54.394,20.839c7.719,3.41,16.521,9.77,3.196,18.812c-2.598,1.761-4.938,6.847-4.363,9.813
		c2.282,11.781,5.935,23.28,8.769,34.958c4.596,18.925,28.074,28.628,25.092,51.311c-0.021,0.146,2.139,1.006,3.519,1.334
		c1.569,13.332,3.586,26.295,5.187,39.596c2.508-0.514,5.017-1.029,7.525-1.543c-4.179-12.709-8.357-25.413-12.539-38.121
		c-0.425-5.958-0.849-11.916-1.418-19.925c11.417,3.071,20.534,4.805,29.021,8.145c3.718,1.465,7.583,5.726,8.896,9.563
		c5.161,15.09,10.235,30.334,13.394,45.916c1.158,5.707-1.117,14.867-5.271,18.363c-11.379,9.576-24.587,16.984-37.948,25.83
		c-1.567-3.926-2.831-7.088-4.525-11.322c-13.282,29.957-14.979,56.736,13.67,80.711c1.066-5.52,2.463-9.83,2.634-14.197
		c0.416-10.711,0.145-21.443,0.379-32.166c0.477-21.766,9.243-31.311,32.687-34.908c0.332,6.836,1.946,13.818,0.716,20.264
		c-2.628,13.729,3.999,20.637,15.451,25.229c2.688,1.08,5.108,2.811,7.747,4.037c10.673,4.98,16.678,12.26,15.415,25.072
		c-1.336,13.557-0.519,27.34-2.109,40.85c-0.565,4.803-4.643,10.012-8.526,13.439c-8.755,7.729-18.052,14.99-27.846,21.342
		c-3.685,2.391-11.001,4.006-13.77,1.992c-5.95-4.324-11.868-10.525-14.452-17.244c-4.545-11.805-6.578-24.58-10.013-38.342
		c-0.954,4.629-2.233,8.564-2.519,12.576c-2.087,29.314,19.974,64.936,47.617,75.115c18.147,6.689,37.165,11,55.39,17.498
		c14.331,5.109,28.654,10.846,41.918,18.209c32.665,18.146,64.72,37.393,100.072,57.979c7.799-33.586-13.947-49.373-31.268-70.779
		c33.826-4.674,64.396-8.895,93.885-12.965c-2.128-0.832-5.759-2.252-10.275-4.018c7.729-3.139,13.798-7.166,20.203-7.785
		c6.755-0.65,14.323,4.01,20.607,2.498c5.372-1.297,9.434-8.041,14.076-12.375C683.546,629.666,678.802,624.773,674.707,625.261z
		 M338.825,519.117c-15.746-15.801-15.712-21.291,1.729-34.4C339.912,497.472,339.425,507.185,338.825,519.117z M513.473,599.449
		c0.435,0.43-4.338,9.016-7.487,9.623c-8.977,1.732-18.369,1.307-27.601,1.729c-6.813-0.014-13.622,0.016-20.435-0.02
		c-24.944-0.123-39.142-10.699-40.78-39.057c-1.361-23.512,2.736-47.426,5.696-70.996c0.407-3.24,9.263-8.777,12.416-7.75
		c17.74,5.773,36.009,11.443,51.817,20.943c6.891,4.143,10.737,17.043,11.798,26.438
		C501.206,560.773,496.385,582.539,513.473,599.449z M450.288,378.585c1.125,1.437-3.042,7.021-4.757,10.687
		c-7.901-7.226-16.271-14.011-23.554-21.815c-5.096-5.459-10.856-12.027-0.729-22.232
		C431.637,356.893,441.469,367.342,450.288,378.585z M272.435,246.886c-35.207-12.862-72.284-21.195-107.966-45.382
		c43.071-18.268,76.924,0.127,112.87,12.987c41.118,14.71,55.507,50.489,77.313,87.209c-13.277-2.307-23.971-4.167-34.669-6.024
		c0.132-1.884,0.26-3.766,0.394-5.651c5.194-0.496,10.392-0.987,17.309-1.65C319.558,267.098,296.723,255.755,272.435,246.886z
		 M300.77,319.835c-2.033-5.991-2.966-12.354-4.039-16.961c17.824,3.85,33.867,9.206,50.177,10.203
		c12.088,0.736,25.71-1.884,36.417-7.364c8.158-4.178,12.788-15.216,19.045-23.157c2.754-3.501,5.646-6.893,8.478-10.332
		c2.214,3.413,5.328,6.554,6.449,10.298c2.219,7.4,3.67,15.083,4.847,22.738c4.337,28.26-2.317,40.606-28.468,51.005
		C368.419,366.31,312.511,354.464,300.77,319.835z M397.589,477.871c-14.792,1.188-17.73-5.199-18.348-16.961
		c-0.734-14.059-0.706-28.273-3.004-42.093c-1.869-11.239-6.778-21.964-10.144-32.979c-1.176-3.848-1.77-7.873-2.258-10.105
		c13.411-5.119,24.799-10.3,36.715-13.524c3.711-1.001,10.8,2.071,12.946,5.44c4.596,7.212,5.477,17.041,10.698,23.531
		c4.876,6.059,12.957,10.877,20.515,12.843c3.449,0.899,9.027-6.354,15.816-11.591c17.456,32.693,28.853,69.303,40.921,108.613
		c-22.075-7.596-38.912-14.936-56.505-18.98C429.585,478.535,413.208,476.617,397.589,477.871z M398.075,621.708
		c-4.125-4.328-13.745-10.818-3.445-19.074c9.106-7.305,16.048-6.311,24.874,2.535c12.217,12.244,26.515,22.553,40.601,32.748
		c8.499,6.15,18.287,10.521,27.497,15.691C452.914,655.859,422.124,646.962,398.075,621.708z M565.691,711.951
		c-19.7-9.613-38.408-18.74-57.116-27.871c0.727-1.408,1.447-2.814,2.172-4.223C535.931,679.039,568.697,690.455,565.691,711.951z
		 M465.321,623.533c43.514-22.879,72.867,3.25,100.849,30.688C547.196,662.632,482.727,643.359,465.321,623.533z"/>
</g>
</svg>
