<?xml version="1.0" encoding="utf-8"?>
<!-- Generator: Adobe Illustrator 16.0.0, SVG Export Plug-In . SVG Version: 6.00 Build 0)  -->
<!DOCTYPE svg PUBLIC "-//W3C//DTD SVG 1.1//EN" "http://www.w3.org/Graphics/SVG/1.1/DTD/svg11.dtd">
<svg version="1.1" id="Layer_1" xmlns="http://www.w3.org/2000/svg" xmlns:xlink="http://www.w3.org/1999/xlink" x="0px" y="0px"
	 width="688.082px" height="737.535px" viewBox="0 0 688.082 737.535" enable-background="new 0 0 688.082 737.535"
	 xml:space="preserve">
<g id="Layer_4">
	<polygon fill="#FFFF03" points="11.574,257.069 5.649,248.96 20.62,184.407 23.427,140.124 39.954,122.035 86.692,74.316 
		93.729,63.033 92.345,38.148 96.711,19.749 114.487,6.867 131.825,6.867 209.534,19.3 	"/>
	<path fill="#17B018" d="M11.574,257.069l120.251-50.521l20.707-2.495L264.8,249.895l43.972,19.647l-12.476,22.765l-3.118,17.463
		l23.388,44.908l7.691,28.843l5.012,39.664l-2.863,36.906l-3.289,28.369l4.988,25.572l12.541,24.029l-2.26,18.105l10.301,49.549
		l60.813,40.854l61.123,21.207l100.105,58.939l3.74-19.646l-22.142-25.568l-12.787-13.723l23.701-6.236l80.24-7.744l29.178-9.076
		l9.086-12.182l-49.586,11.539h-64.551l-15.904-15.281l-23.08-32.121l-23.698-19.959l5.926-44.594l-11.228-51.143l-33.991-93.061
		l-26.195-34.801l-14.033-17.465v-23.388v-9.044l-1.871-15.905l-5.926-14.657l-6.861-15.904l3.433-15.904l3.43-31.186l-5.303-22.453
		l-9.015-20.787l-26.938-46.626l-47.662-39.372l-39.374-26.94L209.534,19.3l-7.237,4.365c-0.404,0.401-0.86,0.729-1.372,0.984
		c0.201,4.408-21.03,21.787-24.155,26.948c-6.299,10.407-12.634,21.12-20.585,30.854c-8.991,11.005-20.26,20.304-30.872,29.607
		c-9.777,8.569-17.517,19.124-25.863,29.44c-14.9,18.41-28.098,37.659-43.201,56.167c-6.614,8.105-13.975,16.562-21.06,24.461
		c-6.203,6.913-22.581,15.816-23.346,25.249L11.574,257.069z"/>
	<polygon fill="#FFFF03" points="175.287,190.494 227.261,190.494 266.24,202.188 319.513,230.774 351.998,282.747 359.406,301.813 
		359.406,364.923 371.488,411.38 377.211,450.439 380.412,481.81 402.179,504.859 418.185,517.023 414.344,579.765 436.111,613.056 
		477.085,639.945 517.42,661.714 552.328,681.501 573.388,712.74 562.594,721.929 491.347,679.98 427.181,648.269 356.724,615.617 
		338.156,582.966 338.386,556.169 340.646,538.064 323.431,504.218 324.072,479.89 326.406,460.093 331.113,413.307 
		314.469,349.282 301.619,330.208 291.63,296.664 304.865,279.497 299.833,265.55 245.147,241.871 156.079,205.501 164.016,194.987 
			"/>
</g>
<g id="Layer_1_1_">
	<polygon fill="#E2C374" points="291.63,296.664 341.076,306.313 380.39,296.664 399.445,277.85 413.435,265.55 422.972,285.931 
		427.181,315.96 425.404,335.657 404.51,357.205 369.295,364.923 326.603,355.034 303.689,335.256 291.63,305.83 	"/>
</g>
<g id="Layer_3">
	<path d="M674.804,625.271c-10.015,1.201-19.619,5.408-29.582,7.482c-25.59,5.326-51.422,9.867-77.406,3.303
		c-13.961-3.525-15.262-8.801-6.731-19.971c7.789-10.205,5.62-16.711-7.015-19.414c-5.668-1.215-12.34,0.432-17.293-1.904
		c-8.932-4.209-17.918-9.439-24.787-16.326c-2.717-2.725-0.063-11.051,0.537-16.787c1.556-14.768,9.187-28.404,0.771-44.627
		c-6.904-13.309-7.511-29.766-11.91-44.525c-4.433-14.881-10.121-29.383-15.221-44.064c-10.089-29.057-18.416-58.702-43.13-80.364
		c-8.168-7.156-18.309-16.964-14.055-30.212c6.984-21.757-2.889-40.27-8.893-59.746c-1.791-5.822-4.338-12.889-2.604-18.066
		c7.715-23.01,2.941-43.506-4.207-66.311c-10.102-32.249-27.828-57.875-53.217-77.522C319.724,65,280.124,32.065,229.22,17.747
		C194.897,8.086,160.844-2.012,124.686,0.36c-5.554,0.366-11.716,2.081-16.272,5.145C88.575,18.827,85.149,32.939,93.729,63.032
		c1.206-5.979,1.125-11.783,3.537-16.243c5.278-9.764-6.355-25.981,9.94-30.392c11.506-3.109,24.128-2.103,36.256-2.901
		c0.959-0.063,1.962,0.055,2.904,0.27c23.661,5.314,47.38,10.39,70.963,16.035c52.195,12.495,92.046,46.292,133.034,77.961
		c6.988,5.397,8.369,9.757-2.881,13.731c-9.396,3.315-17.262,10.973-25.805,16.71c28.252-10.235,53.912-4.546,68.598,15.245
		c1.449,1.953,4.107,4.232,3.853,6.026c-2.619,18.33,12.942,28.747,18.659,43.422c6.851,17.588-3,31.918-6.938,47.425
		c-0.863,3.409-3.478,6.372-6.229,11.191c-5.746-8.342-10.521-15.269-13.946-20.246c4.479-9.741,8.098-17.61,11.717-25.478
		c-19.771,4.502-26.275,26.28-16.851,42.756c3.111,5.434,7.39,10.512,9.078,16.346c1.16,4.006,0.234,10.523-2.463,13.176
		c-2.383,2.347-8.891,2.162-12.897,0.909c-19.5-6.085-28.234-23.503-36.015-39.632c-6.961-14.429-16.065-25.309-29.715-32.191
		c-15.964-8.048-32.65-14.653-48.909-22.13c-3.921-1.803-7.402-4.571-9.115-5.651c23.287-16.97,45.655-33.27,68.019-49.573
		c-3.5,1.595-7.43,2.616-10.441,4.869c-33.398,24.96-70.814,37.559-112.545,38.096c-8.152,0.104-16.771,1.568-24.318,4.56
		c-38.537,15.285-76.754,31.38-115.171,46.971c-14.448,5.864-27.716,16.413-46.747,12.603c1.996-14.748,9.203-41.242,11.505-56.264
		c0.272,0.01,0.544,0.022,0.815,0.032c1.597-13.334,4.031-26.632,4.579-40.007c0.318-7.689,0.886-12.124,2.888-14.088
		c3.938-7.574,12.406-12.335,18.464-18.407c9.729-9.752,18.618-20.304,27.467-30.845c3.643-4.339,7.573-9.246,12.184-13.006
		c-0.17,0-0.337,0.002-0.508,0.002c-0.139,0.204-0.517,0.681-0.961,1.087c-18.799,17.275-37.974,34.166-56.211,52.016
		c-5.485,5.364-10.958,13.036-11.917,20.247c-1.872,14.051-0.548,28.525-0.548,42.821c0.147,0.007,0.297,0.012,0.446,0.018
		c-4.279,19.78-13.561,51.228-17.489,70.19c1.354,1.34,2.715,2.675,4.069,4.013c18.107-7.179,36.4-13.924,54.271-21.643
		c24.407-10.545,48.229-22.489,72.892-32.364c6.608-2.648,16.235-2.099,22.964,0.666c26.728,10.981,52.668,23.856,79.271,35.158
		c17.858,7.591,36.658,12.999,54.393,20.839c7.719,3.41,16.519,9.77,3.196,18.812c-2.597,1.761-4.938,6.847-4.364,9.813
		c2.283,11.781,5.937,23.28,8.771,34.958c4.594,18.925,28.074,28.628,25.09,51.311c-0.02,0.146,2.139,1.006,3.518,1.334
		c1.57,13.332,3.589,26.297,5.187,39.594c2.51-0.514,5.018-1.027,7.527-1.542c-4.181-12.708-8.359-25.413-12.539-38.121
		c-0.425-5.958-0.849-11.916-1.418-19.925c11.418,3.071,20.534,4.805,29.021,8.145c3.717,1.465,7.582,5.727,8.896,9.563
		c5.159,15.09,10.233,30.335,13.391,45.915c1.16,5.707-1.117,14.867-5.268,18.363c-11.38,9.578-24.589,16.984-37.949,25.83
		c-1.568-3.924-2.832-7.088-4.525-11.32c-13.283,29.955-14.979,56.734,13.668,80.711c1.068-5.521,2.465-9.832,2.635-14.197
		c0.416-10.713,0.146-21.445,0.38-32.166c0.475-21.768,9.241-31.313,32.686-34.908c0.332,6.834,1.947,13.816,0.715,20.262
		c-2.627,13.729,4,20.637,15.453,25.23c2.688,1.078,5.107,2.809,7.746,4.035c10.674,4.98,16.678,12.262,15.414,25.072
		c-1.336,13.559-0.518,27.34-2.107,40.852c-0.567,4.801-4.643,10.01-8.528,13.438c-8.754,7.73-18.052,14.99-27.845,21.342
		c-3.684,2.391-11,4.006-13.768,1.992c-5.951-4.324-11.869-10.525-14.453-17.244c-4.545-11.805-6.578-24.58-10.014-38.342
		c-0.953,4.629-2.232,8.566-2.519,12.576c-2.086,29.316,19.974,64.936,47.617,75.117c18.148,6.688,37.164,11,55.392,17.498
		c14.332,5.107,28.651,10.844,41.916,18.209c32.666,18.145,64.721,37.391,100.073,57.977c7.799-33.586-13.948-49.373-31.268-70.779
		c33.826-4.674,64.396-8.895,93.883-12.965c-2.127-0.832-5.758-2.252-10.275-4.016c7.729-3.139,13.8-7.166,20.205-7.787
		c6.754-0.65,14.322,4.01,20.605,2.498c5.373-1.295,9.434-8.041,14.078-12.375C683.644,629.675,678.9,624.783,674.804,625.271z
		 M338.922,519.126c-15.744-15.801-15.711-21.291,1.729-34.4C340.01,497.482,339.521,507.195,338.922,519.126z M513.572,599.458
		c0.435,0.43-4.338,9.016-7.487,9.623c-8.978,1.734-18.369,1.307-27.601,1.73c-6.813-0.016-13.621,0.014-20.434-0.021
		c-24.947-0.123-39.144-10.699-40.783-39.057c-1.359-23.512,2.738-47.426,5.699-70.996c0.407-3.24,9.262-8.777,12.416-7.75
		c17.737,5.773,36.008,11.443,51.815,20.943c6.892,4.143,10.738,17.043,11.797,26.438
		C501.302,560.783,496.484,582.548,513.572,599.458z M450.386,378.596c1.125,1.437-3.041,7.021-4.758,10.687
		c-7.902-7.227-16.273-14.012-23.554-21.816c-5.096-5.459-10.856-12.027-0.729-22.232
		C431.734,356.903,441.568,367.353,450.386,378.596z M272.534,246.896c-35.209-12.862-72.285-21.195-107.968-45.382
		c43.073-18.268,76.923,0.127,112.871,12.987c41.119,14.71,55.505,50.489,77.312,87.209c-13.276-2.307-23.971-4.167-34.668-6.024
		c0.132-1.884,0.261-3.766,0.394-5.651c5.195-0.496,10.391-0.987,17.309-1.65C319.656,267.108,296.822,255.765,272.534,246.896z
		 M300.867,319.846c-2.03-5.991-2.965-12.354-4.037-16.961c17.822,3.85,33.867,9.206,50.177,10.203
		c12.088,0.736,25.711-1.884,36.418-7.364c8.158-4.178,12.787-15.216,19.043-23.157c2.754-3.501,5.647-6.893,8.479-10.332
		c2.215,3.413,5.328,6.554,6.447,10.298c2.221,7.4,3.672,15.083,4.848,22.738c4.336,28.26-2.317,40.606-28.469,51.005
		C368.515,366.32,312.609,354.474,300.867,319.846z M397.687,477.88c-14.793,1.188-17.732-5.199-18.348-16.961
		c-0.734-14.057-0.705-28.273-3.004-42.092c-1.869-11.24-6.779-21.963-10.144-32.979c-1.176-3.847-1.77-7.872-2.26-10.104
		c13.414-5.119,24.801-10.301,36.715-13.525c3.713-1.001,10.801,2.071,12.949,5.44c4.594,7.211,5.475,17.042,10.697,23.531
		c4.877,6.06,12.957,10.877,20.514,12.845c3.449,0.898,9.029-6.356,15.818-11.592c17.457,32.691,28.852,69.303,40.92,108.611
		c-22.074-7.596-38.91-14.936-56.504-18.979C429.683,478.544,413.304,476.626,397.687,477.88z M398.174,621.718
		c-4.125-4.328-13.746-10.818-3.447-19.074c9.106-7.305,16.049-6.311,24.873,2.535c12.217,12.244,26.516,22.553,40.602,32.748
		c8.5,6.15,18.287,10.521,27.496,15.691C453.011,655.869,422.22,646.972,398.174,621.718z M565.789,711.96
		c-19.698-9.613-38.407-18.74-57.114-27.871c0.727-1.408,1.446-2.814,2.172-4.223C536.029,679.048,568.795,690.464,565.789,711.96z
		 M465.42,623.542c43.512-22.879,72.866,3.25,100.848,30.688C547.295,662.642,482.826,643.369,465.42,623.542z"/>
</g>
</svg>
