<?xml version="1.0" encoding="utf-8"?>
<!-- Generator: Adobe Illustrator 16.0.0, SVG Export Plug-In . SVG Version: 6.00 Build 0)  -->
<!DOCTYPE svg PUBLIC "-//W3C//DTD SVG 1.1//EN" "http://www.w3.org/Graphics/SVG/1.1/DTD/svg11.dtd">
<svg version="1.1" id="Layer_1" xmlns="http://www.w3.org/2000/svg" xmlns:xlink="http://www.w3.org/1999/xlink" x="0px" y="0px"
	 width="688.082px" height="737.535px" viewBox="0 0 688.082 737.535" enable-background="new 0 0 688.082 737.535"
	 xml:space="preserve">
<g id="Layer_4">
	<polygon fill="#03B80B" points="131.728,6.883 209.437,19.317 289.218,53.509 328.592,80.448 376.254,119.821 403.193,166.447 
		412.208,187.232 417.51,209.687 414.08,240.871 410.649,256.776 417.51,272.68 423.435,287.338 425.306,303.242 425.306,312.286 
		425.306,335.675 439.34,353.139 465.536,387.94 499.527,480.998 510.754,532.142 504.828,576.736 528.529,596.695 551.606,628.816 
		567.511,644.097 632.063,644.097 681.648,632.558 672.562,644.74 643.385,653.816 563.144,661.56 539.443,667.798 552.23,681.521 
		574.371,707.089 570.631,726.734 470.525,667.794 409.402,646.589 348.59,605.736 338.29,556.185 340.551,538.08 328.008,514.052 
		323.019,488.48 326.308,460.109 329.173,423.203 324.16,383.539 316.469,354.695 293.08,309.788 296.199,292.324 308.674,269.56 
		264.703,249.912 152.435,204.07 131.728,206.565 11.478,257.085 5.552,248.977 20.522,184.424 23.329,140.141 39.857,122.052 
		86.595,74.333 93.632,63.049 92.248,38.164 96.613,19.766 114.39,6.883 	"/>
</g>
<g id="Layer_1_1_">
	<polygon fill="#E2C374" points="291.532,296.681 340.977,306.329 380.292,296.681 399.346,277.867 413.338,265.566 
		422.874,285.948 427.085,315.977 425.306,335.673 404.412,357.222 369.197,364.939 326.506,355.05 303.592,335.273 
		291.532,305.847 	"/>
	<g>
		<g>
			<path fill="#3369D5" d="M334.201,87.942c-3.339,2.119-6.899,3.824-10.344,5.678c-3.457,1.859-7.278,2.989-10.837,4.67
				c-4.931,2.328-9.531,5.534-14.556,7.997c-4.174,2.043-7.664,4.781-11.729,6.913c-5.224,2.739-11.265,2.878-16.694,5.246
				c-1.819,0.792-3.389,2.309-5.121,3.057c-2.333,1.008-4.896,1.046-7.321,2.085c-5.858,2.509-10.142,6.762-16.033,9.287
				c-11.07,4.744-21.123,7.403-33.206,8.117c-13.072,0.771-28.89-2.766-40.328,4.564c-6.767,4.335-16.882,5.44-24.79,9.32
				c-9.291,4.557-19.189,9.341-28.971,13.511c-10.595,4.518-21.647,5.803-32.346,9.884c-6.884,2.626-13.294,6.302-20.078,9.194
				c-0.078-1.246-0.133-2.497-0.13-3.755c0.021-7.391,0.716-14.611,1.036-21.883c0.299-6.752-1.235-13.312-0.523-19.97
				c0.81-7.565,1.515-15.112,2.266-22.705c0.291-2.926,0.546-6.201,1.166-9.05c0.709-3.266,3.803-7.892,5.606-10.59
				c7.729-11.569,2.948-8.648,11.396-18.909l2.725-4.444c-1.896,2.839-3.908,5.279-6.201,8.065
				c-8.447,10.261-13.644,23.05-22.885,32.589c-2.259,2.332-4.473,4.242-5.182,7.507c-0.619,2.85-0.875,6.124-1.165,9.05
				c-0.753,7.592-1.456,15.139-2.267,22.705c-0.713,6.657,0.823,13.217,0.523,19.97c-0.222,5.013-0.609,10.005-0.844,15.042
				c-0.104,2.27-0.187,4.546-0.192,6.841c-0.008,3.006,0.259,5.97,0.6,8.92c3.433-0.705,7.063-0.828,10.396-2.054
				c1.804-0.662,3.565-1.408,5.313-2.188c6.185-2.766,12.114-6.064,18.438-8.478c10.697-4.081,21.751-5.367,32.346-9.883
				c9.78-4.171,19.68-8.955,28.971-13.512c7.908-3.879,18.023-4.984,24.79-9.32c11.438-7.331,27.256-3.793,40.328-4.565
				c12.083-0.713,22.136-3.373,33.206-8.117c5.893-2.525,10.175-6.778,16.033-9.287c2.427-1.039,4.988-1.077,7.321-2.085
				c1.732-0.748,3.301-2.264,5.121-3.056c5.43-2.367,11.471-2.507,16.694-5.246c4.065-2.131,7.557-4.869,11.729-6.913
				c5.023-2.463,9.625-5.669,14.556-7.997c3.559-1.681,7.38-2.81,10.837-4.669c3.443-1.854,7.005-3.559,10.344-5.679
				c4.824-3.063,6.998-7.348,10.676-11.268L334.201,87.942z"/>
			<path fill="#3369D5" d="M85.387,76.158c0.745-1.119,1.477-2.294,2.195-3.586L85.387,76.158z"/>
		</g>
	</g>
	<path fill="#F0D900" d="M22.611,249.507c0-9.791,1.321-19.153,1.311-28.961c-0.007-6.443,0.558-13.042,1.65-19.357
		c0.878-5.061,2.934-9.563,3.62-14.693c1.228-9.175,0.31-18.945,0.415-28.27c0.055-4.885,1.041-8.371,2.722-12.876
		c1.61-4.32,1.387-9.393,3.609-13.446c3.507-6.39,12.133-13.258,13.324-20.442c-4.108,2.699-7.745,6.909-11.323,10.265
		c-4.003,3.755-10.669,8.516-13.338,13.391c-3.921,7.163-4.585,19.512-5.499,27.844c-0.942,8.595,1.842,17.216,0.468,25.692
		c-1.592,9.818-5.012,19.572-6.896,29.685c-1.626,8.735-5.732,17.23-7.456,25.901c-1.18,5.936-2.69,10.047,4.646,10.077
		c5.206,0.021,7.68-3.052,12.309-4.81"/>
	<path fill="#F0D900" d="M19.112,238.138c4.017-0.825,7.207-4.421,11.423-5.707c5.729-1.75,11.689-3.384,17.447-5.322
		c11.682-3.934,23.054-8.926,34.226-14.215c3.376-1.598,6.546-4.079,9.876-5.781c6.614-3.38,13.485-3.408,20.283-5.368
		c5.85-1.685,11.543-3.699,17.313-5.6c5.021-1.654,9.845-5.162,14.572-6.874c5.515-1.996,11.218-3.565,16.576-5.774
		c2.963-1.221,6.332-3.41,9.368-3.986c7.514-1.428,17.076,0.125,24.779,0.031c6.884-0.082,12.969-2.015,19.573-3.499
		c10.661-2.397,21.761-3.938,32.309-7.44c23.059-7.655,46.69-20.157,66.544-34.001c7.009-4.887,13.604-9.102,21.351-13.019
		c4.027-2.036,16.986-9.872,20.19-7.169c8.863,7.479-11.875,16.167-16.634,17.37c-16.592,4.192-29.29,12.55-42.737,22.398
		c-15.237,11.162-34.123,23.168-52.954,25.351c-8.521,0.988-16.661,3.983-25.253,4.82c-6.921,0.675-13.473,1.292-20.241,3.083
		c-13.208,3.496-27.459,4.932-40.162,9.464c-11.68,4.167-22.278,10.232-33.733,14.199c-9.402,3.255-17.782,6.516-27.155,9.632
		c-10.788,3.584-21.56,8.814-32.489,12.945c-10.089,3.813-20.461,9.313-30.989,11.575c-5.615,1.206-10.826,2.985-16.466,4.2
		c-0.851-2.815-2.104-6.54-0.876-9.5c3.452,0.75,3.469-1.911,5.608-3.563"/>
	<path fill="#F0D900" d="M378.94,439.96c3.282,2.111,3.99,6.313,6.677,9.086c2.081,2.15,7.151,5.076,9.623,6.797
		c5.353,3.721,11.697,4.537,18.584,5.668c18.256,3.002,38.034,6.998,56.343,11.318c8.387,1.977,18.489,3.555,24.985,9.049
		c7.449,6.299,6.864,17.529,9.534,26.35c-8.951-5.379-16.011-8.697-27.171-8.697c-6.777,0-12.476,0.693-18.295-2.262
		c-4.251-2.158-7.562-5.559-12.359-7.191c-9.66-3.287-22.26-0.789-33.057-0.816c-13.338-0.035-23.282,1.715-32.691-7.611
		c-0.59-9.119-1.317-33.029-14.363-28.865c-6.854,2.188-12.328,10.064-18.659,13.865c-3.301,1.979-6.87,3.432-10.045,5.799
		c-1.593,1.188-6.625,7.736-8.591,7.826c-4.743,0.217-4.085-11.65-3.922-15.633c0.329-8.1,0.601-15.375,7.396-19.924
		c12.505-8.369,27.526-10.508,37.266-22.543c1.9-2.348,1.568-4.157,4.52-4.723c0.373,3.836,1.78,6.889,2.174,10.867
		c0.413,4.188-1.157,8.938,1.369,12.326"/>
	<path fill="#F0D900" d="M417.283,643.32c11.404,8.414,33.718-2.326,46.562-3.576c13.911-1.355,30.129,4.525,43.69,9.016
		c9.958,3.295,25.648,1.123,35.152-2.701c6.352-2.557,7.991-6.861,14.358-4.502c4.088,1.514,13.374,6.805,12.923,12.033
		c-0.526,6.1-13.017,9.285-18.297,9.734c-10.878,0.928-22.238-0.752-33.018-2.234c-14.663-2.021-29.118,1.59-43.753,2.121
		c-21.125,0.764-42.332-8.553-59.673-19.207"/>
	<path fill="#F0D900" d="M304.99,270.152c7.989,5.054,20.217,6.5,29.865,6.847c6.094,0.22,9.676-1.839,13.441,1.904
		c2.93,2.912,3.659,7.42,7.396,10.181c1.211-6.218,9.186-4.982,12.975-8.815c3.507-3.545,5.744-10.687,8.217-14.926
		c2.028-3.479,2.109-14.328,5.651-16.43c4-2.374,6.095,3.884,7.824,7.815c8.442-4.266,18.805-9.795,24.046-17.9
		c0.703,5.302-3.761,19.348-7.169,23.638c-2.877,3.625-7.178,2.022-9.537,4.313c-2.047,1.989-2.051,8.558-2.861,11.042
		c-1.734,5.306-4.692,17.368-10.385,19.921c-5.415,2.429-18.69-0.473-24.679-0.065c1.822,1.698,1.466,3.071,1.944,5.239
		c-6.887,0.727-12.252,3.629-18.917,3.374c-5.942-0.228-12.106-3.504-17.788-6.182c-6.354-2.995-13.185-2.891-15.233-8.865
		c-1.396-4.069-6.792-16.559-3.421-19.721"/>
	<path fill="#3369D5" d="M254.322,245.502c11.146,1.357,22.6-4.534,33.379-5.478c11.718-1.025,22.276-5.639,33.604-6.741
		c3.02,12.713,12.113,13.579,22.046,8.131c7.436-4.078,20.441-12.312,25.521-19.173c3.071-4.146,3.08-6.887,7.979-9.642
		c1.923-1.082,5.388-1.228,6.896-3.353c1.583-2.232,0.391-5.811,1.817-8.266c3.682-6.333,6.115-2.572,10.49,0.551
		c3.778,2.696,4.371,4.61,10.539,2.901c1.963-0.543,6.087-2.697,7.853-4.08c4.68,11.572,6.352,19.855,2.048,31.387
		c-6.572,0.52-11.704-0.922-18.38,0.068c-2.619,0.389-5.507,1.044-8.254,1.183c-2.444,0.123-5.064-0.78-8.114-0.391
		c-0.158,5.364,3.102,12.284-0.055,15.503c-1.328,1.356-8,2.657-10.319,4.23c-3.364,2.282-6.513,5.183-9.895,7.55
		c-3.453,2.416-12.238,10.882-16.378,10.818c-4.585-0.07-5.43-7.496-8.629-11.487c-4.105-5.119-5.972-5.166-13.524-4.81
		c-8.251,0.39-13.976,5.17-21.945,6.214c-7.086,0.928-17.797-0.921-24.231-3.301c-5.158-1.908-8.803-5.944-13.511-8.276
		c-2.095-1.037-4.748-1.324-6.882-2.168"/>
	<path fill="#3369D5" d="M489.179,442.699c-4.363-1.441-9.771-1.352-14.381-1.369c-9.328-0.039-16.019-1.857-25.404-3.324
		c-14.601-2.279-29.381-1.691-43.562-5.463c-8.703-2.313-17.671-6.248-24.655-11.871c-8.29-6.674-10.738-16.295-13.298-26.486
		c-6.981-0.708-15.108,7.775-21.808,9.786c-4.412,1.323-10.73,3.547-15.63,3.055c-1.529-6.971-5.239-13.428-7.392-20.37
		c15.779,1.247,26.812-17.836,41.438-19.185c1.226,6.587-2.341,7.282,1.477,12.75c2.108,3.022,5.232,6.342,7.992,8.573
		c7.912,6.398,18.699,11.316,27.609,15.576c8.838,4.225,16.662,4.008,26.022,4.778c5.537,0.457,10.05,2.062,15.746,2.054
		c8.253-0.012,20.519-0.049,25.232-8.097c0.039,0.356-1.354-0.731-1.249-0.634c7.693-3.736,17.954,30.986,19.118,36.803"/>
	<path fill="#3369D5" d="M505.611,564.578c-3.531,1.648-7.212-0.355-10.92-0.721c-5.967-0.586-12.008,0.465-17.821,0.734
		c-13.759,0.645-24.674-0.189-37.617-4.141c-6.485-1.98-18.889-5.156-22.153-12.119c-1.683-3.588-0.304-9.932-0.347-13.896
		c-0.05-4.33-1.611-7.404-1.778-11.404c-13.581,7.715-27.366,17.703-40.843,24.98c-10.269,5.547-23.72,15.773-36.169,13.725
		c-1.028-5.9,1.403-12.285,1.3-18.387c-0.044-2.574-1.362-5.41-0.735-8.213c1.213-5.42,1.112-3.721,5.491-5.479
		c11.793-4.742,26.25-5.576,38.213-10.803c7.609-3.324,14.533-8.607,21.359-13.186c4.731-3.172,13.106-12.678,16.464-6.807
		c2.723,4.758-2.05,13.504-0.716,18.471c1.517,5.648,11.092,11.686,17.041,13.611c14.721,4.766,32.182,6.246,47.559,6.926
		c8.507,0.379,16.559-4.688,24.359-3.332c0.26,10.137-0.967,20.242-1.316,30.037"/>
	<path fill="#3369D5" d="M473.429,636.474c10.123,3.178,20.873-5.643,30.106-9.279c7.521-2.961,25.156-6.855,25.95-16.637
		c-11.216-0.574-18.538-4.123-29.477-8.066c-4.837-1.744-10.905-3.871-16.005-3.676c-5.295,0.201-7.529,3.139-12.117,5.512
		c-7.226,3.736-15.951,4.732-22.921,8.336c-7.03,3.637-12.875,6.934-21.363,8.744c-11.846,2.525-24.593,4.533-36.758,5.479
		c-4.955,0.387-23.138,3.568-26.711-0.289c-1.239-1.34-0.611-9.309-0.296-11.352c1.174-7.582,5.208-16.135,13.043-17.65
		c6.923-1.338,14.182,1.602,21.069,1.9c20.281,0.887,39.979-1.123,60.234-1.301c0.543,4.441-1.927,9.869-2.54,14.354
		c-1.219,8.898-1.087,8.697,3.425,12.947c3.99,3.764,10.976,9.063,15.728,11.662"/>
	<path fill="#F0D900" d="M416.597,573.478c4.475,2.807,7.555,6.154,11.075,9.436c7.951,7.41,16.453,6.504,27.229,7.002
		c9.28,0.426,18.259,1.883,27.698,1.23c9.485-0.658,23.949-6.211,31.057,0.1c5.998,5.328,7.227,9.654,1.709,15.236
		c-7.021,7.105-8.346,4.943-16.922,5.188c-4.405,0.125-7.86,2.65-12.106,3.498c-4.97,0.988-10.209,0.303-15.48,0.748
		c-10.957,0.922-25.079,5.146-35.596-0.084c-1.625-0.807-4.251-5.203-5.072-6.5c-4.796-0.16-7.889-4.564-12.727-5.188
		c-0.254-4.535-2.998-12.656-8.104-12.775c-5.138-0.115-15.938,9.936-20.166,13.074c-5.036,3.736-9.844,10.889-15.729,13.023
		c-6.179,2.244-11.456-1.729-16.434-5.129c-4.498-3.076-10.544-6.619-10.271-12.809c0.265-6.088,9.97-8.963,15.748-11.672
		c14.142-6.633,30.794-13.258,43.121-23.436c3.949-3.262,8.173-7.408,10.337-11.945c-0.16,6.555-0.091,12.561-1.56,18.846
		c0.148,0.797,0.649,1.059,1.508,0.785"/>
</g>
<g id="Layer_3">
	<path d="M674.707,625.289c-10.014,1.201-19.618,5.408-29.579,7.48c-25.593,5.326-51.425,9.865-77.408,3.303
		c-13.961-3.525-15.262-8.801-6.733-19.973c7.79-10.203,5.622-16.709-7.011-19.412c-5.67-1.215-12.342,0.434-17.295-1.902
		c-8.933-4.211-17.916-9.439-24.787-16.326c-2.716-2.727-0.063-11.053,0.537-16.787c1.555-14.77,9.187-28.404,0.772-44.627
		c-6.904-13.311-7.512-29.768-11.909-44.527c-4.436-14.879-10.123-29.383-15.224-44.064c-10.088-29.055-18.416-58.701-43.129-80.364
		c-8.168-7.155-18.309-16.963-14.055-30.211c6.983-21.758-2.89-40.271-8.893-59.747c-1.793-5.822-4.339-12.888-2.604-18.066
		c7.715-23.01,2.939-43.507-4.207-66.312c-10.103-32.249-27.828-57.874-53.218-77.521c-40.337-31.217-79.938-64.152-130.843-78.469
		C194.8,8.104,160.746-1.996,124.588,0.377c-5.554,0.366-11.716,2.081-16.272,5.145C88.478,18.844,85.052,32.956,93.632,63.049
		c1.206-5.979,1.125-11.784,3.536-16.244c5.28-9.763-6.354-25.98,9.942-30.391c11.506-3.109,24.127-2.104,36.256-2.902
		c0.959-0.063,1.962,0.055,2.905,0.269c23.661,5.313,47.38,10.391,70.962,16.036c52.195,12.494,92.045,46.292,133.034,77.961
		c6.988,5.398,8.369,9.757-2.882,13.731c-9.397,3.315-17.26,10.972-25.805,16.709c28.252-10.235,53.911-4.546,68.599,15.246
		c1.446,1.952,4.105,4.232,3.851,6.024c-2.619,18.329,12.943,28.748,18.66,43.423c6.852,17.588-2.999,31.917-6.939,47.425
		c-0.864,3.409-3.477,6.371-6.229,11.191c-5.746-8.341-10.521-15.27-13.948-20.246c4.479-9.741,8.102-17.61,11.721-25.479
		c-19.771,4.502-26.277,26.28-16.853,42.756c3.111,5.434,7.389,10.512,9.079,16.346c1.159,4.006,0.233,10.524-2.464,13.175
		c-2.381,2.348-8.89,2.163-12.898,0.911c-19.5-6.086-28.232-23.504-36.015-39.633c-6.96-14.429-16.065-25.308-29.714-32.191
		c-15.964-8.048-32.649-14.653-48.908-22.131c-3.921-1.803-7.402-4.57-9.114-5.651c23.286-16.968,45.653-33.269,68.019-49.572
		c-3.501,1.595-7.431,2.616-10.442,4.869c-33.398,24.96-70.813,37.56-112.545,38.097c-8.152,0.104-16.771,1.567-24.318,4.56
		c-38.538,15.284-76.755,31.38-115.17,46.971c-14.449,5.864-27.718,16.413-46.749,12.603c1.996-14.748,9.204-41.242,11.506-56.263
		c0.271,0.01,0.543,0.021,0.815,0.031c1.598-13.333,4.03-26.632,4.58-40.007c0.316-7.688,0.885-12.123,2.887-14.087
		c3.938-7.574,12.406-12.336,18.464-18.407c9.729-9.753,18.617-20.303,27.466-30.845c3.644-4.339,7.574-9.246,12.185-13.005
		c-0.17,0-0.338,0.002-0.508,0.002c-0.14,0.203-0.518,0.681-0.961,1.087c-18.8,17.275-37.973,34.166-56.211,52.016
		c-5.485,5.362-10.958,13.035-11.919,20.246c-1.87,14.051-0.547,28.524-0.547,42.821c0.148,0.006,0.297,0.012,0.445,0.018
		c-4.278,19.779-13.559,51.228-17.488,70.189c1.355,1.34,2.714,2.675,4.07,4.013c18.107-7.178,36.4-13.923,54.272-21.642
		c24.404-10.546,48.229-22.489,72.891-32.365c6.606-2.647,16.235-2.098,22.964,0.666c26.729,10.981,52.669,23.856,79.271,35.158
		c17.858,7.591,36.658,12.999,54.393,20.839c7.719,3.41,16.52,9.771,3.196,18.812c-2.599,1.76-4.938,6.847-4.364,9.814
		c2.283,11.78,5.936,23.279,8.77,34.958c4.595,18.925,28.073,28.629,25.092,51.311c-0.021,0.145,2.138,1.005,3.518,1.333
		c1.569,13.333,3.586,26.296,5.187,39.597c2.509-0.514,5.017-1.031,7.526-1.545c-4.18-12.707-8.357-25.414-12.54-38.121
		c-0.424-5.957-0.848-11.916-1.418-19.923c11.418,3.07,20.535,4.804,29.021,8.144c3.718,1.466,7.585,5.728,8.896,9.563
		c5.16,15.092,10.234,30.336,13.394,45.918c1.157,5.705-1.119,14.867-5.271,18.363c-11.38,9.576-24.588,16.982-37.948,25.83
		c-1.568-3.926-2.832-7.09-4.525-11.322c-13.282,29.957-14.979,56.736,13.67,80.711c1.066-5.521,2.463-9.83,2.633-14.197
		c0.416-10.711,0.145-21.447,0.38-32.166c0.477-21.766,9.242-31.311,32.687-34.908c0.331,6.834,1.946,13.818,0.715,20.262
		c-2.627,13.729,4,20.639,15.452,25.23c2.688,1.08,5.107,2.809,7.746,4.037c10.674,4.979,16.678,12.26,15.415,25.072
		c-1.336,13.557-0.519,27.34-2.108,40.848c-0.566,4.803-4.643,10.01-8.527,13.439c-8.755,7.73-18.052,14.99-27.846,21.344
		c-3.684,2.389-11,4.004-13.768,1.992c-5.951-4.326-11.869-10.527-14.454-17.244c-4.544-11.807-6.578-24.58-10.012-38.342
		c-0.954,4.627-2.233,8.563-2.52,12.574c-2.087,29.316,19.974,64.936,47.617,75.115c18.149,6.689,37.166,11.002,55.391,17.5
		c14.33,5.109,28.653,10.844,41.917,18.209c32.665,18.146,64.721,37.393,100.073,57.977c7.8-33.586-13.948-49.371-31.268-70.779
		c33.827-4.672,64.396-8.895,93.884-12.965c-2.128-0.832-5.759-2.25-10.274-4.016c7.728-3.141,13.797-7.166,20.203-7.787
		c6.754-0.65,14.322,4.01,20.605,2.498c5.373-1.297,9.436-8.043,14.077-12.377C683.547,629.691,678.802,624.798,674.707,625.289z
		 M338.825,519.144c-15.745-15.803-15.712-21.293,1.729-34.4C339.912,497.498,339.425,507.212,338.825,519.144z M513.474,599.476
		c0.434,0.43-4.339,9.016-7.488,9.623c-8.976,1.732-18.368,1.307-27.6,1.73c-6.813-0.016-13.622,0.014-20.435-0.021
		c-24.945-0.123-39.143-10.699-40.781-39.059c-1.36-23.51,2.736-47.424,5.697-70.994c0.406-3.24,9.262-8.779,12.415-7.75
		c17.74,5.773,36.009,11.443,51.817,20.941c6.891,4.145,10.737,17.047,11.799,26.438
		C501.208,560.798,496.386,582.564,513.474,599.476z M450.289,378.613c1.125,1.436-3.04,7.02-4.758,10.686
		c-7.901-7.225-16.271-14.01-23.553-21.814c-5.096-5.459-10.857-12.027-0.73-22.231C431.638,356.919,441.47,367.369,450.289,378.613
		z M272.435,246.913c-35.207-12.862-72.283-21.196-107.966-45.382c43.071-18.267,76.924,0.127,112.87,12.986
		c41.118,14.711,55.508,50.489,77.313,87.21c-13.276-2.307-23.971-4.167-34.669-6.024c0.132-1.884,0.261-3.765,0.395-5.651
		c5.194-0.495,10.392-0.986,17.308-1.65C319.558,267.125,296.723,255.782,272.435,246.913z M300.77,319.862
		c-2.032-5.99-2.966-12.352-4.038-16.96c17.823,3.849,33.866,9.206,50.176,10.202c12.089,0.736,25.71-1.883,36.418-7.363
		c8.158-4.179,12.788-15.216,19.044-23.156c2.754-3.501,5.646-6.894,8.479-10.332c2.215,3.412,5.328,6.554,6.449,10.298
		c2.219,7.399,3.669,15.083,4.846,22.738c4.338,28.26-2.317,40.605-28.467,51.004C368.419,366.337,312.511,354.49,300.77,319.862z
		 M397.59,477.896c-14.792,1.188-17.73-5.197-18.349-16.963c-0.734-14.055-0.706-28.27-3.004-42.09
		c-1.869-11.239-6.777-21.963-10.143-32.98c-1.176-3.847-1.771-7.871-2.258-10.105c13.411-5.117,24.799-10.299,36.714-13.522
		c3.712-1.001,10.8,2.071,12.947,5.439c4.595,7.212,5.476,17.041,10.697,23.531c4.877,6.059,12.958,10.877,20.515,12.844
		c3.449,0.899,9.028-6.355,15.816-11.592c17.457,32.691,28.854,69.303,40.922,108.613c-22.076-7.596-38.912-14.938-56.505-18.98
		C429.585,478.56,413.208,476.642,397.59,477.896z M398.076,621.736c-4.125-4.33-13.745-10.82-3.446-19.074
		c9.106-7.305,16.048-6.313,24.874,2.533c12.217,12.246,26.515,22.553,40.601,32.75c8.5,6.148,18.287,10.52,27.498,15.688
		C452.915,655.884,422.126,646.988,398.076,621.736z M565.691,711.978c-19.699-9.613-38.408-18.742-57.115-27.871
		c0.727-1.408,1.447-2.816,2.172-4.223C535.931,679.066,568.697,690.48,565.691,711.978z M465.322,623.558
		c43.513-22.879,72.867,3.252,100.849,30.688C547.196,662.66,482.728,643.386,465.322,623.558z"/>
</g>
</svg>
