<?xml version="1.0" encoding="utf-8"?>
<!-- Generator: Adobe Illustrator 16.0.0, SVG Export Plug-In . SVG Version: 6.00 Build 0)  -->
<!DOCTYPE svg PUBLIC "-//W3C//DTD SVG 1.1//EN" "http://www.w3.org/Graphics/SVG/1.1/DTD/svg11.dtd">
<svg version="1.1" id="Layer_1" xmlns="http://www.w3.org/2000/svg" xmlns:xlink="http://www.w3.org/1999/xlink" x="0px" y="0px"
	 width="688.082px" height="737.535px" viewBox="0 0 688.082 737.535" enable-background="new 0 0 688.082 737.535"
	 xml:space="preserve">
<g id="Layer_4">
	<polygon fill="#FF0000" points="131.826,6.872 209.535,19.306 289.316,53.498 328.688,80.438 376.35,119.81 403.29,166.436 
		412.305,187.222 417.606,209.675 414.177,240.86 410.746,256.765 417.606,272.669 423.532,287.326 425.403,303.23 425.403,312.274 
		425.403,335.663 439.436,353.127 465.633,387.929 499.623,480.988 510.851,532.13 504.926,576.724 528.626,596.683 
		551.703,628.804 567.608,644.085 632.16,644.085 681.746,632.546 672.659,644.73 643.482,653.804 563.242,661.548 539.54,667.785 
		552.327,681.507 574.468,707.078 570.727,726.722 470.622,667.783 409.501,646.578 348.686,605.724 338.387,556.173 
		340.647,538.068 328.105,514.041 323.116,488.468 326.405,460.097 329.269,423.191 324.258,383.527 316.567,354.684 
		293.177,309.776 296.295,292.313 308.77,269.548 264.799,249.9 152.531,204.059 131.826,206.554 11.576,257.074 5.649,248.966 
		20.619,184.412 23.425,140.129 39.954,122.041 86.693,74.321 93.73,63.038 92.344,38.153 96.711,19.754 114.487,6.872 	"/>
</g>
<g id="Layer_1_1_">
	<polygon fill="#E2C374" points="291.628,296.669 341.075,306.318 380.389,296.669 399.444,277.855 413.433,265.556 422.97,285.937 
		427.182,315.965 425.403,335.663 404.509,357.21 369.295,364.928 326.603,355.039 303.688,335.261 291.628,305.835 	"/>
	<g>
		<g>
			<path fill="#FFE402" d="M334.297,87.931c-3.339,2.12-6.899,3.825-10.344,5.678c-3.456,1.859-7.276,2.989-10.838,4.669
				c-4.93,2.329-9.529,5.535-14.555,7.997c-4.174,2.044-7.664,4.782-11.729,6.913c-5.224,2.739-11.265,2.879-16.693,5.245
				c-1.819,0.793-3.389,2.309-5.12,3.057c-2.334,1.008-4.896,1.045-7.323,2.085c-5.857,2.509-10.141,6.762-16.033,9.288
				c-11.07,4.744-21.123,7.404-33.206,8.117c-13.072,0.771-28.89-2.766-40.328,4.564c-6.766,4.336-16.882,5.441-24.79,9.32
				c-9.291,4.558-19.188,9.341-28.971,13.511c-10.594,4.518-21.646,5.803-32.345,9.884c-6.883,2.625-13.294,6.301-20.079,9.195
				c-0.078-1.247-0.132-2.497-0.129-3.756c0.02-7.391,0.715-14.611,1.036-21.883c0.299-6.752-1.236-13.313-0.524-19.97
				c0.811-7.565,1.515-15.112,2.267-22.704c0.29-2.926,0.547-6.2,1.165-9.05c0.709-3.265,3.805-7.892,5.606-10.59
				c7.729-11.569,2.95-8.647,11.396-18.909l2.725-4.444c-1.896,2.839-3.907,5.279-6.2,8.065
				c-8.447,10.262-13.644,23.049-22.885,32.589c-2.258,2.331-4.473,4.242-5.183,7.506c-0.618,2.85-0.875,6.124-1.165,9.051
				c-0.752,7.593-1.456,15.139-2.267,22.705c-0.712,6.657,0.823,13.217,0.525,19.97c-0.224,5.013-0.611,10.005-0.845,15.042
				c-0.104,2.27-0.187,4.545-0.192,6.842c-0.007,3.005,0.258,5.968,0.599,8.919c3.434-0.704,7.063-0.829,10.397-2.054
				c1.803-0.662,3.564-1.407,5.312-2.188c6.186-2.766,12.114-6.064,18.439-8.478c10.697-4.081,21.751-5.367,32.345-9.884
				c9.782-4.171,19.68-8.954,28.971-13.512c7.908-3.878,18.024-4.984,24.79-9.32c11.438-7.33,27.256-3.793,40.328-4.564
				c12.083-0.713,22.136-3.374,33.206-8.117c5.894-2.526,10.176-6.778,16.033-9.288c2.428-1.04,4.989-1.077,7.323-2.085
				c1.731-0.748,3.301-2.264,5.119-3.057c5.431-2.367,11.472-2.506,16.694-5.246c4.065-2.131,7.556-4.869,11.729-6.912
				c5.023-2.463,9.625-5.669,14.555-7.998c3.562-1.681,7.382-2.81,10.838-4.669c3.443-1.854,7.005-3.558,10.344-5.678
				c4.824-3.062,6.998-7.348,10.677-11.268L334.297,87.931z"/>
			<path fill="#FFE402" d="M85.484,76.147c0.747-1.12,1.478-2.294,2.197-3.585L85.484,76.147z"/>
		</g>
	</g>
	<path fill="#00BC0C" d="M22.707,249.495c0-9.791,1.323-19.153,1.313-28.96c-0.007-6.443,0.556-13.042,1.649-19.357
		c0.876-5.062,2.934-9.563,3.619-14.694c1.229-9.174,0.311-18.945,0.415-28.269c0.055-4.885,1.042-8.372,2.724-12.875
		c1.609-4.321,1.386-9.394,3.608-13.446c3.506-6.39,12.133-13.258,13.324-20.442c-4.109,2.699-7.746,6.909-11.324,10.265
		c-4.003,3.755-10.669,8.516-13.338,13.39c-3.92,7.164-4.585,19.512-5.498,27.845c-0.943,8.595,1.842,17.217,0.467,25.692
		c-1.592,9.818-5.012,19.572-6.895,29.684c-1.627,8.736-5.734,17.23-7.457,25.901c-1.181,5.937-2.691,10.048,4.646,10.078
		c5.205,0.022,7.68-3.052,12.309-4.81"/>
	<path fill="#00BC0C" d="M19.209,238.127c4.017-0.824,7.206-4.421,11.422-5.707c5.729-1.75,11.689-3.384,17.447-5.323
		c11.684-3.933,23.055-8.925,34.227-14.213c3.375-1.598,6.546-4.08,9.877-5.781c6.613-3.38,13.484-3.408,20.282-5.367
		c5.85-1.686,11.542-3.7,17.313-5.601c5.021-1.653,9.844-5.162,14.572-6.874c5.514-1.997,11.217-3.566,16.575-5.775
		c2.964-1.221,6.332-3.41,9.368-3.987c7.515-1.427,17.076,0.125,24.779,0.033c6.884-0.083,12.97-2.015,19.573-3.5
		c10.662-2.397,21.761-3.938,32.309-7.44c23.059-7.656,46.692-20.158,66.545-34.001c7.009-4.887,13.604-9.103,21.351-13.02
		c4.027-2.036,16.988-9.872,20.19-7.169c8.863,7.479-11.875,16.167-16.635,17.369c-16.592,4.192-29.291,12.551-42.736,22.398
		c-15.237,11.162-34.125,23.168-52.955,25.352c-8.52,0.988-16.659,3.983-25.253,4.82c-6.921,0.676-13.472,1.293-20.24,3.084
		c-13.207,3.495-27.459,4.932-40.162,9.465c-11.681,4.167-22.279,10.231-33.733,14.198c-9.402,3.255-17.783,6.517-27.156,9.632
		c-10.787,3.584-21.56,8.814-32.488,12.945c-10.089,3.814-20.459,9.313-30.99,11.576c-5.615,1.205-10.826,2.984-16.465,4.199
		c-0.852-2.815-2.105-6.54-0.875-9.5c3.452,0.75,3.467-1.911,5.606-3.563"/>
	<path fill="#00BC0C" d="M379.037,439.949c3.283,2.109,3.99,6.313,6.678,9.086c2.082,2.15,7.15,5.076,9.624,6.797
		c5.351,3.721,11.695,4.537,18.583,5.668c18.257,3.002,38.034,6.998,56.342,11.318c8.388,1.977,18.491,3.555,24.987,9.049
		c7.448,6.299,6.862,17.529,9.532,26.35c-8.95-5.379-16.011-8.697-27.17-8.697c-6.776,0-12.477,0.695-18.295-2.262
		c-4.252-2.158-7.562-5.559-12.358-7.189c-9.661-3.289-22.261-0.791-33.059-0.82c-13.338-0.033-23.281,1.717-32.691-7.609
		c-0.59-9.121-1.317-33.029-14.362-28.865c-6.854,2.188-12.328,10.064-18.66,13.865c-3.299,1.979-6.87,3.432-10.044,5.799
		c-1.593,1.188-6.626,7.736-8.592,7.826c-4.742,0.215-4.084-11.648-3.921-15.631c0.329-8.102,0.6-15.377,7.395-19.926
		c12.506-8.369,27.528-10.508,37.266-22.541c1.9-2.351,1.569-4.16,4.52-4.724c0.375,3.836,1.78,6.888,2.175,10.866
		c0.412,4.188-1.157,8.938,1.368,12.326"/>
	<path fill="#00BC0C" d="M417.382,643.308c11.402,8.414,33.714-2.322,46.559-3.574c13.911-1.355,30.129,4.523,43.691,9.014
		c9.958,3.295,25.647,1.125,35.151-2.699c6.353-2.557,7.992-6.861,14.358-4.504c4.088,1.516,13.374,6.807,12.923,12.035
		c-0.525,6.098-13.016,9.285-18.297,9.734c-10.878,0.928-22.238-0.754-33.017-2.236c-14.663-2.021-29.119,1.594-43.754,2.123
		c-21.125,0.762-42.332-8.553-59.673-19.207"/>
	<path fill="#00BC0C" d="M305.088,270.142c7.988,5.053,20.216,6.498,29.863,6.847c6.095,0.22,9.678-1.839,13.442,1.904
		c2.929,2.911,3.66,7.419,7.396,10.181c1.212-6.218,9.184-4.983,12.975-8.816c3.505-3.544,5.745-10.687,8.216-14.925
		c2.03-3.479,2.11-14.328,5.652-16.43c4-2.374,6.094,3.884,7.826,7.815c8.439-4.266,18.803-9.795,24.045-17.9
		c0.702,5.303-3.763,19.347-7.17,23.638c-2.878,3.623-7.178,2.022-9.537,4.313c-2.047,1.989-2.052,8.557-2.862,11.042
		c-1.734,5.306-4.692,17.368-10.384,19.92c-5.415,2.429-18.69-0.472-24.68-0.064c1.823,1.698,1.468,3.071,1.945,5.238
		c-6.886,0.728-12.253,3.631-18.917,3.375c-5.943-0.229-12.106-3.505-17.789-6.182c-6.353-2.996-13.183-2.892-15.232-8.866
		c-1.396-4.069-6.791-16.559-3.421-19.721"/>
	<path fill="#FFE402" d="M254.419,245.491c11.146,1.357,22.6-4.534,33.378-5.477c11.719-1.026,22.276-5.639,33.604-6.742
		c3.021,12.712,12.113,13.579,22.046,8.13c7.437-4.078,20.441-12.312,25.521-19.173c3.069-4.145,3.08-6.887,7.977-9.642
		c1.924-1.081,5.39-1.228,6.897-3.353c1.583-2.232,0.391-5.811,1.816-8.265c3.684-6.333,6.115-2.572,10.491,0.55
		c3.778,2.697,4.371,4.61,10.538,2.902c1.964-0.544,6.088-2.698,7.853-4.08c4.68,11.571,6.352,19.854,2.05,31.387
		c-6.573,0.52-11.705-0.922-18.381,0.068c-2.62,0.388-5.508,1.044-8.256,1.182c-2.441,0.123-5.063-0.779-8.112-0.39
		c-0.159,5.363,3.101,12.283-0.055,15.502c-1.328,1.356-8,2.657-10.319,4.23c-3.364,2.282-6.514,5.182-9.896,7.549
		c-3.453,2.417-12.239,10.882-16.378,10.819c-4.584-0.071-5.43-7.497-8.629-11.487c-4.105-5.12-5.971-5.167-13.523-4.81
		c-8.252,0.39-13.977,5.169-21.946,6.213c-7.085,0.928-17.797-0.92-24.232-3.3c-5.157-1.908-8.8-5.944-13.508-8.276
		c-2.097-1.038-4.749-1.324-6.883-2.169"/>
	<path fill="#FFE402" d="M489.275,442.687c-4.361-1.439-9.769-1.352-14.38-1.369c-9.328-0.037-16.017-1.855-25.403-3.322
		c-14.602-2.279-29.381-1.693-43.562-5.465c-8.704-2.313-17.671-6.248-24.655-11.869c-8.29-6.674-10.738-16.295-13.298-26.488
		c-6.982-0.707-15.108,7.777-21.807,9.787c-4.413,1.324-10.732,3.547-15.631,3.055c-1.529-6.971-5.238-13.428-7.392-20.369
		c15.779,1.247,26.812-17.836,41.438-19.186c1.225,6.588-2.341,7.284,1.477,12.75c2.108,3.021,5.23,6.342,7.992,8.574
		c7.913,6.397,18.699,11.314,27.607,15.573c8.84,4.226,16.663,4.009,26.023,4.779c5.538,0.457,10.051,2.062,15.747,2.054
		c8.251-0.011,20.518-0.048,25.231-8.097c0.04,0.356-1.353-0.731-1.248-0.634c7.693-3.735,17.953,30.986,19.117,36.803"/>
	<path fill="#FFE402" d="M505.708,564.566c-3.53,1.648-7.211-0.355-10.92-0.721c-5.966-0.586-12.008,0.465-17.82,0.736
		c-13.76,0.643-24.674-0.191-37.618-4.143c-6.485-1.98-18.888-5.156-22.153-12.119c-1.682-3.588-0.304-9.932-0.347-13.896
		c-0.049-4.33-1.611-7.404-1.777-11.406c-13.582,7.717-27.367,17.703-40.843,24.982c-10.268,5.547-23.72,15.773-36.17,13.725
		c-1.028-5.9,1.404-12.285,1.301-18.385c-0.045-2.576-1.362-5.414-0.734-8.217c1.212-5.416,1.11-3.717,5.489-5.479
		c11.793-4.742,26.25-5.574,38.214-10.803c7.608-3.324,14.531-8.605,21.358-13.184c4.732-3.174,13.107-12.68,16.465-6.809
		c2.724,4.76-2.05,13.506-0.717,18.471c1.518,5.65,11.093,11.686,17.041,13.611c14.721,4.768,32.184,6.246,47.559,6.928
		c8.507,0.377,16.56-4.688,24.359-3.332c0.261,10.137-0.966,20.24-1.316,30.037"/>
	<path fill="#FFE402" d="M473.526,636.462c10.124,3.178,20.873-5.643,30.107-9.281c7.521-2.959,25.155-6.854,25.949-16.635
		c-11.216-0.574-18.537-4.121-29.476-8.064c-4.837-1.746-10.905-3.873-16.006-3.68c-5.294,0.203-7.529,3.141-12.117,5.514
		c-7.225,3.734-15.951,4.73-22.92,8.338c-7.03,3.635-12.875,6.932-21.364,8.742c-11.846,2.525-24.592,4.531-36.758,5.479
		c-4.955,0.387-23.137,3.566-26.711-0.289c-1.239-1.338-0.611-9.309-0.295-11.352c1.174-7.582,5.207-16.135,13.042-17.65
		c6.923-1.34,14.182,1.6,21.071,1.9c20.28,0.887,39.978-1.123,60.232-1.299c0.543,4.439-1.927,9.867-2.539,14.352
		c-1.219,8.9-1.088,8.697,3.423,12.949c3.992,3.762,10.977,9.063,15.729,11.66"/>
	<path fill="#00BC0C" d="M416.695,573.466c4.476,2.807,7.556,6.154,11.074,9.436c7.952,7.41,16.454,6.504,27.229,7.002
		c9.279,0.428,18.259,1.885,27.697,1.23c9.487-0.656,23.949-6.213,31.058,0.102c5.999,5.328,7.227,9.65,1.71,15.232
		c-7.022,7.107-8.348,4.945-16.924,5.189c-4.404,0.125-7.858,2.65-12.106,3.498c-4.969,0.988-10.209,0.303-15.479,0.748
		c-10.959,0.92-25.08,5.146-35.598-0.084c-1.624-0.807-4.25-5.203-5.072-6.5c-4.796-0.16-7.89-4.564-12.727-5.188
		c-0.254-4.535-2.998-12.656-8.104-12.775c-5.137-0.115-15.938,9.936-20.166,13.074c-5.034,3.738-9.844,10.889-15.729,13.025
		c-6.177,2.242-11.454-1.729-16.432-5.131c-4.498-3.074-10.543-6.617-10.271-12.809c0.267-6.09,9.97-8.963,15.749-11.672
		c14.142-6.633,30.793-13.258,43.12-23.436c3.95-3.262,8.173-7.408,10.337-11.945c-0.159,6.557-0.09,12.563-1.557,18.846
		c0.146,0.797,0.647,1.059,1.506,0.785"/>
</g>
<g id="Layer_3">
	<path d="M674.803,625.277c-10.014,1.201-19.62,5.408-29.58,7.48c-25.592,5.326-51.424,9.867-77.407,3.303
		c-13.961-3.525-15.262-8.801-6.734-19.971c7.79-10.205,5.622-16.711-7.011-19.414c-5.67-1.215-12.342,0.434-17.295-1.902
		c-8.932-4.211-17.916-9.439-24.787-16.326c-2.716-2.727-0.063-11.053,0.537-16.787c1.555-14.77,9.188-28.404,0.772-44.629
		c-6.903-13.309-7.512-29.766-11.91-44.525c-4.434-14.881-10.122-29.383-15.222-44.063c-10.088-29.059-18.416-58.703-43.13-80.365
		c-8.168-7.156-18.309-16.964-14.055-30.212c6.984-21.757-2.888-40.27-8.891-59.746c-1.794-5.822-4.339-12.889-2.605-18.066
		c7.715-23.01,2.941-43.506-4.207-66.311c-10.102-32.249-27.827-57.875-53.217-77.522c-40.338-31.216-79.938-64.151-130.844-78.469
		c-34.32-9.66-68.377-19.759-104.533-17.386c-5.555,0.366-11.715,2.081-16.272,5.145C88.575,18.832,85.148,32.944,93.73,63.038
		c1.206-5.979,1.125-11.783,3.535-16.243c5.279-9.764-6.354-25.981,9.941-30.392c11.506-3.109,24.128-2.103,36.256-2.901
		c0.959-0.063,1.962,0.055,2.905,0.27c23.661,5.314,47.38,10.39,70.963,16.035c52.194,12.495,92.045,46.292,133.033,77.961
		c6.988,5.397,8.37,9.757-2.882,13.731c-9.396,3.315-17.26,10.973-25.805,16.71c28.254-10.235,53.912-4.546,68.599,15.245
		c1.448,1.953,4.106,4.232,3.853,6.026c-2.62,18.33,12.941,28.747,18.658,43.422c6.852,17.588-2.999,31.918-6.938,47.425
		c-0.866,3.409-3.479,6.372-6.229,11.191c-5.746-8.342-10.521-15.269-13.947-20.246c4.479-9.741,8.1-17.61,11.718-25.478
		c-19.771,4.502-26.276,26.28-16.851,42.756c3.11,5.434,7.389,10.512,9.079,16.346c1.159,4.006,0.233,10.523-2.464,13.176
		c-2.382,2.347-8.89,2.162-12.898,0.909c-19.5-6.085-28.233-23.503-36.015-39.632c-6.961-14.429-16.065-25.309-29.715-32.191
		c-15.964-8.048-32.648-14.653-48.908-22.13c-3.92-1.803-7.401-4.571-9.114-5.651c23.286-16.97,45.654-33.27,68.02-49.573
		c-3.502,1.595-7.43,2.616-10.443,4.869c-33.398,24.96-70.813,37.559-112.545,38.096c-8.151,0.104-16.771,1.568-24.317,4.56
		c-38.537,15.285-76.755,31.38-115.171,46.971c-14.448,5.864-27.717,16.413-46.747,12.603c1.994-14.748,9.202-41.242,11.505-56.264
		c0.271,0.01,0.544,0.022,0.814,0.032c1.599-13.334,4.03-26.632,4.581-40.007c0.317-7.689,0.884-12.124,2.886-14.088
		c3.938-7.574,12.407-12.335,18.465-18.407c9.729-9.752,18.617-20.304,27.466-30.845c3.643-4.339,7.573-9.246,12.184-13.006
		c-0.169,0-0.337,0.002-0.507,0.002c-0.14,0.204-0.517,0.681-0.961,1.087c-18.8,17.275-37.972,34.166-56.211,52.016
		c-5.486,5.364-10.958,13.036-11.918,20.247c-1.872,14.051-0.548,28.525-0.548,42.821c0.147,0.007,0.298,0.012,0.446,0.018
		c-4.279,19.78-13.561,51.228-17.489,70.19c1.355,1.34,2.714,2.675,4.069,4.013c18.108-7.179,36.401-13.924,54.273-21.643
		c24.405-10.545,48.229-22.489,72.89-32.364c6.608-2.648,16.235-2.099,22.964,0.666c26.729,10.981,52.668,23.856,79.271,35.158
		c17.858,7.591,36.658,12.999,54.393,20.839c7.72,3.41,16.52,9.77,3.196,18.812c-2.597,1.761-4.938,6.847-4.363,9.813
		c2.282,11.781,5.936,23.28,8.77,34.958c4.594,18.925,28.074,28.628,25.09,51.31c-0.02,0.146,2.14,1.006,3.519,1.334
		c1.57,13.333,3.588,26.297,5.187,39.596c2.509-0.514,5.017-1.029,7.526-1.544c-4.179-12.707-8.358-25.412-12.538-38.12
		c-0.425-5.958-0.85-11.916-1.419-19.925c11.418,3.071,20.536,4.805,29.021,8.146c3.717,1.465,7.583,5.726,8.896,9.563
		c5.161,15.09,10.234,30.335,13.393,45.916c1.158,5.707-1.119,14.867-5.27,18.363c-11.379,9.578-24.588,16.984-37.948,25.83
		c-1.569-3.924-2.833-7.088-4.526-11.32c-13.281,29.955-14.979,56.734,13.669,80.711c1.067-5.521,2.465-9.83,2.635-14.197
		c0.417-10.713,0.145-21.447,0.38-32.166c0.476-21.768,9.242-31.313,32.686-34.91c0.331,6.834,1.946,13.82,0.716,20.264
		c-2.628,13.729,3.999,20.639,15.451,25.229c2.688,1.082,5.107,2.809,7.747,4.039c10.673,4.979,16.678,12.258,15.414,25.07
		c-1.337,13.559-0.517,27.34-2.108,40.85c-0.566,4.803-4.643,10.01-8.526,13.438c-8.755,7.732-18.052,14.992-27.846,21.344
		c-3.685,2.391-11,4.006-13.77,1.992c-5.95-4.326-11.868-10.525-14.453-17.244c-4.544-11.805-6.577-24.58-10.011-38.342
		c-0.955,4.629-2.233,8.564-2.52,12.574c-2.087,29.318,19.975,64.936,47.617,75.117c18.149,6.688,37.165,11.002,55.391,17.498
		c14.33,5.109,28.652,10.844,41.918,18.209c32.665,18.146,64.719,37.393,100.071,57.977c7.801-33.586-13.947-49.371-31.268-70.777
		c33.827-4.676,64.396-8.895,93.884-12.967c-2.127-0.832-5.758-2.25-10.275-4.016c7.729-3.139,13.799-7.166,20.204-7.787
		c6.755-0.65,14.322,4.012,20.606,2.5c5.373-1.297,9.435-8.043,14.077-12.377C683.643,629.679,678.899,624.787,674.803,625.277z
		 M338.923,519.132c-15.746-15.803-15.712-21.293,1.729-34.4C340.009,497.486,339.521,507.201,338.923,519.132z M513.571,599.464
		c0.435,0.428-4.338,9.016-7.488,9.623c-8.976,1.732-18.367,1.305-27.6,1.73c-6.813-0.016-13.622,0.014-20.433-0.021
		c-24.947-0.123-39.144-10.699-40.783-39.057c-1.36-23.51,2.737-47.424,5.698-70.996c0.406-3.24,9.262-8.777,12.416-7.75
		c17.738,5.773,36.008,11.441,51.816,20.943c6.892,4.143,10.737,17.045,11.798,26.438
		C501.303,560.789,496.483,582.554,513.571,599.464z M450.385,378.602c1.125,1.437-3.041,7.021-4.757,10.687
		c-7.903-7.227-16.272-14.012-23.555-21.815c-5.095-5.459-10.856-12.027-0.729-22.232
		C431.734,356.908,441.567,367.358,450.385,378.602z M272.533,246.902c-35.208-12.862-72.284-21.195-107.967-45.382
		c43.073-18.268,76.923,0.127,112.872,12.987c41.117,14.71,55.506,50.489,77.313,87.209c-13.277-2.307-23.972-4.167-34.67-6.024
		c0.133-1.884,0.261-3.766,0.396-5.651c5.193-0.496,10.391-0.987,17.308-1.65C319.655,267.114,296.821,255.771,272.533,246.902z
		 M300.867,319.851c-2.03-5.991-2.966-12.354-4.038-16.961c17.824,3.85,33.867,9.206,50.177,10.203
		c12.09,0.736,25.711-1.884,36.418-7.364c8.157-4.178,12.788-15.216,19.044-23.157c2.755-3.501,5.646-6.894,8.478-10.332
		c2.214,3.413,5.328,6.554,6.449,10.298c2.219,7.4,3.67,15.083,4.847,22.738c4.337,28.26-2.317,40.606-28.468,51.005
		C368.515,366.326,312.608,354.479,300.867,319.851z M397.686,477.884c-14.792,1.189-17.73-5.195-18.347-16.961
		c-0.736-14.057-0.706-28.271-3.005-42.09c-1.868-11.24-6.778-21.965-10.145-32.98c-1.175-3.848-1.769-7.872-2.258-10.105
		c13.413-5.119,24.8-10.299,36.715-13.523c3.712-1.001,10.801,2.071,12.948,5.44c4.594,7.212,5.476,17.041,10.698,23.531
		c4.875,6.061,12.957,10.879,20.513,12.844c3.45,0.899,9.028-6.355,15.816-11.59c17.457,32.689,28.853,69.301,40.923,108.609
		c-22.076-7.594-38.912-14.936-56.506-18.979C429.682,478.55,413.303,476.63,397.686,477.884z M398.173,621.724
		c-4.125-4.33-13.746-10.818-3.447-19.074c9.107-7.305,16.048-6.313,24.874,2.533c12.218,12.246,26.516,22.555,40.602,32.75
		c8.499,6.15,18.286,10.521,27.497,15.689C453.011,655.873,422.221,646.978,398.173,621.724z M565.79,711.966
		c-19.7-9.615-38.408-18.742-57.116-27.871c0.727-1.408,1.447-2.814,2.172-4.223C536.028,679.054,568.795,690.47,565.79,711.966z
		 M465.419,623.546c43.512-22.877,72.866,3.252,100.848,30.689C547.294,662.648,482.824,643.375,465.419,623.546z"/>
</g>
</svg>
