<?xml version="1.0" encoding="utf-8"?>
<!-- Generator: Adobe Illustrator 16.0.0, SVG Export Plug-In . SVG Version: 6.00 Build 0)  -->
<!DOCTYPE svg PUBLIC "-//W3C//DTD SVG 1.1//EN" "http://www.w3.org/Graphics/SVG/1.1/DTD/svg11.dtd">
<svg version="1.1" id="Layer_1" xmlns="http://www.w3.org/2000/svg" xmlns:xlink="http://www.w3.org/1999/xlink" x="0px" y="0px"
	 width="688.082px" height="737.535px" viewBox="0 0 688.082 737.535" enable-background="new 0 0 688.082 737.535"
	 xml:space="preserve">
<g id="Layer_4">
	<polygon fill="#760000" points="131.813,6.857 209.521,19.291 289.303,53.483 328.676,80.423 376.338,119.795 403.277,166.421 
		412.292,187.207 417.595,209.66 414.164,240.846 410.732,256.751 417.595,272.654 423.521,287.312 425.39,303.215 425.39,312.259 
		425.39,335.648 439.424,353.111 465.621,387.916 499.611,480.974 510.838,532.115 504.912,576.71 528.613,596.669 551.691,628.791 
		567.595,644.07 632.148,644.07 681.732,632.533 672.646,644.712 643.469,653.792 563.23,661.535 539.529,667.771 552.314,681.492 
		574.455,707.062 570.715,726.708 470.609,667.769 409.486,646.562 348.674,605.708 338.373,556.16 340.635,538.054 
		328.092,514.027 323.103,488.455 326.392,460.083 329.256,423.177 324.244,383.512 316.552,354.669 293.165,309.762 
		296.283,292.298 308.758,269.533 264.787,249.886 152.52,204.045 131.813,206.538 11.562,257.059 5.637,248.951 20.607,184.397 
		23.414,140.114 39.941,122.026 86.68,74.307 93.717,63.024 92.332,38.138 96.698,19.739 114.475,6.857 	"/>
</g>
<g id="Layer_1_1_">
	<polygon fill="#E2C374" points="291.617,296.654 341.062,306.303 380.377,296.654 399.431,277.841 413.422,265.542 
		422.958,285.922 427.17,315.951 425.39,335.648 404.496,357.196 369.281,364.913 326.592,355.024 303.676,335.247 291.617,305.82 	
		"/>
	<path d="M22.695,249.481c0-4.422,0.27-8.754,0.563-13.08"/>
	<path fill="#000BC9" d="M19.197,238.112c4.015-0.824,7.206-4.421,11.421-5.708c5.731-1.748,11.691-3.383,17.448-5.322
		c11.682-3.932,23.055-8.924,34.227-14.213c3.374-1.598,6.545-4.079,9.875-5.781c6.614-3.38,13.486-3.408,20.283-5.367
		c5.85-1.685,11.543-3.7,17.313-5.601c5.022-1.653,9.845-5.162,14.572-6.874c5.515-1.996,11.218-3.566,16.576-5.775
		c2.964-1.221,6.332-3.409,9.367-3.987c7.516-1.427,17.077,0.126,24.781,0.034c6.883-0.084,12.968-2.016,19.571-3.5
		c10.662-2.397,21.762-3.939,32.309-7.439c23.06-7.657,46.693-20.158,66.545-34.001c7.008-4.888,13.604-9.104,21.351-13.02
		c4.026-2.036,16.985-9.872,20.19-7.169c8.863,7.479-11.875,16.167-16.635,17.37c-16.592,4.191-29.289,12.549-42.736,22.397
		c-15.238,11.162-34.125,23.168-52.956,25.353c-8.519,0.987-16.66,3.982-25.252,4.82c-6.921,0.674-13.472,1.292-20.242,3.083
		c-13.206,3.496-27.458,4.933-40.161,9.465c-11.68,4.167-22.278,10.232-33.733,14.198c-9.402,3.255-17.781,6.515-27.155,9.631
		c-10.786,3.584-21.56,8.814-32.489,12.945c-10.089,3.814-20.46,9.314-30.989,11.576c-5.615,1.205-10.826,2.985-16.466,4.201
		c-0.377-1.248-8.244-0.643-8.528-2.102c-0.357-1.834,6.969-5.75,7.652-7.399c3.452,0.75,3.469-1.911,5.608-3.563"/>
	<path fill="#028A1C" d="M377.115,457.98c-2.063-4.271-5.262-6.824-10.28-5.225c-6.854,2.189-12.33,10.064-18.66,13.865
		c-3.3,1.98-6.871,3.43-10.045,5.797c-1.593,1.189-6.625,7.738-8.591,7.828c-4.741,0.215-4.084-11.65-3.922-15.631
		c0.328-8.102,0.603-15.377,7.396-19.926c12.506-8.369,27.526-10.508,37.268-22.541c1.898-2.35,1.566-4.158,4.519-4.723
		c0.375,3.836,1.778,6.887,2.174,10.867c0.414,4.188-1.156,8.938,1.369,12.324L377.115,457.98z"/>
	<path fill="#000BC9" d="M377.711,459.33c3.303,6.828,3.122,16.684,3.485,22.293c9.41,9.326,19.354,7.576,32.691,7.611
		c10.797,0.025,23.396-2.473,33.057,0.816c4.799,1.633,8.107,5.031,12.361,7.191c5.817,2.955,11.516,2.262,18.293,2.262
		c11.16,0,18.221,3.318,27.172,8.695c-2.672-8.82-2.086-20.049-9.535-26.35c-6.496-5.492-16.6-7.07-24.986-9.047
		c-18.307-4.32-38.086-8.316-56.342-11.318c-6.887-1.131-13.231-1.949-18.584-5.67c-2.473-1.719-7.543-4.645-9.623-6.795
		c-2.686-2.773-3.393-6.975-6.676-9.086L377.711,459.33z"/>
	<path fill="#028A1C" d="M415.314,643.978c17.34,10.654,38.547,19.971,59.672,19.207c9.66-0.352,19.242-2.043,28.855-2.572
		l-26.432-20.322c-4.618-0.717-9.159-0.994-13.481-0.572c-12.844,1.252-35.154,11.988-46.562,3.574"/>
	<path fill="#000BC9" d="M507.226,660.478c3.828-0.088,7.664,0.055,11.514,0.584c10.775,1.484,22.138,3.164,33.017,2.236
		c5.28-0.449,17.771-3.637,18.297-9.734c0.451-5.23-8.834-10.52-12.922-12.035c-6.367-2.355-8.009,1.947-14.359,4.504
		c-9.506,3.824-25.193,5.996-35.152,2.701c-7.973-2.639-16.862-5.76-25.664-7.607L507.226,660.478z"/>
	<path fill="#000BC9" d="M355.777,289.059c1.211-6.22,9.185-4.984,12.974-8.816c3.508-3.545,5.745-10.688,8.217-14.926
		c2.03-3.478,2.11-14.327,5.653-16.43c3.998-2.373,6.093,3.885,7.824,7.815c8.441-4.266,18.804-9.795,24.045-17.9
		c0.703,5.303-3.762,19.348-7.17,23.638c-2.877,3.624-7.178,2.022-9.537,4.313c-2.047,1.988-2.051,8.557-2.86,11.042
		c-1.734,5.306-4.693,17.367-10.386,19.922c-5.414,2.428-18.69-0.474-24.678-0.066"/>
	<path fill="#028A1C" d="M355.777,289.059c-3.735-2.762-4.467-7.271-7.395-10.181c-3.767-3.743-7.351-1.684-13.443-1.904
		c-9.647-0.348-21.877-1.794-29.865-6.848l1.369,1.369c-3.371,3.163,2.025,15.651,3.42,19.72c2.054,5.974,8.881,5.871,15.234,8.865
		c5.682,2.678,11.846,5.956,17.787,6.183c6.666,0.254,12.033-2.646,18.918-3.375c-0.479-2.167-0.121-3.539-1.943-5.238"/>
	<path fill="#028A1C" d="M412.826,592.751c-0.979-0.85-2.106-1.379-3.385-1.408c-5.137-0.115-15.938,9.936-20.168,13.072
		c-5.033,3.74-9.842,10.891-15.727,13.027c-6.179,2.24-11.455-1.73-16.433-5.133c-4.498-3.072-10.543-6.615-10.272-12.807
		c0.268-6.09,9.971-8.965,15.75-11.674c14.141-6.631,30.793-13.258,43.118-23.434c3.951-3.262,8.175-7.41,10.339-11.945
		c-0.158,6.555-0.091,12.561-1.56,18.844c0.148,0.799,0.65,1.059,1.508,0.785L412.826,592.751z"/>
	<path fill="#000BC9" d="M416.681,573.453c4.477,2.805,7.555,6.154,11.074,9.434c7.952,7.41,16.452,6.504,27.229,7.002
		c9.281,0.428,18.26,1.885,27.699,1.23c9.486-0.656,23.949-6.211,31.057,0.102c5.998,5.328,7.228,9.652,1.709,15.234
		c-7.021,7.107-8.346,4.945-16.922,5.188c-4.404,0.127-7.858,2.652-12.106,3.498c-4.97,0.99-10.209,0.305-15.479,0.75
		c-10.959,0.92-25.08,5.146-35.598-0.084c-1.623-0.807-4.25-5.203-5.072-6.5c-4.797-0.16-7.889-4.564-12.727-5.188
		c-0.169-3-1.427-7.566-3.734-10.35L416.681,573.453z"/>
	<path fill="#028A1C" d="M4.323,249.905c0.067-1.576,0.546-3.511,0.979-5.692c1.723-8.671,5.829-17.166,7.455-25.901
		c1.885-10.112,5.305-19.865,6.896-29.685c1.373-8.476-1.411-17.098-0.467-25.692c0.913-8.333,1.578-20.682,5.498-27.845
		c2.669-4.875,9.334-9.635,13.338-13.39c3.578-3.356,7.215-7.565,11.322-10.265c-1.191,7.184-9.816,14.053-13.323,20.442
		c-2.223,4.052-1.999,9.125-3.609,13.446c-1.679,4.504-2.667,7.991-2.722,12.876c-0.105,9.323,0.813,19.094-0.415,28.269
		c-0.688,5.129-2.742,9.632-3.62,14.693c-1.093,6.315-1.658,12.914-1.65,19.357c0.008,5.38-0.39,10.626-0.747,15.882L4.323,249.905z
		"/>
	<path fill="#000BC9" d="M29.146,231.765c7.703-2.363,14.849-6.144,22.265-9.381c7.553-3.297,16.328-4.392,24.306-7.713
		c8.729-3.631,16.428-9.025,25.292-12.272c7.848-2.875,15.687-5.655,23.205-8.046c15.627-4.97,29.976-12.854,45.632-16.892
		c8.108-2.09,15.852-2.518,24.541-2.903c8.576-0.381,15.05-5.616,23.262-5.616c9.752,0,18.666,0.146,27.615-3.623
		c9.051-3.811,18.108-8.603,27.087-12.816c9.49-4.456,19.769-6.56,28.316-12.78c4.664-3.395,8.837-7.087,13.574-10.381
		c4.758-3.31,8.777-3.873,14.072-5.899c4.514-1.727,7.805-4.748,11.729-7.109c4.869-2.932,12.681-9.353,17.906-10.184
		c0.914,3.792,3.285,8.443,2.81,12.38c-5.47,0.275-9.845-0.05-14.574,2.132c-4.396,2.029-7.707,5.504-11.973,8.186
		c-7.552,4.75-16.357,8.757-24.488,13.317c-9.42,5.286-17.939,12.018-27.992,16.375c-9.164,3.971-18.767,8.021-28.506,11.143
		c-8.674,2.781-17.234,3.938-25.967,5.271c-8.469,1.294-16.437,4.414-25.027,5.271c-20.558,2.047-43.951,4.044-61.791,14.945
		c-12.146,7.421-24.562,10.372-38.232,13.345c-10.194,2.218-19.197,8-28.334,12.449c-10.561,5.142-21.135,10.77-32.476,12.966
		c-8.296,1.605-16.766,3.847-19.565-5.605"/>
	<path fill="#028A1C" d="M27.545,234.667c-1.516-3.217,0.195-8.049,0.431-11.627c0.295-4.499,0.563-8.598,1.195-12.89
		c1.275-8.664,1.845-16.933,3.442-25.399c1.763-9.318,1.307-18.04,1.817-27.54c0.527-9.842,3.646-17.978,6.43-27.129
		c2.03-6.671,6.429-11.593,8.485-18.02c-8.052,2.701-16.271,13.118-17.832,21.096c-1.636,8.348-2.972,16.497-4.408,24.786
		c-3.222,18.546-5.457,37.418-8.265,56.14c-0.952,6.353-2.645,13.587-1.625,20.154c1.699,10.928,8.199-1.004,10.759-2.583"/>
</g>
<g id="Layer_3">
	<path d="M674.792,625.261c-10.016,1.201-19.62,5.41-29.582,7.484c-25.592,5.324-51.424,9.865-77.407,3.301
		c-13.961-3.525-15.263-8.801-6.732-19.971c7.789-10.205,5.621-16.711-7.012-19.414c-5.67-1.213-12.342,0.434-17.295-1.904
		c-8.931-4.209-17.918-9.439-24.787-16.326c-2.715-2.727-0.063-11.051,0.537-16.785c1.555-14.77,9.186-28.406,0.772-44.629
		c-6.905-13.309-7.512-29.766-11.91-44.525c-4.434-14.881-10.123-29.383-15.221-44.064c-10.088-29.055-18.418-58.701-43.131-80.364
		c-8.168-7.154-18.309-16.962-14.055-30.211c6.983-21.758-2.89-40.271-8.894-59.746c-1.791-5.822-4.336-12.887-2.604-18.066
		c7.715-23.009,2.94-43.506-4.207-66.311c-10.103-32.248-27.828-57.874-53.217-77.522C319.71,64.99,280.111,32.056,229.207,17.739
		C194.885,8.077,160.83-2.021,124.673,0.351c-5.553,0.366-11.716,2.08-16.271,5.145C88.563,18.817,85.137,32.929,93.717,63.023
		c1.206-5.978,1.125-11.782,3.537-16.243c5.279-9.764-6.354-25.981,9.941-30.392c11.506-3.109,24.128-2.101,36.256-2.9
		c0.959-0.064,1.962,0.053,2.904,0.269c23.661,5.313,47.38,10.39,70.963,16.034c52.195,12.495,92.044,46.292,133.033,77.962
		c6.99,5.397,8.369,9.756-2.881,13.73c-9.396,3.316-17.26,10.973-25.806,16.711c28.255-10.235,53.912-4.548,68.599,15.244
		c1.449,1.954,4.106,4.232,3.852,6.026c-2.619,18.33,12.943,28.747,18.66,43.422c6.851,17.587-3,31.918-6.938,47.425
		c-0.865,3.409-3.479,6.371-6.229,11.19c-5.746-8.341-10.523-15.269-13.949-20.246c4.479-9.74,8.101-17.609,11.72-25.478
		c-19.771,4.502-26.277,26.28-16.853,42.756c3.111,5.435,7.389,10.513,9.078,16.345c1.162,4.007,0.234,10.525-2.463,13.176
		c-2.381,2.347-8.891,2.162-12.898,0.911c-19.5-6.085-28.233-23.503-36.014-39.633c-6.961-14.429-16.066-25.308-29.715-32.191
		c-15.964-8.048-32.649-14.654-48.908-22.131c-3.921-1.803-7.402-4.571-9.115-5.65c23.287-16.97,45.656-33.271,68.02-49.574
		c-3.5,1.596-7.431,2.617-10.443,4.87c-33.398,24.96-70.814,37.559-112.544,38.096c-8.152,0.104-16.771,1.568-24.318,4.56
		c-38.538,15.284-76.754,31.379-115.171,46.971c-14.449,5.864-27.716,16.413-46.747,12.604c1.996-14.749,9.203-41.243,11.504-56.265
		c0.273,0.011,0.544,0.023,0.816,0.033c1.597-13.334,4.031-26.632,4.579-40.007c0.317-7.689,0.886-12.124,2.888-14.088
		c3.938-7.573,12.406-12.335,18.464-18.407c9.729-9.752,18.618-20.303,27.466-30.845c3.644-4.339,7.574-9.247,12.185-13.006
		c-0.17,0-0.337,0.002-0.508,0.002c-0.14,0.203-0.517,0.682-0.962,1.087c-18.799,17.275-37.973,34.166-56.211,52.016
		c-5.484,5.363-10.958,13.035-11.917,20.247c-1.872,14.05-0.548,28.522-0.548,42.821c0.148,0.006,0.297,0.011,0.447,0.018
		C13.21,210.273,3.93,241.722,0,260.684c1.355,1.339,2.715,2.675,4.07,4.013c18.107-7.18,36.4-13.924,54.271-21.644
		c24.408-10.545,48.23-22.49,72.893-32.365c6.607-2.648,16.235-2.098,22.964,0.666c26.727,10.981,52.668,23.857,79.271,35.158
		c17.858,7.591,36.657,12.999,54.393,20.839c7.718,3.411,16.52,9.77,3.196,18.812c-2.598,1.761-4.938,6.847-4.364,9.813
		c2.283,11.781,5.936,23.281,8.769,34.958c4.597,18.926,28.074,28.629,25.091,51.311c-0.021,0.145,2.139,1.006,3.52,1.334
		c1.568,13.332,3.586,26.297,5.185,39.596c2.51-0.514,5.018-1.029,7.526-1.543c-4.178-12.709-8.356-25.413-12.539-38.121
		c-0.424-5.958-0.848-11.917-1.418-19.926c11.418,3.072,20.535,4.805,29.021,8.146c3.717,1.464,7.584,5.726,8.896,9.562
		c5.162,15.092,10.234,30.336,13.394,45.918c1.158,5.707-1.117,14.865-5.271,18.361c-11.379,9.578-24.588,16.984-37.948,25.83
		c-1.566-3.924-2.83-7.088-4.525-11.322c-13.283,29.957-14.98,56.736,13.67,80.713c1.066-5.52,2.463-9.83,2.633-14.197
		c0.418-10.713,0.146-21.445,0.381-32.166c0.476-21.768,9.242-31.313,32.685-34.91c0.332,6.838,1.947,13.82,0.715,20.266
		c-2.627,13.727,4.002,20.637,15.453,25.229c2.688,1.08,5.106,2.809,7.746,4.039c10.674,4.977,16.678,12.258,15.414,25.07
		c-1.336,13.557-0.517,27.34-2.107,40.85c-0.568,4.801-4.643,10.01-8.527,13.438c-8.756,7.732-18.053,14.992-27.846,21.344
		c-3.684,2.389-11,4.004-13.768,1.992c-5.951-4.326-11.869-10.527-14.453-17.244c-4.545-11.805-6.578-24.582-10.015-38.344
		c-0.952,4.631-2.231,8.566-2.516,12.576c-2.088,29.318,19.973,64.936,47.615,75.117c18.149,6.688,37.164,11,55.391,17.498
		c14.332,5.109,28.652,10.844,41.916,18.209c32.666,18.146,64.722,37.393,100.074,57.977c7.801-33.586-13.947-49.371-31.266-70.781
		c33.825-4.67,64.395-8.891,93.881-12.963c-2.127-0.832-5.759-2.25-10.273-4.016c7.728-3.139,13.797-7.166,20.203-7.787
		c6.754-0.65,14.322,4.01,20.607,2.5c5.37-1.297,9.434-8.043,14.075-12.377C683.631,629.666,678.888,624.773,674.792,625.261z
		 M338.908,519.117c-15.744-15.801-15.711-21.291,1.73-34.4C339.996,497.472,339.51,507.185,338.908,519.117z M513.558,599.449
		c0.434,0.43-4.338,9.016-7.488,9.625c-8.975,1.73-18.369,1.305-27.6,1.729c-6.814-0.014-13.621,0.014-20.435-0.02
		c-24.946-0.123-39.141-10.699-40.78-39.061c-1.361-23.508,2.737-47.424,5.696-70.994c0.408-3.238,9.263-8.775,12.416-7.75
		c17.74,5.775,36.011,11.443,51.816,20.941c6.891,4.146,10.738,17.047,11.799,26.439
		C501.292,560.775,496.47,582.541,513.558,599.449z M450.373,378.587c1.125,1.436-3.04,7.02-4.758,10.686
		c-7.901-7.227-16.271-14.011-23.551-21.815c-5.098-5.459-10.859-12.027-0.731-22.231
		C431.722,356.894,441.554,367.344,450.373,378.587z M272.521,246.888c-35.209-12.863-72.285-21.196-107.968-45.383
		c43.072-18.267,76.923,0.127,112.87,12.987c41.119,14.71,55.507,50.489,77.313,87.209c-13.276-2.307-23.971-4.167-34.67-6.024
		c0.131-1.884,0.26-3.767,0.394-5.652c5.194-0.495,10.393-0.986,17.309-1.649C319.642,267.098,296.808,255.756,272.521,246.888z
		 M300.853,319.836c-2.031-5.989-2.965-12.353-4.037-16.961c17.822,3.85,33.867,9.206,50.176,10.203
		c12.09,0.736,25.711-1.883,36.418-7.364c8.158-4.178,12.789-15.216,19.043-23.156c2.757-3.502,5.648-6.894,8.479-10.333
		c2.215,3.414,5.328,6.554,6.449,10.298c2.219,7.4,3.67,15.083,4.846,22.738c4.338,28.261-2.316,40.605-28.467,51.006
		C368.504,366.311,312.595,354.465,300.853,319.836z M397.674,477.871c-14.793,1.188-17.732-5.197-18.349-16.961
		c-0.733-14.059-0.705-28.271-3.004-42.091c-1.869-11.239-6.776-21.964-10.143-32.981c-1.176-3.846-1.771-7.871-2.258-10.104
		c13.411-5.119,24.799-10.301,36.713-13.525c3.713-1,10.803,2.071,12.949,5.441c4.594,7.211,5.477,17.04,10.698,23.53
		c4.875,6.06,12.957,10.877,20.513,12.844c3.448,0.899,9.028-6.356,15.817-11.592c17.457,32.692,28.853,69.302,40.92,108.612
		c-22.073-7.594-38.91-14.936-56.504-18.98C429.672,478.535,413.292,476.617,397.674,477.871z M398.16,621.71
		c-4.125-4.33-13.746-10.82-3.446-19.076c9.108-7.303,16.049-6.311,24.873,2.535c12.219,12.246,26.516,22.553,40.604,32.75
		c8.498,6.15,18.285,10.521,27.496,15.689C452.998,655.859,422.208,646.964,398.16,621.71z M565.777,711.951
		c-19.701-9.613-38.408-18.742-57.117-27.869c0.728-1.41,1.447-2.816,2.172-4.225C536.015,679.039,568.783,690.455,565.777,711.951z
		 M465.406,623.533c43.513-22.879,72.867,3.252,100.849,30.688C547.281,662.632,482.812,643.359,465.406,623.533z"/>
</g>
</svg>
