<?xml version="1.0" encoding="utf-8"?>
<!-- Generator: Adobe Illustrator 16.0.0, SVG Export Plug-In . SVG Version: 6.00 Build 0)  -->
<!DOCTYPE svg PUBLIC "-//W3C//DTD SVG 1.1//EN" "http://www.w3.org/Graphics/SVG/1.1/DTD/svg11.dtd">
<svg version="1.1" id="Layer_1" xmlns="http://www.w3.org/2000/svg" xmlns:xlink="http://www.w3.org/1999/xlink" x="0px" y="0px"
	 width="688.082px" height="737.535px" viewBox="0 0 688.082 737.535" enable-background="new 0 0 688.082 737.535"
	 xml:space="preserve">
<g id="Layer_4">
	<polygon fill="#FFFFFF" points="506.835,513.589 499.684,481.013 465.693,387.957 439.497,353.154 425.463,335.69 425.463,312.301 
		306.451,335.176 316.626,354.71 324.316,383.553 329.328,423.218 326.466,460.125 323.176,488.496 328.164,514.068 337.98,532.869 
		340.822,524.759 343.756,472.351 375.126,451.386 381.318,478.544 420.863,487.121 463.264,491.408 	"/>
	<polygon fill="#FF0000" points="340.135,540.835 338.446,556.201 348.746,605.751 409.559,646.605 470.681,667.81 570.787,726.75 
		574.527,707.105 552.386,681.535 539.601,667.814 563.302,661.576 643.542,653.832 672.719,644.755 681.805,632.574 
		632.22,644.113 567.667,644.113 551.763,628.832 528.685,596.71 504.985,576.751 510.91,532.158 508.696,522.072 488.039,503.32 
		423.72,485.214 381.318,478.544 376.554,449.005 344.113,469.968 340.822,524.759 	"/>
	<polygon fill="#023BE0" points="301.529,325.725 293.238,309.803 296.355,292.339 308.83,269.575 264.859,249.927 152.592,204.085 
		131.885,206.58 11.634,257.101 5.709,248.992 20.679,184.439 23.486,140.156 40.013,122.067 86.751,74.348 93.79,63.064 
		92.405,38.179 96.771,19.781 114.546,6.898 131.885,6.898 209.594,19.333 289.375,53.524 328.749,80.463 376.411,119.836 
		403.349,166.462 412.364,187.248 417.667,209.702 414.236,240.886 410.805,256.792 417.667,272.695 423.594,287.353 
		425.463,303.257 	"/>
</g>
<g id="Layer_1_1_">
	<polygon fill="#E2C374" points="291.689,296.696 341.135,306.344 380.449,296.696 399.504,277.882 413.494,265.582 
		423.031,285.963 427.242,315.992 425.463,335.688 404.568,357.237 369.354,364.955 326.664,355.065 303.748,335.288 
		291.689,305.862 	"/>
</g>
<g id="Layer_3">
	<path d="M674.865,625.304c-10.016,1.201-19.621,5.408-29.582,7.48c-25.591,5.328-51.424,9.867-77.407,3.303
		c-13.961-3.525-15.262-8.801-6.732-19.971c7.789-10.205,5.621-16.711-7.012-19.414c-5.669-1.213-12.343,0.434-17.294-1.902
		c-8.932-4.211-17.919-9.439-24.787-16.326c-2.716-2.727-0.063-11.053,0.536-16.787c1.555-14.77,9.187-28.404,0.772-44.627
		c-6.905-13.311-7.512-29.768-11.91-44.527c-4.434-14.879-10.122-29.383-15.221-44.064c-10.088-29.055-18.418-58.702-43.131-80.364
		c-8.168-7.155-18.309-16.963-14.056-30.211c6.984-21.758-2.888-40.271-8.892-59.747c-1.792-5.822-4.337-12.888-2.604-18.066
		c7.715-23.01,2.94-43.507-4.207-66.312c-10.102-32.249-27.827-57.874-53.218-77.521C319.784,65.03,280.184,32.095,229.28,17.778
		C194.958,8.119,160.902-1.98,124.746,0.392c-5.553,0.366-11.716,2.081-16.272,5.145C88.634,18.859,85.208,32.971,93.79,63.064
		c1.206-5.979,1.125-11.784,3.536-16.244c5.279-9.763-6.354-25.98,9.942-30.391c11.505-3.109,24.128-2.104,36.255-2.902
		c0.96-0.063,1.963,0.055,2.905,0.269c23.66,5.314,47.38,10.391,70.962,16.036c52.195,12.494,92.045,46.292,133.034,77.961
		c6.988,5.398,8.369,9.757-2.882,13.731c-9.396,3.315-17.261,10.972-25.805,16.709c28.253-10.235,53.912-4.546,68.599,15.246
		c1.447,1.952,4.106,4.232,3.852,6.024c-2.62,18.329,12.943,28.748,18.659,43.423c6.85,17.588-3,31.917-6.938,47.425
		c-0.864,3.409-3.478,6.371-6.229,11.191c-5.746-8.341-10.523-15.27-13.949-20.246c4.479-9.741,8.1-17.61,11.719-25.478
		c-19.771,4.502-26.276,26.28-16.851,42.756c3.111,5.434,7.388,10.512,9.078,16.346c1.161,4.006,0.232,10.524-2.463,13.175
		c-2.383,2.348-8.892,2.163-12.899,0.911c-19.5-6.086-28.233-23.504-36.014-39.633c-6.96-14.429-16.066-25.308-29.715-32.191
		c-15.964-8.048-32.648-14.653-48.908-22.131c-3.921-1.803-7.401-4.57-9.114-5.651c23.286-16.968,45.655-33.269,68.019-49.572
		c-3.5,1.595-7.43,2.616-10.442,4.869c-33.398,24.96-70.813,37.56-112.545,38.097c-8.152,0.104-16.771,1.567-24.318,4.56
		c-38.537,15.284-76.754,31.38-115.17,46.971c-14.449,5.864-27.717,16.413-46.748,12.603c1.996-14.748,9.203-41.242,11.505-56.263
		c0.272,0.01,0.544,0.021,0.816,0.031c1.597-13.333,4.029-26.632,4.578-40.007c0.318-7.688,0.886-12.123,2.889-14.087
		c3.937-7.574,12.405-12.336,18.464-18.407c9.729-9.753,18.617-20.303,27.466-30.845c3.643-4.339,7.573-9.246,12.184-13.005
		c-0.17,0-0.337,0.002-0.509,0.002c-0.139,0.203-0.516,0.681-0.961,1.087C66.992,92.708,47.819,109.599,29.58,127.45
		c-5.483,5.362-10.957,13.035-11.916,20.246c-1.873,14.051-0.549,28.524-0.549,42.821c0.149,0.006,0.297,0.012,0.447,0.018
		c-4.279,19.779-13.562,51.228-17.489,70.189c1.354,1.34,2.714,2.675,4.07,4.013c18.105-7.178,36.399-13.923,54.271-21.642
		c24.407-10.546,48.229-22.489,72.893-32.365c6.606-2.647,16.233-2.098,22.963,0.666c26.728,10.981,52.668,23.856,79.271,35.158
		c17.859,7.591,36.659,12.999,54.394,20.839c7.72,3.41,16.52,9.771,3.196,18.812c-2.598,1.76-4.938,6.847-4.363,9.814
		c2.281,11.78,5.935,23.279,8.77,34.958c4.596,18.926,28.073,28.629,25.089,51.312c-0.02,0.145,2.14,1.006,3.521,1.334
		c1.569,13.332,3.586,26.295,5.184,39.596c2.512-0.514,5.02-1.031,7.527-1.545c-4.178-12.709-8.357-25.413-12.539-38.12
		c-0.424-5.958-0.848-11.916-1.418-19.925c11.419,3.07,20.535,4.804,29.021,8.144c3.717,1.466,7.584,5.728,8.896,9.563
		c5.162,15.092,10.235,30.336,13.393,45.916c1.158,5.707-1.116,14.867-5.27,18.365c-11.379,9.576-24.587,16.982-37.948,25.83
		c-1.566-3.926-2.831-7.09-4.524-11.322c-13.283,29.955-14.981,56.736,13.669,80.711c1.065-5.52,2.463-9.83,2.634-14.197
		c0.417-10.713,0.144-21.445,0.38-32.166c0.475-21.768,9.242-31.311,32.686-34.908c0.331,6.836,1.945,13.818,0.715,20.262
		c-2.627,13.729,4.001,20.639,15.451,25.23c2.688,1.08,5.108,2.809,7.746,4.037c10.676,4.98,16.679,12.258,15.415,25.072
		c-1.337,13.557-0.517,27.338-2.107,40.848c-0.567,4.805-4.644,10.012-8.527,13.439c-8.755,7.729-18.052,14.992-27.846,21.344
		c-3.685,2.389-10.999,4.004-13.769,1.992c-5.95-4.326-11.868-10.527-14.453-17.244c-4.544-11.805-6.577-24.58-10.013-38.342
		c-0.954,4.627-2.232,8.563-2.517,12.574c-2.088,29.316,19.973,64.936,47.615,75.115c18.149,6.689,37.164,11.004,55.392,17.498
		c14.331,5.109,28.652,10.846,41.916,18.209c32.666,18.146,64.72,37.395,100.074,57.979c7.8-33.586-13.948-49.371-31.268-70.779
		c33.826-4.672,64.396-8.893,93.882-12.965c-2.127-0.832-5.759-2.25-10.273-4.016c7.728-3.141,13.797-7.166,20.203-7.787
		c6.754-0.65,14.322,4.01,20.606,2.5c5.372-1.297,9.435-8.043,14.076-12.377C683.703,629.707,678.961,624.814,674.865,625.304z
		 M338.981,519.16c-15.745-15.803-15.712-21.293,1.729-34.402C340.068,497.513,339.582,507.228,338.981,519.16z M513.631,599.492
		c0.434,0.428-4.339,9.016-7.487,9.623c-8.977,1.73-18.37,1.305-27.602,1.729c-6.813-0.016-13.62,0.016-20.433-0.02
		c-24.947-0.121-39.142-10.699-40.782-39.059c-1.36-23.51,2.738-47.424,5.697-70.996c0.408-3.238,9.262-8.775,12.416-7.75
		c17.74,5.775,36.01,11.443,51.817,20.943c6.891,4.145,10.736,17.045,11.798,26.439C501.363,560.814,496.542,582.58,513.631,599.492
		z M450.445,378.626c1.126,1.437-3.041,7.021-4.757,10.687c-7.903-7.226-16.271-14.011-23.552-21.814
		c-5.099-5.459-10.859-12.027-0.732-22.231C431.795,356.934,441.626,367.383,450.445,378.626z M272.593,246.928
		c-35.209-12.862-72.284-21.196-107.967-45.382c43.072-18.267,76.923,0.127,112.871,12.986
		c41.118,14.711,55.507,50.489,77.313,87.21c-13.277-2.307-23.971-4.167-34.67-6.024c0.132-1.884,0.261-3.765,0.393-5.651
		c5.195-0.495,10.394-0.986,17.31-1.65C319.715,267.14,296.88,255.797,272.593,246.928z M300.926,319.877
		c-2.03-5.99-2.965-12.352-4.037-16.96c17.823,3.849,33.867,9.206,50.177,10.202c12.089,0.736,25.71-1.883,36.417-7.363
		c8.159-4.179,12.789-15.216,19.044-23.156c2.755-3.501,5.647-6.894,8.479-10.332c2.215,3.412,5.328,6.554,6.448,10.298
		c2.22,7.399,3.671,15.083,4.847,22.738c4.338,28.26-2.316,40.605-28.467,51.004C368.576,366.352,312.669,354.505,300.926,319.877z
		 M397.746,477.912c-14.793,1.188-17.73-5.197-18.347-16.961c-0.735-14.059-0.706-28.271-3.004-42.091
		c-1.869-11.239-6.778-21.964-10.145-32.979c-1.176-3.848-1.769-7.873-2.258-10.105c13.412-5.117,24.799-10.3,36.714-13.523
		c3.712-1.001,10.803,2.071,12.948,5.439c4.594,7.213,5.478,17.041,10.699,23.531c4.875,6.058,12.957,10.876,20.512,12.844
		c3.449,0.898,9.03-6.355,15.818-11.592c17.457,32.691,28.852,69.303,40.921,108.613c-22.075-7.596-38.911-14.938-56.504-18.98
		C429.744,478.576,413.363,476.658,397.746,477.912z M398.232,621.751c-4.125-4.33-13.746-10.82-3.447-19.074
		c9.109-7.305,16.05-6.313,24.874,2.533c12.219,12.246,26.517,22.553,40.604,32.75c8.498,6.15,18.285,10.521,27.496,15.689
		C453.071,655.9,422.281,647.003,398.232,621.751z M565.849,711.994c-19.701-9.615-38.408-18.742-57.117-27.873
		c0.728-1.408,1.448-2.814,2.172-4.221C536.088,679.082,568.855,690.496,565.849,711.994z M465.478,623.574
		c43.512-22.879,72.867,3.252,100.848,30.688C547.353,662.675,482.885,643.402,465.478,623.574z"/>
</g>
</svg>
