<?xml version="1.0" encoding="utf-8"?>
<!-- Generator: Adobe Illustrator 16.0.0, SVG Export Plug-In . SVG Version: 6.00 Build 0)  -->
<!DOCTYPE svg PUBLIC "-//W3C//DTD SVG 1.1//EN" "http://www.w3.org/Graphics/SVG/1.1/DTD/svg11.dtd">
<svg version="1.1" id="Layer_1" xmlns="http://www.w3.org/2000/svg" xmlns:xlink="http://www.w3.org/1999/xlink" x="0px" y="0px"
	 width="688.082px" height="737.535px" viewBox="0 0 688.082 737.535" enable-background="new 0 0 688.082 737.535"
	 xml:space="preserve">
<g id="Layer_4">
	<polygon fill="#19B017" points="131.853,6.898 209.562,19.332 289.343,53.523 328.717,80.463 376.379,119.836 403.318,166.461 
		412.333,187.247 417.635,209.701 414.205,240.886 410.773,256.791 417.635,272.694 423.56,287.353 425.431,303.257 425.431,312.3 
		425.431,335.689 439.463,353.153 465.66,387.955 499.65,481.013 510.879,532.158 504.953,576.751 528.652,596.71 551.73,628.83 
		567.636,644.113 632.187,644.113 681.773,632.572 672.687,644.753 643.51,653.832 563.269,661.576 539.568,667.812 
		552.355,681.535 574.496,707.103 570.754,726.75 470.65,667.808 409.527,646.603 348.715,605.75 338.414,556.201 340.676,538.095 
		328.133,514.066 323.144,488.494 326.433,460.125 329.297,423.216 324.285,383.552 316.594,354.71 293.204,309.803 
		296.324,292.339 308.797,269.574 264.826,249.927 152.56,204.085 131.853,206.58 11.603,257.1 5.677,248.992 20.646,184.438 
		23.453,140.155 39.98,122.066 86.72,74.347 93.757,63.064 92.372,38.179 96.738,19.78 114.514,6.898 	"/>
	<polygon fill="#FFFFFF" points="36.778,125.943 29.409,141.518 27.199,169.786 21.304,202.575 16.884,242.365 40.831,234.134 
		82.463,218.417 110.095,206.861 149.884,191.522 176.779,182.903 212.885,179.364 242.358,172.733 293.2,150.997 345.002,122.538 
		359.859,111.477 345.002,97.206 336.775,101.981 291.656,130.364 244.2,154.496 199.253,163.154 148.042,174.207 85.512,195.575 
		47.302,204.786 44.884,193.733 40.831,177.154 47.302,141.518 58.147,113.01 58.147,104.207 49.387,111.477 	"/>
</g>
<g id="Layer_1_1_">
	<path fill="#FFFFFF" d="M337.09,578.644c0.18,5.129,4.08,11.777,6.606,15.951c1.717,2.832,1.418,3.014,4.279,3.766
		c3.113,0.816,7.578,0.031,10.834,0c14.197-0.135,22.949-13.322,34.479-19.42c7.785-4.119,15.845-5.633,23.494-0.215
		c4.435,3.139,7.625,7.793,11.662,11.047c4.725,3.807,10.906,5.436,16.852,6.867c11.396,2.742,24.986,1.658,36.619-0.281
		c9.228-1.539,18.603-1.773,27.531-3.943c0.219-5.006-1.264-9.541-2.768-14.23c-1.174-3.66-1.67-10.076-3.898-12.865
		c-1.93-2.414-9.275-4.201-12.389-4.648c-3.818-0.553-7.896-0.447-11.75-0.787c-6.894-0.604-13.795-0.533-20.75-0.533
		c-6.935,0-13.504-0.34-20.299-1.146c-4.906-0.582-16.021-1.502-19.984-4.814c-6.313-5.273,0.262-17.557-0.535-24.18
		c-4.361-0.27-8.502-0.654-12.027,1.922c-3.5,2.555-5.928,6.285-9.731,8.818c-7.383,4.92-14.949,8.396-23.406,11.115
		c-8.453,2.717-15.846,7.271-23.143,12.457c-6.492,4.613-8.658,8.932-11.256,15.963"/>
	<path fill="#FFFFFF" d="M326.751,456.962c6.383-6.219,14.75-8.764,22.133-13.813c4.287-2.936,8.84-5.627,12.936-8.971
		c3.514-2.867,9.359-8.469,13.92-8.941c0.554,3.625,0.646,9.104-0.592,12.465c-1.545,4.195-2.475,6.629,1.346,10.029
		c2.457,2.186,5.938,3.104,7.963,5.697c2.728,3.498,3.104,8.521,7.453,11.01c8.888,5.076,20.883,3.49,30.494,5.504
		c3.248,0.68,6.404,2.018,9.652,2.938c3.543,1.006,7.418,0.85,11.024,1.477c5.601,0.973,11.015,2.156,16.38,3.691
		c6.84,1.955,13.151,5.621,20.063,7.572c6.127,1.729,13.742,1.129,20.055,0.818c1.021-4.867-1.737-10.148-3.119-14.787
		c-2.104-7.059-1.008-14.953-8.34-19.188c-6.418-3.703-12.498-5.256-20.104-6.418c-5.57-0.852-10.357-1.693-16.174-1.926
		c-6.238-0.25-12.244-1.285-18.244-2.656c-5.695-1.301-11.213-3.771-16.631-5.324c-6.688-1.916-13.644-3.307-20.383-5.229
		c-5.677-1.617-12.275-4.564-17.097-7.646c-4.096-2.616-5.654-4.995-7.133-9.264c-1.215-3.512-1.672-5.949-2.271-9.648
		c-0.645-3.977-4.125-3.246-8.032-2.938c-15.207,1.201-23.459,12.479-33.052,22.803L326.751,456.962z"/>
	<path fill="#FFFFFF" d="M300.414,265.235c1.664-0.563,2.832-2.115,4.438-2.893c2.688-1.302,5.998-1.477,8.795-2.314
		c3.863-1.156,7.592-1.542,11.48-2.615c3.075-0.848,5.791-1.807,8.303,0.252c3.813,3.128,5.082,7.663,7.014,11.957
		c0.578,1.29,1.277,3.8,2.865,3.895c1.512,0.089,3.52-3.132,4.375-4.245c1.928-2.507,4.051-4.859,6.82-6.511
		c4.334-2.584,8.936-4.817,13.434-6.952c3.258-1.547,5.875-3.874,9.344-5.075c4.082-1.416,5.906-0.208,6.105-5.777
		c0.059-1.621-0.443-3.637,0.615-4.821c1.248-1.397,4.209-1.309,5.866-1.546c5.736-0.822,11.894-0.281,17.709-0.281
		c0.832,0,3.949-0.451,4.558,0.159c0.67,0.675,0.317,5.167,0.106,6.23c-1.545,7.78-5.381,14.342-13.983,15.042
		c-3.726,0.302-5.681-0.064-8.748,2.475c-3.123,2.581-4.392,5.005-5.558,8.804c-2.188,7.111-11.942,22.79-21.477,19.809
		c-6.894-2.155-9.611-11.578-17.262-11.58c-7.5-0.001-14.89,0.518-22.326,0.549c-9.75,0.042-15.215-8.991-22.221-14.385
		c-0.634-0.486-1.273-1.006-1.904-1.551"/>
	<polygon fill="#E2C374" points="291.656,296.695 341.103,306.344 380.416,296.695 399.472,277.882 413.46,265.581 422.998,285.962 
		427.21,315.991 425.431,335.688 404.537,357.236 369.322,364.955 326.631,355.065 303.715,335.288 291.656,305.861 	"/>
	<g>
		<path fill="#FFFFFF" d="M334.324,87.957c-3.338,2.119-6.897,3.824-10.344,5.678c-3.455,1.859-7.275,2.989-10.836,4.67
			c-4.93,2.328-9.531,5.534-14.555,7.997c-4.174,2.043-7.665,4.781-11.731,6.913c-5.223,2.739-11.264,2.878-16.693,5.246
			c-1.818,0.792-3.389,2.309-5.121,3.057c-2.334,1.008-4.896,1.046-7.321,2.085c-5.858,2.509-10.142,6.762-16.033,9.287
			c-11.07,4.744-21.124,7.403-33.207,8.117c-13.071,0.771-28.888-2.766-40.327,4.564c-6.767,4.335-16.882,5.44-24.79,9.32
			c-9.291,4.557-19.188,9.341-28.971,13.511c-10.594,4.518-21.647,5.803-32.346,9.884c-6.884,2.626-13.294,6.302-20.078,9.194
			c-0.078-1.246-0.133-2.497-0.13-3.755c0.021-7.391,0.716-14.611,1.035-21.883c0.301-6.752-1.235-13.312-0.522-19.97
			c0.81-7.565,1.514-15.112,2.266-22.705c0.291-2.926,0.546-6.201,1.166-9.05c0.709-3.266,3.803-7.892,5.606-10.59
			c7.729-11.569,2.948-8.648,11.396-18.909l2.726-4.444c-1.896,2.839-3.907,5.279-6.201,8.065
			c-8.447,10.261-13.644,23.05-22.884,32.589c-2.259,2.332-4.474,4.242-5.184,7.507c-0.618,2.85-0.874,6.124-1.165,9.05
			c-0.752,7.592-1.456,15.139-2.266,22.705c-0.713,6.657,0.822,13.217,0.522,19.97c-0.221,5.013-0.608,10.005-0.843,15.042
			c-0.104,2.27-0.187,4.546-0.191,6.841c-0.009,3.006,0.258,5.97,0.598,8.92c3.434-0.705,7.063-0.828,10.397-2.054
			c1.804-0.662,3.564-1.408,5.312-2.188c6.186-2.766,12.115-6.064,18.439-8.478c10.697-4.081,21.751-5.367,32.346-9.883
			c9.78-4.171,19.68-8.955,28.971-13.512c7.908-3.879,18.023-4.984,24.79-9.32c11.439-7.331,27.256-3.793,40.327-4.565
			c12.083-0.713,22.137-3.373,33.207-8.117c5.893-2.525,10.175-6.778,16.033-9.287c2.427-1.039,4.987-1.077,7.321-2.085
			c1.732-0.748,3.303-2.264,5.121-3.056c5.431-2.367,11.472-2.507,16.693-5.246c4.066-2.131,7.558-4.869,11.731-6.913
			c5.022-2.463,9.625-5.669,14.555-7.997c3.561-1.681,7.381-2.81,10.836-4.669c3.445-1.854,7.006-3.559,10.344-5.679
			c4.826-3.063,7-7.348,10.679-11.268L334.324,87.957z"/>
		<path fill="#FFFFFF" d="M85.512,76.173c0.746-1.119,1.477-2.294,2.195-3.586L85.512,76.173z"/>
	</g>
	<path fill="#D08603" d="M355.068,114.429c-3.203-2.703-16.164,5.133-20.19,7.169c-7.746,3.917-14.341,8.132-21.349,13.019
		c-19.854,13.844-43.489,26.346-66.546,34.001c-10.547,3.503-21.646,5.043-32.309,7.44c-6.604,1.484-12.688,3.417-19.573,3.499
		c-7.703,0.093-17.267-1.459-24.779-0.031c-3.035,0.576-6.404,2.766-9.367,3.986c-5.358,2.209-11.063,3.778-16.577,5.774
		c-4.728,1.712-9.55,5.22-14.571,6.874c-5.771,1.9-11.465,3.915-17.313,5.6c-6.798,1.959-13.669,1.988-20.283,5.368
		c-3.33,1.702-6.502,4.183-9.876,5.781c-11.172,5.289-22.544,10.281-34.226,14.215c-5.758,1.938-11.718,3.572-17.448,5.322
		c-2.712,0.828-5.001,2.604-7.356,3.991c0.357-5.253,0.751-10.499,0.744-15.876c-0.007-6.443,0.558-13.042,1.65-19.357
		c0.877-5.061,2.933-9.563,3.619-14.693c1.229-9.175,0.311-18.945,0.416-28.27c0.055-4.885,1.042-8.371,2.722-12.876
		c1.61-4.32,1.386-9.393,3.609-13.446c3.507-6.39,12.133-13.258,13.324-20.442c-4.109,2.699-7.745,6.909-11.323,10.265
		c-4.004,3.755-10.67,8.516-13.338,13.391c-3.921,7.163-4.586,19.512-5.499,27.844c-0.942,8.595,1.842,17.216,0.468,25.692
		c-1.593,9.818-5.013,19.572-6.896,29.685c-1.626,8.735-5.732,17.23-7.456,25.901c-1.18,5.936-2.69,10.047,4.646,10.077
		c5.205,0.021,7.68-3.052,12.308-4.81h0.438c0-0.565,0.017-1.125,0.024-1.688c3.294-0.899,6.554-1.834,9.957-2.566
		c10.53-2.261,20.901-7.761,30.99-11.575c10.931-4.131,21.701-9.361,32.489-12.945c9.373-3.116,17.753-6.377,27.155-9.632
		c11.455-3.967,22.054-10.032,33.732-14.199c12.704-4.532,26.955-5.969,40.162-9.464c6.771-1.792,13.321-2.408,20.241-3.083
		c8.594-0.837,16.734-3.832,25.252-4.82c18.832-2.183,37.719-14.189,52.958-25.351c13.445-9.848,26.146-18.206,42.736-22.398
		C343.195,130.596,363.931,121.908,355.068,114.429z"/>
	<path fill="#D08603" d="M379.064,439.974c3.283,2.111,3.99,6.314,6.678,9.088c2.08,2.15,7.15,5.074,9.623,6.795
		c5.353,3.721,11.697,4.537,18.584,5.668c18.256,3.004,38.033,7,56.343,11.318c8.387,1.977,18.489,3.555,24.985,9.049
		c7.449,6.299,6.863,17.529,9.533,26.35c-8.951-5.377-16.01-8.697-27.17-8.697c-6.777,0-12.478,0.695-18.295-2.26
		c-4.252-2.16-7.562-5.561-12.359-7.191c-9.66-3.289-22.26-0.791-33.057-0.816c-13.338-0.035-23.283,1.715-32.693-7.611
		c-0.588-9.121-1.315-33.029-14.361-28.867c-6.854,2.189-12.329,10.066-18.659,13.865c-3.302,1.982-6.871,3.432-10.045,5.799
		c-1.593,1.188-6.625,7.738-8.591,7.828c-4.743,0.215-4.086-11.65-3.924-15.631c0.33-8.104,0.603-15.377,7.396-19.926
		c12.504-8.369,27.526-10.51,37.266-22.541c1.9-2.352,1.568-4.16,4.518-4.725c0.375,3.835,1.781,6.889,2.175,10.867
		c0.414,4.188-1.156,8.938,1.369,12.326"/>
	<path fill="#D08603" d="M417.408,643.333c11.404,8.414,33.715-2.324,46.562-3.574c13.91-1.355,30.129,4.525,43.69,9.014
		c9.957,3.295,25.648,1.125,35.152-2.699c6.352-2.557,7.99-6.863,14.357-4.504c4.088,1.516,13.372,6.805,12.924,12.035
		c-0.527,6.098-13.017,9.283-18.297,9.734c-10.88,0.928-22.24-0.752-33.017-2.236c-14.664-2.02-29.121,1.592-43.754,2.121
		c-21.125,0.764-42.332-8.551-59.674-19.207"/>
	<path fill="#D08603" d="M305.115,270.167c7.988,5.054,20.217,6.5,29.865,6.847c6.092,0.22,9.676-1.839,13.441,1.904
		c2.93,2.912,3.659,7.42,7.395,10.181c1.211-6.218,9.184-4.982,12.975-8.815c3.507-3.545,5.746-10.688,8.218-14.926
		c2.028-3.479,2.108-14.328,5.651-16.43c4-2.374,6.095,3.884,7.824,7.815c8.441-4.266,18.805-9.795,24.045-17.9
		c0.703,5.302-3.76,19.348-7.168,23.638c-2.877,3.625-7.178,2.022-9.537,4.313c-2.047,1.989-2.051,8.558-2.862,11.042
		c-1.734,5.306-4.691,17.368-10.384,19.921c-5.416,2.429-18.69-0.473-24.68-0.065c1.822,1.698,1.467,3.071,1.945,5.239
		c-6.888,0.727-12.254,3.629-18.918,3.374c-5.941-0.228-12.105-3.504-17.787-6.182c-6.354-2.995-13.185-2.891-15.234-8.865
		c-1.395-4.069-6.791-16.559-3.42-19.721"/>
	<path fill="#FFFFFF" d="M254.446,245.517c11.146,1.357,22.6-4.534,33.379-5.478c11.718-1.025,22.276-5.639,33.604-6.741
		c3.02,12.713,12.113,13.579,22.047,8.131c7.436-4.078,20.438-12.312,25.521-19.173c3.07-4.146,3.078-6.887,7.978-9.642
		c1.924-1.082,5.389-1.229,6.896-3.354c1.582-2.232,0.392-5.811,1.818-8.266c3.682-6.333,6.115-2.572,10.49,0.551
		c3.776,2.696,4.371,4.61,10.539,2.901c1.963-0.543,6.086-2.697,7.852-4.08c4.68,11.572,6.353,19.855,2.049,31.387
		c-6.571,0.52-11.705-0.922-18.381,0.068c-2.619,0.389-5.506,1.044-8.254,1.183c-2.443,0.123-5.063-0.78-8.113-0.391
		c-0.16,5.364,3.101,12.284-0.055,15.503c-1.328,1.356-8,2.657-10.32,4.23c-3.364,2.282-6.512,5.183-9.895,7.55
		c-3.453,2.416-12.238,10.882-16.377,10.818c-4.586-0.07-5.433-7.496-8.629-11.487c-4.105-5.119-5.972-5.166-13.523-4.81
		c-8.254,0.39-13.977,5.17-21.949,6.214c-7.083,0.928-17.794-0.921-24.23-3.301c-5.158-1.908-8.802-5.944-13.51-8.276
		c-2.095-1.037-4.749-1.324-6.882-2.168"/>
	<path fill="#FFFFFF" d="M489.302,442.712c-4.361-1.439-9.769-1.35-14.379-1.369c-9.328-0.037-16.019-1.855-25.404-3.322
		c-14.603-2.279-29.381-1.693-43.563-5.465c-8.702-2.313-17.67-6.248-24.653-11.869c-8.291-6.673-10.738-16.296-13.299-26.488
		c-6.98-0.707-15.107,7.777-21.808,9.787c-4.412,1.324-10.729,3.547-15.629,3.055c-1.529-6.971-5.24-13.428-7.393-20.369
		c15.78,1.246,26.813-17.837,41.438-19.186c1.224,6.586-2.342,7.282,1.476,12.75c2.108,3.021,5.231,6.342,7.993,8.573
		c7.912,6.397,18.697,11.315,27.607,15.575c8.838,4.225,16.664,4.008,26.023,4.779c5.538,0.457,10.051,2.061,15.747,2.053
		c8.25-0.012,20.519-0.049,25.232-8.096c0.039,0.356-1.354-0.732-1.25-0.636c7.695-3.735,17.955,30.987,19.119,36.802"/>
	<path fill="#FFFFFF" d="M505.734,564.591c-3.529,1.65-7.211-0.354-10.918-0.719c-5.967-0.588-12.01,0.463-17.822,0.734
		c-13.758,0.643-24.674-0.189-37.618-4.143c-6.484-1.979-18.888-5.156-22.152-12.119c-1.682-3.588-0.303-9.932-0.346-13.895
		c-0.05-4.332-1.611-7.404-1.779-11.406c-13.58,7.715-27.367,17.703-40.842,24.982c-10.269,5.547-23.72,15.771-36.17,13.725
		c-1.027-5.902,1.403-12.287,1.301-18.385c-0.045-2.576-1.363-5.414-0.736-8.215c1.213-5.42,1.113-3.721,5.492-5.48
		c11.791-4.742,26.25-5.576,38.213-10.803c7.609-3.324,14.531-8.605,21.359-13.186c4.731-3.172,13.106-12.678,16.463-6.807
		c2.723,4.758-2.049,13.506-0.717,18.471c1.518,5.648,11.094,11.688,17.043,13.611c14.721,4.766,32.182,6.246,47.559,6.926
		c8.506,0.379,16.559-4.688,24.359-3.332c0.26,10.139-0.968,20.242-1.316,30.037"/>
	<path fill="#FFFFFF" d="M473.554,636.488c10.123,3.178,20.873-5.645,30.106-9.279c7.521-2.961,25.154-6.854,25.949-16.637
		c-11.215-0.574-18.537-4.121-29.477-8.066c-4.836-1.744-10.904-3.871-16.006-3.676c-5.293,0.201-7.527,3.139-12.115,5.512
		c-7.226,3.736-15.951,4.732-22.922,8.336c-7.029,3.637-12.875,6.934-21.363,8.744c-11.846,2.525-24.592,4.533-36.758,5.48
		c-4.955,0.385-23.138,3.564-26.711-0.291c-1.24-1.338-0.611-9.309-0.295-11.352c1.174-7.584,5.207-16.135,13.043-17.648
		c6.922-1.342,14.182,1.6,21.069,1.896c20.281,0.889,39.979-1.121,60.232-1.299c0.545,4.441-1.926,9.869-2.539,14.355
		c-1.219,8.896-1.086,8.695,3.424,12.945c3.992,3.766,10.976,9.064,15.729,11.662"/>
	<path fill="#D08603" d="M416.722,573.492c4.475,2.807,7.555,6.154,11.074,9.436c7.952,7.41,16.452,6.504,27.229,7.002
		c9.279,0.428,18.26,1.885,27.699,1.23c9.485-0.658,23.949-6.211,31.057,0.1c5.998,5.328,7.228,9.654,1.709,15.236
		c-7.022,7.105-8.346,4.945-16.922,5.188c-4.406,0.125-7.86,2.65-12.106,3.496c-4.972,0.99-10.209,0.307-15.48,0.748
		c-10.959,0.922-25.08,5.148-35.596-0.082c-1.625-0.807-4.252-5.203-5.074-6.502c-4.795-0.16-7.889-4.563-12.727-5.186
		c-0.255-4.537-2.996-12.658-8.103-12.775c-5.139-0.117-15.938,9.936-20.166,13.074c-5.037,3.736-9.844,10.889-15.729,13.023
		c-6.177,2.244-11.455-1.727-16.431-5.129c-4.5-3.076-10.545-6.617-10.272-12.809c0.266-6.088,9.971-8.963,15.748-11.672
		c14.143-6.633,30.795-13.258,43.121-23.438c3.948-3.262,8.172-7.406,10.336-11.943c-0.158,6.557-0.089,12.563-1.558,18.846
		c0.146,0.797,0.648,1.059,1.508,0.787"/>
	<path fill="#19B017" d="M62.325,99.72c-3.896,1.558-5.368,5.875-6.559,9.496c-1.13,3.435-2.964,5.402-5.132,8.179
		c-2.146,2.75-3.66,5.075-4.893,8.115c-1.348,3.33-2.143,7.141-3.581,10.417c-6.069,13.813-3.735,30.434-4.513,45.942
		c-0.314,6.273,0.015,12.893-1.484,18.88c-1.641,6.559-2.676,12.949-2.133,20.145c5.465-3.432,12.059-6.42,18.346-8.068
		c3.359-0.879,6.75-1.138,10.011-2.237c3.342-1.129,6.62-2.556,10.234-3.554c7.59-2.096,15.232-4.7,22.205-8.278
		c7.028-3.607,14.324-5.521,21.729-8.126c8.402-2.957,17.191-4.646,25.446-8.401c7.411-3.371,15.19-7.218,23.202-9.722
		c14.676-4.588,31.427,1.106,46.342-2.426c7.728-1.829,14.104-5.715,21.07-7.283c7.667-1.727,15.74-3.037,22.68-6.531
		c6.562-3.304,12.309-7.055,19.896-8.73c6.57-1.45,12.349-4.203,18.581-7.206c5.012-2.417,9.139-6.024,13.829-8.639
		c4.738-2.64,9.959-4.933,14.541-7.553c4.752-2.717,8.693-5.917,13.479-8.655c4.9-2.803,12.103-7.26,15.625-12.094
		c-1.516-1.685-4.604-2.073-6.657-3.327c-1.802-1.099-3.269-3.206-5.57-2.843c-2.982,0.47-6.83,5.75-9.24,7.375
		c-5.494,3.701-12.555,6.714-18.576,9.585c-6.758,3.223-12.366,7.159-19.131,9.851c-7.515,2.992-14.444,7.14-21.365,10.215
		c-7.894,3.505-15.668,6.713-23.591,10.049c-4.2,1.767-8.273,3.242-12.001,5.452c-2.76,1.637-6.508,4.305-9.58,5.166
		c-6.113,1.711-14.193,1.935-20.631,2.284c-6.479,0.352-13.301-0.019-19.609,0.286c-7.661,0.37-13.498,0.813-19.801,4.503
		c-5.649,3.308-13.863,4.338-20.645,6.355c-8.357,2.485-14.92,7.495-23.127,10.12c-7.851,2.51-15.627,3.566-23.743,5.16
		c-8.119,1.595-15.608,5.403-23.04,9.128c-3.455,1.729-7.342,2.627-11.243,3.15c-3.653,0.489-8.31,2.874-11.999,2.052
		c-0.354-6.784-0.996-13.918-0.344-20.779c0.767-8.054,3.233-15.331,3.233-23.594c0-7.882-0.061-15.852,0.736-23.473
		c0.36-3.452,0.714-7.451,2.283-10.783c1.356-2.881,2.084-6.022,3.263-8.636c0.531-1.178,2.195-3.784,3.296-4.701l20.576-29.618
		L62.325,99.72z"/>
	<path fill="#19B017" d="M288.091,259.283c0.864-2.17,7.067-2.489,9.25-2.967c3.146-0.69,6.07-1.746,9.3-2.588
		c2.656-0.693,5.115-1.665,7.873-2.132c3.061-0.519,7.541-1.75,10.627-1.379c3.363,0.405,8.553,8.421,10.215,11.526
		c1.543,2.888,2.437,4.278,5.771,2.76c2.729-1.244,5.403-3.021,8.241-4.379c3.357-1.606,5.437-4.07,8.297-6.273
		c2.931-2.258,6.757-3.868,10.117-5.631c2.863-1.501,5.791-3.098,8.779-4.53c2.529-1.211,7.371-3.055,9.088-5.149
		c1.291-1.575,0.598-2.445,0.803-4.54c0.203-2.064,0.634-2.399,1.855-3.985c2.33-3.03,2.904-3.427,6.938-3.427
		c6.068,0,12.14,0.029,18.207,0c4.158-0.02,3.972,1.567,2.604,5.274c-1.016,2.753-1.525,5.536-2.402,8.188
		c-0.938,2.836-3.58,1.924-6.582,1.924c-2.938,0-5.879,0-8.817,0c-2.716,0-5.445-0.176-7.904,0.604
		c-1.504,0.476-6.08,1.904-6.984,3.022c-1.994,2.464,2.607,6.528-1.254,8.206c-2.521,1.095-5.149-0.566-7.768,1.011
		c-4.562,2.744-8.031,9.268-11.642,13.264c-2.455,2.717-5.196,4.55-7.594,7.356c-1.859,2.179-3.58,4.73-5.699,6.635
		c-0.842-4.626-5.362-8.951-8.282-12.403c-1.888-2.23-4.021-2.862-5.845-4.822c-2.483-2.67-2.645-2.817-6.68-2.817
		c-6.195,0-12.932,1.846-18.568,4.195c-2.188,0.913-5.344,2.794-7.643,2.961c-3.723,0.273-6.492-4.163-8.866-6.544
		c-1.398-1.403-3.479-3.242-5.16-3.635"/>
	<path fill="#19B017" d="M327.392,401.433c6.082-3.314,14.492-2.922,20.504-7.121c4.566-3.189,11.16-8.123,17.01-7.594
		c0.187,3.752,0.398,5.961,2.037,9.211c0.779,1.547,2.416,3.738,2.832,5.256c0.549,1.993-0.283,3.009,1.01,4.518
		c0.689,0.808,2.841,1.182,3.777,1.701c2.055,1.148,3.732,2.465,5.887,3.666c2.933,1.635,6.029,3.064,9.195,4.574
		c7.535,3.596,15.344,7.365,23.022,10.096c11.101,3.943,22.47,3.479,34.078,3.938c6.429,0.256,12.984,1.875,19.625,2.238
		c2.304,0.127,4.408,0.502,6.738,0.031c1.873-0.377,4.998-2.035,7.4-0.992c3.502,1.52,4.776,7.943,6.332,11.266
		c1.584,3.385,1.832,6.969,3.328,10.514c1.262,0.447,2.061,2.99-0.013,3.311c0.72,1.162,1.519,2.299,1.199,3.773
		c-2.315,0.525-6.463-3.021-8.865-3.916c-4.243-1.58-8.762-2.389-12.914-3.828c-7.364-2.559-14.694-2.412-22.168-4.189
		c-13.686-3.252-27.852-4.387-41.7-7.275c-5.615-1.172-11.425-3.609-16.869-6.1c-5.246-2.398-9.722-6.736-14.853-9.701
		c-0.276-4.25-1.28-6.941-2.686-10.865c-1.097-3.064-0.875-6.58-1.982-9.578c-15.899,0.715-26.422,17.93-40.612,22.73
		c-0.775-6.553,4.756-20.637-1.314-25.018"/>
	<path fill="#19B017" d="M417.21,537.535c11.076,11.32,26.063,13.201,41.437,15.531c14.295,2.166,29.654-0.686,44.1,0.055
		c1.076,6.77,1.668,12.182,4.343,18.412c-5.164,1.611-9.509-1.133-14.461-2.127c-5.158-1.033-10.06-1.668-15.438-1.668
		c-4.926,0-8.436,0.787-12.899,1.652c-4.791,0.934-10.148,0.443-15.113,0.443c-10.541,0-19.656,0.484-27.902-6.324
		c-3.521-2.906-6.43-4.609-6.998-9.104c-0.469-3.717-0.199-8.104,0-11.838c0.154-2.898,1.74-5.352,1.639-7.906
		c-6.225,0.281-15.483,7.055-21.137,10.098c-7.248,3.9-12.705,8.967-19.42,13.57c-6.078,4.164-12.059,9.307-18.645,13.484
		c-6.365,4.037-11.509,4.908-19.047,4.699c-0.908-6.977-1.847-20.43,1.93-26.396c4.424-6.984,15.395-8.158,22.24-10.93
		c4.088-1.656,8.719-3.129,13.145-3.748c4.715-0.658,9.344-0.211,13.635-2.193c9.773-4.516,21.689-12.146,29.373-19.914
		c0.455,8.104,0.324,16.598,0.482,24.621"/>
</g>
<g id="Layer_3">
	<path d="M674.832,625.302c-10.014,1.201-19.62,5.408-29.581,7.482c-25.591,5.326-51.423,9.867-77.406,3.303
		c-13.961-3.525-15.263-8.801-6.734-19.973c7.791-10.203,5.623-16.709-7.012-19.412c-5.668-1.215-12.34,0.432-17.293-1.904
		c-8.933-4.211-17.918-9.439-24.787-16.326c-2.717-2.727-0.063-11.051,0.537-16.787c1.553-14.768,9.186-28.404,0.772-44.627
		c-6.905-13.311-7.512-29.766-11.912-44.525c-4.434-14.881-10.12-29.383-15.221-44.066c-10.088-29.053-18.416-58.7-43.129-80.362
		c-8.168-7.155-18.309-16.963-14.055-30.211c6.983-21.758-2.89-40.271-8.892-59.747c-1.795-5.822-4.34-12.888-2.604-18.066
		c7.715-23.01,2.938-43.507-4.207-66.312c-10.103-32.249-27.828-57.874-53.219-77.521c-40.339-31.217-79.937-64.152-130.842-78.469
		c-34.323-9.66-68.379-19.759-104.536-17.386c-5.553,0.366-11.715,2.081-16.271,5.145C88.602,18.858,85.175,32.97,93.757,63.064
		c1.205-5.979,1.125-11.784,3.535-16.244c5.28-9.763-6.354-25.98,9.943-30.391c11.506-3.109,24.127-2.104,36.256-2.902
		c0.959-0.063,1.961,0.055,2.904,0.269c23.662,5.314,47.381,10.391,70.963,16.036c52.195,12.494,92.043,46.292,133.034,77.961
		c6.988,5.398,8.369,9.757-2.881,13.731c-9.398,3.315-17.26,10.972-25.806,16.709c28.253-10.235,53.912-4.546,68.599,15.246
		c1.449,1.952,4.104,4.232,3.852,6.024c-2.621,18.329,12.943,28.748,18.66,43.423c6.851,17.588-3,31.917-6.938,47.425
		c-0.865,3.409-3.478,6.371-6.229,11.191c-5.746-8.341-10.521-15.27-13.949-20.246c4.48-9.741,8.101-17.61,11.72-25.478
		c-19.771,4.502-26.275,26.28-16.851,42.756c3.111,5.434,7.389,10.512,9.078,16.346c1.16,4.006,0.234,10.524-2.463,13.175
		c-2.383,2.348-8.892,2.163-12.898,0.911c-19.502-6.086-28.233-23.504-36.016-39.633c-6.959-14.429-16.066-25.308-29.713-32.191
		c-15.966-8.048-32.65-14.653-48.909-22.131c-3.92-1.803-7.402-4.57-9.114-5.651c23.286-16.968,45.654-33.269,68.018-49.572
		c-3.5,1.595-7.431,2.616-10.441,4.869c-33.4,24.96-70.814,37.56-112.545,38.097c-8.154,0.104-16.771,1.567-24.318,4.56
		c-38.538,15.284-76.754,31.38-115.17,46.971c-14.45,5.864-27.717,16.413-46.748,12.603c1.994-14.748,9.203-41.242,11.504-56.263
		c0.271,0.01,0.544,0.021,0.816,0.031c1.598-13.333,4.028-26.632,4.58-40.007c0.316-7.688,0.885-12.123,2.887-14.087
		c3.938-7.574,12.406-12.336,18.464-18.407c9.729-9.753,18.617-20.303,27.466-30.845c3.644-4.339,7.574-9.246,12.185-13.005
		c-0.17,0-0.338,0.002-0.508,0.002c-0.14,0.203-0.517,0.681-0.962,1.087C66.961,92.709,47.788,109.6,29.549,127.45
		c-5.485,5.362-10.957,13.035-11.918,20.246c-1.871,14.051-0.547,28.524-0.547,42.821c0.148,0.006,0.297,0.012,0.446,0.018
		c-4.28,19.779-13.561,51.228-17.489,70.189c1.355,1.34,2.713,2.675,4.07,4.013c18.106-7.178,36.399-13.923,54.272-21.642
		c24.404-10.546,48.229-22.489,72.89-32.365c6.607-2.647,16.235-2.098,22.965,0.666c26.727,10.981,52.669,23.856,79.271,35.158
		c17.858,7.591,36.658,12.999,54.394,20.839c7.719,3.41,16.519,9.771,3.195,18.812c-2.597,1.76-4.938,6.847-4.363,9.814
		c2.282,11.78,5.936,23.279,8.768,34.958c4.597,18.925,28.076,28.628,25.093,51.312c-0.021,0.144,2.139,1.004,3.518,1.332
		c1.57,13.334,3.586,26.297,5.187,39.596c2.51-0.514,5.018-1.029,7.526-1.543c-4.18-12.709-8.356-25.414-12.539-38.121
		c-0.424-5.957-0.848-11.916-1.418-19.924c11.418,3.07,20.535,4.804,29.021,8.143c3.719,1.467,7.584,5.729,8.897,9.563
		c5.16,15.092,10.234,30.336,13.394,45.918c1.156,5.705-1.119,14.867-5.271,18.363c-11.381,9.578-24.588,16.982-37.948,25.832
		c-1.568-3.93-2.832-7.09-4.525-11.324c-13.283,29.957-14.98,56.736,13.668,80.711c1.066-5.52,2.465-9.83,2.635-14.197
		c0.416-10.711,0.146-21.445,0.379-32.166c0.476-21.766,9.242-31.311,32.687-34.908c0.332,6.834,1.947,13.818,0.715,20.262
		c-2.627,13.729,4,20.639,15.453,25.23c2.688,1.08,5.106,2.809,7.746,4.037c10.674,4.979,16.678,12.26,15.414,25.072
		c-1.336,13.557-0.519,27.34-2.109,40.85c-0.566,4.801-4.641,10.01-8.525,13.438c-8.756,7.73-18.053,14.99-27.846,21.342
		c-3.684,2.391-11,4.006-13.77,1.992c-5.951-4.324-11.869-10.525-14.453-17.244c-4.545-11.805-6.576-24.58-10.012-38.342
		c-0.953,4.629-2.232,8.564-2.519,12.576c-2.088,29.316,19.973,64.936,47.617,75.117c18.147,6.688,37.166,11,55.391,17.498
		c14.33,5.109,28.652,10.844,41.916,18.209c32.666,18.146,64.72,37.391,100.072,57.977c7.801-33.588-13.947-49.371-31.266-70.779
		c33.825-4.674,64.395-8.895,93.883-12.967c-2.127-0.83-5.758-2.25-10.275-4.014c7.729-3.139,13.799-7.166,20.205-7.787
		c6.754-0.65,14.322,4.01,20.605,2.498c5.373-1.295,9.436-8.041,14.075-12.377C683.672,629.707,678.927,624.812,674.832,625.302z
		 M338.951,519.158c-15.746-15.801-15.713-21.291,1.729-34.4C340.037,497.513,339.549,507.226,338.951,519.158z M513.599,599.49
		c0.434,0.43-4.338,9.016-7.488,9.623c-8.977,1.73-18.369,1.307-27.602,1.729c-6.813-0.014-13.621,0.016-20.433-0.02
		c-24.946-0.123-39.143-10.699-40.782-39.059c-1.361-23.51,2.737-47.424,5.698-70.994c0.406-3.24,9.263-8.779,12.414-7.75
		c17.74,5.773,36.01,11.443,51.818,20.941c6.891,4.145,10.736,17.047,11.797,26.439C501.333,560.814,496.511,582.58,513.599,599.49z
		 M450.412,378.626c1.127,1.436-3.041,7.021-4.756,10.687c-7.903-7.226-16.271-14.011-23.553-21.815
		c-5.096-5.459-10.857-12.027-0.73-22.231C431.761,356.934,441.594,367.383,450.412,378.626z M272.56,246.928
		c-35.207-12.862-72.283-21.196-107.966-45.382c43.071-18.267,76.923,0.127,112.87,12.986c41.12,14.711,55.508,50.489,77.313,87.21
		c-13.277-2.307-23.971-4.167-34.668-6.024c0.131-1.884,0.26-3.765,0.394-5.651c5.194-0.495,10.393-0.986,17.309-1.65
		C319.683,267.14,296.849,255.797,272.56,246.928z M300.894,319.876c-2.031-5.99-2.965-12.352-4.037-16.96
		c17.822,3.849,33.865,9.206,50.176,10.202c12.088,0.736,25.709-1.883,36.416-7.363c8.158-4.179,12.789-15.216,19.045-23.156
		c2.757-3.501,5.646-6.894,8.478-10.332c2.215,3.412,5.328,6.554,6.449,10.298c2.219,7.399,3.672,15.083,4.848,22.738
		c4.338,28.26-2.318,40.605-28.469,51.004C368.542,366.351,312.636,354.505,300.894,319.876z M397.715,477.912
		c-14.793,1.188-17.732-5.199-18.349-16.963c-0.735-14.057-0.707-28.271-3.004-42.09c-1.869-11.24-6.779-21.963-10.145-32.98
		c-1.174-3.848-1.769-7.871-2.256-10.104c13.411-5.116,24.799-10.299,36.713-13.523c3.713-1,10.801,2.072,12.949,5.439
		c4.594,7.213,5.475,17.041,10.696,23.531c4.877,6.059,12.957,10.877,20.515,12.844c3.448,0.899,9.028-6.354,15.815-11.592
		c17.457,32.69,28.853,69.302,40.922,108.612c-22.076-7.596-38.912-14.936-56.504-18.979
		C429.71,478.576,413.333,476.658,397.715,477.912z M398.201,621.75c-4.125-4.328-13.746-10.818-3.446-19.074
		c9.106-7.305,16.049-6.311,24.873,2.535c12.217,12.244,26.516,22.553,40.602,32.748c8.5,6.15,18.287,10.521,27.496,15.691
		C453.039,655.9,422.248,647.003,398.201,621.75z M565.816,711.992c-19.701-9.613-38.408-18.742-57.117-27.871
		c0.728-1.408,1.449-2.814,2.174-4.223C536.056,679.08,568.822,690.496,565.816,711.992z M465.445,623.574
		c43.515-22.879,72.869,3.25,100.849,30.688C547.32,662.673,482.853,643.4,465.445,623.574z"/>
</g>
</svg>
