<?xml version="1.0" encoding="utf-8"?>
<!-- Generator: Adobe Illustrator 16.0.0, SVG Export Plug-In . SVG Version: 6.00 Build 0)  -->
<!DOCTYPE svg PUBLIC "-//W3C//DTD SVG 1.1//EN" "http://www.w3.org/Graphics/SVG/1.1/DTD/svg11.dtd">
<svg version="1.1" id="Layer_1" xmlns="http://www.w3.org/2000/svg" xmlns:xlink="http://www.w3.org/1999/xlink" x="0px" y="0px"
	 width="688.082px" height="737.535px" viewBox="0 0 688.082 737.535" enable-background="new 0 0 688.082 737.535"
	 xml:space="preserve">
<g id="Layer_4">
	<polygon fill="#05C301" points="131.73,6.857 209.439,19.291 289.22,53.483 328.594,80.423 376.256,119.795 403.195,166.421 
		412.21,187.207 417.511,209.66 414.083,240.846 410.651,256.751 417.511,272.654 423.437,287.312 425.308,303.215 425.308,312.259 
		425.308,335.648 439.341,353.111 465.538,387.916 499.527,480.974 510.756,532.115 504.83,576.71 528.53,596.669 551.608,628.791 
		567.513,644.07 632.065,644.07 681.65,632.533 672.564,644.712 643.386,653.792 563.146,661.535 539.445,667.771 552.231,681.492 
		574.373,707.062 570.631,726.708 470.527,667.769 409.404,646.562 348.592,605.708 338.292,556.16 340.552,538.054 328.01,514.027 
		323.021,488.455 326.309,460.083 329.174,423.177 324.162,383.512 316.47,354.669 293.082,309.762 296.201,292.298 
		308.675,269.533 264.705,249.886 152.437,204.045 131.73,206.538 11.479,257.059 5.554,248.951 20.525,184.397 23.332,140.114 
		39.858,122.026 86.597,74.307 93.634,63.024 92.25,38.138 96.615,19.739 114.392,6.857 	"/>
</g>
<g id="Layer_1_1_">
	<polygon fill="#E2C374" points="291.535,296.654 340.98,306.303 380.292,296.654 399.349,277.841 413.338,265.542 422.876,285.922 
		427.088,315.951 425.308,335.648 404.414,357.196 369.199,364.913 326.508,355.024 303.593,335.247 291.535,305.82 	"/>
	<path d="M22.611,249.481c0-9.792,1.323-19.154,1.313-28.962c-0.008-6.443,0.558-13.042,1.65-19.357
		c0.877-5.062,2.934-9.564,3.619-14.693c1.229-9.175,0.311-18.946,0.416-28.269c0.055-4.885,1.042-8.372,2.722-12.876
		c1.61-4.32,1.386-9.394,3.61-13.446c3.506-6.39,12.131-13.259,13.323-20.442c-4.109,2.699-7.745,6.909-11.324,10.265
		c-4.002,3.755-10.669,8.515-13.337,13.39c-3.92,7.163-4.586,19.512-5.498,27.845c-0.943,8.594,1.841,17.216,0.467,25.692
		c-1.593,9.82-5.013,19.573-6.895,29.685c-1.628,8.735-5.734,17.23-7.457,25.901c-1.181,5.936-2.691,10.047,4.646,10.077
		c5.205,0.021,7.68-3.053,12.308-4.809"/>
	<path d="M19.115,238.112c4.016-0.824,7.205-4.421,11.421-5.708c5.73-1.748,11.69-3.383,17.448-5.322
		c11.682-3.932,23.055-8.924,34.225-14.213c3.376-1.598,6.547-4.079,9.877-5.781c6.614-3.38,13.485-3.408,20.283-5.367
		c5.851-1.685,11.543-3.7,17.313-5.601c5.022-1.653,9.845-5.162,14.571-6.874c5.516-1.996,11.219-3.566,16.577-5.775
		c2.963-1.221,6.332-3.409,9.367-3.987c7.515-1.427,17.076,0.126,24.779,0.034c6.884-0.084,12.969-2.016,19.574-3.5
		c10.661-2.397,21.761-3.939,32.307-7.439c23.06-7.657,46.693-20.158,66.547-34.001c7.008-4.888,13.603-9.104,21.35-13.02
		c4.026-2.036,16.986-9.872,20.191-7.169c8.862,7.479-11.875,16.167-16.635,17.37c-16.592,4.191-29.291,12.549-42.736,22.397
		c-15.239,11.162-34.125,23.168-52.955,25.353c-8.52,0.987-16.66,3.982-25.254,4.82c-6.92,0.674-13.472,1.292-20.24,3.083
		c-13.208,3.496-27.459,4.933-40.164,9.465c-11.679,4.167-22.276,10.232-33.731,14.198c-9.402,3.255-17.781,6.515-27.156,9.631
		c-10.786,3.584-21.559,8.814-32.489,12.945c-10.089,3.814-20.46,9.314-30.988,11.576c-5.615,1.205-10.826,2.985-16.466,4.201
		c-0.852-2.814-2.104-6.542-0.876-9.501c3.452,0.75,3.469-1.911,5.608-3.563"/>
	<path d="M378.941,439.935c3.283,2.111,3.991,6.313,6.678,9.086c2.08,2.15,7.15,5.076,9.623,6.795
		c5.353,3.721,11.697,4.539,18.584,5.67c18.257,3.002,38.035,6.998,56.341,11.318c8.389,1.977,18.491,3.555,24.987,9.047
		c7.449,6.301,6.864,17.529,9.533,26.35c-8.951-5.377-16.01-8.695-27.17-8.695c-6.777,0-12.477,0.693-18.294-2.262
		c-4.253-2.16-7.563-5.559-12.36-7.191c-9.66-3.289-22.26-0.791-33.057-0.816c-13.338-0.035-23.282,1.715-32.691-7.611
		c-0.59-9.119-1.317-33.029-14.362-28.865c-6.854,2.188-12.329,10.064-18.66,13.865c-3.301,1.98-6.87,3.43-10.045,5.797
		c-1.593,1.188-6.626,7.738-8.591,7.828c-4.743,0.215-4.086-11.65-3.923-15.631c0.329-8.104,0.602-15.377,7.396-19.926
		c12.505-8.369,27.526-10.51,37.266-22.541c1.9-2.352,1.568-4.16,4.519-4.723c0.375,3.835,1.78,6.887,2.174,10.865
		c0.414,4.189-1.156,8.939,1.369,12.326"/>
	<path d="M417.285,643.292c11.404,8.414,33.716-2.322,46.562-3.574c13.91-1.355,30.129,4.527,43.689,9.016
		c9.958,3.295,25.649,1.123,35.153-2.701c6.353-2.557,7.991-6.859,14.359-4.504c4.086,1.516,13.373,6.805,12.922,12.035
		c-0.527,6.098-13.018,9.285-18.297,9.734c-10.879,0.928-22.24-0.752-33.017-2.236c-14.664-2.02-29.121,1.594-43.754,2.123
		c-21.125,0.764-42.332-8.553-59.674-19.207"/>
	<path d="M304.992,270.126c7.988,5.054,20.218,6.5,29.865,6.848c6.092,0.22,9.676-1.839,13.441,1.904
		c2.93,2.911,3.659,7.419,7.396,10.181c1.21-6.22,9.185-4.984,12.976-8.816c3.505-3.545,5.743-10.688,8.216-14.926
		c2.029-3.478,2.109-14.327,5.652-16.43c3.999-2.373,6.094,3.885,7.824,7.815c8.442-4.266,18.805-9.795,24.046-17.9
		c0.702,5.303-3.762,19.348-7.17,23.638c-2.877,3.624-7.178,2.022-9.537,4.313c-2.047,1.988-2.052,8.557-2.862,11.042
		c-1.734,5.306-4.691,17.367-10.385,19.922c-5.414,2.428-18.689-0.474-24.679-0.066c1.824,1.699,1.467,3.071,1.945,5.238
		c-6.887,0.729-12.253,3.629-18.918,3.375c-5.941-0.228-12.105-3.505-17.787-6.183c-6.354-2.995-13.185-2.892-15.234-8.865
		c-1.395-4.069-6.791-16.558-3.42-19.72"/>
	<path d="M416.599,573.453c4.476,2.805,7.555,6.154,11.074,9.434c7.952,7.41,16.452,6.504,27.229,7.002
		c9.28,0.428,18.26,1.885,27.698,1.23c9.487-0.656,23.95-6.211,31.058,0.102c5.998,5.328,7.228,9.652,1.709,15.234
		c-7.021,7.107-8.346,4.945-16.923,5.188c-4.405,0.127-7.859,2.652-12.105,3.498c-4.971,0.99-10.209,0.305-15.479,0.75
		c-10.959,0.92-25.079,5.146-35.598-0.084c-1.623-0.807-4.25-5.203-5.072-6.5c-4.795-0.16-7.889-4.564-12.727-5.188
		c-0.253-4.535-2.997-12.658-8.104-12.775c-5.138-0.115-15.938,9.936-20.166,13.072c-5.036,3.74-9.844,10.891-15.729,13.027
		c-6.178,2.24-11.455-1.73-16.432-5.131c-4.5-3.074-10.544-6.617-10.272-12.809c0.268-6.09,9.971-8.965,15.75-11.674
		c14.141-6.631,30.793-13.258,43.119-23.434c3.949-3.262,8.174-7.41,10.337-11.945c-0.158,6.555-0.089,12.561-1.559,18.844
		c0.148,0.799,0.65,1.061,1.509,0.785"/>
	<path d="M32.651,226.879c7.702-2.364,14.849-6.144,22.265-9.382c7.555-3.297,16.327-4.394,24.306-7.713
		c8.728-3.631,16.426-9.024,25.292-12.272c7.848-2.874,15.687-5.654,23.206-8.045c15.628-4.97,29.975-12.855,45.633-16.893
		c8.106-2.09,15.85-2.518,24.539-2.902c8.578-0.382,15.05-5.618,23.262-5.618c9.752,0,18.666,0.147,27.615-3.621
		c9.051-3.813,18.109-8.603,27.087-12.817c9.491-4.456,19.771-6.56,28.317-12.78c4.665-3.393,8.837-7.085,13.573-10.379
		c4.759-3.312,8.777-3.875,14.072-5.9c4.514-1.727,7.806-4.747,11.729-7.109c4.868-2.932,12.68-9.354,17.905-10.184
		c0.914,3.793,3.285,8.443,2.81,12.379c-5.469,0.276-9.846-0.05-14.575,2.133c-4.394,2.027-7.706,5.502-11.972,8.187
		c-7.552,4.749-16.355,8.757-24.487,13.317c-9.421,5.284-17.94,12.018-27.993,16.373c-9.162,3.971-16.365,10.512-26.104,13.635
		c-8.675,2.781-13.454,6.134-22.185,7.467c-8.471,1.293-22.979,6.016-31.572,6.873c-20.556,2.047-47.783,2.298-61.431,8.655
		c-12.899,6.007-24.56,10.371-38.231,13.345c-10.194,2.219-19.196,8.001-28.334,12.449c-10.562,5.142-21.135,10.771-32.475,12.965
		c-8.298,1.606-16.765,3.848-19.566-5.604"/>
	<path d="M31.051,229.781c-1.518-3.218,0.195-8.048,0.43-11.628c0.295-4.499,0.563-8.596,1.194-12.888
		c1.275-8.666,1.846-16.934,3.444-25.398c1.763-9.321,1.306-18.042,1.815-27.541c0.528-9.842,3.646-17.979,6.432-27.129
		c2.029-6.671,6.428-11.593,8.486-18.021c-8.052,2.7-16.271,13.118-17.834,21.096c-1.636,8.348-6.832,17.734-8.271,26.023
		c-3.219,18.547-1.596,36.181-4.4,54.904c-0.953,6.352-2.646,13.587-1.624,20.153c1.696,10.928,3.466,10.438,6.024,8.86
		l19.117-7.724L31.051,229.781z"/>
</g>
<g id="Layer_3">
	<path d="M674.708,625.261c-10.014,1.201-19.62,5.41-29.58,7.484c-25.592,5.324-51.424,9.865-77.407,3.301
		c-13.961-3.525-15.263-8.801-6.734-19.971c7.791-10.205,5.623-16.711-7.011-19.414c-5.669-1.213-12.341,0.434-17.295-1.904
		c-8.932-4.209-17.916-9.439-24.786-16.326c-2.716-2.727-0.063-11.051,0.537-16.785c1.555-14.77,9.187-28.406,0.771-44.629
		c-6.904-13.309-7.511-29.766-11.911-44.525c-4.432-14.881-10.12-29.383-15.221-44.064c-10.088-29.055-18.416-58.701-43.129-80.364
		c-8.168-7.154-18.309-16.962-14.055-30.211c6.983-21.758-2.89-40.271-8.893-59.746c-1.794-5.822-4.339-12.887-2.604-18.066
		c7.715-23.009,2.941-43.506-4.207-66.311c-10.102-32.248-27.828-57.874-53.218-77.522c-40.339-31.217-79.938-64.151-130.843-78.468
		c-34.321-9.662-68.376-19.76-104.535-17.388c-5.553,0.366-11.715,2.08-16.271,5.145C88.48,18.817,85.052,32.929,93.634,63.023
		c1.205-5.978,1.125-11.782,3.535-16.243c5.28-9.764-6.354-25.981,9.943-30.392c11.506-3.109,24.128-2.101,36.256-2.9
		c0.959-0.064,1.961,0.053,2.904,0.269c23.661,5.313,47.381,10.39,70.963,16.034c52.195,12.495,92.045,46.292,133.033,77.962
		c6.988,5.397,8.369,9.756-2.881,13.73c-9.396,3.316-17.26,10.973-25.806,16.711c28.253-10.235,53.911-4.548,68.6,15.244
		c1.448,1.954,4.104,4.232,3.851,6.026c-2.62,18.33,12.943,28.747,18.66,43.422c6.85,17.587-3,31.918-6.938,47.425
		c-0.865,3.409-3.479,6.371-6.229,11.19c-5.746-8.341-10.521-15.269-13.948-20.246c4.479-9.74,8.102-17.609,11.72-25.478
		c-19.771,4.502-26.276,26.28-16.852,42.756c3.111,5.435,7.387,10.513,9.079,16.345c1.159,4.007,0.233,10.525-2.464,13.176
		c-2.382,2.347-8.89,2.162-12.898,0.911c-19.5-6.085-28.233-23.503-36.014-39.633c-6.961-14.429-16.067-25.308-29.715-32.191
		c-15.964-8.048-32.648-14.654-48.908-22.131c-3.92-1.803-7.402-4.571-9.115-5.65c23.287-16.97,45.654-33.271,68.02-49.574
		c-3.501,1.596-7.431,2.617-10.442,4.87c-33.399,24.96-70.813,37.559-112.545,38.096c-8.154,0.104-16.771,1.568-24.318,4.56
		c-38.538,15.284-76.754,31.379-115.17,46.971c-14.45,5.864-27.719,16.413-46.748,12.604c1.994-14.749,9.203-41.243,11.504-56.265
		c0.271,0.011,0.545,0.023,0.816,0.033c1.598-13.334,4.029-26.632,4.58-40.007c0.316-7.689,0.884-12.124,2.887-14.088
		c3.938-7.573,12.406-12.335,18.464-18.407c9.729-9.752,18.618-20.303,27.466-30.845c3.644-4.339,7.574-9.247,12.185-13.006
		c-0.17,0-0.337,0.002-0.508,0.002c-0.141,0.203-0.517,0.682-0.961,1.087c-18.8,17.275-37.974,34.166-56.212,52.016
		c-5.485,5.363-10.956,13.035-11.918,20.247c-1.87,14.05-0.547,28.522-0.547,42.821c0.148,0.006,0.297,0.011,0.447,0.018
		c-4.281,19.779-13.561,51.228-17.49,70.189c1.355,1.339,2.713,2.675,4.07,4.013c18.107-7.18,36.401-13.924,54.272-21.644
		c24.404-10.545,48.229-22.49,72.89-32.365c6.608-2.648,16.236-2.098,22.965,0.666c26.727,10.981,52.668,23.857,79.271,35.158
		c17.857,7.591,36.657,12.999,54.393,20.839c7.719,3.411,16.52,9.77,3.195,18.812c-2.597,1.761-4.938,6.847-4.363,9.813
		c2.283,11.781,5.936,23.281,8.768,34.958c4.597,18.926,28.076,28.629,25.093,51.311c-0.021,0.145,2.139,1.006,3.518,1.334
		c1.57,13.332,3.588,26.297,5.187,39.596c2.51-0.514,5.018-1.029,7.526-1.543c-4.178-12.709-8.357-25.413-12.539-38.121
		c-0.424-5.958-0.848-11.917-1.418-19.926c11.417,3.072,20.535,4.805,29.021,8.146c3.718,1.464,7.584,5.726,8.896,9.562
		c5.161,15.092,10.235,30.336,13.394,45.918c1.159,5.707-1.118,14.865-5.27,18.361c-11.379,9.578-24.588,16.984-37.948,25.83
		c-1.569-3.924-2.832-7.088-4.526-11.322c-13.282,29.957-14.979,56.736,13.669,80.713c1.067-5.52,2.464-9.83,2.635-14.197
		c0.416-10.713,0.146-21.445,0.379-32.166c0.478-21.768,9.242-31.313,32.688-34.91c0.331,6.838,1.946,13.82,0.714,20.266
		c-2.627,13.727,4,20.637,15.453,25.229c2.688,1.08,5.107,2.809,7.746,4.039c10.673,4.977,16.678,12.258,15.414,25.07
		c-1.336,13.557-0.518,27.34-2.109,40.85c-0.566,4.801-4.642,10.01-8.525,13.438c-8.756,7.732-18.053,14.992-27.846,21.344
		c-3.684,2.389-11,4.004-13.77,1.992c-5.95-4.326-11.868-10.527-14.452-17.244c-4.545-11.805-6.577-24.582-10.012-38.344
		c-0.954,4.631-2.233,8.566-2.52,12.576c-2.086,29.318,19.974,64.936,47.617,75.117c18.149,6.688,37.166,11,55.391,17.498
		c14.33,5.109,28.652,10.844,41.917,18.209c32.665,18.146,64.721,37.393,100.072,57.977c7.8-33.586-13.948-49.371-31.268-70.781
		c33.826-4.67,64.396-8.891,93.884-12.963c-2.127-0.832-5.758-2.25-10.275-4.016c7.729-3.139,13.799-7.166,20.205-7.787
		c6.754-0.65,14.322,4.01,20.606,2.5c5.373-1.297,9.434-8.043,14.076-12.377C683.549,629.666,678.803,624.773,674.708,625.261z
		 M338.827,519.117c-15.745-15.801-15.712-21.291,1.729-34.4C339.914,497.472,339.427,507.185,338.827,519.117z M513.476,599.449
		c0.434,0.43-4.338,9.016-7.487,9.625c-8.978,1.73-18.37,1.305-27.602,1.729c-6.813-0.014-13.622,0.014-20.434-0.02
		c-24.946-0.123-39.143-10.699-40.781-39.061c-1.36-23.508,2.736-47.424,5.697-70.994c0.407-3.238,9.263-8.775,12.416-7.75
		c17.739,5.775,36.008,11.443,51.816,20.941c6.891,4.146,10.737,17.047,11.798,26.439
		C501.208,560.775,496.388,582.541,513.476,599.449z M450.29,378.587c1.127,1.436-3.041,7.02-4.757,10.686
		c-7.901-7.227-16.271-14.011-23.553-21.815c-5.096-5.459-10.856-12.027-0.729-22.231
		C431.639,356.894,441.471,367.344,450.29,378.587z M272.438,246.888c-35.208-12.863-72.284-21.196-107.968-45.383
		c43.071-18.267,76.924,0.127,112.872,12.987c41.118,14.71,55.507,50.489,77.313,87.209c-13.276-2.307-23.971-4.167-34.669-6.024
		c0.131-1.884,0.26-3.767,0.394-5.652c5.194-0.495,10.392-0.986,17.309-1.649C319.56,267.098,296.726,255.756,272.438,246.888z
		 M300.771,319.836c-2.031-5.989-2.965-12.353-4.037-16.961c17.822,3.85,33.867,9.206,50.176,10.203
		c12.089,0.736,25.711-1.883,36.417-7.364c8.159-4.178,12.788-15.216,19.044-23.156c2.757-3.502,5.646-6.894,8.479-10.333
		c2.214,3.414,5.328,6.554,6.448,10.298c2.219,7.4,3.671,15.083,4.847,22.738c4.337,28.261-2.316,40.605-28.467,51.006
		C368.421,366.311,312.513,354.465,300.771,319.836z M397.592,477.871c-14.792,1.188-17.731-5.197-18.349-16.961
		c-0.735-14.059-0.705-28.271-3.004-42.091c-1.869-11.239-6.778-21.964-10.144-32.981c-1.175-3.846-1.77-7.871-2.258-10.104
		c13.413-5.119,24.8-10.301,36.715-13.525c3.712-1,10.8,2.071,12.948,5.441c4.594,7.211,5.475,17.04,10.696,23.53
		c4.877,6.06,12.957,10.877,20.515,12.844c3.448,0.899,9.028-6.356,15.815-11.592c17.457,32.692,28.853,69.302,40.922,108.612
		c-22.073-7.594-38.912-14.936-56.505-18.98C429.588,478.535,413.208,476.617,397.592,477.871z M398.078,621.71
		c-4.125-4.33-13.746-10.82-3.446-19.076c9.106-7.303,16.047-6.311,24.873,2.535c12.217,12.246,26.516,22.553,40.602,32.75
		c8.499,6.15,18.287,10.521,27.497,15.689C452.917,655.859,422.126,646.964,398.078,621.71z M565.694,711.951
		c-19.701-9.613-38.409-18.742-57.116-27.869c0.727-1.41,1.447-2.816,2.173-4.225C535.933,679.039,568.699,690.455,565.694,711.951z
		 M465.324,623.533c43.513-22.879,72.867,3.252,100.847,30.688C547.199,662.632,482.73,643.359,465.324,623.533z"/>
</g>
</svg>
