<?xml version="1.0" encoding="utf-8"?>
<!-- Generator: Adobe Illustrator 16.0.0, SVG Export Plug-In . SVG Version: 6.00 Build 0)  -->
<!DOCTYPE svg PUBLIC "-//W3C//DTD SVG 1.1//EN" "http://www.w3.org/Graphics/SVG/1.1/DTD/svg11.dtd">
<svg version="1.1" id="Layer_1" xmlns="http://www.w3.org/2000/svg" xmlns:xlink="http://www.w3.org/1999/xlink" x="0px" y="0px"
	 width="688.082px" height="737.535px" viewBox="0 0 688.082 737.535" enable-background="new 0 0 688.082 737.535"
	 xml:space="preserve">
<g id="Layer_4">
	<polygon fill="#1859B3" points="11.479,257.059 131.729,206.538 152.437,204.043 264.703,249.885 308.674,269.533 296.201,292.297 
		293.082,309.761 316.47,354.668 324.162,383.511 329.174,423.175 326.308,460.083 323.021,488.453 328.01,514.025 340.551,538.054 
		338.291,556.16 348.592,605.708 409.404,646.562 470.525,667.767 570.631,726.708 574.373,707.062 552.23,681.494 539.443,667.771 
		563.146,661.535 643.386,653.791 672.562,644.712 681.65,632.531 632.064,644.072 567.511,644.072 551.607,628.789 
		528.529,596.669 504.83,576.71 510.756,532.117 499.527,480.972 465.537,387.914 439.34,353.112 425.308,335.648 425.308,312.259 
		425.308,303.215 423.437,287.311 417.511,272.653 410.65,256.75 414.083,240.844 417.511,209.66 412.208,187.206 403.193,166.42 
		376.256,119.794 328.594,80.421 289.22,53.482 209.438,19.291 	"/>
	<polygon fill="#16B115" points="11.479,257.059 5.554,248.95 20.523,184.397 23.33,140.114 39.857,122.025 86.596,74.306 
		93.634,63.022 92.25,38.137 96.615,19.739 114.391,6.856 131.729,6.856 209.438,19.291 	"/>
	<polygon fill="#16B115" points="175.191,190.484 227.166,190.484 266.146,202.178 319.417,230.764 351.902,282.737 359.31,301.803 
		359.31,364.913 371.392,411.373 377.115,450.429 380.314,481.8 402.083,504.849 418.09,517.013 414.248,579.755 436.015,613.046 
		476.99,639.935 517.324,661.703 552.23,681.494 573.292,712.73 562.496,721.919 491.251,679.97 427.085,648.259 356.627,615.609 
		338.06,582.957 338.291,556.16 340.551,538.054 323.336,504.208 323.976,479.88 326.308,460.083 331.017,413.296 314.373,349.272 
		301.523,330.199 291.533,296.654 304.769,279.488 299.738,265.54 245.052,241.861 155.981,205.491 163.92,194.977 	"/>
</g>
<g id="Layer_1_1_">
	<polygon fill="#E2C374" points="291.533,296.654 340.98,306.302 380.292,296.654 399.349,277.84 413.338,265.54 422.873,285.921 
		427.085,315.95 425.308,335.646 404.412,357.195 369.199,364.913 326.508,355.023 303.592,335.246 291.533,305.82 	"/>
	<path fill="#FFFFFF" d="M26.563,250.672c0.764-9.432,17.143-18.334,23.344-25.249c7.086-7.899,14.447-16.355,21.061-24.46
		c15.104-18.509,28.302-37.758,43.199-56.169c8.351-10.315,16.087-20.87,25.865-29.439c10.612-9.303,21.879-18.601,30.871-29.607
		c7.951-9.734,14.286-20.447,20.586-30.854c3.125-5.16,24.355-22.539,24.156-26.947c0.51-0.255,0.968-0.583,1.372-0.984
		c-8.723-0.371-21.686-9.933-29.036-9.037c-5.275,0.641-16.523,16.348-21.898,21.129c-14.926,13.271-24.633,29.118-35.819,44.602
		c-11.357,15.716-30.07,27.453-42.691,42.537c-13.781,16.472-27.566,36.485-40.197,54.142
		c-13.76,19.235-41.239,47.356-37.729,72.196c5.41,0.24,10.723,0.259,15.914-0.852"/>
</g>
<g id="Layer_3">
	<path d="M674.708,625.261c-10.014,1.201-19.62,5.408-29.582,7.482c-25.59,5.326-51.424,9.867-77.405,3.303
		c-13.961-3.525-15.263-8.801-6.734-19.973c7.789-10.203,5.623-16.709-7.012-19.412c-5.668-1.215-12.34,0.432-17.295-1.904
		c-8.933-4.211-17.916-9.439-24.785-16.326c-2.717-2.727-0.063-11.051,0.535-16.787c1.557-14.768,9.188-28.404,0.772-44.627
		c-6.903-13.311-7.512-29.766-11.91-44.525c-4.434-14.881-10.12-29.383-15.221-44.066c-10.09-29.055-18.416-58.701-43.129-80.363
		c-8.17-7.155-18.309-16.963-14.057-30.211c6.985-21.758-2.89-40.271-8.892-59.747c-1.793-5.822-4.338-12.888-2.604-18.066
		c7.715-23.01,2.938-43.507-4.209-66.312c-10.103-32.249-27.828-57.874-53.217-77.521c-40.339-31.217-79.937-64.152-130.842-78.469
		C194.801,8.077,160.746-2.022,124.59,0.35c-5.555,0.366-11.717,2.081-16.272,5.145C88.479,18.817,85.053,32.929,93.634,63.022
		c1.206-5.979,1.125-11.784,3.535-16.244c5.28-9.763-6.354-25.98,9.942-30.391c11.506-3.109,24.129-2.104,36.257-2.902
		c0.96-0.063,1.962,0.055,2.905,0.269c23.66,5.314,47.379,10.391,70.963,16.036c52.194,12.494,92.042,46.292,133.033,77.961
		c6.988,5.398,8.369,9.757-2.881,13.731c-9.398,3.315-17.262,10.972-25.808,16.709c28.255-10.235,53.912-4.546,68.601,15.246
		c1.447,1.952,4.104,4.232,3.852,6.024c-2.621,18.329,12.943,28.748,18.66,43.423c6.851,17.588-3,31.917-6.938,47.425
		c-0.867,3.409-3.479,6.371-6.229,11.191c-5.748-8.341-10.521-15.27-13.949-20.246c4.48-9.741,8.101-17.61,11.72-25.478
		c-19.771,4.502-26.275,26.28-16.851,42.756c3.111,5.434,7.387,10.512,9.078,16.346c1.16,4.006,0.232,10.524-2.463,13.175
		c-2.383,2.348-8.891,2.163-12.898,0.911c-19.502-6.086-28.233-23.504-36.016-39.633c-6.961-14.429-16.066-25.308-29.713-32.191
		c-15.965-8.048-32.65-14.653-48.909-22.131c-3.921-1.803-7.403-4.57-9.114-5.651c23.286-16.968,45.654-33.269,68.018-49.572
		c-3.502,1.595-7.431,2.616-10.443,4.869c-33.398,24.96-70.813,37.56-112.543,38.097c-8.153,0.104-16.772,1.567-24.319,4.56
		c-38.537,15.284-76.753,31.38-115.17,46.971c-14.449,5.864-27.717,16.413-46.747,12.603c1.994-14.748,9.202-41.242,11.504-56.263
		c0.271,0.01,0.544,0.021,0.817,0.031c1.596-13.333,4.028-26.632,4.579-40.007c0.316-7.688,0.884-12.123,2.886-14.087
		c3.938-7.574,12.406-12.336,18.465-18.407c9.73-9.753,18.617-20.303,27.467-30.845c3.643-4.339,7.573-9.246,12.184-13.005
		c-0.169,0-0.337,0.002-0.509,0.002c-0.14,0.203-0.517,0.681-0.961,1.087c-18.799,17.275-37.972,34.166-56.21,52.016
		c-5.485,5.362-10.959,13.035-11.918,20.246c-1.87,14.051-0.548,28.524-0.548,42.821c0.148,0.006,0.298,0.012,0.446,0.018
		c-4.279,19.779-13.562,51.228-17.488,70.189c1.355,1.34,2.713,2.675,4.069,4.013c18.106-7.178,36.401-13.923,54.271-21.642
		c24.404-10.546,48.229-22.489,72.892-32.365c6.606-2.647,16.234-2.098,22.963,0.666c26.729,10.981,52.67,23.856,79.271,35.158
		c17.859,7.591,36.66,12.999,54.395,20.839c7.719,3.41,16.519,9.771,3.194,18.812c-2.597,1.76-4.937,6.847-4.361,9.814
		c2.281,11.78,5.934,23.279,8.767,34.958c4.595,18.925,28.076,28.629,25.093,51.311c-0.021,0.145,2.139,1.006,3.518,1.334
		c1.57,13.332,3.586,26.295,5.187,39.594c2.51-0.514,5.018-1.027,7.526-1.543c-4.18-12.707-8.358-25.414-12.539-38.12
		c-0.426-5.958-0.848-11.916-1.418-19.924c11.416,3.07,20.535,4.804,29.021,8.144c3.717,1.467,7.584,5.729,8.896,9.563
		c5.16,15.092,10.236,30.336,13.394,45.918c1.158,5.705-1.117,14.867-5.271,18.363c-11.379,9.576-24.586,16.982-37.948,25.832
		c-1.568-3.93-2.83-7.09-4.525-11.324c-13.281,29.957-14.979,56.736,13.67,80.711c1.066-5.52,2.463-9.83,2.635-14.197
		c0.416-10.711,0.146-21.445,0.377-32.166c0.478-21.766,9.244-31.311,32.688-34.908c0.332,6.834,1.945,13.818,0.715,20.262
		c-2.627,13.729,4,20.639,15.451,25.23c2.688,1.08,5.108,2.809,7.748,4.037c10.672,4.979,16.678,12.26,15.414,25.072
		c-1.336,13.557-0.519,27.34-2.109,40.85c-0.566,4.801-4.643,10.01-8.527,13.438c-8.754,7.73-18.051,14.99-27.844,21.342
		c-3.684,2.391-11.002,4.006-13.77,1.992c-5.951-4.324-11.869-10.525-14.453-17.244c-4.545-11.805-6.576-24.58-10.012-38.342
		c-0.953,4.629-2.232,8.564-2.519,12.576c-2.088,29.316,19.973,64.936,47.617,75.117c18.147,6.688,37.164,11,55.391,17.498
		c14.328,5.109,28.652,10.844,41.916,18.209c32.666,18.146,64.72,37.391,100.072,57.977c7.799-33.588-13.947-49.371-31.268-70.779
		c33.827-4.674,64.396-8.895,93.885-12.967c-2.127-0.83-5.758-2.25-10.275-4.014c7.729-3.139,13.799-7.166,20.205-7.787
		c6.754-0.65,14.322,4.01,20.605,2.498c5.373-1.295,9.434-8.041,14.075-12.377C683.549,629.666,678.802,624.771,674.708,625.261z
		 M338.826,519.117c-15.746-15.801-15.711-21.291,1.73-34.4C339.914,497.472,339.426,507.185,338.826,519.117z M513.476,599.449
		c0.434,0.43-4.34,9.016-7.488,9.623c-8.977,1.73-18.369,1.307-27.602,1.729c-6.813-0.014-13.621,0.016-20.433-0.02
		c-24.946-0.123-39.143-10.699-40.782-39.059c-1.361-23.51,2.737-47.424,5.696-70.994c0.408-3.24,9.265-8.779,12.416-7.75
		c17.74,5.773,36.008,11.443,51.818,20.941c6.891,4.145,10.736,17.047,11.797,26.439
		C501.208,560.773,496.388,582.539,513.476,599.449z M450.289,378.585c1.125,1.436-3.04,7.021-4.756,10.687
		c-7.903-7.226-16.272-14.011-23.553-21.815c-5.098-5.459-10.857-12.027-0.732-22.231
		C431.638,356.893,441.47,367.342,450.289,378.585z M272.438,246.886c-35.208-12.862-72.284-21.196-107.967-45.382
		c43.071-18.267,76.923,0.127,112.87,12.986c41.12,14.711,55.506,50.489,77.313,87.21c-13.276-2.307-23.971-4.167-34.67-6.024
		c0.133-1.884,0.262-3.765,0.396-5.651c5.194-0.495,10.391-0.986,17.309-1.65C319.558,267.098,296.724,255.755,272.438,246.886z
		 M300.771,319.835c-2.031-5.99-2.965-12.352-4.039-16.96c17.824,3.849,33.867,9.206,50.178,10.202
		c12.088,0.736,25.709-1.883,36.416-7.363c8.16-4.179,12.789-15.216,19.045-23.156c2.755-3.501,5.646-6.894,8.478-10.332
		c2.215,3.412,5.328,6.554,6.449,10.298c2.219,7.399,3.67,15.083,4.848,22.738c4.336,28.26-2.318,40.605-28.469,51.004
		C368.42,366.31,312.513,354.463,300.771,319.835z M397.592,477.871c-14.793,1.188-17.732-5.199-18.349-16.963
		c-0.735-14.057-0.707-28.271-3.004-42.09c-1.869-11.24-6.778-21.964-10.145-32.98c-1.174-3.848-1.769-7.873-2.258-10.105
		c13.411-5.118,24.801-10.3,36.715-13.523c3.711-1.001,10.801,2.071,12.947,5.439c4.596,7.212,5.477,17.041,10.696,23.531
		c4.877,6.058,12.959,10.876,20.515,12.844c3.45,0.898,9.03-6.355,15.817-11.592c17.457,32.691,28.853,69.303,40.922,108.613
		c-22.075-7.596-38.912-14.936-56.506-18.98C429.585,478.535,413.208,476.617,397.592,477.871z M398.076,621.708
		c-4.123-4.328-13.744-10.818-3.444-19.074c9.106-7.305,16.047-6.311,24.873,2.535c12.217,12.244,26.516,22.553,40.602,32.748
		c8.498,6.15,18.287,10.521,27.496,15.691C452.917,655.859,422.126,646.962,398.076,621.708z M565.693,711.951
		c-19.701-9.613-38.408-18.742-57.117-27.871c0.728-1.408,1.449-2.814,2.172-4.223C535.933,679.039,568.699,690.455,565.693,711.951
		z M465.322,623.533c43.515-22.879,72.869,3.25,100.849,30.688C547.197,662.632,482.73,643.359,465.322,623.533z"/>
</g>
</svg>
