<?xml version="1.0" encoding="utf-8"?>
<!-- Generator: Adobe Illustrator 16.0.0, SVG Export Plug-In . SVG Version: 6.00 Build 0)  -->
<!DOCTYPE svg PUBLIC "-//W3C//DTD SVG 1.1//EN" "http://www.w3.org/Graphics/SVG/1.1/DTD/svg11.dtd">
<svg version="1.1" id="Layer_1" xmlns="http://www.w3.org/2000/svg" xmlns:xlink="http://www.w3.org/1999/xlink" x="0px" y="0px"
	 width="688.082px" height="737.535px" viewBox="0 0 688.082 737.535" enable-background="new 0 0 688.082 737.535"
	 xml:space="preserve">
<g id="Layer_4">
	<polygon fill="#0019B1" points="131.811,6.857 209.519,19.291 289.3,53.483 328.675,80.422 376.337,119.794 403.274,166.42 
		412.29,187.207 417.593,209.66 414.162,240.846 410.731,256.75 417.593,272.653 423.518,287.312 425.387,303.216 425.387,312.26 
		425.387,335.648 439.423,353.112 465.618,387.914 499.61,480.972 510.835,532.115 504.911,576.71 528.61,596.669 551.688,628.791 
		567.593,644.072 632.145,644.072 681.731,632.533 672.644,644.714 643.468,653.792 563.227,661.535 539.526,667.771 
		552.312,681.494 574.453,707.062 570.713,726.708 470.606,667.769 409.485,646.562 348.672,605.708 338.372,556.16 
		340.632,538.054 328.09,514.025 323.1,488.455 326.391,460.083 329.254,423.177 324.242,383.512 316.552,354.669 293.163,309.762 
		296.281,292.298 308.755,269.533 264.784,249.887 152.518,204.043 131.811,206.539 11.559,257.059 5.635,248.951 20.604,184.397 
		23.411,140.114 39.938,122.026 86.676,74.306 93.715,63.023 92.331,38.138 96.696,19.739 114.472,6.857 	"/>
</g>
<g id="Layer_1_1_">
	<polygon fill="#E2C374" points="291.614,296.654 341.059,306.303 380.376,296.654 399.429,277.841 413.419,265.54 422.956,285.922 
		427.167,315.952 425.387,335.647 404.493,357.195 369.28,364.913 326.589,355.024 303.674,335.246 291.614,305.82 	"/>
	<g>
		<g>
			<path fill="#EB0000" d="M334.284,87.917c-3.34,2.119-6.899,3.824-10.345,5.678c-3.456,1.859-7.278,2.988-10.838,4.67
				c-4.931,2.327-9.53,5.534-14.556,7.996c-4.173,2.044-7.663,4.782-11.729,6.914c-5.225,2.738-11.266,2.878-16.694,5.246
				c-1.818,0.792-3.388,2.309-5.12,3.057c-2.334,1.007-4.896,1.044-7.321,2.085c-5.859,2.51-10.144,6.762-16.035,9.286
				c-11.069,4.744-21.123,7.404-33.205,8.118c-13.072,0.771-28.89-2.767-40.328,4.564c-6.766,4.335-16.882,5.44-24.791,9.32
				c-9.289,4.557-19.188,9.341-28.97,13.512c-10.595,4.517-21.647,5.803-32.345,9.883c-6.884,2.627-13.296,6.302-20.081,9.195
				c-0.076-1.247-0.132-2.497-0.128-3.756c0.02-7.39,0.715-14.61,1.036-21.882c0.299-6.752-1.237-13.313-0.523-19.971
				c0.81-7.565,1.515-15.112,2.267-22.705c0.29-2.926,0.546-6.2,1.164-9.049c0.71-3.266,3.805-7.893,5.607-10.59
				c7.729-11.569,2.948-8.648,11.396-18.91l2.726-4.443c-1.896,2.838-3.908,5.278-6.2,8.064
				c-8.448,10.262-13.646,23.05-22.887,32.59c-2.258,2.331-4.472,4.241-5.181,7.506c-0.619,2.85-0.876,6.125-1.165,9.05
				c-0.752,7.593-1.456,15.139-2.266,22.705c-0.713,6.658,0.82,13.217,0.522,19.97c-0.221,5.014-0.61,10.005-0.844,15.042
				c-0.104,2.269-0.187,4.545-0.191,6.841c-0.008,3.005,0.259,5.969,0.599,8.918c3.434-0.704,7.063-0.828,10.397-2.053
				c1.802-0.662,3.564-1.407,5.312-2.189c6.185-2.765,12.113-6.063,18.439-8.478c10.696-4.081,21.75-5.367,32.345-9.883
				c9.781-4.17,19.681-8.954,28.97-13.512c7.909-3.879,18.025-4.984,24.791-9.319c11.438-7.331,27.256-3.793,40.328-4.566
				c12.082-0.713,22.136-3.373,33.205-8.117c5.893-2.525,10.176-6.778,16.035-9.287c2.425-1.04,4.987-1.077,7.321-2.085
				c1.732-0.748,3.301-2.264,5.12-3.056c5.43-2.367,11.471-2.507,16.694-5.246c4.065-2.131,7.557-4.869,11.729-6.914
				c5.024-2.462,9.625-5.669,14.556-7.996c3.56-1.682,7.382-2.811,10.838-4.67c3.444-1.853,7.005-3.559,10.345-5.679
				c4.823-3.061,6.998-7.346,10.674-11.266L334.284,87.917z"/>
			<path fill="#EB0000" d="M85.469,76.133c0.745-1.12,1.478-2.295,2.196-3.586L85.469,76.133z"/>
		</g>
	</g>
	<path fill="#FFFEFF" d="M22.693,249.481c0-9.792,1.321-19.154,1.311-28.961c-0.007-6.443,0.559-13.042,1.651-19.357
		c0.877-5.061,2.932-9.563,3.619-14.693c1.229-9.175,0.311-18.946,0.414-28.27c0.056-4.885,1.043-8.371,2.723-12.876
		c1.611-4.322,1.387-9.394,3.609-13.446c3.508-6.391,12.132-13.258,13.324-20.442c-4.109,2.699-7.744,6.909-11.323,10.265
		c-4.003,3.755-10.669,8.516-13.337,13.39c-3.921,7.163-4.586,19.512-5.5,27.844c-0.943,8.595,1.842,17.217,0.467,25.692
		c-1.59,9.82-5.012,19.573-6.896,29.684c-1.627,8.735-5.732,17.23-7.456,25.902c-1.181,5.936-2.69,10.047,4.646,10.077
		c5.206,0.022,7.681-3.052,12.308-4.809"/>
	<path fill="#FFFEFF" d="M19.194,238.112c4.016-0.824,7.207-4.421,11.422-5.707c5.73-1.749,11.691-3.384,17.447-5.322
		c11.684-3.933,23.055-8.925,34.227-14.214c3.375-1.597,6.546-4.079,9.877-5.78c6.613-3.381,13.484-3.409,20.282-5.368
		c5.85-1.686,11.543-3.7,17.313-5.601c5.022-1.653,9.846-5.162,14.573-6.874c5.515-1.996,11.216-3.566,16.575-5.774
		c2.964-1.222,6.332-3.41,9.367-3.988c7.515-1.428,17.077,0.126,24.78,0.032c6.884-0.083,12.969-2.014,19.572-3.499
		c10.663-2.396,21.762-3.938,32.309-7.439c23.059-7.657,46.692-20.157,66.545-34c7.01-4.888,13.604-9.103,21.351-13.02
		c4.026-2.037,16.986-9.873,20.19-7.169c8.863,7.479-11.875,16.167-16.634,17.369c-16.591,4.192-29.29,12.55-42.737,22.397
		c-15.238,11.163-34.123,23.168-52.955,25.352c-8.52,0.988-16.66,3.983-25.252,4.821c-6.921,0.674-13.473,1.292-20.242,3.083
		c-13.207,3.496-27.458,4.933-40.16,9.464c-11.681,4.167-22.279,10.232-33.734,14.199c-9.403,3.255-17.781,6.516-27.155,9.631
		c-10.787,3.584-21.56,8.814-32.489,12.945c-10.089,3.814-20.46,9.314-30.989,11.575c-5.615,1.206-10.826,2.985-16.466,4.201
		c-0.851-2.816-2.105-6.54-0.876-9.5c3.452,0.75,3.47-1.911,5.608-3.563"/>
	<path fill="#FFFFFF" d="M379.022,439.935c3.283,2.109,3.99,6.313,6.677,9.086c2.081,2.15,7.151,5.076,9.624,6.797
		c5.353,3.721,11.697,4.537,18.583,5.668c18.257,3.002,38.035,6.998,56.343,11.318c8.388,1.977,18.489,3.555,24.984,9.049
		c7.451,6.299,6.865,17.529,9.535,26.348c-8.951-5.377-16.012-8.695-27.17-8.695c-6.779,0-12.478,0.695-18.295-2.262
		c-4.252-2.158-7.563-5.559-12.359-7.191c-9.66-3.289-22.261-0.791-33.058-0.816c-13.338-0.035-23.282,1.715-32.692-7.611
		c-0.59-9.119-1.315-33.029-14.362-28.865c-6.854,2.188-12.328,10.064-18.66,13.865c-3.3,1.98-6.869,3.43-10.043,5.799
		c-1.593,1.188-6.628,7.736-8.591,7.826c-4.743,0.217-4.086-11.65-3.924-15.631c0.329-8.104,0.603-15.379,7.396-19.926
		c12.506-8.369,27.527-10.508,37.268-22.541c1.898-2.352,1.566-4.16,4.519-4.724c0.375,3.836,1.778,6.888,2.174,10.868
		c0.414,4.188-1.156,8.938,1.369,12.324"/>
	<path fill="#FFFFFF" d="M417.366,643.294c11.404,8.414,33.715-2.326,46.561-3.576c13.911-1.355,30.128,4.527,43.691,9.014
		c9.957,3.297,25.646,1.125,35.151-2.699c6.351-2.557,7.991-6.861,14.358-4.502c4.088,1.514,13.373,6.805,12.923,12.033
		c-0.526,6.098-13.016,9.285-18.298,9.736c-10.878,0.926-22.238-0.754-33.017-2.236c-14.662-2.021-29.119,1.59-43.753,2.121
		c-21.126,0.764-42.333-8.553-59.673-19.207"/>
	<path fill="#FFFFFF" d="M305.073,270.126c7.988,5.053,20.216,6.499,29.864,6.847c6.093,0.22,9.677-1.838,13.442,1.903
		c2.929,2.912,3.659,7.421,7.395,10.182c1.211-6.219,9.184-4.983,12.975-8.816c3.507-3.544,5.744-10.687,8.216-14.925
		c2.03-3.478,2.11-14.328,5.653-16.431c4-2.374,6.094,3.885,7.824,7.815c8.441-4.266,18.805-9.795,24.045-17.901
		c0.703,5.302-3.761,19.347-7.169,23.638c-2.877,3.623-7.177,2.021-9.537,4.313c-2.046,1.989-2.051,8.558-2.861,11.042
		c-1.734,5.307-4.691,17.367-10.384,19.922c-5.416,2.427-18.69-0.473-24.68-0.065c1.822,1.699,1.466,3.07,1.944,5.238
		c-6.887,0.727-12.253,3.63-18.917,3.375c-5.943-0.228-12.106-3.505-17.788-6.183c-6.354-2.995-13.184-2.892-15.233-8.865
		c-1.396-4.069-6.792-16.557-3.42-19.72"/>
	<path fill="#EB0000" d="M254.404,245.477c11.146,1.357,22.599-4.534,33.38-5.478c11.715-1.026,22.274-5.639,33.604-6.742
		c3.02,12.713,12.113,13.578,22.045,8.131c7.437-4.079,20.44-12.313,25.521-19.173c3.071-4.145,3.08-6.887,7.979-9.642
		c1.922-1.082,5.389-1.229,6.896-3.354c1.582-2.233,0.391-5.811,1.818-8.266c3.682-6.333,6.114-2.571,10.49,0.551
		c3.776,2.696,4.371,4.609,10.539,2.901c1.962-0.543,6.086-2.697,7.852-4.08c4.678,11.572,6.352,19.855,2.048,31.386
		c-6.572,0.52-11.705-0.922-18.38,0.069c-2.619,0.389-5.507,1.043-8.254,1.183c-2.443,0.123-5.063-0.78-8.114-0.391
		c-0.158,5.362,3.102,12.283-0.055,15.502c-1.328,1.357-8.001,2.658-10.319,4.23c-3.364,2.283-6.513,5.182-9.895,7.549
		c-3.453,2.416-12.238,10.882-16.378,10.818c-4.585-0.07-5.429-7.497-8.63-11.487c-4.105-5.12-5.972-5.167-13.523-4.81
		c-8.251,0.39-13.976,5.168-21.947,6.214c-7.084,0.927-17.795-0.921-24.229-3.301c-5.158-1.907-8.804-5.943-13.51-8.276
		c-2.097-1.037-4.749-1.324-6.883-2.168"/>
	<path fill="#EB0000" d="M489.26,442.673c-4.362-1.441-9.77-1.352-14.381-1.369c-9.326-0.039-16.017-1.857-25.402-3.324
		c-14.604-2.279-29.381-1.693-43.563-5.465c-8.702-2.313-17.67-6.246-24.655-11.869c-8.289-6.672-10.737-16.295-13.297-26.488
		c-6.98-0.707-15.107,7.776-21.808,9.786c-4.412,1.324-10.73,3.548-15.629,3.056c-1.53-6.972-5.24-13.428-7.393-20.369
		c15.779,1.246,26.811-17.836,41.438-19.187c1.224,6.589-2.341,7.283,1.476,12.75c2.108,3.022,5.231,6.343,7.992,8.574
		c7.913,6.397,18.699,11.315,27.608,15.573c8.838,4.228,16.662,4.011,26.023,4.781c5.537,0.455,10.051,2.062,15.746,2.054
		c8.253-0.013,20.52-0.05,25.231-8.099c0.041,0.358-1.352-0.731-1.248-0.633c7.693-3.736,17.954,30.986,19.119,36.801"/>
	<path fill="#EB0000" d="M505.692,564.552c-3.531,1.648-7.211-0.355-10.92-0.721c-5.965-0.588-12.008,0.465-17.82,0.736
		c-13.76,0.643-24.674-0.191-37.617-4.145c-6.485-1.979-18.889-5.152-22.153-12.119c-1.683-3.586-0.306-9.93-0.349-13.895
		c-0.047-4.332-1.609-7.406-1.776-11.406c-13.58,7.715-27.365,17.701-40.842,24.98c-10.269,5.547-23.721,15.773-36.171,13.725
		c-1.028-5.9,1.404-12.285,1.301-18.385c-0.044-2.576-1.362-5.412-0.735-8.215c1.213-5.418,1.112-3.719,5.491-5.479
		c11.793-4.744,26.25-5.576,38.214-10.803c7.608-3.326,14.531-8.607,21.358-13.188c4.73-3.172,13.105-12.678,16.465-6.805
		c2.722,4.758-2.051,13.506-0.719,18.469c1.519,5.65,11.095,11.688,17.043,13.613c14.722,4.766,32.183,6.244,47.559,6.926
		c8.507,0.377,16.558-4.688,24.36-3.334c0.259,10.141-0.968,20.244-1.316,30.039"/>
	<path fill="#EB0000" d="M473.51,636.449c10.124,3.176,20.875-5.646,30.106-9.279c7.522-2.961,25.156-6.855,25.951-16.637
		c-11.216-0.576-18.537-4.123-29.477-8.066c-4.836-1.746-10.905-3.873-16.007-3.678c-5.293,0.203-7.526,3.139-12.115,5.512
		c-7.227,3.736-15.952,4.732-22.921,8.338c-7.029,3.635-12.875,6.932-21.363,8.742c-11.846,2.527-24.593,4.533-36.758,5.48
		c-4.955,0.387-23.139,3.564-26.71-0.289c-1.241-1.34-0.612-9.311-0.296-11.354c1.174-7.582,5.207-16.135,13.041-17.648
		c6.924-1.34,14.183,1.6,21.071,1.898c20.28,0.889,39.979-1.123,60.232-1.299c0.545,4.441-1.926,9.869-2.539,14.355
		c-1.219,8.896-1.087,8.693,3.424,12.945c3.991,3.764,10.977,9.064,15.728,11.66"/>
	<path fill="#FFFFFF" d="M416.68,573.453c4.475,2.805,7.554,6.154,11.074,9.434c7.953,7.412,16.451,6.506,27.229,7.002
		c9.279,0.428,18.259,1.885,27.698,1.23c9.487-0.656,23.949-6.213,31.056,0.102c5.998,5.328,7.228,9.652,1.71,15.234
		c-7.021,7.107-8.347,4.947-16.923,5.189c-4.404,0.127-7.859,2.648-12.105,3.496c-4.971,0.99-10.211,0.305-15.479,0.748
		c-10.957,0.92-25.08,5.146-35.596-0.084c-1.625-0.807-4.252-5.201-5.074-6.5c-4.795-0.158-7.889-4.563-12.728-5.188
		c-0.252-4.535-2.997-12.656-8.102-12.775c-5.139-0.113-15.938,9.938-20.168,13.074c-5.035,3.738-9.843,10.889-15.729,13.025
		c-6.177,2.244-11.455-1.729-16.433-5.131c-4.498-3.074-10.543-6.617-10.271-12.807c0.267-6.09,9.97-8.963,15.75-11.674
		c14.14-6.631,30.793-13.258,43.12-23.436c3.948-3.262,8.172-7.406,10.338-11.943c-0.16,6.555-0.093,12.561-1.56,18.844
		c0.146,0.797,0.648,1.059,1.507,0.787"/>
</g>
<g id="Layer_3">
	<path d="M674.79,625.263c-10.015,1.201-19.62,5.408-29.582,7.48c-25.59,5.328-51.423,9.867-77.405,3.303
		c-13.961-3.525-15.263-8.801-6.734-19.971c7.789-10.203,5.622-16.711-7.012-19.414c-5.668-1.215-12.341,0.434-17.293-1.902
		c-8.933-4.211-17.918-9.441-24.787-16.326c-2.717-2.727-0.063-11.053,0.536-16.787c1.554-14.77,9.187-28.404,0.771-44.627
		c-6.903-13.311-7.512-29.768-11.91-44.527c-4.434-14.881-10.121-29.383-15.221-44.064c-10.088-29.055-18.417-58.702-43.131-80.364
		c-8.168-7.155-18.307-16.963-14.055-30.211c6.984-21.759-2.888-40.271-8.892-59.748c-1.793-5.822-4.338-12.887-2.604-18.066
		c7.715-23.009,2.94-43.505-4.208-66.309c-10.101-32.25-27.826-57.875-53.217-77.522c-40.338-31.218-79.938-64.152-130.843-78.47
		C194.883,8.077,160.827-2.021,124.67,0.35c-5.553,0.367-11.715,2.082-16.271,5.145C88.56,18.817,85.134,32.929,93.715,63.023
		C94.92,57.045,94.84,51.24,97.25,46.78c5.28-9.764-6.354-25.98,9.943-30.391c11.504-3.11,24.127-2.102,36.255-2.902
		c0.96-0.063,1.962,0.055,2.905,0.271c23.66,5.313,47.379,10.389,70.962,16.035c52.196,12.494,92.044,46.292,133.034,77.961
		c6.988,5.398,8.369,9.757-2.882,13.731c-9.396,3.314-17.262,10.972-25.805,16.709c28.252-10.235,53.912-4.546,68.599,15.246
		c1.446,1.953,4.106,4.232,3.852,6.026c-2.621,18.33,12.943,28.748,18.659,43.423c6.85,17.588-3,31.917-6.938,47.425
		c-0.865,3.409-3.478,6.371-6.229,11.191c-5.746-8.341-10.522-15.269-13.949-20.246c4.48-9.741,8.101-17.61,11.72-25.479
		c-19.771,4.502-26.276,26.281-16.851,42.756c3.111,5.435,7.388,10.513,9.078,16.346c1.16,4.006,0.233,10.523-2.463,13.176
		c-2.383,2.348-8.892,2.162-12.899,0.91c-19.501-6.086-28.232-23.503-36.014-39.632c-6.96-14.43-16.066-25.309-29.716-32.191
		c-15.964-8.048-32.648-14.654-48.907-22.131c-3.921-1.804-7.401-4.571-9.114-5.651c23.286-16.969,45.654-33.27,68.019-49.572
		c-3.5,1.595-7.431,2.616-10.443,4.869c-33.397,24.959-70.813,37.56-112.544,38.097c-8.152,0.104-16.771,1.567-24.318,4.56
		c-38.538,15.284-76.754,31.379-115.171,46.97c-14.449,5.865-27.716,16.414-46.747,12.604c1.995-14.749,9.202-41.242,11.505-56.264
		c0.272,0.009,0.543,0.021,0.816,0.031c1.596-13.333,4.028-26.632,4.578-40.007c0.317-7.688,0.886-12.124,2.889-14.087
		c3.937-7.573,12.404-12.335,18.463-18.407c9.73-9.752,18.617-20.303,27.467-30.845c3.643-4.339,7.573-9.246,12.183-13.006
		c-0.168,0-0.336,0.002-0.509,0.002c-0.139,0.204-0.516,0.681-0.96,1.088c-18.799,17.274-37.972,34.166-56.211,52.016
		c-5.484,5.363-10.958,13.035-11.917,20.246c-1.872,14.051-0.549,28.525-0.549,42.822c0.15,0.006,0.298,0.011,0.447,0.018
		c-4.279,19.778-13.561,51.228-17.488,70.19c1.354,1.339,2.713,2.675,4.07,4.012c18.105-7.179,36.399-13.924,54.271-21.643
		c24.406-10.545,48.229-22.489,72.892-32.364c6.606-2.647,16.233-2.098,22.963,0.666c26.729,10.981,52.669,23.855,79.271,35.158
		c17.859,7.592,36.66,13,54.395,20.84c7.72,3.41,16.52,9.77,3.196,18.813c-2.599,1.76-4.938,6.846-4.363,9.814
		c2.281,11.78,5.935,23.278,8.77,34.957c4.595,18.926,28.073,28.628,25.09,51.311c-0.021,0.146,2.138,1.004,3.519,1.334
		c1.57,13.332,3.586,26.295,5.186,39.596c2.511-0.516,5.019-1.029,7.525-1.544c-4.178-12.708-8.356-25.413-12.538-38.12
		c-0.425-5.958-0.848-11.916-1.418-19.925c11.419,3.07,20.535,4.804,29.021,8.143c3.718,1.466,7.584,5.728,8.896,9.563
		c5.162,15.092,10.236,30.336,13.394,45.918c1.158,5.705-1.117,14.865-5.27,18.361c-11.379,9.578-24.587,16.984-37.947,25.832
		c-1.568-3.926-2.832-7.09-4.525-11.322c-13.283,29.955-14.981,56.734,13.668,80.711c1.066-5.52,2.464-9.832,2.635-14.197
		c0.416-10.713,0.144-21.445,0.379-32.166c0.476-21.768,9.242-31.313,32.687-34.908c0.332,6.836,1.944,13.816,0.715,20.262
		c-2.627,13.729,4,20.639,15.452,25.229c2.688,1.082,5.107,2.813,7.745,4.039c10.676,4.98,16.679,12.26,15.416,25.072
		c-1.337,13.555-0.519,27.338-2.109,40.848c-0.566,4.805-4.642,10.012-8.527,13.439c-8.754,7.729-18.051,14.992-27.845,21.344
		c-3.684,2.389-10.999,4.004-13.768,1.99c-5.952-4.324-11.87-10.525-14.454-17.242c-4.543-11.807-6.577-24.582-10.013-38.342
		c-0.953,4.629-2.232,8.564-2.518,12.574c-2.088,29.316,19.973,64.936,47.616,75.117c18.148,6.688,37.165,11.002,55.392,17.496
		c14.33,5.111,28.652,10.846,41.916,18.213c32.666,18.145,64.721,37.391,100.074,57.975c7.799-33.586-13.949-49.371-31.268-70.779
		c33.825-4.672,64.395-8.893,93.883-12.965c-2.127-0.832-5.76-2.25-10.275-4.016c7.729-3.141,13.798-7.166,20.204-7.787
		c6.753-0.65,14.323,4.01,20.606,2.5c5.372-1.297,9.434-8.043,14.075-12.377C683.629,629.666,678.885,624.773,674.79,625.263z
		 M338.907,519.119c-15.745-15.803-15.712-21.293,1.729-34.402C339.994,497.472,339.507,507.185,338.907,519.119z M513.556,599.451
		c0.434,0.428-4.339,9.016-7.487,9.623c-8.977,1.73-18.37,1.305-27.602,1.729c-6.813-0.016-13.621,0.014-20.433-0.02
		c-24.946-0.123-39.143-10.699-40.782-39.059c-1.361-23.512,2.737-47.424,5.697-70.996c0.407-3.238,9.263-8.775,12.415-7.746
		c17.74,5.771,36.011,11.439,51.818,20.939c6.891,4.145,10.736,17.045,11.797,26.439
		C501.288,560.773,496.469,582.539,513.556,599.451z M450.37,378.587c1.127,1.434-3.04,7.019-4.756,10.685
		c-7.902-7.226-16.272-14.013-23.553-21.816c-5.098-5.458-10.858-12.027-0.731-22.23
		C431.719,356.894,441.552,367.343,450.37,378.587z M272.518,246.888c-35.209-12.863-72.285-21.196-107.968-45.382
		c43.073-18.268,76.925,0.127,112.871,12.986c41.119,14.71,55.507,50.489,77.313,87.21c-13.277-2.306-23.971-4.168-34.669-6.024
		c0.132-1.884,0.261-3.767,0.394-5.652c5.194-0.494,10.392-0.986,17.308-1.65C319.639,267.098,296.805,255.757,272.518,246.888z
		 M300.851,319.836c-2.03-5.99-2.966-12.353-4.037-16.961c17.823,3.85,33.866,9.206,50.177,10.203
		c12.088,0.736,25.709-1.884,36.417-7.364c8.159-4.179,12.788-15.216,19.044-23.156c2.754-3.503,5.647-6.894,8.478-10.333
		c2.215,3.413,5.328,6.554,6.449,10.298c2.22,7.4,3.67,15.083,4.847,22.738c4.337,28.261-2.317,40.606-28.468,51.004
		C368.501,366.311,312.594,354.465,300.851,319.836z M397.672,477.871c-14.793,1.188-17.731-5.197-18.348-16.961
		c-0.735-14.059-0.707-28.271-3.004-42.091c-1.869-11.239-6.779-21.965-10.145-32.979c-1.177-3.848-1.769-7.873-2.259-10.106
		c13.413-5.118,24.801-10.3,36.716-13.523c3.711-1.001,10.801,2.07,12.946,5.438c4.596,7.213,5.478,17.042,10.699,23.532
		c4.875,6.059,12.957,10.877,20.514,12.844c3.448,0.897,9.029-6.356,15.816-11.592c17.457,32.692,28.854,69.304,40.922,108.614
		c-22.076-7.596-38.912-14.938-56.504-18.982C429.669,478.535,413.288,476.617,397.672,477.871z M398.158,621.71
		c-4.125-4.33-13.746-10.818-3.446-19.074c9.107-7.305,16.048-6.313,24.873,2.533c12.218,12.246,26.517,22.553,40.603,32.75
		c8.498,6.15,18.286,10.521,27.496,15.689C452.997,655.859,422.206,646.962,398.158,621.71z M565.774,711.953
		c-19.7-9.615-38.408-18.742-57.116-27.873c0.727-1.408,1.448-2.814,2.171-4.223C536.012,679.041,568.78,690.455,565.774,711.953z
		 M465.403,623.533c43.512-22.879,72.867,3.252,100.85,30.688C547.278,662.634,482.809,643.359,465.403,623.533z"/>
</g>
</svg>
