<?xml version="1.0" encoding="utf-8"?>
<!-- Generator: Adobe Illustrator 16.0.0, SVG Export Plug-In . SVG Version: 6.00 Build 0)  -->
<!DOCTYPE svg PUBLIC "-//W3C//DTD SVG 1.1//EN" "http://www.w3.org/Graphics/SVG/1.1/DTD/svg11.dtd">
<svg version="1.1" id="Layer_1" xmlns="http://www.w3.org/2000/svg" xmlns:xlink="http://www.w3.org/1999/xlink" x="0px" y="0px"
	 width="688.082px" height="737.535px" viewBox="0 0 688.082 737.535" enable-background="new 0 0 688.082 737.535"
	 xml:space="preserve">
<g id="Layer_4">
	<polygon points="131.729,6.857 209.438,19.291 289.22,53.483 328.594,80.423 376.256,119.795 403.195,166.421 412.208,187.207 
		417.511,209.66 414.083,240.846 410.65,256.751 417.511,272.654 423.437,287.312 425.306,303.215 425.306,312.259 425.306,335.648 
		439.342,353.111 465.537,387.916 499.527,480.974 510.756,532.115 504.83,576.71 528.529,596.669 551.607,628.791 567.513,644.07 
		632.064,644.07 681.65,632.533 672.564,644.712 643.386,653.792 563.146,661.535 539.445,667.771 552.232,681.492 574.373,707.062 
		570.631,726.708 470.525,667.769 409.404,646.562 348.592,605.708 338.291,556.16 340.552,538.054 328.01,514.027 323.021,488.455 
		326.31,460.083 329.174,423.177 324.162,383.512 316.47,354.669 293.082,309.762 296.201,292.298 308.674,269.533 264.703,249.886 
		152.437,204.045 131.729,206.538 11.479,257.059 5.555,248.951 20.523,184.397 23.33,140.114 39.858,122.026 86.597,74.307 
		93.635,63.024 92.25,38.138 96.615,19.739 114.391,6.857 	"/>
</g>
<g id="Layer_1_1_">
	<polygon fill="#E2C374" points="291.533,296.654 340.978,306.303 380.292,296.654 399.347,277.841 413.338,265.542 
		422.876,285.922 427.085,315.951 425.306,335.648 404.414,357.196 369.199,364.913 326.508,355.024 303.594,335.247 
		291.533,305.82 	"/>
	<g>
		<g>
			<path fill="#FFFFFF" d="M334.201,87.917c-3.338,2.119-6.899,3.824-10.342,5.677c-3.457,1.859-7.279,2.989-10.838,4.67
				c-4.93,2.328-9.531,5.534-14.555,7.997c-4.174,2.043-7.665,4.78-11.73,6.912c-5.226,2.739-11.265,2.878-16.694,5.246
				c-1.818,0.792-3.389,2.308-5.121,3.056c-2.333,1.008-4.896,1.045-7.32,2.085c-5.859,2.509-10.144,6.763-16.035,9.288
				c-11.069,4.743-21.122,7.403-33.205,8.116c-13.072,0.771-28.889-2.766-40.328,4.565c-6.766,4.335-16.881,5.442-24.79,9.319
				c-9.291,4.558-19.188,9.341-28.971,13.513c-10.595,4.517-21.647,5.802-32.346,9.883c-6.883,2.625-13.294,6.301-20.078,9.195
				c-0.078-1.247-0.133-2.497-0.13-3.756c0.021-7.391,0.716-14.61,1.036-21.882c0.299-6.753-1.235-13.314-0.523-19.971
				c0.81-7.564,1.515-15.111,2.266-22.703c0.291-2.927,0.546-6.201,1.165-9.051c0.71-3.264,3.804-7.893,5.607-10.59
				c7.729-11.569,2.948-8.648,11.396-18.909l2.725-4.444c-1.896,2.838-3.908,5.278-6.201,8.064
				c-8.447,10.262-13.644,23.05-22.885,32.59c-2.259,2.331-4.473,4.242-5.182,7.506c-0.62,2.85-0.875,6.124-1.165,9.051
				c-0.752,7.593-1.457,15.138-2.267,22.705c-0.712,6.657,0.823,13.217,0.523,19.97c-0.222,5.012-0.609,10.006-0.844,15.042
				c-0.104,2.269-0.186,4.545-0.192,6.842c-0.008,3.005,0.26,5.969,0.6,8.919c3.433-0.704,7.063-0.828,10.397-2.055
				c1.803-0.661,3.564-1.407,5.312-2.188c6.185-2.765,12.114-6.063,18.438-8.478c10.697-4.082,21.751-5.366,32.346-9.883
				c9.781-4.171,19.68-8.955,28.971-13.513c7.909-3.879,18.024-4.984,24.79-9.319c11.438-7.33,27.256-3.793,40.328-4.563
				c12.083-0.714,22.136-3.374,33.205-8.116c5.893-2.526,10.176-6.779,16.035-9.288c2.426-1.041,4.987-1.077,7.32-2.085
				c1.732-0.748,3.303-2.264,5.121-3.056c5.431-2.368,11.47-2.507,16.694-5.246c4.065-2.132,7.557-4.868,11.73-6.914
				c5.022-2.461,9.625-5.667,14.555-7.996c3.559-1.682,7.381-2.811,10.838-4.67c3.441-1.854,7.004-3.558,10.342-5.677
				c4.826-3.063,7-7.349,10.679-11.268L334.201,87.917z"/>
			<path fill="#FFFFFF" d="M85.389,76.133c0.746-1.119,1.477-2.294,2.196-3.586L85.389,76.133z"/>
		</g>
	</g>
	<path fill="#FA00FF" d="M22.611,249.481c0-9.792,1.322-19.154,1.312-28.962c-0.007-6.443,0.558-13.042,1.65-19.357
		c0.878-5.062,2.933-9.564,3.62-14.693c1.228-9.175,0.31-18.946,0.415-28.269c0.055-4.885,1.042-8.372,2.722-12.876
		c1.61-4.32,1.387-9.394,3.609-13.446c3.508-6.39,12.133-13.259,13.324-20.442c-4.109,2.699-7.745,6.909-11.323,10.265
		c-4.003,3.755-10.669,8.515-13.338,13.39c-3.921,7.163-4.585,19.512-5.499,27.845c-0.941,8.594,1.842,17.216,0.468,25.692
		c-1.592,9.82-5.012,19.573-6.896,29.685c-1.627,8.735-5.732,17.23-7.455,25.901c-1.182,5.936-2.691,10.047,4.646,10.077
		c5.205,0.021,7.679-3.053,12.308-4.809"/>
	<path fill="#FA00FF" d="M19.113,238.112c4.016-0.824,7.207-4.421,11.422-5.708c5.73-1.748,11.69-3.383,17.448-5.322
		c11.682-3.932,23.054-8.924,34.226-14.213c3.375-1.598,6.546-4.079,9.876-5.781c6.614-3.38,13.485-3.408,20.283-5.367
		c5.85-1.685,11.544-3.7,17.313-5.601c5.022-1.653,9.845-5.162,14.572-6.874c5.515-1.996,11.218-3.566,16.577-5.775
		c2.963-1.221,6.33-3.409,9.367-3.987c7.514-1.427,17.076,0.126,24.779,0.034c6.884-0.084,12.969-2.016,19.573-3.5
		c10.661-2.397,21.761-3.939,32.308-7.439c23.059-7.657,46.692-20.158,66.544-34.001c7.008-4.888,13.604-9.104,21.351-13.02
		c4.026-2.036,16.987-9.872,20.19-7.169c8.863,7.479-11.875,16.167-16.635,17.37c-16.59,4.191-29.289,12.549-42.736,22.397
		c-15.237,11.162-34.123,23.168-52.955,25.353c-8.52,0.987-16.66,3.982-25.252,4.82c-6.921,0.674-13.473,1.292-20.241,3.083
		c-13.208,3.496-27.46,4.933-40.163,9.465c-11.679,4.167-22.277,10.232-33.732,14.198c-9.402,3.255-17.782,6.515-27.155,9.631
		c-10.787,3.584-21.56,8.814-32.489,12.945c-10.089,3.814-20.46,9.314-30.99,11.576c-5.614,1.205-10.825,2.985-16.465,4.201
		c-0.851-2.814-2.104-6.542-0.876-9.501c3.452,0.75,3.47-1.911,5.608-3.563"/>
	<path fill="#FA00FF" d="M378.941,439.935c3.283,2.111,3.99,6.313,6.678,9.086c2.08,2.15,7.15,5.076,9.623,6.797
		c5.353,3.719,11.697,4.537,18.584,5.668c18.257,3.002,38.033,6.998,56.341,11.318c8.389,1.977,18.491,3.555,24.985,9.047
		c7.451,6.301,6.865,17.529,9.535,26.35c-8.951-5.377-16.012-8.695-27.17-8.695c-6.777,0-12.478,0.693-18.295-2.262
		c-4.252-2.16-7.562-5.559-12.359-7.191c-9.66-3.289-22.26-0.791-33.057-0.816c-13.34-0.035-23.283,1.715-32.691-7.611
		c-0.59-9.119-1.317-33.029-14.363-28.865c-6.854,2.188-12.329,10.064-18.659,13.865c-3.302,1.98-6.871,3.43-10.045,5.797
		c-1.593,1.188-6.625,7.738-8.593,7.828c-4.741,0.215-4.084-11.65-3.922-15.631c0.33-8.104,0.603-15.377,7.396-19.926
		c12.504-8.369,27.526-10.51,37.266-22.541c1.9-2.352,1.568-4.16,4.519-4.723c0.375,3.835,1.78,6.887,2.174,10.865
		c0.414,4.189-1.156,8.939,1.369,12.326"/>
	<path fill="#FA00FF" d="M417.285,643.292c11.404,8.414,33.716-2.322,46.56-3.574c13.912-1.355,30.131,4.527,43.692,9.016
		c9.957,3.295,25.646,1.123,35.152-2.701c6.352-2.557,7.99-6.859,14.357-4.504c4.088,1.516,13.372,6.805,12.924,12.035
		c-0.527,6.098-13.017,9.285-18.299,9.734c-10.878,0.928-22.238-0.752-33.017-2.236c-14.662-2.02-29.119,1.594-43.754,2.123
		c-21.123,0.764-42.33-8.553-59.672-19.207"/>
	<path fill="#FA00FF" d="M304.992,270.126c7.988,5.054,20.218,6.5,29.865,6.848c6.092,0.22,9.676-1.839,13.441,1.904
		c2.93,2.911,3.659,7.419,7.395,10.181c1.211-6.22,9.185-4.984,12.976-8.816c3.506-3.545,5.743-10.688,8.215-14.926
		c2.03-3.478,2.11-14.327,5.653-16.43c4-2.373,6.095,3.885,7.824,7.815c8.441-4.266,18.806-9.795,24.045-17.9
		c0.703,5.303-3.76,19.348-7.168,23.638c-2.877,3.624-7.178,2.022-9.537,4.313c-2.047,1.988-2.053,8.557-2.862,11.042
		c-1.734,5.306-4.691,17.367-10.384,19.922c-5.416,2.428-18.69-0.474-24.68-0.066c1.822,1.699,1.467,3.071,1.945,5.238
		c-6.887,0.729-12.252,3.629-18.918,3.375c-5.941-0.228-12.107-3.505-17.787-6.183c-6.354-2.995-13.185-2.892-15.234-8.865
		c-1.395-4.069-6.791-16.558-3.42-19.72"/>
	<path fill="#FFFFFF" d="M254.324,245.477c11.146,1.357,22.598-4.534,33.379-5.478c11.717-1.026,22.275-5.639,33.604-6.742
		c3.02,12.714,12.113,13.58,22.047,8.131c7.436-4.078,20.441-12.311,25.52-19.174c3.072-4.144,3.08-6.886,7.979-9.641
		c1.924-1.082,5.389-1.229,6.896-3.354c1.584-2.231,0.392-5.811,1.818-8.266c3.682-6.333,6.113-2.572,10.49,0.55
		c3.776,2.697,4.371,4.61,10.539,2.902c1.963-0.544,6.086-2.697,7.852-4.081c4.681,11.571,6.353,19.854,2.049,31.388
		c-6.573,0.52-11.704-0.923-18.381,0.068c-2.619,0.389-5.508,1.044-8.254,1.183c-2.442,0.122-5.063-0.781-8.113-0.392
		c-0.159,5.364,3.101,12.283-0.055,15.503c-1.328,1.356-8,2.656-10.32,4.23c-3.364,2.282-6.512,5.181-9.895,7.549
		c-3.453,2.417-12.238,10.882-16.377,10.819c-4.586-0.07-5.433-7.496-8.629-11.487c-4.105-5.12-5.972-5.167-13.525-4.81
		c-8.25,0.39-13.975,5.17-21.947,6.213c-7.083,0.928-17.794-0.92-24.229-3.3c-5.158-1.907-8.803-5.943-13.511-8.275
		c-2.095-1.038-4.749-1.324-6.882-2.168"/>
	<path fill="#FFFFFF" d="M489.179,442.671c-4.361-1.439-9.771-1.352-14.381-1.367c-9.326-0.039-16.017-1.857-25.402-3.322
		c-14.603-2.281-29.381-1.695-43.563-5.465c-8.702-2.314-17.67-6.25-24.653-11.871c-8.291-6.673-10.738-16.295-13.299-26.486
		c-6.98-0.707-15.107,7.775-21.808,9.785c-4.412,1.324-10.729,3.549-15.629,3.057c-1.529-6.973-5.24-13.43-7.393-20.371
		c15.778,1.246,26.811-17.836,41.438-19.186c1.224,6.588-2.342,7.283,1.476,12.75c2.108,3.021,5.231,6.342,7.993,8.574
		c7.912,6.398,18.699,11.314,27.607,15.574c8.84,4.227,16.664,4.009,26.023,4.781c5.538,0.455,10.051,2.061,15.747,2.051
		c8.25-0.01,20.519-0.047,25.232-8.096c0.039,0.358-1.354-0.732-1.25-0.634c7.693-3.735,17.955,30.987,19.119,36.804"/>
	<path fill="#FFFFFF" d="M505.611,564.55c-3.528,1.65-7.211-0.354-10.918-0.719c-5.967-0.588-12.01,0.465-17.822,0.736
		c-13.76,0.643-24.674-0.191-37.618-4.145c-6.484-1.979-18.888-5.152-22.152-12.119c-1.682-3.586-0.305-9.93-0.346-13.895
		c-0.05-4.33-1.611-7.404-1.779-11.404c-13.58,7.715-27.367,17.701-40.842,24.982c-10.269,5.545-23.72,15.77-36.17,13.723
		c-1.027-5.902,1.403-12.285,1.301-18.385c-0.045-2.576-1.363-5.412-0.736-8.217c1.213-5.416,1.113-3.719,5.49-5.479
		c11.795-4.744,26.252-5.576,38.215-10.805c7.609-3.324,14.531-8.605,21.359-13.182c4.731-3.174,13.106-12.68,16.463-6.809
		c2.723,4.76-2.049,13.506-0.717,18.471c1.518,5.65,11.094,11.686,17.043,13.611c14.721,4.768,32.182,6.246,47.559,6.928
		c8.506,0.377,16.559-4.688,24.359-3.332c0.26,10.135-0.967,20.24-1.316,30.035"/>
	<path fill="#FFFFFF" d="M473.431,636.449c10.123,3.178,20.873-5.645,30.106-9.279c7.521-2.961,25.156-6.855,25.949-16.639
		c-11.215-0.574-18.537-4.121-29.477-8.064c-4.836-1.746-10.904-3.873-16.004-3.68c-5.295,0.205-7.529,3.141-12.117,5.514
		c-7.226,3.738-15.953,4.732-22.922,8.338c-7.029,3.635-12.875,6.932-21.363,8.742c-11.846,2.527-24.592,4.533-36.758,5.48
		c-4.955,0.387-23.137,3.564-26.711-0.291c-1.24-1.338-0.611-9.309-0.295-11.352c1.174-7.582,5.207-16.135,13.041-17.648
		c6.924-1.342,14.184,1.6,21.071,1.898c20.281,0.889,39.979-1.121,60.234-1.299c0.543,4.439-1.928,9.867-2.541,14.355
		c-1.219,8.896-1.086,8.693,3.424,12.943c3.992,3.766,10.976,9.064,15.728,11.662"/>
	<path fill="#FA00FF" d="M416.599,573.453c4.475,2.805,7.555,6.154,11.074,9.434c7.952,7.41,16.452,6.504,27.229,7.002
		c9.279,0.428,18.26,1.885,27.699,1.23c9.486-0.656,23.947-6.211,31.057,0.102c5.998,5.328,7.226,9.652,1.709,15.234
		c-7.021,7.107-8.346,4.945-16.922,5.188c-4.406,0.127-7.86,2.652-12.106,3.498c-4.97,0.99-10.209,0.305-15.48,0.75
		c-10.959,0.92-25.08,5.146-35.596-0.084c-1.625-0.807-4.252-5.203-5.074-6.5c-4.795-0.16-7.889-4.564-12.727-5.188
		c-0.254-4.535-2.996-12.658-8.103-12.775c-5.139-0.115-15.938,9.936-20.166,13.072c-5.037,3.74-9.844,10.891-15.729,13.027
		c-6.177,2.24-11.455-1.73-16.433-5.131c-4.498-3.074-10.543-6.617-10.271-12.809c0.266-6.09,9.971-8.965,15.748-11.674
		c14.143-6.631,30.795-13.258,43.121-23.434c3.95-3.262,8.172-7.41,10.338-11.945c-0.16,6.555-0.09,12.561-1.56,18.844
		c0.146,0.799,0.648,1.061,1.506,0.785"/>
</g>
<g id="Layer_3">
	<path d="M674.708,625.261c-10.014,1.201-19.62,5.41-29.582,7.484c-25.59,5.324-51.422,9.865-77.405,3.301
		c-13.961-3.525-15.263-8.801-6.734-19.971c7.791-10.205,5.623-16.711-7.012-19.414c-5.668-1.213-12.34,0.434-17.293-1.904
		c-8.933-4.209-17.918-9.439-24.787-16.326c-2.717-2.727-0.063-11.051,0.537-16.785c1.555-14.77,9.186-28.406,0.771-44.629
		c-6.903-13.309-7.51-29.766-11.91-44.525c-4.434-14.881-10.121-29.381-15.221-44.064c-10.088-29.055-18.418-58.701-43.129-80.364
		c-8.168-7.154-18.309-16.962-14.055-30.211c6.983-21.758-2.89-40.271-8.894-59.746c-1.793-5.822-4.338-12.887-2.604-18.066
		c7.713-23.009,2.938-43.506-4.207-66.311c-10.103-32.248-27.828-57.874-53.219-77.522c-40.339-31.217-79.937-64.151-130.842-78.468
		c-34.32-9.662-68.376-19.76-104.533-17.388c-5.553,0.366-11.716,2.08-16.272,5.145C88.479,18.817,85.053,32.929,93.635,63.023
		c1.204-5.978,1.125-11.782,3.534-16.243c5.28-9.764-6.354-25.981,9.942-30.392c11.506-3.109,24.128-2.101,36.256-2.9
		c0.959-0.064,1.962,0.053,2.905,0.269c23.661,5.313,47.38,10.39,70.962,16.034c52.196,12.495,92.043,46.292,133.034,77.962
		c6.988,5.397,8.369,9.756-2.881,13.73c-9.398,3.316-17.26,10.973-25.806,16.711c28.253-10.235,53.912-4.548,68.599,15.244
		c1.447,1.954,4.106,4.232,3.852,6.026c-2.621,18.33,12.943,28.747,18.658,43.422c6.853,17.587-2.998,31.918-6.938,47.425
		c-0.865,3.409-3.478,6.371-6.229,11.19c-5.746-8.341-10.521-15.269-13.949-20.246c4.48-9.74,8.103-17.609,11.719-25.478
		c-19.77,4.502-26.274,26.28-16.85,42.756c3.111,5.435,7.387,10.513,9.078,16.345c1.16,4.007,0.234,10.525-2.463,13.176
		c-2.381,2.347-8.891,2.162-12.898,0.911c-19.502-6.085-28.233-23.503-36.016-39.633c-6.959-14.429-16.066-25.308-29.713-32.191
		c-15.965-8.048-32.65-14.654-48.909-22.131c-3.921-1.803-7.402-4.571-9.114-5.65c23.286-16.97,45.654-33.271,68.018-49.574
		c-3.5,1.596-7.431,2.617-10.441,4.87c-33.399,24.96-70.814,37.559-112.545,38.096c-8.153,0.104-16.771,1.568-24.318,4.56
		c-38.538,15.284-76.755,31.379-115.17,46.971c-14.449,5.864-27.718,16.413-46.749,12.604c1.996-14.749,9.204-41.243,11.506-56.265
		c0.271,0.011,0.543,0.023,0.815,0.033c1.598-13.334,4.03-26.632,4.58-40.007c0.316-7.689,0.885-12.124,2.887-14.088
		c3.938-7.573,12.406-12.335,18.464-18.407c9.73-9.752,18.617-20.303,27.466-30.845c3.644-4.339,7.574-9.247,12.186-13.006
		c-0.17,0-0.338,0.002-0.509,0.002c-0.14,0.203-0.518,0.682-0.962,1.087c-18.799,17.275-37.972,34.166-56.211,52.016
		c-5.484,5.363-10.958,13.035-11.918,20.247c-1.871,14.05-0.547,28.522-0.547,42.821c0.149,0.006,0.297,0.011,0.446,0.018
		c-4.279,19.779-13.559,51.228-17.489,70.189c1.356,1.339,2.714,2.675,4.07,4.013c18.106-7.18,36.399-13.924,54.271-21.644
		c24.406-10.545,48.229-22.49,72.892-32.365c6.606-2.648,16.233-2.098,22.964,0.666c26.728,10.981,52.669,23.857,79.271,35.158
		c17.858,7.591,36.659,12.999,54.394,20.839c7.719,3.411,16.519,9.77,3.196,18.812c-2.599,1.761-4.938,6.847-4.363,9.813
		c2.281,11.781,5.935,23.281,8.767,34.958c4.597,18.926,28.074,28.629,25.093,51.311c-0.021,0.145,2.139,1.006,3.518,1.334
		c1.57,13.332,3.586,26.297,5.187,39.596c2.508-0.514,5.018-1.029,7.526-1.543c-4.18-12.709-8.358-25.413-12.539-38.121
		c-0.424-5.958-0.85-11.917-1.418-19.926c11.418,3.072,20.535,4.805,29.021,8.146c3.719,1.464,7.584,5.726,8.897,9.562
		c5.16,15.092,10.234,30.336,13.392,45.918c1.158,5.707-1.117,14.867-5.271,18.361c-11.379,9.578-24.586,16.984-37.946,25.832
		c-1.568-3.926-2.832-7.09-4.525-11.322c-13.283,29.955-14.98,56.734,13.668,80.711c1.066-5.52,2.465-9.83,2.635-14.197
		c0.416-10.713,0.144-21.445,0.379-32.166c0.478-21.768,9.242-31.313,32.687-34.91c0.332,6.838,1.947,13.82,0.715,20.266
		c-2.627,13.727,4,20.637,15.453,25.229c2.688,1.08,5.106,2.809,7.746,4.039c10.674,4.977,16.678,12.258,15.414,25.07
		c-1.336,13.557-0.519,27.34-2.109,40.85c-0.565,4.801-4.641,10.01-8.527,13.438c-8.754,7.732-18.051,14.992-27.844,21.344
		c-3.684,2.389-11,4.004-13.77,1.992c-5.951-4.326-11.869-10.527-14.453-17.244c-4.543-11.805-6.578-24.582-10.012-38.344
		c-0.953,4.631-2.232,8.566-2.519,12.576c-2.088,29.318,19.973,64.936,47.617,75.117c18.148,6.688,37.166,11,55.389,17.498
		c14.332,5.109,28.654,10.844,41.918,18.209c32.666,18.146,64.72,37.393,100.074,57.977c7.799-33.586-13.949-49.371-31.268-70.781
		c33.825-4.67,64.395-8.891,93.883-12.963c-2.127-0.832-5.758-2.25-10.275-4.016c7.729-3.139,13.799-7.166,20.203-7.787
		c6.756-0.65,14.324,4.01,20.607,2.5c5.373-1.297,9.434-8.043,14.075-12.377C683.549,629.666,678.804,624.773,674.708,625.261z
		 M338.826,519.117c-15.744-15.801-15.711-21.291,1.73-34.4C339.914,497.472,339.426,507.185,338.826,519.117z M513.476,599.449
		c0.434,0.43-4.34,9.016-7.488,9.625c-8.977,1.73-18.369,1.305-27.602,1.729c-6.813-0.014-13.621,0.014-20.433-0.02
		c-24.946-0.123-39.143-10.699-40.782-39.061c-1.361-23.508,2.737-47.424,5.696-70.994c0.408-3.238,9.263-8.775,12.416-7.75
		c17.74,5.775,36.011,11.443,51.818,20.941c6.891,4.146,10.736,17.047,11.797,26.439
		C501.208,560.775,496.388,582.541,513.476,599.449z M450.292,378.587c1.125,1.436-3.041,7.02-4.759,10.686
		c-7.901-7.227-16.272-14.011-23.553-21.815c-5.096-5.459-10.857-12.027-0.729-22.231
		C431.638,356.894,441.472,367.344,450.292,378.587z M272.438,246.888c-35.208-12.863-72.284-21.196-107.967-45.383
		c43.071-18.267,76.924,0.127,112.87,12.987c41.12,14.71,55.508,50.489,77.313,87.209c-13.276-2.307-23.971-4.167-34.668-6.024
		c0.131-1.884,0.26-3.767,0.394-5.652c5.194-0.495,10.391-0.986,17.309-1.649C319.56,267.098,296.724,255.756,272.438,246.888z
		 M300.771,319.836c-2.031-5.989-2.965-12.353-4.039-16.961c17.824,3.85,33.867,9.206,50.178,10.203
		c12.088,0.736,25.709-1.883,36.418-7.364c8.158-4.178,12.787-15.216,19.043-23.156c2.755-3.502,5.646-6.894,8.478-10.333
		c2.215,3.414,5.328,6.554,6.451,10.298c2.219,7.4,3.668,15.083,4.846,22.738c4.336,28.261-2.318,40.605-28.467,51.006
		C368.42,366.311,312.513,354.465,300.771,319.836z M397.59,477.871c-14.791,1.188-17.729-5.197-18.347-16.961
		c-0.735-14.059-0.707-28.271-3.004-42.091c-1.869-11.239-6.778-21.964-10.145-32.981c-1.174-3.846-1.769-7.871-2.258-10.104
		c13.411-5.119,24.801-10.301,36.715-13.525c3.713-1,10.801,2.071,12.946,5.441c4.597,7.211,5.478,17.04,10.699,23.53
		c4.875,6.06,12.957,10.877,20.515,12.844c3.448,0.899,9.028-6.356,15.815-11.592c17.457,32.692,28.853,69.302,40.922,108.612
		c-22.075-7.594-38.912-14.936-56.506-18.98C429.588,478.535,413.208,476.617,397.59,477.871z M398.076,621.71
		c-4.123-4.33-13.744-10.82-3.444-19.076c9.106-7.303,16.047-6.311,24.873,2.535c12.217,12.246,26.516,22.553,40.602,32.75
		c8.5,6.15,18.287,10.521,27.496,15.689C452.917,655.859,422.126,646.964,398.076,621.71z M565.693,711.951
		c-19.699-9.613-38.408-18.742-57.115-27.869c0.726-1.41,1.447-2.816,2.173-4.225C535.933,679.039,568.699,690.455,565.693,711.951z
		 M465.324,623.533c43.513-22.879,72.865,3.252,100.847,30.688C547.197,662.632,482.728,643.359,465.324,623.533z"/>
</g>
</svg>
