<?xml version="1.0" encoding="utf-8"?>
<!-- Generator: Adobe Illustrator 16.0.0, SVG Export Plug-In . SVG Version: 6.00 Build 0)  -->
<!DOCTYPE svg PUBLIC "-//W3C//DTD SVG 1.1//EN" "http://www.w3.org/Graphics/SVG/1.1/DTD/svg11.dtd">
<svg version="1.1" id="Layer_1" xmlns="http://www.w3.org/2000/svg" xmlns:xlink="http://www.w3.org/1999/xlink" x="0px" y="0px"
	 width="688.082px" height="737.535px" viewBox="0 0 688.082 737.535" enable-background="new 0 0 688.082 737.535"
	 xml:space="preserve">
<g id="Layer_4">
	<polygon fill="#000C4B" points="131.826,6.857 209.533,19.292 289.315,53.483 328.689,80.423 376.349,119.795 403.292,166.421 
		412.304,187.207 417.607,209.66 414.177,240.847 410.746,256.75 417.607,272.654 423.533,287.312 425.402,303.217 425.402,312.26 
		425.402,335.648 439.435,353.112 465.633,387.916 499.623,480.974 510.851,532.117 504.924,576.71 528.626,596.671 
		551.703,628.791 567.609,644.072 632.16,644.072 681.746,632.535 672.66,644.714 643.482,653.792 563.242,661.537 539.542,667.773 
		552.326,681.496 574.467,707.064 570.726,726.71 470.621,667.769 409.498,646.564 348.685,605.71 338.386,556.162 340.646,538.056 
		328.105,514.027 323.115,488.455 326.404,460.085 329.269,423.177 324.258,383.512 316.566,354.669 293.177,309.762 
		296.294,292.298 308.769,269.534 264.799,249.887 152.532,204.044 131.826,206.539 11.574,257.06 5.65,248.952 20.619,184.397 
		23.425,140.114 39.954,122.026 86.692,74.306 93.73,63.024 92.345,38.138 96.71,19.739 114.486,6.857 	"/>
</g>
<g id="Layer_1_1_">
	<polygon fill="#E2C374" points="291.628,296.655 341.074,306.304 380.388,296.655 399.443,277.842 413.433,265.541 422.97,285.922 
		427.181,315.952 425.402,335.647 404.51,357.196 369.295,364.914 326.603,355.025 303.687,335.247 291.628,305.82 	"/>
	<g>
		<g>
			<path fill="#0A8F00" d="M334.297,87.917c-3.339,2.119-6.9,3.824-10.345,5.678c-3.455,1.859-7.276,2.988-10.838,4.67
				c-4.93,2.327-9.528,5.534-14.555,7.996c-4.172,2.044-7.662,4.782-11.729,6.914c-5.224,2.738-11.265,2.878-16.693,5.246
				c-1.819,0.792-3.39,2.309-5.12,3.057c-2.334,1.007-4.896,1.044-7.323,2.085c-5.858,2.51-10.143,6.762-16.034,9.286
				c-11.068,4.744-21.122,7.404-33.205,8.118c-13.072,0.771-28.889-2.767-40.328,4.564c-6.766,4.335-16.881,5.44-24.79,9.32
				c-9.29,4.557-19.188,9.341-28.971,13.512c-10.594,4.517-21.647,5.803-32.345,9.883c-6.883,2.627-13.294,6.302-20.08,9.195
				c-0.076-1.247-0.131-2.497-0.129-3.756c0.021-7.39,0.715-14.61,1.037-21.882c0.299-6.752-1.236-13.313-0.525-19.971
				c0.811-7.565,1.516-15.112,2.268-22.705c0.29-2.926,0.546-6.2,1.164-9.049c0.71-3.266,3.806-7.893,5.607-10.59
				c7.729-11.569,2.949-8.648,11.396-18.91l2.725-4.443c-1.896,2.838-3.908,5.278-6.201,8.064
				c-8.447,10.262-13.643,23.05-22.885,32.59c-2.258,2.331-4.474,4.241-5.183,7.506c-0.618,2.85-0.874,6.125-1.164,9.05
				c-0.752,7.593-1.456,15.139-2.267,22.705c-0.712,6.658,0.823,13.217,0.524,19.97c-0.222,5.014-0.61,10.005-0.844,15.042
				c-0.105,2.269-0.187,4.545-0.191,6.841c-0.009,3.005,0.256,5.969,0.598,8.918c3.434-0.704,7.063-0.828,10.397-2.053
				c1.803-0.662,3.564-1.407,5.312-2.189c6.187-2.765,12.113-6.063,18.439-8.478c10.696-4.081,21.751-5.367,32.345-9.883
				c9.782-4.17,19.681-8.954,28.971-13.512c7.909-3.879,18.024-4.984,24.79-9.319c11.439-7.331,27.256-3.793,40.328-4.566
				c12.083-0.713,22.137-3.373,33.205-8.117c5.894-2.525,10.176-6.778,16.034-9.287c2.427-1.04,4.989-1.077,7.323-2.085
				c1.73-0.748,3.301-2.264,5.12-3.056c5.43-2.367,11.471-2.507,16.693-5.246c4.066-2.131,7.558-4.869,11.729-6.914
				c5.024-2.462,9.625-5.669,14.555-7.996c3.562-1.682,7.383-2.811,10.838-4.67c3.443-1.853,7.007-3.559,10.345-5.679
				c4.823-3.061,6.998-7.346,10.676-11.266L334.297,87.917z"/>
			<path fill="#0A8F00" d="M85.484,76.133c0.746-1.12,1.477-2.295,2.197-3.586L85.484,76.133z"/>
		</g>
	</g>
	<path fill="#FFFFFD" d="M22.707,249.481c0-9.792,1.322-19.154,1.313-28.961c-0.007-6.443,0.557-13.042,1.65-19.357
		c0.877-5.061,2.933-9.563,3.619-14.693c1.229-9.175,0.31-18.946,0.414-28.27c0.056-4.885,1.043-8.371,2.723-12.876
		c1.61-4.322,1.388-9.394,3.609-13.446c3.508-6.391,12.133-13.258,13.324-20.442c-4.109,2.699-7.746,6.909-11.323,10.265
		c-4.003,3.755-10.669,8.516-13.337,13.39c-3.922,7.163-4.586,19.512-5.5,27.844c-0.941,8.595,1.842,17.217,0.468,25.692
		c-1.592,9.82-5.012,19.573-6.896,29.684c-1.627,8.735-5.732,17.23-7.456,25.902c-1.181,5.936-2.69,10.047,4.646,10.077
		c5.206,0.022,7.681-3.052,12.31-4.809"/>
	<path fill="#FFFFFD" d="M19.208,238.112c4.017-0.824,7.207-4.421,11.423-5.707c5.729-1.749,11.69-3.384,17.447-5.322
		c11.683-3.933,23.054-8.925,34.227-14.214c3.375-1.597,6.546-4.079,9.876-5.78c6.613-3.381,13.484-3.409,20.283-5.368
		c5.851-1.686,11.543-3.7,17.313-5.601c5.022-1.653,9.846-5.162,14.572-6.874c5.515-1.996,11.217-3.566,16.578-5.774
		c2.961-1.222,6.33-3.41,9.366-3.988c7.515-1.428,17.076,0.126,24.779,0.032c6.884-0.083,12.969-2.014,19.573-3.499
		c10.662-2.396,21.761-3.938,32.308-7.439c23.06-7.657,46.693-20.157,66.545-34c7.009-4.888,13.604-9.103,21.351-13.02
		c4.027-2.037,16.988-9.873,20.19-7.169c8.863,7.479-11.875,16.167-16.635,17.369c-16.59,4.192-29.289,12.55-42.736,22.397
		c-15.236,11.163-34.123,23.168-52.955,25.352c-8.519,0.988-16.659,3.983-25.252,4.821c-6.92,0.674-13.473,1.292-20.24,3.083
		c-13.208,3.496-27.459,4.933-40.163,9.464c-11.681,4.167-22.277,10.232-33.732,14.199c-9.404,3.255-17.783,6.516-27.156,9.631
		c-10.786,3.584-21.56,8.814-32.488,12.945c-10.089,3.814-20.46,9.314-30.991,11.575c-5.614,1.206-10.826,2.985-16.463,4.201
		c-0.853-2.816-2.106-6.54-0.877-9.5c3.453,0.75,3.469-1.911,5.608-3.563"/>
	<path fill="#FFFFFD" d="M379.037,439.935c3.283,2.111,3.99,6.313,6.679,9.088c2.08,2.15,7.147,5.074,9.623,6.795
		c5.352,3.721,11.696,4.537,18.584,5.67c18.256,3.002,38.032,6.998,56.34,11.316c8.389,1.977,18.492,3.557,24.988,9.049
		c7.448,6.299,6.862,17.529,9.532,26.35c-8.953-5.377-16.012-8.697-27.17-8.697c-6.776,0-12.477,0.695-18.295-2.262
		c-4.252-2.158-7.561-5.557-12.358-7.189c-9.66-3.289-22.261-0.791-33.06-0.818c-13.338-0.033-23.281,1.717-32.691-7.609
		c-0.59-9.121-1.315-33.029-14.36-28.867c-6.855,2.189-12.33,10.066-18.662,13.865c-3.299,1.982-6.869,3.432-10.043,5.799
		c-1.592,1.188-6.627,7.738-8.592,7.828c-4.742,0.215-4.084-11.65-3.922-15.631c0.329-8.102,0.602-15.379,7.395-19.926
		c12.506-8.369,27.529-10.508,37.266-22.543c1.9-2.351,1.57-4.16,4.521-4.723c0.375,3.835,1.781,6.887,2.174,10.867
		c0.414,4.188-1.156,8.938,1.369,12.326"/>
	<path fill="#FFFFFD" d="M417.381,643.294c11.403,8.414,33.715-2.324,46.559-3.574c13.912-1.355,30.129,4.525,43.693,9.014
		c9.957,3.295,25.646,1.125,35.149-2.701c6.354-2.555,7.992-6.861,14.359-4.502c4.088,1.516,13.373,6.805,12.924,12.035
		c-0.527,6.098-13.018,9.283-18.299,9.734c-10.877,0.928-22.238-0.752-33.016-2.236c-14.662-2.02-29.119,1.592-43.753,2.121
		c-21.127,0.764-42.334-8.551-59.674-19.207"/>
	<path fill="#FFFFFD" d="M305.088,270.127c7.987,5.053,20.217,6.499,29.864,6.847c6.093,0.22,9.677-1.838,13.441,1.903
		c2.93,2.912,3.66,7.421,7.395,10.182c1.211-6.219,9.185-4.983,12.976-8.816c3.506-3.544,5.744-10.687,8.217-14.925
		c2.029-3.478,2.109-14.328,5.652-16.431c4-2.374,6.094,3.885,7.823,7.815c8.441-4.266,18.804-9.795,24.046-17.901
		c0.702,5.302-3.763,19.347-7.171,23.638c-2.877,3.623-7.176,2.021-9.534,4.313c-2.048,1.989-2.054,8.558-2.863,11.042
		c-1.734,5.307-4.691,17.367-10.385,19.922c-5.414,2.427-18.691-0.473-24.679-0.065c1.822,1.699,1.466,3.07,1.945,5.238
		c-6.887,0.727-12.254,3.63-18.918,3.375c-5.943-0.228-12.107-3.505-17.789-6.183c-6.352-2.995-13.182-2.892-15.231-8.865
		c-1.396-4.069-6.791-16.557-3.421-19.72"/>
	<path fill="#0A8F00" d="M254.419,245.477c11.146,1.357,22.599-4.534,33.379-5.478c11.718-1.026,22.275-5.639,33.604-6.742
		c3.021,12.713,12.113,13.578,22.045,8.131c7.438-4.079,20.441-12.313,25.521-19.173c3.071-4.145,3.08-6.887,7.979-9.642
		c1.922-1.082,5.39-1.229,6.896-3.354c1.582-2.233,0.391-5.811,1.817-8.266c3.683-6.333,6.113-2.571,10.49,0.551
		c3.777,2.696,4.371,4.609,10.537,2.901c1.965-0.543,6.088-2.697,7.854-4.08c4.681,11.572,6.353,19.855,2.048,31.386
		c-6.572,0.52-11.703-0.922-18.38,0.069c-2.618,0.389-5.508,1.043-8.254,1.183c-2.442,0.123-5.063-0.78-8.114-0.391
		c-0.158,5.362,3.102,12.283-0.054,15.502c-1.327,1.357-8.002,2.658-10.319,4.23c-3.365,2.283-6.515,5.182-9.896,7.549
		c-3.453,2.416-12.237,10.882-16.377,10.818c-4.586-0.07-5.432-7.497-8.631-11.487c-4.104-5.12-5.971-5.167-13.523-4.81
		c-8.252,0.39-13.977,5.168-21.946,6.214c-7.085,0.927-17.796-0.921-24.23-3.301c-5.158-1.907-8.802-5.943-13.51-8.276
		c-2.096-1.037-4.749-1.324-6.882-2.168"/>
	<path fill="#0A8F00" d="M489.275,442.673c-4.361-1.439-9.77-1.35-14.381-1.369c-9.326-0.039-16.016-1.855-25.402-3.322
		c-14.602-2.279-29.381-1.693-43.563-5.465c-8.703-2.313-17.67-6.248-24.654-11.869c-8.291-6.674-10.738-16.297-13.299-26.488
		c-6.982-0.707-15.107,7.774-21.807,9.784c-4.412,1.324-10.732,3.548-15.63,3.058c-1.528-6.974-5.239-13.428-7.393-20.369
		c15.779,1.244,26.811-17.838,41.439-19.188c1.223,6.588-2.343,7.283,1.475,12.75c2.109,3.021,5.232,6.342,7.992,8.573
		c7.914,6.397,18.699,11.315,27.608,15.573c8.839,4.228,16.662,4.011,26.023,4.781c5.539,0.457,10.051,2.062,15.746,2.054
		c8.252-0.013,20.52-0.048,25.233-8.097c0.037,0.357-1.354-0.733-1.25-0.635c7.693-3.736,17.953,30.986,19.117,36.803"/>
	<path fill="#0A8F00" d="M505.708,564.552c-3.531,1.65-7.212-0.354-10.921-0.719c-5.965-0.588-12.008,0.463-17.819,0.734
		c-13.761,0.643-24.674-0.189-37.619-4.143c-6.484-1.979-18.887-5.154-22.152-12.119c-1.682-3.588-0.305-9.932-0.348-13.895
		c-0.047-4.332-1.609-7.404-1.777-11.406c-13.58,7.717-27.367,17.703-40.844,24.982c-10.266,5.547-23.717,15.77-36.168,13.725
		c-1.029-5.902,1.404-12.287,1.301-18.385c-0.045-2.576-1.363-5.412-0.736-8.217c1.214-5.418,1.111-3.719,5.49-5.479
		c11.795-4.744,26.252-5.578,38.215-10.805c7.607-3.324,14.531-8.605,21.357-13.184c4.732-3.174,13.109-12.678,16.465-6.807
		c2.723,4.76-2.049,13.506-0.717,18.469c1.518,5.65,11.094,11.688,17.043,13.613c14.721,4.766,32.182,6.246,47.559,6.926
		c8.506,0.377,16.558-4.686,24.357-3.332c0.262,10.137-0.965,20.242-1.314,30.037"/>
	<path fill="#0A8F00" d="M473.527,636.449c10.123,3.178,20.871-5.645,30.107-9.279c7.52-2.961,25.153-6.855,25.948-16.637
		c-11.215-0.574-18.536-4.121-29.477-8.066c-4.836-1.744-10.904-3.871-16.006-3.676c-5.295,0.203-7.527,3.139-12.115,5.512
		c-7.225,3.736-15.953,4.732-22.922,8.336c-7.031,3.637-12.875,6.934-21.363,8.742c-11.846,2.527-24.592,4.535-36.758,5.482
		c-4.955,0.385-23.137,3.564-26.711-0.291c-1.24-1.338-0.611-9.309-0.295-11.352c1.174-7.584,5.207-16.135,13.043-17.648
		c6.922-1.34,14.18,1.598,21.07,1.898c20.28,0.887,39.979-1.123,60.231-1.301c0.543,4.441-1.926,9.869-2.539,14.355
		c-1.219,8.898-1.086,8.695,3.425,12.945c3.991,3.764,10.975,9.064,15.727,11.66"/>
	<path fill="#FFFFFD" d="M416.695,573.453c4.476,2.807,7.556,6.154,11.072,9.436c7.953,7.41,16.455,6.504,27.229,7.002
		c9.279,0.428,18.259,1.885,27.699,1.23c9.486-0.658,23.949-6.213,31.056,0.1c5.997,5.328,7.227,9.654,1.711,15.236
		c-7.023,7.104-8.347,4.945-16.925,5.188c-4.403,0.127-7.858,2.652-12.106,3.498c-4.969,0.99-10.209,0.305-15.479,0.748
		c-10.959,0.922-25.08,5.146-35.598-0.082c-1.623-0.807-4.25-5.203-5.072-6.502c-4.795-0.158-7.889-4.564-12.727-5.186
		c-0.254-4.537-2.996-12.658-8.103-12.775c-5.139-0.115-15.938,9.936-20.168,13.072c-5.034,3.74-9.842,10.889-15.729,13.027
		c-6.176,2.24-11.455-1.73-16.432-5.131c-4.498-3.074-10.544-6.617-10.271-12.811c0.266-6.088,9.969-8.963,15.748-11.672
		c14.143-6.631,30.793-13.258,43.121-23.436c3.949-3.26,8.172-7.408,10.336-11.945c-0.158,6.555-0.09,12.563-1.557,18.846
		c0.146,0.797,0.647,1.061,1.506,0.785"/>
</g>
<g id="Layer_3">
	<path d="M674.804,625.263c-10.015,1.201-19.621,5.41-29.582,7.48c-25.59,5.328-51.422,9.869-77.408,3.305
		c-13.959-3.525-15.26-8.801-6.731-19.971c7.788-10.205,5.62-16.711-7.013-19.416c-5.668-1.213-12.34,0.434-17.293-1.902
		c-8.934-4.211-17.918-9.439-24.789-16.326c-2.715-2.725-0.061-11.051,0.537-16.785c1.555-14.77,9.188-28.406,0.773-44.629
		c-6.904-13.311-7.513-29.766-11.91-44.525c-4.435-14.881-10.121-29.383-15.222-44.066c-10.088-29.055-18.418-58.701-43.131-80.363
		c-8.168-7.155-18.309-16.963-14.055-30.211c6.984-21.759-2.887-40.271-8.891-59.748c-1.793-5.822-4.338-12.887-2.604-18.066
		c7.713-23.009,2.939-43.505-4.207-66.309c-10.102-32.25-27.83-57.875-53.219-77.522c-40.338-31.218-79.938-64.152-130.843-78.47
		c-34.32-9.66-68.377-19.759-104.532-17.387c-5.554,0.367-11.716,2.082-16.273,5.145C88.574,18.817,85.148,32.93,93.73,63.024
		c1.205-5.979,1.125-11.784,3.535-16.244c5.278-9.764-6.354-25.98,9.942-30.391c11.505-3.11,24.127-2.102,36.255-2.902
		c0.96-0.063,1.962,0.055,2.905,0.271c23.66,5.313,47.379,10.389,70.962,16.035c52.196,12.494,92.044,46.292,133.034,77.961
		c6.988,5.398,8.369,9.757-2.881,13.731c-9.397,3.314-17.262,10.972-25.805,16.709c28.252-10.235,53.91-4.546,68.598,15.246
		c1.447,1.953,4.105,4.232,3.853,6.026c-2.621,18.33,12.94,28.748,18.657,43.423c6.853,17.588-2.998,31.917-6.938,47.425
		c-0.865,3.409-3.479,6.371-6.229,11.191c-5.746-8.341-10.522-15.269-13.948-20.246c4.479-9.741,8.1-17.61,11.719-25.479
		c-19.771,4.502-26.277,26.281-16.851,42.756c3.111,5.435,7.388,10.513,9.078,16.346c1.16,4.006,0.234,10.523-2.463,13.176
		c-2.383,2.348-8.891,2.162-12.897,0.91c-19.502-6.086-28.234-23.503-36.017-39.632c-6.959-14.43-16.065-25.309-29.713-32.191
		c-15.965-8.048-32.65-14.654-48.91-22.131c-3.92-1.804-7.401-4.571-9.113-5.651c23.287-16.969,45.654-33.27,68.019-49.572
		c-3.502,1.595-7.43,2.616-10.443,4.869c-33.396,24.959-70.813,37.56-112.543,38.097c-8.154,0.104-16.771,1.567-24.319,4.56
		c-38.537,15.284-76.755,31.379-115.17,46.97c-14.449,5.865-27.718,16.414-46.749,12.604c1.996-14.749,9.204-41.242,11.507-56.264
		c0.271,0.009,0.543,0.021,0.815,0.031c1.597-13.333,4.029-26.632,4.58-40.007c0.316-7.688,0.884-12.124,2.887-14.087
		c3.937-7.573,12.406-12.335,18.463-18.407c9.73-9.752,18.617-20.303,27.468-30.845C78.66,82.97,82.59,78.063,87.2,74.303
		c-0.169,0-0.337,0.002-0.508,0.002c-0.139,0.204-0.518,0.681-0.96,1.088c-18.8,17.274-37.974,34.166-56.211,52.016
		c-5.486,5.363-10.959,13.035-11.918,20.246c-1.872,14.051-0.548,28.525-0.548,42.822c0.147,0.006,0.297,0.011,0.445,0.018
		c-4.278,19.778-13.559,51.228-17.487,70.19c1.354,1.339,2.713,2.675,4.069,4.012c18.107-7.179,36.4-13.924,54.271-21.644
		c24.405-10.545,48.229-22.489,72.891-32.364c6.607-2.647,16.234-2.098,22.963,0.666c26.729,10.981,52.67,23.855,79.272,35.158
		c17.857,7.592,36.659,13,54.393,20.84c7.718,3.41,16.52,9.77,3.196,18.813c-2.598,1.76-4.938,6.846-4.363,9.814
		c2.281,11.78,5.936,23.278,8.769,34.957c4.596,18.926,28.074,28.628,25.092,51.312c-0.021,0.145,2.139,1.004,3.519,1.334
		c1.569,13.332,3.586,26.297,5.186,39.596c2.508-0.516,5.018-1.029,7.527-1.543c-4.181-12.709-8.359-25.414-12.539-38.122
		c-0.426-5.957-0.851-11.916-1.418-19.925c11.416,3.07,20.532,4.804,29.02,8.144c3.719,1.466,7.584,5.728,8.896,9.563
		c5.162,15.091,10.235,30.336,13.393,45.916c1.158,5.705-1.117,14.867-5.27,18.363c-11.379,9.576-24.586,16.984-37.949,25.83
		c-1.566-3.924-2.83-7.088-4.525-11.322c-13.281,29.955-14.979,56.736,13.67,80.711c1.066-5.52,2.463-9.83,2.636-14.197
		c0.416-10.711,0.143-21.443,0.379-32.166c0.475-21.766,9.241-31.311,32.686-34.908c0.332,6.836,1.945,13.818,0.715,20.264
		c-2.627,13.729,4,20.637,15.451,25.229c2.688,1.08,5.109,2.811,7.748,4.037c10.672,4.98,16.678,12.262,15.414,25.072
		c-1.336,13.557-0.518,27.34-2.109,40.85c-0.565,4.803-4.643,10.01-8.526,13.438c-8.754,7.73-18.051,14.992-27.845,21.344
		c-3.686,2.391-11.002,4.006-13.77,1.992c-5.951-4.326-11.869-10.525-14.453-17.242c-4.545-11.807-6.578-24.582-10.012-38.344
		c-0.955,4.629-2.234,8.563-2.519,12.574c-2.088,29.316,19.974,64.938,47.617,75.117c18.148,6.688,37.164,11.004,55.39,17.498
		c14.331,5.109,28.653,10.846,41.918,18.209c32.666,18.146,64.719,37.393,100.071,57.979c7.799-33.588-13.946-49.373-31.268-70.781
		c33.828-4.672,64.396-8.893,93.885-12.965c-2.127-0.83-5.758-2.25-10.275-4.014c7.729-3.141,13.8-7.168,20.203-7.787
		c6.756-0.65,14.324,4.01,20.607,2.498c5.373-1.295,9.434-8.041,14.076-12.375C683.642,629.667,678.898,624.775,674.804,625.263z
		 M338.922,519.119c-15.746-15.801-15.711-21.293,1.729-34.4C340.01,497.474,339.521,507.187,338.922,519.119z M513.57,599.451
		c0.437,0.43-4.338,9.016-7.485,9.625c-8.978,1.73-18.369,1.305-27.603,1.729c-6.813-0.014-13.621,0.014-20.434-0.02
		c-24.945-0.123-39.142-10.699-40.781-39.061c-1.361-23.51,2.738-47.424,5.697-70.992c0.407-3.242,9.262-8.779,12.416-7.75
		c17.739,5.771,36.01,11.441,51.817,20.939c6.892,4.146,10.736,17.047,11.797,26.439
		C501.302,560.775,496.482,582.541,513.57,599.451z M450.385,378.587c1.125,1.435-3.041,7.019-4.756,10.686
		c-7.902-7.227-16.273-14.012-23.556-21.816c-5.096-5.458-10.854-12.027-0.729-22.23
		C431.734,356.894,441.566,367.343,450.385,378.587z M272.533,246.888c-35.207-12.863-72.284-21.196-107.967-45.382
		c43.072-18.268,76.924,0.127,112.871,12.986c41.119,14.71,55.506,50.489,77.313,87.21c-13.277-2.306-23.972-4.168-34.669-6.024
		c0.132-1.884,0.261-3.767,0.394-5.652c5.195-0.494,10.391-0.986,17.309-1.65C319.656,267.099,296.82,255.757,272.533,246.888z
		 M300.867,319.836c-2.032-5.99-2.965-12.353-4.039-16.961c17.824,3.85,33.867,9.206,50.179,10.203
		c12.088,0.736,25.709-1.884,36.416-7.364c8.157-4.179,12.789-15.216,19.045-23.156c2.754-3.503,5.646-6.894,8.477-10.333
		c2.215,3.413,5.328,6.554,6.449,10.298c2.219,7.4,3.67,15.083,4.848,22.738c4.336,28.261-2.317,40.606-28.469,51.004
		C368.515,366.311,312.609,354.465,300.867,319.836z M397.685,477.873c-14.791,1.188-17.73-5.199-18.346-16.963
		c-0.736-14.055-0.707-28.271-3.004-42.09c-1.869-11.24-6.779-21.966-10.146-32.98c-1.176-3.848-1.768-7.873-2.258-10.105
		c13.412-5.117,24.799-10.3,36.715-13.523c3.711-1.001,10.801,2.07,12.947,5.438c4.596,7.213,5.477,17.042,10.699,23.532
		c4.875,6.059,12.957,10.877,20.514,12.844c3.449,0.898,9.027-6.355,15.816-11.592c17.456,32.691,28.852,69.303,40.922,108.613
		c-22.076-7.596-38.912-14.938-56.507-18.979C429.683,478.537,413.304,476.619,397.685,477.873z M398.172,621.71
		c-4.125-4.328-13.744-10.818-3.445-19.074c9.106-7.303,16.047-6.313,24.873,2.535c12.217,12.244,26.516,22.553,40.602,32.748
		c8.498,6.15,18.287,10.523,27.496,15.691C453.011,655.861,422.22,646.964,398.172,621.71z M565.789,711.953
		c-19.7-9.613-38.407-18.742-57.116-27.871c0.727-1.408,1.446-2.814,2.172-4.223C536.029,679.041,568.795,690.457,565.789,711.953z
		 M465.417,623.533c43.515-22.877,72.867,3.254,100.849,30.688C547.292,662.634,482.824,643.361,465.417,623.533z"/>
</g>
</svg>
