<?xml version="1.0" encoding="utf-8"?>
<!-- Generator: Adobe Illustrator 16.0.0, SVG Export Plug-In . SVG Version: 6.00 Build 0)  -->
<!DOCTYPE svg PUBLIC "-//W3C//DTD SVG 1.1//EN" "http://www.w3.org/Graphics/SVG/1.1/DTD/svg11.dtd">
<svg version="1.1" id="Layer_1" xmlns="http://www.w3.org/2000/svg" xmlns:xlink="http://www.w3.org/1999/xlink" x="0px" y="0px"
	 width="688.082px" height="737.535px" viewBox="0 0 688.082 737.535" enable-background="new 0 0 688.082 737.535"
	 xml:space="preserve">
<g id="Layer_4">
	<polygon fill="#2F85F4" points="131.845,6.857 209.553,19.291 289.335,53.483 328.708,80.423 376.369,119.795 403.308,166.421 
		412.324,187.207 417.626,209.66 414.197,240.846 410.765,256.751 417.626,272.654 423.552,287.312 425.422,303.215 
		425.422,312.259 425.422,335.648 439.455,353.111 465.652,387.916 499.642,480.974 510.871,532.115 504.945,576.71 
		528.644,596.669 551.722,628.791 567.629,644.07 632.179,644.07 681.765,632.533 672.679,644.712 643.501,653.792 563.261,661.535 
		539.558,667.771 552.345,681.492 574.486,707.062 570.746,726.708 470.64,667.769 409.517,646.562 348.705,605.708 338.406,556.16 
		340.666,538.054 328.126,514.027 323.135,488.455 326.424,460.083 329.289,423.177 324.277,383.512 316.586,354.669 
		293.197,309.762 296.314,292.298 308.789,269.533 264.818,249.886 152.552,204.045 131.845,206.538 11.594,257.059 5.669,248.951 
		20.639,184.397 23.445,140.114 39.973,122.026 86.712,74.307 93.749,63.024 92.364,38.138 96.73,19.739 114.506,6.857 	"/>
</g>
<g id="Layer_1_1_">
	<polygon fill="#E2C374" points="291.648,296.654 341.094,306.303 380.408,296.654 399.463,277.841 413.453,265.542 422.99,285.922 
		427.201,315.951 425.422,335.648 404.529,357.196 369.314,364.913 326.623,355.024 303.707,335.247 291.648,305.82 	"/>
	<g>
		<g>
			<path fill="#FFFFFF" d="M334.316,87.917c-3.338,2.119-6.897,3.824-10.344,5.677c-3.455,1.859-7.277,2.989-10.836,4.67
				c-4.931,2.328-9.531,5.534-14.558,7.997c-4.171,2.043-7.662,4.78-11.728,6.912c-5.225,2.739-11.266,2.878-16.695,5.246
				c-1.818,0.792-3.389,2.308-5.119,3.056c-2.335,1.008-4.896,1.045-7.323,2.085c-5.857,2.509-10.142,6.763-16.033,9.288
				c-11.069,4.743-21.123,7.403-33.206,8.116c-13.071,0.771-28.889-2.766-40.327,4.565c-6.767,4.335-16.882,5.442-24.79,9.319
				c-9.291,4.558-19.189,9.341-28.971,13.513c-10.595,4.517-21.647,5.802-32.346,9.883c-6.884,2.625-13.294,6.301-20.08,9.195
				c-0.077-1.247-0.131-2.497-0.129-3.756c0.021-7.391,0.715-14.61,1.037-21.882c0.299-6.753-1.236-13.314-0.524-19.971
				c0.811-7.564,1.516-15.111,2.267-22.703c0.29-2.927,0.546-6.201,1.165-9.051c0.71-3.264,3.805-7.893,5.606-10.59
				c7.729-11.569,2.949-8.648,11.396-18.909l2.725-4.444c-1.896,2.838-3.907,5.278-6.2,8.064
				c-8.447,10.262-13.644,23.05-22.886,32.59c-2.258,2.331-4.473,4.242-5.182,7.506c-0.619,2.85-0.875,6.124-1.164,9.051
				c-0.752,7.593-1.457,15.138-2.267,22.705c-0.712,6.657,0.822,13.217,0.522,19.97c-0.221,5.012-0.608,10.006-0.843,15.042
				c-0.105,2.269-0.187,4.545-0.192,6.842c-0.008,3.005,0.257,5.969,0.6,8.919c3.433-0.704,7.063-0.828,10.396-2.055
				c1.803-0.661,3.565-1.407,5.313-2.188c6.186-2.765,12.112-6.063,18.438-8.478c10.697-4.082,21.751-5.366,32.346-9.883
				c9.78-4.171,19.68-8.955,28.971-13.513c7.908-3.879,18.023-4.984,24.79-9.319c11.438-7.33,27.256-3.793,40.327-4.563
				c12.083-0.714,22.137-3.374,33.206-8.116c5.893-2.526,10.176-6.779,16.033-9.288c2.428-1.041,4.988-1.077,7.323-2.085
				c1.73-0.748,3.301-2.264,5.119-3.056c5.431-2.368,11.472-2.507,16.695-5.246c4.065-2.132,7.557-4.868,11.728-6.914
				c5.025-2.461,9.627-5.667,14.558-7.996c3.559-1.682,7.381-2.811,10.836-4.67c3.445-1.854,7.006-3.558,10.344-5.677
				c4.826-3.063,7-7.349,10.676-11.268L334.316,87.917z"/>
			<path fill="#FFFFFF" d="M85.504,76.133c0.746-1.119,1.478-2.294,2.196-3.586L85.504,76.133z"/>
		</g>
	</g>
	<path fill="#FFD101" d="M22.727,249.481c0-9.792,1.321-19.154,1.312-28.962c-0.007-6.443,0.558-13.042,1.65-19.357
		c0.878-5.062,2.933-9.564,3.619-14.693c1.229-9.175,0.311-18.946,0.415-28.269c0.056-4.885,1.043-8.372,2.723-12.876
		c1.61-4.32,1.387-9.394,3.609-13.446c3.507-6.39,12.133-13.259,13.323-20.442c-4.108,2.699-7.746,6.909-11.323,10.265
		c-4.002,3.755-10.668,8.515-13.338,13.39c-3.921,7.163-4.586,19.512-5.498,27.845c-0.942,8.594,1.842,17.216,0.467,25.692
		c-1.592,9.82-5.013,19.573-6.896,29.685c-1.627,8.735-5.732,17.23-7.456,25.901c-1.181,5.936-2.689,10.047,4.646,10.077
		c5.207,0.021,7.68-3.053,12.309-4.809"/>
	<path fill="#FFD101" d="M19.229,238.112c4.016-0.824,7.207-4.421,11.422-5.708c5.729-1.748,11.69-3.383,17.447-5.322
		c11.683-3.932,23.055-8.924,34.227-14.213c3.375-1.598,6.545-4.079,9.876-5.781c6.614-3.38,13.485-3.408,20.284-5.367
		c5.849-1.685,11.543-3.7,17.313-5.601c5.023-1.653,9.845-5.162,14.572-6.874c5.514-1.996,11.217-3.566,16.576-5.775
		c2.964-1.221,6.332-3.409,9.369-3.987c7.514-1.427,17.075,0.126,24.779,0.034c6.884-0.084,12.969-2.016,19.572-3.5
		c10.661-2.397,21.762-3.939,32.309-7.439c23.059-7.657,46.692-20.158,66.544-34.001c7.008-4.888,13.604-9.104,21.35-13.02
		c4.027-2.036,16.988-9.872,20.191-7.169c8.863,7.479-11.875,16.167-16.635,17.37c-16.593,4.191-29.289,12.549-42.736,22.397
		c-15.238,11.162-34.124,23.168-52.955,25.353c-8.521,0.987-16.66,3.982-25.252,4.82c-6.921,0.674-13.473,1.292-20.242,3.083
		c-13.207,3.496-27.458,4.933-40.162,9.465c-11.68,4.167-22.278,10.232-33.731,14.198c-9.403,3.255-17.783,6.515-27.156,9.631
		c-10.787,3.584-21.561,8.814-32.489,12.945c-10.089,3.814-20.46,9.314-30.991,11.576c-5.613,1.205-10.825,2.985-16.464,4.201
		c-0.851-2.814-2.104-6.542-0.876-9.501c3.452,0.75,3.468-1.911,5.609-3.563"/>
	<path fill="#FFD101" d="M379.056,439.935c3.283,2.111,3.99,6.313,6.678,9.086c2.08,2.15,7.15,5.076,9.623,6.795
		c5.353,3.721,11.695,4.539,18.584,5.67c18.256,3.002,38.033,6.998,56.34,11.318c8.39,1.977,18.492,3.555,24.986,9.047
		c7.449,6.301,6.865,17.529,9.535,26.35c-8.951-5.377-16.013-8.695-27.17-8.695c-6.777,0-12.478,0.693-18.296-2.262
		c-4.252-2.16-7.561-5.559-12.358-7.191c-9.662-3.289-22.26-0.791-33.058-0.816c-13.338-0.035-23.282,1.715-32.692-7.611
		c-0.59-9.119-1.316-33.029-14.363-28.865c-6.854,2.188-12.328,10.064-18.658,13.865c-3.301,1.98-6.87,3.43-10.045,5.797
		c-1.592,1.188-6.627,7.738-8.592,7.828c-4.742,0.215-4.084-11.65-3.922-15.631c0.33-8.104,0.602-15.377,7.396-19.926
		c12.505-8.369,27.527-10.51,37.267-22.541c1.897-2.352,1.567-4.16,4.518-4.723c0.375,3.835,1.781,6.887,2.174,10.865
		c0.414,4.189-1.155,8.939,1.369,12.326"/>
	<path fill="#FFD101" d="M417.4,643.292c11.404,8.414,33.715-2.322,46.562-3.574c13.909-1.355,30.129,4.527,43.69,9.016
		c9.957,3.295,25.648,1.123,35.15-2.701c6.352-2.557,7.992-6.859,14.358-4.504c4.088,1.516,13.373,6.805,12.925,12.035
		c-0.527,6.098-13.019,9.285-18.3,9.734c-10.877,0.928-22.237-0.752-33.016-2.236c-14.662-2.02-29.119,1.594-43.752,2.123
		c-21.127,0.764-42.332-8.553-59.674-19.207"/>
	<path fill="#FFD101" d="M305.107,270.126c7.988,5.054,20.217,6.5,29.863,6.848c6.094,0.22,9.676-1.839,13.44,1.904
		c2.933,2.911,3.662,7.419,7.396,10.181c1.211-6.22,9.184-4.984,12.975-8.816c3.506-3.545,5.744-10.688,8.217-14.926
		c2.029-3.478,2.109-14.327,5.652-16.43c4-2.373,6.094,3.885,7.824,7.815c8.441-4.266,18.803-9.795,24.045-17.9
		c0.703,5.303-3.762,19.348-7.17,23.638c-2.875,3.624-7.176,2.022-9.535,4.313c-2.047,1.988-2.053,8.557-2.863,11.042
		c-1.733,5.306-4.69,17.367-10.385,19.922c-5.414,2.428-18.688-0.474-24.678-0.066c1.822,1.699,1.467,3.071,1.945,5.238
		c-6.888,0.729-12.255,3.629-18.918,3.375c-5.941-0.228-12.105-3.505-17.787-6.183c-6.354-2.995-13.185-2.892-15.234-8.865
		c-1.395-4.069-6.791-16.558-3.42-19.72"/>
	<path fill="#FFFFFF" d="M254.439,245.477c11.146,1.357,22.598-4.534,33.378-5.478c11.717-1.026,22.276-5.639,33.604-6.742
		c3.02,12.714,12.112,13.58,22.047,8.131c7.436-4.078,20.438-12.311,25.52-19.174c3.07-4.144,3.08-6.886,7.979-9.641
		c1.922-1.082,5.389-1.229,6.896-3.354c1.582-2.231,0.392-5.811,1.818-8.266c3.682-6.333,6.115-2.572,10.49,0.55
		c3.776,2.697,4.37,4.61,10.538,2.902c1.964-0.544,6.087-2.697,7.853-4.081c4.68,11.571,6.352,19.854,2.047,31.388
		c-6.572,0.52-11.703-0.923-18.379,0.068c-2.619,0.389-5.508,1.044-8.254,1.183c-2.443,0.122-5.064-0.781-8.113-0.392
		c-0.16,5.364,3.101,12.283-0.055,15.503c-1.328,1.356-8,2.656-10.32,4.23c-3.365,2.282-6.514,5.181-9.895,7.549
		c-3.453,2.417-12.238,10.882-16.377,10.819c-4.586-0.07-5.433-7.496-8.632-11.487c-4.104-5.12-5.969-5.167-13.522-4.81
		c-8.252,0.39-13.976,5.17-21.947,6.213c-7.083,0.928-17.794-0.92-24.23-3.3c-5.157-1.907-8.802-5.943-13.51-8.275
		c-2.096-1.038-4.749-1.324-6.882-2.168"/>
	<path fill="#FFFFFF" d="M489.295,442.671c-4.361-1.439-9.769-1.352-14.382-1.367c-9.325-0.039-16.016-1.857-25.401-3.322
		c-14.603-2.281-29.381-1.695-43.563-5.465c-8.703-2.314-17.67-6.25-24.653-11.871c-8.291-6.673-10.738-16.294-13.3-26.488
		c-6.979-0.707-15.106,7.777-21.807,9.787c-4.412,1.324-10.732,3.547-15.629,3.055c-1.529-6.971-5.24-13.428-7.394-20.369
		c15.779,1.246,26.813-17.836,41.439-19.186c1.223,6.588-2.342,7.283,1.475,12.75c2.109,3.021,5.232,6.342,7.994,8.574
		c7.912,6.398,18.697,11.314,27.607,15.574c8.838,4.227,16.662,4.008,26.022,4.779c5.539,0.455,10.052,2.062,15.748,2.053
		c8.25-0.01,20.519-0.047,25.232-8.096c0.039,0.356-1.354-0.733-1.25-0.635c7.693-3.736,17.953,30.986,19.119,36.803"/>
	<path fill="#FFFFFF" d="M505.726,564.55c-3.531,1.65-7.211-0.354-10.92-0.719c-5.965-0.588-12.008,0.465-17.82,0.736
		c-13.76,0.643-24.674-0.191-37.619-4.145c-6.483-1.979-18.887-5.152-22.151-12.119c-1.683-3.586-0.306-9.93-0.349-13.895
		c-0.047-4.33-1.608-7.404-1.776-11.404c-13.58,7.715-27.367,17.701-40.843,24.982c-10.268,5.545-23.719,15.77-36.17,13.723
		c-1.026-5.902,1.404-12.285,1.302-18.385c-0.045-2.576-1.363-5.412-0.736-8.217c1.213-5.416,1.111-3.719,5.492-5.479
		c11.791-4.744,26.25-5.576,38.213-10.805c7.609-3.324,14.531-8.605,21.359-13.182c4.729-3.174,13.104-12.68,16.463-6.809
		c2.723,4.76-2.05,13.506-0.718,18.471c1.519,5.65,11.095,11.686,17.043,13.611c14.722,4.768,32.183,6.246,47.558,6.928
		c8.508,0.377,16.561-4.688,24.361-3.332c0.26,10.135-0.968,20.24-1.316,30.035"/>
	<path fill="#FFFFFF" d="M473.547,636.449c10.122,3.178,20.87-5.645,30.106-9.279c7.521-2.961,25.154-6.855,25.949-16.639
		c-11.215-0.574-18.537-4.121-29.477-8.064c-4.837-1.746-10.904-3.873-16.007-3.68c-5.293,0.205-7.526,3.141-12.114,5.514
		c-7.228,3.738-15.953,4.732-22.922,8.338c-7.029,3.635-12.875,6.932-21.363,8.742c-11.847,2.527-24.592,4.533-36.758,5.48
		c-4.955,0.387-23.138,3.564-26.711-0.291c-1.24-1.338-0.611-9.309-0.296-11.352c1.175-7.582,5.207-16.135,13.043-17.648
		c6.923-1.342,14.183,1.6,21.07,1.898c20.281,0.889,39.979-1.121,60.232-1.299c0.545,4.439-1.927,9.867-2.539,14.355
		c-1.22,8.896-1.086,8.693,3.424,12.943c3.992,3.766,10.975,9.064,15.727,11.662"/>
	<path fill="#FFD101" d="M416.715,573.453c4.475,2.805,7.555,6.154,11.073,9.434c7.953,7.41,16.453,6.504,27.229,7.002
		c9.279,0.428,18.26,1.885,27.697,1.23c9.487-0.656,23.95-6.211,31.059,0.102c5.998,5.328,7.225,9.652,1.709,15.234
		c-7.022,7.107-8.346,4.945-16.924,5.188c-4.404,0.127-7.859,2.652-12.105,3.498c-4.971,0.99-10.209,0.305-15.479,0.75
		c-10.959,0.92-25.08,5.146-35.596-0.084c-1.625-0.807-4.253-5.203-5.074-6.5c-4.795-0.16-7.89-4.564-12.728-5.188
		c-0.254-4.535-2.996-12.658-8.102-12.775c-5.14-0.115-15.938,9.936-20.168,13.072c-5.035,3.74-9.842,10.891-15.729,13.027
		c-6.176,2.24-11.455-1.73-16.432-5.131c-4.498-3.074-10.543-6.617-10.271-12.809c0.267-6.09,9.97-8.965,15.748-11.674
		c14.144-6.631,30.795-13.258,43.121-23.434c3.949-3.262,8.172-7.41,10.336-11.945c-0.157,6.555-0.088,12.561-1.557,18.844
		c0.146,0.799,0.648,1.061,1.506,0.785"/>
</g>
<g id="Layer_3">
	<path d="M674.824,625.261c-10.016,1.201-19.621,5.41-29.582,7.484c-25.59,5.324-51.424,9.865-77.405,3.301
		c-13.962-3.525-15.263-8.801-6.734-19.971c7.791-10.205,5.623-16.711-7.012-19.414c-5.668-1.213-12.341,0.434-17.293-1.904
		c-8.933-4.209-17.918-9.439-24.789-16.326c-2.716-2.727-0.062-11.051,0.539-16.785c1.553-14.77,9.186-28.406,0.771-44.629
		c-6.904-13.309-7.512-29.766-11.91-44.525c-4.434-14.881-10.121-29.383-15.221-44.064c-10.088-29.055-18.416-58.701-43.129-80.364
		c-8.17-7.154-18.31-16.962-14.056-30.211c6.984-21.758-2.889-40.271-8.893-59.746c-1.793-5.822-4.338-12.887-2.605-18.066
		c7.716-23.009,2.941-43.506-4.204-66.311c-10.103-32.248-27.828-57.874-53.22-77.522C319.743,64.99,280.144,32.056,229.24,17.739
		c-34.324-9.662-68.379-19.76-104.535-17.388c-5.555,0.366-11.716,2.08-16.272,5.145C88.594,18.817,85.168,32.929,93.749,63.023
		c1.206-5.978,1.125-11.782,3.535-16.243c5.28-9.764-6.354-25.981,9.943-30.392c11.506-3.109,24.128-2.101,36.255-2.9
		c0.96-0.064,1.963,0.053,2.905,0.269c23.66,5.313,47.381,10.39,70.963,16.034c52.194,12.495,92.043,46.292,133.034,77.962
		c6.987,5.397,8.369,9.756-2.881,13.73c-9.398,3.316-17.261,10.973-25.806,16.711c28.252-10.235,53.91-4.548,68.599,15.244
		c1.446,1.954,4.104,4.232,3.852,6.026c-2.621,18.33,12.941,28.747,18.66,43.422c6.85,17.587-3,31.918-6.939,47.425
		c-0.864,3.409-3.479,6.371-6.229,11.19c-5.746-8.341-10.521-15.269-13.949-20.246c4.48-9.74,8.101-17.609,11.719-25.478
		c-19.77,4.502-26.276,26.28-16.85,42.756c3.111,5.435,7.389,10.513,9.078,16.345c1.16,4.007,0.233,10.525-2.463,13.176
		c-2.384,2.347-8.892,2.162-12.898,0.911c-19.502-6.085-28.234-23.503-36.016-39.633c-6.959-14.429-16.066-25.308-29.715-32.191
		c-15.963-8.048-32.648-14.654-48.908-22.131c-3.921-1.803-7.402-4.571-9.113-5.65c23.286-16.97,45.654-33.271,68.017-49.574
		c-3.5,1.596-7.43,2.617-10.442,4.87c-33.398,24.96-70.813,37.559-112.543,38.096c-8.153,0.104-16.771,1.568-24.319,4.56
		c-38.537,15.284-76.754,31.379-115.169,46.971c-14.45,5.864-27.718,16.413-46.749,12.604c1.996-14.749,9.203-41.243,11.505-56.265
		c0.272,0.011,0.544,0.023,0.816,0.033c1.598-13.334,4.029-26.632,4.58-40.007c0.316-7.689,0.885-12.124,2.887-14.088
		c3.937-7.573,12.406-12.335,18.464-18.407c9.729-9.752,18.617-20.303,27.466-30.845c3.644-4.339,7.574-9.247,12.185-13.006
		c-0.17,0-0.338,0.002-0.509,0.002c-0.14,0.203-0.517,0.682-0.961,1.087c-18.799,17.275-37.972,34.166-56.21,52.016
		c-5.485,5.363-10.959,13.035-11.919,20.247c-1.871,14.05-0.548,28.522-0.548,42.821c0.149,0.006,0.298,0.011,0.447,0.018
		c-4.28,19.779-13.56,51.228-17.489,70.189c1.356,1.339,2.714,2.675,4.07,4.013c18.106-7.18,36.4-13.924,54.271-21.644
		c24.405-10.545,48.229-22.49,72.892-32.365c6.606-2.648,16.233-2.098,22.963,0.666c26.728,10.981,52.67,23.857,79.271,35.158
		c17.859,7.591,36.659,12.999,54.395,20.839c7.719,3.411,16.518,9.77,3.194,18.812c-2.597,1.761-4.938,6.847-4.362,9.813
		c2.281,11.781,5.935,23.281,8.768,34.958c4.597,18.926,28.074,28.629,25.093,51.311c-0.021,0.145,2.137,1.006,3.518,1.334
		c1.57,13.334,3.586,26.297,5.186,39.596c2.509-0.514,5.019-1.029,7.527-1.545c-4.18-12.707-8.359-25.411-12.539-38.119
		c-0.424-5.958-0.85-11.917-1.418-19.926c11.416,3.072,20.533,4.805,29.021,8.146c3.717,1.464,7.584,5.726,8.896,9.562
		c5.162,15.092,10.236,30.336,13.394,45.916c1.157,5.707-1.117,14.867-5.269,18.363c-11.381,9.578-24.588,16.984-37.951,25.83
		c-1.565-3.924-2.83-7.088-4.524-11.322c-13.281,29.957-14.979,56.736,13.67,80.713c1.065-5.52,2.465-9.83,2.635-14.197
		c0.416-10.713,0.144-21.445,0.379-32.166c0.476-21.768,9.242-31.313,32.687-34.91c0.332,6.838,1.946,13.82,0.715,20.266
		c-2.627,13.727,4,20.637,15.451,25.229c2.688,1.08,5.108,2.809,7.748,4.039c10.672,4.977,16.678,12.258,15.414,25.07
		c-1.337,13.557-0.519,27.34-2.109,40.85c-0.566,4.801-4.641,10.01-8.527,13.438c-8.754,7.732-18.051,14.992-27.844,21.344
		c-3.687,2.389-11.002,4.004-13.771,1.992c-5.95-4.326-11.868-10.527-14.452-17.244c-4.545-11.805-6.578-24.582-10.013-38.344
		c-0.953,4.631-2.231,8.566-2.518,12.576c-2.088,29.318,19.973,64.936,47.617,75.117c18.147,6.688,37.164,11,55.391,17.498
		c14.33,5.109,28.652,10.844,41.916,18.209c32.666,18.146,64.719,37.393,100.072,57.977c7.801-33.586-13.947-49.371-31.267-70.781
		c33.826-4.67,64.396-8.891,93.884-12.963c-2.127-0.832-5.759-2.25-10.275-4.016c7.729-3.139,13.799-7.166,20.203-7.787
		c6.756-0.65,14.324,4.01,20.606,2.5c5.373-1.297,9.437-8.043,14.076-12.377C683.664,629.666,678.92,624.773,674.824,625.261z
		 M338.941,519.117c-15.746-15.801-15.711-21.291,1.73-34.4C340.029,497.472,339.541,507.185,338.941,519.117z M513.592,599.449
		c0.434,0.43-4.341,9.016-7.488,9.625c-8.978,1.73-18.369,1.305-27.603,1.729c-6.813-0.014-13.62,0.014-20.432-0.02
		c-24.947-0.123-39.145-10.699-40.783-39.061c-1.36-23.508,2.738-47.424,5.699-70.994c0.406-3.238,9.26-8.775,12.414-7.75
		c17.74,5.775,36.008,11.443,51.818,20.941c6.891,4.146,10.735,17.047,11.797,26.439
		C501.324,560.775,496.501,582.541,513.592,599.449z M450.404,378.587c1.127,1.436-3.041,7.02-4.756,10.686
		c-7.904-7.227-16.271-14.011-23.553-21.815c-5.097-5.459-10.857-12.027-0.732-22.231
		C431.754,356.894,441.585,367.344,450.404,378.587z M272.552,246.888c-35.207-12.863-72.283-21.196-107.967-45.383
		c43.072-18.267,76.923,0.127,112.871,12.987c41.119,14.71,55.506,50.489,77.313,87.209c-13.277-2.307-23.971-4.167-34.668-6.024
		c0.131-1.884,0.26-3.767,0.393-5.652c5.195-0.495,10.392-0.986,17.31-1.649C319.676,267.098,296.839,255.756,272.552,246.888z
		 M300.886,319.836c-2.031-5.989-2.965-12.353-4.039-16.961c17.824,3.85,33.867,9.206,50.178,10.203
		c12.088,0.736,25.709-1.883,36.416-7.364c8.158-4.178,12.789-15.216,19.045-23.156c2.754-3.502,5.646-6.894,8.478-10.333
		c2.215,3.414,5.328,6.554,6.448,10.298c2.22,7.4,3.671,15.083,4.849,22.738c4.336,28.261-2.318,40.605-28.469,51.006
		C368.535,366.311,312.629,354.465,300.886,319.836z M397.708,477.871c-14.794,1.188-17.732-5.197-18.349-16.961
		c-0.736-14.059-0.707-28.271-3.004-42.091c-1.869-11.239-6.779-21.964-10.145-32.981c-1.177-3.846-1.769-7.871-2.259-10.104
		c13.412-5.119,24.802-10.301,36.715-13.525c3.712-1,10.802,2.071,12.949,5.441c4.595,7.211,5.476,17.039,10.697,23.529
		c4.875,6.059,12.957,10.877,20.514,12.845c3.449,0.899,9.027-6.356,15.816-11.592c17.457,32.692,28.852,69.302,40.922,108.612
		c-22.076-7.594-38.912-14.936-56.504-18.98C429.701,478.535,413.324,476.617,397.708,477.871z M398.191,621.71
		c-4.123-4.33-13.744-10.82-3.445-19.076c9.107-7.303,16.048-6.311,24.873,2.535c12.218,12.246,26.517,22.553,40.603,32.75
		c8.5,6.15,18.287,10.521,27.496,15.689C453.031,655.859,422.24,646.964,398.191,621.71z M565.808,711.951
		c-19.701-9.613-38.408-18.742-57.117-27.869c0.728-1.41,1.447-2.816,2.172-4.225C536.049,679.039,568.814,690.455,565.808,711.951z
		 M465.437,623.533c43.514-22.879,72.867,3.252,100.848,30.688C547.312,662.632,482.844,643.359,465.437,623.533z"/>
</g>
</svg>
