<?xml version="1.0" encoding="utf-8"?>
<!-- Generator: Adobe Illustrator 16.0.0, SVG Export Plug-In . SVG Version: 6.00 Build 0)  -->
<!DOCTYPE svg PUBLIC "-//W3C//DTD SVG 1.1//EN" "http://www.w3.org/Graphics/SVG/1.1/DTD/svg11.dtd">
<svg version="1.1" id="Layer_1" xmlns="http://www.w3.org/2000/svg" xmlns:xlink="http://www.w3.org/1999/xlink" x="0px" y="0px"
	 width="688.082px" height="737.535px" viewBox="0 0 688.082 737.535" enable-background="new 0 0 688.082 737.535"
	 xml:space="preserve">
<g id="Layer_4">
	<polygon fill="#8383FF" points="132.061,6.8 209.763,19.271 289.528,53.5 328.888,80.458 376.533,119.854 403.45,166.491 
		412.455,187.281 417.745,209.737 414.303,240.921 410.864,256.824 417.718,272.731 423.636,287.391 425.499,303.297 
		425.494,312.34 425.484,335.729 439.509,353.2 465.688,388.014 499.635,481.087 510.839,532.236 504.893,576.828 528.583,596.798 
		551.647,628.929 567.544,644.218 632.095,644.248 681.686,632.732 672.594,644.91 643.415,653.974 563.171,661.679 
		539.466,667.906 552.245,681.632 574.376,707.212 570.624,726.857 470.546,667.869 409.434,646.636 348.641,605.753 
		338.364,556.199 340.634,538.093 328.102,514.06 323.126,488.486 326.427,460.119 329.309,423.212 324.317,383.544 
		316.638,354.698 293.271,309.78 296.397,292.317 308.882,269.559 264.92,249.891 152.673,203.997 131.967,206.482 11.692,256.945 
		5.772,248.834 20.77,184.287 23.598,140.007 40.135,121.926 86.896,74.228 93.938,62.949 92.563,38.063 96.939,19.665 
		114.721,6.792 	"/>
	<polygon fill="#FAEC24" points="119.01,141.049 122.903,139.481 119.88,143.283 121.156,146.766 117.886,145.727 114.779,149.453 
		115.788,145.004 112.592,143.817 116.483,142.111 117.614,137.655 	"/>
	<g>
		<g>
			<path fill="#9B9B9B" d="M108.873,143.54c-1.04,0.493-2.076,1.059-3.117,1.462c-8.768,3.41-17.296,8.087-25.397,14.959
				c-5.485,4.649-10.345,10.025-14.313,16.4c-4.146,6.662-6.706,13.541-7.779,20.61c-0.104,0.693-0.336,1.094-0.92,1.521
				c-2.813,2.053-5.641,3.049-8.481,3.483c-2.875,0.442-5.575,0.307-8.341-0.049c0.277-0.172,0.454-0.291,0.633-0.388
				c4.588-2.565,8.909-5.789,12.791-10.099c4.257-4.726,7.355-10.086,9.635-15.88c2.701-6.875,4.058-13.652,4.861-20.385
				c0.133-1.104,0.238-2.204,0.354-3.316c3.132-2.095,6.287-3.953,9.492-5.529c5.67-2.797,11.271-4.592,16.779-4.99
				c4.911-0.357,9.355,0.452,13.447,2.166c0.144,0.057,0.264,0.148,0.395,0.226C108.899,143.668,108.886,143.603,108.873,143.54z"/>
			<path fill="#9B9B9B" d="M102.618,154.498c-1.592,2.182-3.049,4.265-4.586,6.268c-2.722,3.549-5.611,6.913-8.883,9.773
				c-1.785,1.556-3.672,2.911-5.516,4.354c-0.289,0.228-0.535,0.348-0.757,0.073c-2.475-3.059-6.203-2.094-9.864,1.295
				c-2.609,2.415-4.651,5.33-6.398,8.483c-1.584,2.863-2.798,5.794-3.595,8.802c-0.027,0.103-0.083,0.204-0.26,0.329
				c0.066-0.821,0.101-1.636,0.205-2.46c0.611-4.749,2.459-9.333,5.283-13.777c4.183-6.576,9.453-11.527,15.404-15.434
				c6.139-4.027,12.338-6.395,18.558-7.676C102.288,154.507,102.358,154.515,102.618,154.498z"/>
			<path fill="#9B9B9B" d="M62.036,156.136c1.197,4.435,1.812,8.997,0.797,14.281c-0.975,5.088-3.4,9.711-6.926,13.949
				c-3.963,4.765-8.531,8.337-13.285,11.517c-1.382,0.918-2.781,1.78-4.178,2.672c-0.019-0.042-0.029-0.092-0.043-0.139
				c0.445-0.375,0.889-0.753,1.332-1.123c3.543-2.971,7.049-6.009,10.248-9.556c1.611-1.786,3.128-3.654,4.141-5.883
				c1.088-2.406,0.922-4.456-0.491-5.656c-0.938-0.79-1.908-1.536-2.882-2.284c-0.283-0.216-0.354-0.433-0.084-0.938
				c2.244-4.198,4.479-8.413,7.219-12.36c0.877-1.263,1.935-2.406,2.942-3.554C61.147,156.696,61.583,156.476,62.036,156.136z"/>
		</g>
	</g>
	<polygon fill="#FAEC24" points="97.858,129.319 101.752,127.753 98.726,131.554 100.002,135.036 96.733,134.001 93.625,137.723 
		94.633,133.276 91.442,132.089 95.328,130.386 96.461,125.93 	"/>
	<polygon fill="#FAEC24" points="99.624,168.22 103.52,166.65 100.494,170.45 101.767,173.939 98.499,172.901 95.391,176.623 
		96.401,172.172 93.206,170.989 97.095,169.283 98.229,164.828 	"/>
	<polygon fill="#FAEC24" points="59.422,165.32 61.76,164.377 59.943,166.659 60.708,168.754 58.744,168.132 56.88,170.364 
		57.486,167.694 55.57,166.982 57.903,165.959 58.583,163.284 	"/>
</g>
<g id="Layer_1_1_">
	<polygon fill="#E2C374" points="291.727,296.671 341.169,306.345 380.487,296.713 399.552,277.909 413.547,265.616 
		423.074,286.001 427.272,316.033 425.484,335.728 404.579,357.266 369.362,364.967 326.675,355.06 303.77,335.27 291.723,305.838 	
		"/>
</g>
<g id="Layer_3">
	<path d="M674.751,625.458c-10.016,1.197-19.622,5.4-29.586,7.469c-25.595,5.314-51.428,9.842-77.408,3.266
		c-13.959-3.531-15.258-8.807-6.727-19.975c7.795-10.199,5.632-16.707-7.002-19.416c-5.667-1.217-12.34,0.426-17.292-1.912
		c-8.929-4.215-17.911-9.447-24.78-16.338c-2.714-2.727-0.057-11.051,0.545-16.787c1.563-14.768,9.201-28.398,0.796-44.625
		c-6.899-13.314-7.498-29.771-11.892-44.533c-4.425-14.881-10.106-29.387-15.199-44.072c-10.075-29.061-18.389-58.709-43.093-80.383
		c-8.165-7.16-18.3-16.973-14.042-30.219c6.996-21.756-2.867-40.273-8.861-59.751c-1.791-5.823-4.331-12.89-2.598-18.067
		c7.727-23.006,2.962-43.504-4.175-66.313c-10.087-32.253-27.802-57.888-53.181-77.546C319.932,65.02,280.347,32.067,229.45,17.725
		C195.131,8.051,161.083-2.064,124.923,0.291c-5.554,0.363-11.718,2.076-16.276,5.137C88.803,18.739,85.372,32.85,93.938,62.948
		c1.209-5.979,1.132-11.782,3.543-16.241c5.285-9.762-6.341-25.984,9.958-30.388c11.507-3.104,24.128-2.09,36.257-2.884
		c0.959-0.063,1.963,0.055,2.904,0.272c23.658,5.322,47.375,10.41,70.955,16.066c52.188,12.52,92.022,46.337,132.998,78.023
		c6.983,5.401,8.365,9.762-2.89,13.73c-9.397,3.311-17.265,10.963-25.811,16.697c28.256-10.222,53.912-4.521,68.59,15.278
		c1.445,1.953,4.104,4.234,3.846,6.026c-2.627,18.328,12.933,28.753,18.644,43.432c6.84,17.592-3.016,31.917-6.962,47.422
		c-0.866,3.408-3.479,6.369-6.233,11.188c-5.743-8.342-10.515-15.274-13.938-20.251c4.482-9.739,8.106-17.607,11.729-25.473
		c-19.771,4.491-26.289,26.27-16.869,42.747c3.107,5.438,7.381,10.517,9.068,16.35c1.159,4.008,0.23,10.524-2.47,13.175
		c-2.382,2.347-8.891,2.158-12.898,0.903c-19.497-6.094-28.222-23.515-35.995-39.648c-6.953-14.433-16.055-25.315-29.697-32.205
		c-15.964-8.056-32.645-14.669-48.898-22.155c-3.921-1.804-7.401-4.572-9.111-5.654c23.293-16.959,45.669-33.248,68.04-49.54
		c-3.502,1.593-7.431,2.612-10.443,4.864c-33.412,24.943-70.832,37.525-112.563,38.044c-8.152,0.101-16.771,1.56-24.32,4.548
		c-38.545,15.266-76.768,31.344-115.19,46.917c-14.453,5.856-27.727,16.4-46.755,12.581c2.002-14.747,9.222-41.238,11.531-56.259
		c0.271,0.01,0.542,0.021,0.814,0.031c1.604-13.332,4.043-26.63,4.601-40.005c0.32-7.688,0.89-12.123,2.895-14.086
		c3.938-7.57,12.411-12.329,18.471-18.397c9.736-9.748,18.627-20.296,27.479-30.833c3.646-4.338,7.579-9.242,12.191-12.999
		c-0.17,0-0.34,0.001-0.509,0.001c-0.141,0.203-0.518,0.682-0.962,1.088C67.128,92.579,47.95,109.46,29.701,127.302
		c-5.487,5.36-10.964,13.029-11.927,20.24c-1.877,14.049-0.563,28.524-0.566,42.82c0.147,0.007,0.296,0.013,0.445,0.02
		c-4.289,19.777-13.584,51.22-17.523,70.18c1.357,1.342,2.714,2.677,4.068,4.016c18.112-7.17,36.408-13.905,54.283-21.617
		c24.41-10.533,48.242-22.467,72.906-32.33c6.608-2.645,16.235-2.091,22.964,0.677c26.722,10.994,52.656,23.881,79.255,35.196
		c17.854,7.599,36.649,13.015,54.383,20.864c7.717,3.413,16.515,9.777,3.188,18.812c-2.598,1.761-4.94,6.845-4.368,9.812
		c2.276,11.782,5.925,23.282,8.753,34.963c4.586,18.928,28.062,28.643,25.065,51.321c-0.021,0.146,2.139,1.009,3.52,1.337
		c1.563,13.334,3.572,26.297,5.165,39.6c2.509-0.514,5.019-1.027,7.528-1.541c-4.175-12.711-8.347-25.416-12.521-38.127
		c-0.424-5.957-0.845-11.916-1.41-19.924c11.416,3.075,20.533,4.813,29.017,8.157c3.719,1.467,7.582,5.731,8.894,9.568
		c5.153,15.093,10.22,30.339,13.37,45.92c1.156,5.707-1.125,14.867-5.276,18.359c-11.384,9.572-24.596,16.977-37.962,25.814
		c-1.564-3.926-2.829-7.09-4.521-11.324c-13.295,29.949-15.005,56.729,13.633,80.719c1.07-5.52,2.467-9.83,2.641-14.197
		c0.422-10.711,0.154-21.445,0.396-32.168c0.483-21.764,9.256-31.305,32.703-34.893c0.326,6.834,1.938,13.82,0.706,20.262
		c-2.637,13.73,3.986,20.643,15.438,25.238c2.688,1.082,5.107,2.811,7.744,4.041c10.67,4.984,16.672,12.27,15.402,25.08
		c-1.343,13.557-0.529,27.338-2.127,40.848c-0.568,4.801-4.647,10.008-8.533,13.436c-8.759,7.727-18.06,14.982-27.855,21.33
		c-3.686,2.389-11.002,3.998-13.77,1.982c-5.951-4.326-11.864-10.533-14.445-17.25c-4.539-11.807-6.563-24.584-9.994-38.346
		c-0.955,4.627-2.235,8.563-2.523,12.574c-2.102,29.314,19.941,64.945,47.583,75.139c18.146,6.695,37.16,11.018,55.381,17.523
		c14.33,5.117,28.649,10.857,41.91,18.23c32.657,18.162,64.701,37.422,100.045,58.021c7.814-33.582-13.924-49.379-31.233-70.797
		c33.829-4.654,64.399-8.859,93.89-12.92c-2.126-0.834-5.758-2.254-10.273-4.02c7.729-3.135,13.803-7.16,20.208-7.777
		c6.754-0.646,14.322,4.018,20.605,2.508c5.372-1.293,9.438-8.037,14.081-12.367C683.587,629.867,678.844,624.97,674.751,625.458z
		 M338.917,519.158c-15.738-15.813-15.701-21.301,1.745-34.4C340.014,497.511,339.522,507.226,338.917,519.158z M513.529,599.572
		c0.436,0.43-4.343,9.014-7.493,9.619c-8.977,1.729-18.369,1.297-27.601,1.717c-6.815-0.02-13.622,0.008-20.433-0.029
		c-24.947-0.135-39.14-10.719-40.765-39.076c-1.352-23.512,2.759-47.422,5.729-70.992c0.41-3.24,9.268-8.775,12.421-7.744
		c17.736,5.781,36.003,11.459,51.808,20.967c6.891,4.146,10.729,17.049,11.785,26.443
		C501.279,560.888,496.448,582.652,513.529,599.572z M450.446,378.679c1.126,1.436-3.045,7.02-4.763,10.684
		c-7.897-7.229-16.265-14.02-23.541-21.825c-5.093-5.462-10.853-12.034-0.722-22.231
		C431.805,356.978,441.634,367.432,450.446,378.679z M272.657,246.896c-35.203-12.878-72.274-21.229-107.946-45.432
		c43.079-18.248,76.923,0.164,112.865,13.039c41.11,14.73,55.481,50.515,77.272,87.245c-13.279-2.313-23.971-4.179-34.668-6.04
		c0.133-1.884,0.262-3.766,0.396-5.652c5.195-0.491,10.393-0.98,17.311-1.641C319.768,267.131,296.939,255.776,272.657,246.896z
		 M300.956,319.857c-2.028-5.99-2.961-12.354-4.031-16.962c17.822,3.857,33.863,9.222,50.173,10.227
		c12.088,0.741,25.712-1.872,36.421-7.347c8.16-4.176,12.796-15.211,19.055-23.148c2.756-3.5,5.65-6.891,8.481-10.328
		c2.213,3.415,5.325,6.558,6.444,10.302c2.217,7.399,3.662,15.085,4.836,22.74c4.325,28.262-2.336,40.604-28.489,50.991
		C368.583,366.364,312.682,354.492,300.956,319.857z M397.7,477.939c-14.791,1.18-17.727-5.207-18.339-16.973
		c-0.729-14.057-0.691-28.271-2.982-42.092c-1.864-11.24-6.771-21.967-10.13-32.983c-1.174-3.849-1.765-7.874-2.253-10.106
		c13.415-5.113,24.806-10.289,36.723-13.507c3.711-0.999,10.799,2.075,12.944,5.445c4.592,7.215,5.468,17.043,10.688,23.534
		c4.874,6.063,12.952,10.886,20.507,12.854c3.45,0.901,9.033-6.353,15.823-11.584c17.44,32.698,28.818,69.315,40.87,108.63
		c-22.071-7.605-38.904-14.955-56.496-19.006C429.696,478.617,413.317,476.691,397.7,477.939z M398.12,621.777
		c-4.123-4.33-13.739-10.826-3.438-19.076c9.111-7.299,16.051-6.305,24.871,2.545c12.211,12.252,26.506,22.568,40.586,32.77
		c8.496,6.154,18.281,10.529,27.49,15.703C452.942,655.953,422.157,647.041,398.12,621.777z M565.694,712.097
		c-19.696-9.623-38.4-18.76-57.104-27.898c0.726-1.408,1.448-2.814,2.174-4.221C535.948,679.171,568.71,690.603,565.694,712.097z
		 M465.366,623.63c43.521-22.857,72.865,3.287,100.832,30.736C547.219,662.771,482.762,643.466,465.366,623.63z"/>
</g>
</svg>
