<?xml version="1.0" encoding="utf-8"?>
<!-- Generator: Adobe Illustrator 16.0.0, SVG Export Plug-In . SVG Version: 6.00 Build 0)  -->
<!DOCTYPE svg PUBLIC "-//W3C//DTD SVG 1.1//EN" "http://www.w3.org/Graphics/SVG/1.1/DTD/svg11.dtd">
<svg version="1.1" id="Layer_1" xmlns="http://www.w3.org/2000/svg" xmlns:xlink="http://www.w3.org/1999/xlink" x="0px" y="0px"
	 width="688.082px" height="737.535px" viewBox="0 0 688.082 737.535" enable-background="new 0 0 688.082 737.535"
	 xml:space="preserve">
<g id="Layer_4">
	<polygon fill="#DE0301" points="131.845,6.898 209.554,19.332 289.335,53.523 328.708,80.463 376.371,119.836 403.31,166.461 
		412.326,187.247 417.626,209.701 414.197,240.886 410.765,256.791 417.626,272.694 423.552,287.353 425.424,303.257 425.424,312.3 
		425.424,335.689 439.458,353.153 465.652,387.955 499.644,481.013 510.871,532.158 504.945,576.751 528.646,596.71 551.722,628.83 
		567.629,644.113 632.181,644.113 681.765,632.572 672.679,644.753 643.504,653.832 563.261,661.576 539.56,667.814 
		552.347,681.535 574.488,707.103 570.748,726.75 470.642,667.808 409.519,646.603 348.707,605.75 338.406,556.201 340.667,538.095 
		328.126,514.066 323.136,488.494 326.426,460.125 329.289,423.216 324.277,383.553 316.586,354.71 293.197,309.803 
		296.316,292.339 308.791,269.574 264.82,249.927 152.552,204.085 131.845,206.58 11.595,257.1 5.67,248.992 20.64,184.438 
		23.446,140.155 39.974,122.066 86.712,74.347 93.75,63.064 92.365,38.179 96.731,19.78 114.507,6.898 	"/>
</g>
<g id="Layer_1_1_">
	<polygon fill="#E2C374" points="291.649,296.695 341.095,306.344 380.41,296.695 399.465,277.882 413.455,265.581 422.99,285.962 
		427.203,315.991 425.424,335.688 404.529,357.236 369.314,364.954 326.623,355.065 303.708,335.288 291.649,305.861 	"/>
	<g>
		<g>
			<path fill="#010000" d="M334.318,87.957c-3.34,2.119-6.899,3.824-10.344,5.678c-3.457,1.859-7.277,2.989-10.838,4.67
				c-4.931,2.328-9.531,5.534-14.556,7.997c-4.173,2.043-7.663,4.781-11.729,6.913c-5.225,2.739-11.266,2.878-16.694,5.246
				c-1.819,0.792-3.389,2.309-5.121,3.057c-2.333,1.008-4.896,1.046-7.322,2.085c-5.857,2.509-10.141,6.762-16.032,9.287
				c-11.07,4.744-21.123,7.403-33.206,8.117c-13.072,0.771-28.89-2.766-40.327,4.564c-6.769,4.335-16.883,5.44-24.791,9.32
				c-9.291,4.557-19.189,9.341-28.971,13.511c-10.595,4.518-21.646,5.803-32.345,9.884c-6.885,2.626-13.295,6.302-20.08,9.194
				c-0.078-1.246-0.133-2.497-0.129-3.755c0.021-7.391,0.715-14.611,1.036-21.883c0.299-6.752-1.237-13.312-0.523-19.97
				c0.811-7.565,1.514-15.112,2.266-22.705c0.291-2.926,0.547-6.201,1.166-9.05c0.709-3.266,3.803-7.892,5.605-10.59
				c7.729-11.569,2.95-8.648,11.397-18.909l2.724-4.444c-1.896,2.839-3.906,5.279-6.199,8.065
				c-8.447,10.261-13.645,23.05-22.886,32.589c-2.258,2.332-4.473,4.242-5.182,7.507c-0.619,2.85-0.875,6.124-1.165,9.05
				c-0.753,7.592-1.456,15.139-2.267,22.705c-0.714,6.657,0.821,13.217,0.523,19.97c-0.222,5.013-0.609,10.005-0.843,15.042
				c-0.105,2.27-0.188,4.546-0.193,6.841c-0.008,3.006,0.258,5.97,0.6,8.92c3.433-0.705,7.063-0.828,10.396-2.054
				c1.803-0.662,3.564-1.408,5.313-2.188c6.185-2.766,12.113-6.064,18.439-8.478c10.697-4.081,21.75-5.367,32.345-9.883
				c9.78-4.171,19.68-8.955,28.971-13.512c7.908-3.879,18.022-4.984,24.791-9.32c11.438-7.331,27.255-3.793,40.327-4.565
				c12.083-0.713,22.136-3.373,33.206-8.117c5.893-2.525,10.175-6.778,16.032-9.287c2.428-1.039,4.989-1.077,7.322-2.085
				c1.732-0.748,3.302-2.264,5.121-3.056c5.43-2.367,11.471-2.507,16.694-5.246c4.065-2.131,7.557-4.869,11.729-6.913
				c5.023-2.463,9.625-5.669,14.556-7.997c3.561-1.681,7.381-2.81,10.838-4.669c3.442-1.854,7.004-3.559,10.344-5.679
				c4.824-3.063,6.998-7.348,10.676-11.268L334.318,87.957z"/>
			<path fill="#010000" d="M85.504,76.173c0.747-1.119,1.479-2.294,2.197-3.586L85.504,76.173z"/>
		</g>
	</g>
	<path fill="#010000" d="M254.439,245.517c11.146,1.357,22.6-4.534,33.379-5.478c11.717-1.025,22.275-5.639,33.604-6.741
		c3.02,12.713,12.112,13.579,22.047,8.131c7.436-4.078,20.438-12.312,25.521-19.173c3.07-4.146,3.08-6.887,7.978-9.642
		c1.924-1.082,5.389-1.229,6.896-3.354c1.582-2.232,0.392-5.811,1.818-8.266c3.682-6.333,6.115-2.572,10.49,0.551
		c3.778,2.696,4.37,4.61,10.538,2.901c1.964-0.543,6.087-2.697,7.853-4.08c4.68,11.572,6.352,19.855,2.049,31.387
		c-6.572,0.52-11.705-0.922-18.381,0.068c-2.619,0.389-5.506,1.044-8.254,1.183c-2.443,0.123-5.064-0.78-8.113-0.391
		c-0.16,5.364,3.101,12.284-0.055,15.503c-1.328,1.356-8,2.657-10.318,4.23c-3.367,2.282-6.514,5.183-9.896,7.55
		c-3.453,2.416-12.238,10.882-16.377,10.818c-4.584-0.07-5.431-7.496-8.629-11.487c-4.105-5.119-5.972-5.166-13.523-4.81
		c-8.252,0.39-13.977,5.17-21.947,6.214c-7.084,0.928-17.796-0.921-24.232-3.301c-5.156-1.908-8.801-5.944-13.509-8.276
		c-2.095-1.037-4.749-1.324-6.882-2.168"/>
	<path fill="#010000" d="M489.295,442.712c-4.361-1.439-9.769-1.35-14.38-1.369c-9.327-0.037-16.018-1.855-25.403-3.322
		c-14.603-2.279-29.381-1.693-43.562-5.465c-8.703-2.313-17.672-6.248-24.655-11.869c-8.291-6.674-10.738-16.296-13.298-26.486
		c-6.981-0.709-15.108,7.775-21.807,9.785c-4.414,1.324-10.732,3.547-15.631,3.055c-1.529-6.971-5.24-13.428-7.394-20.369
		c15.781,1.246,26.813-17.836,41.439-19.186c1.223,6.588-2.34,7.283,1.477,12.75c2.107,3.021,5.232,6.342,7.992,8.574
		c7.912,6.398,18.699,11.316,27.609,15.575c8.838,4.225,16.662,4.008,26.021,4.778c5.539,0.457,10.052,2.063,15.748,2.053
		c8.252-0.01,20.519-0.047,25.232-8.096c0.039,0.357-1.354-0.731-1.248-0.634c7.693-3.735,17.953,30.987,19.117,36.804"/>
	<path fill="#010000" d="M505.728,564.591c-3.531,1.65-7.211-0.354-10.92-0.719c-5.967-0.588-12.01,0.463-17.82,0.734
		c-13.76,0.643-24.676-0.189-37.619-4.143c-6.485-1.979-18.889-5.156-22.153-12.119c-1.683-3.586-0.304-9.932-0.347-13.895
		c-0.049-4.332-1.61-7.404-1.778-11.406c-13.58,7.715-27.365,17.703-40.843,24.982c-10.268,5.547-23.719,15.771-36.17,13.725
		c-1.026-5.902,1.404-12.287,1.302-18.385c-0.045-2.576-1.363-5.414-0.734-8.215c1.211-5.42,1.111-3.721,5.49-5.48
		c11.793-4.742,26.25-5.576,38.213-10.803c7.609-3.324,14.533-8.605,21.359-13.186c4.731-3.172,13.106-12.678,16.465-6.807
		c2.721,4.76-2.052,13.506-0.718,18.471c1.517,5.65,11.093,11.688,17.041,13.611c14.722,4.768,32.183,6.248,47.56,6.926
		c8.506,0.379,16.559-4.686,24.358-3.332c0.261,10.139-0.967,20.242-1.315,30.039"/>
	<path d="M473.547,636.488c10.122,3.178,20.872-5.643,30.106-9.279c7.521-2.961,25.156-6.854,25.949-16.637
		c-11.215-0.574-0.277,3.369-11.215-0.574c-4.838-1.744-35.978,4.08-41.076,4.275c-5.293,0.201-6.813,1.045-11.4,3.418
		c-7.225,3.736-9.856-8.617-16.826-5.014c-7.03,3.637-12.877,6.934-21.364,8.742c-11.845,2.527-24.592,4.533-36.758,5.48
		c-4.955,0.387-23.138,3.566-26.709-0.291c-1.24-1.338-0.316,2.043,0,0c1.174-7.582,4.135-7.875,11.969-9.393
		c6.922-1.34,14.959-18.008,21.848-17.709c20.281,0.887,4.813-1.121,25.066-1.299c0.543,4.441,27.426,22.219,26.813,26.703
		c-1.219,8.9,4.729-3.652,9.238,0.598c3.992,3.764,10.977,9.064,15.729,11.662"/>
</g>
<g id="Layer_3">
	<path d="M674.824,625.302c-10.014,1.201-19.619,5.408-29.58,7.482c-25.592,5.326-51.424,9.867-77.407,3.303
		c-13.962-3.525-15.261-8.801-6.734-19.973c7.791-10.203,5.623-16.709-7.012-19.412c-5.668-1.215-12.341,0.432-17.293-1.904
		c-8.933-4.211-17.918-9.438-24.787-16.326c-2.718-2.727-0.063-11.051,0.537-16.787c1.555-14.768,9.188-28.402,0.772-44.627
		c-6.904-13.311-7.512-29.766-11.91-44.525c-4.434-14.881-10.123-29.383-15.223-44.064c-10.088-29.055-18.416-58.702-43.129-80.364
		c-8.168-7.155-18.31-16.963-14.056-30.211c6.984-21.758-2.889-40.271-8.891-59.747c-1.795-5.822-4.34-12.888-2.604-18.066
		c7.715-23.01,2.94-43.507-4.207-66.312c-10.103-32.249-27.828-57.874-53.22-77.521c-40.336-31.217-79.936-64.152-130.84-78.469
		c-34.324-9.66-68.378-19.759-104.535-17.386c-5.554,0.366-11.716,2.081-16.272,5.145C88.595,18.858,85.169,32.97,93.75,63.064
		c1.206-5.979,1.126-11.784,3.535-16.244c5.28-9.763-6.354-25.98,9.943-30.391c11.506-3.109,24.128-2.104,36.256-2.902
		c0.959-0.063,1.961,0.055,2.905,0.269c23.66,5.314,47.38,10.391,70.962,16.036c52.195,12.494,92.045,46.292,133.033,77.961
		c6.987,5.398,8.369,9.757-2.881,13.731c-9.396,3.315-17.261,10.972-25.806,16.709c28.252-10.235,53.912-4.546,68.599,15.246
		c1.448,1.952,4.106,4.232,3.852,6.024c-2.619,18.329,12.943,28.748,18.66,43.423c6.85,17.588-3,31.917-6.939,47.425
		c-0.864,3.409-3.477,6.371-6.229,11.191c-5.746-8.341-10.521-15.27-13.947-20.246c4.479-9.741,8.101-17.61,11.717-25.478
		c-19.77,4.502-26.274,26.28-16.85,42.756c3.111,5.434,7.389,10.512,9.078,16.346c1.16,4.006,0.233,10.524-2.463,13.175
		c-2.381,2.348-8.89,2.163-12.898,0.911c-19.5-6.086-28.231-23.504-36.016-39.633c-6.959-14.429-16.064-25.308-29.713-32.191
		c-15.966-8.048-32.649-14.653-48.908-22.131c-3.92-1.803-7.402-4.57-9.113-5.651c23.285-16.968,45.652-33.269,68.019-49.572
		c-3.502,1.595-7.431,2.616-10.443,4.869c-33.398,24.96-70.813,37.56-112.545,38.097c-8.152,0.104-16.771,1.567-24.318,4.56
		c-38.538,15.284-76.754,31.38-115.17,46.971c-14.449,5.864-27.717,16.413-46.748,12.603c1.995-14.748,9.203-41.242,11.505-56.263
		c0.271,0.01,0.543,0.021,0.815,0.031c1.598-13.333,4.028-26.632,4.58-40.007c0.317-7.688,0.885-12.123,2.887-14.087
		c3.938-7.574,12.406-12.336,18.464-18.407c9.729-9.753,18.617-20.303,27.466-30.845c3.644-4.339,7.574-9.246,12.185-13.005
		c-0.17,0-0.339,0.002-0.509,0.002c-0.139,0.203-0.516,0.681-0.961,1.087C66.954,92.709,47.782,109.6,29.542,127.45
		c-5.485,5.362-10.957,13.035-11.918,20.246c-1.871,14.051-0.547,28.524-0.547,42.821c0.148,0.006,0.297,0.012,0.446,0.018
		c-4.278,19.779-13.561,51.228-17.489,70.189c1.355,1.34,2.715,2.675,4.07,4.013c18.106-7.178,36.399-13.923,54.272-21.642
		c24.404-10.546,48.229-22.489,72.891-32.365c6.607-2.647,16.234-2.098,22.964,0.666c26.727,10.981,52.669,23.856,79.271,35.158
		c17.859,7.591,36.658,12.999,54.394,20.839c7.719,3.41,16.518,9.771,3.194,18.812c-2.596,1.76-4.938,6.847-4.362,9.814
		c2.283,11.78,5.936,23.279,8.77,34.958c4.595,18.925,28.074,28.629,25.091,51.312c-0.021,0.144,2.139,1.004,3.518,1.332
		c1.57,13.334,3.586,26.297,5.187,39.596c2.51-0.514,5.018-1.029,7.526-1.543c-4.18-12.709-8.356-25.414-12.539-38.121
		c-0.424-5.958-0.848-11.916-1.418-19.924c11.418,3.07,20.535,4.804,29.021,8.144c3.719,1.466,7.584,5.728,8.897,9.563
		c5.16,15.091,10.234,30.336,13.394,45.916c1.157,5.707-1.117,14.867-5.271,18.365c-11.379,9.576-24.588,16.982-37.949,25.83
		c-1.567-3.926-2.832-7.09-4.524-11.324c-13.283,29.957-14.98,56.736,13.67,80.713c1.066-5.521,2.463-9.83,2.633-14.197
		c0.416-10.713,0.146-21.445,0.379-32.168c0.478-21.766,9.244-31.311,32.687-34.906c0.332,6.834,1.946,13.818,0.717,20.262
		c-2.629,13.729,3.998,20.639,15.451,25.229c2.688,1.08,5.106,2.811,7.746,4.039c10.674,4.979,16.678,12.258,15.413,25.072
		c-1.336,13.557-0.518,27.338-2.106,40.848c-0.568,4.803-4.644,10.012-8.527,13.439c-8.756,7.729-18.053,14.99-27.846,21.342
		c-3.684,2.391-11,4.006-13.77,1.992c-5.949-4.324-11.867-10.525-14.451-17.244c-4.545-11.805-6.578-24.58-10.015-38.342
		c-0.953,4.629-2.231,8.564-2.518,12.576c-2.088,29.316,19.975,64.936,47.617,75.117c18.147,6.688,37.166,11,55.391,17.496
		c14.33,5.109,28.652,10.846,41.918,18.209c32.664,18.146,64.719,37.393,100.072,57.979c7.799-33.588-13.949-49.371-31.269-70.779
		c33.826-4.674,64.396-8.895,93.886-12.967c-2.129-0.83-5.761-2.25-10.275-4.014c7.727-3.141,13.797-7.166,20.203-7.787
		c6.754-0.65,14.322,4.01,20.604,2.498c5.373-1.295,9.437-8.041,14.078-12.377C683.664,629.707,678.92,624.814,674.824,625.302z
		 M338.943,519.158c-15.746-15.801-15.713-21.291,1.729-34.4C340.029,497.513,339.542,507.226,338.943,519.158z M513.592,599.49
		c0.434,0.43-4.338,9.016-7.488,9.623c-8.978,1.732-18.369,1.307-27.603,1.729c-6.813-0.014-13.62,0.016-20.432-0.02
		c-24.945-0.121-39.143-10.699-40.781-39.059c-1.36-23.51,2.736-47.424,5.697-70.994c0.406-3.24,9.262-8.777,12.416-7.75
		c17.738,5.773,36.008,11.443,51.816,20.941c6.891,4.145,10.735,17.047,11.799,26.439
		C501.324,560.814,496.504,582.58,513.592,599.49z M450.406,378.626c1.125,1.436-3.043,7.021-4.758,10.687
		c-7.902-7.226-16.271-14.011-23.553-21.815c-5.097-5.459-10.857-12.027-0.73-22.231
		C431.756,356.934,441.588,367.383,450.406,378.626z M272.552,246.928c-35.207-12.862-72.283-21.196-107.966-45.382
		c43.072-18.267,76.924,0.127,112.871,12.986c41.117,14.711,55.507,50.489,77.313,87.21c-13.279-2.307-23.971-4.167-34.67-6.024
		c0.133-1.884,0.26-3.765,0.393-5.651c5.195-0.495,10.394-0.986,17.31-1.65C319.676,267.14,296.841,255.797,272.552,246.928z
		 M300.886,319.876c-2.031-5.99-2.965-12.352-4.037-16.96c17.824,3.849,33.867,9.206,50.176,10.202
		c12.088,0.736,25.711-1.883,36.418-7.363c8.158-4.179,12.787-15.216,19.043-23.156c2.756-3.501,5.648-6.894,8.479-10.332
		c2.213,3.412,5.328,6.554,6.448,10.298c2.22,7.399,3.671,15.083,4.847,22.738c4.338,28.26-2.318,40.605-28.467,51.004
		C368.535,366.352,312.629,354.505,300.886,319.876z M397.708,477.912c-14.794,1.188-17.73-5.199-18.349-16.963
		c-0.736-14.057-0.705-28.271-3.004-42.09c-1.869-11.24-6.779-21.964-10.143-32.98c-1.177-3.848-1.771-7.873-2.259-10.105
		c13.412-5.118,24.8-10.3,36.713-13.523c3.714-1.001,10.802,2.071,12.949,5.439c4.595,7.212,5.476,17.041,10.697,23.531
		c4.877,6.058,12.957,10.876,20.514,12.844c3.451,0.898,9.029-6.355,15.816-11.592c17.457,32.691,28.854,69.303,40.922,108.611
		c-22.074-7.596-38.912-14.936-56.504-18.98C429.703,478.576,413.324,476.658,397.708,477.912z M398.193,621.75
		c-4.125-4.328-13.746-10.818-3.447-19.074c9.107-7.305,16.05-6.311,24.875,2.535c12.218,12.244,26.515,22.553,40.601,32.748
		c8.5,6.15,18.287,10.521,27.498,15.691C453.031,655.9,422.242,647.003,398.193,621.75z M565.808,711.992
		c-19.699-9.613-38.408-18.742-57.115-27.871c0.726-1.408,1.447-2.814,2.172-4.223C536.049,679.08,568.814,690.496,565.808,711.992z
		 M465.439,623.574c43.512-22.879,72.867,3.25,100.848,30.688C547.312,662.673,482.845,643.4,465.439,623.574z"/>
</g>
</svg>
