<?xml version="1.0" encoding="UTF-8" standalone="no"?>
<!-- Created with Inkscape (http://www.inkscape.org/) -->

<svg
   xmlns:dc="http://purl.org/dc/elements/1.1/"
   xmlns:cc="http://creativecommons.org/ns#"
   xmlns:rdf="http://www.w3.org/1999/02/22-rdf-syntax-ns#"
   xmlns:svg="http://www.w3.org/2000/svg"
   xmlns="http://www.w3.org/2000/svg"
   xmlns:sodipodi="http://sodipodi.sourceforge.net/DTD/sodipodi-0.dtd"
   xmlns:inkscape="http://www.inkscape.org/namespaces/inkscape"
   width="60mm"
   height="30mm"
   viewBox="0 0 60 30"
   version="1.1"
   id="svg8"
   inkscape:version="0.92.4 (5da689c313, 2019-01-14)"
   sodipodi:docname="cds.svg">
  <defs
     id="defs2" />
  <sodipodi:namedview
     id="base"
     pagecolor="#ffffff"
     bordercolor="#666666"
     borderopacity="1.0"
     inkscape:pageopacity="0.0"
     inkscape:pageshadow="2"
     inkscape:zoom="1.979899"
     inkscape:cx="258.36945"
     inkscape:cy="133.28833"
     inkscape:document-units="mm"
     inkscape:current-layer="layer1"
     showgrid="false"
     inkscape:window-width="1920"
     inkscape:window-height="996"
     inkscape:window-x="-8"
     inkscape:window-y="-8"
     inkscape:window-maximized="1" />
  <metadata
     id="metadata5">
    <rdf:RDF>
      <cc:Work
         rdf:about="">
        <dc:format>image/svg+xml</dc:format>
        <dc:type
           rdf:resource="http://purl.org/dc/dcmitype/StillImage" />
        <dc:title></dc:title>
      </cc:Work>
    </rdf:RDF>
  </metadata>
  <g
     inkscape:label="Capa 1"
     inkscape:groupmode="layer"
     id="layer1"
     transform="translate(0,-267)">
    <path
       style="fill:#0066ff;stroke-width:0.09806721"
       d="m 13.068886,296.7873 c -0.0065,-0.0471 -0.0054,-0.12185 0.0025,-0.16639 0.0077,-0.0444 -0.02499,-0.0567 -0.07267,-0.0272 -0.12195,0.0753 -0.65724,-0.54706 -0.623911,-0.72548 0.0162,-0.0868 -0.0043,-0.1069 -0.05016,-0.0491 -0.0427,0.054 -0.320358,0.10942 -0.617011,0.12311 -0.296654,0.0142 -0.638662,0.0477 -0.76002,0.0754 -0.121368,0.0277 -0.220654,0.006 -0.220654,-0.0496 0,-0.0549 0.09929,-0.10296 0.220654,-0.1069 0.175584,-0.006 0.187163,-0.0205 0.05668,-0.0735 -0.147802,-0.0601 -0.139394,-0.1165 0.08517,-0.57197 l 0.249154,-0.5053 -0.344921,-0.64957 -0.344918,-0.64957 0.357806,0.0601 c 0.196793,0.0331 0.446066,0.0869 0.553939,0.11966 0.260499,0.0789 0.824655,0.0866 0.777675,0.011 -0.06527,-0.10564 0.595816,-0.64255 0.734387,-0.59636 0.08986,0.0299 0.108394,3e-4 0.05685,-0.0908 -0.05416,-0.0957 -0.03388,-0.0924 0.06938,0.011 0.08023,0.0809 0.199943,0.40084 0.266014,0.71098 0.06608,0.31014 0.163709,0.56388 0.216958,0.56388 0.05326,0 0.07409,0.0368 0.04632,0.0817 -0.02779,0.045 0.01291,0.0817 0.09048,0.0817 0.07754,0 0.343252,0.10406 0.590468,0.23118 l 0.449484,0.23118 -0.325062,0.16809 c -0.178782,0.0924 -0.358173,0.14768 -0.398646,0.12264 -0.04048,-0.025 -0.07359,-0.005 -0.07359,0.0464 0,0.0505 -0.130735,0.1461 -0.290506,0.21229 -0.262097,0.10863 -0.296883,0.1767 -0.355715,0.69671 -0.03588,0.31702 -0.125792,0.62666 -0.199831,0.68813 -0.07404,0.0614 -0.139851,0.0732 -0.146243,0.0261 z m 24.012143,-11.569 c -0.03224,-0.0323 -0.0321,-0.12769 2.93e-4,-0.21223 0.0367,-0.0956 0.01891,-0.12878 -0.04718,-0.088 -0.109686,0.0679 -0.711717,-0.61527 -0.711717,-0.80755 0,-0.0702 -0.27822,-0.10847 -0.790084,-0.10847 h -0.79008 l 0.177162,-0.30165 c 0.09744,-0.16591 0.290262,-0.43764 0.428502,-0.60383 l 0.251339,-0.30215 -0.226395,-0.64655 c -0.269364,-0.76923 -0.261487,-0.69557 -0.07436,-0.69557 0.09059,0 0.124375,0.0461 0.08292,0.1132 -0.04548,0.0735 -0.02665,0.0864 0.05381,0.0367 0.06809,-0.042 0.387282,0.003 0.709315,0.10076 0.375182,0.11351 0.609178,0.14217 0.651377,0.0795 0.03621,-0.0539 0.269791,-0.2366 0.519036,-0.40614 l 0.453181,-0.30826 0.04671,0.72797 c 0.02568,0.40037 0.0972,0.78878 0.158893,0.86313 0.0617,0.0743 0.07946,0.17127 0.03947,0.2154 -0.03999,0.0442 -0.02324,0.0519 0.03723,0.0175 0.06047,-0.0345 0.209122,0.0233 0.330366,0.12846 0.121241,0.10517 0.30346,0.21753 0.404928,0.24975 0.2675,0.0848 0.226218,0.22861 -0.08521,0.29661 -0.148321,0.0324 -0.38838,0.10359 -0.533448,0.15841 -0.145077,0.0548 -0.299527,0.0803 -0.343238,0.0567 -0.09035,-0.0488 -0.43044,0.2778 -0.36129,0.34696 0.0248,0.0247 -0.03999,0.26894 -0.143944,0.54253 -0.103955,0.27359 -0.164694,0.52177 -0.13497,0.5515 0.02972,0.0297 0.03199,0.054 0.005,0.054 -0.02698,0 -0.07541,-0.0265 -0.107655,-0.0586 z m 0.712404,-2.5892 c 0,-0.054 -0.01946,-0.0981 -0.04325,-0.0981 -0.02379,0 -0.07052,0.0442 -0.103861,0.0981 -0.03333,0.054 -0.01385,0.0981 0.04325,0.0981 0.05712,0 0.10386,-0.0442 0.10386,-0.0981 z M 22.985284,272.02729 c 0,-0.0661 -0.03002,-0.0902 -0.06675,-0.0535 -0.08635,0.0863 -0.61972,-0.42297 -0.61972,-0.59179 0,-0.0709 -0.03309,-0.1217 -0.07355,-0.1132 -0.04045,0.008 -0.143881,-0.0157 -0.229838,-0.0537 -0.08596,-0.0381 -0.436417,-0.0241 -0.778791,0.031 -0.342378,0.0551 -0.639012,0.0838 -0.659186,0.0636 -0.02017,-0.0202 0.102617,-0.31264 0.272882,-0.64993 0.262753,-0.5205 0.292923,-0.64976 0.199523,-0.85477 -0.06052,-0.13288 -0.08365,-0.3247 -0.05137,-0.42637 0.03229,-0.1017 0.01464,-0.18488 -0.039,-0.18488 -0.114047,0 -0.405882,-0.27444 -0.405882,-0.38169 0,-0.0405 0.231685,-0.0405 0.514852,-1.8e-4 0.862368,0.1228 1.012216,0.10296 1.286018,-0.1709 0.142197,-0.14217 0.258541,-0.22451 0.258541,-0.18291 0,0.0416 0.09438,-0.0444 0.209757,-0.19103 0.257485,-0.32735 0.342991,-0.22643 0.435497,0.51396 0.03577,0.28633 0.123777,0.57934 0.195561,0.65111 0.07179,0.0718 0.09952,0.16153 0.06164,0.19941 -0.03788,0.0379 -0.02036,0.0542 0.03895,0.0362 0.05931,-0.0179 0.353802,0.0743 0.654427,0.20531 l 0.546591,0.23802 -0.51506,0.27124 c -0.283283,0.14925 -0.577772,0.28481 -0.654422,0.30137 -0.216777,0.0468 -0.276047,0.18269 -0.345695,0.79233 -0.03558,0.31134 -0.102995,0.58977 -0.149832,0.61871 -0.04682,0.029 -0.08516,-0.002 -0.08516,-0.0675 z m 14.146196,-1.16143 c -0.175295,-0.21115 -0.318721,-0.43016 -0.318721,-0.4867 0,-0.13319 -0.296114,-0.1975 -1.05258,-0.22855 l -0.611276,-0.025 0.403895,-0.61381 0.403895,-0.61381 -0.199877,-0.51396 c -0.29624,-0.76175 -0.344894,-0.91736 -0.252696,-0.80816 0.04555,0.054 0.137961,0.10249 0.205384,0.10784 0.06741,0.006 0.213449,0.0164 0.324506,0.0246 0.111055,0.008 0.181264,0.0482 0.156019,0.089 -0.02524,0.0409 0.267925,0.082 0.651499,0.0916 0.383571,0.009 0.643607,-0.0159 0.577857,-0.0567 -0.08196,-0.0507 3.72e-4,-0.17022 0.26177,-0.38032 l 0.381323,-0.30643 0.06161,0.4495 c 0.03388,0.24723 0.06162,0.59644 0.06162,0.77603 0,0.2878 0.06272,0.36666 0.528554,0.66465 0.527621,0.33751 0.80259,0.6036 0.506246,0.48988 -0.08604,-0.0331 -0.152194,-0.006 -0.152194,0.0606 0,0.0655 -0.06612,0.0937 -0.147093,0.0625 -0.08091,-0.031 -0.147108,-0.0172 -0.147108,0.031 0,0.0482 -0.165488,0.14028 -0.367753,0.2049 -0.469314,0.15004 -0.539037,0.21859 -0.577303,0.5681 -0.04016,0.36684 -0.204812,0.80113 -0.302875,0.79884 -0.04178,-8e-4 -0.2194,-0.17453 -0.394694,-0.38567 z"
       id="path21"
       inkscape:connector-curvature="0" />
  </g>
</svg>
