<?xml version="1.0" encoding="UTF-8" standalone="no"?>
<!-- Created with Inkscape (http://www.inkscape.org/) -->

<svg
   xmlns:dc="http://purl.org/dc/elements/1.1/"
   xmlns:cc="http://creativecommons.org/ns#"
   xmlns:rdf="http://www.w3.org/1999/02/22-rdf-syntax-ns#"
   xmlns:svg="http://www.w3.org/2000/svg"
   xmlns="http://www.w3.org/2000/svg"
   xmlns:sodipodi="http://sodipodi.sourceforge.net/DTD/sodipodi-0.dtd"
   xmlns:inkscape="http://www.inkscape.org/namespaces/inkscape"
   width="60mm"
   height="30mm"
   viewBox="0 0 60 30"
   version="1.1"
   id="svg68"
   inkscape:version="0.92.4 (5da689c313, 2019-01-14)"
   sodipodi:docname="mirincon.svg">
  <defs
     id="defs62" />
  <sodipodi:namedview
     id="base"
     pagecolor="#ffffff"
     bordercolor="#666666"
     borderopacity="1.0"
     inkscape:pageopacity="0.0"
     inkscape:pageshadow="2"
     inkscape:zoom="2.8"
     inkscape:cx="213.21975"
     inkscape:cy="99.077343"
     inkscape:document-units="mm"
     inkscape:current-layer="layer1"
     showgrid="false"
     inkscape:window-width="1920"
     inkscape:window-height="996"
     inkscape:window-x="-8"
     inkscape:window-y="-8"
     inkscape:window-maximized="1" />
  <metadata
     id="metadata65">
    <rdf:RDF>
      <cc:Work
         rdf:about="">
        <dc:format>image/svg+xml</dc:format>
        <dc:type
           rdf:resource="http://purl.org/dc/dcmitype/StillImage" />
        <dc:title></dc:title>
      </cc:Work>
    </rdf:RDF>
  </metadata>
  <g
     inkscape:label="Capa 1"
     inkscape:groupmode="layer"
     id="layer1"
     transform="translate(0,-267)">
    <path
       inkscape:connector-curvature="0"
       id="path4547"
       d="M 22.748086,280.62939 H 58.116013"
       style="fill:none;fill-rule:evenodd;stroke:#000000;stroke-width:0.49832383;stroke-linecap:butt;stroke-linejoin:miter;stroke-miterlimit:4;stroke-dasharray:none;stroke-opacity:1" />
    <text
       xml:space="preserve"
       style="font-style:normal;font-weight:normal;font-size:0.33643678px;line-height:0px;font-family:sans-serif;letter-spacing:0px;word-spacing:0px;fill:#808080;fill-opacity:1;stroke:none;stroke-width:0.02691494px;stroke-linecap:butt;stroke-linejoin:miter;stroke-opacity:1"
       x="23.483494"
       y="280.74069"
       id="text4598"><tspan
         sodipodi:role="line"
         id="tspan4596"
         x="23.483494"
         y="280.74069"
         style="font-style:normal;font-variant:normal;font-weight:bold;font-stretch:normal;font-family:sans-serif;-inkscape-font-specification:'sans-serif Bold';fill:#808080;stroke-width:0.02691494px">Creado por Andres Lacquaniti Creado por Andres Lacquaniti Creado por Andres Lacquaniti Creado por Andres Lacquaniti Creado por Andres Lacquaniti Creado por Andres Lacquaniti</tspan></text>
    <g
       id="g4579"
       transform="matrix(0.33221588,0,0,0.33221588,-9.3939924,235.94956)">
      <g
         transform="matrix(14.133502,0,0,23.804338,-1022.8128,-3684.207)"
         id="g4545">
        <path
           sodipodi:nodetypes="cccccssccsccccccccc"
           inkscape:connector-curvature="0"
           id="path4518"
           style="font-style:normal;font-variant:normal;font-weight:bold;font-stretch:normal;font-size:medium;line-height:0px;font-family:'Myra 4F Caps';-inkscape-font-specification:'Myra 4F Caps Bold';letter-spacing:0px;word-spacing:0px;fill:#000000;fill-opacity:1;stroke:none;stroke-width:0.26458332px;stroke-linecap:butt;stroke-linejoin:miter;stroke-opacity:1"
           d="m 77.839184,161.70157 v -2.31511 h -0.330729 l -0.826823,0.91845 -0.826823,-0.91845 H 75.52408 c -0.575469,0 -0.84336,0.19953 -0.84336,0.60963 0,0.3605 0.218282,0.66477 0.687917,0.66477 v -0.46302 c -0.135599,0 -0.198438,-0.0959 -0.198438,-0.20175 0,-0.12898 0.112448,-0.1466 0.353881,-0.1466 v 1.85208 h 0.496093 v -1.52565 l 0.496094,0.69123 h 0.330729 l 0.496094,-0.69123 v 1.52565 z" />
        <path
           inkscape:connector-curvature="0"
           id="path4520"
           style="font-style:normal;font-variant:normal;font-weight:bold;font-stretch:normal;font-size:medium;line-height:0px;font-family:'Myra 4F Caps';-inkscape-font-specification:'Myra 4F Caps Bold';letter-spacing:0px;word-spacing:0px;fill:#000000;fill-opacity:1;stroke:none;stroke-width:0.25771385px;stroke-linecap:butt;stroke-linejoin:miter;stroke-opacity:1"
           d="m 78.830803,161.70157 v -2.31511 h -0.470668 v 2.31511 z" />
      </g>
    </g>
    <g
       id="g4565"
       transform="matrix(0.33221588,0,0,0.33221588,-9.3939924,235.94956)">
      <path
         d="m 116.35457,129.60209 -4.50536,-7.19721 c 2.32352,-0.76508 3.93865,-2.72021 3.93865,-6.0638 0,-4.56206 -3.00357,-6.57391 -6.51718,-6.57391 h -8.07561 c -4.930394,0 -7.225574,2.55022 -7.225574,6.0638 0,3.08861 1.87015,5.69548 5.893794,5.69548 v -4.19367 c -1.161765,0 -1.700143,-0.70854 -1.700143,-1.50181 0,-1.10505 0.963409,-1.87013 3.031923,-1.87013 v 15.64125 h 4.25032 v -6.80053 h 1.98349 l 4.08032,6.80053 z M 105.44539,118.8346 v -5.10038 h 3.82529 c 1.21843,0 2.26684,0.34014 2.26684,2.55014 0,2.26682 -1.10507,2.55024 -2.26684,2.55024 z"
         style="font-style:normal;font-variant:normal;font-weight:bold;font-stretch:normal;font-size:medium;line-height:0px;font-family:'Myra 4F Caps';-inkscape-font-specification:'Myra 4F Caps Bold';letter-spacing:0px;word-spacing:0px;fill:#000000;fill-opacity:1;stroke:none;stroke-width:2.26684213px;stroke-linecap:butt;stroke-linejoin:miter;stroke-opacity:1"
         id="path4522"
         inkscape:connector-curvature="0" />
      <path
         d="m 123.49335,129.60209 v -19.83492 h -4.25033 v 19.83492 z"
         style="font-style:normal;font-variant:normal;font-weight:bold;font-stretch:normal;font-size:medium;line-height:0px;font-family:'Myra 4F Caps';-inkscape-font-specification:'Myra 4F Caps Bold';letter-spacing:0px;word-spacing:0px;fill:#000000;fill-opacity:1;stroke:none;stroke-width:2.26684213px;stroke-linecap:butt;stroke-linejoin:miter;stroke-opacity:1"
         id="path4524"
         inkscape:connector-curvature="0" />
      <path
         d="m 143.37869,129.60209 v -19.83492 h -4.25033 v 11.33424 l -8.52899,-11.33424 h -2.83355 v 19.83492 h 4.25032 v -11.33424 l 8.529,11.33424 z"
         style="font-style:normal;font-variant:normal;font-weight:bold;font-stretch:normal;font-size:medium;line-height:0px;font-family:'Myra 4F Caps';-inkscape-font-specification:'Myra 4F Caps Bold';letter-spacing:0px;word-spacing:0px;fill:#000000;fill-opacity:1;stroke:none;stroke-width:2.26684213px;stroke-linecap:butt;stroke-linejoin:miter;stroke-opacity:1"
         id="path4526"
         inkscape:connector-curvature="0" />
      <path
         d="m 160.89492,124.445 c -1.19009,1.19012 -2.77688,1.87013 -4.90205,1.87013 -2.97522,0 -4.95871,-1.61507 -4.95871,-6.8288 0,-4.76041 1.67179,-6.43221 4.33533,-6.43221 2.0685,0 3.48527,1.16177 3.48527,4.36365 h 4.25033 c 0,-5.66711 -3.48526,-8.33061 -7.7356,-8.33061 -4.95872,0 -8.58566,3.34359 -8.58566,10.42745 0,7.4239 3.96697,10.76749 9.26571,10.76749 3.03192,0 5.41209,-1.10505 7.19723,-2.69185 z"
         style="font-style:normal;font-variant:normal;font-weight:bold;font-stretch:normal;font-size:medium;line-height:0px;font-family:'Myra 4F Caps';-inkscape-font-specification:'Myra 4F Caps Bold';letter-spacing:0px;word-spacing:0px;fill:#000000;fill-opacity:1;stroke:none;stroke-width:2.26684213px;stroke-linecap:butt;stroke-linejoin:miter;stroke-opacity:1"
         id="path4528"
         inkscape:connector-curvature="0" />
      <path
         d="m 174.55707,113.05412 c 2.86188,0 4.81704,1.58681 4.81704,6.63055 0,5.04366 -1.95516,6.63046 -4.81704,6.63046 -2.86189,0 -4.81704,-1.5868 -4.81704,-6.63046 0,-5.04374 1.95515,-6.63055 4.81704,-6.63055 z m 0,-3.96696 c -5.21375,0 -9.06736,3.34359 -9.06736,10.59751 0,7.25384 3.85361,10.59743 9.06736,10.59743 5.21374,0 9.06737,-3.34359 9.06737,-10.59743 0,-7.25392 -3.85363,-10.59751 -9.06737,-10.59751 z"
         style="font-style:normal;font-variant:normal;font-weight:bold;font-stretch:normal;font-size:medium;line-height:0px;font-family:'Myra 4F Caps';-inkscape-font-specification:'Myra 4F Caps Bold';letter-spacing:0px;word-spacing:0px;fill:#000000;fill-opacity:1;stroke:none;stroke-width:2.26684213px;stroke-linecap:butt;stroke-linejoin:miter;stroke-opacity:1"
         id="path4530"
         inkscape:connector-curvature="0" />
      <path
         d="m 202.65087,129.60209 v -19.83492 h -4.25034 v 11.33424 l -8.52899,-11.33424 h -2.83356 v 19.83492 h 4.25033 v -11.33424 l 8.529,11.33424 z"
         style="font-style:normal;font-variant:normal;font-weight:bold;font-stretch:normal;font-size:medium;line-height:0px;font-family:'Myra 4F Caps';-inkscape-font-specification:'Myra 4F Caps Bold';letter-spacing:0px;word-spacing:0px;fill:#000000;fill-opacity:1;stroke:none;stroke-width:2.26684213px;stroke-linecap:butt;stroke-linejoin:miter;stroke-opacity:1"
         id="path4532"
         inkscape:connector-curvature="0" />
    </g>
    <g
       id="g4574"
       transform="matrix(0.33221588,0,0,0.33221588,-9.3939924,235.94956)">
      <g
         transform="matrix(8.5675935,0,0,8.5675935,-592.62925,-1246.2118)"
         id="text4487-0"
         style="font-style:normal;font-weight:normal;font-size:3.80827522px;line-height:0px;font-family:sans-serif;letter-spacing:0px;word-spacing:0px;fill:#000000;fill-opacity:1;stroke:none;stroke-width:0.30466199px;stroke-linecap:butt;stroke-linejoin:miter;stroke-opacity:1"
         inkscape:transform-center-y="-31.640654"
         inkscape:transform-center-x="11.535642"
         aria-label="Scout">
        <path
           inkscape:connector-curvature="0"
           id="path4507"
           style="font-style:normal;font-variant:normal;font-weight:bold;font-stretch:normal;font-family:'Myra 4F Caps';-inkscape-font-specification:'Myra 4F Caps Bold';stroke-width:0.31740952px"
           d="m 80.730481,164.31694 c 0.262771,0.23562 0.647407,0.3927 1.035851,0.3927 0.556008,0 1.077742,-0.32243 1.077742,-0.9838 0,-0.54978 -0.361787,-0.71926 -1.066317,-0.85566 -0.213264,-0.0414 -0.403678,-0.0786 -0.403678,-0.31416 0,-0.26869 0.24373,-0.35963 0.46461,-0.35963 0.24373,0 0.506501,0.11161 0.658832,0.28109 l 0.316086,-0.4671 c -0.262771,-0.24802 -0.632173,-0.3927 -0.982535,-0.3927 -0.521733,0 -1.028234,0.32656 -1.028234,0.97967 0,0.59524 0.41891,0.76059 0.974919,0.85566 0.266579,0.0455 0.495075,0.0579 0.495075,0.31416 0,0.27696 -0.258962,0.36376 -0.498884,0.36376 -0.258962,0 -0.556008,-0.0992 -0.72738,-0.27282 z" />
        <path
           inkscape:connector-curvature="0"
           id="path4509"
           style="font-style:normal;font-variant:normal;font-weight:bold;font-stretch:normal;font-family:'Myra 4F Caps';-inkscape-font-specification:'Myra 4F Caps Bold';stroke-width:0.31740952px"
           d="m 85.045792,163.85811 c -0.159947,0.17361 -0.373211,0.27282 -0.658831,0.27282 -0.399869,0 -0.666448,-0.23561 -0.666448,-0.9962 0,-0.69445 0.224688,-0.93834 0.582666,-0.93834 0.278004,0 0.468417,0.16948 0.468417,0.63658 h 0.571242 c 0,-0.82672 -0.468418,-1.21529 -1.039659,-1.21529 -0.666449,0 -1.153908,0.48778 -1.153908,1.52117 0,1.08302 0.533159,1.57079 1.245306,1.57079 0.407486,0 0.727381,-0.16121 0.967302,-0.3927 z" />
        <path
           inkscape:connector-curvature="0"
           id="path4511"
           style="font-style:normal;font-variant:normal;font-weight:bold;font-stretch:normal;font-family:'Myra 4F Caps';-inkscape-font-specification:'Myra 4F Caps Bold';stroke-width:0.31740952px"
           d="m 86.881976,162.19639 c 0.384636,0 0.647407,0.23148 0.647407,0.96727 0,0.73579 -0.262771,0.96727 -0.647407,0.96727 -0.384636,0 -0.647407,-0.23148 -0.647407,-0.96727 0,-0.73579 0.262771,-0.96727 0.647407,-0.96727 z m 0,-0.57871 c -0.700722,0 -1.218648,0.48778 -1.218648,1.54598 0,1.05821 0.517926,1.54598 1.218648,1.54598 0.700723,0 1.218648,-0.48777 1.218648,-1.54598 0,-1.0582 -0.517925,-1.54598 -1.218648,-1.54598 z" />
        <path
           inkscape:connector-curvature="0"
           id="path4513"
           style="font-style:normal;font-variant:normal;font-weight:bold;font-stretch:normal;font-family:'Myra 4F Caps';-inkscape-font-specification:'Myra 4F Caps Bold';stroke-width:0.31740952px"
           d="m 90.113179,163.6845 c 0,0.34309 -0.274196,0.44643 -0.502693,0.44643 -0.228496,0 -0.502692,-0.10333 -0.502692,-0.44643 v -1.96761 h -0.571241 v 1.9304 c 0,0.711 0.521733,1.06235 1.073933,1.06235 0.5522,0 1.073934,-0.35135 1.073934,-1.06235 v -1.9304 h -0.571241 z" />
        <path
           inkscape:connector-curvature="0"
           id="path4515"
           style="font-style:normal;font-variant:normal;font-weight:bold;font-stretch:normal;font-family:'Myra 4F Caps';-inkscape-font-specification:'Myra 4F Caps Bold';stroke-width:0.32700953px"
           d="m 92.291517,164.69795 v -2.38484 h 0.686604 v -0.59622 h -1.961727 v 0.59622 h 0.686605 v 2.38484 z" />
      </g>
    </g>
  </g>
</svg>
